<?xml version="1.0" encoding="utf-8"?>
<!-- Generator: Adobe Illustrator 25.2.3, SVG Export Plug-In . SVG Version: 6.00 Build 0)  -->
<svg version="1.1" id="Layer_1" xmlns="http://www.w3.org/2000/svg" xmlns:xlink="http://www.w3.org/1999/xlink" x="0px" y="0px"
	 viewBox="0 0 1000 1000" style="enable-background:new 0 0 1000 1000;" xml:space="preserve">
<style type="text/css">
	.st0{fill:#FEC243;}
</style>
<g>
	<path class="st0" d="M315.82,476.26c0.01,0,0.02,0,0.04,0c-0.29-0.02-0.52-0.03-0.8-0.05c-4-0.23-7.99-0.74-11.97-1.29
		c-1.24-0.54-2.43-1.38-3.87-2.84c-0.02,0-0.04,0.01-0.07,0.01c0.02-0.02,0.04-0.03,0.07-0.05c31.95-6.57,57.47-22.92,75.99-49.94
		c-0.01-0.01-0.02-0.01-0.03-0.01c36.6-47.88,31-119.46-12.85-163.49c-43.59-43.78-115.99-49.45-163.47-12.8
		c-34.04,23.81-50.35,57.1-52.96,98.01c-3.81,59.15,41.87,117.71,100.47,128.24c0.02,0.02,0.05,0.03,0.08,0.06
		c-0.04-0.01-0.08-0.01-0.11-0.02c-1.49,1.5-2.8,2.34-4.17,2.87c-4.15,0.56-8.31,1.08-12.51,1.28c-30.53,2.54-58.15,12.84-83,30.68
		c-0.02,0.02-0.04,0.04-0.06,0.06c-30.03,19.11-50.08,46.36-63.88,78.65c-16.57,38.78-14.78,79.79-12.54,120.32
		c2.35,42.84,29.63,71.55,72.48,72.78c87.37,2.54,174.89,2.46,262.3-0.07c31.98-0.93,54.3-19.03,65.42-49.67l0,0
		c0.67-1.38,1.68-2.69,1.9-4.11c5.11-35.34,5.52-70.95-0.26-106.03C459.55,543.33,390.24,480.85,315.82,476.26z"/>
	<path class="st0" d="M572.22,372.84c4.22,0.9,8.62,0.97,12.95,0.97c52.21,0.07,104.39,0.04,156.6,0.04c22.54,0,45.08,0,67.63,0.04
		c30.86,0,61.73,0.15,92.56-0.07c19.26-0.15,30.53-11.16,29.33-27.8c-1.08-14.89-12.24-23.36-31.42-23.36
		c-105.62-0.07-211.2-0.04-316.78,0c-3.55,0-7.17,0.15-10.6,0.86c-12.43,2.61-21.27,13.36-21.01,25.15
		C551.73,360.19,560.24,370.31,572.22,372.84z"/>
	<path class="st0" d="M931.21,497.24c-1.42-14.29-12.5-22.5-31.01-22.5c-98.08-0.07-196.16-0.04-294.24-0.04
		c-9.11,0-18.21-0.22-27.28,0.07c-12.13,0.41-21.35,5.6-25.57,17.54c-6.23,17.65,6.83,33.48,28.14,33.55
		c53.41,0.22,106.78,0.07,160.18,0.07c15.41,0,30.83,0,46.24,0c37.99,0,75.95,0.11,113.91-0.07
		C921.44,525.79,932.93,514.37,931.21,497.24z"/>
	<path class="st0" d="M826.04,626.85c-40.72-0.19-81.44-0.07-122.15-0.07c-40.72,0-81.44-0.07-122.15,0
		c-15,0.04-24.33,5.78-28.48,16.91c-6.83,18.4,6.76,34.26,29.63,34.3c80.24,0.11,160.52,0.07,240.76,0c3.92,0,7.95-0.26,11.76-1.12
		c13.73-3.14,21.31-14.11,19.71-27.99C853.55,635.36,842.8,626.93,826.04,626.85z"/>
</g>
</svg>
