<svg width="343" height="48" viewBox="0 0 343 48" fill="none" xmlns="http://www.w3.org/2000/svg">
<path d="M7.70508 8.61719C7.70508 8.14453 7.81445 7.78516 8.0332 7.53906C8.25586 7.29297 8.57812 7.16992 9 7.16992C9.41016 7.16992 9.72852 7.29102 9.95508 7.5332C10.1816 7.77539 10.2949 8.13672 10.2949 8.61719C10.2949 9.08203 10.1816 9.44141 9.95508 9.69531C9.73242 9.94531 9.41406 10.0703 9 10.0703C8.58203 10.0703 8.26172 9.94336 8.03906 9.68945C7.81641 9.43164 7.70508 9.07422 7.70508 8.61719ZM19.1777 4.43359H21.5977C22.7344 4.43359 23.5566 4.60352 24.0645 4.94336C24.5723 5.2832 24.8262 5.82031 24.8262 6.55469C24.8262 7.0625 24.6836 7.48242 24.3984 7.81445C24.1172 8.14258 23.7051 8.35547 23.1621 8.45312V8.51172C24.4629 8.73438 25.1133 9.41797 25.1133 10.5625C25.1133 11.3281 24.8535 11.9258 24.334 12.3555C23.8184 12.7852 23.0957 13 22.166 13H19.1777V4.43359ZM20.1738 8.10156H21.8145C22.5176 8.10156 23.0234 7.99219 23.332 7.77344C23.6406 7.55078 23.7949 7.17773 23.7949 6.6543C23.7949 6.17383 23.623 5.82812 23.2793 5.61719C22.9355 5.40234 22.3887 5.29492 21.6387 5.29492H20.1738V8.10156ZM20.1738 8.94531V12.1504H21.9609C22.6523 12.1504 23.1719 12.0176 23.5195 11.752C23.8711 11.4824 24.0469 11.0625 24.0469 10.4922C24.0469 9.96094 23.8672 9.57031 23.5078 9.32031C23.1523 9.07031 22.6094 8.94531 21.8789 8.94531H20.1738ZM31.1617 13L30.9684 12.0859H30.9215C30.6012 12.4883 30.2809 12.7617 29.9605 12.9062C29.6441 13.0469 29.2477 13.1172 28.7711 13.1172C28.1344 13.1172 27.6344 12.9531 27.2711 12.625C26.9117 12.2969 26.732 11.8301 26.732 11.2246C26.732 9.92773 27.7691 9.24805 29.8434 9.18555L30.9332 9.15039V8.75195C30.9332 8.24805 30.8238 7.87695 30.6051 7.63867C30.3902 7.39648 30.0445 7.27539 29.568 7.27539C29.0328 7.27539 28.4273 7.43945 27.7516 7.76758L27.4527 7.02344C27.7691 6.85156 28.1148 6.7168 28.4898 6.61914C28.8687 6.52148 29.2477 6.47266 29.6266 6.47266C30.3922 6.47266 30.9586 6.64258 31.3258 6.98242C31.6969 7.32227 31.8824 7.86719 31.8824 8.61719V13H31.1617ZM28.9645 12.3145C29.5699 12.3145 30.0445 12.1484 30.3883 11.8164C30.7359 11.4844 30.9098 11.0195 30.9098 10.4219V9.8418L29.9371 9.88281C29.1637 9.91016 28.6051 10.0312 28.2613 10.2461C27.9215 10.457 27.7516 10.7871 27.7516 11.2363C27.7516 11.5879 27.857 11.8555 28.068 12.0391C28.2828 12.2227 28.5816 12.3145 28.9645 12.3145ZM28.7359 14.418C28.7359 14.1953 28.7926 14.0312 28.9059 13.9258C29.023 13.8203 29.1637 13.7676 29.3277 13.7676C29.484 13.7676 29.6187 13.8203 29.732 13.9258C29.8453 14.0312 29.902 14.1953 29.902 14.418C29.902 14.6328 29.8453 14.793 29.732 14.8984C29.6187 15.0078 29.484 15.0625 29.3277 15.0625C29.1637 15.0625 29.023 15.0078 28.9059 14.8984C28.7926 14.793 28.7359 14.6328 28.7359 14.418ZM38.6867 13V8.8457C38.6867 8.32227 38.5676 7.93164 38.3293 7.67383C38.091 7.41602 37.718 7.28711 37.2102 7.28711C36.5383 7.28711 36.0461 7.46875 35.7336 7.83203C35.4211 8.19531 35.2648 8.79492 35.2648 9.63086V13H34.2922V6.57812H35.0832L35.2414 7.45703H35.2883C35.4875 7.14062 35.7668 6.89648 36.1262 6.72461C36.4855 6.54883 36.8859 6.46094 37.3273 6.46094C38.1008 6.46094 38.6828 6.64844 39.0734 7.02344C39.4641 7.39453 39.6594 7.99023 39.6594 8.81055V13H38.6867ZM48.5687 6.47266C49.4125 6.47266 50.0668 6.76172 50.5316 7.33984C51.0004 7.91406 51.2348 8.72852 51.2348 9.7832C51.2348 10.8379 50.9984 11.6582 50.5258 12.2441C50.057 12.8262 49.4047 13.1172 48.5687 13.1172C48.1508 13.1172 47.768 13.041 47.4203 12.8887C47.0766 12.7324 46.7875 12.4941 46.5531 12.1738H46.4828L46.2777 13H45.5805V3.88281H46.5531V6.09766C46.5531 6.59375 46.5375 7.03906 46.5062 7.43359H46.5531C47.0062 6.79297 47.6781 6.47266 48.5687 6.47266ZM48.4281 7.28711C47.7641 7.28711 47.2855 7.47852 46.9926 7.86133C46.6996 8.24023 46.5531 8.88086 46.5531 9.7832C46.5531 10.6855 46.7035 11.332 47.0043 11.7227C47.3051 12.1094 47.7875 12.3027 48.4516 12.3027C49.0492 12.3027 49.4945 12.0859 49.7875 11.6523C50.0805 11.2148 50.227 10.5879 50.227 9.77148C50.227 8.93555 50.0805 8.3125 49.7875 7.90234C49.4945 7.49219 49.0414 7.28711 48.4281 7.28711ZM57.2891 13L57.0957 12.0859H57.0488C56.7285 12.4883 56.4082 12.7617 56.0879 12.9062C55.7715 13.0469 55.375 13.1172 54.8984 13.1172C54.2617 13.1172 53.7617 12.9531 53.3984 12.625C53.0391 12.2969 52.8594 11.8301 52.8594 11.2246C52.8594 9.92773 53.8965 9.24805 55.9707 9.18555L57.0605 9.15039V8.75195C57.0605 8.24805 56.9512 7.87695 56.7324 7.63867C56.5176 7.39648 56.1719 7.27539 55.6953 7.27539C55.1602 7.27539 54.5547 7.43945 53.8789 7.76758L53.5801 7.02344C53.8965 6.85156 54.2422 6.7168 54.6172 6.61914C54.9961 6.52148 55.375 6.47266 55.7539 6.47266C56.5195 6.47266 57.0859 6.64258 57.4531 6.98242C57.8242 7.32227 58.0098 7.86719 58.0098 8.61719V13H57.2891ZM55.0918 12.3145C55.6973 12.3145 56.1719 12.1484 56.5156 11.8164C56.8633 11.4844 57.0371 11.0195 57.0371 10.4219V9.8418L56.0645 9.88281C55.291 9.91016 54.7324 10.0312 54.3887 10.2461C54.0488 10.457 53.8789 10.7871 53.8789 11.2363C53.8789 11.5879 53.9844 11.8555 54.1953 12.0391C54.4102 12.2227 54.709 12.3145 55.0918 12.3145ZM54.8633 5.58203C55.0508 5.33984 55.252 5.04688 55.4668 4.70312C55.6855 4.35938 55.8574 4.06055 55.9824 3.80664H57.166V3.92969C56.9941 4.18359 56.7383 4.49609 56.3984 4.86719C56.0586 5.23828 55.7637 5.52539 55.5137 5.72852H54.8633V5.58203ZM64.8141 13V8.8457C64.8141 8.32227 64.6949 7.93164 64.4566 7.67383C64.2184 7.41602 63.8453 7.28711 63.3375 7.28711C62.6656 7.28711 62.1734 7.46875 61.8609 7.83203C61.5484 8.19531 61.3922 8.79492 61.3922 9.63086V13H60.4195V6.57812H61.2105L61.3688 7.45703H61.4156C61.6148 7.14062 61.8941 6.89648 62.2535 6.72461C62.6129 6.54883 63.0133 6.46094 63.4547 6.46094C64.2281 6.46094 64.8102 6.64844 65.2008 7.02344C65.5914 7.39453 65.7867 7.99023 65.7867 8.81055V13H64.8141ZM79.8934 13V8.82227C79.8934 8.31055 79.784 7.92773 79.5652 7.67383C79.3465 7.41602 79.0066 7.28711 78.5457 7.28711C77.9402 7.28711 77.493 7.46094 77.2039 7.80859C76.9148 8.15625 76.7703 8.69141 76.7703 9.41406V13H75.7977V8.82227C75.7977 8.31055 75.6883 7.92773 75.4695 7.67383C75.2508 7.41602 74.909 7.28711 74.4441 7.28711C73.8348 7.28711 73.3875 7.4707 73.1023 7.83789C72.8211 8.20117 72.6805 8.79883 72.6805 9.63086V13H71.7078V6.57812H72.4988L72.657 7.45703H72.7039C72.8875 7.14453 73.1453 6.90039 73.4773 6.72461C73.8133 6.54883 74.1883 6.46094 74.6023 6.46094C75.6062 6.46094 76.2625 6.82422 76.5711 7.55078H76.618C76.8094 7.21484 77.0867 6.94922 77.45 6.75391C77.8133 6.55859 78.2273 6.46094 78.6922 6.46094C79.4187 6.46094 79.9617 6.64844 80.3211 7.02344C80.6844 7.39453 80.866 7.99023 80.866 8.81055V13H79.8934ZM88.8187 9.7832C88.8187 10.8301 88.5551 11.6484 88.0277 12.2383C87.5004 12.8242 86.7719 13.1172 85.8422 13.1172C85.268 13.1172 84.7582 12.9824 84.3129 12.7129C83.8676 12.4434 83.5238 12.0566 83.2816 11.5527C83.0395 11.0488 82.9184 10.459 82.9184 9.7832C82.9184 8.73633 83.1801 7.92188 83.7035 7.33984C84.227 6.75391 84.9535 6.46094 85.8832 6.46094C86.7816 6.46094 87.4945 6.75977 88.0219 7.35742C88.5531 7.95508 88.8187 8.76367 88.8187 9.7832ZM83.9262 9.7832C83.9262 10.6035 84.0902 11.2285 84.4184 11.6582C84.7465 12.0879 85.2289 12.3027 85.8656 12.3027C86.5023 12.3027 86.9848 12.0898 87.3129 11.6641C87.6449 11.2344 87.8109 10.6074 87.8109 9.7832C87.8109 8.9668 87.6449 8.34766 87.3129 7.92578C86.9848 7.5 86.4984 7.28711 85.8539 7.28711C85.2172 7.28711 84.7367 7.49609 84.4125 7.91406C84.0883 8.33203 83.9262 8.95508 83.9262 9.7832ZM85.2914 14.418C85.2914 14.1953 85.348 14.0312 85.4613 13.9258C85.5785 13.8203 85.7191 13.7676 85.8832 13.7676C86.0395 13.7676 86.1742 13.8203 86.2875 13.9258C86.4008 14.0312 86.4574 14.1953 86.4574 14.418C86.4574 14.6328 86.4008 14.793 86.2875 14.8984C86.1742 15.0078 86.0395 15.0625 85.8832 15.0625C85.7191 15.0625 85.5785 15.0078 85.4613 14.8984C85.348 14.793 85.2914 14.6328 85.2914 14.418ZM83.8969 5.59375C84.393 5.0625 84.7406 4.67188 84.9398 4.42188C85.1391 4.17188 85.2836 3.9668 85.3734 3.80664H86.3461C86.432 3.9707 86.5805 4.18359 86.7914 4.44531C87.0062 4.70312 87.3578 5.08594 87.8461 5.59375V5.72852H87.1488C86.8051 5.51367 86.3734 5.15039 85.8539 4.63867C85.3227 5.16211 84.8949 5.52539 84.5707 5.72852H83.8969V5.59375ZM93.0039 12.3145C93.1758 12.3145 93.3418 12.3027 93.502 12.2793C93.6621 12.252 93.7891 12.2246 93.8828 12.1973V12.9414C93.7773 12.9922 93.6211 13.0332 93.4141 13.0645C93.2109 13.0996 93.0273 13.1172 92.8633 13.1172C91.6211 13.1172 91 12.4629 91 11.1543V7.33398H90.0801V6.86523L91 6.46094L91.4102 5.08984H91.9727V6.57812H93.8359V7.33398H91.9727V11.1133C91.9727 11.5 92.0645 11.7969 92.248 12.0039C92.4316 12.2109 92.6836 12.3145 93.0039 12.3145ZM102.077 13.1172C101.659 13.1172 101.277 13.041 100.929 12.8887C100.585 12.7324 100.296 12.4941 100.062 12.1738H99.9914C100.038 12.5488 100.062 12.9043 100.062 13.2402V15.8828H99.0891V6.57812H99.8801L100.015 7.45703H100.062C100.312 7.10547 100.603 6.85156 100.935 6.69531C101.267 6.53906 101.648 6.46094 102.077 6.46094C102.929 6.46094 103.585 6.75195 104.046 7.33398C104.511 7.91602 104.743 8.73242 104.743 9.7832C104.743 10.8379 104.507 11.6582 104.034 12.2441C103.566 12.8262 102.913 13.1172 102.077 13.1172ZM101.937 7.28711C101.28 7.28711 100.806 7.46875 100.513 7.83203C100.22 8.19531 100.07 8.77344 100.062 9.56641V9.7832C100.062 10.6855 100.212 11.332 100.513 11.7227C100.814 12.1094 101.296 12.3027 101.96 12.3027C102.515 12.3027 102.948 12.0781 103.261 11.6289C103.577 11.1797 103.736 10.5605 103.736 9.77148C103.736 8.9707 103.577 8.35742 103.261 7.93164C102.948 7.50195 102.507 7.28711 101.937 7.28711ZM111.243 13V8.8457C111.243 8.32227 111.124 7.93164 110.886 7.67383C110.647 7.41602 110.274 7.28711 109.766 7.28711C109.091 7.28711 108.596 7.4707 108.284 7.83789C107.975 8.20508 107.821 8.80664 107.821 9.64258V13H106.848V3.88281H107.821V6.64258C107.821 6.97461 107.805 7.25 107.774 7.46875H107.833C108.024 7.16016 108.296 6.91797 108.647 6.74219C109.003 6.5625 109.407 6.47266 109.86 6.47266C110.645 6.47266 111.233 6.66016 111.624 7.03516C112.018 7.40625 112.216 7.99805 112.216 8.81055V13H111.243ZM118.569 13L118.375 12.0859H118.329C118.008 12.4883 117.688 12.7617 117.368 12.9062C117.051 13.0469 116.655 13.1172 116.178 13.1172C115.541 13.1172 115.041 12.9531 114.678 12.625C114.319 12.2969 114.139 11.8301 114.139 11.2246C114.139 9.92773 115.176 9.24805 117.25 9.18555L118.34 9.15039V8.75195C118.34 8.24805 118.231 7.87695 118.012 7.63867C117.797 7.39648 117.452 7.27539 116.975 7.27539C116.44 7.27539 115.834 7.43945 115.159 7.76758L114.86 7.02344C115.176 6.85156 115.522 6.7168 115.897 6.61914C116.276 6.52148 116.655 6.47266 117.034 6.47266C117.799 6.47266 118.366 6.64258 118.733 6.98242C119.104 7.32227 119.289 7.86719 119.289 8.61719V13H118.569ZM116.371 12.3145C116.977 12.3145 117.452 12.1484 117.795 11.8164C118.143 11.4844 118.317 11.0195 118.317 10.4219V9.8418L117.344 9.88281C116.571 9.91016 116.012 10.0312 115.668 10.2461C115.329 10.457 115.159 10.7871 115.159 11.2363C115.159 11.5879 115.264 11.8555 115.475 12.0391C115.69 12.2227 115.989 12.3145 116.371 12.3145ZM118.709 5.72852H118.159C117.78 5.47461 117.368 5.15039 116.922 4.75586C116.508 5.13086 116.096 5.45508 115.686 5.72852H115.135V5.59375L115.446 5.24219C115.883 4.76172 116.204 4.37109 116.407 4.07031H117.438C117.696 4.4375 118.12 4.94531 118.709 5.59375V5.72852ZM115.604 4.58594H115.047C114.579 4.21875 114.18 3.81641 113.852 3.37891V3.25586H114.86C115.063 3.67773 115.311 4.07812 115.604 4.45703V4.58594ZM126.094 13V8.8457C126.094 8.32227 125.975 7.93164 125.736 7.67383C125.498 7.41602 125.125 7.28711 124.617 7.28711C123.945 7.28711 123.453 7.46875 123.141 7.83203C122.828 8.19531 122.672 8.79492 122.672 9.63086V13H121.699V6.57812H122.49L122.648 7.45703H122.695C122.895 7.14062 123.174 6.89648 123.533 6.72461C123.893 6.54883 124.293 6.46094 124.734 6.46094C125.508 6.46094 126.09 6.64844 126.48 7.02344C126.871 7.39453 127.066 7.99023 127.066 8.81055V13H126.094ZM137.382 13V8.8457C137.382 8.32227 137.263 7.93164 137.025 7.67383C136.786 7.41602 136.413 7.28711 135.905 7.28711C135.23 7.28711 134.736 7.4707 134.423 7.83789C134.114 8.20508 133.96 8.80664 133.96 9.64258V13H132.988V3.88281H133.96V6.64258C133.96 6.97461 133.945 7.25 133.913 7.46875H133.972C134.163 7.16016 134.435 6.91797 134.786 6.74219C135.142 6.5625 135.546 6.47266 135.999 6.47266C136.784 6.47266 137.372 6.66016 137.763 7.03516C138.157 7.40625 138.355 7.99805 138.355 8.81055V13H137.382ZM144.708 13L144.514 12.0859H144.468C144.147 12.4883 143.827 12.7617 143.507 12.9062C143.19 13.0469 142.794 13.1172 142.317 13.1172C141.68 13.1172 141.18 12.9531 140.817 12.625C140.458 12.2969 140.278 11.8301 140.278 11.2246C140.278 9.92773 141.315 9.24805 143.389 9.18555L144.479 9.15039V8.75195C144.479 8.24805 144.37 7.87695 144.151 7.63867C143.936 7.39648 143.591 7.27539 143.114 7.27539C142.579 7.27539 141.973 7.43945 141.298 7.76758L140.999 7.02344C141.315 6.85156 141.661 6.7168 142.036 6.61914C142.415 6.52148 142.794 6.47266 143.173 6.47266C143.938 6.47266 144.505 6.64258 144.872 6.98242C145.243 7.32227 145.429 7.86719 145.429 8.61719V13H144.708ZM142.511 12.3145C143.116 12.3145 143.591 12.1484 143.934 11.8164C144.282 11.4844 144.456 11.0195 144.456 10.4219V9.8418L143.483 9.88281C142.71 9.91016 142.151 10.0312 141.807 10.2461C141.468 10.457 141.298 10.7871 141.298 11.2363C141.298 11.5879 141.403 11.8555 141.614 12.0391C141.829 12.2227 142.128 12.3145 142.511 12.3145ZM146.819 6.57812H147.862L149.268 10.2402C149.577 11.0762 149.768 11.6797 149.842 12.0508H149.889C149.94 11.8516 150.045 11.5117 150.205 11.0312C150.37 10.5469 150.901 9.0625 151.799 6.57812H152.842L150.082 13.8906C149.809 14.6133 149.489 15.125 149.121 15.4258C148.758 15.7305 148.311 15.8828 147.78 15.8828C147.483 15.8828 147.19 15.8496 146.901 15.7832V15.0039C147.116 15.0508 147.356 15.0742 147.621 15.0742C148.289 15.0742 148.766 14.6992 149.051 13.9492L149.409 13.0352L146.819 6.57812ZM159.877 12.3145C160.048 12.3145 160.214 12.3027 160.375 12.2793C160.535 12.252 160.662 12.2246 160.755 12.1973V12.9414C160.65 12.9922 160.494 13.0332 160.287 13.0645C160.084 13.0996 159.9 13.1172 159.736 13.1172C158.494 13.1172 157.873 12.4629 157.873 11.1543V7.33398H156.953V6.86523L157.873 6.46094L158.283 5.08984H158.845V6.57812H160.709V7.33398H158.845V11.1133C158.845 11.5 158.937 11.7969 159.121 12.0039C159.304 12.2109 159.556 12.3145 159.877 12.3145ZM167.988 9.7832C167.988 10.8301 167.724 11.6484 167.196 12.2383C166.669 12.8242 165.941 13.1172 165.011 13.1172C164.437 13.1172 163.927 12.9824 163.482 12.7129C163.036 12.4434 162.693 12.0566 162.45 11.5527C162.208 11.0488 162.087 10.459 162.087 9.7832C162.087 8.73633 162.349 7.92188 162.872 7.33984C163.396 6.75391 164.122 6.46094 165.052 6.46094C165.95 6.46094 166.663 6.75977 167.191 7.35742C167.722 7.95508 167.988 8.76367 167.988 9.7832ZM163.095 9.7832C163.095 10.6035 163.259 11.2285 163.587 11.6582C163.915 12.0879 164.398 12.3027 165.034 12.3027C165.671 12.3027 166.154 12.0898 166.482 11.6641C166.814 11.2344 166.98 10.6074 166.98 9.7832C166.98 8.9668 166.814 8.34766 166.482 7.92578C166.154 7.5 165.667 7.28711 165.023 7.28711C164.386 7.28711 163.905 7.49609 163.581 7.91406C163.257 8.33203 163.095 8.95508 163.095 9.7832ZM174.048 13L173.854 12.0859H173.807C173.487 12.4883 173.167 12.7617 172.846 12.9062C172.53 13.0469 172.134 13.1172 171.657 13.1172C171.02 13.1172 170.52 12.9531 170.157 12.625C169.798 12.2969 169.618 11.8301 169.618 11.2246C169.618 9.92773 170.655 9.24805 172.729 9.18555L173.819 9.15039V8.75195C173.819 8.24805 173.71 7.87695 173.491 7.63867C173.276 7.39648 172.93 7.27539 172.454 7.27539C171.919 7.27539 171.313 7.43945 170.637 7.76758L170.339 7.02344C170.655 6.85156 171.001 6.7168 171.376 6.61914C171.755 6.52148 172.134 6.47266 172.512 6.47266C173.278 6.47266 173.845 6.64258 174.212 6.98242C174.583 7.32227 174.768 7.86719 174.768 8.61719V13H174.048ZM171.85 12.3145C172.456 12.3145 172.93 12.1484 173.274 11.8164C173.622 11.4844 173.796 11.0195 173.796 10.4219V9.8418L172.823 9.88281C172.05 9.91016 171.491 10.0312 171.147 10.2461C170.807 10.457 170.637 10.7871 170.637 11.2363C170.637 11.5879 170.743 11.8555 170.954 12.0391C171.169 12.2227 171.468 12.3145 171.85 12.3145ZM173.005 5.72852H172.36C172.106 5.52539 171.805 5.23633 171.458 4.86133C171.11 4.48633 170.858 4.17578 170.702 3.92969V3.80664H171.891C172.016 4.07617 172.19 4.38867 172.413 4.74414C172.636 5.0957 172.833 5.375 173.005 5.58203V5.72852ZM181.573 13V8.8457C181.573 8.32227 181.454 7.93164 181.215 7.67383C180.977 7.41602 180.604 7.28711 180.096 7.28711C179.424 7.28711 178.932 7.46875 178.62 7.83203C178.307 8.19531 178.151 8.79492 178.151 9.63086V13H177.178V6.57812H177.969L178.127 7.45703H178.174C178.373 7.14062 178.653 6.89648 179.012 6.72461C179.371 6.54883 179.772 6.46094 180.213 6.46094C180.987 6.46094 181.569 6.64844 181.959 7.02344C182.35 7.39453 182.545 7.99023 182.545 8.81055V13H181.573ZM191.455 6.47266C192.298 6.47266 192.953 6.76172 193.418 7.33984C193.886 7.91406 194.121 8.72852 194.121 9.7832C194.121 10.8379 193.884 11.6582 193.412 12.2441C192.943 12.8262 192.291 13.1172 191.455 13.1172C191.037 13.1172 190.654 13.041 190.306 12.8887C189.962 12.7324 189.673 12.4941 189.439 12.1738H189.369L189.164 13H188.466V3.88281H189.439V6.09766C189.439 6.59375 189.423 7.03906 189.392 7.43359H189.439C189.892 6.79297 190.564 6.47266 191.455 6.47266ZM191.314 7.28711C190.65 7.28711 190.171 7.47852 189.879 7.86133C189.586 8.24023 189.439 8.88086 189.439 9.7832C189.439 10.6855 189.589 11.332 189.89 11.7227C190.191 12.1094 190.673 12.3027 191.337 12.3027C191.935 12.3027 192.38 12.0859 192.673 11.6523C192.966 11.2148 193.113 10.5879 193.113 9.77148C193.113 8.93555 192.966 8.3125 192.673 7.90234C192.38 7.49219 191.927 7.28711 191.314 7.28711ZM201.769 9.7832C201.769 10.8301 201.505 11.6484 200.978 12.2383C200.45 12.8242 199.722 13.1172 198.792 13.1172C198.218 13.1172 197.708 12.9824 197.263 12.7129C196.818 12.4434 196.474 12.0566 196.232 11.5527C195.989 11.0488 195.868 10.459 195.868 9.7832C195.868 8.73633 196.13 7.92188 196.654 7.33984C197.177 6.75391 197.904 6.46094 198.833 6.46094C199.732 6.46094 200.445 6.75977 200.972 7.35742C201.503 7.95508 201.769 8.76367 201.769 9.7832ZM196.876 9.7832C196.876 10.6035 197.04 11.2285 197.368 11.6582C197.696 12.0879 198.179 12.3027 198.816 12.3027C199.452 12.3027 199.935 12.0898 200.263 11.6641C200.595 11.2344 200.761 10.6074 200.761 9.7832C200.761 8.9668 200.595 8.34766 200.263 7.92578C199.935 7.5 199.448 7.28711 198.804 7.28711C198.167 7.28711 197.687 7.49609 197.363 7.91406C197.038 8.33203 196.876 8.95508 196.876 9.7832ZM198.241 14.418C198.241 14.1953 198.298 14.0312 198.411 13.9258C198.529 13.8203 198.669 13.7676 198.833 13.7676C198.989 13.7676 199.124 13.8203 199.238 13.9258C199.351 14.0312 199.407 14.1953 199.407 14.418C199.407 14.6328 199.351 14.793 199.238 14.8984C199.124 15.0078 198.989 15.0625 198.833 15.0625C198.669 15.0625 198.529 15.0078 198.411 14.8984C198.298 14.793 198.241 14.6328 198.241 14.418ZM196.847 5.59375C197.343 5.0625 197.691 4.67188 197.89 4.42188C198.089 4.17188 198.234 3.9668 198.323 3.80664H199.296C199.382 3.9707 199.53 4.18359 199.741 4.44531C199.956 4.70312 200.308 5.08594 200.796 5.59375V5.72852H200.099C199.755 5.51367 199.323 5.15039 198.804 4.63867C198.273 5.16211 197.845 5.52539 197.521 5.72852H196.847V5.59375ZM211.539 11.248C211.539 11.8457 211.317 12.3066 210.871 12.6309C210.426 12.9551 209.801 13.1172 208.996 13.1172C208.145 13.1172 207.481 12.9824 207.004 12.7129V11.8105C207.313 11.9668 207.643 12.0898 207.995 12.1797C208.35 12.2695 208.692 12.3145 209.02 12.3145C209.528 12.3145 209.918 12.2344 210.192 12.0742C210.465 11.9102 210.602 11.6621 210.602 11.3301C210.602 11.0801 210.493 10.8672 210.274 10.6914C210.059 10.5117 209.637 10.3008 209.008 10.0586C208.411 9.83594 207.985 9.64258 207.731 9.47852C207.481 9.31055 207.293 9.12109 207.168 8.91016C207.047 8.69922 206.987 8.44727 206.987 8.1543C206.987 7.63086 207.2 7.21875 207.625 6.91797C208.051 6.61328 208.635 6.46094 209.377 6.46094C210.069 6.46094 210.745 6.60156 211.405 6.88281L211.059 7.67383C210.414 7.4082 209.83 7.27539 209.307 7.27539C208.846 7.27539 208.498 7.34766 208.264 7.49219C208.03 7.63672 207.913 7.83594 207.913 8.08984C207.913 8.26172 207.955 8.4082 208.041 8.5293C208.131 8.65039 208.274 8.76562 208.469 8.875C208.664 8.98438 209.039 9.14258 209.594 9.34961C210.356 9.62695 210.87 9.90625 211.135 10.1875C211.405 10.4688 211.539 10.8223 211.539 11.248ZM217.477 13L217.283 12.0859H217.236C216.916 12.4883 216.596 12.7617 216.275 12.9062C215.959 13.0469 215.562 13.1172 215.086 13.1172C214.449 13.1172 213.949 12.9531 213.586 12.625C213.227 12.2969 213.047 11.8301 213.047 11.2246C213.047 9.92773 214.084 9.24805 216.158 9.18555L217.248 9.15039V8.75195C217.248 8.24805 217.139 7.87695 216.92 7.63867C216.705 7.39648 216.359 7.27539 215.883 7.27539C215.348 7.27539 214.742 7.43945 214.066 7.76758L213.768 7.02344C214.084 6.85156 214.43 6.7168 214.805 6.61914C215.184 6.52148 215.562 6.47266 215.941 6.47266C216.707 6.47266 217.273 6.64258 217.641 6.98242C218.012 7.32227 218.197 7.86719 218.197 8.61719V13H217.477ZM215.279 12.3145C215.885 12.3145 216.359 12.1484 216.703 11.8164C217.051 11.4844 217.225 11.0195 217.225 10.4219V9.8418L216.252 9.88281C215.479 9.91016 214.92 10.0312 214.576 10.2461C214.236 10.457 214.066 10.7871 214.066 11.2363C214.066 11.5879 214.172 11.8555 214.383 12.0391C214.598 12.2227 214.896 12.3145 215.279 12.3145ZM217.143 4.24023C217.143 4.78711 216.818 5.12695 216.17 5.25977L216.111 5.92188H215.496L215.426 4.89062C215.762 4.83594 216.006 4.75977 216.158 4.66211C216.311 4.56445 216.387 4.43164 216.387 4.26367C216.387 4.0957 216.32 3.97266 216.188 3.89453C216.059 3.8125 215.852 3.77148 215.566 3.77148C215.324 3.77148 215.141 3.7832 215.016 3.80664V3.2207C215.164 3.18164 215.373 3.16211 215.643 3.16211C216.643 3.16211 217.143 3.52148 217.143 4.24023ZM225.002 13V8.8457C225.002 8.32227 224.882 7.93164 224.644 7.67383C224.406 7.41602 224.033 7.28711 223.525 7.28711C222.853 7.28711 222.361 7.46875 222.048 7.83203C221.736 8.19531 221.58 8.79492 221.58 9.63086V13H220.607V6.57812H221.398L221.556 7.45703H221.603C221.802 7.14062 222.082 6.89648 222.441 6.72461C222.8 6.54883 223.201 6.46094 223.642 6.46094C224.416 6.46094 224.998 6.64844 225.388 7.02344C225.779 7.39453 225.974 7.99023 225.974 8.81055V13H225.002ZM232.868 13H231.895V3.88281H232.868V13ZM236.245 6.58984V10.7441C236.245 11.2676 236.364 11.6582 236.602 11.916C236.84 12.1738 237.213 12.3027 237.721 12.3027C238.393 12.3027 238.883 12.1191 239.192 11.752C239.504 11.3848 239.661 10.7852 239.661 9.95312V6.58984H240.633V7.29883C240.954 7.25586 241.186 7.10938 241.33 6.85938C241.475 6.60938 241.547 6.18359 241.547 5.58203H242.59L242.678 5.7168C242.553 6.44336 242.319 6.99414 241.975 7.36914C241.631 7.74023 241.184 7.95312 240.633 8.00781V13H239.83L239.69 12.1387H239.637C239.434 12.459 239.155 12.7031 238.799 12.8711C238.448 13.0352 238.055 13.1172 237.621 13.1172C236.829 13.1172 236.237 12.9316 235.846 12.5605C235.455 12.1895 235.26 11.5957 235.26 10.7793V6.58984H236.245ZM249.254 9.7832C249.254 10.8301 248.99 11.6484 248.463 12.2383C247.936 12.8242 247.207 13.1172 246.277 13.1172C245.703 13.1172 245.193 12.9824 244.748 12.7129C244.303 12.4434 243.959 12.0566 243.717 11.5527C243.475 11.0488 243.354 10.459 243.354 9.7832C243.354 8.73633 243.615 7.92188 244.139 7.33984C244.662 6.75391 245.389 6.46094 246.318 6.46094C247.166 6.46094 247.857 6.73633 248.393 7.28711C248.592 7.22852 248.748 7.13672 248.861 7.01172C248.975 6.88281 249.057 6.72266 249.107 6.53125C249.158 6.33594 249.184 6.02344 249.184 5.59375H250.238L250.326 5.72852C250.205 6.33789 250.025 6.81445 249.787 7.1582C249.553 7.49805 249.236 7.74219 248.838 7.89062C249.115 8.42969 249.254 9.06055 249.254 9.7832ZM244.361 9.7832C244.361 10.6074 244.516 11.2344 244.824 11.6641C245.133 12.0898 245.625 12.3027 246.301 12.3027C246.984 12.3027 247.479 12.0898 247.783 11.6641C248.092 11.2344 248.246 10.6074 248.246 9.7832C248.246 8.96289 248.09 8.3418 247.777 7.91992C247.469 7.49805 246.973 7.28711 246.289 7.28711C245.613 7.28711 245.123 7.49805 244.818 7.91992C244.514 8.3418 244.361 8.96289 244.361 9.7832ZM245.703 14.418C245.703 14.1953 245.76 14.0312 245.873 13.9258C245.99 13.8203 246.131 13.7676 246.295 13.7676C246.451 13.7676 246.586 13.8203 246.699 13.9258C246.812 14.0312 246.869 14.1953 246.869 14.418C246.869 14.6328 246.812 14.793 246.699 14.8984C246.586 15.0078 246.451 15.0625 246.295 15.0625C246.131 15.0625 245.99 15.0078 245.873 14.8984C245.76 14.793 245.703 14.6328 245.703 14.418ZM255.818 13V8.8457C255.818 8.32227 255.699 7.93164 255.461 7.67383C255.222 7.41602 254.849 7.28711 254.341 7.28711C253.67 7.28711 253.177 7.46875 252.865 7.83203C252.552 8.19531 252.396 8.79492 252.396 9.63086V13H251.423V6.57812H252.214L252.373 7.45703H252.42C252.619 7.14062 252.898 6.89648 253.257 6.72461C253.617 6.54883 254.017 6.46094 254.459 6.46094C255.232 6.46094 255.814 6.64844 256.205 7.02344C256.595 7.39453 256.791 7.99023 256.791 8.81055V13H255.818ZM264.45 6.57812V7.19336L263.261 7.33398C263.37 7.4707 263.468 7.65039 263.554 7.87305C263.64 8.0918 263.683 8.33984 263.683 8.61719C263.683 9.24609 263.468 9.74805 263.038 10.123C262.609 10.498 262.019 10.6855 261.269 10.6855C261.077 10.6855 260.898 10.6699 260.73 10.6387C260.316 10.8574 260.109 11.1328 260.109 11.4648C260.109 11.6406 260.181 11.7715 260.325 11.8574C260.47 11.9395 260.718 11.9805 261.07 11.9805H262.206C262.902 11.9805 263.435 12.127 263.806 12.4199C264.181 12.7129 264.368 13.1387 264.368 13.6973C264.368 14.4082 264.083 14.9492 263.513 15.3203C262.943 15.6953 262.111 15.8828 261.017 15.8828C260.177 15.8828 259.529 15.7266 259.071 15.4141C258.618 15.1016 258.392 14.6602 258.392 14.0898C258.392 13.6992 258.517 13.3613 258.767 13.0762C259.017 12.791 259.368 12.5977 259.821 12.4961C259.657 12.4219 259.519 12.3066 259.405 12.1504C259.296 11.9941 259.241 11.8125 259.241 11.6055C259.241 11.3711 259.304 11.166 259.429 10.9902C259.554 10.8145 259.751 10.6445 260.021 10.4805C259.689 10.3438 259.417 10.1113 259.206 9.7832C258.999 9.45508 258.896 9.08008 258.896 8.6582C258.896 7.95508 259.107 7.41406 259.529 7.03516C259.95 6.65234 260.548 6.46094 261.321 6.46094C261.657 6.46094 261.96 6.5 262.23 6.57812H264.45ZM259.329 14.0781C259.329 14.4258 259.476 14.6895 259.769 14.8691C260.062 15.0488 260.482 15.1387 261.029 15.1387C261.845 15.1387 262.448 15.0156 262.839 14.7695C263.234 14.5273 263.431 14.1973 263.431 13.7793C263.431 13.4316 263.323 13.1895 263.109 13.0527C262.894 12.9199 262.489 12.8535 261.896 12.8535H260.73C260.288 12.8535 259.945 12.959 259.698 13.1699C259.452 13.3809 259.329 13.6836 259.329 14.0781ZM259.857 8.63477C259.857 9.08398 259.984 9.42383 260.237 9.6543C260.491 9.88477 260.845 10 261.298 10C262.247 10 262.722 9.53906 262.722 8.61719C262.722 7.65234 262.241 7.16992 261.28 7.16992C260.823 7.16992 260.472 7.29297 260.226 7.53906C259.98 7.78516 259.857 8.15039 259.857 8.63477ZM266.831 10.6387V10.3223C266.831 9.86523 266.901 9.49023 267.042 9.19727C267.182 8.90039 267.444 8.58789 267.827 8.25977C268.358 7.81055 268.692 7.47266 268.829 7.24609C268.97 7.01953 269.04 6.74609 269.04 6.42578C269.04 6.02734 268.911 5.7207 268.653 5.50586C268.399 5.28711 268.032 5.17773 267.552 5.17773C267.243 5.17773 266.942 5.21484 266.649 5.28906C266.356 5.35938 266.02 5.49023 265.641 5.68164L265.296 4.89062C266.034 4.50391 266.805 4.31055 267.61 4.31055C268.356 4.31055 268.936 4.49414 269.35 4.86133C269.764 5.22852 269.971 5.74609 269.971 6.41406C269.971 6.69922 269.932 6.95117 269.854 7.16992C269.78 7.38477 269.669 7.58984 269.52 7.78516C269.372 7.97656 269.052 8.28711 268.559 8.7168C268.165 9.05273 267.903 9.33203 267.774 9.55469C267.649 9.77734 267.587 10.0742 267.587 10.4453V10.6387H266.831ZM266.544 12.3789C266.544 11.8477 266.778 11.582 267.247 11.582C267.473 11.582 267.647 11.6504 267.768 11.7871C267.893 11.9238 267.956 12.1211 267.956 12.3789C267.956 12.6289 267.893 12.8242 267.768 12.9648C267.643 13.1016 267.47 13.1699 267.247 13.1699C267.044 13.1699 266.876 13.1094 266.743 12.9883C266.61 12.8633 266.544 12.6602 266.544 12.3789ZM7.70508 24.6172C7.70508 24.1445 7.81445 23.7852 8.0332 23.5391C8.25586 23.293 8.57812 23.1699 9 23.1699C9.41016 23.1699 9.72852 23.291 9.95508 23.5332C10.1816 23.7754 10.2949 24.1367 10.2949 24.6172C10.2949 25.082 10.1816 25.4414 9.95508 25.6953C9.73242 25.9453 9.41406 26.0703 9 26.0703C8.58203 26.0703 8.26172 25.9434 8.03906 25.6895C7.81641 25.4316 7.70508 25.0742 7.70508 24.6172ZM24.5625 29L23.4961 26.2754H20.0625L19.0078 29H18L21.3867 20.3984H22.2246L25.5938 29H24.5625ZM23.1855 25.3789L22.1895 22.7246C22.0605 22.3887 21.9277 21.9766 21.791 21.4883C21.7051 21.8633 21.582 22.2754 21.4219 22.7246L20.4141 25.3789H23.1855ZM27.9977 29H27.025V22.5781H27.9977V29ZM26.943 20.8379C26.943 20.6152 26.9977 20.4531 27.107 20.3516C27.2164 20.2461 27.3531 20.1934 27.5172 20.1934C27.6734 20.1934 27.8082 20.2461 27.9215 20.3516C28.0348 20.457 28.0914 20.6191 28.0914 20.8379C28.0914 21.0566 28.0348 21.2207 27.9215 21.3301C27.8082 21.4355 27.6734 21.4883 27.5172 21.4883C27.3531 21.4883 27.2164 21.4355 27.107 21.3301C26.9977 21.2207 26.943 21.0566 26.943 20.8379ZM34.95 29H33.9773V19.8828H34.95V29ZM41.3617 29L41.1684 28.0859H41.1215C40.8012 28.4883 40.4809 28.7617 40.1605 28.9062C39.8441 29.0469 39.4477 29.1172 38.9711 29.1172C38.3344 29.1172 37.8344 28.9531 37.4711 28.625C37.1117 28.2969 36.932 27.8301 36.932 27.2246C36.932 25.9277 37.9691 25.248 40.0434 25.1855L41.1332 25.1504V24.752C41.1332 24.248 41.0238 23.877 40.8051 23.6387C40.5902 23.3965 40.2445 23.2754 39.768 23.2754C39.2328 23.2754 38.6273 23.4395 37.9516 23.7676L37.6527 23.0234C37.9691 22.8516 38.3148 22.7168 38.6898 22.6191C39.0687 22.5215 39.4477 22.4727 39.8266 22.4727C40.5922 22.4727 41.1586 22.6426 41.5258 22.9824C41.8969 23.3223 42.0824 23.8672 42.0824 24.6172V29H41.3617ZM39.1645 28.3145C39.7699 28.3145 40.2445 28.1484 40.5883 27.8164C40.9359 27.4844 41.1098 27.0195 41.1098 26.4219V25.8418L40.1371 25.8828C39.3637 25.9102 38.8051 26.0312 38.4613 26.2461C38.1215 26.457 37.9516 26.7871 37.9516 27.2363C37.9516 27.5879 38.057 27.8555 38.268 28.0391C38.4828 28.2227 38.7816 28.3145 39.1645 28.3145ZM40.3187 21.7285H39.6742C39.4203 21.5254 39.1195 21.2363 38.7719 20.8613C38.4242 20.4863 38.1723 20.1758 38.016 19.9297V19.8066H39.2055C39.3305 20.0762 39.5043 20.3887 39.727 20.7441C39.9496 21.0957 40.1469 21.375 40.3187 21.582V21.7285ZM52.4039 29V24.8457C52.4039 24.3223 52.2848 23.9316 52.0465 23.6738C51.8082 23.416 51.4352 23.2871 50.9273 23.2871C50.2555 23.2871 49.7633 23.4688 49.4508 23.832C49.1383 24.1953 48.982 24.7949 48.982 25.6309V29H48.0094V22.5781H48.8004L48.9586 23.457H49.0055C49.2047 23.1406 49.484 22.8965 49.8434 22.7246C50.2027 22.5488 50.6031 22.4609 51.0445 22.4609C51.818 22.4609 52.4 22.6484 52.7906 23.0234C53.1813 23.3945 53.3766 23.9902 53.3766 24.8105V29H52.4039ZM61.0363 22.5781V23.1934L59.8469 23.334C59.9562 23.4707 60.0539 23.6504 60.1398 23.873C60.2258 24.0918 60.2687 24.3398 60.2687 24.6172C60.2687 25.2461 60.0539 25.748 59.6242 26.123C59.1945 26.498 58.6047 26.6855 57.8547 26.6855C57.6633 26.6855 57.4836 26.6699 57.3156 26.6387C56.9016 26.8574 56.6945 27.1328 56.6945 27.4648C56.6945 27.6406 56.7668 27.7715 56.9113 27.8574C57.0559 27.9395 57.3039 27.9805 57.6555 27.9805H58.7922C59.4875 27.9805 60.0207 28.127 60.3918 28.4199C60.7668 28.7129 60.9543 29.1387 60.9543 29.6973C60.9543 30.4082 60.6691 30.9492 60.0988 31.3203C59.5285 31.6953 58.6965 31.8828 57.6027 31.8828C56.7629 31.8828 56.1145 31.7266 55.6574 31.4141C55.2043 31.1016 54.9777 30.6602 54.9777 30.0898C54.9777 29.6992 55.1027 29.3613 55.3527 29.0762C55.6027 28.791 55.9543 28.5977 56.4074 28.4961C56.2434 28.4219 56.1047 28.3066 55.9914 28.1504C55.882 27.9941 55.8273 27.8125 55.8273 27.6055C55.8273 27.3711 55.8898 27.166 56.0148 26.9902C56.1398 26.8145 56.3371 26.6445 56.6066 26.4805C56.2746 26.3438 56.0031 26.1113 55.7922 25.7832C55.5852 25.4551 55.4816 25.0801 55.4816 24.6582C55.4816 23.9551 55.6926 23.4141 56.1145 23.0352C56.5363 22.6523 57.134 22.4609 57.9074 22.4609C58.2434 22.4609 58.5461 22.5 58.8156 22.5781H61.0363ZM55.9152 30.0781C55.9152 30.4258 56.0617 30.6895 56.3547 30.8691C56.6477 31.0488 57.0676 31.1387 57.6145 31.1387C58.4309 31.1387 59.0344 31.0156 59.425 30.7695C59.8195 30.5273 60.0168 30.1973 60.0168 29.7793C60.0168 29.4316 59.9094 29.1895 59.6945 29.0527C59.4797 28.9199 59.0754 28.8535 58.4816 28.8535H57.3156C56.8742 28.8535 56.5305 28.959 56.2844 29.1699C56.0383 29.3809 55.9152 29.6836 55.9152 30.0781ZM56.4426 24.6348C56.4426 25.084 56.5695 25.4238 56.8234 25.6543C57.0773 25.8848 57.4309 26 57.884 26C58.8332 26 59.3078 25.5391 59.3078 24.6172C59.3078 23.6523 58.8273 23.1699 57.8664 23.1699C57.4094 23.1699 57.0578 23.293 56.8117 23.5391C56.5656 23.7852 56.4426 24.1504 56.4426 24.6348ZM63.6688 22.5898V26.7441C63.6688 27.2676 63.7879 27.6582 64.0262 27.916C64.2645 28.1738 64.6375 28.3027 65.1453 28.3027C65.8172 28.3027 66.3074 28.1191 66.616 27.752C66.9285 27.3848 67.0848 26.7852 67.0848 25.9531V22.5898H68.0574V23.2988C68.3777 23.2559 68.6102 23.1094 68.7547 22.8594C68.8992 22.6094 68.9715 22.1836 68.9715 21.582H70.0145L70.1023 21.7168C69.9773 22.4434 69.743 22.9941 69.3992 23.3691C69.0555 23.7402 68.6082 23.9531 68.0574 24.0078V29H67.2547L67.1141 28.1387H67.0613C66.8582 28.459 66.5789 28.7031 66.2234 28.8711C65.8719 29.0352 65.4793 29.1172 65.0457 29.1172C64.2527 29.1172 63.6609 28.9316 63.2703 28.5605C62.8797 28.1895 62.6844 27.5957 62.6844 26.7793V22.5898H63.6688ZM76.6781 25.7832C76.6781 26.8301 76.4145 27.6484 75.8871 28.2383C75.3598 28.8242 74.6312 29.1172 73.7016 29.1172C73.1273 29.1172 72.6176 28.9824 72.1723 28.7129C71.727 28.4434 71.3832 28.0566 71.141 27.5527C70.8988 27.0488 70.7777 26.459 70.7777 25.7832C70.7777 24.7363 71.0395 23.9219 71.5629 23.3398C72.0863 22.7539 72.8129 22.4609 73.7426 22.4609C74.5902 22.4609 75.2816 22.7363 75.8168 23.2871C76.016 23.2285 76.1723 23.1367 76.2855 23.0117C76.3988 22.8828 76.4809 22.7227 76.5316 22.5312C76.5824 22.3359 76.6078 22.0234 76.6078 21.5938H77.6625L77.7504 21.7285C77.6293 22.3379 77.4496 22.8145 77.2113 23.1582C76.977 23.498 76.6605 23.7422 76.2621 23.8906C76.5395 24.4297 76.6781 25.0605 76.6781 25.7832ZM71.7855 25.7832C71.7855 26.6074 71.9398 27.2344 72.2484 27.6641C72.557 28.0898 73.0492 28.3027 73.725 28.3027C74.4086 28.3027 74.9027 28.0898 75.2074 27.6641C75.516 27.2344 75.6703 26.6074 75.6703 25.7832C75.6703 24.9629 75.5141 24.3418 75.2016 23.9199C74.893 23.498 74.3969 23.2871 73.7133 23.2871C73.0375 23.2871 72.5473 23.498 72.2426 23.9199C71.9379 24.3418 71.7855 24.9629 71.7855 25.7832ZM74.4516 21.7285H73.807C73.5531 21.5254 73.2523 21.2363 72.9047 20.8613C72.557 20.4863 72.3051 20.1758 72.1488 19.9297V19.8066H73.3383C73.4633 20.0762 73.6371 20.3887 73.8598 20.7441C74.0824 21.0957 74.2797 21.375 74.4516 21.582V21.7285ZM79.8203 29H78.8477V22.5781H79.8203V29ZM78.7656 20.8379C78.7656 20.6152 78.8203 20.4531 78.9297 20.3516C79.0391 20.2461 79.1758 20.1934 79.3398 20.1934C79.4961 20.1934 79.6309 20.2461 79.7441 20.3516C79.8574 20.457 79.9141 20.6191 79.9141 20.8379C79.9141 21.0566 79.8574 21.2207 79.7441 21.3301C79.6309 21.4355 79.4961 21.4883 79.3398 21.4883C79.1758 21.4883 79.0391 21.4355 78.9297 21.3301C78.8203 21.2207 78.7656 21.0566 78.7656 20.8379ZM88.2258 28.3027C88.8742 28.3027 89.3469 28.1289 89.6438 27.7812C89.9406 27.4336 90.0988 26.8477 90.1184 26.0234V25.8066C90.1184 24.9082 89.966 24.2617 89.6613 23.8672C89.3566 23.4727 88.8742 23.2754 88.2141 23.2754C87.6438 23.2754 87.2063 23.498 86.9016 23.9434C86.6008 24.3848 86.4504 25.0098 86.4504 25.8184C86.4504 26.627 86.5988 27.2441 86.8957 27.6699C87.1965 28.0918 87.6398 28.3027 88.2258 28.3027ZM88.0793 29.1172C87.2512 29.1172 86.6047 28.8262 86.1398 28.2441C85.675 27.6621 85.4426 26.8496 85.4426 25.8066C85.4426 24.7559 85.677 23.9355 86.1457 23.3457C86.6145 22.7559 87.2668 22.4609 88.1027 22.4609C88.9816 22.4609 89.6574 22.793 90.1301 23.457H90.1828L90.3234 22.5781H91.091V31.8828H90.1184V29.1348C90.1184 28.7441 90.1398 28.4121 90.1828 28.1387H90.1066C89.6574 28.791 88.9816 29.1172 88.0793 29.1172ZM94.4734 22.5781V26.7441C94.4734 27.2676 94.5926 27.6582 94.8309 27.916C95.0691 28.1738 95.4422 28.3027 95.95 28.3027C96.6219 28.3027 97.1121 28.1191 97.4207 27.752C97.7332 27.3848 97.8895 26.7852 97.8895 25.9531V22.5781H98.8621V29H98.0594L97.9187 28.1387H97.866C97.6668 28.4551 97.3895 28.6973 97.034 28.8652C96.6824 29.0332 96.2801 29.1172 95.827 29.1172C95.0457 29.1172 94.4598 28.9316 94.0691 28.5605C93.6824 28.1895 93.4891 27.5957 93.4891 26.7793V22.5781H94.4734ZM100.311 22.5781H101.354L102.76 26.2402C103.069 27.0762 103.26 27.6797 103.334 28.0508H103.381C103.432 27.8516 103.537 27.5117 103.698 27.0312C103.862 26.5469 104.393 25.0625 105.291 22.5781H106.334L103.575 29.8906C103.301 30.6133 102.981 31.125 102.614 31.4258C102.25 31.7305 101.803 31.8828 101.272 31.8828C100.975 31.8828 100.682 31.8496 100.393 31.7832V31.0039C100.608 31.0508 100.848 31.0742 101.114 31.0742C101.782 31.0742 102.258 30.6992 102.543 29.9492L102.901 29.0352L100.311 22.5781ZM110.49 29.1172C109.541 29.1172 108.791 28.8281 108.24 28.25C107.693 27.6719 107.42 26.8691 107.42 25.8418C107.42 24.8066 107.674 23.9844 108.182 23.375C108.693 22.7656 109.379 22.4609 110.238 22.4609C111.043 22.4609 111.68 22.7266 112.148 23.2578C112.617 23.7852 112.852 24.4824 112.852 25.3496V25.9648H108.428C108.447 26.7188 108.637 27.291 108.996 27.6816C109.359 28.0723 109.869 28.2676 110.525 28.2676C111.217 28.2676 111.9 28.123 112.576 27.834V28.7012C112.232 28.8496 111.906 28.9551 111.598 29.0176C111.293 29.084 110.924 29.1172 110.49 29.1172ZM110.227 23.2754C109.711 23.2754 109.299 23.4434 108.99 23.7793C108.686 24.1152 108.506 24.5801 108.451 25.1738H111.809C111.809 24.5605 111.672 24.0918 111.398 23.7676C111.125 23.4395 110.734 23.2754 110.227 23.2754ZM112.002 21.7285H111.451C111.014 21.4355 110.602 21.1113 110.215 20.7559C109.77 21.1504 109.357 21.4746 108.979 21.7285H108.428V21.582L108.738 21.2305C109.176 20.75 109.496 20.3594 109.699 20.0586H110.73C110.988 20.4258 111.412 20.9336 112.002 21.582V21.7285ZM111.533 20.4453C111.818 20.0898 112.066 19.6934 112.277 19.2559H113.285V19.3789C112.961 19.8086 112.564 20.2109 112.096 20.5859H111.533V20.4453ZM116.99 28.3145C117.162 28.3145 117.328 28.3027 117.488 28.2793C117.648 28.252 117.775 28.2246 117.869 28.1973V28.9414C117.763 28.9922 117.607 29.0332 117.4 29.0645C117.197 29.0996 117.013 29.1172 116.849 29.1172C115.607 29.1172 114.986 28.4629 114.986 27.1543V23.334H114.066V22.8652L114.986 22.4609L115.396 21.0898H115.959V22.5781H117.822V23.334H115.959V27.1133C115.959 27.5 116.05 27.7969 116.234 28.0039C116.418 28.2109 116.67 28.3145 116.99 28.3145ZM127.446 28.1387H127.393C126.944 28.791 126.272 29.1172 125.378 29.1172C124.538 29.1172 123.884 28.8301 123.415 28.2559C122.95 27.6816 122.718 26.8652 122.718 25.8066C122.718 24.748 122.952 23.9258 123.421 23.3398C123.889 22.7539 124.542 22.4609 125.378 22.4609C126.249 22.4609 126.917 22.7773 127.382 23.4102H127.458C127.415 23.0859 127.393 22.7812 127.393 22.4961V21.7168H124.768V20.9609H127.393V19.8828H128.366V20.9609H129.28V21.7168H128.366V29H127.575L127.446 28.1387ZM125.501 28.3027C126.165 28.3027 126.645 28.123 126.942 27.7637C127.243 27.4004 127.393 26.8164 127.393 26.0117V25.8066C127.393 24.8965 127.241 24.248 126.936 23.8613C126.636 23.4707 126.153 23.2754 125.489 23.2754C124.919 23.2754 124.481 23.498 124.177 23.9434C123.876 24.3848 123.725 25.0098 123.725 25.8184C123.725 26.6387 123.876 27.2578 124.177 27.6758C124.477 28.0938 124.919 28.3027 125.501 28.3027ZM131.807 29H130.834V22.5781H131.807V29ZM130.752 20.8379C130.752 20.6152 130.807 20.4531 130.916 20.3516C131.026 20.2461 131.163 20.1934 131.327 20.1934C131.483 20.1934 131.618 20.2461 131.731 20.3516C131.844 20.457 131.901 20.6191 131.901 20.8379C131.901 21.0566 131.844 21.2207 131.731 21.3301C131.618 21.4355 131.483 21.4883 131.327 21.4883C131.163 21.4883 131.026 21.4355 130.916 21.3301C130.807 21.2207 130.752 21.0566 130.752 20.8379ZM130.723 30.418C130.723 30.1953 130.78 30.0312 130.893 29.9258C131.01 29.8203 131.151 29.7676 131.315 29.7676C131.471 29.7676 131.606 29.8203 131.719 29.9258C131.832 30.0312 131.889 30.1953 131.889 30.418C131.889 30.6328 131.832 30.793 131.719 30.8984C131.606 31.0078 131.471 31.0625 131.315 31.0625C131.151 31.0625 131.01 31.0078 130.893 30.8984C130.78 30.793 130.723 30.6328 130.723 30.418ZM138.664 29V24.8457C138.664 24.3223 138.545 23.9316 138.307 23.6738C138.068 23.416 137.695 23.2871 137.188 23.2871C136.516 23.2871 136.023 23.4688 135.711 23.832C135.398 24.1953 135.242 24.7949 135.242 25.6309V29H134.27V22.5781H135.061L135.219 23.457H135.266C135.465 23.1406 135.744 22.8965 136.104 22.7246C136.463 22.5488 136.863 22.4609 137.305 22.4609C138.078 22.4609 138.66 22.6484 139.051 23.0234C139.441 23.3945 139.637 23.9902 139.637 24.8105V29H138.664ZM146.435 29V24.8457C146.435 24.3223 146.316 23.9316 146.078 23.6738C145.839 23.416 145.466 23.2871 144.959 23.2871C144.283 23.2871 143.789 23.4707 143.476 23.8379C143.168 24.2051 143.013 24.8066 143.013 25.6426V29H142.041V19.8828H143.013V22.6426C143.013 22.9746 142.998 23.25 142.966 23.4688H143.025C143.216 23.1602 143.488 22.918 143.839 22.7422C144.195 22.5625 144.599 22.4727 145.052 22.4727C145.837 22.4727 146.425 22.6602 146.816 23.0352C147.211 23.4062 147.408 23.998 147.408 24.8105V29H146.435ZM158.585 22.5781V23.1934L157.395 23.334C157.505 23.4707 157.602 23.6504 157.688 23.873C157.774 24.0918 157.817 24.3398 157.817 24.6172C157.817 25.2461 157.602 25.748 157.173 26.123C156.743 26.498 156.153 26.6855 155.403 26.6855C155.212 26.6855 155.032 26.6699 154.864 26.6387C154.45 26.8574 154.243 27.1328 154.243 27.4648C154.243 27.6406 154.315 27.7715 154.46 27.8574C154.604 27.9395 154.852 27.9805 155.204 27.9805H156.341C157.036 27.9805 157.569 28.127 157.94 28.4199C158.315 28.7129 158.503 29.1387 158.503 29.6973C158.503 30.4082 158.218 30.9492 157.647 31.3203C157.077 31.6953 156.245 31.8828 155.151 31.8828C154.311 31.8828 153.663 31.7266 153.206 31.4141C152.753 31.1016 152.526 30.6602 152.526 30.0898C152.526 29.6992 152.651 29.3613 152.901 29.0762C153.151 28.791 153.503 28.5977 153.956 28.4961C153.792 28.4219 153.653 28.3066 153.54 28.1504C153.43 27.9941 153.376 27.8125 153.376 27.6055C153.376 27.3711 153.438 27.166 153.563 26.9902C153.688 26.8145 153.886 26.6445 154.155 26.4805C153.823 26.3438 153.552 26.1113 153.341 25.7832C153.134 25.4551 153.03 25.0801 153.03 24.6582C153.03 23.9551 153.241 23.4141 153.663 23.0352C154.085 22.6523 154.682 22.4609 155.456 22.4609C155.792 22.4609 156.095 22.5 156.364 22.5781H158.585ZM153.464 30.0781C153.464 30.4258 153.61 30.6895 153.903 30.8691C154.196 31.0488 154.616 31.1387 155.163 31.1387C155.979 31.1387 156.583 31.0156 156.973 30.7695C157.368 30.5273 157.565 30.1973 157.565 29.7793C157.565 29.4316 157.458 29.1895 157.243 29.0527C157.028 28.9199 156.624 28.8535 156.03 28.8535H154.864C154.423 28.8535 154.079 28.959 153.833 29.1699C153.587 29.3809 153.464 29.6836 153.464 30.0781ZM153.991 24.6348C153.991 25.084 154.118 25.4238 154.372 25.6543C154.626 25.8848 154.979 26 155.432 26C156.382 26 156.856 25.5391 156.856 24.6172C156.856 23.6523 156.376 23.1699 155.415 23.1699C154.958 23.1699 154.606 23.293 154.36 23.5391C154.114 23.7852 153.991 24.1504 153.991 24.6348ZM161.276 29H160.303V22.5781H161.276V29ZM160.221 20.8379C160.221 20.6152 160.276 20.4531 160.385 20.3516C160.495 20.2461 160.631 20.1934 160.795 20.1934C160.952 20.1934 161.086 20.2461 161.2 20.3516C161.313 20.457 161.37 20.6191 161.37 20.8379C161.37 21.0566 161.313 21.2207 161.2 21.3301C161.086 21.4355 160.952 21.4883 160.795 21.4883C160.631 21.4883 160.495 21.4355 160.385 21.3301C160.276 21.2207 160.221 21.0566 160.221 20.8379ZM167.688 29L167.494 28.0859H167.447C167.127 28.4883 166.807 28.7617 166.486 28.9062C166.17 29.0469 165.773 29.1172 165.297 29.1172C164.66 29.1172 164.16 28.9531 163.797 28.625C163.438 28.2969 163.258 27.8301 163.258 27.2246C163.258 25.9277 164.295 25.248 166.369 25.1855L167.459 25.1504V24.752C167.459 24.248 167.35 23.877 167.131 23.6387C166.916 23.3965 166.57 23.2754 166.094 23.2754C165.559 23.2754 164.953 23.4395 164.277 23.7676L163.979 23.0234C164.295 22.8516 164.641 22.7168 165.016 22.6191C165.395 22.5215 165.773 22.4727 166.152 22.4727C166.918 22.4727 167.484 22.6426 167.852 22.9824C168.223 23.3223 168.408 23.8672 168.408 24.6172V29H167.688ZM165.49 28.3145C166.096 28.3145 166.57 28.1484 166.914 27.8164C167.262 27.4844 167.436 27.0195 167.436 26.4219V25.8418L166.463 25.8828C165.689 25.9102 165.131 26.0312 164.787 26.2461C164.447 26.457 164.277 26.7871 164.277 27.2363C164.277 27.5879 164.383 27.8555 164.594 28.0391C164.809 28.2227 165.107 28.3145 165.49 28.3145ZM165.262 21.582C165.449 21.3398 165.65 21.0469 165.865 20.7031C166.084 20.3594 166.256 20.0605 166.381 19.8066H167.564V19.9297C167.393 20.1836 167.137 20.4961 166.797 20.8672C166.457 21.2383 166.162 21.5254 165.912 21.7285H165.262V21.582ZM177.323 22.4727C178.167 22.4727 178.821 22.7617 179.286 23.3398C179.755 23.9141 179.989 24.7285 179.989 25.7832C179.989 26.8379 179.753 27.6582 179.28 28.2441C178.812 28.8262 178.159 29.1172 177.323 29.1172C176.905 29.1172 176.523 29.041 176.175 28.8887C175.831 28.7324 175.542 28.4941 175.308 28.1738H175.238L175.032 29H174.335V19.8828H175.308V22.0977C175.308 22.5938 175.292 23.0391 175.261 23.4336H175.308C175.761 22.793 176.433 22.4727 177.323 22.4727ZM177.183 23.2871C176.519 23.2871 176.04 23.4785 175.747 23.8613C175.454 24.2402 175.308 24.8809 175.308 25.7832C175.308 26.6855 175.458 27.332 175.759 27.7227C176.06 28.1094 176.542 28.3027 177.206 28.3027C177.804 28.3027 178.249 28.0859 178.542 27.6523C178.835 27.2148 178.982 26.5879 178.982 25.7715C178.982 24.9355 178.835 24.3125 178.542 23.9023C178.249 23.4922 177.796 23.2871 177.183 23.2871ZM186.044 29L185.85 28.0859H185.804C185.483 28.4883 185.163 28.7617 184.843 28.9062C184.526 29.0469 184.13 29.1172 183.653 29.1172C183.016 29.1172 182.516 28.9531 182.153 28.625C181.794 28.2969 181.614 27.8301 181.614 27.2246C181.614 25.9277 182.651 25.248 184.725 25.1855L185.815 25.1504V24.752C185.815 24.248 185.706 23.877 185.487 23.6387C185.272 23.3965 184.927 23.2754 184.45 23.2754C183.915 23.2754 183.309 23.4395 182.634 23.7676L182.335 23.0234C182.651 22.8516 182.997 22.7168 183.372 22.6191C183.751 22.5215 184.13 22.4727 184.509 22.4727C185.274 22.4727 185.841 22.6426 186.208 22.9824C186.579 23.3223 186.764 23.8672 186.764 24.6172V29H186.044ZM183.846 28.3145C184.452 28.3145 184.927 28.1484 185.27 27.8164C185.618 27.4844 185.792 27.0195 185.792 26.4219V25.8418L184.819 25.8828C184.046 25.9102 183.487 26.0312 183.143 26.2461C182.804 26.457 182.634 26.7871 182.634 27.2363C182.634 27.5879 182.739 27.8555 182.95 28.0391C183.165 28.2227 183.464 28.3145 183.846 28.3145ZM183.618 21.582C183.805 21.3398 184.007 21.0469 184.221 20.7031C184.44 20.3594 184.612 20.0605 184.737 19.8066H185.921V19.9297C185.749 20.1836 185.493 20.4961 185.153 20.8672C184.813 21.2383 184.518 21.5254 184.268 21.7285H183.618V21.582ZM193.569 29V24.8457C193.569 24.3223 193.45 23.9316 193.211 23.6738C192.973 23.416 192.6 23.2871 192.092 23.2871C191.42 23.2871 190.928 23.4688 190.616 23.832C190.303 24.1953 190.147 24.7949 190.147 25.6309V29H189.174V22.5781H189.965L190.123 23.457H190.17C190.37 23.1406 190.649 22.8965 191.008 22.7246C191.368 22.5488 191.768 22.4609 192.209 22.4609C192.983 22.4609 193.565 22.6484 193.955 23.0234C194.346 23.3945 194.541 23.9902 194.541 24.8105V29H193.569ZM197.607 26.6387V26.3223C197.607 25.8652 197.678 25.4902 197.818 25.1973C197.959 24.9004 198.221 24.5879 198.604 24.2598C199.135 23.8105 199.469 23.4727 199.605 23.2461C199.746 23.0195 199.816 22.7461 199.816 22.4258C199.816 22.0273 199.688 21.7207 199.43 21.5059C199.176 21.2871 198.809 21.1777 198.328 21.1777C198.02 21.1777 197.719 21.2148 197.426 21.2891C197.133 21.3594 196.797 21.4902 196.418 21.6816L196.072 20.8906C196.811 20.5039 197.582 20.3105 198.387 20.3105C199.133 20.3105 199.713 20.4941 200.127 20.8613C200.541 21.2285 200.748 21.7461 200.748 22.4141C200.748 22.6992 200.709 22.9512 200.631 23.1699C200.557 23.3848 200.445 23.5898 200.297 23.7852C200.148 23.9766 199.828 24.2871 199.336 24.7168C198.941 25.0527 198.68 25.332 198.551 25.5547C198.426 25.7773 198.363 26.0742 198.363 26.4453V26.6387H197.607ZM197.32 28.3789C197.32 27.8477 197.555 27.582 198.023 27.582C198.25 27.582 198.424 27.6504 198.545 27.7871C198.67 27.9238 198.732 28.1211 198.732 28.3789C198.732 28.6289 198.67 28.8242 198.545 28.9648C198.42 29.1016 198.246 29.1699 198.023 29.1699C197.82 29.1699 197.652 29.1094 197.52 28.9883C197.387 28.8633 197.32 28.6602 197.32 28.3789ZM7.70508 40.6172C7.70508 40.1445 7.81445 39.7852 8.0332 39.5391C8.25586 39.293 8.57812 39.1699 9 39.1699C9.41016 39.1699 9.72852 39.291 9.95508 39.5332C10.1816 39.7754 10.2949 40.1367 10.2949 40.6172C10.2949 41.082 10.1816 41.4414 9.95508 41.6953C9.73242 41.9453 9.41406 42.0703 9 42.0703C8.58203 42.0703 8.26172 41.9434 8.03906 41.6895C7.81641 41.4316 7.70508 41.0742 7.70508 40.6172ZM21.8145 45H20.8184V37.3184H18.1055V36.4336H24.5273V37.3184H21.8145V45ZM30.4703 45V40.8457C30.4703 40.3223 30.3512 39.9316 30.1129 39.6738C29.8746 39.416 29.5016 39.2871 28.9937 39.2871C28.318 39.2871 27.8238 39.4707 27.5113 39.8379C27.2027 40.2051 27.0484 40.8066 27.0484 41.6426V45H26.0758V35.8828H27.0484V38.6426C27.0484 38.9746 27.0328 39.25 27.0016 39.4688H27.0602C27.2516 39.1602 27.523 38.918 27.8746 38.7422C28.2301 38.5625 28.6344 38.4727 29.0875 38.4727C29.8727 38.4727 30.4605 38.6602 30.8512 39.0352C31.2457 39.4062 31.443 39.998 31.443 40.8105V45H30.4703ZM39.3898 41.7832C39.3898 42.8301 39.1262 43.6484 38.5988 44.2383C38.0715 44.8242 37.343 45.1172 36.4133 45.1172C35.8391 45.1172 35.3293 44.9824 34.884 44.7129C34.4387 44.4434 34.0949 44.0566 33.8527 43.5527C33.6105 43.0488 33.4895 42.459 33.4895 41.7832C33.4895 40.7363 33.7512 39.9219 34.2746 39.3398C34.798 38.7539 35.5246 38.4609 36.4543 38.4609C37.302 38.4609 37.9934 38.7363 38.5285 39.2871C38.7277 39.2285 38.884 39.1367 38.9973 39.0117C39.1105 38.8828 39.1926 38.7227 39.2434 38.5312C39.2941 38.3359 39.3195 38.0234 39.3195 37.5938H40.3742L40.4621 37.7285C40.341 38.3379 40.1613 38.8145 39.923 39.1582C39.6887 39.498 39.3723 39.7422 38.9738 39.8906C39.2512 40.4297 39.3898 41.0605 39.3898 41.7832ZM34.4973 41.7832C34.4973 42.6074 34.6516 43.2344 34.9602 43.6641C35.2687 44.0898 35.7609 44.3027 36.4367 44.3027C37.1203 44.3027 37.6145 44.0898 37.9191 43.6641C38.2277 43.2344 38.382 42.6074 38.382 41.7832C38.382 40.9629 38.2258 40.3418 37.9133 39.9199C37.6047 39.498 37.1086 39.2871 36.425 39.2871C35.7492 39.2871 35.259 39.498 34.9543 39.9199C34.6496 40.3418 34.4973 40.9629 34.4973 41.7832ZM37.1633 37.7285H36.5187C36.2648 37.5254 35.9641 37.2363 35.6164 36.8613C35.2687 36.4863 35.0168 36.1758 34.8605 35.9297V35.8066H36.05C36.175 36.0762 36.3488 36.3887 36.5715 36.7441C36.7941 37.0957 36.9914 37.375 37.1633 37.582V37.7285ZM42.532 45H41.5594V38.5781H42.532V45ZM41.4773 36.8379C41.4773 36.6152 41.532 36.4531 41.6414 36.3516C41.7508 36.2461 41.8875 36.1934 42.0516 36.1934C42.2078 36.1934 42.3426 36.2461 42.4559 36.3516C42.5691 36.457 42.6258 36.6191 42.6258 36.8379C42.6258 37.0566 42.5691 37.2207 42.4559 37.3301C42.3426 37.4355 42.2078 37.4883 42.0516 37.4883C41.8875 37.4883 41.7508 37.4355 41.6414 37.3301C41.532 37.2207 41.4773 37.0566 41.4773 36.8379ZM52.8828 44.1387H52.8301C52.3809 44.791 51.709 45.1172 50.8145 45.1172C49.9746 45.1172 49.3203 44.8301 48.8516 44.2559C48.3867 43.6816 48.1543 42.8652 48.1543 41.8066C48.1543 40.748 48.3887 39.9258 48.8574 39.3398C49.3262 38.7539 49.9785 38.4609 50.8145 38.4609C51.6855 38.4609 52.3535 38.7773 52.8184 39.4102H52.8945C52.8516 39.0859 52.8301 38.7812 52.8301 38.4961V37.7168H50.2051V36.9609H52.8301V35.8828H53.8027V36.9609H54.7168V37.7168H53.8027V45H53.0117L52.8828 44.1387ZM50.9375 44.3027C51.6016 44.3027 52.082 44.123 52.3789 43.7637C52.6797 43.4004 52.8301 42.8164 52.8301 42.0117V41.8066C52.8301 40.8965 52.6777 40.248 52.373 39.8613C52.0723 39.4707 51.5898 39.2754 50.9258 39.2754C50.3555 39.2754 49.918 39.498 49.6133 39.9434C49.3125 40.3848 49.1621 41.0098 49.1621 41.8184C49.1621 42.6387 49.3125 43.2578 49.6133 43.6758C49.9141 44.0938 50.3555 44.3027 50.9375 44.3027ZM57.2438 45H56.2711V38.5781H57.2438V45ZM56.1891 36.8379C56.1891 36.6152 56.2438 36.4531 56.3531 36.3516C56.4625 36.2461 56.5992 36.1934 56.7633 36.1934C56.9195 36.1934 57.0543 36.2461 57.1676 36.3516C57.2809 36.457 57.3375 36.6191 57.3375 36.8379C57.3375 37.0566 57.2809 37.2207 57.1676 37.3301C57.0543 37.4355 56.9195 37.4883 56.7633 37.4883C56.5992 37.4883 56.4625 37.4355 56.3531 37.3301C56.2438 37.2207 56.1891 37.0566 56.1891 36.8379ZM62.4191 45.1172C61.4699 45.1172 60.7199 44.8281 60.1691 44.25C59.6223 43.6719 59.3488 42.8691 59.3488 41.8418C59.3488 40.8066 59.6027 39.9844 60.1105 39.375C60.6223 38.7656 61.3078 38.4609 62.1672 38.4609C62.9719 38.4609 63.6086 38.7266 64.0773 39.2578C64.5461 39.7852 64.7805 40.4824 64.7805 41.3496V41.9648H60.3566C60.3762 42.7188 60.5656 43.291 60.925 43.6816C61.2883 44.0723 61.798 44.2676 62.4543 44.2676C63.1457 44.2676 63.8293 44.123 64.5051 43.834V44.7012C64.1613 44.8496 63.8352 44.9551 63.5266 45.0176C63.2219 45.084 62.8527 45.1172 62.4191 45.1172ZM62.1555 39.2754C61.6398 39.2754 61.2277 39.4434 60.9191 39.7793C60.6145 40.1152 60.4348 40.5801 60.3801 41.1738H63.7375C63.7375 40.5605 63.6008 40.0918 63.3273 39.7676C63.0539 39.4395 62.6633 39.2754 62.1555 39.2754ZM63.8605 37.7285H63.3098C62.8723 37.4355 62.4602 37.1113 62.0734 36.7559C61.6281 37.1504 61.216 37.4746 60.8371 37.7285H60.2863V37.582L60.5969 37.2305C61.0344 36.75 61.3547 36.3594 61.5578 36.0586H62.5891C62.8469 36.4258 63.2707 36.9336 63.8605 37.582V37.7285ZM64.8449 35.3613C64.8449 35.7637 64.5969 36.0215 64.1008 36.1348L64.0656 36.6094H63.5969L63.5383 35.8418C63.7609 35.8066 63.9328 35.7578 64.0539 35.6953C64.1789 35.6328 64.2414 35.5273 64.2414 35.3789C64.2414 35.2344 64.1848 35.1387 64.0715 35.0918C63.9621 35.041 63.8234 35.0156 63.6555 35.0156C63.4758 35.0156 63.3352 35.0273 63.2336 35.0508V34.582C63.3312 34.5586 63.4875 34.5469 63.7023 34.5469C64.4641 34.5469 64.8449 34.8184 64.8449 35.3613ZM75.0301 45V40.8223C75.0301 40.3105 74.9207 39.9277 74.702 39.6738C74.4832 39.416 74.1434 39.2871 73.6824 39.2871C73.077 39.2871 72.6297 39.4609 72.3406 39.8086C72.0516 40.1562 71.907 40.6914 71.907 41.4141V45H70.9344V40.8223C70.9344 40.3105 70.825 39.9277 70.6062 39.6738C70.3875 39.416 70.0457 39.2871 69.5809 39.2871C68.9715 39.2871 68.5242 39.4707 68.2391 39.8379C67.9578 40.2012 67.8172 40.7988 67.8172 41.6309V45H66.8445V38.5781H67.6355L67.7937 39.457H67.8406C68.0242 39.1445 68.282 38.9004 68.6141 38.7246C68.95 38.5488 69.325 38.4609 69.7391 38.4609C70.743 38.4609 71.3992 38.8242 71.7078 39.5508H71.7547C71.9461 39.2148 72.2234 38.9492 72.5867 38.7539C72.95 38.5586 73.3641 38.4609 73.8289 38.4609C74.5555 38.4609 75.0984 38.6484 75.4578 39.0234C75.8211 39.3945 76.0027 39.9902 76.0027 40.8105V45H75.0301ZM84.918 38.4727C85.7617 38.4727 86.416 38.7617 86.8809 39.3398C87.3496 39.9141 87.584 40.7285 87.584 41.7832C87.584 42.8379 87.3477 43.6582 86.875 44.2441C86.4062 44.8262 85.7539 45.1172 84.918 45.1172C84.5 45.1172 84.1172 45.041 83.7695 44.8887C83.4258 44.7324 83.1367 44.4941 82.9023 44.1738H82.832L82.627 45H81.9297V35.8828H82.9023V38.0977C82.9023 38.5938 82.8867 39.0391 82.8555 39.4336H82.9023C83.3555 38.793 84.0273 38.4727 84.918 38.4727ZM84.7773 39.2871C84.1133 39.2871 83.6348 39.4785 83.3418 39.8613C83.0488 40.2402 82.9023 40.8809 82.9023 41.7832C82.9023 42.6855 83.0527 43.332 83.3535 43.7227C83.6543 44.1094 84.1367 44.3027 84.8008 44.3027C85.3984 44.3027 85.8438 44.0859 86.1367 43.6523C86.4297 43.2148 86.5762 42.5879 86.5762 41.7715C86.5762 40.9355 86.4297 40.3125 86.1367 39.9023C85.8438 39.4922 85.3906 39.2871 84.7773 39.2871ZM93.6383 45L93.4449 44.0859H93.398C93.0777 44.4883 92.7574 44.7617 92.4371 44.9062C92.1207 45.0469 91.7242 45.1172 91.2477 45.1172C90.6109 45.1172 90.1109 44.9531 89.7477 44.625C89.3883 44.2969 89.2086 43.8301 89.2086 43.2246C89.2086 41.9277 90.2457 41.248 92.3199 41.1855L93.4098 41.1504V40.752C93.4098 40.248 93.3004 39.877 93.0816 39.6387C92.8668 39.3965 92.5211 39.2754 92.0445 39.2754C91.5094 39.2754 90.9039 39.4395 90.2281 39.7676L89.9293 39.0234C90.2457 38.8516 90.5914 38.7168 90.9664 38.6191C91.3453 38.5215 91.7242 38.4727 92.1031 38.4727C92.8688 38.4727 93.4352 38.6426 93.8023 38.9824C94.1734 39.3223 94.359 39.8672 94.359 40.6172V45H93.6383ZM91.441 44.3145C92.0465 44.3145 92.5211 44.1484 92.8648 43.8164C93.2125 43.4844 93.3863 43.0195 93.3863 42.4219V41.8418L92.4137 41.8828C91.6402 41.9102 91.0816 42.0312 90.7379 42.2461C90.398 42.457 90.2281 42.7871 90.2281 43.2363C90.2281 43.5879 90.3336 43.8555 90.5445 44.0391C90.7594 44.2227 91.0582 44.3145 91.441 44.3145ZM91.2125 37.582C91.4 37.3398 91.6012 37.0469 91.816 36.7031C92.0348 36.3594 92.2066 36.0605 92.3316 35.8066H93.5152V35.9297C93.3434 36.1836 93.0875 36.4961 92.7477 36.8672C92.4078 37.2383 92.1129 37.5254 91.8629 37.7285H91.2125V37.582ZM101.163 45V40.8457C101.163 40.3223 101.044 39.9316 100.806 39.6738C100.568 39.416 100.195 39.2871 99.6867 39.2871C99.0148 39.2871 98.5227 39.4688 98.2102 39.832C97.8977 40.1953 97.7414 40.7949 97.7414 41.6309V45H96.7688V38.5781H97.5598L97.718 39.457H97.7648C97.9641 39.1406 98.2434 38.8965 98.6027 38.7246C98.9621 38.5488 99.3625 38.4609 99.8039 38.4609C100.577 38.4609 101.159 38.6484 101.55 39.0234C101.941 39.3945 102.136 39.9902 102.136 40.8105V45H101.163ZM112.452 45V40.8457C112.452 40.3223 112.332 39.9316 112.094 39.6738C111.856 39.416 111.483 39.2871 110.975 39.2871C110.299 39.2871 109.805 39.4707 109.493 39.8379C109.184 40.2051 109.03 40.8066 109.03 41.6426V45H108.057V35.8828H109.03V38.6426C109.03 38.9746 109.014 39.25 108.983 39.4688H109.041C109.233 39.1602 109.504 38.918 109.856 38.7422C110.211 38.5625 110.616 38.4727 111.069 38.4727C111.854 38.4727 112.442 38.6602 112.832 39.0352C113.227 39.4062 113.424 39.998 113.424 40.8105V45H112.452ZM119.777 45L119.584 44.0859H119.537C119.217 44.4883 118.896 44.7617 118.576 44.9062C118.26 45.0469 117.863 45.1172 117.387 45.1172C116.75 45.1172 116.25 44.9531 115.887 44.625C115.527 44.2969 115.348 43.8301 115.348 43.2246C115.348 41.9277 116.385 41.248 118.459 41.1855L119.549 41.1504V40.752C119.549 40.248 119.439 39.877 119.221 39.6387C119.006 39.3965 118.66 39.2754 118.184 39.2754C117.648 39.2754 117.043 39.4395 116.367 39.7676L116.068 39.0234C116.385 38.8516 116.73 38.7168 117.105 38.6191C117.484 38.5215 117.863 38.4727 118.242 38.4727C119.008 38.4727 119.574 38.6426 119.941 38.9824C120.312 39.3223 120.498 39.8672 120.498 40.6172V45H119.777ZM117.58 44.3145C118.186 44.3145 118.66 44.1484 119.004 43.8164C119.352 43.4844 119.525 43.0195 119.525 42.4219V41.8418L118.553 41.8828C117.779 41.9102 117.221 42.0312 116.877 42.2461C116.537 42.457 116.367 42.7871 116.367 43.2363C116.367 43.5879 116.473 43.8555 116.684 44.0391C116.898 44.2227 117.197 44.3145 117.58 44.3145ZM118.734 37.7285H118.09C117.836 37.5254 117.535 37.2363 117.188 36.8613C116.84 36.4863 116.588 36.1758 116.432 35.9297V35.8066H117.621C117.746 36.0762 117.92 36.3887 118.143 36.7441C118.365 37.0957 118.562 37.375 118.734 37.582V37.7285ZM127.302 45V40.8457C127.302 40.3223 127.183 39.9316 126.945 39.6738C126.707 39.416 126.334 39.2871 125.826 39.2871C125.154 39.2871 124.662 39.4688 124.349 39.832C124.037 40.1953 123.88 40.7949 123.88 41.6309V45H122.908V38.5781H123.699L123.857 39.457H123.904C124.103 39.1406 124.382 38.8965 124.742 38.7246C125.101 38.5488 125.502 38.4609 125.943 38.4609C126.716 38.4609 127.298 38.6484 127.689 39.0234C128.08 39.3945 128.275 39.9902 128.275 40.8105V45H127.302ZM135.935 38.5781V39.1934L134.745 39.334C134.855 39.4707 134.952 39.6504 135.038 39.873C135.124 40.0918 135.167 40.3398 135.167 40.6172C135.167 41.2461 134.952 41.748 134.523 42.123C134.093 42.498 133.503 42.6855 132.753 42.6855C132.562 42.6855 132.382 42.6699 132.214 42.6387C131.8 42.8574 131.593 43.1328 131.593 43.4648C131.593 43.6406 131.665 43.7715 131.81 43.8574C131.954 43.9395 132.202 43.9805 132.554 43.9805H133.691C134.386 43.9805 134.919 44.127 135.29 44.4199C135.665 44.7129 135.853 45.1387 135.853 45.6973C135.853 46.4082 135.568 46.9492 134.997 47.3203C134.427 47.6953 133.595 47.8828 132.501 47.8828C131.661 47.8828 131.013 47.7266 130.556 47.4141C130.103 47.1016 129.876 46.6602 129.876 46.0898C129.876 45.6992 130.001 45.3613 130.251 45.0762C130.501 44.791 130.853 44.5977 131.306 44.4961C131.142 44.4219 131.003 44.3066 130.89 44.1504C130.78 43.9941 130.726 43.8125 130.726 43.6055C130.726 43.3711 130.788 43.166 130.913 42.9902C131.038 42.8145 131.236 42.6445 131.505 42.4805C131.173 42.3438 130.902 42.1113 130.691 41.7832C130.484 41.4551 130.38 41.0801 130.38 40.6582C130.38 39.9551 130.591 39.4141 131.013 39.0352C131.435 38.6523 132.032 38.4609 132.806 38.4609C133.142 38.4609 133.445 38.5 133.714 38.5781H135.935ZM130.814 46.0781C130.814 46.4258 130.96 46.6895 131.253 46.8691C131.546 47.0488 131.966 47.1387 132.513 47.1387C133.329 47.1387 133.933 47.0156 134.323 46.7695C134.718 46.5273 134.915 46.1973 134.915 45.7793C134.915 45.4316 134.808 45.1895 134.593 45.0527C134.378 44.9199 133.974 44.8535 133.38 44.8535H132.214C131.773 44.8535 131.429 44.959 131.183 45.1699C130.937 45.3809 130.814 45.6836 130.814 46.0781ZM131.341 40.6348C131.341 41.084 131.468 41.4238 131.722 41.6543C131.976 41.8848 132.329 42 132.782 42C133.732 42 134.206 41.5391 134.206 40.6172C134.206 39.6523 133.726 39.1699 132.765 39.1699C132.308 39.1699 131.956 39.293 131.71 39.5391C131.464 39.7852 131.341 40.1504 131.341 40.6348ZM143.245 44.3145C143.416 44.3145 143.582 44.3027 143.743 44.2793C143.903 44.252 144.03 44.2246 144.123 44.1973V44.9414C144.018 44.9922 143.862 45.0332 143.655 45.0645C143.452 45.0996 143.268 45.1172 143.104 45.1172C141.862 45.1172 141.241 44.4629 141.241 43.1543V39.334H140.321V38.8652L141.241 38.4609L141.651 37.0898H142.213V38.5781H144.077V39.334H142.213V43.1133C142.213 43.5 142.305 43.7969 142.489 44.0039C142.672 44.2109 142.924 44.3145 143.245 44.3145ZM151.355 41.7832C151.355 42.8301 151.092 43.6484 150.564 44.2383C150.037 44.8242 149.309 45.1172 148.379 45.1172C147.805 45.1172 147.295 44.9824 146.85 44.7129C146.404 44.4434 146.061 44.0566 145.818 43.5527C145.576 43.0488 145.455 42.459 145.455 41.7832C145.455 40.7363 145.717 39.9219 146.24 39.3398C146.764 38.7539 147.49 38.4609 148.42 38.4609C149.318 38.4609 150.031 38.7598 150.559 39.3574C151.09 39.9551 151.355 40.7637 151.355 41.7832ZM146.463 41.7832C146.463 42.6035 146.627 43.2285 146.955 43.6582C147.283 44.0879 147.766 44.3027 148.402 44.3027C149.039 44.3027 149.521 44.0898 149.85 43.6641C150.182 43.2344 150.348 42.6074 150.348 41.7832C150.348 40.9668 150.182 40.3477 149.85 39.9258C149.521 39.5 149.035 39.2871 148.391 39.2871C147.754 39.2871 147.273 39.4961 146.949 39.9141C146.625 40.332 146.463 40.9551 146.463 41.7832ZM150.184 37.7285H149.633C149.195 37.4355 148.783 37.1113 148.396 36.7559C147.951 37.1504 147.539 37.4746 147.16 37.7285H146.609V37.582L146.92 37.2305C147.357 36.75 147.678 36.3594 147.881 36.0586H148.912C149.17 36.4258 149.594 36.9336 150.184 37.582V37.7285ZM149.715 36.4453C150 36.0898 150.248 35.6934 150.459 35.2559H151.467V35.3789C151.143 35.8086 150.746 36.2109 150.277 36.5859H149.715V36.4453ZM155.541 44.3145C155.712 44.3145 155.879 44.3027 156.039 44.2793C156.199 44.252 156.326 44.2246 156.42 44.1973V44.9414C156.314 44.9922 156.158 45.0332 155.951 45.0645C155.748 45.0996 155.564 45.1172 155.4 45.1172C154.158 45.1172 153.537 44.4629 153.537 43.1543V39.334H152.617V38.8652L153.537 38.4609L153.947 37.0898H154.509V38.5781H156.373V39.334H154.509V43.1133C154.509 43.5 154.601 43.7969 154.785 44.0039C154.968 44.2109 155.22 44.3145 155.541 44.3145ZM166.02 45V40.8457C166.02 40.3223 165.901 39.9316 165.663 39.6738C165.425 39.416 165.052 39.2871 164.544 39.2871C163.872 39.2871 163.38 39.4688 163.067 39.832C162.755 40.1953 162.598 40.7949 162.598 41.6309V45H161.626V38.5781H162.417L162.575 39.457H162.622C162.821 39.1406 163.1 38.8965 163.46 38.7246C163.819 38.5488 164.22 38.4609 164.661 38.4609C165.434 38.4609 166.016 38.6484 166.407 39.0234C166.798 39.3945 166.993 39.9902 166.993 40.8105V45H166.02ZM173.791 45V40.8457C173.791 40.3223 173.672 39.9316 173.434 39.6738C173.196 39.416 172.823 39.2871 172.315 39.2871C171.639 39.2871 171.145 39.4707 170.832 39.8379C170.524 40.2051 170.37 40.8066 170.37 41.6426V45H169.397V35.8828H170.37V38.6426C170.37 38.9746 170.354 39.25 170.323 39.4688H170.381C170.573 39.1602 170.844 38.918 171.196 38.7422C171.551 38.5625 171.955 38.4727 172.409 38.4727C173.194 38.4727 173.782 38.6602 174.172 39.0352C174.567 39.4062 174.764 39.998 174.764 40.8105V45H173.791ZM181.117 45L180.924 44.0859H180.877C180.557 44.4883 180.236 44.7617 179.916 44.9062C179.6 45.0469 179.203 45.1172 178.727 45.1172C178.09 45.1172 177.59 44.9531 177.227 44.625C176.867 44.2969 176.688 43.8301 176.688 43.2246C176.688 41.9277 177.725 41.248 179.799 41.1855L180.889 41.1504V40.752C180.889 40.248 180.779 39.877 180.561 39.6387C180.346 39.3965 180 39.2754 179.523 39.2754C178.988 39.2754 178.383 39.4395 177.707 39.7676L177.408 39.0234C177.725 38.8516 178.07 38.7168 178.445 38.6191C178.824 38.5215 179.203 38.4727 179.582 38.4727C180.348 38.4727 180.914 38.6426 181.281 38.9824C181.652 39.3223 181.838 39.8672 181.838 40.6172V45H181.117ZM178.92 44.3145C179.525 44.3145 180 44.1484 180.344 43.8164C180.691 43.4844 180.865 43.0195 180.865 42.4219V41.8418L179.893 41.8828C179.119 41.9102 178.561 42.0312 178.217 42.2461C177.877 42.457 177.707 42.7871 177.707 43.2363C177.707 43.5879 177.812 43.8555 178.023 44.0391C178.238 44.2227 178.537 44.3145 178.92 44.3145ZM181.234 37.7285H180.684C180.246 37.4355 179.834 37.1113 179.447 36.7559C179.002 37.1504 178.59 37.4746 178.211 37.7285H177.66V37.582L177.971 37.2305C178.408 36.75 178.729 36.3594 178.932 36.0586H179.963C180.221 36.4258 180.645 36.9336 181.234 37.582V37.7285ZM180.766 36.4453C181.051 36.0898 181.299 35.6934 181.51 35.2559H182.518V35.3789C182.193 35.8086 181.797 36.2109 181.328 36.5859H180.766V36.4453ZM186.322 44.3145C186.494 44.3145 186.66 44.3027 186.82 44.2793C186.98 44.252 187.107 44.2246 187.201 44.1973V44.9414C187.095 44.9922 186.939 45.0332 186.732 45.0645C186.529 45.0996 186.345 45.1172 186.181 45.1172C184.939 45.1172 184.318 44.4629 184.318 43.1543V39.334H183.398V38.8652L184.318 38.4609L184.728 37.0898H185.291V38.5781H187.154V39.334H185.291V43.1133C185.291 43.5 185.382 43.7969 185.566 44.0039C185.75 44.2109 186.002 44.3145 186.322 44.3145ZM189.552 42.6387V42.3223C189.552 41.8652 189.622 41.4902 189.763 41.1973C189.904 40.9004 190.165 40.5879 190.548 40.2598C191.079 39.8105 191.413 39.4727 191.55 39.2461C191.691 39.0195 191.761 38.7461 191.761 38.4258C191.761 38.0273 191.632 37.7207 191.374 37.5059C191.12 37.2871 190.753 37.1777 190.273 37.1777C189.964 37.1777 189.663 37.2148 189.37 37.2891C189.077 37.3594 188.741 37.4902 188.363 37.6816L188.017 36.8906C188.755 36.5039 189.527 36.3105 190.331 36.3105C191.077 36.3105 191.657 36.4941 192.071 36.8613C192.486 37.2285 192.693 37.7461 192.693 38.4141C192.693 38.6992 192.654 38.9512 192.575 39.1699C192.501 39.3848 192.39 39.5898 192.241 39.7852C192.093 39.9766 191.773 40.2871 191.28 40.7168C190.886 41.0527 190.624 41.332 190.495 41.5547C190.37 41.7773 190.308 42.0742 190.308 42.4453V42.6387H189.552ZM189.265 44.3789C189.265 43.8477 189.499 43.582 189.968 43.582C190.195 43.582 190.368 43.6504 190.489 43.7871C190.614 43.9238 190.677 44.1211 190.677 44.3789C190.677 44.6289 190.614 44.8242 190.489 44.9648C190.364 45.1016 190.191 45.1699 189.968 45.1699C189.765 45.1699 189.597 45.1094 189.464 44.9883C189.331 44.8633 189.265 44.6602 189.265 44.3789Z" fill="#A7ABC3"/>
</svg>
