<svg width="343" height="48" viewBox="0 0 343 48" fill="none" xmlns="http://www.w3.org/2000/svg">
<path d="M7.70508 8.61719C7.70508 8.14453 7.81445 7.78516 8.0332 7.53906C8.25586 7.29297 8.57812 7.16992 9 7.16992C9.41016 7.16992 9.72852 7.29102 9.95508 7.5332C10.1816 7.77539 10.2949 8.13672 10.2949 8.61719C10.2949 9.08203 10.1816 9.44141 9.95508 9.69531C9.73242 9.94531 9.41406 10.0703 9 10.0703C8.58203 10.0703 8.26172 9.94336 8.03906 9.68945C7.81641 9.43164 7.70508 9.07422 7.70508 8.61719ZM19.1777 4.43359H21.5977C22.7344 4.43359 23.5566 4.60352 24.0645 4.94336C24.5723 5.2832 24.8262 5.82031 24.8262 6.55469C24.8262 7.0625 24.6836 7.48242 24.3984 7.81445C24.1172 8.14258 23.7051 8.35547 23.1621 8.45312V8.51172C24.4629 8.73438 25.1133 9.41797 25.1133 10.5625C25.1133 11.3281 24.8535 11.9258 24.334 12.3555C23.8184 12.7852 23.0957 13 22.166 13H19.1777V4.43359ZM20.1738 8.10156H21.8145C22.5176 8.10156 23.0234 7.99219 23.332 7.77344C23.6406 7.55078 23.7949 7.17773 23.7949 6.6543C23.7949 6.17383 23.623 5.82812 23.2793 5.61719C22.9355 5.40234 22.3887 5.29492 21.6387 5.29492H20.1738V8.10156ZM20.1738 8.94531V12.1504H21.9609C22.6523 12.1504 23.1719 12.0176 23.5195 11.752C23.8711 11.4824 24.0469 11.0625 24.0469 10.4922C24.0469 9.96094 23.8672 9.57031 23.5078 9.32031C23.1523 9.07031 22.6094 8.94531 21.8789 8.94531H20.1738ZM31.1617 13L30.9684 12.0859H30.9215C30.6012 12.4883 30.2809 12.7617 29.9605 12.9062C29.6441 13.0469 29.2477 13.1172 28.7711 13.1172C28.1344 13.1172 27.6344 12.9531 27.2711 12.625C26.9117 12.2969 26.732 11.8301 26.732 11.2246C26.732 9.92773 27.7691 9.24805 29.8434 9.18555L30.9332 9.15039V8.75195C30.9332 8.24805 30.8238 7.87695 30.6051 7.63867C30.3902 7.39648 30.0445 7.27539 29.568 7.27539C29.0328 7.27539 28.4273 7.43945 27.7516 7.76758L27.4527 7.02344C27.7691 6.85156 28.1148 6.7168 28.4898 6.61914C28.8687 6.52148 29.2477 6.47266 29.6266 6.47266C30.3922 6.47266 30.9586 6.64258 31.3258 6.98242C31.6969 7.32227 31.8824 7.86719 31.8824 8.61719V13H31.1617ZM28.9645 12.3145C29.5699 12.3145 30.0445 12.1484 30.3883 11.8164C30.7359 11.4844 30.9098 11.0195 30.9098 10.4219V9.8418L29.9371 9.88281C29.1637 9.91016 28.6051 10.0312 28.2613 10.2461C27.9215 10.457 27.7516 10.7871 27.7516 11.2363C27.7516 11.5879 27.857 11.8555 28.068 12.0391C28.2828 12.2227 28.5816 12.3145 28.9645 12.3145ZM28.7359 5.58203C28.9234 5.33984 29.1246 5.04688 29.3395 4.70312C29.5582 4.35938 29.7301 4.06055 29.8551 3.80664H31.0387V3.92969C30.8668 4.18359 30.6109 4.49609 30.2711 4.86719C29.9312 5.23828 29.6363 5.52539 29.3863 5.72852H28.7359V5.58203ZM38.6867 13V8.8457C38.6867 8.32227 38.5676 7.93164 38.3293 7.67383C38.091 7.41602 37.718 7.28711 37.2102 7.28711C36.5383 7.28711 36.0461 7.46875 35.7336 7.83203C35.4211 8.19531 35.2648 8.79492 35.2648 9.63086V13H34.2922V6.57812H35.0832L35.2414 7.45703H35.2883C35.4875 7.14062 35.7668 6.89648 36.1262 6.72461C36.4855 6.54883 36.8859 6.46094 37.3273 6.46094C38.1008 6.46094 38.6828 6.64844 39.0734 7.02344C39.4641 7.39453 39.6594 7.99023 39.6594 8.81055V13H38.6867ZM47.6547 12.3145C47.8266 12.3145 47.9926 12.3027 48.1527 12.2793C48.3129 12.252 48.4398 12.2246 48.5336 12.1973V12.9414C48.4281 12.9922 48.2719 13.0332 48.0648 13.0645C47.8617 13.0996 47.6781 13.1172 47.5141 13.1172C46.2719 13.1172 45.6508 12.4629 45.6508 11.1543V7.33398H44.7309V6.86523L45.6508 6.46094L46.0609 5.08984H46.6234V6.57812H48.4867V7.33398H46.6234V11.1133C46.6234 11.5 46.7152 11.7969 46.8988 12.0039C47.0824 12.2109 47.3344 12.3145 47.6547 12.3145ZM54.1719 13L53.9785 12.0859H53.9316C53.6113 12.4883 53.291 12.7617 52.9707 12.9062C52.6543 13.0469 52.2578 13.1172 51.7812 13.1172C51.1445 13.1172 50.6445 12.9531 50.2812 12.625C49.9219 12.2969 49.7422 11.8301 49.7422 11.2246C49.7422 9.92773 50.7793 9.24805 52.8535 9.18555L53.9434 9.15039V8.75195C53.9434 8.24805 53.834 7.87695 53.6152 7.63867C53.4004 7.39648 53.0547 7.27539 52.5781 7.27539C52.043 7.27539 51.4375 7.43945 50.7617 7.76758L50.4629 7.02344C50.7793 6.85156 51.125 6.7168 51.5 6.61914C51.8789 6.52148 52.2578 6.47266 52.6367 6.47266C53.4023 6.47266 53.9688 6.64258 54.3359 6.98242C54.707 7.32227 54.8926 7.86719 54.8926 8.61719V13H54.1719ZM51.9746 12.3145C52.5801 12.3145 53.0547 12.1484 53.3984 11.8164C53.7461 11.4844 53.9199 11.0195 53.9199 10.4219V9.8418L52.9473 9.88281C52.1738 9.91016 51.6152 10.0312 51.2715 10.2461C50.9316 10.457 50.7617 10.7871 50.7617 11.2363C50.7617 11.5879 50.8672 11.8555 51.0781 12.0391C51.293 12.2227 51.5918 12.3145 51.9746 12.3145ZM51.7461 14.418C51.7461 14.1953 51.8027 14.0312 51.916 13.9258C52.0332 13.8203 52.1738 13.7676 52.3379 13.7676C52.4941 13.7676 52.6289 13.8203 52.7422 13.9258C52.8555 14.0312 52.9121 14.1953 52.9121 14.418C52.9121 14.6328 52.8555 14.793 52.7422 14.8984C52.6289 15.0078 52.4941 15.0625 52.3379 15.0625C52.1738 15.0625 52.0332 15.0078 51.916 14.8984C51.8027 14.793 51.7461 14.6328 51.7461 14.418ZM58.275 13H57.3023V6.57812H58.275V13ZM57.2203 4.83789C57.2203 4.61523 57.275 4.45312 57.3844 4.35156C57.4938 4.24609 57.6305 4.19336 57.7945 4.19336C57.9508 4.19336 58.0855 4.24609 58.1988 4.35156C58.3121 4.45703 58.3688 4.61914 58.3688 4.83789C58.3688 5.05664 58.3121 5.2207 58.1988 5.33008C58.0855 5.43555 57.9508 5.48828 57.7945 5.48828C57.6305 5.48828 57.4938 5.43555 57.3844 5.33008C57.275 5.2207 57.2203 5.05664 57.2203 4.83789ZM68.6492 13V8.8457C68.6492 8.32227 68.5301 7.93164 68.2918 7.67383C68.0535 7.41602 67.6805 7.28711 67.1727 7.28711C66.5008 7.28711 66.0086 7.46875 65.6961 7.83203C65.3836 8.19531 65.2273 8.79492 65.2273 9.63086V13H64.2547V6.57812H65.0457L65.2039 7.45703H65.2508C65.45 7.14062 65.7293 6.89648 66.0887 6.72461C66.448 6.54883 66.8484 6.46094 67.2898 6.46094C68.0633 6.46094 68.6453 6.64844 69.0359 7.02344C69.4266 7.39453 69.6219 7.99023 69.6219 8.81055V13H68.6492ZM76.4203 13V8.8457C76.4203 8.32227 76.3012 7.93164 76.0629 7.67383C75.8246 7.41602 75.4516 7.28711 74.9437 7.28711C74.268 7.28711 73.7738 7.4707 73.4613 7.83789C73.1527 8.20508 72.9984 8.80664 72.9984 9.64258V13H72.0258V3.88281H72.9984V6.64258C72.9984 6.97461 72.9828 7.25 72.9516 7.46875H73.0102C73.2016 7.16016 73.473 6.91797 73.8246 6.74219C74.1801 6.5625 74.5844 6.47266 75.0375 6.47266C75.8227 6.47266 76.4105 6.66016 76.8012 7.03516C77.1957 7.40625 77.393 7.99805 77.393 8.81055V13H76.4203ZM83.7461 13L83.5527 12.0859H83.5059C83.1855 12.4883 82.8652 12.7617 82.5449 12.9062C82.2285 13.0469 81.832 13.1172 81.3555 13.1172C80.7188 13.1172 80.2188 12.9531 79.8555 12.625C79.4961 12.2969 79.3164 11.8301 79.3164 11.2246C79.3164 9.92773 80.3535 9.24805 82.4277 9.18555L83.5176 9.15039V8.75195C83.5176 8.24805 83.4082 7.87695 83.1895 7.63867C82.9746 7.39648 82.6289 7.27539 82.1523 7.27539C81.6172 7.27539 81.0117 7.43945 80.3359 7.76758L80.0371 7.02344C80.3535 6.85156 80.6992 6.7168 81.0742 6.61914C81.4531 6.52148 81.832 6.47266 82.2109 6.47266C82.9766 6.47266 83.543 6.64258 83.9102 6.98242C84.2812 7.32227 84.4668 7.86719 84.4668 8.61719V13H83.7461ZM81.5488 12.3145C82.1543 12.3145 82.6289 12.1484 82.9727 11.8164C83.3203 11.4844 83.4941 11.0195 83.4941 10.4219V9.8418L82.5215 9.88281C81.748 9.91016 81.1895 10.0312 80.8457 10.2461C80.5059 10.457 80.3359 10.7871 80.3359 11.2363C80.3359 11.5879 80.4414 11.8555 80.6523 12.0391C80.8672 12.2227 81.166 12.3145 81.5488 12.3145ZM82.7031 5.72852H82.0586C81.8047 5.52539 81.5039 5.23633 81.1562 4.86133C80.8086 4.48633 80.5566 4.17578 80.4004 3.92969V3.80664H81.5898C81.7148 4.07617 81.8887 4.38867 82.1113 4.74414C82.334 5.0957 82.5312 5.375 82.7031 5.58203V5.72852ZM87.5387 10.6387V10.3223C87.5387 9.86523 87.609 9.49023 87.7496 9.19727C87.8902 8.90039 88.152 8.58789 88.5348 8.25977C89.066 7.81055 89.4 7.47266 89.5367 7.24609C89.6773 7.01953 89.7477 6.74609 89.7477 6.42578C89.7477 6.02734 89.6188 5.7207 89.3609 5.50586C89.107 5.28711 88.7398 5.17773 88.2594 5.17773C87.9508 5.17773 87.65 5.21484 87.357 5.28906C87.0641 5.35938 86.7281 5.49023 86.3492 5.68164L86.0035 4.89062C86.7418 4.50391 87.5133 4.31055 88.318 4.31055C89.0641 4.31055 89.6441 4.49414 90.0582 4.86133C90.4723 5.22852 90.6793 5.74609 90.6793 6.41406C90.6793 6.69922 90.6402 6.95117 90.5621 7.16992C90.4879 7.38477 90.3766 7.58984 90.2281 7.78516C90.0797 7.97656 89.7594 8.28711 89.2672 8.7168C88.8727 9.05273 88.6109 9.33203 88.482 9.55469C88.357 9.77734 88.2945 10.0742 88.2945 10.4453V10.6387H87.5387ZM87.2516 12.3789C87.2516 11.8477 87.4859 11.582 87.9547 11.582C88.1813 11.582 88.3551 11.6504 88.4762 11.7871C88.6012 11.9238 88.6637 12.1211 88.6637 12.3789C88.6637 12.6289 88.6012 12.8242 88.4762 12.9648C88.3512 13.1016 88.1773 13.1699 87.9547 13.1699C87.7516 13.1699 87.5836 13.1094 87.4508 12.9883C87.318 12.8633 87.2516 12.6602 87.2516 12.3789ZM99.8875 13L96.9812 5.40625H96.9344C96.9891 6.00781 97.0164 6.72266 97.0164 7.55078V13H96.0965V4.43359H97.5965L100.309 11.5H100.356L103.093 4.43359H104.581V13H103.585V7.48047C103.585 6.84766 103.612 6.16016 103.667 5.41797H103.62L100.69 13H99.8875ZM111.139 13L110.946 12.0859H110.899C110.579 12.4883 110.258 12.7617 109.938 12.9062C109.621 13.0469 109.225 13.1172 108.748 13.1172C108.112 13.1172 107.612 12.9531 107.248 12.625C106.889 12.2969 106.709 11.8301 106.709 11.2246C106.709 9.92773 107.746 9.24805 109.821 9.18555L110.911 9.15039V8.75195C110.911 8.24805 110.801 7.87695 110.582 7.63867C110.368 7.39648 110.022 7.27539 109.545 7.27539C109.01 7.27539 108.405 7.43945 107.729 7.76758L107.43 7.02344C107.746 6.85156 108.092 6.7168 108.467 6.61914C108.846 6.52148 109.225 6.47266 109.604 6.47266C110.37 6.47266 110.936 6.64258 111.303 6.98242C111.674 7.32227 111.86 7.86719 111.86 8.61719V13H111.139ZM108.942 12.3145C109.547 12.3145 110.022 12.1484 110.366 11.8164C110.713 11.4844 110.887 11.0195 110.887 10.4219V9.8418L109.914 9.88281C109.141 9.91016 108.582 10.0312 108.239 10.2461C107.899 10.457 107.729 10.7871 107.729 11.2363C107.729 11.5879 107.834 11.8555 108.045 12.0391C108.26 12.2227 108.559 12.3145 108.942 12.3145ZM118.664 13V8.8457C118.664 8.32227 118.545 7.93164 118.307 7.67383C118.068 7.41602 117.695 7.28711 117.188 7.28711C116.516 7.28711 116.023 7.46875 115.711 7.83203C115.398 8.19531 115.242 8.79492 115.242 9.63086V13H114.27V6.57812H115.061L115.219 7.45703H115.266C115.465 7.14062 115.744 6.89648 116.104 6.72461C116.463 6.54883 116.863 6.46094 117.305 6.46094C118.078 6.46094 118.66 6.64844 119.051 7.02344C119.441 7.39453 119.637 7.99023 119.637 8.81055V13H118.664ZM127.296 6.57812V7.19336L126.107 7.33398C126.216 7.4707 126.314 7.65039 126.4 7.87305C126.486 8.0918 126.529 8.33984 126.529 8.61719C126.529 9.24609 126.314 9.74805 125.884 10.123C125.455 10.498 124.865 10.6855 124.115 10.6855C123.923 10.6855 123.744 10.6699 123.576 10.6387C123.162 10.8574 122.955 11.1328 122.955 11.4648C122.955 11.6406 123.027 11.7715 123.171 11.8574C123.316 11.9395 123.564 11.9805 123.916 11.9805H125.052C125.748 11.9805 126.281 12.127 126.652 12.4199C127.027 12.7129 127.214 13.1387 127.214 13.6973C127.214 14.4082 126.929 14.9492 126.359 15.3203C125.789 15.6953 124.957 15.8828 123.863 15.8828C123.023 15.8828 122.375 15.7266 121.918 15.4141C121.464 15.1016 121.238 14.6602 121.238 14.0898C121.238 13.6992 121.363 13.3613 121.613 13.0762C121.863 12.791 122.214 12.5977 122.668 12.4961C122.504 12.4219 122.365 12.3066 122.252 12.1504C122.142 11.9941 122.088 11.8125 122.088 11.6055C122.088 11.3711 122.15 11.166 122.275 10.9902C122.4 10.8145 122.597 10.6445 122.867 10.4805C122.535 10.3438 122.263 10.1113 122.052 9.7832C121.845 9.45508 121.742 9.08008 121.742 8.6582C121.742 7.95508 121.953 7.41406 122.375 7.03516C122.796 6.65234 123.394 6.46094 124.168 6.46094C124.504 6.46094 124.806 6.5 125.076 6.57812H127.296ZM122.175 14.0781C122.175 14.4258 122.322 14.6895 122.615 14.8691C122.908 15.0488 123.328 15.1387 123.875 15.1387C124.691 15.1387 125.295 15.0156 125.685 14.7695C126.08 14.5273 126.277 14.1973 126.277 13.7793C126.277 13.4316 126.17 13.1895 125.955 13.0527C125.74 12.9199 125.336 12.8535 124.742 12.8535H123.576C123.134 12.8535 122.791 12.959 122.545 13.1699C122.298 13.3809 122.175 13.6836 122.175 14.0781ZM122.703 8.63477C122.703 9.08398 122.83 9.42383 123.084 9.6543C123.338 9.88477 123.691 10 124.144 10C125.093 10 125.568 9.53906 125.568 8.61719C125.568 7.65234 125.088 7.16992 124.127 7.16992C123.67 7.16992 123.318 7.29297 123.072 7.53906C122.826 7.78516 122.703 8.15039 122.703 8.63477ZM135.462 6.46094C135.747 6.46094 136.003 6.48438 136.229 6.53125L136.095 7.43359C135.829 7.375 135.595 7.3457 135.391 7.3457C134.872 7.3457 134.427 7.55664 134.055 7.97852C133.688 8.40039 133.505 8.92578 133.505 9.55469V13H132.532V6.57812H133.335L133.446 7.76758H133.493C133.731 7.34961 134.018 7.02734 134.354 6.80078C134.69 6.57422 135.059 6.46094 135.462 6.46094ZM141.78 13L141.586 12.0859H141.539C141.219 12.4883 140.899 12.7617 140.579 12.9062C140.262 13.0469 139.866 13.1172 139.389 13.1172C138.752 13.1172 138.252 12.9531 137.889 12.625C137.53 12.2969 137.35 11.8301 137.35 11.2246C137.35 9.92773 138.387 9.24805 140.461 9.18555L141.551 9.15039V8.75195C141.551 8.24805 141.442 7.87695 141.223 7.63867C141.008 7.39648 140.663 7.27539 140.186 7.27539C139.651 7.27539 139.045 7.43945 138.37 7.76758L138.071 7.02344C138.387 6.85156 138.733 6.7168 139.108 6.61914C139.487 6.52148 139.866 6.47266 140.245 6.47266C141.01 6.47266 141.577 6.64258 141.944 6.98242C142.315 7.32227 142.5 7.86719 142.5 8.61719V13H141.78ZM139.582 12.3145C140.188 12.3145 140.663 12.1484 141.006 11.8164C141.354 11.4844 141.528 11.0195 141.528 10.4219V9.8418L140.555 9.88281C139.782 9.91016 139.223 10.0312 138.879 10.2461C138.539 10.457 138.37 10.7871 138.37 11.2363C138.37 11.5879 138.475 11.8555 138.686 12.0391C138.901 12.2227 139.2 12.3145 139.582 12.3145ZM150.994 13.1172C150.064 13.1172 149.343 12.832 148.832 12.2617C148.324 11.6875 148.07 10.877 148.07 9.83008C148.07 8.75586 148.328 7.92578 148.843 7.33984C149.363 6.75391 150.101 6.46094 151.058 6.46094C151.367 6.46094 151.675 6.49414 151.984 6.56055C152.293 6.62695 152.535 6.70508 152.711 6.79492L152.412 7.62109C152.197 7.53516 151.962 7.46484 151.709 7.41016C151.455 7.35156 151.23 7.32227 151.035 7.32227C149.73 7.32227 149.078 8.1543 149.078 9.81836C149.078 10.6074 149.236 11.2129 149.552 11.6348C149.873 12.0566 150.345 12.2676 150.97 12.2676C151.505 12.2676 152.054 12.1523 152.617 11.9219V12.7832C152.187 13.0059 151.646 13.1172 150.994 13.1172ZM158.941 13V8.8457C158.941 8.32227 158.821 7.93164 158.583 7.67383C158.345 7.41602 157.972 7.28711 157.464 7.28711C156.788 7.28711 156.294 7.4707 155.982 7.83789C155.673 8.20508 155.519 8.80664 155.519 9.64258V13H154.546V3.88281H155.519V6.64258C155.519 6.97461 155.503 7.25 155.472 7.46875H155.53C155.722 7.16016 155.993 6.91797 156.345 6.74219C156.7 6.5625 157.105 6.47266 157.558 6.47266C158.343 6.47266 158.931 6.66016 159.321 7.03516C159.716 7.40625 159.913 7.99805 159.913 8.81055V13H158.941ZM167.86 9.7832C167.86 10.8301 167.596 11.6484 167.069 12.2383C166.542 12.8242 165.813 13.1172 164.884 13.1172C164.309 13.1172 163.8 12.9824 163.354 12.7129C162.909 12.4434 162.565 12.0566 162.323 11.5527C162.081 11.0488 161.96 10.459 161.96 9.7832C161.96 8.73633 162.221 7.92188 162.745 7.33984C163.268 6.75391 163.995 6.46094 164.925 6.46094C165.772 6.46094 166.464 6.73633 166.999 7.28711C167.198 7.22852 167.354 7.13672 167.468 7.01172C167.581 6.88281 167.663 6.72266 167.714 6.53125C167.764 6.33594 167.79 6.02344 167.79 5.59375H168.845L168.932 5.72852C168.811 6.33789 168.632 6.81445 168.393 7.1582C168.159 7.49805 167.843 7.74219 167.444 7.89062C167.721 8.42969 167.86 9.06055 167.86 9.7832ZM162.968 9.7832C162.968 10.6074 163.122 11.2344 163.43 11.6641C163.739 12.0898 164.231 12.3027 164.907 12.3027C165.591 12.3027 166.085 12.0898 166.389 11.6641C166.698 11.2344 166.852 10.6074 166.852 9.7832C166.852 8.96289 166.696 8.3418 166.384 7.91992C166.075 7.49805 165.579 7.28711 164.895 7.28711C164.22 7.28711 163.729 7.49805 163.425 7.91992C163.12 8.3418 162.968 8.96289 162.968 9.7832ZM164.309 14.418C164.309 14.1953 164.366 14.0312 164.479 13.9258C164.596 13.8203 164.737 13.7676 164.901 13.7676C165.057 13.7676 165.192 13.8203 165.305 13.9258C165.419 14.0312 165.475 14.1953 165.475 14.418C165.475 14.6328 165.419 14.793 165.305 14.8984C165.192 15.0078 165.057 15.0625 164.901 15.0625C164.737 15.0625 164.596 15.0078 164.479 14.8984C164.366 14.793 164.309 14.6328 164.309 14.418ZM170.692 10.6387V10.3223C170.692 9.86523 170.762 9.49023 170.903 9.19727C171.043 8.90039 171.305 8.58789 171.688 8.25977C172.219 7.81055 172.553 7.47266 172.69 7.24609C172.83 7.01953 172.901 6.74609 172.901 6.42578C172.901 6.02734 172.772 5.7207 172.514 5.50586C172.26 5.28711 171.893 5.17773 171.413 5.17773C171.104 5.17773 170.803 5.21484 170.51 5.28906C170.217 5.35938 169.881 5.49023 169.502 5.68164L169.157 4.89062C169.895 4.50391 170.666 4.31055 171.471 4.31055C172.217 4.31055 172.797 4.49414 173.211 4.86133C173.625 5.22852 173.832 5.74609 173.832 6.41406C173.832 6.69922 173.793 6.95117 173.715 7.16992C173.641 7.38477 173.53 7.58984 173.381 7.78516C173.233 7.97656 172.913 8.28711 172.42 8.7168C172.026 9.05273 171.764 9.33203 171.635 9.55469C171.51 9.77734 171.448 10.0742 171.448 10.4453V10.6387H170.692ZM170.405 12.3789C170.405 11.8477 170.639 11.582 171.108 11.582C171.334 11.582 171.508 11.6504 171.629 11.7871C171.754 11.9238 171.817 12.1211 171.817 12.3789C171.817 12.6289 171.754 12.8242 171.629 12.9648C171.504 13.1016 171.33 13.1699 171.108 13.1699C170.905 13.1699 170.737 13.1094 170.604 12.9883C170.471 12.8633 170.405 12.6602 170.405 12.3789ZM7.70508 24.6172C7.70508 24.1445 7.81445 23.7852 8.0332 23.5391C8.25586 23.293 8.57812 23.1699 9 23.1699C9.41016 23.1699 9.72852 23.291 9.95508 23.5332C10.1816 23.7754 10.2949 24.1367 10.2949 24.6172C10.2949 25.082 10.1816 25.4414 9.95508 25.6953C9.73242 25.9453 9.41406 26.0703 9 26.0703C8.58203 26.0703 8.26172 25.9434 8.03906 25.6895C7.81641 25.4316 7.70508 25.0742 7.70508 24.6172ZM19.1777 20.4336H21.5977C22.7344 20.4336 23.5566 20.6035 24.0645 20.9434C24.5723 21.2832 24.8262 21.8203 24.8262 22.5547C24.8262 23.0625 24.6836 23.4824 24.3984 23.8145C24.1172 24.1426 23.7051 24.3555 23.1621 24.4531V24.5117C24.4629 24.7344 25.1133 25.418 25.1133 26.5625C25.1133 27.3281 24.8535 27.9258 24.334 28.3555C23.8184 28.7852 23.0957 29 22.166 29H19.1777V20.4336ZM20.1738 24.1016H21.8145C22.5176 24.1016 23.0234 23.9922 23.332 23.7734C23.6406 23.5508 23.7949 23.1777 23.7949 22.6543C23.7949 22.1738 23.623 21.8281 23.2793 21.6172C22.9355 21.4023 22.3887 21.2949 21.6387 21.2949H20.1738V24.1016ZM20.1738 24.9453V28.1504H21.9609C22.6523 28.1504 23.1719 28.0176 23.5195 27.752C23.8711 27.4824 24.0469 27.0625 24.0469 26.4922C24.0469 25.9609 23.8672 25.5703 23.5078 25.3203C23.1523 25.0703 22.6094 24.9453 21.8789 24.9453H20.1738ZM31.1617 29L30.9684 28.0859H30.9215C30.6012 28.4883 30.2809 28.7617 29.9605 28.9062C29.6441 29.0469 29.2477 29.1172 28.7711 29.1172C28.1344 29.1172 27.6344 28.9531 27.2711 28.625C26.9117 28.2969 26.732 27.8301 26.732 27.2246C26.732 25.9277 27.7691 25.248 29.8434 25.1855L30.9332 25.1504V24.752C30.9332 24.248 30.8238 23.877 30.6051 23.6387C30.3902 23.3965 30.0445 23.2754 29.568 23.2754C29.0328 23.2754 28.4273 23.4395 27.7516 23.7676L27.4527 23.0234C27.7691 22.8516 28.1148 22.7168 28.4898 22.6191C28.8687 22.5215 29.2477 22.4727 29.6266 22.4727C30.3922 22.4727 30.9586 22.6426 31.3258 22.9824C31.6969 23.3223 31.8824 23.8672 31.8824 24.6172V29H31.1617ZM28.9645 28.3145C29.5699 28.3145 30.0445 28.1484 30.3883 27.8164C30.7359 27.4844 30.9098 27.0195 30.9098 26.4219V25.8418L29.9371 25.8828C29.1637 25.9102 28.6051 26.0312 28.2613 26.2461C27.9215 26.457 27.7516 26.7871 27.7516 27.2363C27.7516 27.5879 27.857 27.8555 28.068 28.0391C28.2828 28.2227 28.5816 28.3145 28.9645 28.3145ZM28.7359 21.582C28.9234 21.3398 29.1246 21.0469 29.3395 20.7031C29.5582 20.3594 29.7301 20.0605 29.8551 19.8066H31.0387V19.9297C30.8668 20.1836 30.6109 20.4961 30.2711 20.8672C29.9312 21.2383 29.6363 21.5254 29.3863 21.7285H28.7359V21.582ZM38.6867 29V24.8457C38.6867 24.3223 38.5676 23.9316 38.3293 23.6738C38.091 23.416 37.718 23.2871 37.2102 23.2871C36.5383 23.2871 36.0461 23.4688 35.7336 23.832C35.4211 24.1953 35.2648 24.7949 35.2648 25.6309V29H34.2922V22.5781H35.0832L35.2414 23.457H35.2883C35.4875 23.1406 35.7668 22.8965 36.1262 22.7246C36.4855 22.5488 36.8859 22.4609 37.3273 22.4609C38.1008 22.4609 38.6828 22.6484 39.0734 23.0234C39.4641 23.3945 39.6594 23.9902 39.6594 24.8105V29H38.6867ZM50.8552 29.1172C49.9256 29.1172 49.2049 28.832 48.6931 28.2617C48.1853 27.6875 47.9314 26.877 47.9314 25.8301C47.9314 24.7559 48.1892 23.9258 48.7049 23.3398C49.2244 22.7539 49.9627 22.4609 50.9197 22.4609C51.2283 22.4609 51.5369 22.4941 51.8455 22.5605C52.1541 22.627 52.3963 22.7051 52.572 22.7949L52.2732 23.6211C52.0584 23.5352 51.824 23.4648 51.5701 23.4102C51.3162 23.3516 51.0916 23.3223 50.8963 23.3223C49.5916 23.3223 48.9392 24.1543 48.9392 25.8184C48.9392 26.6074 49.0974 27.2129 49.4138 27.6348C49.7341 28.0566 50.2068 28.2676 50.8318 28.2676C51.367 28.2676 51.9158 28.1523 52.4783 27.9219V28.7832C52.0486 29.0059 51.5076 29.1172 50.8552 29.1172ZM58.8021 29V24.8457C58.8021 24.3223 58.683 23.9316 58.4447 23.6738C58.2064 23.416 57.8334 23.2871 57.3256 23.2871C56.6498 23.2871 56.1556 23.4707 55.8431 23.8379C55.5345 24.2051 55.3802 24.8066 55.3802 25.6426V29H54.4076V19.8828H55.3802V22.6426C55.3802 22.9746 55.3646 23.25 55.3334 23.4688H55.392C55.5834 23.1602 55.8549 22.918 56.2064 22.7422C56.5619 22.5625 56.9662 22.4727 57.4193 22.4727C58.2045 22.4727 58.7924 22.6602 59.183 23.0352C59.5775 23.4062 59.7748 23.998 59.7748 24.8105V29H58.8021ZM67.7217 25.7832C67.7217 26.8301 67.458 27.6484 66.9306 28.2383C66.4033 28.8242 65.6748 29.1172 64.7451 29.1172C64.1709 29.1172 63.6611 28.9824 63.2158 28.7129C62.7705 28.4434 62.4267 28.0566 62.1845 27.5527C61.9424 27.0488 61.8213 26.459 61.8213 25.7832C61.8213 24.7363 62.083 23.9219 62.6064 23.3398C63.1299 22.7539 63.8564 22.4609 64.7861 22.4609C65.6845 22.4609 66.3974 22.7598 66.9248 23.3574C67.456 23.9551 67.7217 24.7637 67.7217 25.7832ZM62.8291 25.7832C62.8291 26.6035 62.9931 27.2285 63.3213 27.6582C63.6494 28.0879 64.1318 28.3027 64.7685 28.3027C65.4052 28.3027 65.8877 28.0898 66.2158 27.6641C66.5478 27.2344 66.7138 26.6074 66.7138 25.7832C66.7138 24.9668 66.5478 24.3477 66.2158 23.9258C65.8877 23.5 65.4013 23.2871 64.7568 23.2871C64.1201 23.2871 63.6396 23.4961 63.3154 23.9141C62.9912 24.332 62.8291 24.9551 62.8291 25.7832ZM80.4527 29V24.8457C80.4527 24.3223 80.3335 23.9316 80.0953 23.6738C79.857 23.416 79.4839 23.2871 78.9761 23.2871C78.3042 23.2871 77.812 23.4688 77.4995 23.832C77.187 24.1953 77.0308 24.7949 77.0308 25.6309V29H76.0581V22.5781H76.8492L77.0074 23.457H77.0542C77.2535 23.1406 77.5328 22.8965 77.8921 22.7246C78.2515 22.5488 78.6519 22.4609 79.0933 22.4609C79.8667 22.4609 80.4488 22.6484 80.8394 23.0234C81.23 23.3945 81.4253 23.9902 81.4253 24.8105V29H80.4527ZM89.0851 22.5781V23.1934L87.8956 23.334C88.005 23.4707 88.1027 23.6504 88.1886 23.873C88.2746 24.0918 88.3175 24.3398 88.3175 24.6172C88.3175 25.2461 88.1027 25.748 87.673 26.123C87.2433 26.498 86.6535 26.6855 85.9035 26.6855C85.7121 26.6855 85.5324 26.6699 85.3644 26.6387C84.9503 26.8574 84.7433 27.1328 84.7433 27.4648C84.7433 27.6406 84.8156 27.7715 84.9601 27.8574C85.1046 27.9395 85.3527 27.9805 85.7042 27.9805H86.841C87.5363 27.9805 88.0695 28.127 88.4406 28.4199C88.8156 28.7129 89.0031 29.1387 89.0031 29.6973C89.0031 30.4082 88.7179 30.9492 88.1476 31.3203C87.5773 31.6953 86.7453 31.8828 85.6515 31.8828C84.8117 31.8828 84.1632 31.7266 83.7062 31.4141C83.2531 31.1016 83.0265 30.6602 83.0265 30.0898C83.0265 29.6992 83.1515 29.3613 83.4015 29.0762C83.6515 28.791 84.0031 28.5977 84.4562 28.4961C84.2921 28.4219 84.1535 28.3066 84.0402 28.1504C83.9308 27.9941 83.8761 27.8125 83.8761 27.6055C83.8761 27.3711 83.9386 27.166 84.0636 26.9902C84.1886 26.8145 84.3859 26.6445 84.6554 26.4805C84.3234 26.3438 84.0519 26.1113 83.841 25.7832C83.6339 25.4551 83.5304 25.0801 83.5304 24.6582C83.5304 23.9551 83.7413 23.4141 84.1632 23.0352C84.5851 22.6523 85.1828 22.4609 85.9562 22.4609C86.2921 22.4609 86.5949 22.5 86.8644 22.5781H89.0851ZM83.964 30.0781C83.964 30.4258 84.1105 30.6895 84.4035 30.8691C84.6964 31.0488 85.1163 31.1387 85.6632 31.1387C86.4796 31.1387 87.0831 31.0156 87.4738 30.7695C87.8683 30.5273 88.0656 30.1973 88.0656 29.7793C88.0656 29.4316 87.9581 29.1895 87.7433 29.0527C87.5285 28.9199 87.1242 28.8535 86.5304 28.8535H85.3644C84.923 28.8535 84.5792 28.959 84.3331 29.1699C84.0871 29.3809 83.964 29.6836 83.964 30.0781ZM84.4913 24.6348C84.4913 25.084 84.6183 25.4238 84.8722 25.6543C85.1261 25.8848 85.4796 26 85.9328 26C86.882 26 87.3566 25.5391 87.3566 24.6172C87.3566 23.6523 86.8761 23.1699 85.9152 23.1699C85.4581 23.1699 85.1066 23.293 84.8605 23.5391C84.6144 23.7852 84.4913 24.1504 84.4913 24.6348ZM91.7175 22.5898V26.7441C91.7175 27.2676 91.8367 27.6582 92.0749 27.916C92.3132 28.1738 92.6863 28.3027 93.1941 28.3027C93.866 28.3027 94.3562 28.1191 94.6648 27.752C94.9773 27.3848 95.1335 26.7852 95.1335 25.9531V22.5898H96.1062V23.2988C96.4265 23.2559 96.6589 23.1094 96.8035 22.8594C96.948 22.6094 97.0203 22.1836 97.0203 21.582H98.0632L98.1511 21.7168C98.0261 22.4434 97.7917 22.9941 97.448 23.3691C97.1042 23.7402 96.657 23.9531 96.1062 24.0078V29H95.3035L95.1628 28.1387H95.1101C94.907 28.459 94.6277 28.7031 94.2722 28.8711C93.9206 29.0352 93.5281 29.1172 93.0945 29.1172C92.3015 29.1172 91.7097 28.9316 91.3191 28.5605C90.9285 28.1895 90.7331 27.5957 90.7331 26.7793V22.5898H91.7175ZM104.727 25.7832C104.727 26.8301 104.463 27.6484 103.936 28.2383C103.409 28.8242 102.68 29.1172 101.75 29.1172C101.176 29.1172 100.666 28.9824 100.221 28.7129C99.7757 28.4434 99.432 28.0566 99.1898 27.5527C98.9476 27.0488 98.8265 26.459 98.8265 25.7832C98.8265 24.7363 99.0882 23.9219 99.6117 23.3398C100.135 22.7539 100.862 22.4609 101.791 22.4609C102.639 22.4609 103.33 22.7363 103.866 23.2871C104.065 23.2285 104.221 23.1367 104.334 23.0117C104.448 22.8828 104.53 22.7227 104.58 22.5312C104.631 22.3359 104.657 22.0234 104.657 21.5938H105.711L105.799 21.7285C105.678 22.3379 105.498 22.8145 105.26 23.1582C105.026 23.498 104.709 23.7422 104.311 23.8906C104.588 24.4297 104.727 25.0605 104.727 25.7832ZM99.8343 25.7832C99.8343 26.6074 99.9886 27.2344 100.297 27.6641C100.606 28.0898 101.098 28.3027 101.774 28.3027C102.457 28.3027 102.952 28.0898 103.256 27.6641C103.565 27.2344 103.719 26.6074 103.719 25.7832C103.719 24.9629 103.563 24.3418 103.25 23.9199C102.942 23.498 102.446 23.2871 101.762 23.2871C101.086 23.2871 100.596 23.498 100.291 23.9199C99.9867 24.3418 99.8343 24.9629 99.8343 25.7832ZM102.5 21.7285H101.856C101.602 21.5254 101.301 21.2363 100.953 20.8613C100.606 20.4863 100.354 20.1758 100.198 19.9297V19.8066H101.387C101.512 20.0762 101.686 20.3887 101.909 20.7441C102.131 21.0957 102.328 21.375 102.5 21.582V21.7285ZM107.869 29H106.896V22.5781H107.869V29ZM106.814 20.8379C106.814 20.6152 106.869 20.4531 106.978 20.3516C107.088 20.2461 107.225 20.1934 107.389 20.1934C107.545 20.1934 107.68 20.2461 107.793 20.3516C107.906 20.457 107.963 20.6191 107.963 20.8379C107.963 21.0566 107.906 21.2207 107.793 21.3301C107.68 21.4355 107.545 21.4883 107.389 21.4883C107.225 21.4883 107.088 21.4355 106.978 21.3301C106.869 21.2207 106.814 21.0566 106.814 20.8379ZM118.631 28.3145C118.803 28.3145 118.969 28.3027 119.129 28.2793C119.29 28.252 119.417 28.2246 119.51 28.1973V28.9414C119.405 28.9922 119.249 29.0332 119.042 29.0645C118.838 29.0996 118.655 29.1172 118.491 29.1172C117.249 29.1172 116.627 28.4629 116.627 27.1543V23.334H115.708V22.8652L116.627 22.4609L117.038 21.0898H117.6V22.5781H119.463V23.334H117.6V27.1133C117.6 27.5 117.692 27.7969 117.875 28.0039C118.059 28.2109 118.311 28.3145 118.631 28.3145ZM125.594 29V24.8457C125.594 24.3223 125.475 23.9316 125.236 23.6738C124.998 23.416 124.625 23.2871 124.117 23.2871C123.442 23.2871 122.947 23.4707 122.635 23.8379C122.326 24.2051 122.172 24.8066 122.172 25.6426V29H121.199V19.8828H122.172V22.6426C122.172 22.9746 122.156 23.25 122.125 23.4688H122.184C122.375 23.1602 122.647 22.918 122.998 22.7422C123.354 22.5625 123.758 22.4727 124.211 22.4727C124.996 22.4727 125.584 22.6602 125.975 23.0352C126.369 23.4062 126.567 23.998 126.567 24.8105V29H125.594ZM129.884 22.5781V26.7441C129.884 27.2676 130.004 27.6582 130.242 27.916C130.48 28.1738 130.853 28.3027 131.361 28.3027C132.033 28.3027 132.523 28.1191 132.832 27.752C133.144 27.3848 133.3 26.7852 133.3 25.9531V22.5781H134.273V29H133.47L133.33 28.1387H133.277C133.078 28.4551 132.8 28.6973 132.445 28.8652C132.093 29.0332 131.691 29.1172 131.238 29.1172C130.457 29.1172 129.871 28.9316 129.48 28.5605C129.093 28.1895 128.9 27.5957 128.9 26.7793V22.5781H129.884ZM148.223 22.5781V23.1934L147.033 23.334C147.143 23.4707 147.241 23.6504 147.326 23.873C147.412 24.0918 147.455 24.3398 147.455 24.6172C147.455 25.2461 147.241 25.748 146.811 26.123C146.381 26.498 145.791 26.6855 145.041 26.6855C144.85 26.6855 144.67 26.6699 144.502 26.6387C144.088 26.8574 143.881 27.1328 143.881 27.4648C143.881 27.6406 143.953 27.7715 144.098 27.8574C144.242 27.9395 144.491 27.9805 144.842 27.9805H145.979C146.674 27.9805 147.207 28.127 147.578 28.4199C147.953 28.7129 148.141 29.1387 148.141 29.6973C148.141 30.4082 147.856 30.9492 147.285 31.3203C146.715 31.6953 145.883 31.8828 144.789 31.8828C143.949 31.8828 143.301 31.7266 142.844 31.4141C142.391 31.1016 142.164 30.6602 142.164 30.0898C142.164 29.6992 142.289 29.3613 142.539 29.0762C142.789 28.791 143.141 28.5977 143.594 28.4961C143.43 28.4219 143.291 28.3066 143.178 28.1504C143.069 27.9941 143.014 27.8125 143.014 27.6055C143.014 27.3711 143.076 27.166 143.201 26.9902C143.326 26.8145 143.524 26.6445 143.793 26.4805C143.461 26.3438 143.19 26.1113 142.979 25.7832C142.772 25.4551 142.668 25.0801 142.668 24.6582C142.668 23.9551 142.879 23.4141 143.301 23.0352C143.723 22.6523 144.321 22.4609 145.094 22.4609C145.43 22.4609 145.733 22.5 146.002 22.5781H148.223ZM143.102 30.0781C143.102 30.4258 143.248 30.6895 143.541 30.8691C143.834 31.0488 144.254 31.1387 144.801 31.1387C145.617 31.1387 146.221 31.0156 146.612 30.7695C147.006 30.5273 147.203 30.1973 147.203 29.7793C147.203 29.4316 147.096 29.1895 146.881 29.0527C146.666 28.9199 146.262 28.8535 145.668 28.8535H144.502C144.061 28.8535 143.717 28.959 143.471 29.1699C143.225 29.3809 143.102 29.6836 143.102 30.0781ZM143.629 24.6348C143.629 25.084 143.756 25.4238 144.01 25.6543C144.264 25.8848 144.617 26 145.071 26C146.02 26 146.494 25.5391 146.494 24.6172C146.494 23.6523 146.014 23.1699 145.053 23.1699C144.596 23.1699 144.244 23.293 143.998 23.5391C143.752 23.7852 143.629 24.1504 143.629 24.6348ZM155.484 25.7832C155.484 26.8301 155.221 27.6484 154.693 28.2383C154.166 28.8242 153.437 29.1172 152.508 29.1172C151.933 29.1172 151.424 28.9824 150.978 28.7129C150.533 28.4434 150.189 28.0566 149.947 27.5527C149.705 27.0488 149.584 26.459 149.584 25.7832C149.584 24.7363 149.846 23.9219 150.369 23.3398C150.892 22.7539 151.619 22.4609 152.549 22.4609C153.447 22.4609 154.16 22.7598 154.687 23.3574C155.219 23.9551 155.484 24.7637 155.484 25.7832ZM150.592 25.7832C150.592 26.6035 150.756 27.2285 151.084 27.6582C151.412 28.0879 151.894 28.3027 152.531 28.3027C153.168 28.3027 153.65 28.0898 153.978 27.6641C154.31 27.2344 154.476 26.6074 154.476 25.7832C154.476 24.9668 154.31 24.3477 153.978 23.9258C153.65 23.5 153.164 23.2871 152.519 23.2871C151.883 23.2871 151.402 23.4961 151.078 23.9141C150.754 24.332 150.592 24.9551 150.592 25.7832ZM165.781 29V24.8223C165.781 24.3105 165.671 23.9277 165.453 23.6738C165.234 23.416 164.894 23.2871 164.433 23.2871C163.828 23.2871 163.38 23.4609 163.091 23.8086C162.802 24.1562 162.658 24.6914 162.658 25.4141V29H161.685V24.8223C161.685 24.3105 161.576 23.9277 161.357 23.6738C161.138 23.416 160.796 23.2871 160.332 23.2871C159.722 23.2871 159.275 23.4707 158.99 23.8379C158.708 24.2012 158.568 24.7988 158.568 25.6309V29H157.595V22.5781H158.386L158.544 23.457H158.591C158.775 23.1445 159.033 22.9004 159.365 22.7246C159.701 22.5488 160.076 22.4609 160.49 22.4609C161.494 22.4609 162.15 22.8242 162.458 23.5508H162.505C162.697 23.2148 162.974 22.9492 163.337 22.7539C163.701 22.5586 164.115 22.4609 164.58 22.4609C165.306 22.4609 165.849 22.6484 166.208 23.0234C166.572 23.3945 166.753 23.9902 166.753 24.8105V29H165.781ZM172.415 20.4336L169.222 29H168.249L171.442 20.4336H172.415ZM174.942 29H173.969V19.8828H174.942V29ZM181.354 29L181.16 28.0859H181.114C180.793 28.4883 180.473 28.7617 180.153 28.9062C179.836 29.0469 179.44 29.1172 178.963 29.1172C178.326 29.1172 177.826 28.9531 177.463 28.625C177.104 28.2969 176.924 27.8301 176.924 27.2246C176.924 25.9277 177.961 25.248 180.035 25.1855L181.125 25.1504V24.752C181.125 24.248 181.016 23.877 180.797 23.6387C180.582 23.3965 180.237 23.2754 179.76 23.2754C179.225 23.2754 178.619 23.4395 177.944 23.7676L177.645 23.0234C177.961 22.8516 178.307 22.7168 178.682 22.6191C179.061 22.5215 179.44 22.4727 179.819 22.4727C180.584 22.4727 181.151 22.6426 181.518 22.9824C181.889 23.3223 182.074 23.8672 182.074 24.6172V29H181.354ZM179.157 28.3145C179.762 28.3145 180.237 28.1484 180.58 27.8164C180.928 27.4844 181.102 27.0195 181.102 26.4219V25.8418L180.129 25.8828C179.356 25.9102 178.797 26.0312 178.453 26.2461C178.114 26.457 177.944 26.7871 177.944 27.2363C177.944 27.5879 178.049 27.8555 178.26 28.0391C178.475 28.2227 178.774 28.3145 179.157 28.3145ZM178.928 21.582C179.116 21.3398 179.317 21.0469 179.532 20.7031C179.75 20.3594 179.922 20.0605 180.047 19.8066H181.231V19.9297C181.059 20.1836 180.803 20.4961 180.463 20.8672C180.123 21.2383 179.828 21.5254 179.578 21.7285H178.928V21.582ZM185.457 29H184.484V22.5781H185.457V29ZM184.402 20.8379C184.402 20.6152 184.457 20.4531 184.566 20.3516C184.676 20.2461 184.812 20.1934 184.976 20.1934C185.133 20.1934 185.267 20.2461 185.381 20.3516C185.494 20.457 185.551 20.6191 185.551 20.8379C185.551 21.0566 185.494 21.2207 185.381 21.3301C185.267 21.4355 185.133 21.4883 184.976 21.4883C184.812 21.4883 184.676 21.4355 184.566 21.3301C184.457 21.2207 184.402 21.0566 184.402 20.8379ZM197.133 22.4727C197.977 22.4727 198.631 22.7617 199.096 23.3398C199.565 23.9141 199.799 24.7285 199.799 25.7832C199.799 26.8379 199.563 27.6582 199.09 28.2441C198.622 28.8262 197.969 29.1172 197.133 29.1172C196.715 29.1172 196.332 29.041 195.985 28.8887C195.641 28.7324 195.352 28.4941 195.118 28.1738H195.047L194.842 29H194.145V19.8828H195.118V22.0977C195.118 22.5938 195.102 23.0391 195.071 23.4336H195.118C195.571 22.793 196.243 22.4727 197.133 22.4727ZM196.993 23.2871C196.329 23.2871 195.85 23.4785 195.557 23.8613C195.264 24.2402 195.118 24.8809 195.118 25.7832C195.118 26.6855 195.268 27.332 195.569 27.7227C195.87 28.1094 196.352 28.3027 197.016 28.3027C197.614 28.3027 198.059 28.0859 198.352 27.6523C198.645 27.2148 198.791 26.5879 198.791 25.7715C198.791 24.9355 198.645 24.3125 198.352 23.9023C198.059 23.4922 197.606 23.2871 196.993 23.2871ZM202.818 22.5781V26.7441C202.818 27.2676 202.938 27.6582 203.176 27.916C203.414 28.1738 203.787 28.3027 204.295 28.3027C204.967 28.3027 205.457 28.1191 205.766 27.752C206.078 27.3848 206.234 26.7852 206.234 25.9531V22.5781H207.207V29H206.404L206.264 28.1387H206.211C206.012 28.4551 205.734 28.6973 205.379 28.8652C205.027 29.0332 204.625 29.1172 204.172 29.1172C203.391 29.1172 202.805 28.9316 202.414 28.5605C202.027 28.1895 201.834 27.5957 201.834 26.7793V22.5781H202.818ZM215.218 25.7832C215.218 26.8301 214.955 27.6484 214.427 28.2383C213.9 28.8242 213.172 29.1172 212.242 29.1172C211.668 29.1172 211.158 28.9824 210.713 28.7129C210.267 28.4434 209.923 28.0566 209.681 27.5527C209.439 27.0488 209.318 26.459 209.318 25.7832C209.318 24.7363 209.58 23.9219 210.103 23.3398C210.627 22.7539 211.353 22.4609 212.283 22.4609C213.181 22.4609 213.894 22.7598 214.422 23.3574C214.953 23.9551 215.218 24.7637 215.218 25.7832ZM210.326 25.7832C210.326 26.6035 210.49 27.2285 210.818 27.6582C211.146 28.0879 211.629 28.3027 212.265 28.3027C212.902 28.3027 213.384 28.0898 213.713 27.6641C214.045 27.2344 214.211 26.6074 214.211 25.7832C214.211 24.9668 214.045 24.3477 213.713 23.9258C213.384 23.5 212.898 23.2871 212.254 23.2871C211.617 23.2871 211.136 23.4961 210.812 23.9141C210.488 24.332 210.326 24.9551 210.326 25.7832ZM210.297 21.5938C210.793 21.0625 211.14 20.6719 211.34 20.4219C211.539 20.1719 211.683 19.9668 211.773 19.8066H212.746C212.832 19.9707 212.98 20.1836 213.191 20.4453C213.406 20.7031 213.757 21.0859 214.246 21.5938V21.7285H213.548C213.205 21.5137 212.773 21.1504 212.254 20.6387C211.722 21.1621 211.295 21.5254 210.97 21.7285H210.297V21.5938ZM221.724 29V24.8457C221.724 24.3223 221.605 23.9316 221.366 23.6738C221.128 23.416 220.755 23.2871 220.247 23.2871C219.575 23.2871 219.083 23.4688 218.771 23.832C218.458 24.1953 218.302 24.7949 218.302 25.6309V29H217.329V22.5781H218.12L218.279 23.457H218.325C218.525 23.1406 218.804 22.8965 219.163 22.7246C219.523 22.5488 219.923 22.4609 220.365 22.4609C221.138 22.4609 221.72 22.6484 222.111 23.0234C222.501 23.3945 222.697 23.9902 222.697 24.8105V29H221.724ZM228.352 20.4336L225.159 29H224.186L227.38 20.4336H228.352ZM232.473 29.1172C231.543 29.1172 230.823 28.832 230.311 28.2617C229.803 27.6875 229.549 26.877 229.549 25.8301C229.549 24.7559 229.807 23.9258 230.323 23.3398C230.842 22.7539 231.581 22.4609 232.538 22.4609C232.846 22.4609 233.155 22.4941 233.463 22.5605C233.772 22.627 234.014 22.7051 234.19 22.7949L233.891 23.6211C233.676 23.5352 233.442 23.4648 233.188 23.4102C232.934 23.3516 232.709 23.3223 232.514 23.3223C231.209 23.3223 230.557 24.1543 230.557 25.8184C230.557 26.6074 230.715 27.2129 231.032 27.6348C231.352 28.0566 231.825 28.2676 232.45 28.2676C232.985 28.2676 233.534 28.1523 234.096 27.9219V28.7832C233.666 29.0059 233.125 29.1172 232.473 29.1172ZM241.568 25.7832C241.568 26.8301 241.305 27.6484 240.777 28.2383C240.25 28.8242 239.522 29.1172 238.592 29.1172C238.018 29.1172 237.508 28.9824 237.063 28.7129C236.617 28.4434 236.273 28.0566 236.031 27.5527C235.789 27.0488 235.668 26.459 235.668 25.7832C235.668 24.7363 235.93 23.9219 236.453 23.3398C236.977 22.7539 237.703 22.4609 238.633 22.4609C239.531 22.4609 240.244 22.7598 240.772 23.3574C241.303 23.9551 241.568 24.7637 241.568 25.7832ZM236.676 25.7832C236.676 26.6035 236.84 27.2285 237.168 27.6582C237.496 28.0879 237.979 28.3027 238.615 28.3027C239.252 28.3027 239.734 28.0898 240.063 27.6641C240.395 27.2344 240.561 26.6074 240.561 25.7832C240.561 24.9668 240.395 24.3477 240.063 23.9258C239.734 23.5 239.248 23.2871 238.604 23.2871C237.967 23.2871 237.486 23.4961 237.162 23.9141C236.838 24.332 236.676 24.9551 236.676 25.7832ZM236.647 21.5938C237.143 21.0625 237.49 20.6719 237.69 20.4219C237.889 20.1719 238.033 19.9668 238.123 19.8066H239.096C239.182 19.9707 239.33 20.1836 239.541 20.4453C239.756 20.7031 240.107 21.0859 240.596 21.5938V21.7285H239.898C239.555 21.5137 239.123 21.1504 238.604 20.6387C238.072 21.1621 237.645 21.5254 237.32 21.7285H236.647V21.5938ZM248.074 29V24.8457C248.074 24.3223 247.955 23.9316 247.716 23.6738C247.478 23.416 247.105 23.2871 246.597 23.2871C245.925 23.2871 245.433 23.4688 245.121 23.832C244.808 24.1953 244.652 24.7949 244.652 25.6309V29H243.679V22.5781H244.47L244.629 23.457H244.675C244.875 23.1406 245.154 22.8965 245.513 22.7246C245.873 22.5488 246.273 22.4609 246.715 22.4609C247.488 22.4609 248.07 22.6484 248.461 23.0234C248.851 23.3945 249.047 23.9902 249.047 24.8105V29H248.074ZM256.706 22.5781V23.1934L255.517 23.334C255.626 23.4707 255.724 23.6504 255.81 23.873C255.896 24.0918 255.939 24.3398 255.939 24.6172C255.939 25.2461 255.724 25.748 255.294 26.123C254.865 26.498 254.275 26.6855 253.525 26.6855C253.333 26.6855 253.154 26.6699 252.986 26.6387C252.572 26.8574 252.365 27.1328 252.365 27.4648C252.365 27.6406 252.437 27.7715 252.581 27.8574C252.726 27.9395 252.974 27.9805 253.325 27.9805H254.462C255.157 27.9805 255.691 28.127 256.062 28.4199C256.437 28.7129 256.624 29.1387 256.624 29.6973C256.624 30.4082 256.339 30.9492 255.769 31.3203C255.199 31.6953 254.366 31.8828 253.273 31.8828C252.433 31.8828 251.784 31.7266 251.327 31.4141C250.874 31.1016 250.648 30.6602 250.648 30.0898C250.648 29.6992 250.773 29.3613 251.023 29.0762C251.273 28.791 251.624 28.5977 252.077 28.4961C251.913 28.4219 251.775 28.3066 251.661 28.1504C251.552 27.9941 251.497 27.8125 251.497 27.6055C251.497 27.3711 251.56 27.166 251.685 26.9902C251.81 26.8145 252.007 26.6445 252.277 26.4805C251.945 26.3438 251.673 26.1113 251.462 25.7832C251.255 25.4551 251.152 25.0801 251.152 24.6582C251.152 23.9551 251.363 23.4141 251.784 23.0352C252.206 22.6523 252.804 22.4609 253.577 22.4609C253.913 22.4609 254.216 22.5 254.486 22.5781H256.706ZM251.585 30.0781C251.585 30.4258 251.732 30.6895 252.025 30.8691C252.318 31.0488 252.738 31.1387 253.284 31.1387C254.101 31.1387 254.704 31.0156 255.095 30.7695C255.49 30.5273 255.687 30.1973 255.687 29.7793C255.687 29.4316 255.579 29.1895 255.365 29.0527C255.15 28.9199 254.745 28.8535 254.152 28.8535H252.986C252.544 28.8535 252.2 28.959 251.954 29.1699C251.708 29.3809 251.585 29.6836 251.585 30.0781ZM252.113 24.6348C252.113 25.084 252.24 25.4238 252.493 25.6543C252.747 25.8848 253.101 26 253.554 26C254.503 26 254.978 25.5391 254.978 24.6172C254.978 23.6523 254.497 23.1699 253.536 23.1699C253.079 23.1699 252.728 23.293 252.482 23.5391C252.236 23.7852 252.113 24.1504 252.113 24.6348ZM266.724 28.3145C266.896 28.3145 267.062 28.3027 267.222 28.2793C267.383 28.252 267.51 28.2246 267.603 28.1973V28.9414C267.498 28.9922 267.342 29.0332 267.135 29.0645C266.931 29.0996 266.748 29.1172 266.584 29.1172C265.342 29.1172 264.721 28.4629 264.721 27.1543V23.334H263.801V22.8652L264.721 22.4609L265.131 21.0898H265.693V22.5781H267.556V23.334H265.693V27.1133C265.693 27.5 265.785 27.7969 265.969 28.0039C266.152 28.2109 266.404 28.3145 266.724 28.3145ZM268.273 22.5781H269.316L270.722 26.2402C271.031 27.0762 271.222 27.6797 271.296 28.0508H271.343C271.394 27.8516 271.499 27.5117 271.66 27.0312C271.824 26.5469 272.355 25.0625 273.253 22.5781H274.296L271.537 29.8906C271.263 30.6133 270.943 31.125 270.576 31.4258C270.212 31.7305 269.765 31.8828 269.234 31.8828C268.937 31.8828 268.644 31.8496 268.355 31.7832V31.0039C268.57 31.0508 268.81 31.0742 269.076 31.0742C269.744 31.0742 270.22 30.6992 270.505 29.9492L270.863 29.0352L268.273 22.5781ZM278.991 20.4336L275.798 29H274.825L278.019 20.4336H278.991ZM284.94 29V24.8457C284.94 24.3223 284.821 23.9316 284.583 23.6738C284.344 23.416 283.971 23.2871 283.464 23.2871C282.792 23.2871 282.299 23.4688 281.987 23.832C281.674 24.1953 281.518 24.7949 281.518 25.6309V29H280.546V22.5781H281.337L281.495 23.457H281.542C281.741 23.1406 282.02 22.8965 282.38 22.7246C282.739 22.5488 283.139 22.4609 283.581 22.4609C284.354 22.4609 284.936 22.6484 285.327 23.0234C285.717 23.3945 285.913 23.9902 285.913 24.8105V29H284.94ZM293.572 22.5781V23.1934L292.383 23.334C292.492 23.4707 292.59 23.6504 292.676 23.873C292.762 24.0918 292.805 24.3398 292.805 24.6172C292.805 25.2461 292.59 25.748 292.16 26.123C291.731 26.498 291.141 26.6855 290.391 26.6855C290.199 26.6855 290.02 26.6699 289.852 26.6387C289.438 26.8574 289.231 27.1328 289.231 27.4648C289.231 27.6406 289.303 27.7715 289.447 27.8574C289.592 27.9395 289.84 27.9805 290.192 27.9805H291.328C292.024 27.9805 292.557 28.127 292.928 28.4199C293.303 28.7129 293.49 29.1387 293.49 29.6973C293.49 30.4082 293.205 30.9492 292.635 31.3203C292.065 31.6953 291.233 31.8828 290.139 31.8828C289.299 31.8828 288.651 31.7266 288.194 31.4141C287.74 31.1016 287.514 30.6602 287.514 30.0898C287.514 29.6992 287.639 29.3613 287.889 29.0762C288.139 28.791 288.49 28.5977 288.944 28.4961C288.78 28.4219 288.641 28.3066 288.528 28.1504C288.418 27.9941 288.363 27.8125 288.363 27.6055C288.363 27.3711 288.426 27.166 288.551 26.9902C288.676 26.8145 288.873 26.6445 289.143 26.4805C288.811 26.3438 288.539 26.1113 288.328 25.7832C288.121 25.4551 288.018 25.0801 288.018 24.6582C288.018 23.9551 288.229 23.4141 288.651 23.0352C289.072 22.6523 289.67 22.4609 290.444 22.4609C290.78 22.4609 291.082 22.5 291.352 22.5781H293.572ZM288.451 30.0781C288.451 30.4258 288.598 30.6895 288.891 30.8691C289.184 31.0488 289.604 31.1387 290.151 31.1387C290.967 31.1387 291.571 31.0156 291.961 30.7695C292.356 30.5273 292.553 30.1973 292.553 29.7793C292.553 29.4316 292.446 29.1895 292.231 29.0527C292.016 28.9199 291.612 28.8535 291.018 28.8535H289.852C289.41 28.8535 289.067 28.959 288.821 29.1699C288.574 29.3809 288.451 29.6836 288.451 30.0781ZM288.979 24.6348C288.979 25.084 289.106 25.4238 289.36 25.6543C289.613 25.8848 289.967 26 290.42 26C291.369 26 291.844 25.5391 291.844 24.6172C291.844 23.6523 291.363 23.1699 290.403 23.1699C289.946 23.1699 289.594 23.293 289.348 23.5391C289.102 23.7852 288.979 24.1504 288.979 24.6348ZM296.205 22.5898V26.7441C296.205 27.2676 296.324 27.6582 296.562 27.916C296.801 28.1738 297.174 28.3027 297.681 28.3027C298.353 28.3027 298.844 28.1191 299.152 27.752C299.465 27.3848 299.621 26.7852 299.621 25.9531V22.5898H300.594V23.2988C300.914 23.2559 301.146 23.1094 301.291 22.8594C301.435 22.6094 301.508 22.1836 301.508 21.582H302.551L302.638 21.7168C302.513 22.4434 302.279 22.9941 301.935 23.3691C301.592 23.7402 301.144 23.9531 300.594 24.0078V29H299.791L299.65 28.1387H299.597C299.394 28.459 299.115 28.7031 298.76 28.8711C298.408 29.0352 298.015 29.1172 297.582 29.1172C296.789 29.1172 296.197 28.9316 295.806 28.5605C295.416 28.1895 295.221 27.5957 295.221 26.7793V22.5898H296.205ZM309.214 25.7832C309.214 26.8301 308.951 27.6484 308.423 28.2383C307.896 28.8242 307.167 29.1172 306.238 29.1172C305.663 29.1172 305.154 28.9824 304.708 28.7129C304.263 28.4434 303.919 28.0566 303.677 27.5527C303.435 27.0488 303.314 26.459 303.314 25.7832C303.314 24.7363 303.576 23.9219 304.099 23.3398C304.622 22.7539 305.349 22.4609 306.279 22.4609C307.126 22.4609 307.818 22.7363 308.353 23.2871C308.552 23.2285 308.708 23.1367 308.822 23.0117C308.935 22.8828 309.017 22.7227 309.068 22.5312C309.119 22.3359 309.144 22.0234 309.144 21.5938H310.199L310.287 21.7285C310.165 22.3379 309.986 22.8145 309.747 23.1582C309.513 23.498 309.197 23.7422 308.798 23.8906C309.076 24.4297 309.214 25.0605 309.214 25.7832ZM304.322 25.7832C304.322 26.6074 304.476 27.2344 304.785 27.6641C305.093 28.0898 305.585 28.3027 306.261 28.3027C306.945 28.3027 307.439 28.0898 307.744 27.6641C308.052 27.2344 308.206 26.6074 308.206 25.7832C308.206 24.9629 308.05 24.3418 307.738 23.9199C307.429 23.498 306.933 23.2871 306.249 23.2871C305.574 23.2871 305.083 23.498 304.779 23.9199C304.474 24.3418 304.322 24.9629 304.322 25.7832ZM306.988 21.7285H306.343C306.089 21.5254 305.788 21.2363 305.441 20.8613C305.093 20.4863 304.841 20.1758 304.685 19.9297V19.8066H305.874C305.999 20.0762 306.173 20.3887 306.396 20.7441C306.619 21.0957 306.816 21.375 306.988 21.582V21.7285ZM312.356 29H311.384V22.5781H312.356V29ZM311.302 20.8379C311.302 20.6152 311.356 20.4531 311.466 20.3516C311.575 20.2461 311.712 20.1934 311.876 20.1934C312.032 20.1934 312.167 20.2461 312.28 20.3516C312.394 20.457 312.45 20.6191 312.45 20.8379C312.45 21.0566 312.394 21.2207 312.28 21.3301C312.167 21.4355 312.032 21.4883 311.876 21.4883C311.712 21.4883 311.575 21.4355 311.466 21.3301C311.356 21.2207 311.302 21.0566 311.302 20.8379ZM323.119 28.3145C323.291 28.3145 323.457 28.3027 323.617 28.2793C323.777 28.252 323.904 28.2246 323.998 28.1973V28.9414C323.892 28.9922 323.736 29.0332 323.529 29.0645C323.326 29.0996 323.142 29.1172 322.978 29.1172C321.736 29.1172 321.115 28.4629 321.115 27.1543V23.334H320.195V22.8652L321.115 22.4609L321.525 21.0898H322.087V22.5781H323.951V23.334H322.087V27.1133C322.087 27.5 322.179 27.7969 322.363 28.0039C322.546 28.2109 322.798 28.3145 323.119 28.3145ZM326.659 29H325.687V22.5781H326.659V29ZM325.605 20.8379C325.605 20.6152 325.659 20.4531 325.769 20.3516C325.878 20.2461 326.015 20.1934 326.179 20.1934C326.335 20.1934 326.47 20.2461 326.583 20.3516C326.696 20.457 326.753 20.6191 326.753 20.8379C326.753 21.0566 326.696 21.2207 326.583 21.3301C326.47 21.4355 326.335 21.4883 326.179 21.4883C326.015 21.4883 325.878 21.4355 325.769 21.3301C325.659 21.2207 325.605 21.0566 325.605 20.8379ZM331.835 29.1172C330.886 29.1172 330.136 28.8281 329.585 28.25C329.038 27.6719 328.764 26.8691 328.764 25.8418C328.764 24.8066 329.018 23.9844 329.526 23.375C330.038 22.7656 330.723 22.4609 331.583 22.4609C332.387 22.4609 333.024 22.7266 333.493 23.2578C333.962 23.7852 334.196 24.4824 334.196 25.3496V25.9648H329.772C329.792 26.7188 329.981 27.291 330.341 27.6816C330.704 28.0723 331.214 28.2676 331.87 28.2676C332.561 28.2676 333.245 28.123 333.921 27.834V28.7012C333.577 28.8496 333.251 28.9551 332.942 29.0176C332.637 29.084 332.268 29.1172 331.835 29.1172ZM331.571 23.2754C331.055 23.2754 330.643 23.4434 330.335 23.7793C330.03 24.1152 329.85 24.5801 329.796 25.1738H333.153C333.153 24.5605 333.016 24.0918 332.743 23.7676C332.47 23.4395 332.079 23.2754 331.571 23.2754ZM329.608 21.5938C330.104 21.0625 330.452 20.6719 330.651 20.4219C330.85 20.1719 330.995 19.9668 331.085 19.8066H332.057C332.143 19.9707 332.292 20.1836 332.503 20.4453C332.718 20.7031 333.069 21.0859 333.557 21.5938V21.7285H332.86C332.516 21.5137 332.085 21.1504 331.565 20.6387C331.034 21.1621 330.606 21.5254 330.282 21.7285H329.608V21.5938ZM337.174 22.5781V26.7441C337.174 27.2676 337.293 27.6582 337.532 27.916C337.77 28.1738 338.143 28.3027 338.651 28.3027C339.323 28.3027 339.813 28.1191 340.121 27.752C340.434 27.3848 340.59 26.7852 340.59 25.9531V22.5781H341.563V29H340.76L340.62 28.1387H340.567C340.368 28.4551 340.09 28.6973 339.735 28.8652C339.383 29.0332 338.981 29.1172 338.528 29.1172C337.746 29.1172 337.161 28.9316 336.77 28.5605C336.383 28.1895 336.19 27.5957 336.19 26.7793V22.5781H337.174ZM23.4023 44.1387H23.3496C22.9004 44.791 22.2285 45.1172 21.334 45.1172C20.4941 45.1172 19.8398 44.8301 19.3711 44.2559C18.9062 43.6816 18.6738 42.8652 18.6738 41.8066C18.6738 40.748 18.9082 39.9258 19.377 39.3398C19.8457 38.7539 20.498 38.4609 21.334 38.4609C22.2051 38.4609 22.873 38.7773 23.3379 39.4102H23.4141L23.373 38.9473L23.3496 38.4961V35.8828H24.3223V45H23.5312L23.4023 44.1387ZM21.457 44.3027C22.1211 44.3027 22.6016 44.123 22.8984 43.7637C23.1992 43.4004 23.3496 42.8164 23.3496 42.0117V41.8066C23.3496 40.8965 23.1973 40.248 22.8926 39.8613C22.5918 39.4707 22.1094 39.2754 21.4453 39.2754C20.875 39.2754 20.4375 39.498 20.1328 39.9434C19.832 40.3848 19.6816 41.0098 19.6816 41.8184C19.6816 42.6387 19.832 43.2578 20.1328 43.6758C20.4336 44.0938 20.875 44.3027 21.457 44.3027ZM27.7047 38.5781V42.7441C27.7047 43.2676 27.8238 43.6582 28.0621 43.916C28.3004 44.1738 28.6734 44.3027 29.1812 44.3027C29.8531 44.3027 30.3434 44.1191 30.652 43.752C30.9645 43.3848 31.1207 42.7852 31.1207 41.9531V38.5781H32.0934V45H31.2906L31.15 44.1387H31.0973C30.898 44.4551 30.6207 44.6973 30.2652 44.8652C29.9137 45.0332 29.5113 45.1172 29.0582 45.1172C28.277 45.1172 27.691 44.9316 27.3004 44.5605C26.9137 44.1895 26.7203 43.5957 26.7203 42.7793V38.5781H27.7047ZM30.0133 37.7285H29.3687C29.1148 37.5254 28.8141 37.2363 28.4664 36.8613C28.1187 36.4863 27.8668 36.1758 27.7105 35.9297V35.8066H28.9C29.025 36.0762 29.1988 36.3887 29.4215 36.7441C29.6441 37.0957 29.8414 37.375 30.0133 37.582V37.7285ZM38.9562 45V40.8457C38.9562 40.3223 38.8371 39.9316 38.5988 39.6738C38.3605 39.416 37.9875 39.2871 37.4797 39.2871C36.8078 39.2871 36.3156 39.4688 36.0031 39.832C35.6906 40.1953 35.5344 40.7949 35.5344 41.6309V45H34.5617V38.5781H35.3527L35.5109 39.457H35.5578C35.757 39.1406 36.0363 38.8965 36.3957 38.7246C36.7551 38.5488 37.1555 38.4609 37.5969 38.4609C38.3703 38.4609 38.9523 38.6484 39.343 39.0234C39.7336 39.3945 39.9289 39.9902 39.9289 40.8105V45H38.9562ZM47.5887 38.5781V39.1934L46.3992 39.334C46.5086 39.4707 46.6063 39.6504 46.6922 39.873C46.7781 40.0918 46.8211 40.3398 46.8211 40.6172C46.8211 41.2461 46.6063 41.748 46.1766 42.123C45.7469 42.498 45.157 42.6855 44.407 42.6855C44.2156 42.6855 44.0359 42.6699 43.868 42.6387C43.4539 42.8574 43.2469 43.1328 43.2469 43.4648C43.2469 43.6406 43.3191 43.7715 43.4637 43.8574C43.6082 43.9395 43.8563 43.9805 44.2078 43.9805H45.3445C46.0398 43.9805 46.573 44.127 46.9441 44.4199C47.3191 44.7129 47.5066 45.1387 47.5066 45.6973C47.5066 46.4082 47.2215 46.9492 46.6512 47.3203C46.0809 47.6953 45.2488 47.8828 44.1551 47.8828C43.3152 47.8828 42.6668 47.7266 42.2098 47.4141C41.7566 47.1016 41.5301 46.6602 41.5301 46.0898C41.5301 45.6992 41.6551 45.3613 41.9051 45.0762C42.1551 44.791 42.5066 44.5977 42.9598 44.4961C42.7957 44.4219 42.657 44.3066 42.5438 44.1504C42.4344 43.9941 42.3797 43.8125 42.3797 43.6055C42.3797 43.3711 42.4422 43.166 42.5672 42.9902C42.6922 42.8145 42.8895 42.6445 43.159 42.4805C42.827 42.3438 42.5555 42.1113 42.3445 41.7832C42.1375 41.4551 42.034 41.0801 42.034 40.6582C42.034 39.9551 42.2449 39.4141 42.6668 39.0352C43.0887 38.6523 43.6863 38.4609 44.4598 38.4609C44.7957 38.4609 45.0984 38.5 45.368 38.5781H47.5887ZM42.4676 46.0781C42.4676 46.4258 42.6141 46.6895 42.907 46.8691C43.2 47.0488 43.6199 47.1387 44.1668 47.1387C44.9832 47.1387 45.5867 47.0156 45.9773 46.7695C46.3719 46.5273 46.5691 46.1973 46.5691 45.7793C46.5691 45.4316 46.4617 45.1895 46.2469 45.0527C46.032 44.9199 45.6277 44.8535 45.034 44.8535H43.868C43.4266 44.8535 43.0828 44.959 42.8367 45.1699C42.5906 45.3809 42.4676 45.6836 42.4676 46.0781ZM42.9949 40.6348C42.9949 41.084 43.1219 41.4238 43.3758 41.6543C43.6297 41.8848 43.9832 42 44.4363 42C45.3855 42 45.8602 41.5391 45.8602 40.6172C45.8602 39.6523 45.3797 39.1699 44.4188 39.1699C43.9617 39.1699 43.6102 39.293 43.3641 39.5391C43.118 39.7852 42.9949 40.1504 42.9949 40.6348ZM55.3906 45.1172C54.4609 45.1172 53.7402 44.832 53.2285 44.2617C52.7207 43.6875 52.4668 42.877 52.4668 41.8301C52.4668 40.7559 52.7246 39.9258 53.2402 39.3398C53.7598 38.7539 54.498 38.4609 55.4551 38.4609C55.7637 38.4609 56.0723 38.4941 56.3809 38.5605C56.6895 38.627 56.9316 38.7051 57.1074 38.7949L56.8086 39.6211C56.5938 39.5352 56.3594 39.4648 56.1055 39.4102C55.8516 39.3516 55.627 39.3223 55.4316 39.3223C54.127 39.3223 53.4746 40.1543 53.4746 41.8184C53.4746 42.6074 53.6328 43.2129 53.9492 43.6348C54.2695 44.0566 54.7422 44.2676 55.3672 44.2676C55.9023 44.2676 56.4512 44.1523 57.0137 43.9219V44.7832C56.584 45.0059 56.043 45.1172 55.3906 45.1172ZM59.857 38.5781V42.7441C59.857 43.2676 59.9762 43.6582 60.2145 43.916C60.4527 44.1738 60.8258 44.3027 61.3336 44.3027C62.0055 44.3027 62.4957 44.1191 62.8043 43.752C63.1168 43.3848 63.273 42.7852 63.273 41.9531V38.5781H64.2457V45H63.443L63.3023 44.1387H63.2496C63.0504 44.4551 62.773 44.6973 62.4176 44.8652C62.066 45.0332 61.6637 45.1172 61.2105 45.1172C60.4293 45.1172 59.8434 44.9316 59.4527 44.5605C59.066 44.1895 58.8727 43.5957 58.8727 42.7793V38.5781H59.857ZM72.257 41.7832C72.257 42.8301 71.9934 43.6484 71.466 44.2383C70.9387 44.8242 70.2102 45.1172 69.2805 45.1172C68.7063 45.1172 68.1965 44.9824 67.7512 44.7129C67.3059 44.4434 66.9621 44.0566 66.7199 43.5527C66.4777 43.0488 66.3566 42.459 66.3566 41.7832C66.3566 40.7363 66.6184 39.9219 67.1418 39.3398C67.6652 38.7539 68.3918 38.4609 69.3215 38.4609C70.2199 38.4609 70.9328 38.7598 71.4602 39.3574C71.9914 39.9551 72.257 40.7637 72.257 41.7832ZM67.3645 41.7832C67.3645 42.6035 67.5285 43.2285 67.8566 43.6582C68.1848 44.0879 68.6672 44.3027 69.3039 44.3027C69.9406 44.3027 70.423 44.0898 70.7512 43.6641C71.0832 43.2344 71.2492 42.6074 71.2492 41.7832C71.2492 40.9668 71.0832 40.3477 70.7512 39.9258C70.423 39.5 69.9367 39.2871 69.2922 39.2871C68.6555 39.2871 68.175 39.4961 67.8508 39.9141C67.5266 40.332 67.3645 40.9551 67.3645 41.7832ZM71.0852 37.7285H70.5344C70.0969 37.4355 69.6848 37.1113 69.298 36.7559C68.8527 37.1504 68.4406 37.4746 68.0617 37.7285H67.5109V37.582L67.8215 37.2305C68.259 36.75 68.5793 36.3594 68.7824 36.0586H69.8137C70.0715 36.4258 70.4953 36.9336 71.0852 37.582V37.7285ZM70.6164 36.4453C70.9016 36.0898 71.1496 35.6934 71.3605 35.2559H72.3684V35.3789C72.0441 35.8086 71.6477 36.2109 71.1789 36.5859H70.6164V36.4453ZM75.3406 45H74.368V38.5781H75.3406V45ZM74.2859 36.8379C74.2859 36.6152 74.3406 36.4531 74.45 36.3516C74.5594 36.2461 74.6961 36.1934 74.8602 36.1934C75.0164 36.1934 75.1512 36.2461 75.2645 36.3516C75.3777 36.457 75.4344 36.6191 75.4344 36.8379C75.4344 37.0566 75.3777 37.2207 75.2645 37.3301C75.1512 37.4355 75.0164 37.4883 74.8602 37.4883C74.6961 37.4883 74.5594 37.4355 74.45 37.3301C74.3406 37.2207 74.2859 37.0566 74.2859 36.8379ZM83.8867 45.1172C82.957 45.1172 82.2363 44.832 81.7246 44.2617C81.2168 43.6875 80.9629 42.877 80.9629 41.8301C80.9629 40.7559 81.2207 39.9258 81.7363 39.3398C82.2559 38.7539 82.9941 38.4609 83.9512 38.4609C84.2598 38.4609 84.5684 38.4941 84.877 38.5605C85.1855 38.627 85.4277 38.7051 85.6035 38.7949L85.3047 39.6211C85.0898 39.5352 84.8555 39.4648 84.6016 39.4102C84.3477 39.3516 84.123 39.3223 83.9277 39.3223C82.623 39.3223 81.9707 40.1543 81.9707 41.8184C81.9707 42.6074 82.1289 43.2129 82.4453 43.6348C82.7656 44.0566 83.2383 44.2676 83.8633 44.2676C84.3984 44.2676 84.9473 44.1523 85.5098 43.9219V44.7832C85.0801 45.0059 84.5391 45.1172 83.8867 45.1172ZM88.3531 38.5781V42.7441C88.3531 43.2676 88.4723 43.6582 88.7105 43.916C88.9488 44.1738 89.3219 44.3027 89.8297 44.3027C90.5016 44.3027 90.9918 44.1191 91.3004 43.752C91.6129 43.3848 91.7691 42.7852 91.7691 41.9531V38.5781H92.7418V45H91.9391L91.7984 44.1387H91.7457C91.5465 44.4551 91.2691 44.6973 90.9137 44.8652C90.5621 45.0332 90.1598 45.1172 89.7066 45.1172C88.9254 45.1172 88.3395 44.9316 87.9488 44.5605C87.5621 44.1895 87.3688 43.5957 87.3688 42.7793V38.5781H88.3531ZM90.6617 37.7285H90.0172C89.7633 37.5254 89.4625 37.2363 89.1148 36.8613C88.7672 36.4863 88.5152 36.1758 88.359 35.9297V35.8066H89.5484C89.6734 36.0762 89.8473 36.3887 90.0699 36.7441C90.2926 37.0957 90.4898 37.375 90.6617 37.582V37.7285ZM99.6047 45V40.8457C99.6047 40.3223 99.4855 39.9316 99.2473 39.6738C99.009 39.416 98.6359 39.2871 98.1281 39.2871C97.4563 39.2871 96.9641 39.4688 96.6516 39.832C96.3391 40.1953 96.1828 40.7949 96.1828 41.6309V45H95.2102V38.5781H96.0012L96.1594 39.457H96.2063C96.4055 39.1406 96.6848 38.8965 97.0441 38.7246C97.4035 38.5488 97.8039 38.4609 98.2453 38.4609C99.0188 38.4609 99.6008 38.6484 99.9914 39.0234C100.382 39.3945 100.577 39.9902 100.577 40.8105V45H99.6047ZM108.237 38.5781V39.1934L107.048 39.334C107.157 39.4707 107.255 39.6504 107.341 39.873C107.427 40.0918 107.47 40.3398 107.47 40.6172C107.47 41.2461 107.255 41.748 106.825 42.123C106.395 42.498 105.805 42.6855 105.055 42.6855C104.864 42.6855 104.684 42.6699 104.516 42.6387C104.102 42.8574 103.895 43.1328 103.895 43.4648C103.895 43.6406 103.968 43.7715 104.112 43.8574C104.257 43.9395 104.505 43.9805 104.856 43.9805H105.993C106.688 43.9805 107.221 44.127 107.593 44.4199C107.968 44.7129 108.155 45.1387 108.155 45.6973C108.155 46.4082 107.87 46.9492 107.3 47.3203C106.729 47.6953 105.897 47.8828 104.804 47.8828C103.964 47.8828 103.315 47.7266 102.858 47.4141C102.405 47.1016 102.179 46.6602 102.179 46.0898C102.179 45.6992 102.304 45.3613 102.554 45.0762C102.804 44.791 103.155 44.5977 103.608 44.4961C103.444 44.4219 103.305 44.3066 103.192 44.1504C103.083 43.9941 103.028 43.8125 103.028 43.6055C103.028 43.3711 103.091 43.166 103.216 42.9902C103.341 42.8145 103.538 42.6445 103.807 42.4805C103.475 42.3438 103.204 42.1113 102.993 41.7832C102.786 41.4551 102.682 41.0801 102.682 40.6582C102.682 39.9551 102.893 39.4141 103.315 39.0352C103.737 38.6523 104.335 38.4609 105.108 38.4609C105.444 38.4609 105.747 38.5 106.016 38.5781H108.237ZM103.116 46.0781C103.116 46.4258 103.262 46.6895 103.555 46.8691C103.848 47.0488 104.268 47.1387 104.815 47.1387C105.632 47.1387 106.235 47.0156 106.626 46.7695C107.02 46.5273 107.218 46.1973 107.218 45.7793C107.218 45.4316 107.11 45.1895 106.895 45.0527C106.68 44.9199 106.276 44.8535 105.682 44.8535H104.516C104.075 44.8535 103.731 44.959 103.485 45.1699C103.239 45.3809 103.116 45.6836 103.116 46.0781ZM103.643 40.6348C103.643 41.084 103.77 41.4238 104.024 41.6543C104.278 41.8848 104.632 42 105.085 42C106.034 42 106.509 41.5391 106.509 40.6172C106.509 39.6523 106.028 39.1699 105.067 39.1699C104.61 39.1699 104.259 39.293 104.012 39.5391C103.766 39.7852 103.643 40.1504 103.643 40.6348ZM110.618 42.6387V42.3223C110.618 41.8652 110.688 41.4902 110.829 41.1973C110.969 40.9004 111.231 40.5879 111.614 40.2598C112.145 39.8105 112.479 39.4727 112.616 39.2461C112.756 39.0195 112.827 38.7461 112.827 38.4258C112.827 38.0273 112.698 37.7207 112.44 37.5059C112.186 37.2871 111.819 37.1777 111.338 37.1777C111.03 37.1777 110.729 37.2148 110.436 37.2891C110.143 37.3594 109.807 37.4902 109.428 37.6816L109.082 36.8906C109.821 36.5039 110.592 36.3105 111.397 36.3105C112.143 36.3105 112.723 36.4941 113.137 36.8613C113.551 37.2285 113.758 37.7461 113.758 38.4141C113.758 38.6992 113.719 38.9512 113.641 39.1699C113.567 39.3848 113.455 39.5898 113.307 39.7852C113.159 39.9766 112.838 40.2871 112.346 40.7168C111.952 41.0527 111.69 41.332 111.561 41.5547C111.436 41.7773 111.373 42.0742 111.373 42.4453V42.6387H110.618ZM110.33 44.3789C110.33 43.8477 110.565 43.582 111.034 43.582C111.26 43.582 111.434 43.6504 111.555 43.7871C111.68 43.9238 111.743 44.1211 111.743 44.3789C111.743 44.6289 111.68 44.8242 111.555 44.9648C111.43 45.1016 111.256 45.1699 111.034 45.1699C110.83 45.1699 110.662 45.1094 110.53 44.9883C110.397 44.8633 110.33 44.6602 110.33 44.3789Z" fill="#A7ABC3"/>
</svg>
