<svg width="375" height="130" viewBox="0 0 375 130" fill="none" xmlns="http://www.w3.org/2000/svg">
<rect y="0.5" width="375" height="128" fill="url(#paint0_linear_1348_6056)"/>
<path d="M25.6426 18.6504C26.9668 18.6504 28.1123 18.8906 29.0791 19.3711C30.0518 19.8457 30.8018 20.5518 31.3291 21.4893C31.8564 22.4209 32.1201 23.5752 32.1201 24.9521C32.1201 26.3994 31.8506 27.6094 31.3115 28.582C30.7725 29.5488 29.9902 30.2783 28.9648 30.7705C27.9395 31.2568 26.7002 31.5 25.2471 31.5H21.749V26.0244H20.4658V24.2578H21.749V18.6504H25.6426ZM25.5898 20.3994H23.8496V24.2578H26.5303V26.0244H23.8496V29.7334H25.2822C26.8291 29.7334 27.9893 29.3379 28.7627 28.5469C29.5361 27.7559 29.9229 26.5781 29.9229 25.0137C29.9229 23.959 29.7529 23.0918 29.4131 22.4121C29.0791 21.7324 28.5898 21.2285 27.9453 20.9004C27.3008 20.5664 26.5156 20.3994 25.5898 20.3994ZM46.6869 20.2852L46.81 20.4785C46.7279 20.9355 46.6137 21.3691 46.4672 21.7793C46.3207 22.1836 46.1156 22.5498 45.852 22.8779C45.5883 23.2061 45.2455 23.4814 44.8236 23.7041C44.4076 23.9209 43.8861 24.0703 43.2592 24.1523V31.5H41.6332L41.352 30.1904H41.2289C41.0238 30.5244 40.7631 30.8027 40.4467 31.0254C40.1361 31.2422 39.7875 31.4033 39.4008 31.5088C39.0199 31.6201 38.6186 31.6758 38.1967 31.6758C37.4584 31.6758 36.8285 31.5527 36.307 31.3066C35.7855 31.0547 35.3871 30.668 35.1117 30.1465C34.8363 29.625 34.6986 28.9512 34.6986 28.125V21.7793H36.7729V27.7383C36.7729 28.4941 36.9252 29.0596 37.2299 29.4346C37.5404 29.8096 38.0209 29.9971 38.6713 29.9971C39.6146 29.9971 40.268 29.707 40.6313 29.127C41.0004 28.5469 41.185 27.709 41.185 26.6133V21.7793H43.2592V22.8252C43.599 22.7432 43.8656 22.5879 44.059 22.3594C44.2523 22.125 44.39 21.832 44.4721 21.4805C44.5541 21.123 44.5951 20.7246 44.5951 20.2852H46.6869ZM38.5131 17.71C38.6713 17.9795 38.8646 18.2783 39.0932 18.6064C39.3217 18.9346 39.559 19.2539 39.8051 19.5645C40.0512 19.875 40.268 20.1416 40.4555 20.3643V20.5928H39.0756C38.8529 20.4287 38.6039 20.2295 38.3285 19.9951C38.0531 19.7549 37.7719 19.5059 37.4848 19.248C37.2035 18.9844 36.9428 18.7354 36.7025 18.501C36.4682 18.2607 36.2807 18.0557 36.14 17.8857V17.71H38.5131ZM52.7635 21.5859C53.8592 21.5859 54.7117 21.8701 55.3211 22.4385C55.9363 23.001 56.2439 23.9062 56.2439 25.1543V31.5H54.1785V25.541C54.1785 24.7852 54.0232 24.2197 53.7127 23.8447C53.4021 23.4639 52.9217 23.2734 52.2713 23.2734C51.3279 23.2734 50.6717 23.5635 50.3025 24.1436C49.9393 24.7236 49.7576 25.5645 49.7576 26.666V31.5H47.6922V21.7705H49.3006L49.5906 23.0889H49.7049C49.9158 22.749 50.1766 22.4707 50.4871 22.2539C50.8035 22.0312 51.1551 21.8643 51.5418 21.7529C51.9344 21.6416 52.3416 21.5859 52.7635 21.5859ZM62.0129 35.8242C60.6945 35.8242 59.6838 35.5869 58.9807 35.1123C58.2775 34.6377 57.926 33.9727 57.926 33.1172C57.926 32.5195 58.1135 32.0127 58.4885 31.5967C58.8635 31.1865 59.3996 30.9023 60.0969 30.7441C59.8332 30.627 59.6047 30.4453 59.4113 30.1992C59.2238 29.9473 59.1301 29.6689 59.1301 29.3643C59.1301 29.001 59.2326 28.6904 59.4377 28.4326C59.6428 28.1748 59.9504 27.9258 60.3605 27.6855C59.8508 27.4688 59.4406 27.1172 59.1301 26.6309C58.8254 26.1387 58.673 25.5615 58.673 24.8994C58.673 24.1963 58.8225 23.5986 59.1213 23.1064C59.4201 22.6084 59.8566 22.2305 60.4309 21.9727C61.0051 21.709 61.6994 21.5771 62.5139 21.5771C62.6896 21.5771 62.8801 21.5889 63.0852 21.6123C63.2961 21.6299 63.4895 21.6533 63.6652 21.6826C63.8469 21.7061 63.9846 21.7324 64.0783 21.7617H67.4445V22.9131L65.7922 23.2207C65.9504 23.4434 66.0764 23.6982 66.1701 23.9854C66.2639 24.2666 66.3107 24.5742 66.3107 24.9082C66.3107 25.916 65.9621 26.71 65.2648 27.29C64.5734 27.8643 63.6184 28.1514 62.3996 28.1514C62.1066 28.1396 61.8225 28.1162 61.5471 28.0811C61.3361 28.21 61.175 28.3535 61.0637 28.5117C60.9523 28.6641 60.8967 28.8369 60.8967 29.0303C60.8967 29.1885 60.9523 29.3174 61.0637 29.417C61.175 29.5107 61.3391 29.5811 61.5559 29.6279C61.7785 29.6748 62.048 29.6982 62.3645 29.6982H64.0432C65.1096 29.6982 65.924 29.9238 66.4865 30.375C67.049 30.8262 67.3303 31.4883 67.3303 32.3613C67.3303 33.4688 66.8732 34.3213 65.9592 34.9189C65.0451 35.5225 63.7297 35.8242 62.0129 35.8242ZM62.092 34.374C62.8127 34.374 63.4191 34.3037 63.9113 34.1631C64.4035 34.0225 64.7756 33.8203 65.0275 33.5566C65.2795 33.2988 65.4055 32.9912 65.4055 32.6338C65.4055 32.3174 65.3264 32.0742 65.1682 31.9043C65.01 31.7344 64.7727 31.6172 64.4562 31.5527C64.1398 31.4883 63.7473 31.4561 63.2785 31.4561H61.7492C61.3684 31.4561 61.0314 31.5146 60.7385 31.6318C60.4455 31.7549 60.217 31.9307 60.0529 32.1592C59.8947 32.3877 59.8156 32.6631 59.8156 32.9854C59.8156 33.4307 60.0119 33.7734 60.4045 34.0137C60.8029 34.2539 61.3654 34.374 62.092 34.374ZM62.4963 26.7979C63.0998 26.7979 63.548 26.6338 63.841 26.3057C64.134 25.9717 64.2805 25.5029 64.2805 24.8994C64.2805 24.2432 64.1281 23.751 63.8234 23.4229C63.5246 23.0947 63.0793 22.9307 62.4875 22.9307C61.9074 22.9307 61.465 23.0977 61.1604 23.4316C60.8615 23.7656 60.7121 24.2607 60.7121 24.917C60.7121 25.5088 60.8615 25.9717 61.1604 26.3057C61.465 26.6338 61.9104 26.7979 62.4963 26.7979ZM76.1611 17.8242V21.1201C76.1611 21.501 76.1494 21.876 76.126 22.2451C76.1084 22.6084 76.0908 22.8926 76.0732 23.0977H76.1611C76.4248 22.6758 76.791 22.3213 77.2598 22.0342C77.7344 21.7412 78.3408 21.5947 79.0791 21.5947C80.2334 21.5947 81.1621 22.0195 81.8652 22.8691C82.5684 23.7129 82.9199 24.9639 82.9199 26.6221C82.9199 27.7236 82.7588 28.6494 82.4365 29.3994C82.1143 30.1494 81.6602 30.7178 81.0742 31.1045C80.4941 31.4854 79.8115 31.6758 79.0264 31.6758C78.2881 31.6758 77.6904 31.541 77.2334 31.2715C76.7822 30.9961 76.4277 30.6768 76.1699 30.3135H76.0205L75.6426 31.5H74.0957V17.8242H76.1611ZM78.5342 23.2734C77.9482 23.2734 77.4824 23.3906 77.1367 23.625C76.7969 23.8594 76.5508 24.2109 76.3984 24.6797C76.2461 25.1426 76.167 25.7314 76.1611 26.4463V26.6309C76.1611 27.7148 76.3311 28.5439 76.6709 29.1182C77.0166 29.6924 77.6436 29.9795 78.5518 29.9795C79.2725 29.9795 79.8262 29.6895 80.2129 29.1094C80.5996 28.5234 80.793 27.6855 80.793 26.5957C80.793 25.4941 80.5996 24.665 80.2129 24.1084C79.832 23.5518 79.2725 23.2734 78.5342 23.2734ZM94.0238 26.6133C94.0238 27.4219 93.9184 28.1396 93.7074 28.7666C93.4965 29.3936 93.1889 29.9238 92.7846 30.3574C92.3803 30.7852 91.8939 31.1133 91.3256 31.3418C90.7572 31.5645 90.1156 31.6758 89.4008 31.6758C88.7328 31.6758 88.1205 31.5645 87.5639 31.3418C87.0072 31.1133 86.5238 30.7852 86.1137 30.3574C85.7094 29.9238 85.3959 29.3936 85.1732 28.7666C84.9506 28.1396 84.8393 27.4219 84.8393 26.6133C84.8393 25.541 85.0238 24.6328 85.393 23.8887C85.768 23.1387 86.3012 22.5674 86.9926 22.1748C87.684 21.7822 88.5072 21.5859 89.4623 21.5859C90.3588 21.5859 91.1498 21.7822 91.8354 22.1748C92.5209 22.5674 93.057 23.1387 93.4437 23.8887C93.8305 24.6387 94.0238 25.5469 94.0238 26.6133ZM86.9662 26.6133C86.9662 27.3223 87.0512 27.9287 87.2211 28.4326C87.3969 28.9365 87.6664 29.3232 88.0297 29.5928C88.393 29.8564 88.8617 29.9883 89.4359 29.9883C90.0102 29.9883 90.4789 29.8564 90.8422 29.5928C91.2055 29.3232 91.4721 28.9365 91.642 28.4326C91.8119 27.9287 91.8969 27.3223 91.8969 26.6133C91.8969 25.9043 91.8119 25.3037 91.642 24.8115C91.4721 24.3135 91.2055 23.9355 90.8422 23.6777C90.4789 23.4141 90.0072 23.2822 89.4271 23.2822C88.5717 23.2822 87.9477 23.5693 87.5551 24.1436C87.1625 24.7178 86.9662 25.541 86.9662 26.6133ZM91.5365 18.3779C91.5365 18.8291 91.4076 19.1924 91.1498 19.4678C90.892 19.7373 90.5375 19.9248 90.0863 20.0303L90.0072 20.8301H88.7855L88.6273 19.4238C89.0727 19.3535 89.3979 19.2451 89.6029 19.0986C89.808 18.9521 89.9105 18.7529 89.9105 18.501C89.9105 18.2607 89.8227 18.0908 89.6469 17.9912C89.477 17.8857 89.2543 17.833 88.9789 17.833C88.7797 17.833 88.5893 17.8477 88.4076 17.877C88.2318 17.9004 88.0707 17.9326 87.9242 17.9736V16.7959C88.0707 16.749 88.2553 16.7109 88.4779 16.6816C88.7064 16.6523 88.9496 16.6377 89.2074 16.6377C89.9691 16.6377 90.5463 16.7871 90.9389 17.0859C91.3373 17.3848 91.5365 17.8154 91.5365 18.3779ZM103.347 31.5H101.273V17.8242H103.347V31.5ZM115.013 26.6133C115.013 27.6855 114.826 28.5996 114.451 29.3555C114.082 30.1113 113.551 30.6885 112.86 31.0869C112.169 31.4795 111.345 31.6758 110.39 31.6758C109.505 31.6758 108.717 31.4795 108.026 31.0869C107.34 30.6885 106.801 30.1113 106.409 29.3555C106.022 28.5996 105.829 27.6855 105.829 26.6133C105.829 25.0078 106.242 23.7686 107.068 22.8955C107.894 22.0225 109.022 21.5859 110.452 21.5859C111.096 21.5859 111.697 21.6914 112.254 21.9023C112.816 22.1133 113.296 22.418 113.695 22.8164C114.023 22.7109 114.278 22.541 114.46 22.3066C114.647 22.0723 114.776 21.7822 114.846 21.4365C114.922 21.0908 114.961 20.71 114.961 20.2939H117.052L117.184 20.4785C117.079 21.0469 116.926 21.5625 116.727 22.0254C116.528 22.4824 116.25 22.8779 115.892 23.2119C115.535 23.54 115.063 23.7949 114.477 23.9766C114.647 24.3398 114.779 24.7441 114.873 25.1895C114.966 25.6289 115.013 26.1035 115.013 26.6133ZM107.956 26.6133C107.956 27.3457 108.041 27.9639 108.211 28.4678C108.38 28.9717 108.647 29.3525 109.01 29.6104C109.379 29.8623 109.851 29.9883 110.425 29.9883C111.005 29.9883 111.474 29.8594 111.832 29.6016C112.195 29.3438 112.462 28.9658 112.631 28.4678C112.801 27.9639 112.886 27.3457 112.886 26.6133C112.886 25.8867 112.801 25.2773 112.631 24.7852C112.462 24.2871 112.195 23.9121 111.832 23.6602C111.468 23.4082 110.997 23.2822 110.417 23.2822C109.555 23.2822 108.928 23.5635 108.536 24.126C108.149 24.6885 107.956 25.5176 107.956 26.6133ZM106.945 20.584C106.98 20.1738 107.056 19.8164 107.173 19.5117C107.291 19.2012 107.443 18.9434 107.63 18.7383C107.824 18.5273 108.044 18.3691 108.29 18.2637C108.542 18.1582 108.814 18.1055 109.107 18.1055C109.365 18.1055 109.611 18.1553 109.845 18.2549C110.086 18.3545 110.317 18.4717 110.54 18.6064C110.768 18.7354 110.988 18.8496 111.199 18.9492C111.416 19.0488 111.624 19.0986 111.823 19.0986C112.051 19.0986 112.245 19.0166 112.403 18.8525C112.567 18.6885 112.69 18.4336 112.772 18.0879H113.853C113.783 18.8965 113.551 19.5146 113.159 19.9424C112.766 20.3643 112.277 20.5752 111.691 20.5752C111.445 20.5752 111.202 20.5254 110.962 20.4258C110.727 20.3203 110.499 20.2031 110.276 20.0742C110.053 19.9453 109.834 19.8311 109.617 19.7314C109.4 19.6318 109.189 19.582 108.984 19.582C108.75 19.582 108.55 19.6641 108.386 19.8281C108.228 19.9922 108.111 20.2441 108.035 20.584H106.945ZM23.542 41.8242V45.1201C23.542 45.501 23.5303 45.876 23.5068 46.2451C23.4893 46.6084 23.4717 46.8926 23.4541 47.0977H23.542C23.8057 46.6758 24.1719 46.3213 24.6406 46.0342C25.1152 45.7412 25.7217 45.5947 26.46 45.5947C27.6143 45.5947 28.543 46.0195 29.2461 46.8691C29.9492 47.7129 30.3008 48.9639 30.3008 50.6221C30.3008 51.7236 30.1396 52.6494 29.8174 53.3994C29.4951 54.1494 29.041 54.7178 28.4551 55.1045C27.875 55.4854 27.1924 55.6758 26.4072 55.6758C25.6689 55.6758 25.0713 55.541 24.6143 55.2715C24.1631 54.9961 23.8086 54.6768 23.5508 54.3135H23.4014L23.0234 55.5H21.4766V41.8242H23.542ZM25.915 47.2734C25.3291 47.2734 24.8633 47.3906 24.5176 47.625C24.1777 47.8594 23.9316 48.2109 23.7793 48.6797C23.627 49.1426 23.5479 49.7314 23.542 50.4463V50.6309C23.542 51.7148 23.7119 52.5439 24.0518 53.1182C24.3975 53.6924 25.0244 53.9795 25.9326 53.9795C26.6533 53.9795 27.207 53.6895 27.5938 53.1094C27.9805 52.5234 28.1738 51.6855 28.1738 50.5957C28.1738 49.4941 27.9805 48.665 27.5938 48.1084C27.2129 47.5518 26.6533 47.2734 25.915 47.2734ZM36.6059 45.5859C37.8363 45.5859 38.765 45.8584 39.392 46.4033C40.0248 46.9482 40.3412 47.7979 40.3412 48.9521V55.5H38.8734L38.4779 54.1201H38.4076C38.1322 54.4717 37.848 54.7617 37.5551 54.9902C37.2621 55.2188 36.9223 55.3887 36.5355 55.5C36.1547 55.6172 35.6889 55.6758 35.1381 55.6758C34.558 55.6758 34.0395 55.5703 33.5824 55.3594C33.1254 55.1426 32.765 54.8145 32.5014 54.375C32.2377 53.9355 32.1059 53.3789 32.1059 52.7051C32.1059 51.7031 32.4779 50.9502 33.2221 50.4463C33.9721 49.9424 35.1029 49.6641 36.6146 49.6113L38.3021 49.5498V49.04C38.3021 48.3662 38.1439 47.8857 37.8275 47.5986C37.517 47.3115 37.0775 47.168 36.5092 47.168C36.0229 47.168 35.5512 47.2383 35.0941 47.3789C34.6371 47.5195 34.1918 47.6924 33.7582 47.8975L33.0902 46.4385C33.5648 46.1865 34.1039 45.9814 34.7074 45.8232C35.3168 45.665 35.9496 45.5859 36.6059 45.5859ZM38.2934 50.8506L37.0365 50.8945C36.0053 50.9297 35.2816 51.1055 34.8656 51.4219C34.4496 51.7383 34.2416 52.1719 34.2416 52.7227C34.2416 53.2031 34.3852 53.5547 34.6723 53.7773C34.9594 53.9941 35.3373 54.1025 35.8061 54.1025C36.5209 54.1025 37.1127 53.9004 37.5814 53.4961C38.0561 53.0859 38.2934 52.4854 38.2934 51.6943V50.8506ZM36.017 41.71C36.1752 41.9795 36.3686 42.2783 36.5971 42.6064C36.8256 42.9346 37.0629 43.2539 37.309 43.5645C37.5551 43.875 37.7719 44.1416 37.9594 44.3643V44.5928H36.5795C36.3568 44.4287 36.1078 44.2295 35.8324 43.9951C35.557 43.7549 35.2758 43.5059 34.9887 43.248C34.7074 42.9844 34.4467 42.7354 34.2064 42.501C33.9721 42.2607 33.7846 42.0557 33.6439 41.8857V41.71H36.017ZM45.3982 45.7705V55.5H43.3328V45.7705H45.3982ZM44.3787 42.0439C44.6951 42.0439 44.9676 42.1289 45.1961 42.2988C45.4305 42.4688 45.5477 42.7617 45.5477 43.1777C45.5477 43.5879 45.4305 43.8809 45.1961 44.0566C44.9676 44.2266 44.6951 44.3115 44.3787 44.3115C44.0506 44.3115 43.7723 44.2266 43.5438 44.0566C43.3211 43.8809 43.2098 43.5879 43.2098 43.1777C43.2098 42.7617 43.3211 42.4688 43.5438 42.2988C43.7723 42.1289 44.0506 42.0439 44.3787 42.0439ZM55.3014 41.8242V45.2607C55.3014 45.6182 55.2896 45.9668 55.2662 46.3066C55.2486 46.6465 55.2281 46.9102 55.2047 47.0977H55.3189C55.524 46.7578 55.776 46.4795 56.0748 46.2627C56.3736 46.04 56.7076 45.873 57.0768 45.7617C57.4518 45.6504 57.8502 45.5947 58.2721 45.5947C59.0162 45.5947 59.649 45.7207 60.1705 45.9727C60.692 46.2188 61.0904 46.6025 61.3658 47.124C61.6471 47.6455 61.7877 48.3223 61.7877 49.1543V55.5H59.7223V49.541C59.7223 48.7852 59.567 48.2197 59.2564 47.8447C58.9459 47.4639 58.4654 47.2734 57.815 47.2734C57.1881 47.2734 56.69 47.4053 56.3209 47.6689C55.9576 47.9268 55.6969 48.3105 55.5387 48.8203C55.3805 49.3242 55.3014 49.9395 55.3014 50.666V55.5H53.2359V41.8242H55.3014ZM73.3926 50.6133C73.3926 51.4219 73.2871 52.1396 73.0762 52.7666C72.8652 53.3936 72.5576 53.9238 72.1533 54.3574C71.749 54.7852 71.2627 55.1133 70.6943 55.3418C70.126 55.5645 69.4844 55.6758 68.7695 55.6758C68.1016 55.6758 67.4893 55.5645 66.9326 55.3418C66.376 55.1133 65.8926 54.7852 65.4824 54.3574C65.0781 53.9238 64.7646 53.3936 64.542 52.7666C64.3193 52.1396 64.208 51.4219 64.208 50.6133C64.208 49.541 64.3926 48.6328 64.7617 47.8887C65.1367 47.1387 65.6699 46.5674 66.3613 46.1748C67.0527 45.7822 67.876 45.5859 68.8311 45.5859C69.7275 45.5859 70.5186 45.7822 71.2041 46.1748C71.8896 46.5674 72.4258 47.1387 72.8125 47.8887C73.1992 48.6387 73.3926 49.5469 73.3926 50.6133ZM66.335 50.6133C66.335 51.3223 66.4199 51.9287 66.5898 52.4326C66.7656 52.9365 67.0352 53.3232 67.3984 53.5928C67.7617 53.8564 68.2305 53.9883 68.8047 53.9883C69.3789 53.9883 69.8477 53.8564 70.2109 53.5928C70.5742 53.3232 70.8408 52.9365 71.0107 52.4326C71.1807 51.9287 71.2656 51.3223 71.2656 50.6133C71.2656 49.9043 71.1807 49.3037 71.0107 48.8115C70.8408 48.3135 70.5742 47.9355 70.2109 47.6777C69.8477 47.4141 69.376 47.2822 68.7959 47.2822C67.9404 47.2822 67.3164 47.5693 66.9238 48.1436C66.5312 48.7178 66.335 49.541 66.335 50.6133ZM68.7783 58.9277C68.4502 58.9277 68.1719 58.8398 67.9434 58.6641C67.7207 58.4941 67.6094 58.2041 67.6094 57.7939C67.6094 57.3779 67.7207 57.085 67.9434 56.915C68.1719 56.7451 68.4502 56.6602 68.7783 56.6602C69.1006 56.6602 69.376 56.7451 69.6045 56.915C69.833 57.085 69.9473 57.3779 69.9473 57.7939C69.9473 58.2041 69.833 58.4941 69.6045 58.6641C69.376 58.8398 69.1006 58.9277 68.7783 58.9277ZM79.7855 55.6758C78.8656 55.6758 78.0687 55.4971 77.3949 55.1396C76.7211 54.7822 76.2025 54.2344 75.8393 53.4961C75.476 52.7578 75.2943 51.8203 75.2943 50.6836C75.2943 49.5 75.4936 48.5332 75.892 47.7832C76.2904 47.0332 76.8412 46.4795 77.5443 46.1221C78.2533 45.7646 79.0648 45.5859 79.9789 45.5859C80.559 45.5859 81.0834 45.6445 81.5521 45.7617C82.0268 45.873 82.4281 46.0107 82.7562 46.1748L82.141 47.8271C81.7836 47.6807 81.4174 47.5576 81.0424 47.458C80.6674 47.3584 80.307 47.3086 79.9613 47.3086C79.393 47.3086 78.9184 47.4346 78.5375 47.6865C78.1625 47.9385 77.8812 48.3135 77.6937 48.8115C77.5121 49.3096 77.4213 49.9277 77.4213 50.666C77.4213 51.3809 77.515 51.9844 77.7025 52.4766C77.89 52.9629 78.1684 53.332 78.5375 53.584C78.9066 53.8301 79.3607 53.9531 79.8998 53.9531C80.433 53.9531 80.9105 53.8887 81.3324 53.7598C81.7543 53.6309 82.1527 53.4639 82.5277 53.2588V55.0518C82.1586 55.2627 81.7631 55.418 81.3412 55.5176C80.9193 55.623 80.4008 55.6758 79.7855 55.6758ZM93.6086 55.6758C92.6887 55.6758 91.8918 55.4971 91.218 55.1396C90.5441 54.7822 90.0256 54.2344 89.6623 53.4961C89.299 52.7578 89.1174 51.8203 89.1174 50.6836C89.1174 49.5 89.3166 48.5332 89.715 47.7832C90.1135 47.0332 90.6643 46.4795 91.3674 46.1221C92.0764 45.7646 92.8879 45.5859 93.802 45.5859C94.382 45.5859 94.9064 45.6445 95.3752 45.7617C95.8498 45.873 96.2512 46.0107 96.5793 46.1748L95.9641 47.8271C95.6066 47.6807 95.2404 47.5576 94.8654 47.458C94.4904 47.3584 94.1301 47.3086 93.7844 47.3086C93.216 47.3086 92.7414 47.4346 92.3605 47.6865C91.9855 47.9385 91.7043 48.3135 91.5168 48.8115C91.3352 49.3096 91.2443 49.9277 91.2443 50.666C91.2443 51.3809 91.3381 51.9844 91.5256 52.4766C91.7131 52.9629 91.9914 53.332 92.3605 53.584C92.7297 53.8301 93.1838 53.9531 93.7229 53.9531C94.2561 53.9531 94.7336 53.8887 95.1555 53.7598C95.5773 53.6309 95.9758 53.4639 96.3508 53.2588V55.0518C95.9816 55.2627 95.5861 55.418 95.1643 55.5176C94.7424 55.623 94.2238 55.6758 93.6086 55.6758ZM107.217 45.7705V55.5H105.591L105.31 54.1904H105.196C104.991 54.5244 104.73 54.8027 104.414 55.0254C104.097 55.2422 103.746 55.4033 103.359 55.5088C102.972 55.6201 102.565 55.6758 102.137 55.6758C101.405 55.6758 100.778 55.5527 100.256 55.3066C99.7408 55.0547 99.3453 54.668 99.0699 54.1465C98.7945 53.625 98.6568 52.9512 98.6568 52.125V45.7705H100.731V51.7383C100.731 52.4941 100.883 53.0596 101.188 53.4346C101.499 53.8096 101.979 53.9971 102.629 53.9971C103.256 53.9971 103.754 53.8682 104.124 53.6104C104.493 53.3525 104.754 52.9717 104.906 52.4678C105.064 51.9639 105.143 51.3457 105.143 50.6133V45.7705H107.217ZM104.994 42.3779C104.994 42.8291 104.865 43.1924 104.607 43.4678C104.349 43.7373 103.995 43.9248 103.544 44.0303L103.464 44.8301H102.243L102.085 43.4238C102.53 43.3535 102.855 43.2451 103.06 43.0986C103.265 42.9521 103.368 42.7529 103.368 42.501C103.368 42.2607 103.28 42.0908 103.104 41.9912C102.934 41.8857 102.712 41.833 102.436 41.833C102.237 41.833 102.046 41.8477 101.865 41.877C101.689 41.9004 101.528 41.9326 101.381 41.9736V40.7959C101.528 40.749 101.713 40.7109 101.935 40.6816C102.164 40.6523 102.407 40.6377 102.665 40.6377C103.426 40.6377 104.004 40.7871 104.396 41.0859C104.795 41.3848 104.994 41.8154 104.994 42.3779ZM114.094 45.5859C115.324 45.5859 116.253 45.8584 116.88 46.4033C117.513 46.9482 117.829 47.7979 117.829 48.9521V55.5H116.361L115.966 54.1201H115.896C115.62 54.4717 115.336 54.7617 115.043 54.9902C114.75 55.2188 114.41 55.3887 114.023 55.5C113.643 55.6172 113.177 55.6758 112.626 55.6758C112.046 55.6758 111.527 55.5703 111.07 55.3594C110.613 55.1426 110.253 54.8145 109.989 54.375C109.726 53.9355 109.594 53.3789 109.594 52.7051C109.594 51.7031 109.966 50.9502 110.71 50.4463C111.46 49.9424 112.591 49.6641 114.103 49.6113L115.79 49.5498V49.04C115.79 48.3662 115.632 47.8857 115.315 47.5986C115.005 47.3115 114.565 47.168 113.997 47.168C113.511 47.168 113.039 47.2383 112.582 47.3789C112.125 47.5195 111.68 47.6924 111.246 47.8975L110.578 46.4385C111.053 46.1865 111.592 45.9814 112.195 45.8232C112.805 45.665 113.438 45.5859 114.094 45.5859ZM115.781 50.8506L114.524 50.8945C113.493 50.9297 112.77 51.1055 112.354 51.4219C111.938 51.7383 111.729 52.1719 111.729 52.7227C111.729 53.2031 111.873 53.5547 112.16 53.7773C112.447 53.9941 112.825 54.1025 113.294 54.1025C114.009 54.1025 114.601 53.9004 115.069 53.4961C115.544 53.0859 115.781 52.4854 115.781 51.6943V50.8506ZM127.662 41.8242V45.1201C127.662 45.501 127.65 45.876 127.627 46.2451C127.609 46.6084 127.592 46.8926 127.574 47.0977H127.662C127.926 46.6758 128.292 46.3213 128.761 46.0342C129.235 45.7412 129.842 45.5947 130.58 45.5947C131.734 45.5947 132.663 46.0195 133.366 46.8691C134.069 47.7129 134.421 48.9639 134.421 50.6221C134.421 51.7236 134.26 52.6494 133.937 53.3994C133.615 54.1494 133.161 54.7178 132.575 55.1045C131.995 55.4854 131.312 55.6758 130.527 55.6758C129.789 55.6758 129.191 55.541 128.734 55.2715C128.283 54.9961 127.929 54.6768 127.671 54.3135H127.521L127.143 55.5H125.596V41.8242H127.662ZM130.035 47.2734C129.449 47.2734 128.983 47.3906 128.637 47.625C128.298 47.8594 128.052 48.2109 127.899 48.6797C127.747 49.1426 127.668 49.7314 127.662 50.4463V50.6309C127.662 51.7148 127.832 52.5439 128.172 53.1182C128.517 53.6924 129.144 53.9795 130.053 53.9795C130.773 53.9795 131.327 53.6895 131.714 53.1094C132.1 52.5234 132.294 51.6855 132.294 50.5957C132.294 49.4941 132.1 48.665 131.714 48.1084C131.333 47.5518 130.773 47.2734 130.035 47.2734ZM140.726 45.5859C141.956 45.5859 142.885 45.8584 143.512 46.4033C144.145 46.9482 144.461 47.7979 144.461 48.9521V55.5H142.993L142.598 54.1201H142.528C142.252 54.4717 141.968 54.7617 141.675 54.9902C141.382 55.2188 141.042 55.3887 140.655 55.5C140.275 55.6172 139.809 55.6758 139.258 55.6758C138.678 55.6758 138.159 55.5703 137.702 55.3594C137.245 55.1426 136.885 54.8145 136.621 54.375C136.358 53.9355 136.226 53.3789 136.226 52.7051C136.226 51.7031 136.598 50.9502 137.342 50.4463C138.092 49.9424 139.223 49.6641 140.735 49.6113L142.422 49.5498V49.04C142.422 48.3662 142.264 47.8857 141.947 47.5986C141.637 47.3115 141.197 47.168 140.629 47.168C140.143 47.168 139.671 47.2383 139.214 47.3789C138.757 47.5195 138.312 47.6924 137.878 47.8975L137.21 46.4385C137.685 46.1865 138.224 45.9814 138.827 45.8232C139.437 45.665 140.07 45.5859 140.726 45.5859ZM142.413 50.8506L141.156 50.8945C140.125 50.9297 139.402 51.1055 138.986 51.4219C138.57 51.7383 138.362 52.1719 138.362 52.7227C138.362 53.2031 138.505 53.5547 138.792 53.7773C139.079 53.9941 139.457 54.1025 139.926 54.1025C140.641 54.1025 141.233 53.9004 141.701 53.4961C142.176 53.0859 142.413 52.4854 142.413 51.6943V50.8506ZM140.647 58.9277C140.319 58.9277 140.04 58.8398 139.812 58.6641C139.589 58.4941 139.478 58.2041 139.478 57.7939C139.478 57.3779 139.589 57.085 139.812 56.915C140.04 56.7451 140.319 56.6602 140.647 56.6602C140.969 56.6602 141.244 56.7451 141.473 56.915C141.701 57.085 141.816 57.3779 141.816 57.7939C141.816 58.2041 141.701 58.4941 141.473 58.6641C141.244 58.8398 140.969 58.9277 140.647 58.9277ZM152.524 45.5859C153.62 45.5859 154.472 45.8701 155.082 46.4385C155.697 47.001 156.004 47.9062 156.004 49.1543V55.5H153.939V49.541C153.939 48.7852 153.784 48.2197 153.473 47.8447C153.163 47.4639 152.682 47.2734 152.032 47.2734C151.088 47.2734 150.432 47.5635 150.063 48.1436C149.7 48.7236 149.518 49.5645 149.518 50.666V55.5H147.453V45.7705H149.061L149.351 47.0889H149.465C149.676 46.749 149.937 46.4707 150.248 46.2539C150.564 46.0312 150.916 45.8643 151.302 45.7529C151.695 45.6416 152.102 45.5859 152.524 45.5859ZM160.78 51.5801H159.225L158.803 42.6504H161.202L160.78 51.5801ZM158.697 54.4102C158.697 53.9297 158.82 53.5928 159.066 53.3994C159.318 53.2002 159.626 53.1006 159.989 53.1006C160.347 53.1006 160.651 53.2002 160.903 53.3994C161.155 53.5928 161.281 53.9297 161.281 54.4102C161.281 54.8789 161.155 55.2188 160.903 55.4297C160.651 55.6348 160.347 55.7373 159.989 55.7373C159.626 55.7373 159.318 55.6348 159.066 55.4297C158.82 55.2188 158.697 54.8789 158.697 54.4102Z" fill="#031A6E"/>
<rect x="16" y="68.5" width="150" height="44" rx="8" fill="#031A6E"/>
<path d="M69.076 94.5H67.2088V89.3438H61.9431V94.5H60.0681V83.0781H61.9431V87.75H67.2088V83.0781H69.076V94.5ZM79.7181 90.1562C79.7181 90.875 79.6244 91.513 79.4369 92.0703C79.2494 92.6276 78.976 93.099 78.6166 93.4844C78.2572 93.8646 77.8249 94.1562 77.3197 94.3594C76.8145 94.5573 76.2442 94.6562 75.6088 94.6562C75.015 94.6562 74.4707 94.5573 73.976 94.3594C73.4812 94.1562 73.0515 93.8646 72.6869 93.4844C72.3275 93.099 72.0489 92.6276 71.851 92.0703C71.653 91.513 71.5541 90.875 71.5541 90.1562C71.5541 89.2031 71.7181 88.3958 72.0463 87.7344C72.3796 87.0677 72.8536 86.5599 73.4681 86.2109C74.0827 85.862 74.8145 85.6875 75.6635 85.6875C76.4603 85.6875 77.1635 85.862 77.7728 86.2109C78.3822 86.5599 78.8588 87.0677 79.2025 87.7344C79.5463 88.401 79.7181 89.2083 79.7181 90.1562ZM73.4447 90.1562C73.4447 90.7865 73.5202 91.3255 73.6713 91.7734C73.8275 92.2214 74.0671 92.5651 74.39 92.8047C74.7129 93.0391 75.1296 93.1562 75.64 93.1562C76.1504 93.1562 76.5671 93.0391 76.89 92.8047C77.2129 92.5651 77.4499 92.2214 77.601 91.7734C77.752 91.3255 77.8275 90.7865 77.8275 90.1562C77.8275 89.526 77.752 88.9922 77.601 88.5547C77.4499 88.112 77.2129 87.776 76.89 87.5469C76.5671 87.3125 76.1478 87.1953 75.6322 87.1953C74.8718 87.1953 74.3171 87.4505 73.9681 87.9609C73.6192 88.4714 73.4447 89.2031 73.4447 90.1562ZM75.6166 97.5469C75.3249 97.5469 75.0775 97.4688 74.8744 97.3125C74.6765 97.1615 74.5775 96.9036 74.5775 96.5391C74.5775 96.1693 74.6765 95.9089 74.8744 95.7578C75.0775 95.6068 75.3249 95.5312 75.6166 95.5312C75.903 95.5312 76.1478 95.6068 76.351 95.7578C76.5541 95.9089 76.6556 96.1693 76.6556 96.5391C76.6556 96.9036 76.5541 97.1615 76.351 97.3125C76.1478 97.4688 75.903 97.5469 75.6166 97.5469ZM85.4619 94.6562C84.6442 94.6562 83.9358 94.4974 83.3369 94.1797C82.7379 93.862 82.277 93.375 81.9541 92.7188C81.6312 92.0625 81.4697 91.2292 81.4697 90.2188C81.4697 89.1667 81.6468 88.3073 82.0009 87.6406C82.3551 86.974 82.8447 86.4818 83.4697 86.1641C84.0999 85.8464 84.8213 85.6875 85.6338 85.6875C86.1494 85.6875 86.6155 85.7396 87.0322 85.8438C87.4541 85.9427 87.8108 86.0651 88.1025 86.2109L87.5556 87.6797C87.2379 87.5495 86.9124 87.4401 86.5791 87.3516C86.2457 87.263 85.9254 87.2188 85.6181 87.2188C85.1129 87.2188 84.6911 87.3307 84.3525 87.5547C84.0192 87.7786 83.7692 88.112 83.6025 88.5547C83.4411 88.9974 83.3603 89.5469 83.3603 90.2031C83.3603 90.8385 83.4437 91.375 83.6103 91.8125C83.777 92.2448 84.0244 92.5729 84.3525 92.7969C84.6806 93.0156 85.0843 93.125 85.5634 93.125C86.0374 93.125 86.4619 93.0677 86.8369 92.9531C87.2119 92.8385 87.5661 92.6901 87.8994 92.5078V94.1016C87.5713 94.2891 87.2197 94.4271 86.8447 94.5156C86.4697 94.6094 86.0088 94.6562 85.4619 94.6562ZM97.6056 93.1719C97.8452 93.1719 98.0822 93.151 98.3166 93.1094C98.5509 93.0625 98.7645 93.0078 98.9572 92.9453V94.3359C98.7541 94.4245 98.4911 94.5 98.1681 94.5625C97.8452 94.625 97.5093 94.6562 97.1603 94.6562C96.6707 94.6562 96.2306 94.5755 95.84 94.4141C95.4494 94.2474 95.1395 93.9635 94.9103 93.5625C94.6812 93.1615 94.5666 92.6068 94.5666 91.8984V87.25H93.3869V86.4297L94.6525 85.7812L95.2541 83.9297H96.4103V85.8516H98.8869V87.25H96.4103V91.875C96.4103 92.3125 96.5197 92.638 96.7384 92.8516C96.9572 93.0651 97.2463 93.1719 97.6056 93.1719ZM102.701 85.8516V94.5H100.865V85.8516H102.701ZM101.795 82.5391C102.076 82.5391 102.318 82.6146 102.521 82.7656C102.73 82.9167 102.834 83.1771 102.834 83.5469C102.834 83.9115 102.73 84.1719 102.521 84.3281C102.318 84.4792 102.076 84.5547 101.795 84.5547C101.503 84.5547 101.256 84.4792 101.053 84.3281C100.855 84.1719 100.756 83.9115 100.756 83.5469C100.756 83.1771 100.855 82.9167 101.053 82.7656C101.256 82.6146 101.503 82.5391 101.795 82.5391ZM108.929 85.6875C109.7 85.6875 110.361 85.8464 110.913 86.1641C111.466 86.4818 111.89 86.9323 112.187 87.5156C112.484 88.099 112.632 88.7969 112.632 89.6094V90.5938H106.859C106.88 91.4323 107.104 92.0781 107.531 92.5312C107.963 92.9844 108.567 93.2109 109.343 93.2109C109.895 93.2109 110.39 93.1589 110.828 93.0547C111.27 92.9453 111.726 92.7865 112.195 92.5781V94.0703C111.762 94.2734 111.322 94.4219 110.874 94.5156C110.426 94.6094 109.89 94.6562 109.265 94.6562C108.416 94.6562 107.669 94.4922 107.023 94.1641C106.382 93.8307 105.88 93.3359 105.515 92.6797C105.156 92.0234 104.976 91.2083 104.976 90.2344C104.976 89.2656 105.14 88.4427 105.468 87.7656C105.796 87.0885 106.257 86.5729 106.851 86.2188C107.445 85.8646 108.137 85.6875 108.929 85.6875ZM108.929 87.0703C108.351 87.0703 107.882 87.2578 107.523 87.6328C107.169 88.0078 106.96 88.5573 106.898 89.2812H110.835C110.83 88.849 110.757 88.4661 110.617 88.1328C110.481 87.7995 110.273 87.5391 109.992 87.3516C109.716 87.1641 109.361 87.0703 108.929 87.0703ZM111.546 84.8047H110.546C110.281 84.6224 110.007 84.4219 109.726 84.2031C109.445 83.9792 109.169 83.7422 108.898 83.4922C108.622 83.7422 108.343 83.9792 108.062 84.2031C107.786 84.4219 107.515 84.6224 107.249 84.8047H106.249V84.6016C106.426 84.4036 106.614 84.1875 106.812 83.9531C107.015 83.7135 107.213 83.4688 107.406 83.2188C107.604 82.9688 107.783 82.7266 107.945 82.4922H109.851C110.012 82.7266 110.189 82.9688 110.382 83.2188C110.58 83.4688 110.778 83.7135 110.976 83.9531C111.179 84.1875 111.369 84.4036 111.546 84.6016V84.8047ZM110.89 83.0859C111.104 82.8411 111.288 82.6016 111.445 82.3672C111.606 82.1328 111.77 81.8464 111.937 81.5078H113.531V81.6719C113.307 81.974 113.044 82.263 112.742 82.5391C112.445 82.8099 112.15 83.0573 111.859 83.2812H110.89V83.0859ZM119.29 85.6875C120.316 85.6875 121.139 86.0625 121.759 86.8125C122.384 87.5625 122.696 88.6771 122.696 90.1562C122.696 91.1354 122.55 91.9609 122.259 92.6328C121.972 93.2995 121.569 93.8047 121.048 94.1484C120.532 94.487 119.931 94.6562 119.243 94.6562C118.806 94.6562 118.425 94.599 118.103 94.4844C117.78 94.3698 117.504 94.2214 117.274 94.0391C117.045 93.8516 116.853 93.6484 116.696 93.4297H116.587C116.613 93.638 116.636 93.8698 116.657 94.125C116.683 94.375 116.696 94.6042 116.696 94.8125V98.3359H114.853V85.8516H116.353L116.61 87.0469H116.696C116.858 86.8021 117.053 86.5755 117.282 86.3672C117.517 86.1589 117.798 85.9948 118.126 85.875C118.459 85.75 118.847 85.6875 119.29 85.6875ZM118.798 87.1875C118.293 87.1875 117.886 87.2891 117.579 87.4922C117.277 87.6901 117.056 87.9896 116.915 88.3906C116.78 88.7917 116.707 89.2943 116.696 89.8984V90.1562C116.696 90.7969 116.761 91.3411 116.892 91.7891C117.027 92.2318 117.248 92.5703 117.556 92.8047C117.868 93.0339 118.29 93.1484 118.821 93.1484C119.269 93.1484 119.639 93.026 119.931 92.7812C120.228 92.5365 120.449 92.1875 120.595 91.7344C120.741 91.2812 120.813 90.7474 120.813 90.1328C120.813 89.2005 120.647 88.4766 120.313 87.9609C119.985 87.4453 119.48 87.1875 118.798 87.1875Z" fill="white"/>
<g clip-path="url(#clip0_1348_6056)">
<path d="M185.68 117.242C185.68 117.242 188.4 110.386 194.811 109.451C201.222 108.516 204.738 118.937 211.46 111.029C218.182 103.12 212.898 93.4971 224.438 91.666C235.977 89.835 242.525 102.477 253.734 91.666C264.944 80.855 263.934 84.6145 274.657 85.8223C291.734 87.7702 295.367 77.2708 304.984 64.6092C314.6 51.9477 334.28 52.9216 350.249 60.2069C366.219 67.4921 375.019 45.5 375.019 45.5V152.5H165.981L185.68 117.242Z" fill="url(#paint1_linear_1348_6056)"/>
<g clip-path="url(#clip1_1348_6056)">
<path d="M219.656 89.5565L219.098 98.0508L224.702 101.567L226.209 93.44L219.656 89.5565Z" fill="url(#paint2_linear_1348_6056)"/>
<path d="M219.766 89.5C219.766 89.5 231.631 125.372 250.391 129.5" stroke="#347693" stroke-width="0.5" stroke-miterlimit="10"/>
<path d="M219.091 98.0507L226.209 93.44" stroke="#347693" stroke-width="0.5" stroke-miterlimit="10"/>
<path d="M246.812 102.118L246.414 108.105L250.371 110.584L251.432 104.857L246.812 102.118Z" fill="#D9392E"/>
<path d="M246.812 102.118C246.812 102.118 255.012 126.598 267.979 129.415" stroke="#347693" stroke-width="0.25" stroke-miterlimit="10"/>
<path d="M246.414 108.105L251.432 104.857" stroke="#347693" stroke-width="0.25" stroke-miterlimit="10"/>
</g>
</g>
<g clip-path="url(#clip2_1348_6056)">
<path d="M331.692 74.9437C331.692 74.9437 306.339 80.0381 290.042 103.728C290.042 103.728 286.8 108.502 282.178 104.374C282.178 104.374 253.707 93.2483 235.023 96.329L236.338 90.2237L265.352 44.7195C265.352 44.7195 289.258 39.9599 304.004 47.9182C304.004 47.9182 331.315 25.4309 347.192 21.1756L353.215 18.3085L331.692 74.9437Z" fill="url(#paint3_linear_1348_6056)"/>
<path d="M232.941 91.8204L234.312 84.8246C234.312 84.8246 261.726 80.3453 283.145 92.9904C283.145 92.9904 299.08 68.6224 321.554 63.5299L342.514 13.7509L348.722 20.4007L328.686 71.3859C328.686 71.3859 307.839 76.6684 288.904 97.6343C288.904 97.6343 287.278 103.023 282.339 100.1C282.335 100.089 256.041 88.5308 232.941 91.8204Z" fill="#DFD9E8"/>
<path d="M234.311 84.8245L266.65 40.6324C266.65 40.6324 295.136 42.6734 304.016 47.8889C304.016 47.8889 321.14 27.34 342.506 13.7297L321.545 63.5087C321.545 63.5087 304.938 67.6305 283.137 92.9692C283.145 92.9903 251.559 82.1355 234.311 84.8245Z" fill="white"/>
<path d="M241.516 74.8227L239.017 78.2311C239.017 78.2311 268.733 82.9451 283.145 92.9903L284.758 77.009" fill="#DFD9E8"/>
<path d="M282.802 92.1281C282.802 92.1281 258.782 72.6187 235.105 75.1983L268.94 30.7548C268.94 30.7548 286.507 32.286 304.035 47.9058L282.802 92.1281Z" fill="white"/>
<path d="M335.127 18.9135L338.558 16.3558L320.626 60.5807C320.626 60.5807 301.865 71.288 293.346 81.2751" fill="#DFD9E8"/>
<path d="M283.145 92.9903L304.014 47.9141C304.014 47.9141 323.324 21.6907 338.838 13.2749L319.323 60.562C319.323 60.562 301.805 69.3243 283.145 92.9903Z" fill="white"/>
<path d="M283.145 92.9903L305.836 45.5242L304.025 47.9099L282.802 92.1281L283.145 92.9903Z" fill="#DFD9E8"/>
<path d="M304.909 49.1075C306.79 47.4851 308.512 45.688 310.052 43.7408C310.893 42.7674 311.7 41.8138 312.614 40.9154C313.527 40.0171 314.446 39.1472 315.387 38.2868C317.277 36.5568 319.016 34.6912 320.763 32.8289C322.51 30.9665 324.331 29.154 326.249 27.4494C328.425 25.5276 330.71 23.7325 333.094 22.0732C333.32 21.9177 333.034 21.5922 332.808 21.7477C328.571 24.705 324.649 28.0865 321.103 31.839C319.347 33.6929 317.645 35.6228 315.771 37.3466C314.848 38.206 313.897 39.04 312.995 39.9216C312.093 40.8032 311.254 41.7208 310.468 42.6483C308.627 44.7846 306.861 47.0192 304.654 48.8001C304.436 48.9766 304.722 49.3021 304.94 49.1256L304.909 49.1075Z" fill="#DFD9E8"/>
<path d="M303.354 53.1006C305.03 51.667 306.618 50.134 308.209 48.6063C309.799 47.0786 311.381 45.6392 313.005 44.1958C316.276 41.2934 319.41 38.244 322.695 35.3606C324.552 33.7344 326.436 32.1404 328.348 30.5783C328.566 30.4018 328.274 30.0783 328.061 30.2528C324.665 33.028 321.36 35.9053 318.145 38.8848C316.54 40.3756 314.947 41.8802 313.312 43.3404C311.677 44.8005 310.07 46.2251 308.506 47.7245C306.728 49.4289 304.962 51.165 303.063 52.7772C303.019 52.8159 302.993 52.87 302.99 52.9277C302.987 52.9853 303.007 53.0418 303.045 53.0847C303.084 53.1276 303.138 53.1534 303.196 53.1564C303.254 53.1594 303.311 53.1393 303.354 53.1006Z" fill="#DFD9E8"/>
<path d="M302.083 57.5844C303.729 56.2779 305.29 54.8468 306.824 53.4386C308.357 52.0305 309.955 50.6637 311.566 49.3286C314.796 46.6489 317.855 43.8295 321.084 41.1624C322.912 39.6693 324.775 38.2132 326.672 36.7941C326.895 36.6281 326.611 36.3079 326.388 36.4739C323.029 38.9793 319.78 41.6116 316.643 44.3707C315.072 45.7449 313.514 47.1382 311.918 48.4797C310.322 49.8213 308.688 51.1594 307.153 52.5623C305.404 54.1522 303.681 55.7802 301.818 57.2506C301.598 57.4219 301.884 57.7474 302.104 57.5761L302.083 57.5844Z" fill="#DFD9E8"/>
<path d="M299.268 64.4649C300.917 63.1636 302.478 61.7325 304.011 60.3244C305.544 58.9162 307.142 57.5495 308.753 56.2143C311.983 53.5346 315.042 50.7152 318.271 48.0481C320.096 46.548 321.959 45.0919 323.86 43.6799C324.082 43.5139 323.796 43.1883 323.573 43.3543C320.219 45.8822 316.97 48.5145 313.828 51.2511C312.259 52.6307 310.707 54.0218 309.111 55.3634C307.515 56.7049 305.881 58.0431 304.346 59.4459C302.591 61.0379 300.866 62.6606 299.008 64.129C298.79 64.3055 299.076 64.631 299.295 64.4545L299.268 64.4649Z" fill="#DFD9E8"/>
<path d="M295.032 73.2263C296.68 71.9251 298.241 70.4939 299.767 69.0826C301.293 67.6713 302.901 66.313 304.515 64.9705C307.747 62.2961 310.798 59.4734 314.033 56.8043C315.864 55.3098 317.726 53.8562 319.618 52.4434C319.843 52.27 319.554 51.9519 319.332 52.1178C315.972 54.6233 312.724 57.2555 309.586 60.0146C308.015 61.3889 306.463 62.7801 304.862 64.1237C303.26 65.4673 301.632 66.8034 300.102 68.2042C298.347 69.7962 296.625 71.4241 294.767 72.8925C294.546 73.0638 294.833 73.3893 295.053 73.218L295.032 73.2263Z" fill="#DFD9E8"/>
<path d="M291.54 80.0315C293.188 78.7302 294.749 77.2991 296.275 75.8878C297.801 74.4764 299.408 73.1182 301.022 71.7757C304.254 69.1013 307.306 66.2786 310.54 63.6094C312.372 62.115 314.234 60.6613 316.126 59.2485C316.353 59.0805 316.062 58.757 315.839 58.923C312.48 61.4284 309.232 64.0607 306.094 66.8198C304.523 68.1941 302.973 69.5905 301.37 70.9289C299.766 72.2672 298.14 73.6085 296.604 75.0114C294.857 76.6066 293.133 78.2293 291.275 79.6977C291.049 79.871 291.341 80.1944 291.561 80.0232L291.54 80.0315Z" fill="#DFD9E8"/>
<path d="M299.872 48.4653C297.848 47.8156 295.903 46.9463 294.072 45.8732C293.116 45.3662 292.159 44.8592 291.171 44.4256C290.182 43.9921 289.147 43.6435 288.126 43.2834C286.075 42.5547 284.101 41.6497 282.125 40.7395C280.151 39.8303 278.129 39.027 276.068 38.3331C273.722 37.5571 271.325 36.9419 268.893 36.4916C268.657 36.4504 268.795 36.0378 269.026 36.0812C273.353 36.8841 277.565 38.2071 281.569 40.0213C283.555 40.9094 285.508 41.8711 287.555 42.6197C288.562 42.9913 289.578 43.323 290.575 43.7166C291.556 44.1152 292.514 44.5635 293.448 45.0599C295.581 46.1697 297.681 47.3961 300.014 48.0328C300.246 48.094 300.108 48.5066 299.876 48.4454L299.872 48.4653Z" fill="#DFD9E8"/>
<path d="M298.24 51.9963C296.22 51.3614 294.279 50.5025 292.453 49.4358C291.496 48.9288 290.537 48.4291 289.548 47.9956C288.56 47.562 287.53 47.2114 286.507 46.846C284.452 46.1246 282.482 45.2124 280.511 44.3306C278.537 43.4122 276.512 42.6036 274.447 41.9084C272.104 41.1301 269.708 40.5141 267.278 40.0648C267.042 40.0235 267.18 39.611 267.411 39.6543C271.737 40.4576 275.948 41.7788 279.952 43.5891C281.934 44.4847 283.893 45.4442 285.934 46.1949C286.94 46.5613 287.963 46.8961 288.96 47.2898C289.958 47.6834 290.89 48.145 291.831 48.6278C293.966 49.7429 296.066 50.9693 298.397 51.6007C298.624 51.664 298.491 52.0745 298.259 52.0132L298.24 51.9963Z" fill="#DFD9E8"/>
<path d="M295.955 56.0748C293.936 55.4239 291.996 54.5525 290.171 53.4764C289.215 52.9694 288.253 52.4645 287.266 52.0362C286.28 51.608 285.241 51.2488 284.22 50.8887C282.168 50.16 280.2 49.253 278.219 48.3448C276.241 47.4336 274.213 46.6324 272.145 45.9447C269.8 45.1655 267.403 44.5502 264.971 44.1032C264.74 44.0598 264.878 43.6473 265.109 43.6906C269.435 44.4974 273.647 45.8203 277.652 47.6307C279.634 48.5263 281.593 49.4858 283.632 50.2313C284.64 50.6029 285.661 50.9325 286.658 51.3261C287.656 51.7197 288.588 52.1814 289.526 52.6714C291.664 53.7792 293.764 55.0056 296.092 55.6443C296.324 55.7056 296.186 56.1181 295.959 56.0548L295.955 56.0748Z" fill="#DFD9E8"/>
<path d="M293.958 60.2653C291.937 59.6249 289.993 58.7678 288.16 57.7089C287.203 57.2019 286.249 56.7002 285.26 56.2666C284.272 55.8331 283.235 55.4792 282.214 55.1191C280.164 54.3957 278.189 53.4855 276.213 52.5753C274.237 51.6605 272.213 50.8519 270.149 50.1531C267.807 49.378 265.414 48.7631 262.987 48.3127C262.751 48.2714 262.889 47.8589 263.125 47.9001C267.452 48.7066 271.663 50.0295 275.668 51.8402C277.656 52.7337 279.609 53.6953 281.654 54.4387C282.661 54.8103 283.677 55.142 284.675 55.5356C285.672 55.9292 286.605 56.3909 287.548 56.8788C289.681 57.9887 291.781 59.2151 294.114 59.8518C294.346 59.913 294.208 60.3256 293.976 60.2643L293.958 60.2653Z" fill="#DFD9E8"/>
<path d="M290.78 64.6259C288.756 63.9922 286.809 63.1355 284.977 62.0716C284.021 61.5646 283.061 61.065 282.073 60.6314C281.084 60.1979 280.076 59.8568 279.068 59.4673C277.014 58.7459 275.043 57.8336 273.072 56.9519C271.098 56.0335 269.074 55.2249 267.009 54.5297C264.666 53.7531 262.271 53.1389 259.841 52.6914C259.603 52.6448 259.743 52.2375 259.974 52.2809C264.301 53.082 268.512 54.4033 272.515 56.2157C274.498 57.1112 276.456 58.0708 278.498 58.8215C279.503 59.1878 280.524 59.5174 281.524 59.9163C282.499 60.3049 283.454 60.7426 284.384 61.228C286.517 62.3378 288.617 63.5642 290.95 64.2009C291.177 64.2642 291.044 64.6747 290.812 64.6135L290.78 64.6259Z" fill="#DFD9E8"/>
<path d="M287.572 69.4239C285.552 68.789 283.611 67.9301 281.785 66.8634C280.829 66.3564 279.869 65.8567 278.881 65.4232C277.892 64.9896 276.855 64.6357 275.834 64.2756C273.784 63.5522 271.814 62.6399 269.843 61.7581C267.869 60.8362 265.844 60.0257 263.778 59.3307C261.432 58.557 259.035 57.9435 256.605 57.4944C256.374 57.4511 256.512 57.0385 256.743 57.0819C261.069 57.8848 265.28 59.2059 269.284 61.0167C271.266 61.9122 273.225 62.8718 275.267 63.6225C276.272 63.9888 277.295 64.3237 278.293 64.7174C279.27 65.1149 280.227 65.5621 281.158 66.0574C283.297 67.1652 285.398 68.3969 287.724 69.0303C287.956 69.0916 287.818 69.5041 287.591 69.4408L287.572 69.4239Z" fill="#DFD9E8"/>
<path d="M286.502 75.0751C284.309 74.3836 282.194 73.4701 280.191 72.3486C279.15 71.8138 278.104 71.2811 277.026 70.8218C275.948 70.3625 274.825 69.9756 273.712 69.5845C271.482 68.8043 269.356 67.8249 267.152 66.8766C264.997 65.9023 262.793 65.0363 260.55 64.2821C258.002 63.4399 255.402 62.7584 252.766 62.2416C252.51 62.196 252.648 61.7834 252.899 61.8311C257.585 62.7547 262.152 64.1942 266.515 66.1232C268.686 67.0965 270.81 68.0885 273.035 68.9013C274.132 69.2986 275.24 69.6613 276.329 70.086C277.418 70.5106 278.432 70.9948 279.459 71.5106C281.789 72.6836 284.083 73.9552 286.618 74.6708C286.867 74.7437 286.729 75.1563 286.48 75.0834L286.502 75.0751Z" fill="#DFD9E8"/>
<path d="M282.48 81.4009C280.212 80.6825 278.021 79.7421 275.941 78.5933C274.859 78.0446 273.773 77.5032 272.658 77.0279C271.543 76.5527 270.374 76.1591 269.227 75.7573C266.912 74.9493 264.684 73.9557 262.442 72.943C260.2 71.9303 257.939 71.0585 255.6 70.2662C252.962 69.3968 250.273 68.6896 247.547 68.1485C247.289 68.0976 247.427 67.685 247.685 67.7359C252.532 68.7107 257.257 70.2032 261.779 72.1873C263.998 73.1725 266.236 74.2051 268.527 75.0161C269.661 75.4295 270.809 75.8008 271.934 76.2414C273.06 76.682 274.131 77.1686 275.182 77.6993C277.603 78.9033 279.982 80.2207 282.601 80.9462C282.857 81.0223 282.724 81.4328 282.465 81.364L282.48 81.4009Z" fill="#DFD9E8"/>
<path d="M324.695 68.2926C304.766 74.2975 287.707 94.0432 287.557 94.2359L287.126 93.8696C287.293 93.6707 304.444 73.8035 324.531 67.749L324.695 68.2926Z" fill="#FFBDD8"/>
<path d="M304.095 47.5117C304.095 47.5117 297.502 61.4976 290.136 76.8191C282.77 92.1406 284.644 98.0858 286.505 109.451L288.457 105.849L290.844 106.465C290.844 106.465 287.854 95.4502 289.846 89.1531C291.838 82.856 309.226 41.2563 309.226 41.2563L304.095 47.5117Z" fill="url(#paint4_linear_1348_6056)"/>
</g>
<defs>
<linearGradient id="paint0_linear_1348_6056" x1="180.5" y1="0.500004" x2="180.5" y2="128.5" gradientUnits="userSpaceOnUse">
<stop stop-color="#E3F3FF"/>
<stop offset="1" stop-color="#FFF2CE"/>
</linearGradient>
<linearGradient id="paint1_linear_1348_6056" x1="314" y1="60.5" x2="313.5" y2="109" gradientUnits="userSpaceOnUse">
<stop stop-color="white"/>
<stop offset="1" stop-color="white" stop-opacity="0"/>
</linearGradient>
<linearGradient id="paint2_linear_1348_6056" x1="219.091" y1="95.5583" x2="226.202" y2="95.5583" gradientUnits="userSpaceOnUse">
<stop stop-color="#FDC600"/>
<stop offset="1" stop-color="#DDA800"/>
</linearGradient>
<linearGradient id="paint3_linear_1348_6056" x1="233.337" y1="92.0969" x2="362.358" y2="41.6149" gradientUnits="userSpaceOnUse">
<stop stop-color="#012D64"/>
<stop offset="1" stop-color="#0D3F99"/>
</linearGradient>
<linearGradient id="paint4_linear_1348_6056" x1="276.46" y1="83.7317" x2="319.294" y2="66.9721" gradientUnits="userSpaceOnUse">
<stop stop-color="#FDC600"/>
<stop offset="1" stop-color="#DDA800"/>
</linearGradient>
<clipPath id="clip0_1348_6056">
<rect width="209" height="84" fill="white" transform="matrix(-1 0 0 1 375 45.5)"/>
</clipPath>
<clipPath id="clip1_1348_6056">
<rect width="49" height="40" fill="white" transform="translate(219 89.5)"/>
</clipPath>
<clipPath id="clip2_1348_6056">
<rect width="138.808" height="79.6858" fill="white" transform="translate(217 51.0774) rotate(-21.3689)"/>
</clipPath>
</defs>
</svg>
