<svg width="498" height="259" viewBox="0 0 498 259" fill="none" xmlns="http://www.w3.org/2000/svg">
<path d="M496.5 143.195C496.5 173.731 469.4 201.86 424.445 222.441C379.622 242.963 317.594 255.695 249 255.695C180.406 255.695 118.378 242.963 73.5548 222.441C28.6002 201.86 1.5 173.731 1.5 143.195C1.5 112.659 28.6002 84.5301 73.5548 63.9485C118.378 43.4271 180.406 30.6948 249 30.6948C317.594 30.6948 379.622 43.4271 424.445 63.9485C469.4 84.5301 496.5 112.659 496.5 143.195Z" fill="#FFFBF0" stroke="#FFD591" stroke-width="3"/>
<g filter="url(#filter0_d_2398_13524)">
<ellipse cx="249" cy="143.195" rx="234" ry="107" fill="url(#paint0_linear_2398_13524)"/>
<path d="M482 143.195C482 172.112 456.323 198.615 414.047 217.946C371.859 237.237 313.507 249.195 249 249.195C184.493 249.195 126.141 237.237 83.9529 217.946C41.677 198.615 16 172.112 16 143.195C16 114.278 41.677 87.7751 83.9529 68.4438C126.141 49.1529 184.493 37.1948 249 37.1948C313.507 37.1948 371.859 49.1529 414.047 68.4438C456.323 87.7751 482 114.278 482 143.195Z" stroke="#FFD591" stroke-width="2"/>
</g>
<mask id="mask0_2398_13524" style="mask-type:alpha" maskUnits="userSpaceOnUse" x="15" y="36" width="468" height="215">
<path d="M482 143.195C482 172.112 456.323 198.615 414.047 217.946C371.859 237.237 313.507 249.195 249 249.195C184.493 249.195 126.141 237.237 83.9529 217.946C41.677 198.615 16 172.112 16 143.195C16 114.278 41.677 87.7751 83.9529 68.4438C126.141 49.1529 184.493 37.1948 249 37.1948C313.507 37.1948 371.859 49.1529 414.047 68.4438C456.323 87.7751 482 114.278 482 143.195Z" fill="url(#paint1_linear_2398_13524)" stroke="#FFD591" stroke-width="2"/>
</mask>
<g mask="url(#mask0_2398_13524)">
<g style="mix-blend-mode:overlay" opacity="0.15">
<path d="M424 -130.089L294.7 222.484L424 16.7343V100.012L309.446 264.767L424 180.842V248.048L317.203 314.468L424 309.118V340.195H52V309.118L158.799 314.468L52 248.048V180.842L166.554 264.767L52 100.012V16.7343L181.3 222.484L52 -130.089V-259.558L201.596 191.768L97.3319 -433.805H137.692L225.456 175.619L219.229 -433.805H256.771L250.544 175.619L338.866 -433.805H379.226L274.404 191.768L424 -259.558V-130.089Z" fill="url(#paint2_linear_2398_13524)"/>
</g>
</g>
<g clip-path="url(#clip0_2398_13524)">
<path d="M366.358 56.8395L376.615 87.2095C346.507 72.3163 328.881 68.049 295.897 62.4874L303.684 16.4794C341.341 22.8181 363.362 28.5078 397.708 45.5079L366.669 56.2068L366.199 56.3687L366.358 56.8395Z" fill="#0B6ED9" stroke="#CCECFB"/>
<path d="M111.657 56.8396L111.816 56.3687L111.346 56.2068L80.2923 45.5077C114.638 28.5031 136.674 22.8181 174.321 16.4794L182.118 62.4874C149.124 68.0491 131.512 72.3163 101.39 87.2096L111.657 56.8396Z" fill="#0B6ED9" stroke="#DFF6FF"/>
<path d="M297.043 52.74L295.32 62.8972L340.689 63.0393C341.295 58.1003 327.301 58.9382 317.985 56.9489C312.507 55.7877 297.043 52.74 297.043 52.74Z" fill="#2655A6"/>
<path d="M180.972 52.74L182.694 62.8972C182.694 62.8972 137.173 64.0438 137.233 63.0393C137.499 57.5761 150.709 58.9382 160.025 56.9489C165.493 55.7877 180.972 52.74 180.972 52.74Z" fill="#2655A6"/>
<path d="M128.299 32.5321C126.78 27.6288 125.261 22.7254 123.741 17.8228C198.827 -5.01614 279.085 -5.01614 354.18 17.8228C353.394 20.3591 352.607 22.8956 351.821 25.4322C347.997 37.764 344.173 50.0988 340.358 62.421C274.268 42.3444 203.643 42.3444 137.567 62.4211C134.472 52.4636 131.385 42.498 128.299 32.5321Z" fill="#1990FF" stroke="#CCECFB"/>
<path d="M239.378 9.89442C238.629 7.59114 235.371 7.59115 234.622 9.89442L232.932 15.0961C232.731 15.7141 232.156 16.1325 231.506 16.1325H226.036C223.615 16.1325 222.608 19.2316 224.567 20.6551L228.992 23.8699C229.517 24.2518 229.737 24.9289 229.537 25.5469L227.846 30.7485C227.098 33.0518 229.734 34.9671 231.694 33.5436L236.118 30.3288C236.644 29.9469 237.356 29.9469 237.882 30.3288L242.306 33.5436C244.266 34.9671 246.902 33.0518 246.154 30.7485L244.463 25.5469C244.263 24.9289 244.483 24.2518 245.008 23.8699L249.433 20.6551C251.392 19.2316 250.385 16.1325 247.964 16.1325H242.494C241.845 16.1325 241.269 15.7141 241.068 15.0961L239.378 9.89442Z" fill="#FFA940" stroke="#FFE7BA"/>
<path d="M198.378 14.8944C197.629 12.5911 194.371 12.5912 193.622 14.8944L191.932 20.0961C191.731 20.7141 191.156 21.1325 190.506 21.1325H185.036C182.615 21.1325 181.608 24.2316 183.567 25.6551L187.992 28.8699C188.517 29.2518 188.737 29.9289 188.537 30.5469L186.846 35.7485C186.098 38.0518 188.734 39.9671 190.694 38.5436L195.118 35.3288C195.644 34.9469 196.356 34.9469 196.882 35.3288L201.306 38.5436C203.266 39.9671 205.902 38.0518 205.154 35.7485L203.463 30.5469C203.263 29.9289 203.483 29.2518 204.008 28.8699L208.433 25.6551C210.392 24.2316 209.385 21.1325 206.964 21.1325H201.494C200.845 21.1325 200.269 20.7141 200.068 20.0961L198.378 14.8944Z" fill="#FFA940" stroke="#FFE7BA"/>
<path d="M280.378 14.8944C279.629 12.5911 276.371 12.5912 275.622 14.8944L273.932 20.0961C273.732 20.7141 273.156 21.1325 272.506 21.1325H267.036C264.615 21.1325 263.608 24.2316 265.567 25.6551L269.992 28.8699C270.517 29.2518 270.737 29.9289 270.537 30.5469L268.847 35.7485C268.098 38.0518 270.734 39.9671 272.694 38.5436L277.118 35.3288C277.644 34.9469 278.356 34.9469 278.882 35.3288L283.307 38.5436C285.266 39.9671 287.902 38.0518 287.154 35.7485L285.464 30.5469C285.263 29.9289 285.483 29.2518 286.008 28.8699L290.433 25.6551C292.392 24.2316 291.386 21.1325 288.964 21.1325H283.494C282.845 21.1325 282.269 20.7141 282.068 20.0961L280.378 14.8944Z" fill="#FFA940" stroke="#FFE7BA"/>
<path d="M157.378 19.8944C156.629 17.5911 153.371 17.5912 152.622 19.8944L150.932 25.0961C150.731 25.7141 150.156 26.1325 149.506 26.1325H144.036C141.615 26.1325 140.608 29.2316 142.567 30.6551L146.992 33.8699C147.517 34.2518 147.737 34.9289 147.537 35.5469L145.846 40.7485C145.098 43.0518 147.734 44.9671 149.694 43.5436L154.118 40.3288C154.644 39.9469 155.356 39.9469 155.882 40.3288L160.306 43.5436C162.266 44.9671 164.902 43.0518 164.154 40.7485L162.463 35.5469C162.263 34.9289 162.483 34.2518 163.008 33.8699L167.433 30.6551C169.392 29.2316 168.385 26.1325 165.964 26.1325H160.494C159.845 26.1325 159.269 25.7141 159.068 25.0961L157.378 19.8944Z" fill="#FFA940" stroke="#FFE7BA"/>
<path d="M321.378 19.8944C320.629 17.5911 317.371 17.5912 316.622 19.8944L314.932 25.0961C314.732 25.7141 314.156 26.1325 313.506 26.1325H308.036C305.615 26.1325 304.608 29.2316 306.567 30.6551L310.992 33.8699C311.517 34.2518 311.737 34.9289 311.537 35.5469L309.847 40.7485C309.098 43.0518 311.734 44.9671 313.694 43.5436L318.118 40.3288C318.644 39.9469 319.356 39.9469 319.882 40.3288L324.307 43.5436C326.266 44.9671 328.902 43.0518 328.154 40.7485L326.464 35.5469C326.263 34.9289 326.483 34.2518 327.008 33.8699L331.433 30.6551C333.393 29.2316 332.386 26.1325 329.964 26.1325H324.494C323.845 26.1325 323.269 25.7141 323.068 25.0961L321.378 19.8944Z" fill="#FFA940" stroke="#FFE7BA"/>
</g>
<defs>
<filter id="filter0_d_2398_13524" x="11" y="36.1948" width="476" height="222" filterUnits="userSpaceOnUse" color-interpolation-filters="sRGB">
<feFlood flood-opacity="0" result="BackgroundImageFix"/>
<feColorMatrix in="SourceAlpha" type="matrix" values="0 0 0 0 0 0 0 0 0 0 0 0 0 0 0 0 0 0 127 0" result="hardAlpha"/>
<feOffset dy="4"/>
<feGaussianBlur stdDeviation="2"/>
<feComposite in2="hardAlpha" operator="out"/>
<feColorMatrix type="matrix" values="0 0 0 0 0 0 0 0 0 0 0 0 0 0 0 0 0 0 0.25 0"/>
<feBlend mode="normal" in2="BackgroundImageFix" result="effect1_dropShadow_2398_13524"/>
<feBlend mode="normal" in="SourceGraphic" in2="effect1_dropShadow_2398_13524" result="shape"/>
</filter>
<linearGradient id="paint0_linear_2398_13524" x1="249" y1="36.1948" x2="249" y2="132.695" gradientUnits="userSpaceOnUse">
<stop stop-color="#FFB951"/>
<stop offset="1" stop-color="#FE9800"/>
</linearGradient>
<linearGradient id="paint1_linear_2398_13524" x1="249" y1="36.1948" x2="249" y2="132.695" gradientUnits="userSpaceOnUse">
<stop stop-color="#FFB951"/>
<stop offset="1" stop-color="#FE9800"/>
</linearGradient>
<linearGradient id="paint2_linear_2398_13524" x1="238" y1="-433.805" x2="238" y2="340.195" gradientUnits="userSpaceOnUse">
<stop stop-color="#D3E8FE" stop-opacity="0"/>
<stop offset="0.432292" stop-color="#CDE3FF"/>
<stop offset="1" stop-color="#DCEEFF"/>
</linearGradient>
<clipPath id="clip0_2398_13524">
<rect width="320" height="88" fill="white" transform="translate(79 0.194824)"/>
</clipPath>
</defs>
</svg>
