<svg width="375" height="220" viewBox="0 0 375 220" fill="none" xmlns="http://www.w3.org/2000/svg">
<g clip-path="url(#clip0_3042_18184)">
<rect width="375" height="220" fill="url(#paint0_linear_3042_18184)"/>
<rect x="-1" y="201" width="376" height="21" fill="url(#paint1_linear_3042_18184)"/>
<path d="M-1 201H375V210L-1 216V201Z" fill="#D6A401"/>
<path d="M178.477 205L121.325 240.5" stroke="#795609" stroke-width="7"/>
<path d="M306.819 205L245.656 243.5" stroke="#795609" stroke-width="7"/>
<path opacity="0.5" fill-rule="evenodd" clip-rule="evenodd" d="M425.13 122.626C407.329 119.377 424.924 117.465 412.248 116.5C399.74 115.546 419.843 109.21 412.248 108.5C402.751 107.613 385.203 103.822 386 101C388.816 91.0202 410.585 100.615 416 100.848C435.992 101.702 417.267 93.8344 412.248 91.3617C407.112 88.8279 399.946 93.474 389.428 92.9861C378.442 92.4761 369.927 88.9332 356.381 87.4307C334.95 85.0522 317.596 92.9418 302.823 100.848C279.535 113.312 260.101 130.527 235.157 140.335C190.482 158.797 143.878 122.543 106.705 134.319C88.1735 140.191 76.4514 154.04 59.9781 160.538C44.4416 166.659 22.492 163.139 6.86072 158.598C-8.20733 154.218 -19.1264 153.286 -29.8112 163.693C-43.9702 177.487 -52.2069 175.63 -60.4771 184.889C-64.3751 189.253 -64.6651 192.912 -63.1482 193.799C-59.8078 195.762 -48.61 190.755 -40.97 186.109C-30.9321 180.005 -20.2584 177.493 -7.62177 177.687C4.40701 178.025 14.2944 182.394 26.3901 180.038C43.0363 176.8 85.7588 163.649 72.4363 189.946C66.6031 201.445 109.281 204.688 128.476 203.884C245.529 198.977 294.47 156.558 384.22 161.387C421.026 163.372 461.623 178.996 493.483 178.302V126.163C470.016 113.511 447.598 126.723 425.13 122.626Z" fill="url(#paint2_linear_3042_18184)"/>
<mask id="mask0_3042_18184" style="mask-type:alpha" maskUnits="userSpaceOnUse" x="203" y="124" width="220" height="69">
<path d="M245.343 161.787C239.82 162.521 214.813 182.902 203 193L422.077 178.77C422.998 168.978 423.918 148.567 420.236 145.262C415.634 141.131 411.952 145.721 404.128 146.639C396.303 147.557 380.195 125.065 373.291 124.147C366.387 123.229 362.245 126.901 357.643 127.36C353.04 127.819 353.04 125.065 348.438 125.065C343.835 125.065 326.806 146.639 312.999 152.147C299.191 157.655 299.652 143.885 289.526 143.426C279.401 142.967 264.673 164.082 259.15 164.541C253.627 165 252.246 160.868 245.343 161.787Z" fill="#C4C4C4"/>
</mask>
<g mask="url(#mask0_3042_18184)">
<path d="M245.343 161.787C239.82 162.521 214.813 182.902 203 193L422.077 178.77C422.998 168.978 423.918 148.567 420.236 145.262C415.634 141.131 411.952 145.721 404.128 146.639C396.303 147.557 380.195 125.065 373.291 124.147C366.387 123.229 362.245 126.901 357.643 127.36C353.04 127.819 353.04 125.065 348.438 125.065C343.835 125.065 326.806 146.639 312.999 152.147C299.191 157.655 299.652 143.885 289.526 143.426C279.401 142.967 264.673 164.082 259.15 164.541C253.627 165 252.246 160.868 245.343 161.787Z" fill="url(#paint3_linear_3042_18184)"/>
<path d="M251.326 164.541C250.221 162.705 244.729 161.94 242.121 161.787C256.849 153.677 283.267 141.039 271.116 155.36C255.928 173.262 252.707 166.836 251.326 164.541Z" fill="url(#paint4_linear_3042_18184)" style="mix-blend-mode:hard-light"/>
<g opacity="0.4">
<path d="M290.907 148.016C290.907 142.967 286.765 142.508 286.305 142.508C286.673 140.304 308.243 145.262 318.982 148.016L293.668 164.541C293.975 163.776 294.589 161.878 294.589 160.409C294.589 158.573 289.066 157.196 288.606 154.901C288.146 152.606 290.907 153.065 290.907 148.016Z" fill="url(#paint5_linear_3042_18184)" style="mix-blend-mode:multiply"/>
</g>
<g opacity="0.4">
<path d="M350.739 130.114C351.107 125.34 347.517 124.453 345.676 124.606C356.415 123.382 376.513 121.117 370.99 121.852C364.086 122.77 356.262 144.803 354.421 144.803C352.58 144.803 352.58 142.049 353.04 140.671C353.5 139.294 353.04 137.917 351.659 137.917C350.279 137.917 350.279 136.081 350.739 130.114Z" fill="url(#paint6_linear_3042_18184)" style="mix-blend-mode:multiply"/>
</g>
</g>
<path fill-rule="evenodd" clip-rule="evenodd" d="M375 170V207H0V187.307C25.3074 187.307 49.5167 180.652 77.4258 181.673C105.73 182.708 117.671 189.25 142.623 188.495C169.531 187.68 185.832 177.73 221.205 175.707C250.256 174.046 267.526 180.209 288.614 180.209C315.751 180.213 345.578 170.792 375 170Z" fill="url(#paint7_linear_3042_18184)"/>
<path fill-rule="evenodd" clip-rule="evenodd" d="M436 197V207H-346V204.775C-340.625 204.488 -334.165 204.171 -326.404 203.826C-284.048 201.937 -227.154 199.322 -165.589 199.322C-128.218 199.322 -76.3261 202.902 -46.7481 202.902C11.8287 202.902 52.4186 198.314 137.502 198.314C175.752 198.314 214.581 200.407 249.442 200.407C294.712 200.407 363.51 197 436 197Z" fill="url(#paint8_linear_3042_18184)"/>
<path d="M101.219 171.695C99.1532 172.323 98.4431 173.515 98.4389 175.703C98.4346 177.742 99.2255 179.786 98.8343 181.83C98.6813 182.631 98.1498 183.806 97.6651 184.276C97.0614 184.866 96.5087 185.006 95.5903 185.247C94.6337 185.498 94.1576 185.68 93.6219 186.38C93.3285 186.765 92.8693 187.643 93.0351 187.732C93.2307 187.842 94.4381 187.656 95.1949 187.346C95.9602 187.033 96.6405 186.541 97.2357 185.828C98.2688 184.594 99.2382 183.331 99.4508 181.414C99.6974 179.158 98.6855 176.771 99.1787 174.532C99.3487 173.756 99.5741 173.29 100.276 172.887C100.675 172.658 101.198 172.467 101.411 172.268C101.462 172.238 101.849 171.505 101.219 171.695Z" fill="#7C580B"/>
<path d="M123.642 191.417C123.417 189.611 122.044 187.211 123.187 186.151C123.723 185.654 124.437 186.002 124.905 186.723C125.305 187.338 125.3 188.445 125.198 189.013C125.058 189.81 124.765 189.933 124.871 190.874C125.024 192.21 125.628 192.884 125.73 193.461C125.73 193.465 125.73 193.469 125.73 193.478L126.232 195H124.212V193.948L124.276 193.927C124.106 193.906 123.965 193.864 123.885 193.813C123.447 193.507 123.71 191.989 123.642 191.417Z" fill="#7C580B"/>
<path d="M98.9359 186.189C98.9529 185.756 99.1145 185.472 99.3611 185.192C100.658 183.717 101.215 181.452 100.811 179.459C100.692 178.878 100.909 179.023 101.07 179.205C101.347 179.523 102.822 182.61 103.141 183.441C103.383 184.064 103.519 184.683 103.315 185.086C102.898 185.917 102.205 186.617 101.423 187.384C99.8245 188.958 100.216 192.176 100.586 192.999C100.713 193.278 100.836 193.567 100.866 193.787L101.423 194.987H99.2973V193.936L99.3186 193.927C99.208 193.842 99.1017 193.753 99.0081 193.669C98.8083 193.482 98.8636 193.317 98.8466 192.948C98.7786 191.353 98.8551 188.127 98.9359 186.189Z" fill="#7C580B"/>
<path d="M101.198 179.998C100.637 178.895 99.1361 175.914 99.3146 173.892C99.4039 172.874 99.9226 171.869 100.973 171.517C102.529 171 105.28 171 106.819 171C108.456 171 115.87 171 117.375 171C120.173 171 121.576 172.081 123.017 172.56C124.246 172.967 126.482 173.277 126.912 173.425C128.417 173.955 129.012 174.621 129.828 175.889C130.606 177.098 134.182 182.601 135.292 184.217C135.36 184.314 135.432 184.395 135.508 184.476C135.793 184.476 136.078 184.476 136.376 184.476C136.69 184.476 136.975 184.476 137.213 184.586C137.247 184.577 137.273 184.565 137.311 184.56C137.736 184.531 138.136 184.734 138.744 184.628C139.832 184.437 140.045 183.751 140.177 183.814C140.368 183.886 140.232 184.654 139.178 185.442C138.638 185.849 138.072 185.888 137.66 185.858C137.647 185.934 137.63 186.011 137.617 186.087C137.753 186.087 137.889 186.087 138.025 186.087C138.263 186.087 138.782 186.091 138.782 186.486C138.782 187.02 138.11 187.741 137.511 187.792C137.507 188.241 137.498 188.695 137.439 189.03C137.286 189.886 137.184 190.429 137.362 192.193C137.405 192.621 137.826 194.101 137.116 194.512C136.571 194.826 135.696 194.78 135.126 194.483C134.467 194.139 134.344 193.571 134.071 192.952C133.638 191.968 132.622 191.375 132.035 190.484C131.495 189.666 131.321 188.665 130.781 187.864C128.935 187.228 126.678 188.657 124.318 188.233C123.634 188.11 123.09 187.842 122.571 187.389C121.831 186.74 120.777 185.332 119.633 185.442C119.221 185.481 116.155 186.808 113.6 186.409C113.247 186.354 112.894 186.278 112.541 186.184C112.244 187.236 111.67 188.105 110.862 188.674V190.794C110.862 190.984 110.705 191.141 110.513 191.141H110.386C110.254 191.141 109.91 191.141 109.778 191.141H109.65C109.459 191.141 109.302 190.984 109.302 190.794V189.318C109.285 189.322 109.268 189.327 109.251 189.331C108.808 189.403 108.302 189.416 107.784 189.352V190.794C107.784 190.984 107.626 191.141 107.435 191.141H107.308C107.176 191.141 106.836 191.141 106.704 191.141H106.576C106.525 191.141 106.479 191.129 106.436 191.112C106.81 191.803 107.189 192.486 107.465 193.194C107.495 193.27 108.132 194.996 108.132 194.996H105.888V193.944C105.888 193.944 105.632 193.842 105.399 193.783C105.314 193.762 105.233 193.681 105.224 193.486C105.169 191.972 104.931 190.633 104.136 189.365C103.447 188.275 102.886 187.473 102.448 186.753C102.24 186.409 102.193 186.21 102.257 185.76C102.376 184.9 102.55 183.912 102.384 183.025C102.163 181.919 101.653 180.888 101.198 179.998ZM105.195 188.139C105.369 189.042 105.773 189.895 106.219 190.73V188.877C105.849 188.686 105.501 188.44 105.195 188.122C105.195 188.127 105.195 188.131 105.195 188.139Z" fill="#E59334"/>
<path d="M130.768 187.864C128.923 187.232 126.665 188.657 124.31 188.233C123.629 188.105 123.085 187.842 122.562 187.393C121.823 186.744 120.768 185.336 119.629 185.451C119.216 185.489 116.155 186.816 113.6 186.418C111.036 186.015 108.349 184.488 107.418 184.234C107.214 184.175 107.006 184.34 106.895 184.459C106.87 184.488 106.419 185.006 106.359 185.074C106.257 184.836 107.001 183.632 107.278 183.411C107.516 183.22 108.107 183.449 108.26 183.513C109.063 183.814 112.197 184.836 115.233 184.527C117.435 184.302 118.034 183.674 119.471 183.695C121.07 183.721 121.491 184.238 122.345 184.921C123.434 185.786 124.658 186.524 126.015 186.422C128.799 186.201 130.258 186.664 130.768 187.864Z" fill="#7C580B"/>
<path d="M115.781 193.126C116.087 192.257 116.631 191.565 116.886 191.082C117.652 189.632 117.622 188.449 117.745 187.804C117.894 187.037 118.298 186.481 118.268 185.705C118.26 185.476 118.145 185.107 118.073 184.887C117.72 183.823 117.392 182.542 118.328 181.719C118.927 181.189 119.45 180.566 119.782 179.824C120.016 179.302 120.543 179.175 120.862 179.298C121.976 179.739 122.116 181.66 122.031 182.563C121.946 183.483 121.121 185.116 121.053 185.421C120.59 187.533 118.944 189.691 118.366 190.895C117.962 191.743 117.945 192.201 117.937 193.804C117.937 193.859 117.928 193.902 117.911 193.94H117.932L118.183 194.991H116.223V193.944C116.134 193.906 116.057 193.868 115.994 193.83C115.764 193.685 115.649 193.503 115.781 193.126Z" fill="#E59334"/>
<path d="M56.5564 188.875C56.4652 189.794 56.426 190.735 56.5955 191.645C56.7824 192.655 57.3169 193.56 57.6472 194.492H54.7921C54.8703 194.046 54.9225 193.543 54.9616 193.279C55.0094 192.962 54.7661 192.828 54.5966 192.763C54.1838 192.598 54.2359 192.516 54.4618 191.614C54.74 190.522 54.8617 189.612 54.9312 188.221C54.9833 187.202 54.7052 185.863 54.5227 184.251C54.4792 183.883 54.6444 183.323 54.9138 183.094C55.092 182.946 55.6569 182.426 55.9089 182.227C56.2827 181.932 56.6173 182.028 56.9997 182.179C57.3039 182.301 57.6602 182.444 57.5863 182.929C57.3473 184.507 56.7607 186.873 56.5564 188.875Z" fill="#7C580B"/>
<path d="M54.0401 184.485C55.8479 181.867 56.5823 181.993 58.5508 182.847C59.3287 183.185 61.1799 184.043 61.7883 184.333C62.4531 184.645 62.5357 185.014 62.2142 185.729C61.8796 186.479 61.2798 187.224 60.3803 187.731V189.903C60.3803 190.098 60.2195 190.258 60.024 190.258H59.8936C59.698 190.258 59.3765 190.258 59.1809 190.258H59.0506C58.855 190.258 58.6942 190.098 58.6942 189.903V188.295C58.3422 188.347 57.9642 188.373 57.5557 188.36C57.4775 188.355 57.3993 188.342 57.3167 188.338V189.907C57.3167 190.102 57.1559 190.262 56.9603 190.262H56.83C56.6345 190.262 56.3129 190.262 56.1173 190.262H55.9869C55.7914 190.262 55.6306 190.102 55.6306 189.907V187.844C54.9744 187.51 54.4356 187.046 54.127 186.539C53.5534 185.582 53.6925 184.992 54.0401 184.485Z" fill="#E59334"/>
<path d="M80.1051 194.492C79.9835 194.158 80.1704 193.569 80.0357 193.261C79.8836 192.91 79.5012 192.932 79.3273 192.542C78.9015 191.588 79.6967 189.963 79.3881 188.988C79.2056 188.412 78.7319 187.948 78.519 187.376C78.28 186.73 78.3278 186.097 78.3278 185.404C78.3278 184.923 79.814 184.52 80.1703 184.472C81.3393 184.32 80.996 186.539 80.9221 187.467C80.8656 188.156 80.6397 188.537 80.7353 189.244C80.8222 189.894 80.9482 190.544 81.1655 191.151C81.4827 192.026 82.3953 193.305 82.3866 194.275C82.3866 194.366 82.3779 194.436 82.3605 194.488H80.1051V194.492Z" fill="#7C580B"/>
<path d="M45.0495 187.779C44.841 186.193 45.2755 184.758 46.653 183.835C47.1745 183.484 47.7699 183.44 48.3 183.163C48.8823 182.86 49.5558 182.153 49.9513 181.633C50.8812 180.415 50.6205 178.643 50.5988 177.213C50.577 175.67 50.564 174.196 51.3853 172.822C51.9068 171.947 53.3061 170.66 54.4707 171.002C55.3659 171.266 54.4316 171.47 54.0709 171.578C53.4061 171.778 52.7672 172.111 52.2936 172.623C49.9252 175.176 52.1676 178.799 50.6292 181.607C50.2468 182.305 49.4863 182.925 48.891 183.44C48.3478 183.913 48.0306 184.325 47.596 184.914C46.992 185.742 46.4879 186.648 45.9534 187.523C45.6927 187.97 44.9496 188.988 45.0495 187.779Z" fill="#7C580B"/>
<path d="M56.9576 183.397C56.3893 183.502 55.4654 184.669 54.3549 185.908C53.1057 187.304 52.6892 187.892 52.6892 190.698C52.6892 191.827 53.1187 192.718 53.3009 193.182C53.4874 193.655 53.9776 194.169 54.2379 195.308H51.5441C51.5441 195.101 51.6005 194.362 51.6135 194.16C51.6395 193.696 51.5788 193.696 51.2448 193.43C50.8197 193.09 51.0105 192.869 51.0669 192.199C51.1797 190.923 51.5875 188.429 51.5181 187.699C51.44 186.859 51.1927 185.973 51.4833 185.348C51.9128 184.435 52.6416 183.323 52.8194 182.116C53.1447 179.87 52.4376 177.891 52.0256 175.582C51.8 174.305 51.6699 172.928 52.4854 171.509C53.5872 169.59 56.5151 169.998 58.4194 169.888C60.931 169.746 62.8526 169.176 66.6308 169.259C71.038 169.351 75.2109 169.966 79.5226 168.887C81.262 168.451 83.1707 168.166 84.793 169.181C86.4283 170.205 87.9899 172.551 88.2892 174.562C88.5669 176.431 86.9966 176.991 85.7603 177.786C83.5914 179.182 83.0753 180.913 82.4897 183.328C82.0082 185.302 80.5116 187.079 78.5076 187.309C76.5382 187.534 74.7337 185.624 72.092 185.803C70.0663 185.941 68.2705 186.684 66.0452 186.524C63.59 186.345 62.1108 185.458 60.2716 184.627C59.4518 184.251 57.6169 183.277 56.9576 183.397Z" fill="#E59334"/>
<path d="M57.7712 182.93C59.1878 183.207 61.478 184.611 64.4417 184.867C67.1794 185.105 69.9561 183.671 71.5205 183.667C73.5673 183.667 76.179 184.997 77.9867 184.893C79.6598 184.793 80.7462 183.589 81.3676 182.488C81.6457 181.994 82.4801 180.425 82.8364 179.138C83.3101 177.43 83.284 176.203 82.8668 174.5C82.5496 173.204 82.6148 170.998 83.749 169.98C84.1096 170.084 84.453 170.227 84.7876 170.422C86.4215 171.388 87.9902 173.603 88.2901 175.501C88.5638 177.265 86.9951 177.798 85.7523 178.548C85.296 178.821 84.944 179.112 84.6224 179.419C83.9836 180.039 83.51 180.823 83.2623 181.378C83.0363 181.881 82.7061 182.882 82.4757 183.779C81.9934 185.643 80.4941 187.32 78.4865 187.537C76.518 187.749 74.7058 185.951 72.0594 186.12C70.03 186.245 68.2353 186.952 66.0017 186.796C63.5465 186.627 62.0603 185.795 60.2221 185.006C59.3921 184.65 57.5496 183.732 56.8891 183.849C56.7457 183.87 56.5805 183.957 56.398 184.096C56.9543 183.662 57.3975 183.281 57.7712 182.93Z" fill="#7C580B"/>
<path d="M75.5899 187.116C75.403 188.104 74.7903 188.988 74.8468 190.019C74.8946 190.834 75.0033 191.714 75.2466 192.486C75.3683 192.88 76.0201 193.851 76.2417 194.492H73.9299C73.9125 193.955 74.0212 193.309 73.9603 193.049C73.8995 192.798 73.704 192.529 73.4563 192.412C73.0478 192.217 73.5866 190.54 73.6909 189.755C73.8039 188.888 73.3216 188.329 73.1825 187.51C73 186.418 72.9609 185.304 72.7305 184.216C72.5089 183.189 72.083 182.218 71.9049 181.187C71.718 180.116 71.6833 178.812 71.9179 178.105C72.1395 177.442 72.8392 177.642 73.1607 177.893C73.7778 178.378 73.7952 179.206 74.2211 179.839C74.6817 180.524 75.729 180.762 76.0897 181.499C76.446 182.223 76.1375 183.037 75.9897 183.878C75.8029 184.944 75.7941 186.045 75.5899 187.116Z" fill="#E59334"/>
<path d="M80.7438 168.813C81.3565 168.601 81.8868 168.549 82.5255 168.683C83.1513 168.818 83.7292 169.281 84.4376 169.533C84.5332 169.567 84.607 169.606 84.6722 169.65C84.707 169.489 84.7374 169.351 84.7678 169.221C84.6939 169.212 84.6244 169.199 84.5723 169.19C84.1812 169.108 83.4772 168.987 82.9775 168.441C82.1909 167.578 82.33 167.084 82.4691 167.041C82.6733 166.976 82.5646 167.418 83.5989 167.808C84.1725 168.024 84.6722 168.024 85.0025 168.033C85.072 168.033 85.185 168.029 85.3024 168.024C85.6413 167.76 86.2106 167.756 86.7972 167.756C87.3795 167.756 87.9445 167.76 88.2878 168.02C88.4399 168.024 88.5963 168.033 88.6875 168.033C89.0178 168.024 89.5175 168.024 90.0911 167.808C91.121 167.422 91.0298 166.941 91.234 167.006C91.3731 167.054 91.5382 167.452 90.7169 168.419C90.2389 168.982 89.5045 169.108 89.1134 169.19C89.0439 169.203 88.9353 169.221 88.8223 169.234C88.8527 169.359 88.8787 169.498 88.9135 169.654C88.9787 169.611 89.0526 169.572 89.1482 169.537C89.8609 169.286 90.4345 168.822 91.0602 168.688C91.7034 168.549 92.2335 168.605 92.8419 168.818C92.9549 168.857 93.0852 169.03 92.9723 169.225C92.5811 169.914 92.1162 170.451 91.3644 170.798C90.7256 171.097 90.0086 171.037 89.3828 170.803C89.4306 170.954 89.4698 171.128 89.4872 171.34C89.561 172.133 89.1525 173.451 88.97 174.044C88.844 174.452 88.618 174.998 88.5528 175.414C88.4442 176.112 88.5572 176.645 88.1443 176.974C88.1574 177.009 88.1748 177.044 88.1748 177.087C88.1748 177.655 87.1362 177.802 86.7494 177.802C86.3018 177.802 85.3371 177.655 85.3371 177.165C85.3371 177.087 85.3762 177.026 85.4327 176.97C85.0199 176.636 85.1329 176.103 85.0242 175.41C84.9591 174.994 84.7331 174.443 84.607 174.04C84.4245 173.446 84.0161 172.129 84.0899 171.336C84.1073 171.123 84.1464 170.95 84.1942 170.798C83.5641 171.032 82.8514 171.093 82.2126 170.794C81.4608 170.443 81.0002 169.905 80.6048 169.221C80.5048 169.021 80.6308 168.852 80.7438 168.813Z" fill="#E59334"/>
<path d="M196.647 215.472C196.457 216.497 196.326 217.341 196.237 218H195.252C195.27 216.722 195.342 214.849 195.317 214.317C195.286 213.591 194.892 209.413 194.718 208.32C194.262 205.458 194.705 203.953 194.94 204.768C195.177 205.583 196.063 211.252 196.063 211.252C196.063 211.252 196 209.549 196 207.701C196 206.042 196.689 204.828 196.825 206.879C196.866 207.489 196.667 211.181 196.667 211.181C196.667 211.181 196.92 207.569 197.609 205.83C198.206 204.32 199.382 203.423 199.156 204.423C198.93 205.422 198.166 208.714 198.166 208.714C198.166 208.714 198.636 207.079 199.273 206.104C199.802 205.293 200.799 204.688 200.471 205.3C199.235 207.607 197.162 212.696 196.647 215.472Z" fill="#FFD649"/>
<path d="M244.775 215.472C244.585 216.497 244.454 217.341 244.365 218H243.38C243.398 216.722 243.47 214.849 243.445 214.317C243.414 213.591 243.02 209.413 242.846 208.32C242.39 205.458 242.833 203.953 243.068 204.768C243.305 205.583 244.191 211.252 244.191 211.252C244.191 211.252 244.128 209.549 244.128 207.701C244.128 206.042 244.817 204.828 244.953 206.879C244.994 207.489 244.795 211.181 244.795 211.181C244.795 211.181 245.048 207.569 245.737 205.83C246.334 204.32 247.51 203.423 247.284 204.423C247.058 205.422 246.294 208.714 246.294 208.714C246.294 208.714 246.764 207.079 247.401 206.104C247.93 205.293 248.927 204.688 248.599 205.3C247.363 207.607 245.29 212.696 244.775 215.472Z" fill="#FFD649"/>
<path d="M214.829 216.012C214.833 216.817 214.82 217.481 214.802 218H215.41C215.473 217.508 216.534 212.345 216.577 211.165C216.624 209.935 215.654 212.699 215.654 212.699C215.654 212.699 215.883 211.359 216.086 209.908C216.269 208.605 215.979 207.65 215.667 209.262C215.575 209.743 215.288 212.643 215.288 212.643C215.288 212.643 215.531 209.806 215.297 208.437C215.096 207.252 214.469 206.546 214.498 207.333C214.527 208.117 214.635 210.704 214.635 210.704C214.635 210.704 214.422 210.157 214.195 209.92C213.887 209.598 213.461 209.463 213.597 209.942C214.108 211.753 214.82 213.828 214.829 216.012Z" fill="#FFD649"/>
<path d="M228.304 215.833C228.122 216.712 227.996 217.435 227.912 218H226.967C226.976 217.464 226.458 211.831 226.647 210.545C226.844 209.204 227.745 212.217 227.745 212.217C227.745 212.217 227.684 210.756 227.684 209.172C227.684 207.75 228.345 206.709 228.475 208.468C228.514 208.991 228.323 212.156 228.323 212.156C228.323 212.156 228.566 209.061 229.227 207.567C229.798 206.275 230.925 205.505 230.708 206.362C230.492 207.219 229.759 210.041 229.759 210.041C229.759 210.041 230.212 209.444 230.615 209.187C231.163 208.836 231.854 208.688 231.54 209.213C230.353 211.188 228.795 213.453 228.304 215.833Z" fill="#FFD649"/>
<path d="M184.615 230.472C184.425 231.497 184.294 232.341 184.205 233H183.22C183.238 231.722 183.31 229.849 183.285 229.317C183.254 228.591 182.86 224.413 182.686 223.32C182.23 220.458 182.673 218.953 182.908 219.768C183.145 220.583 184.031 226.252 184.031 226.252C184.031 226.252 183.968 224.549 183.968 222.701C183.968 221.042 184.657 219.828 184.793 221.879C184.834 222.489 184.635 226.181 184.635 226.181C184.635 226.181 184.888 222.569 185.578 220.83C186.174 219.32 187.35 218.423 187.124 219.423C186.898 220.422 186.134 223.714 186.134 223.714C186.134 223.714 186.604 222.079 187.241 221.104C187.77 220.293 188.767 219.688 188.439 220.3C187.201 222.607 185.128 227.696 184.615 230.472Z" fill="#FFD649"/>
<path d="M262.957 216.012C262.961 216.817 262.948 217.481 262.93 218H263.538C263.601 217.508 264.662 212.345 264.705 211.165C264.752 209.935 263.782 212.699 263.782 212.699C263.782 212.699 264.011 211.359 264.214 209.908C264.397 208.605 264.107 207.65 263.795 209.262C263.703 209.743 263.416 212.643 263.416 212.643C263.416 212.643 263.659 209.806 263.425 208.437C263.224 207.252 262.597 206.546 262.626 207.333C262.655 208.117 262.763 210.704 262.763 210.704C262.763 210.704 262.55 210.157 262.323 209.92C262.015 209.598 261.589 209.463 261.725 209.942C262.236 211.753 262.948 213.828 262.957 216.012Z" fill="#FFD649"/>
<path d="M179.153 216.012C179.158 216.817 179.141 217.481 179.117 218H179.927C180.011 217.508 181.425 212.345 181.483 211.165C181.546 209.935 180.253 212.699 180.253 212.699C180.253 212.699 180.557 211.359 180.828 209.908C181.072 208.605 180.685 207.65 180.27 209.262C180.146 209.743 179.765 212.643 179.765 212.643C179.765 212.643 180.088 209.806 179.777 208.437C179.508 207.252 178.672 206.546 178.711 207.333C178.749 208.117 178.894 210.704 178.894 210.704C178.894 210.704 178.609 210.157 178.307 209.92C177.896 209.598 177.328 209.463 177.509 209.942C178.191 211.753 179.139 213.828 179.153 216.012Z" fill="#FFD649"/>
<path d="M232.743 230.472C232.553 231.497 232.422 232.341 232.333 233H231.348C231.366 231.722 231.438 229.849 231.413 229.317C231.382 228.591 230.988 224.413 230.814 223.32C230.358 220.458 230.801 218.953 231.036 219.768C231.273 220.583 232.159 226.252 232.159 226.252C232.159 226.252 232.096 224.549 232.096 222.701C232.096 221.042 232.785 219.828 232.921 221.879C232.962 222.489 232.763 226.181 232.763 226.181C232.763 226.181 233.016 222.569 233.705 220.83C234.302 219.32 235.478 218.423 235.252 219.423C235.026 220.422 234.262 223.714 234.262 223.714C234.262 223.714 234.732 222.079 235.369 221.104C235.898 220.293 236.895 219.688 236.567 220.3C235.329 222.607 233.256 227.696 232.743 230.472Z" fill="#FFD649"/>
<path d="M219.619 230.653C219.401 231.604 219.25 232.388 219.149 233H218.016C218.026 232.419 217.405 226.317 217.631 224.924C217.867 223.471 218.949 226.735 218.949 226.735C218.949 226.735 218.876 225.153 218.876 223.436C218.876 221.896 219.669 220.768 219.825 222.673C219.872 223.24 219.643 226.669 219.643 226.669C219.643 226.669 219.934 223.316 220.727 221.698C221.413 220.298 222.765 219.464 222.505 220.392C222.245 221.32 221.366 224.378 221.366 224.378C221.366 224.378 221.909 223.731 222.393 223.453C223.051 223.072 223.88 222.912 223.503 223.481C222.078 225.62 220.209 228.074 219.619 230.653Z" fill="#FFD649"/>
<path d="M326.204 211.472C326.014 212.497 325.883 213.341 325.795 214H324.809C324.827 212.722 324.9 210.849 324.875 210.317C324.843 209.591 324.45 205.413 324.276 204.32C323.819 201.458 324.262 199.953 324.497 200.768C324.735 201.583 325.621 207.252 325.621 207.252C325.621 207.252 325.557 205.549 325.557 203.701C325.557 202.042 326.247 200.828 326.382 202.879C326.423 203.489 326.224 207.181 326.224 207.181C326.224 207.181 326.477 203.569 327.167 201.83C327.764 200.32 328.939 199.423 328.713 200.423C328.487 201.422 327.723 204.714 327.723 204.714C327.723 204.714 328.193 203.079 328.831 202.104C329.359 201.293 330.356 200.688 330.029 201.3C328.792 203.607 326.719 208.696 326.204 211.472Z" fill="#FFD649"/>
<path d="M344.387 212.012C344.39 212.817 344.378 213.481 344.36 214H344.967C345.03 213.508 346.091 208.345 346.134 207.165C346.181 205.935 345.212 208.699 345.212 208.699C345.212 208.699 345.44 207.359 345.643 205.908C345.826 204.605 345.536 203.65 345.224 205.262C345.132 205.743 344.845 208.643 344.845 208.643C344.845 208.643 345.088 205.806 344.854 204.437C344.653 203.252 344.026 202.546 344.055 203.333C344.084 204.117 344.193 206.704 344.193 206.704C344.193 206.704 343.979 206.157 343.752 205.92C343.444 205.598 343.018 205.463 343.154 205.942C343.665 207.753 344.378 209.828 344.387 212.012Z" fill="#FFD649"/>
<path d="M308.71 212.012C308.715 212.817 308.698 213.481 308.674 214H309.484C309.568 213.508 310.982 208.345 311.04 207.165C311.103 205.935 309.81 208.699 309.81 208.699C309.81 208.699 310.115 207.359 310.385 205.908C310.63 204.605 310.243 203.65 309.827 205.262C309.704 205.743 309.322 208.643 309.322 208.643C309.322 208.643 309.646 205.806 309.334 204.437C309.066 203.252 308.229 202.546 308.268 203.333C308.307 204.117 308.452 206.704 308.452 206.704C308.452 206.704 308.166 206.157 307.864 205.92C307.453 205.598 306.885 205.463 307.067 205.942C307.748 207.753 308.696 209.828 308.71 212.012Z" fill="#FFD649"/>
<path d="M314.172 226.472C313.982 227.497 313.851 228.341 313.763 229H312.777C312.795 227.722 312.868 225.849 312.843 225.317C312.811 224.591 312.418 220.413 312.244 219.32C311.787 216.458 312.23 214.953 312.465 215.768C312.703 216.583 313.589 222.252 313.589 222.252C313.589 222.252 313.525 220.549 313.525 218.701C313.525 217.042 314.215 215.828 314.35 217.879C314.391 218.489 314.192 222.181 314.192 222.181C314.192 222.181 314.445 218.569 315.135 216.83C315.732 215.32 316.907 214.423 316.681 215.423C316.455 216.422 315.691 219.714 315.691 219.714C315.691 219.714 316.161 218.079 316.799 217.104C317.327 216.293 318.324 215.688 317.997 216.3C316.758 218.607 314.685 223.696 314.172 226.472Z" fill="#FFD649"/>
<path d="M349.177 226.653C348.958 227.604 348.808 228.388 348.706 229H347.573C347.583 228.419 346.962 222.317 347.188 220.924C347.425 219.471 348.506 222.735 348.506 222.735C348.506 222.735 348.433 221.153 348.433 219.436C348.433 217.896 349.226 216.768 349.382 218.673C349.429 219.24 349.2 222.669 349.2 222.669C349.2 222.669 349.491 219.316 350.284 217.698C350.97 216.298 352.322 215.464 352.062 216.392C351.802 217.32 350.924 220.378 350.924 220.378C350.924 220.378 351.467 219.731 351.95 219.453C352.608 219.072 353.437 218.912 353.06 219.481C351.636 221.62 349.767 224.074 349.177 226.653Z" fill="#FFD649"/>
<path d="M331.772 227.012C331.777 227.817 331.76 228.481 331.735 229H332.545C332.63 228.508 334.044 223.345 334.102 222.165C334.165 220.935 332.871 223.699 332.871 223.699C332.871 223.699 333.176 222.359 333.447 220.908C333.691 219.605 333.304 218.65 332.888 220.262C332.765 220.743 332.383 223.643 332.383 223.643C332.383 223.643 332.707 220.806 332.395 219.437C332.127 218.252 331.291 217.546 331.329 218.333C331.368 219.117 331.513 221.704 331.513 221.704C331.513 221.704 331.228 221.157 330.926 220.92C330.515 220.598 329.947 220.463 330.128 220.942C330.81 222.753 331.76 224.83 331.772 227.012Z" fill="#FFD649"/>
<path d="M296.678 227.012C296.683 227.817 296.666 228.481 296.642 229H297.452C297.536 228.508 298.95 223.345 299.008 222.165C299.071 220.935 297.778 223.699 297.778 223.699C297.778 223.699 298.083 222.359 298.353 220.908C298.598 219.605 298.211 218.65 297.795 220.262C297.672 220.743 297.29 223.643 297.29 223.643C297.29 223.643 297.614 220.806 297.302 219.437C297.034 218.252 296.197 217.546 296.236 218.333C296.275 219.117 296.42 221.704 296.42 221.704C296.42 221.704 296.135 221.157 295.832 220.92C295.421 220.598 294.853 220.463 295.035 220.942C295.716 222.753 296.664 224.83 296.678 227.012Z" fill="#FFD649"/>
<path d="M90.3638 215.472C90.1739 216.497 90.0428 217.341 89.9547 218H88.9691C88.9872 216.722 89.0595 214.849 89.0346 214.317C89.003 213.591 88.6097 209.413 88.4356 208.32C87.979 205.458 88.4221 203.953 88.6571 204.768C88.8945 205.583 89.7806 211.252 89.7806 211.252C89.7806 211.252 89.7173 209.549 89.7173 207.701C89.7173 206.042 90.4068 204.828 90.5424 206.879C90.5831 207.489 90.3842 211.181 90.3842 211.181C90.3842 211.181 90.6373 207.569 91.3268 205.83C91.9236 204.32 93.099 203.423 92.873 204.423C92.6469 205.422 91.8829 208.714 91.8829 208.714C91.8829 208.714 92.353 207.079 92.9905 206.104C93.5195 205.293 94.5163 204.688 94.1886 205.3C92.9521 207.607 90.8792 212.696 90.3638 215.472Z" fill="#FFD649"/>
<path d="M122.021 215.833C121.839 216.712 121.713 217.435 121.629 218H120.685C120.693 217.464 120.176 211.831 120.364 210.545C120.561 209.204 121.462 212.217 121.462 212.217C121.462 212.217 121.402 210.756 121.402 209.172C121.402 207.75 122.062 206.709 122.192 208.468C122.231 208.991 122.041 212.156 122.041 212.156C122.041 212.156 122.283 209.061 122.944 207.567C123.516 206.275 124.642 205.505 124.425 206.362C124.209 207.219 123.477 210.041 123.477 210.041C123.477 210.041 123.929 209.444 124.332 209.187C124.88 208.836 125.571 208.688 125.257 209.213C124.07 211.188 122.513 213.453 122.021 215.833Z" fill="#FFD649"/>
<path d="M108.547 216.012C108.55 216.817 108.538 217.481 108.52 218H109.127C109.19 217.508 110.251 212.345 110.294 211.165C110.341 209.935 109.372 212.699 109.372 212.699C109.372 212.699 109.6 211.359 109.803 209.908C109.986 208.605 109.696 207.65 109.384 209.262C109.292 209.743 109.005 212.643 109.005 212.643C109.005 212.643 109.248 209.806 109.014 208.437C108.813 207.252 108.186 206.546 108.215 207.333C108.244 208.117 108.353 210.704 108.353 210.704C108.353 210.704 108.139 210.157 107.912 209.92C107.604 209.598 107.178 209.463 107.314 209.942C107.825 211.753 108.538 213.828 108.547 216.012Z" fill="#FFD649"/>
<path d="M72.8703 216.012C72.8751 216.817 72.8582 217.481 72.8341 218H73.6438C73.7284 217.508 75.1424 212.345 75.2004 211.165C75.2633 209.935 73.9701 212.699 73.9701 212.699C73.9701 212.699 74.2747 211.359 74.5454 209.908C74.7895 208.605 74.4028 207.65 73.987 209.262C73.8637 209.743 73.4819 212.643 73.4819 212.643C73.4819 212.643 73.8057 209.806 73.4939 208.437C73.2256 207.252 72.3893 206.546 72.428 207.333C72.4667 208.117 72.6117 210.704 72.6117 210.704C72.6117 210.704 72.3265 210.157 72.0243 209.92C71.6134 209.598 71.0454 209.463 71.2267 209.942C71.9083 211.753 72.8558 213.828 72.8703 216.012Z" fill="#FFD649"/>
<path d="M78.3318 230.472C78.1419 231.497 78.0108 232.341 77.9227 233H76.9371C76.9552 231.722 77.0275 229.849 77.0027 229.317C76.971 228.591 76.5777 224.413 76.4036 223.32C75.947 220.458 76.3901 218.953 76.6252 219.768C76.8625 220.583 77.7486 226.252 77.7486 226.252C77.7486 226.252 77.6853 224.549 77.6853 222.701C77.6853 221.042 78.3748 219.828 78.5104 221.879C78.5511 222.489 78.3522 226.181 78.3522 226.181C78.3522 226.181 78.6053 222.569 79.2948 220.83C79.8916 219.32 81.067 218.423 80.841 219.423C80.6149 220.422 79.8509 223.714 79.8509 223.714C79.8509 223.714 80.3211 222.079 80.9585 221.104C81.4875 220.293 82.4843 219.688 82.1566 220.3C80.9178 222.607 78.845 227.696 78.3318 230.472Z" fill="#FFD649"/>
<path d="M113.337 230.653C113.118 231.604 112.968 232.388 112.866 233H111.733C111.743 232.419 111.122 226.317 111.348 224.924C111.585 223.471 112.666 226.735 112.666 226.735C112.666 226.735 112.593 225.153 112.593 223.436C112.593 221.896 113.386 220.768 113.542 222.673C113.589 223.24 113.36 226.669 113.36 226.669C113.36 226.669 113.651 223.316 114.444 221.698C115.13 220.298 116.482 219.464 116.222 220.392C115.962 221.32 115.083 224.378 115.083 224.378C115.083 224.378 115.627 223.731 116.11 223.453C116.768 223.072 117.597 222.912 117.22 223.481C115.796 225.62 113.927 228.074 113.337 230.653Z" fill="#FFD649"/>
<path d="M20.1772 215.472C19.9873 216.497 19.8562 217.341 19.768 218H18.7824C18.8005 216.722 18.8729 214.849 18.848 214.317C18.8163 213.591 18.423 209.413 18.249 208.32C17.7924 205.458 18.2354 203.953 18.4705 204.768C18.7078 205.583 19.594 211.252 19.594 211.252C19.594 211.252 19.5307 209.549 19.5307 207.701C19.5307 206.042 20.2201 204.828 20.3558 206.879C20.3964 207.489 20.1975 211.181 20.1975 211.181C20.1975 211.181 20.4507 207.569 21.1401 205.83C21.7369 204.32 22.9123 203.423 22.6863 204.423C22.4603 205.422 21.6962 208.714 21.6962 208.714C21.6962 208.714 22.1664 207.079 22.8039 206.104C23.3328 205.293 24.3297 204.688 24.0019 205.3C22.7654 207.607 20.6926 212.696 20.1772 215.472Z" fill="#FFD649"/>
<path d="M51.8344 215.833C51.6525 216.712 51.5268 217.435 51.4423 218H50.4979C50.5066 217.464 49.9889 211.831 50.1773 210.545C50.3744 209.204 51.2755 212.217 51.2755 212.217C51.2755 212.217 51.2149 210.756 51.2149 209.172C51.2149 207.75 51.8756 206.709 52.0056 208.468C52.0445 208.991 51.8539 212.156 51.8539 212.156C51.8539 212.156 52.0965 209.061 52.7572 207.567C53.3291 206.275 54.4554 205.505 54.2388 206.362C54.0222 207.219 53.2901 210.041 53.2901 210.041C53.2901 210.041 53.7428 209.444 54.1457 209.187C54.6937 208.836 55.3847 208.688 55.0706 209.213C53.8836 211.188 52.3261 213.453 51.8344 215.833Z" fill="#FFD649"/>
<path d="M38.3601 216.012C38.3637 216.817 38.351 217.481 38.3329 218H38.9402C39.0036 217.508 40.0641 212.345 40.1077 211.165C40.1548 209.935 39.1849 212.699 39.1849 212.699C39.1849 212.699 39.4133 211.359 39.6164 209.908C39.7995 208.605 39.5094 207.65 39.1976 209.262C39.1052 209.743 38.8187 212.643 38.8187 212.643C38.8187 212.643 39.0617 209.806 38.8278 208.437C38.6266 207.252 37.9993 206.546 38.0283 207.333C38.0573 208.117 38.1661 210.704 38.1661 210.704C38.1661 210.704 37.9522 210.157 37.7256 209.92C37.4174 209.598 36.9914 209.463 37.1273 209.942C37.6386 211.753 38.351 213.828 38.3601 216.012Z" fill="#FFD649"/>
<path d="M2.68367 216.012C2.6885 216.817 2.67158 217.481 2.64741 218H3.45715C3.54175 217.508 4.95576 212.345 5.01377 211.165C5.07662 209.935 3.78345 212.699 3.78345 212.699C3.78345 212.699 4.08801 211.359 4.35873 209.908C4.60286 208.605 4.21612 207.65 3.80038 209.262C3.6771 209.743 3.29521 212.643 3.29521 212.643C3.29521 212.643 3.6191 209.806 3.30729 208.437C3.03899 207.252 2.20266 206.546 2.24133 207.333C2.28001 208.117 2.42503 210.704 2.42503 210.704C2.42503 210.704 2.13982 210.157 1.83768 209.92C1.42677 209.598 0.858748 209.463 1.04003 209.942C1.72166 211.753 2.66917 213.828 2.68367 216.012Z" fill="#FFD649"/>
<path d="M8.14518 230.472C7.9553 231.497 7.82419 232.341 7.73603 233H6.75045C6.76853 231.722 6.84087 229.849 6.81601 229.317C6.78436 228.591 6.39103 224.413 6.21697 223.32C5.76035 220.458 6.20342 218.953 6.43851 219.768C6.67586 220.583 7.56197 226.252 7.56197 226.252C7.56197 226.252 7.49867 224.549 7.49867 222.701C7.49867 221.042 8.18812 219.828 8.32375 221.879C8.36444 222.489 8.16552 226.181 8.16552 226.181C8.16552 226.181 8.4187 222.569 9.10815 220.83C9.70492 219.32 10.8804 218.423 10.6543 219.423C10.4283 220.422 9.66422 223.714 9.66422 223.714C9.66422 223.714 10.1344 222.079 10.7719 221.104C11.3008 220.293 12.2977 219.688 11.9699 220.3C10.7312 222.607 8.65831 227.696 8.14518 230.472Z" fill="#FFD649"/>
<path d="M43.1501 230.653C42.9318 231.604 42.781 232.388 42.6796 233H41.5463C41.5567 232.419 40.9354 226.317 41.1616 224.924C41.3981 223.471 42.4795 226.735 42.4795 226.735C42.4795 226.735 42.4067 225.153 42.4067 223.436C42.4067 221.896 43.1995 220.768 43.3555 222.673C43.4022 223.24 43.1735 226.669 43.1735 226.669C43.1735 226.669 43.4646 223.316 44.2574 221.698C44.9437 220.298 46.2953 219.464 46.0354 220.392C45.7754 221.32 44.8969 224.378 44.8969 224.378C44.8969 224.378 45.4401 223.731 45.9236 223.453C46.5813 223.072 47.4104 222.912 47.0335 223.481C45.6091 225.62 43.7401 228.074 43.1501 230.653Z" fill="#FFD649"/>
<path d="M13.7725 193.523H39V155.934L26.3863 140L13.7725 155.934V193.523Z" fill="#E59334"/>
<path d="M-20.9935 155.934H13.7723V193.523H-20.9935V155.934Z" fill="#8C6400"/>
<path d="M26.3864 140H-8.37301L-20.9998 155.934H13.7725L26.3864 140Z" fill="#CC3226"/>
<path d="M-1 170H8V194H-1V170Z" fill="#6C0800"/>
<path d="M28.5989 170.038H33.2903V185.978H28.5989V170.038Z" fill="#6C0800"/>
<path d="M28.5989 170.038H33.2903V173.204H28.5989V170.038Z" fill="#6C0800"/>
<path d="M3.02087 170.038H7.71213V173.204H3.02087V170.038Z" fill="#6C0800"/>
<path d="M-21 157.608L13.7723 159.165V155.934H-21V157.608Z" fill="#6C0800"/>
<path d="M304.774 117.125L293.56 123.401C293.56 123.401 271.133 120.342 268.932 119.215C266.732 118.087 260.055 114.495 258.322 114.923C256.588 115.351 263.597 119.643 261.909 119.643C260.221 119.643 257.636 117.787 258.043 119.147C258.45 120.507 263.529 122.326 264.991 122.439C266.453 122.552 283.952 131.669 295.429 131.24C306.907 130.812 317.186 124.912 317.186 124.912C317.186 124.912 305.972 119.643 304.774 117.125Z" fill="#F0B58B"/>
<path d="M328.4 99.9436C328.4 99.9436 322.989 97.7489 315.988 104.34C308.987 110.932 303.968 116.719 303.968 116.719C303.968 116.719 313.584 128.099 319.386 126.49C325.189 124.882 340.811 106.738 328.4 99.9436Z" fill="#253D82"/>
<path d="M338.086 152.122C339.359 162.78 339.359 173.551 338.086 184.208C335.976 201.495 335.976 274.731 335.976 274.731C335.976 274.731 317.241 282.187 314.762 274.731C312.282 267.275 312.953 158.917 312.953 158.917L338.086 152.122Z" fill="#253D82"/>
<path d="M348.945 153.986C350.231 164.642 350.243 175.413 348.983 186.072C346.873 203.359 346.873 276.595 346.873 276.595C346.873 276.595 328.138 284.051 325.659 276.595C323.179 269.139 323.85 160.781 323.85 160.781L348.945 153.986Z" fill="#2D54AF"/>
<path d="M344.137 99.2021C344.137 99.2021 354.228 102.87 355.358 112.851C356.489 122.832 344.31 134.82 349.269 153.986C349.269 153.986 339.714 165.914 321.386 165.967C308.914 166.004 313.609 154.986 314.551 150.183C315.493 145.38 305.635 104.839 323.187 99.5929L344.137 99.2021Z" fill="#2D54AF"/>
<path d="M309.102 60.7952C309.102 60.7952 314.807 88.7172 357.288 89.1682C357.288 89.1682 353.015 71.5732 340.332 65.5829C327.648 59.5927 309.102 60.7952 309.102 60.7952Z" fill="#6C0800"/>
<path d="M344.838 82.4263C344.838 82.4263 349.397 85.5981 348.87 90.6939C348.342 95.7898 323.014 101.585 317.61 91.3028C312.207 81.0209 328.492 81.3215 328.492 81.3215L344.838 82.4263Z" fill="#253D82"/>
<path d="M326.985 88.7698C326.985 88.7698 327.912 93.9484 326.518 97.9319C325.983 99.4351 323.247 99.5328 323.247 99.5328C323.247 99.5328 318.311 109.912 327.385 110.251C336.458 110.589 339.804 99.7958 343.406 99.2021C343.406 99.2021 336.872 99.7959 337.505 87.5448C337.536 87.5448 328.99 85.7258 326.985 88.7698Z" fill="#E19E70"/>
<path d="M320.512 74.8351C320.512 74.8351 318.447 90.3783 324.852 90.6789C329.992 90.7666 335.05 89.3927 339.435 86.718C341.236 85.4177 346.338 79.4274 342.939 75.7371C339.54 72.0467 331.122 63.7566 327.317 63.253C323.511 62.7494 319.909 69.4462 320.512 74.8351Z" fill="#F0B58B"/>
<path d="M321.31 61.5243C321.31 61.5243 317.113 70.8442 320.512 74.8352C320.512 74.8352 324.016 64.3127 327.219 64.3127C327.219 64.3127 325.018 73.3319 336.428 79.8934C336.428 79.8934 331.522 76.0002 332.328 74.0986C332.328 74.0986 339.035 78.2925 341.439 77.6988C341.439 77.6988 341.839 84.7864 339.435 86.6804C339.435 86.6804 349.066 82.0055 348.87 77.7138C348.84 77.7514 339.736 57.7287 321.31 61.5243Z" fill="#253D82"/>
<path d="M309.102 60.7952C309.102 60.7952 330.331 61.2762 339.133 70.3781C347.935 79.48 357.288 89.1682 357.288 89.1682L348.84 56L309.102 60.7952Z" fill="#CC3226"/>
<path d="M345.863 126.523C345.863 126.523 331.657 108.59 339.442 101.081C347.227 93.5726 362.05 113.798 362.05 113.798C362.05 113.798 359.872 128.92 345.863 126.523Z" fill="#253D82"/>
<path d="M337.468 165.756H302.169C301.721 165.753 301.286 165.605 300.93 165.334C300.574 165.063 300.315 164.683 300.194 164.253L294.249 143.321C294.154 143.011 294.133 142.683 294.187 142.363C294.241 142.043 294.369 141.74 294.56 141.478C294.752 141.216 295.001 141.001 295.29 140.852C295.578 140.702 295.898 140.621 296.223 140.615H331.507C331.956 140.617 332.393 140.764 332.751 141.035C333.108 141.307 333.367 141.687 333.489 142.119L339.435 163.043C339.529 163.353 339.55 163.681 339.496 164C339.442 164.32 339.315 164.623 339.125 164.886C338.935 165.148 338.686 165.363 338.399 165.514C338.111 165.666 337.793 165.748 337.468 165.756Z" fill="#E19E70"/>
<path d="M337.468 165.756H302.169C301.721 165.753 301.286 165.605 300.93 165.334C300.574 165.063 300.315 164.683 300.194 164.253L294.249 143.321C294.154 143.011 294.133 142.683 294.187 142.363C294.241 142.043 294.369 141.74 294.56 141.478C294.752 141.216 295.001 141.001 295.29 140.852C295.578 140.702 295.898 140.621 296.223 140.615H331.507C331.956 140.617 332.393 140.764 332.751 141.035C333.108 141.307 333.367 141.687 333.489 142.119L339.435 163.043C339.529 163.353 339.55 163.681 339.496 164C339.442 164.32 339.315 164.623 339.125 164.886C338.935 165.148 338.686 165.363 338.399 165.514C338.111 165.666 337.793 165.748 337.468 165.756Z" fill="#7AA0D4"/>
<path d="M351.312 124.726L358.313 135.211C358.313 135.211 347.325 152.784 344.793 152.979C342.261 153.175 338.666 152.085 336.33 151.281C333.994 150.476 337.083 154.092 337.083 154.092C337.083 154.092 328.907 154.174 329.487 155.873C330.067 157.571 331.145 161.202 338.636 160.803C346.127 160.405 364.703 146.087 368.207 139.804C371.712 133.52 361.659 115.309 361.659 115.309L351.312 124.726Z" fill="#F0B58B"/>
<path d="M319.537 157.637C321.137 156.444 321.076 153.663 319.4 151.425C317.723 149.187 315.067 148.339 313.466 149.532C311.866 150.724 311.927 153.505 313.604 155.743C315.28 157.981 317.936 158.829 319.537 157.637Z" fill="white"/>
<g clip-path="url(#clip1_3042_18184)">
<path d="M182.442 63.3735C184.365 65.5127 186.835 67.0905 189.588 67.9381C192.34 68.7857 195.272 68.8712 198.07 68.1855C196.148 66.0452 193.678 64.4666 190.925 63.619C188.172 62.7713 185.24 62.6865 182.442 63.3735Z" fill="#D54E3D"/>
<path d="M198.31 62.9316C198.572 65.7641 199.61 68.4703 201.311 70.7536C203.012 73.0369 205.31 74.8093 207.954 75.8766C207.691 73.0448 206.652 70.3396 204.951 68.0567C203.25 65.7737 200.953 64.0008 198.31 62.9316Z" fill="#D54E3D"/>
<path d="M200.356 61.3911C203.079 62.3328 206.01 62.501 208.822 61.8771C207.215 59.4749 204.899 57.6299 202.195 56.5971C199.49 55.5643 196.531 55.3947 193.726 56.1118C195.401 58.4517 197.697 60.2798 200.356 61.3911Z" fill="#D54E3D"/>
<path d="M211.032 73.9695C210.035 76.6341 209.792 79.5206 210.329 82.3136C210.866 85.1066 212.163 87.6986 214.077 89.8065C215.074 87.1419 215.317 84.2554 214.78 81.4624C214.243 78.6694 212.946 76.0773 211.032 73.9695Z" fill="#D54E3D"/>
<path d="M209.366 71.1154C211.101 72.7687 213.282 73.8813 215.642 74.3169C215.362 71.9255 214.299 69.6929 212.617 67.9656C210.935 66.2382 208.729 65.1124 206.34 64.7629C206.708 67.1288 207.76 69.3365 209.366 71.1154Z" fill="#D54E3D"/>
<path d="M196.373 114.856C197.066 115.215 197.736 115.615 198.38 116.056C193.424 118.39 187.972 119.484 182.496 119.244C177.021 119.004 171.687 117.437 166.955 114.679C162.223 111.921 158.237 108.055 155.34 103.415C152.444 98.7748 150.725 93.5008 150.332 88.0493C149.939 82.5978 150.885 77.133 153.086 72.1277C155.287 67.1224 158.679 62.7274 162.966 59.323C167.254 55.9186 172.309 53.6074 177.694 52.5893C183.079 51.5712 188.631 51.8769 193.871 53.48C173.513 52.0086 167.466 63.7349 167.466 63.7349C181.542 53.8399 193.726 60.1404 193.726 60.1404C173.184 58.2857 165.262 74.5822 165.262 74.5822C165.262 74.5822 174.064 66.5371 188.104 71.6393C176.896 71.7151 167.772 78.1685 164.91 87.2868C164.284 89.2836 163.968 91.3641 163.973 93.4561C163.973 102.297 168.405 110.178 176.751 113.909C176.986 114.016 177.226 114.118 177.46 114.212C180.91 115.571 184.592 116.244 188.301 116.195C191.046 116.175 193.77 115.723 196.374 114.856H196.373Z" fill="#D54E3D"/>
<path d="M207.98 89.5095L207.65 91.5682L207.543 92.2628L207.429 92.97L205.529 105.062L201.698 92.6414L201.483 91.9472L201.268 91.2525L200.812 89.7494C201.977 89.4947 203.164 89.3489 204.357 89.3138H205.757C205.926 89.3036 206.095 89.3036 206.263 89.3138C206.479 89.3138 206.669 89.3138 206.851 89.3528C207.006 89.3596 207.16 89.3743 207.313 89.397H207.377C207.41 89.3931 207.444 89.3931 207.478 89.397C207.526 89.3935 207.575 89.3935 207.623 89.397H207.871L207.98 89.5095Z" fill="#D0C6C6"/>
<path d="M225.076 118.487C223.348 117.224 221.429 116.031 218.46 116.031C215.491 116.031 211.494 117.193 205.561 120.596C205.174 119.87 204.72 119.18 204.205 118.538C203.331 117.427 202.333 116.418 201.23 115.532C197.662 112.713 193.217 111.229 188.666 111.339C185.262 111.378 181.886 111.965 178.668 113.075L171.07 84.4893C172.444 84.1064 173.852 83.8548 175.274 83.738L180.877 106.029L181.194 107.291L182.492 107.064C184.124 106.771 185.779 106.623 187.437 106.622C190.564 106.578 193.665 107.194 196.537 108.43C199.408 109.667 201.985 111.495 204.097 113.796C204.641 114.391 205.142 115.024 205.598 115.69C205.634 115.732 205.664 115.778 205.686 115.829L206.415 117.016L207.624 116.284C211.346 114.054 214.64 112.924 217.414 112.924C218.675 112.877 219.926 113.16 221.044 113.744C222.163 114.327 223.109 115.191 223.79 116.251C223.859 116.359 223.904 116.428 223.935 116.466L224.252 116.876L225.076 118.487Z" fill="#173870"/>
<path d="M225.083 115.62C224.606 114.871 224.029 114.192 223.367 113.599C222.969 113.271 222.546 112.975 222.1 112.716C220.67 111.897 219.044 111.482 217.396 111.516C215.013 111.588 212.672 112.158 210.525 113.189C209.267 113.736 208.048 114.369 206.878 115.083L206.758 114.899C206.288 114.215 205.767 113.567 205.199 112.961C202.961 110.476 200.215 108.499 197.145 107.162C194.076 105.825 190.755 105.161 187.406 105.213C185.668 105.22 183.933 105.372 182.22 105.668L176.743 83.6169L176.572 82.9284L176.376 82.2275L176.002 80.687C178.477 80.0698 181.018 79.7601 183.569 79.7649C189.446 79.7649 197.209 81.5016 200.812 89.7483C201.978 89.4936 203.165 89.3477 204.358 89.3126H204.846C204.968 89.3064 205.09 89.3064 205.212 89.3126H206.264L206.852 89.3517C207.016 89.3517 207.174 89.3908 207.308 89.3958C207.313 89.393 207.32 89.3915 207.326 89.3915C207.333 89.3916 207.34 89.393 207.346 89.3958H207.396C207.432 89.3931 207.468 89.3931 207.504 89.3958C207.552 89.4021 207.601 89.4021 207.65 89.3958H207.77C207.803 89.4013 207.837 89.4013 207.871 89.3958H207.966C210.188 89.7304 212.28 90.6504 214.026 92.0609C214.973 92.8475 215.789 93.7788 216.445 94.82L216.894 95.914L216.926 95.9711L224.524 114.283L225.083 115.62Z" fill="#66AB65"/>
<path d="M207.98 89.5095L207.65 91.5682L207.543 92.2629L207.429 92.97L205.529 105.062L201.698 92.6415L201.483 91.9472L201.268 91.2525L200.812 89.7494C201.986 89.5012 203.178 89.3471 204.377 89.2888H205.776C205.945 89.2782 206.114 89.2782 206.283 89.2888C206.498 89.2888 206.688 89.2888 206.87 89.3279C207.025 89.3344 207.18 89.3491 207.333 89.372H207.424C207.457 89.3677 207.491 89.3677 207.525 89.372C207.573 89.3685 207.622 89.3685 207.67 89.372H207.866L207.98 89.5095Z" fill="#43813C"/>
<path d="M135.699 132.308C134.56 132.308 133.678 132.737 133.052 133.594C132.428 134.444 132.115 135.632 132.115 137.158C132.115 140.333 133.309 141.92 135.699 141.92C136.701 141.92 137.916 141.67 139.342 141.17V143.702C138.17 144.188 136.862 144.432 135.417 144.432C133.34 144.432 131.751 143.806 130.651 142.552C129.551 141.293 129.001 139.488 129.001 137.138C129.001 135.658 129.271 134.363 129.811 133.253C130.352 132.136 131.127 131.282 132.136 130.692C133.151 130.095 134.34 129.796 135.701 129.796C137.088 129.796 138.481 130.13 139.881 130.799L138.904 133.253C138.379 133.003 137.841 132.782 137.292 132.591C136.781 132.408 136.242 132.312 135.699 132.308ZM144.601 138.774C144.601 139.852 144.777 140.667 145.129 141.219C145.487 141.77 146.066 142.046 146.867 142.046C147.661 142.046 148.23 141.774 148.576 141.228C148.927 140.677 149.103 139.859 149.103 138.774C149.103 137.697 148.927 136.89 148.576 136.352C148.224 135.814 147.648 135.545 146.847 135.544C146.053 135.544 145.48 135.813 145.129 136.352C144.777 136.882 144.601 137.69 144.601 138.774ZM152.15 138.774C152.15 140.547 151.681 141.933 150.744 142.933C149.806 143.932 148.5 144.432 146.826 144.432C145.778 144.432 144.853 144.205 144.052 143.75C143.252 143.29 142.636 142.631 142.207 141.774C141.778 140.917 141.563 139.917 141.563 138.774C141.563 136.995 142.028 135.613 142.959 134.626C143.89 133.64 145.199 133.146 146.886 133.145C147.934 133.145 148.859 133.373 149.659 133.827C150.46 134.282 151.075 134.934 151.505 135.785C151.935 136.636 152.15 137.632 152.15 138.774ZM153.717 140.109V137.674H158.963V140.109H153.717ZM163.576 138.774C163.576 139.852 163.752 140.667 164.104 141.219C164.462 141.77 165.041 142.046 165.842 142.046C166.636 142.046 167.206 141.774 167.551 141.228C167.902 140.677 168.078 139.859 168.078 138.774C168.078 137.697 167.902 136.89 167.551 136.352C167.2 135.814 166.623 135.545 165.822 135.544C165.028 135.544 164.455 135.813 164.104 136.352C163.753 136.882 163.578 137.69 163.578 138.774H163.576ZM171.125 138.774C171.125 140.547 170.656 141.933 169.719 142.933C168.781 143.932 167.475 144.432 165.801 144.432C164.753 144.432 163.828 144.205 163.028 143.75C162.227 143.29 161.611 142.631 161.182 141.774C160.752 140.917 160.537 139.917 160.537 138.774C160.537 136.995 161.003 135.613 161.934 134.626C162.865 133.64 164.173 133.146 165.859 133.146C166.908 133.146 167.832 133.373 168.633 133.828C169.433 134.282 170.048 134.935 170.478 135.785C170.91 136.636 171.126 137.632 171.127 138.774H171.125ZM179.656 144.432C178.373 144.432 177.368 143.968 176.639 143.04H176.482C176.587 143.949 176.639 144.475 176.639 144.617V149.028H173.661V133.351H176.083L176.503 134.762H176.64C177.336 133.685 178.368 133.146 179.735 133.146C181.024 133.146 182.033 133.642 182.762 134.636C183.49 135.629 183.855 137.008 183.855 138.774C183.855 139.937 183.683 140.946 183.338 141.803C182.999 142.66 182.514 143.312 181.883 143.76C181.253 144.208 180.511 144.432 179.658 144.432H179.656ZM178.777 135.522C178.042 135.522 177.505 135.749 177.166 136.204C176.827 136.652 176.651 137.395 176.639 138.433V138.755C176.639 139.924 176.811 140.761 177.157 141.267C177.508 141.774 178.061 142.027 178.817 142.027C180.151 142.027 180.818 140.93 180.818 138.736C180.818 137.664 180.652 136.862 180.32 136.33C179.996 135.791 179.483 135.522 178.779 135.522H178.777ZM195.053 140.284C195.053 141.569 194.587 142.582 193.656 143.322C192.732 144.062 191.443 144.432 189.789 144.432C188.266 144.432 186.918 144.147 185.747 143.575V140.771C186.71 141.199 187.524 141.501 188.188 141.676C188.858 141.851 189.47 141.939 190.023 141.939C190.687 141.939 191.195 141.813 191.547 141.559C191.905 141.306 192.084 140.93 192.084 140.43C192.088 140.164 192.005 139.905 191.848 139.69C191.692 139.469 191.461 139.258 191.155 139.056C190.856 138.856 190.241 138.534 189.31 138.093C188.437 137.683 187.783 137.291 187.347 136.914C186.917 136.547 186.563 136.1 186.302 135.6C186.041 135.1 185.91 134.515 185.91 133.847C185.91 132.587 186.336 131.598 187.189 130.878C188.048 130.157 189.233 129.797 190.744 129.797C191.458 129.793 192.17 129.882 192.862 130.06C193.587 130.252 194.295 130.499 194.981 130.8L194.01 133.145C193.248 132.833 192.617 132.615 192.115 132.493C191.636 132.372 191.144 132.31 190.65 132.308C190.078 132.308 189.638 132.441 189.332 132.707C189.026 132.974 188.873 133.321 188.873 133.749C188.868 133.996 188.932 134.239 189.059 134.45C189.182 134.645 189.378 134.837 189.647 135.025C189.92 135.207 190.561 135.538 191.57 136.018C192.905 136.655 193.819 137.294 194.313 137.936C194.807 138.573 195.054 139.356 195.055 140.284H195.053ZM207.256 144.237H204.278V137.878C204.278 137.093 204.145 136.506 203.878 136.116C203.617 135.72 203.203 135.522 202.637 135.522C201.876 135.522 201.322 135.801 200.977 136.359C200.632 136.918 200.46 137.836 200.46 139.115V144.237H197.483V133.351H199.758L200.158 134.743H200.324C200.617 134.243 201.04 133.853 201.594 133.574C202.146 133.288 202.781 133.145 203.497 133.145C205.131 133.145 206.238 133.677 206.818 134.742H207.082C207.374 134.235 207.804 133.842 208.37 133.563C208.943 133.284 209.588 133.145 210.304 133.145C211.541 133.145 212.475 133.463 213.107 134.099C213.744 134.729 214.063 135.742 214.063 137.137V144.236H211.075V137.878C211.075 137.093 210.942 136.506 210.675 136.116C210.414 135.72 210 135.522 209.435 135.522C208.706 135.522 208.159 135.782 207.794 136.301C207.437 136.82 207.258 137.645 207.257 138.774L207.256 144.237ZM224.136 144.237L223.562 142.757H223.484C222.983 143.386 222.465 143.824 221.931 144.072C221.404 144.312 220.714 144.432 219.861 144.432C218.813 144.432 217.986 144.133 217.381 143.536C216.782 142.938 216.483 142.088 216.483 140.985C216.483 139.829 216.886 138.978 217.693 138.433C218.507 137.881 219.731 137.576 221.365 137.517L223.259 137.459V136.982C223.259 135.879 222.693 135.327 221.56 135.327C220.688 135.327 219.662 135.59 218.484 136.116L217.498 134.11C218.755 133.454 220.148 133.126 221.678 133.126C223.142 133.126 224.265 133.444 225.047 134.08C225.828 134.716 226.219 135.684 226.219 136.982V144.237L224.136 144.237ZM223.257 139.193L222.105 139.232C221.24 139.258 220.595 139.414 220.171 139.699C219.748 139.984 219.537 140.419 219.537 141.004C219.537 141.842 220.019 142.261 220.982 142.261C221.672 142.261 222.223 142.063 222.632 141.667C223.05 141.27 223.259 140.744 223.257 140.089V139.193ZM235.463 133.145C235.866 133.145 236.201 133.175 236.469 133.233L236.244 136.018C235.957 135.948 235.661 135.915 235.365 135.921C234.414 135.921 233.672 136.164 233.139 136.651C232.611 137.138 232.347 137.82 232.348 138.696V144.237H229.37V133.351H231.626L232.065 135.181H232.211C232.537 134.585 233.007 134.079 233.579 133.711C234.137 133.341 234.792 133.144 235.463 133.145ZM243.125 142.066C243.647 142.066 244.272 141.952 245 141.725V143.935C244.258 144.267 243.346 144.432 242.266 144.432C241.074 144.432 240.205 144.133 239.658 143.536C239.118 142.932 238.848 142.03 238.848 140.829V135.581H237.422V134.324L239.063 133.331L239.922 131.033H241.826V133.351H244.882V135.581H241.826V140.829C241.826 141.251 241.944 141.563 242.179 141.764C242.419 141.965 242.734 142.066 243.125 142.066V142.066Z" fill="#081C6A"/>
</g>
</g>
<defs>
<linearGradient id="paint0_linear_3042_18184" x1="180.5" y1="6.96459e-06" x2="180.5" y2="220" gradientUnits="userSpaceOnUse">
<stop stop-color="#C8E9FF"/>
<stop offset="1" stop-color="#D8F1FF"/>
<stop offset="1" stop-color="#FBFEFF"/>
</linearGradient>
<linearGradient id="paint1_linear_3042_18184" x1="307.6" y1="227.064" x2="278.718" y2="273.174" gradientUnits="userSpaceOnUse">
<stop stop-color="#E1AC00"/>
<stop offset="1" stop-color="#F8C100"/>
</linearGradient>
<linearGradient id="paint2_linear_3042_18184" x1="214.793" y1="150.687" x2="214.793" y2="199.932" gradientUnits="userSpaceOnUse">
<stop stop-color="white"/>
<stop offset="1" stop-color="white" stop-opacity="0"/>
</linearGradient>
<linearGradient id="paint3_linear_3042_18184" x1="312.999" y1="193.316" x2="387.871" y2="135.745" gradientUnits="userSpaceOnUse">
<stop stop-color="#368E61"/>
<stop offset="1" stop-color="#91DC88"/>
</linearGradient>
<linearGradient id="paint4_linear_3042_18184" x1="255.626" y1="167.445" x2="265.016" y2="157.996" gradientUnits="userSpaceOnUse">
<stop stop-color="#3C9668"/>
<stop offset="1" stop-color="#9DD496"/>
</linearGradient>
<linearGradient id="paint5_linear_3042_18184" x1="300.052" y1="164.4" x2="311.238" y2="154.91" gradientUnits="userSpaceOnUse">
<stop stop-color="#3C9668"/>
<stop offset="1" stop-color="#9DD496"/>
</linearGradient>
<linearGradient id="paint6_linear_3042_18184" x1="356.722" y1="144.659" x2="367.425" y2="137.526" gradientUnits="userSpaceOnUse">
<stop stop-color="#3C9668"/>
<stop offset="1" stop-color="#9DD496"/>
</linearGradient>
<linearGradient id="paint7_linear_3042_18184" x1="275.346" y1="176.862" x2="262.015" y2="241.868" gradientUnits="userSpaceOnUse">
<stop stop-color="#9FD685"/>
<stop offset="1" stop-color="#268124"/>
</linearGradient>
<linearGradient id="paint8_linear_3042_18184" x1="45" y1="197" x2="45" y2="207" gradientUnits="userSpaceOnUse">
<stop stop-color="#268B74"/>
<stop offset="1" stop-color="#00604F"/>
</linearGradient>
<clipPath id="clip0_3042_18184">
<rect width="375" height="220" fill="white"/>
</clipPath>
<clipPath id="clip1_3042_18184">
<rect width="116" height="97.028" fill="white" transform="translate(129 52)"/>
</clipPath>
</defs>
</svg>
