<svg width="18" height="18" viewBox="0 0 18 18" fill="none" xmlns="http://www.w3.org/2000/svg">
<path d="M8.99999 0.666687C4.39999 0.666687 0.666656 4.40002 0.666656 9.00002C0.666656 13.6 4.39999 17.3334 8.99999 17.3334C13.6 17.3334 17.3333 13.6 17.3333 9.00002C17.3333 4.40002 13.6 0.666687 8.99999 0.666687ZM12.3333 9.83335H9.83332V12.3334C9.83332 12.7917 9.45832 13.1667 8.99999 13.1667C8.54166 13.1667 8.16666 12.7917 8.16666 12.3334V9.83335H5.66666C5.20832 9.83335 4.83332 9.45835 4.83332 9.00002C4.83332 8.54169 5.20832 8.16669 5.66666 8.16669H8.16666V5.66669C8.16666 5.20835 8.54166 4.83335 8.99999 4.83335C9.45832 4.83335 9.83332 5.20835 9.83332 5.66669V8.16669H12.3333C12.7917 8.16669 13.1667 8.54169 13.1667 9.00002C13.1667 9.45835 12.7917 9.83335 12.3333 9.83335Z" fill="#031A6E"/>
</svg>
