<svg width="14" height="14" viewBox="0 0 14 14" fill="none" xmlns="http://www.w3.org/2000/svg">
<path d="M7 3.66665C6.63333 3.66665 6.33333 3.96665 6.33333 4.33331V6.33331H4.33333C3.96666 6.33331 3.66666 6.63331 3.66666 6.99998C3.66666 7.36665 3.96666 7.66665 4.33333 7.66665H6.33333V9.66665C6.33333 10.0333 6.63333 10.3333 7 10.3333C7.36666 10.3333 7.66666 10.0333 7.66666 9.66665V7.66665H9.66666C10.0333 7.66665 10.3333 7.36665 10.3333 6.99998C10.3333 6.63331 10.0333 6.33331 9.66666 6.33331H7.66666V4.33331C7.66666 3.96665 7.36666 3.66665 7 3.66665ZM7 0.333313C3.31999 0.333313 0.333328 3.31998 0.333328 6.99998C0.333328 10.68 3.31999 13.6666 7 13.6666C10.68 13.6666 13.6667 10.68 13.6667 6.99998C13.6667 3.31998 10.68 0.333313 7 0.333313ZM7 12.3333C4.06 12.3333 1.66666 9.93998 1.66666 6.99998C1.66666 4.05998 4.06 1.66665 7 1.66665C9.93999 1.66665 12.3333 4.05998 12.3333 6.99998C12.3333 9.93998 9.93999 12.3333 7 12.3333Z" fill="white"/>
</svg>
