<svg width="20" height="20" viewBox="0 0 20 20" fill="none" xmlns="http://www.w3.org/2000/svg">
<path d="M10 0.833374C4.94 0.833374 0.833328 4.94004 0.833328 10C0.833328 15.06 4.94 19.1667 10 19.1667C15.06 19.1667 19.1667 15.06 19.1667 10C19.1667 4.94004 15.06 0.833374 10 0.833374ZM7.51583 13.9325L4.22499 10.6417C3.86749 10.2842 3.86749 9.70671 4.22499 9.34921C4.58249 8.99171 5.16 8.99171 5.5175 9.34921L8.16666 11.9892L14.4733 5.68254C14.8308 5.32504 15.4083 5.32504 15.7658 5.68254C16.1233 6.04004 16.1233 6.61754 15.7658 6.97504L8.80833 13.9325C8.45999 14.29 7.87333 14.29 7.51583 13.9325Z" fill="#99F2AE"/>
</svg>
