<svg width="36" height="36" viewBox="0 0 36 36" fill="none" xmlns="http://www.w3.org/2000/svg">
<g clip-path="url(#clip0_706_3079)">
<path fill-rule="evenodd" clip-rule="evenodd" d="M23.2081 5.77076C22.9866 5.32352 22.6449 4.9468 22.2214 4.68276C21.7979 4.41872 21.3092 4.27779 20.8101 4.27578L8.7116 4.23194C7.99899 4.22962 7.31464 4.51035 6.80894 5.01244C6.30302 5.51455 6.01721 6.19708 6.01442 6.90987C5.99597 12.0248 5.95464 23.4485 5.93749 28.563C5.93517 29.2756 6.21591 29.96 6.71799 30.4657C7.22023 30.971 7.90258 31.2563 8.61507 31.2589L26.402 31.324C27.1146 31.3263 27.799 31.0456 28.3046 30.5435C28.8106 30.0414 29.0963 29.3589 29.0991 28.6461C29.0991 28.6461 29.1281 20.5758 29.1358 18.3733C29.1374 17.9562 29.0415 17.5445 28.8559 17.1711C27.9321 15.3048 24.6148 8.60761 23.2042 5.77178L23.2081 5.77076Z" fill="#FFEDEE"/>
<path fill-rule="evenodd" clip-rule="evenodd" d="M21.876 4.50036L21.8357 15.4803C21.8333 16.1929 22.1141 16.8773 22.6162 17.383C23.1183 17.8889 23.8007 18.1747 24.5135 18.1775L29.129 18.1944C29.108 17.8384 29.0161 17.4903 28.8586 17.1704C27.9348 15.3042 24.6176 8.60695 23.2069 5.77112C22.9262 5.20404 22.4544 4.75419 21.8747 4.50071L21.876 4.50036Z" fill="#F4C20D"/>
<path fill-rule="evenodd" clip-rule="evenodd" d="M12.3473 15.0141L19.6941 15.0409C19.7914 15.0411 19.885 15.0028 19.9542 14.9342C20.0233 14.8657 20.0625 14.7725 20.0632 14.6751C20.0633 14.5776 20.0248 14.484 19.9559 14.4149C19.8871 14.3457 19.7937 14.3067 19.6961 14.3064L12.3506 14.2793C12.2532 14.2791 12.1597 14.3174 12.0906 14.386C12.0214 14.4545 11.9821 14.5477 11.9815 14.6451C11.9812 14.6933 11.9905 14.7412 12.0087 14.7859C12.0269 14.8306 12.0538 14.8712 12.0878 14.9055C12.1218 14.9398 12.1622 14.967 12.2067 14.9857C12.2512 15.0043 12.299 15.014 12.3473 15.0141Z" fill="#F4C20D"/>
<path fill-rule="evenodd" clip-rule="evenodd" d="M12.3398 16.7593L18.2574 16.7798C18.3056 16.7801 18.3535 16.7709 18.3982 16.7526C18.4429 16.7344 18.4835 16.7075 18.5178 16.6735C18.5521 16.6396 18.5793 16.5992 18.598 16.5546C18.6166 16.5101 18.6263 16.4623 18.6264 16.4141C18.6267 16.3658 18.6175 16.3179 18.5993 16.2733C18.581 16.2286 18.5541 16.1879 18.5202 16.1536C18.4862 16.1193 18.4458 16.0921 18.4012 16.0734C18.3567 16.0548 18.309 16.0451 18.2607 16.045L12.3431 16.0244C12.2948 16.0241 12.247 16.0334 12.2023 16.0516C12.1576 16.0699 12.117 16.0967 12.0827 16.1307C12.0484 16.1647 12.0212 16.2051 12.0025 16.2496C11.9839 16.2941 11.9742 16.3419 11.9741 16.3902C11.9739 16.4876 12.0122 16.5811 12.0808 16.6502C12.1493 16.7194 12.2424 16.7586 12.3398 16.7593Z" fill="#F4C20D"/>
<path fill-rule="evenodd" clip-rule="evenodd" d="M9.50034 25.3257C9.12065 25.3245 8.75596 25.474 8.48644 25.7415C8.21692 26.0089 8.06459 26.3724 8.0629 26.7521C8.06338 27.1304 8.21345 27.4931 8.48034 27.7612C8.74723 28.0292 9.10931 28.1809 9.48758 28.183C9.86727 28.1842 10.2319 28.0347 10.5014 27.7673C10.7709 27.4998 10.9233 27.1363 10.925 26.7567C10.9245 26.3784 10.7744 26.0157 10.5075 25.7476C10.2406 25.4795 9.8786 25.3279 9.50034 25.3257Z" fill="#F4C20D"/>
<path fill-rule="evenodd" clip-rule="evenodd" d="M9.52092 19.7083C9.14254 19.7085 8.77957 19.8584 8.51144 20.1254C8.2433 20.3923 8.0918 20.7546 8.09002 21.133C8.0905 21.5113 8.24057 21.874 8.50746 22.142C8.77435 22.4101 9.13637 22.5618 9.51463 22.5639C9.89301 22.5638 10.256 22.4138 10.5241 22.1469C10.7923 21.8799 10.9437 21.5176 10.9455 21.1393C10.9454 20.7609 10.7955 20.3979 10.5285 20.1298C10.2616 19.8617 9.89929 19.7101 9.52092 19.7083Z" fill="#F4C20D"/>
<path fill-rule="evenodd" clip-rule="evenodd" d="M9.53942 14.0778C9.16115 14.0783 8.79843 14.2283 8.53037 14.4952C8.26231 14.7621 8.11065 15.1242 8.10852 15.5025C8.10899 15.8807 8.259 16.2435 8.52589 16.5115C8.79278 16.7796 9.15486 16.9312 9.53313 16.9334C9.91161 16.9336 10.2748 16.7838 10.543 16.5167C10.8112 16.2497 10.9626 15.8872 10.964 15.5087C10.9635 15.1305 10.8135 14.7677 10.5467 14.4996C10.2798 14.2316 9.91768 14.0799 9.53942 14.0778Z" fill="#F4C20D"/>
<path fill-rule="evenodd" clip-rule="evenodd" d="M20.2727 9.36234L20.2771 7.9947C20.2779 7.5693 20.1105 7.16084 19.8116 6.85823C19.6631 6.70871 19.4866 6.58989 19.2922 6.50861C19.0978 6.42733 18.8893 6.38517 18.6786 6.38452L9.74022 6.35272C9.31482 6.35195 8.90634 6.51928 8.60373 6.81827C8.45421 6.96672 8.33541 7.14317 8.25413 7.33757C8.17285 7.53197 8.13067 7.74049 8.13002 7.9512L8.12528 9.31754C8.12451 9.74294 8.29183 10.1514 8.59082 10.454C8.73912 10.6039 8.9156 10.7231 9.11008 10.8046C9.30456 10.8861 9.51322 10.9284 9.7241 10.929L18.6625 10.9608C19.0879 10.9616 19.4964 10.7943 19.799 10.4953C20.1001 10.1949 20.2704 9.78767 20.2727 9.36234Z" fill="#F4C20D"/>
<path fill-rule="evenodd" clip-rule="evenodd" d="M12.3252 20.636L22.9586 20.6747C23.0562 20.6748 23.1498 20.6363 23.2189 20.5675C23.288 20.4986 23.3271 20.4052 23.3274 20.3077C23.3274 20.2594 23.318 20.2117 23.2996 20.1671C23.2812 20.1226 23.2542 20.0821 23.2202 20.0479C23.1861 20.0138 23.1456 19.9867 23.1011 19.9683C23.0566 19.9498 23.0089 19.9402 22.9607 19.9402L12.3285 19.9011C12.2803 19.9008 12.2324 19.9101 12.1877 19.9283C12.143 19.9466 12.1023 19.9734 12.0681 20.0074C12.0338 20.0414 12.0065 20.0818 11.9879 20.1263C11.9692 20.1709 11.9596 20.2186 11.9594 20.2669C11.9592 20.3643 11.9976 20.4578 12.0661 20.5269C12.1347 20.5961 12.2278 20.6353 12.3252 20.636Z" fill="#F4C20D"/>
<path fill-rule="evenodd" clip-rule="evenodd" d="M12.3057 26.2627L25.645 26.3097C25.6934 26.3101 25.7413 26.301 25.7861 26.2828C25.8308 26.2647 25.8716 26.2378 25.9059 26.2038C25.9402 26.1697 25.9674 26.1293 25.986 26.0847C26.0046 26.0401 26.0141 25.9922 26.0141 25.9439C26.0143 25.8467 25.976 25.7534 25.9075 25.6844C25.839 25.6155 25.7459 25.5765 25.6487 25.5761L12.309 25.5278C12.2607 25.5275 12.2129 25.5368 12.1682 25.555C12.1235 25.5733 12.0828 25.6001 12.0485 25.6341C12.0142 25.6681 11.987 25.7085 11.9684 25.753C11.9498 25.7975 11.94 25.8453 11.9399 25.8936C11.9397 25.991 11.978 26.0845 12.0466 26.1536C12.1151 26.2228 12.2083 26.262 12.3057 26.2627Z" fill="#F4C20D"/>
<path fill-rule="evenodd" clip-rule="evenodd" d="M12.3192 22.3821L20.885 22.4136C20.9824 22.4138 21.0759 22.3754 21.1451 22.3069C21.2142 22.2383 21.2534 22.1452 21.2541 22.0478C21.2543 21.9504 21.2159 21.8569 21.1474 21.7878C21.0788 21.7186 20.9857 21.6794 20.8883 21.6787L12.3225 21.6472C12.225 21.6471 12.1313 21.6857 12.0622 21.7545C11.9931 21.8233 11.9541 21.9167 11.9538 22.0143C11.9535 22.1115 11.9919 22.2048 12.0604 22.2738C12.1289 22.3427 12.222 22.3817 12.3192 22.3821Z" fill="#F4C20D"/>
<path fill-rule="evenodd" clip-rule="evenodd" d="M12.3039 28.0091L23.0498 28.0473C23.0981 28.0478 23.146 28.0387 23.1908 28.0205C23.2356 28.0023 23.2763 27.9755 23.3106 27.9414C23.3449 27.9074 23.3722 27.8669 23.3908 27.8223C23.4093 27.7777 23.4189 27.7299 23.4189 27.6816C23.4191 27.5844 23.3807 27.491 23.3122 27.4221C23.2437 27.3531 23.1506 27.3142 23.0534 27.3138L12.3072 27.2742C12.2098 27.274 12.1163 27.3124 12.0472 27.3809C11.978 27.4495 11.9388 27.5426 11.9381 27.64C11.9379 27.7374 11.9762 27.8309 12.0448 27.9001C12.1133 27.9692 12.2065 28.0084 12.3039 28.0091Z" fill="#F4C20D"/>
<ellipse cx="27.7449" cy="28.9333" rx="4.5" ry="4.5" fill="#3CBA54"/>
<path d="M25.0449 28.6762L27.0086 30.7333L30.4449 27.1333" stroke="#F4C20D" stroke-linecap="round" stroke-linejoin="round"/>
</g>
<defs>
<clipPath id="clip0_706_3079">
<rect width="36" height="36" fill="white"/>
</clipPath>
</defs>
</svg>
