<svg width="40" height="40" viewBox="0 0 40 40" fill="none" xmlns="http://www.w3.org/2000/svg">
<path fill-rule="evenodd" clip-rule="evenodd" d="M20.4099 32.0746H10.3771C7.52782 32.0746 5.21741 29.8295 5.21741 27.0608V8.39271C5.21741 5.62398 7.52782 3.37891 10.3771 3.37891H20.4099C23.2592 3.37891 25.5697 5.62398 25.5697 8.39271V27.0608C25.5697 29.8295 23.2592 32.0746 20.4099 32.0746Z" fill="#C29000"/>
<path fill-rule="evenodd" clip-rule="evenodd" d="M18.4082 36.5307L9.45008 32.9436C6.49913 31.4218 4.99878 29.9516 4.99878 27.1828V9.26172C4.99878 6.49299 6.31159 3.1611 9.45008 4.24792L17.614 7.73999C19.721 8.70445 22.0653 9.98505 22.0653 12.7538V31.4218C22.0653 34.1906 21.3151 37.1829 18.4082 36.5307Z" fill="#F4C20D"/>
<path fill-rule="evenodd" clip-rule="evenodd" d="M19.1172 23.1318C19.1172 19.3268 22.2933 16.2406 26.2089 16.2406C30.1246 16.2406 33.3007 19.3268 33.3007 23.1318C33.3007 26.9367 30.1246 30.0229 26.2089 30.0229C22.2932 30.0229 19.1172 26.9367 19.1172 23.1318Z" fill="white"/>
<path fill-rule="evenodd" clip-rule="evenodd" d="M18.1654 24.2965C18.0794 24.2909 17.9934 24.3244 17.9361 24.3912C17.8788 24.4581 17.8558 24.5416 17.8673 24.6252C18.5897 28.4245 22.018 31.3047 26.1343 31.3047C30.7781 31.3047 34.5447 27.6446 34.5447 23.1322C34.5447 18.6198 30.7781 14.9597 26.1343 14.9597C22.018 14.9597 18.5897 17.8398 17.8673 21.6392C17.8501 21.7228 17.873 21.8119 17.9361 21.8732C17.9934 21.9344 18.0794 21.9734 18.1654 21.9679L20.3841 21.8453C20.5045 21.8397 20.6134 21.7562 20.6421 21.6448C21.3129 19.3106 23.5201 17.5947 26.1343 17.5947C29.2818 17.5947 31.8387 20.0793 31.8387 23.1378C31.8387 26.1962 29.2818 28.6808 26.1343 28.6808C23.5201 28.6808 21.3129 26.965 20.6421 24.6308C20.6077 24.5138 20.5045 24.4358 20.3841 24.4302L18.1654 24.2965Z" fill="#DB3236"/>
<path fill-rule="evenodd" clip-rule="evenodd" d="M24.264 24.7959C24.0534 25.4261 24.192 26.1425 24.6964 26.6542C25.4225 27.3921 26.6309 27.419 27.3903 26.7134L29.8126 24.4673C30.1895 24.1172 30.4001 23.6325 30.4001 23.1315C30.4001 22.6252 30.1895 22.1405 29.8126 21.7958L27.3903 19.5497C26.6309 18.8441 25.4225 18.871 24.6964 19.6089C24.192 20.1206 24.0534 20.837 24.264 21.4672L19.2864 21.7311C18.4993 21.7365 17.8618 22.3559 17.8618 23.1262C17.8618 23.891 18.4993 24.5158 19.2919 24.5212C19.2864 24.5212 24.264 24.7959 24.264 24.7959Z" fill="#AD162A"/>
</svg>
