<svg width="52" height="52" viewBox="0 0 52 52" fill="none" xmlns="http://www.w3.org/2000/svg">
<path fill-rule="evenodd" clip-rule="evenodd" d="M15.7936 20.1513C15.721 20.13 15.644 20.1293 15.571 20.149C15.498 20.1688 15.4319 20.2083 15.38 20.2633C14.7556 20.9295 14.0011 21.4604 13.1631 21.8231C12.3252 22.1858 11.4217 22.3726 10.5086 22.3719C10.0621 22.3729 9.61676 22.3279 9.17953 22.2375C9.11522 22.224 9.04855 22.2264 8.98535 22.2443C8.92215 22.2623 8.86426 22.2953 8.81662 22.3405C8.76869 22.3856 8.7324 22.4416 8.71081 22.5038C8.68923 22.5659 8.68298 22.6324 8.69266 22.6975C8.70895 22.8087 8.73188 22.9189 8.76135 23.0275L14.9887 46.2657C15.1932 47.0309 15.6933 47.6836 16.379 48.0801C16.7188 48.2764 17.0937 48.4037 17.4827 48.455C17.8717 48.5062 18.2669 48.4804 18.6459 48.3788L28.19 45.8222C28.2856 45.7963 28.3685 45.7366 28.4234 45.6542C28.4783 45.5718 28.5015 45.4723 28.4887 45.3742C28.4757 45.276 28.4275 45.1858 28.3531 45.1205C28.2786 45.0551 28.183 45.019 28.084 45.0187H20.8875C20.3123 45.0188 19.7607 44.7905 19.3538 44.3841C19.1522 44.1827 18.9923 43.9437 18.8831 43.6805C18.7739 43.4174 18.7177 43.1353 18.7176 42.8504V20.886C18.7174 20.8318 18.7065 20.7781 18.6855 20.7282C18.6645 20.6782 18.6338 20.6328 18.5952 20.5948C18.5558 20.5563 18.509 20.5261 18.4577 20.5061C18.4064 20.4861 18.3515 20.4766 18.2965 20.4783C18.2263 20.4783 18.1546 20.4783 18.0814 20.4783C17.3066 20.4788 16.5356 20.3682 15.7921 20.1498L15.7936 20.1513Z" fill="#FFEDEE"/>
<path fill-rule="evenodd" clip-rule="evenodd" d="M9.33338 25.1391C11.2887 25.0179 13.1326 24.1868 14.5184 22.802C15.3195 23.0138 16.1448 23.1207 16.9734 23.1201C17.5602 23.1207 18.1456 23.0662 18.7222 22.9573V20.8786C18.722 20.8243 18.711 20.7707 18.69 20.7207C18.669 20.6707 18.6383 20.6254 18.5997 20.5873C18.5603 20.5488 18.5135 20.5186 18.4622 20.4986C18.4109 20.4786 18.3561 20.4691 18.301 20.4708C18.2308 20.4708 18.1591 20.4708 18.086 20.4708C17.3111 20.4713 16.5401 20.3607 15.7966 20.1423C15.724 20.1211 15.6471 20.1203 15.5741 20.1401C15.5011 20.1598 15.4349 20.1994 15.383 20.2543C14.7586 20.9205 14.004 21.4514 13.1661 21.8141C12.3282 22.1768 11.4247 22.3636 10.5117 22.3629C10.0652 22.364 9.61981 22.3189 9.18258 22.2285C9.11827 22.2151 9.05161 22.2174 8.9884 22.2354C8.9252 22.2533 8.86731 22.2863 8.81967 22.3316C8.77174 22.3767 8.73545 22.4327 8.71387 22.4948C8.69228 22.557 8.68604 22.6234 8.69571 22.6885C8.712 22.7998 8.73493 22.91 8.7644 23.0185L9.33192 25.1361L9.33338 25.1391Z" fill="#FCC3C6" style="mix-blend-mode:multiply"/>
<path fill-rule="evenodd" clip-rule="evenodd" d="M18.7177 21.2295C18.2823 21.3173 17.8401 21.3673 17.3961 21.3788C17.2894 21.3816 17.188 21.4259 17.1135 21.5023C17.039 21.5788 16.9973 21.6813 16.9973 21.788V43.7464C16.9975 44.5385 17.3123 45.298 17.8725 45.858C18.4327 46.4176 19.1922 46.7319 19.984 46.7316H24.7628L28.1886 45.8147C28.2571 45.7964 28.3197 45.7604 28.37 45.7103C28.4203 45.6603 28.4566 45.5979 28.4753 45.5295L26.5444 45.0113H20.886C20.3109 45.0113 19.7593 44.7831 19.3523 44.3766C19.1508 44.1753 18.9908 43.9362 18.8817 43.6731C18.7725 43.4099 18.7163 43.1278 18.7162 42.8429V21.2295H18.7177Z" fill="#FCC3C6" style="mix-blend-mode:multiply"/>
<path fill-rule="evenodd" clip-rule="evenodd" d="M26.0007 15.7982C25.9447 15.7977 25.8893 15.8088 25.8379 15.8309C25.7865 15.8531 25.7402 15.8856 25.702 15.9266C25.6642 15.9662 25.6349 16.0131 25.6159 16.0645C25.5968 16.1158 25.5886 16.1706 25.5916 16.2253C25.5916 16.3059 25.6035 16.388 25.614 16.4687C25.7036 17.2676 25.8723 18.5594 26.0007 19.551C26.0142 19.6508 26.0044 19.7524 25.972 19.8477C25.9396 19.9431 25.8855 20.0296 25.814 20.1005C25.7426 20.1716 25.6557 20.2253 25.5601 20.2574C25.4646 20.2895 25.3629 20.2992 25.263 20.2857L22.2583 19.875C21.7179 19.8023 21.1679 19.8581 20.653 20.0378C19.8954 20.3035 19.1006 20.4482 18.2979 20.4664C18.1916 20.4692 18.0906 20.5133 18.0164 20.5894C17.9422 20.6656 17.9007 20.7678 17.9008 20.8741V42.8504C17.9009 43.6418 18.2151 44.4007 18.7744 44.9605C19.3344 45.5207 20.0939 45.8355 20.886 45.8356H30.7675C30.8666 45.8354 30.9622 45.7993 31.0367 45.7339C31.1111 45.6686 31.1593 45.5784 31.1723 45.4802C31.1858 45.382 31.1628 45.2822 31.1078 45.1996C31.0528 45.1171 30.9695 45.0576 30.8736 45.0322L23.922 43.17C23.3664 43.0207 22.8927 42.6571 22.6048 42.159C22.3181 41.6617 22.2402 41.0709 22.3883 40.5163L28.6141 17.2781C28.6929 16.9839 28.8329 16.7097 29.0248 16.4732C29.0729 16.4133 29.1032 16.341 29.1122 16.2647C29.1212 16.1883 29.1085 16.111 29.0756 16.0416C29.0428 15.9716 28.9906 15.9124 28.9252 15.8711C28.8599 15.8298 28.784 15.8081 28.7067 15.8086L26.0007 15.7982Z" fill="#FFEDEE"/>
<path fill-rule="evenodd" clip-rule="evenodd" d="M26.286 15.7982H26.0007C25.9447 15.7977 25.8893 15.8088 25.8379 15.8309C25.7865 15.853 25.7402 15.8856 25.702 15.9266C25.6642 15.9661 25.6349 16.0131 25.6159 16.0645C25.5968 16.1158 25.5886 16.1705 25.5916 16.2252C25.5916 16.3059 25.6035 16.388 25.614 16.4687C25.7036 17.2676 25.8723 18.5594 26.0007 19.551C26.0142 19.6508 26.0044 19.7523 25.972 19.8477C25.9396 19.9431 25.8855 20.0296 25.814 20.1005C25.7426 20.1716 25.6557 20.2252 25.5601 20.2574C25.4646 20.2895 25.3629 20.2992 25.263 20.2857L22.2583 19.875C21.7179 19.8023 21.1679 19.8581 20.653 20.0378C19.8954 20.3035 19.1006 20.4482 18.2979 20.4664C18.1916 20.4691 18.0906 20.5133 18.0164 20.5894C17.9422 20.6656 17.9007 20.7678 17.9008 20.8741V23.0708C18.6254 22.9999 19.3389 22.8419 20.0258 22.6004C20.4484 22.4534 20.8997 22.4083 21.3429 22.469L24.5746 22.9095C24.8157 22.9423 25.061 22.919 25.2916 22.8412C25.5221 22.7635 25.7316 22.6336 25.9037 22.4615C26.0752 22.2895 26.2049 22.0802 26.2825 21.85C26.3602 21.6198 26.3839 21.3748 26.3517 21.1339C26.2128 20.0736 26.0321 18.6863 25.9365 17.8321C25.9358 17.8297 25.9358 17.8271 25.9365 17.8246C25.8804 17.3928 25.9243 16.9539 26.065 16.5418C26.1456 16.2969 26.2168 16.048 26.2785 15.7952L26.286 15.7982Z" fill="#FCC3C6" style="mix-blend-mode:multiply"/>
<path fill-rule="evenodd" clip-rule="evenodd" d="M29.1056 16.1104C28.7965 16.1762 28.4997 16.29 28.226 16.4479C27.5406 16.844 27.0406 17.4961 26.8357 18.2608L20.6083 41.5065C20.4037 42.2714 20.5111 43.0862 20.907 43.7719C21.3029 44.4579 21.955 44.9585 22.72 45.1637L25.2288 45.8357H30.7692C30.8682 45.8355 30.9638 45.7994 31.0383 45.734C31.1127 45.6686 31.1609 45.5785 31.1739 45.4803C31.1874 45.3821 31.1644 45.2822 31.1094 45.1997C31.0544 45.1172 30.9711 45.0576 30.8752 45.0323L23.9236 43.1701C23.3681 43.0207 22.8943 42.6572 22.6064 42.1591C22.3197 41.6618 22.2418 41.071 22.39 40.5164L28.6158 17.2782C28.6946 16.984 28.8345 16.7098 29.0264 16.4733C29.0659 16.4246 29.0936 16.3675 29.1073 16.3063C29.121 16.2452 29.1204 16.1817 29.1056 16.1208V16.1104Z" fill="#FCC3C6" style="mix-blend-mode:multiply"/>
<path fill-rule="evenodd" clip-rule="evenodd" d="M46.6211 20.7097C46.51 20.1664 46.2499 19.6648 45.8698 19.2609C45.4897 18.8571 45.0047 18.5671 44.4691 18.4233L31.4844 14.9438C30.7195 14.7391 29.9046 14.8466 29.2189 15.2425C28.533 15.6383 28.0323 16.2905 27.8271 17.0554C26.3561 22.545 23.0707 34.8055 21.6013 40.2951C21.3966 41.06 21.504 41.8749 21.8999 42.5606C22.2961 43.246 22.9482 43.746 23.7129 43.9509L42.8026 49.0671C43.5674 49.2718 44.3823 49.1644 45.068 48.7685C45.7539 48.3726 46.2546 47.7205 46.4598 46.9555C46.4598 46.9555 48.7805 38.294 49.4137 35.93C49.5337 35.4824 49.5475 35.013 49.454 34.5591C48.9911 32.2922 47.3275 24.1564 46.6166 20.7097H46.6211Z" fill="#FFEDEE"/>
<path fill-rule="evenodd" clip-rule="evenodd" d="M45.5504 18.967L42.3919 30.7512C42.1873 31.516 42.2947 32.3309 42.6906 33.0166C43.0865 33.7025 43.7385 34.2032 44.5035 34.4084L49.457 35.736C49.5354 35.3477 49.5354 34.9476 49.457 34.5592C48.9941 32.2923 47.3305 24.1565 46.6196 20.7098C46.479 20.0209 46.0997 19.4038 45.5488 18.967H45.5504Z" fill="#FCC3C6"/>
<path fill-rule="evenodd" clip-rule="evenodd" d="M32.3312 27.5583L40.2161 29.6715C40.3207 29.6993 40.432 29.6846 40.5258 29.6306C40.6195 29.5766 40.6881 29.4877 40.7164 29.3832C40.7442 29.2785 40.7294 29.167 40.675 29.0732C40.6207 28.9794 40.5314 28.911 40.4267 28.883L32.5432 26.7698C32.4387 26.742 32.3274 26.7567 32.2336 26.8107C32.1399 26.8647 32.0713 26.9536 32.0429 27.0581C32.0289 27.1098 32.0253 27.1639 32.0322 27.2171C32.0391 27.2703 32.0565 27.3216 32.0833 27.368C32.11 27.4145 32.1457 27.4552 32.1883 27.4879C32.2308 27.5205 32.2794 27.5445 32.3312 27.5583Z" fill="#DB3236"/>
<path fill-rule="evenodd" clip-rule="evenodd" d="M31.8279 29.431L38.1792 31.1319C38.2309 31.1459 38.2849 31.1496 38.3381 31.1427C38.3913 31.1358 38.4426 31.1184 38.4891 31.0916C38.5355 31.0649 38.5763 31.0292 38.6089 30.9866C38.6416 30.9441 38.6655 30.8955 38.6794 30.8437C38.6934 30.7919 38.6971 30.7379 38.6902 30.6847C38.6833 30.6315 38.6659 30.5802 38.6391 30.5338C38.6124 30.4873 38.5767 30.4466 38.5341 30.4139C38.4916 30.3812 38.443 30.3573 38.3912 30.3434L32.0399 28.6425C31.9881 28.6285 31.9341 28.6248 31.8809 28.6318C31.8278 28.6387 31.7765 28.656 31.73 28.6828C31.6835 28.7096 31.6428 28.7452 31.6101 28.7878C31.5775 28.8303 31.5535 28.8789 31.5397 28.9307C31.5118 29.0353 31.5265 29.1466 31.5805 29.2404C31.6345 29.3341 31.7234 29.4027 31.8279 29.431Z" fill="#DB3236"/>
<path fill-rule="evenodd" clip-rule="evenodd" d="M26.3472 37.8282C25.9397 37.7192 25.5055 37.7763 25.14 37.9872C24.7746 38.198 24.5079 38.5453 24.3983 38.9527C24.2915 39.3592 24.3498 39.7915 24.5605 40.1552C24.7712 40.5189 25.1171 40.7845 25.5229 40.8941C25.9304 41.0032 26.3645 40.946 26.73 40.7351C27.0954 40.5243 27.3621 40.177 27.4717 39.7696C27.5785 39.3631 27.5202 38.9308 27.3095 38.5672C27.0988 38.2035 26.753 37.9378 26.3472 37.8282Z" fill="#DB3236"/>
<path fill-rule="evenodd" clip-rule="evenodd" d="M27.963 31.7995C27.5565 31.6923 27.124 31.7504 26.7602 31.9611C26.3964 32.1718 26.1309 32.518 26.0216 32.924C25.9148 33.3305 25.9731 33.7627 26.1838 34.1264C26.3944 34.4901 26.7403 34.7557 27.1461 34.8654C27.5526 34.9726 27.9851 34.9145 28.3489 34.7037C28.7127 34.493 28.9782 34.1468 29.0875 33.7409C29.1947 33.3343 29.1366 32.9019 28.9259 32.5381C28.7151 32.1743 28.369 31.9087 27.963 31.7995Z" fill="#DB3236"/>
<path fill-rule="evenodd" clip-rule="evenodd" d="M29.5804 25.7559C29.1739 25.6491 28.7417 25.7073 28.378 25.918C28.0143 26.1287 27.7487 26.4746 27.6391 26.8804C27.5323 27.2869 27.5905 27.7191 27.8012 28.0828C28.0118 28.4465 28.3578 28.7121 28.7635 28.8218C29.1701 28.9294 29.6027 28.8714 29.9666 28.6607C30.3305 28.4499 30.596 28.1034 30.7049 27.6972C30.8117 27.2907 30.7535 26.8585 30.5428 26.4948C30.3321 26.1311 29.9862 25.8655 29.5804 25.7559Z" fill="#DB3236"/>
<path fill-rule="evenodd" clip-rule="evenodd" d="M42.4487 23.7354L42.8414 22.2674C42.963 21.8106 42.8991 21.3243 42.6637 20.9144C42.5467 20.7117 42.3908 20.534 42.205 20.3915C42.0192 20.249 41.8072 20.1446 41.581 20.0841L31.9877 17.514C31.5309 17.3925 31.0446 17.4564 30.6347 17.6917C30.432 17.8088 30.2543 17.9647 30.1118 18.1504C29.9694 18.3362 29.8649 18.5483 29.8044 18.7744L29.4117 20.2409C29.2902 20.6977 29.354 21.184 29.5894 21.5939C29.7062 21.797 29.8619 21.9751 30.0477 22.1178C30.2335 22.2606 30.4457 22.3652 30.6721 22.4257L40.2654 24.9958C40.7222 25.1173 41.2085 25.0534 41.6184 24.8181C42.0271 24.5808 42.3255 24.1916 42.4487 23.7354Z" fill="#DB3236"/>
<path fill-rule="evenodd" clip-rule="evenodd" d="M30.7124 33.5915L42.1247 36.6499C42.2295 36.6777 42.341 36.6629 42.4348 36.6085C42.5285 36.5542 42.597 36.4649 42.625 36.3602C42.6388 36.3084 42.6421 36.2545 42.635 36.2014C42.6279 36.1483 42.6104 36.0971 42.5835 36.0508C42.5566 36.0045 42.5208 35.9639 42.4782 35.9314C42.4356 35.8989 42.3871 35.8751 42.3353 35.8614L30.9245 32.803C30.8727 32.789 30.8186 32.7854 30.7655 32.7923C30.7123 32.7992 30.661 32.8165 30.6145 32.8433C30.568 32.8701 30.5273 32.9058 30.4946 32.9483C30.462 32.9909 30.4381 33.0394 30.4242 33.0912C30.3963 33.1958 30.411 33.3071 30.465 33.4009C30.5191 33.4946 30.608 33.5632 30.7124 33.5915Z" fill="#DB3236"/>
<path fill-rule="evenodd" clip-rule="evenodd" d="M29.095 39.6307L43.4119 43.4656C43.4637 43.4799 43.5177 43.4837 43.571 43.4768C43.6243 43.47 43.6756 43.4527 43.7222 43.4259C43.7687 43.3991 43.8094 43.3633 43.842 43.3207C43.8747 43.278 43.8984 43.2293 43.9121 43.1774C43.9399 43.0731 43.9252 42.9619 43.8712 42.8684C43.8172 42.7749 43.7283 42.7066 43.6239 42.6786L29.3071 38.8422C29.2553 38.8282 29.2013 38.8246 29.1481 38.8315C29.0949 38.8384 29.0436 38.8557 28.9971 38.8825C28.9506 38.9093 28.9099 38.9449 28.8773 38.9875C28.8446 39.03 28.8206 39.0786 28.8068 39.1304C28.7789 39.235 28.7936 39.3463 28.8476 39.4401C28.9016 39.5338 28.9906 39.6023 29.095 39.6307Z" fill="#DB3236"/>
<path fill-rule="evenodd" clip-rule="evenodd" d="M30.2105 35.4657L39.4037 37.9298C39.5082 37.9576 39.6196 37.9429 39.7133 37.8889C39.8071 37.8349 39.8756 37.746 39.904 37.6415C39.9318 37.537 39.9171 37.4256 39.8631 37.3319C39.8091 37.2381 39.7201 37.1696 39.6157 37.1413L30.4226 34.6772C30.3179 34.6494 30.2063 34.6643 30.1125 34.7186C30.0187 34.7729 29.9504 34.8622 29.9223 34.9669C29.8945 35.0713 29.9092 35.1824 29.9632 35.2759C30.0173 35.3695 30.1062 35.4377 30.2105 35.4657Z" fill="#DB3236"/>
<path fill-rule="evenodd" clip-rule="evenodd" d="M28.5977 41.5063L40.1309 44.5961C40.1827 44.6103 40.2368 44.6141 40.29 44.6073C40.3433 44.6005 40.3947 44.5832 40.4412 44.5564C40.4877 44.5296 40.5285 44.4938 40.5611 44.4511C40.5937 44.4085 40.6175 44.3598 40.6312 44.3079C40.6591 44.2035 40.6443 44.0924 40.5902 43.9989C40.5362 43.9054 40.4473 43.8371 40.343 43.8091L28.8097 40.7178C28.7052 40.69 28.5939 40.7047 28.5001 40.7587C28.4064 40.8127 28.3378 40.9016 28.3095 41.0061C28.2816 41.1106 28.2963 41.2219 28.3503 41.3157C28.4043 41.4095 28.4933 41.478 28.5977 41.5063Z" fill="#DB3236"/>
<path fill-rule="evenodd" clip-rule="evenodd" d="M10.8342 8.76738C10.8654 8.7051 10.8801 8.63579 10.8767 8.5662C10.8733 8.49661 10.8519 8.4291 10.8148 8.37016C10.7784 8.31071 10.7272 8.2617 10.6662 8.22793C10.6053 8.19417 10.5365 8.17681 10.4668 8.17751C8.48345 8.18777 6.58476 8.98264 5.18565 10.3885C3.78654 11.7943 3.00076 13.6968 3 15.6802C2.99942 16.4808 3.12702 17.2764 3.37786 18.0367C3.48374 18.3461 3.51694 18.6756 3.47492 18.9999C3.40025 19.663 3.25989 20.7382 3.15386 21.5595C3.1278 21.757 3.14767 21.9579 3.2119 22.1464C3.27614 22.335 3.383 22.5062 3.52421 22.6467C3.6655 22.7869 3.83716 22.8928 4.02596 22.956C4.21476 23.0192 4.41562 23.038 4.61288 23.0111L7.11871 22.6691C7.45251 22.6244 7.79217 22.6587 8.11032 22.7691C8.87808 23.0384 9.68611 23.1747 10.4997 23.1723C11.5245 23.1729 12.5384 22.9632 13.4788 22.556C14.4193 22.1489 15.2661 21.553 15.9669 20.8054C16.0143 20.7543 16.048 20.692 16.0647 20.6243C16.0815 20.5567 16.0807 20.4859 16.0625 20.4186C16.0441 20.3516 16.0089 20.2904 15.9603 20.2408C15.9117 20.1911 15.8513 20.1547 15.7847 20.1348C14.1091 19.6392 12.6385 18.6154 11.5919 17.2161C10.5454 15.8168 9.97895 14.1167 9.97702 12.3694C9.97497 11.1166 10.2655 9.88064 10.8253 8.75991L10.8342 8.76738Z" fill="#3CBA54"/>
<path fill-rule="evenodd" clip-rule="evenodd" d="M10.3668 14.8334C10.3469 14.7715 10.3125 14.7153 10.2666 14.6693C10.2206 14.6233 10.1643 14.589 10.1024 14.5691C10.0405 14.5492 9.97475 14.5443 9.91058 14.5549C9.84642 14.5656 9.78575 14.5914 9.73361 14.6303C9.57005 14.7513 9.43705 14.9088 9.34525 15.0903C9.25346 15.2718 9.20542 15.4723 9.20496 15.6757C9.20535 16.022 9.3432 16.354 9.58821 16.5987C9.83322 16.8434 10.1654 16.9809 10.5116 16.9809C10.5933 16.981 10.6748 16.9735 10.755 16.9585C10.8196 16.9473 10.8804 16.9207 10.9324 16.8809C10.9844 16.8411 11.026 16.7893 11.0537 16.73C11.0808 16.671 11.0936 16.6064 11.091 16.5416C11.0884 16.4767 11.0705 16.4133 11.0388 16.3567C10.7635 15.8722 10.5398 15.3601 10.3713 14.829L10.3668 14.8334Z" fill="white"/>
<path d="M6.9201 16.9869C7.64176 16.9869 8.22679 16.4018 8.22679 15.6802C8.22679 14.9585 7.64176 14.3735 6.9201 14.3735C6.19843 14.3735 5.6134 14.9585 5.6134 15.6802C5.6134 16.4018 6.19843 16.9869 6.9201 16.9869Z" fill="white"/>
<path fill-rule="evenodd" clip-rule="evenodd" d="M18.4937 21.2773H26.1875C26.3402 21.2774 26.4899 21.2341 26.6189 21.1524C26.748 21.0707 26.8511 20.954 26.9163 20.8158C26.9813 20.6782 27.0061 20.525 26.9879 20.3739C26.9697 20.2227 26.9091 20.0798 26.8132 19.9616C26.6713 19.7869 26.5145 19.6017 26.3742 19.4151C26.1402 19.1283 26.0058 18.7733 25.991 18.4036C25.9762 18.0338 26.0818 17.6692 26.2921 17.3647C27.3645 15.833 27.9382 14.0077 27.9348 12.1379C27.9336 9.7145 26.9702 7.3907 25.2565 5.67722C23.5427 3.96375 21.2188 3.00079 18.7953 3C16.3722 3.00119 14.0487 3.96431 12.3352 5.67773C10.6218 7.39116 9.65866 9.71476 9.65747 12.1379C9.65852 14.5103 10.5816 16.7895 12.2318 18.494C13.8819 20.1985 16.13 21.1949 18.5012 21.2728L18.4937 21.2773Z" fill="#F4C20D"/>
<path d="M13.6537 13.8926C14.4908 13.8926 15.1695 13.214 15.1695 12.3768C15.1695 11.5397 14.4908 10.8611 13.6537 10.8611C12.8166 10.8611 12.1379 11.5397 12.1379 12.3768C12.1379 13.214 12.8166 13.8926 13.6537 13.8926Z" fill="white"/>
<path d="M18.0845 13.8926C18.9216 13.8926 19.6003 13.214 19.6003 12.3768C19.6003 11.5397 18.9216 10.8611 18.0845 10.8611C17.2474 10.8611 16.5687 11.5397 16.5687 12.3768C16.5687 13.214 17.2474 13.8926 18.0845 13.8926Z" fill="white"/>
<path d="M22.5138 13.8926C23.3509 13.8926 24.0296 13.214 24.0296 12.3768C24.0296 11.5397 23.3509 10.8611 22.5138 10.8611C21.6767 10.8611 20.998 11.5397 20.998 12.3768C20.998 13.214 21.6767 13.8926 22.5138 13.8926Z" fill="white"/>
</svg>
