<svg width="40" height="24" viewBox="0 0 40 24" fill="none" xmlns="http://www.w3.org/2000/svg">
<rect width="40" height="24" fill="#A9B0D1"/>
<path d="M12.8691 17H11.7324L7.05078 9.81055H7.00391C7.06641 10.6543 7.09766 11.4277 7.09766 12.1309V17H6.17773V8.43359H7.30273L11.9727 15.5938H12.0195C12.0117 15.4883 11.9941 15.1504 11.9668 14.5801C11.9395 14.0059 11.9297 13.5957 11.9375 13.3496V8.43359H12.8691V17ZM20.734 10.5781V11.1934L19.5445 11.334C19.6539 11.4707 19.7516 11.6504 19.8375 11.873C19.9234 12.0918 19.9664 12.3398 19.9664 12.6172C19.9664 13.2461 19.7516 13.748 19.3219 14.123C18.8922 14.498 18.3023 14.6855 17.5523 14.6855C17.3609 14.6855 17.1812 14.6699 17.0133 14.6387C16.5992 14.8574 16.3922 15.1328 16.3922 15.4648C16.3922 15.6406 16.4645 15.7715 16.609 15.8574C16.7535 15.9395 17.0016 15.9805 17.3531 15.9805H18.4898C19.1852 15.9805 19.7184 16.127 20.0895 16.4199C20.4645 16.7129 20.652 17.1387 20.652 17.6973C20.652 18.4082 20.3668 18.9492 19.7965 19.3203C19.2262 19.6953 18.3941 19.8828 17.3004 19.8828C16.4605 19.8828 15.8121 19.7266 15.3551 19.4141C14.902 19.1016 14.6754 18.6602 14.6754 18.0898C14.6754 17.6992 14.8004 17.3613 15.0504 17.0762C15.3004 16.791 15.652 16.5977 16.1051 16.4961C15.941 16.4219 15.8023 16.3066 15.6891 16.1504C15.5797 15.9941 15.525 15.8125 15.525 15.6055C15.525 15.3711 15.5875 15.166 15.7125 14.9902C15.8375 14.8145 16.0348 14.6445 16.3043 14.4805C15.9723 14.3438 15.7008 14.1113 15.4898 13.7832C15.2828 13.4551 15.1793 13.0801 15.1793 12.6582C15.1793 11.9551 15.3902 11.4141 15.8121 11.0352C16.234 10.6523 16.8316 10.4609 17.6051 10.4609C17.941 10.4609 18.2437 10.5 18.5133 10.5781H20.734ZM15.6129 18.0781C15.6129 18.4258 15.7594 18.6895 16.0523 18.8691C16.3453 19.0488 16.7652 19.1387 17.3121 19.1387C18.1285 19.1387 18.732 19.0156 19.1227 18.7695C19.5172 18.5273 19.7145 18.1973 19.7145 17.7793C19.7145 17.4316 19.607 17.1895 19.3922 17.0527C19.1773 16.9199 18.773 16.8535 18.1793 16.8535H17.0133C16.5719 16.8535 16.2281 16.959 15.982 17.1699C15.7359 17.3809 15.6129 17.6836 15.6129 18.0781ZM16.1402 12.6348C16.1402 13.084 16.2672 13.4238 16.5211 13.6543C16.775 13.8848 17.1285 14 17.5816 14C18.5309 14 19.0055 13.5391 19.0055 12.6172C19.0055 11.6523 18.525 11.1699 17.5641 11.1699C17.107 11.1699 16.7555 11.293 16.5094 11.5391C16.2633 11.7852 16.1402 12.1504 16.1402 12.6348ZM26.4016 17L26.2082 16.0859H26.1613C25.841 16.4883 25.5207 16.7617 25.2004 16.9062C24.884 17.0469 24.4875 17.1172 24.0109 17.1172C23.3742 17.1172 22.8742 16.9531 22.5109 16.625C22.1516 16.2969 21.9719 15.8301 21.9719 15.2246C21.9719 13.9277 23.009 13.248 25.0832 13.1855L26.173 13.1504V12.752C26.173 12.248 26.0637 11.877 25.8449 11.6387C25.6301 11.3965 25.2844 11.2754 24.8078 11.2754C24.2727 11.2754 23.6672 11.4395 22.9914 11.7676L22.6926 11.0234C23.009 10.8516 23.3547 10.7168 23.7297 10.6191C24.1086 10.5215 24.4875 10.4727 24.8664 10.4727C25.632 10.4727 26.1984 10.6426 26.5656 10.9824C26.9367 11.3223 27.1223 11.8672 27.1223 12.6172V17H26.4016ZM24.2043 16.3145C24.8098 16.3145 25.2844 16.1484 25.6281 15.8164C25.9758 15.4844 26.1496 15.0195 26.1496 14.4219V13.8418L25.177 13.8828C24.4035 13.9102 23.8449 14.0312 23.5012 14.2461C23.1613 14.457 22.9914 14.7871 22.9914 15.2363C22.9914 15.5879 23.0969 15.8555 23.3078 16.0391C23.5227 16.2227 23.8215 16.3145 24.2043 16.3145ZM25.3586 9.72852H24.7141C24.4602 9.52539 24.1594 9.23633 23.8117 8.86133C23.4641 8.48633 23.2121 8.17578 23.0559 7.92969V7.80664H24.2453C24.3703 8.07617 24.5441 8.38867 24.7668 8.74414C24.9895 9.0957 25.1867 9.375 25.3586 9.58203V9.72852ZM28.5125 10.5781H29.5555L30.9617 14.2402C31.2703 15.0762 31.4617 15.6797 31.5359 16.0508H31.5828C31.6336 15.8516 31.7391 15.5117 31.8992 15.0312C32.0633 14.5469 32.5945 13.0625 33.493 10.5781H34.5359L31.7762 17.8906C31.5027 18.6133 31.1824 19.125 30.8152 19.4258C30.452 19.7305 30.0047 19.8828 29.4734 19.8828C29.1766 19.8828 28.8836 19.8496 28.5945 19.7832V19.0039C28.8094 19.0508 29.0496 19.0742 29.3152 19.0742C29.9832 19.0742 30.4598 18.6992 30.7449 17.9492L31.1023 17.0352L28.5125 10.5781Z" fill="#031A6E"/>
</svg>
