<svg width="20" height="20" viewBox="0 0 20 20" fill="none" xmlns="http://www.w3.org/2000/svg">
<circle cx="9.99999" cy="10" r="8.33333" fill="#BCBFD6"/>
<path d="M13.9818 6.0245C13.7353 5.77801 13.3371 5.77801 13.0906 6.0245L10 9.10882L6.90938 6.01818C6.66288 5.77169 6.2647 5.77169 6.01821 6.01818C5.77172 6.26467 5.77172 6.66285 6.01821 6.90935L9.10885 9.99998L6.01821 13.0906C5.77172 13.3371 5.77172 13.7353 6.01821 13.9818C6.2647 14.2283 6.66288 14.2283 6.90938 13.9818L10 10.8911L13.0906 13.9818C13.3371 14.2283 13.7353 14.2283 13.9818 13.9818C14.2283 13.7353 14.2283 13.3371 13.9818 13.0906L10.8912 9.99998L13.9818 6.90935C14.222 6.66917 14.222 6.26467 13.9818 6.0245Z" fill="white"/>
</svg>
