<svg width="110" height="115" viewBox="0 0 110 115" fill="none" xmlns="http://www.w3.org/2000/svg">
<path d="M99.0674 104.357C95.2439 110.225 87.3527 111.899 81.4775 108.071C75.5865 104.234 73.9444 96.3489 77.7679 90.481C81.6009 84.5973 89.4668 82.9296 95.3578 86.7665C101.233 90.594 102.9 98.473 99.0674 104.357Z" fill="#FFA940"/>
<path d="M94.2518 88.4503C89.2865 85.2267 82.6835 86.613 79.4379 91.5786C76.1924 96.5443 77.5928 103.17 82.5582 106.394C87.5235 109.617 94.1583 108.25 97.3879 103.275C100.643 98.2934 99.2172 91.6738 94.2518 88.4503Z" fill="#FFDEA9"/>
<path d="M91.2629 101.21C92.6043 99.1288 90.5184 97.3553 90.5184 97.3553C90.2098 97.1508 89.9266 96.9399 89.6846 96.732L91.7864 93.5137C92.8006 94.6302 91.6238 95.5637 91.6238 95.5637L93.58 96.8311C93.58 96.8311 96.3356 94.3225 93.0496 91.6011L93.235 91.3247C93.4675 90.9688 93.3632 90.4562 93.0069 90.2235C92.6347 89.9813 92.1219 90.085 91.8894 90.4409L91.7417 90.6538C88.467 88.8192 87.0903 90.8147 86.384 92.0057C85.6647 93.1461 84.9703 94.7521 87.472 97.2015L85.3701 100.42C84.479 99.2045 85.7611 97.8397 85.7611 97.8397L83.5281 96.3868C82.754 97.3659 81.5675 99.3669 84.5408 101.71L84.2047 102.24C83.9628 102.612 84.0671 103.124 84.4393 103.367C84.8114 103.609 85.3083 103.496 85.5503 103.124L85.8675 102.625C88.1758 103.951 89.7302 103.649 91.2629 101.21ZM88.2902 93.3937C88.2902 93.3937 89.0247 92.155 90.425 92.6205L88.5432 95.54C87.6768 94.2106 88.2902 93.3937 88.2902 93.3937ZM86.7157 101.304L88.6321 98.3617C90.1004 100.198 88.4998 101.846 86.7157 101.304Z" fill="#FFA940"/>
<path d="M93.3325 80.3123C92.4571 87.2611 86.0904 92.2148 79.1334 91.339C72.158 90.4617 67.2356 84.0861 68.111 77.1374C68.988 70.1703 75.3347 65.2334 82.3102 66.1108C89.2672 66.9865 94.2095 73.3452 93.3325 80.3123Z" fill="#FFA940"/>
<path d="M82.0511 68.1086C76.1763 67.3785 70.8426 71.5104 70.0929 77.395C69.3431 83.2797 73.4978 88.6279 79.3726 89.358C85.2474 90.0881 90.6179 85.9592 91.3492 80.073C92.1005 74.17 87.9259 68.8386 82.0511 68.1086Z" fill="#FFDEA9"/>
<path d="M84.9373 80.8915C85.2348 78.4337 82.5836 77.7498 82.5836 77.7498C82.2167 77.7007 81.8698 77.6348 81.5612 77.5535L82.0457 73.7403C83.4458 74.3015 82.7951 75.6553 82.7951 75.6553L85.1085 75.9406C85.1085 75.9406 86.4911 72.4801 82.3462 71.468L82.3922 71.1383C82.4459 70.7167 82.1281 70.3011 81.7059 70.2475C81.2654 70.1922 80.8494 70.5096 80.7957 70.9313L80.7559 71.1873C77.0088 70.9679 76.6423 73.3644 76.5273 74.7443C76.3786 76.0844 76.4557 77.8323 79.7762 78.9425L79.2917 82.7558C77.9591 82.0519 78.5161 80.2642 78.5161 80.2642L75.8727 79.9329C75.6042 81.1518 75.4112 83.4701 79.1092 84.2783L79.0387 84.9023C78.9835 85.3424 79.3013 85.7579 79.7419 85.8131C80.1825 85.8683 80.58 85.5494 80.6352 85.1094L80.7027 84.5221C83.3583 84.7062 84.6246 83.7557 84.9373 80.8915ZM78.8484 75.1599C78.8484 75.1599 78.9679 73.7248 80.4308 73.5317L80.0138 76.98C78.6536 76.1627 78.8484 75.1599 78.8484 75.1599ZM80.8882 82.9628L81.3267 79.4792C83.4498 80.4898 82.7302 82.6716 80.8882 82.9628Z" fill="#FFA940"/>
<path d="M53.8758 17.2619L21.2296 17.1049V9.88126C21.2296 7.00228 23.2515 4.6991 25.744 4.6991L49.3614 4.82124C51.8539 4.83868 53.8758 7.17677 53.8758 10.0383V17.2619Z" fill="#223889"/>
<path opacity="0.5" d="M21.2296 10.5966V17.1049L53.8758 17.2619V10.9281C47.479 10.8234 25.2908 10.6315 21.2296 10.5966Z" fill="#031A6E"/>
<path d="M71.5148 110L3.46855 109.651C1.56869 109.634 0.0174299 107.854 0.0174299 105.655L0 16.5989C0 14.4004 1.55126 12.6381 3.45112 12.6381L71.5148 12.9696C73.4147 13.0045 74.9485 14.7843 74.9485 16.9828L74.9659 106.039C74.9659 108.238 73.4321 110 71.5148 110Z" fill="#3853B6"/>
<path d="M70.1901 103.806L4.79319 103.474L4.77576 18.8323L70.1901 19.1638V103.806Z" fill="white"/>
<path d="M18.3014 72.9048H9.9873V100.107H18.3014V72.9048Z" fill="#D7D7D7"/>
<path d="M34.6854 64.4597H26.3713V100.124H34.6854V64.4597Z" fill="#BEBEBE"/>
<path d="M51 61H43V100H51V61Z" fill="#031A6E"/>
<path d="M67.471 52.5948H59.157V100.107H67.471V52.5948Z" fill="#2EB35A"/>
<g clip-path="url(#clip0_1901_10031)">
<path d="M49.6696 48.9062C48.8619 48.9062 48.1602 49.3099 47.7364 49.9089L39.1431 46.6927C38.8783 45.7161 37.9779 45 36.9054 45C35.6211 45 34.575 46.0286 34.575 47.2917C34.575 47.6693 34.6677 48.0078 34.8266 48.3203L25.6375 58.6589C25.3726 58.5547 25.0813 58.4896 24.7768 58.4896C23.4924 58.4896 22.4464 59.5182 22.4464 60.7812C22.4464 60.9115 22.4596 61.0547 22.4861 61.1849L13.8531 65.9896C13.4426 65.638 12.913 65.4167 12.3304 65.4167C11.046 65.4167 10 66.4453 10 67.7083C10 68.9714 11.046 70 12.3304 70C13.6148 70 14.6608 68.9714 14.6608 67.7083C14.6608 67.5781 14.6475 67.4349 14.6211 67.3047L23.2541 62.5C23.6646 62.8516 24.1942 63.0729 24.7768 63.0729C26.0612 63.0729 27.1072 62.0443 27.1072 60.7812C27.1072 60.3646 26.988 59.9609 26.7762 59.6224L35.9388 49.362C36.2301 49.4922 36.5612 49.5703 36.9054 49.5703C37.8323 49.5703 38.64 49.0234 39.0107 48.2552L47.3657 51.3932C47.4716 52.5651 48.4647 53.4766 49.6828 53.4766C50.9672 53.4766 52.0132 52.4479 52.0132 51.1849C52 49.9349 50.9672 48.9062 49.6696 48.9062Z" fill="#F65138"/>
</g>
<path d="M43.5922 23.5084H9.27271V25.515H43.5922V23.5084Z" fill="#CCCCCC"/>
<path d="M67.4711 23.5084H46.7295V25.515H67.4711V23.5084Z" fill="#CCCCCC"/>
<path d="M33.3782 27.6611H9.27271V29.6677H33.3782V27.6611Z" fill="#CCCCCC"/>
<path d="M67.471 27.6611H37.3696V29.6677H67.471V27.6611Z" fill="#CCCCCC"/>
<path d="M43.5922 31.6917H9.27271V33.6983H43.5922V31.6917Z" fill="#CCCCCC"/>
<path d="M67.4711 31.6917H46.7295V33.6983H67.4711V31.6917Z" fill="#CCCCCC"/>
<path d="M33.3782 35.827H9.27271V37.8335H33.3782V35.827Z" fill="#CCCCCC"/>
<path d="M67.471 35.827H37.3696V37.8335H67.471V35.827Z" fill="#CCCCCC"/>
<path d="M43.5922 40.1018H9.27271V42.1084H43.5922V40.1018Z" fill="#CCCCCC"/>
<path d="M67.4711 40.1018H46.7295V42.1084H67.4711V40.1018Z" fill="#CCCCCC"/>
<path d="M108.431 80.076L108.344 80.1458C106.096 82.1698 102.47 81.2625 99.9954 78.052L81.3977 55.0725L86.3129 50.6232L107.63 71.1774C110.575 73.9691 110.68 78.052 108.431 80.076Z" fill="#031A6E"/>
<path d="M48.6295 5.65869C31.1473 16.9129 29.8923 41.6198 46.1196 54.6014C55.95 62.4706 70.1031 63.186 80.683 56.3637C98.1652 45.1095 99.4201 20.4026 83.1929 7.42098C73.3625 -0.430789 59.2094 -1.16362 48.6295 5.65869ZM83.8727 46.1389C73.2927 59.3997 53.1612 58.3702 43.9931 44.0975C38.433 35.4605 39.0256 23.9097 45.4398 15.8834C56.0197 2.62268 76.1512 3.65213 85.3194 17.9249C90.8621 26.5618 90.2695 38.1127 83.8727 46.1389Z" fill="#031A6E"/>
<path opacity="0.4" d="M65.0833 55.9449C79.5419 55.9449 91.2629 44.2114 91.2629 29.7374C91.2629 15.2634 79.5419 3.52997 65.0833 3.52997C50.6246 3.52997 38.9036 15.2634 38.9036 29.7374C38.9036 44.2114 50.6246 55.9449 65.0833 55.9449Z" fill="#9CDBFF"/>
<defs>
<clipPath id="clip0_1901_10031">
<rect width="42" height="25" fill="white" transform="translate(10 45)"/>
</clipPath>
</defs>
</svg>
