<svg width="34" height="34" viewBox="0 0 34 34" fill="none" xmlns="http://www.w3.org/2000/svg">
<g clip-path="url(#clip0_706_2845)">
<path d="M20.0311 5.25C18.6839 2.91667 15.3161 2.91666 13.9689 5.25L3.57661 23.25C2.22946 25.5833 3.91339 28.5 6.60769 28.5H27.3923C30.0866 28.5 31.7705 25.5833 30.4234 23.25L20.0311 5.25Z" fill="white" stroke="#DB3236" stroke-width="3"/>
<path fill-rule="evenodd" clip-rule="evenodd" d="M17.299 21.0359C16.389 21.0359 15.6501 21.7747 15.6501 22.6846C15.6501 23.5946 16.389 24.3333 17.299 24.3333C18.2089 24.3333 18.9477 23.5946 18.9477 22.6846C18.9477 21.7747 18.2089 21.0359 17.299 21.0359ZM15.2222 12.1879C15.2222 12.1941 15.2223 12.2004 15.2227 12.2066L15.6504 18.8667C15.656 19.7718 16.3925 20.5048 17.299 20.5048C18.2063 20.5048 18.9435 19.7701 18.9476 18.8637C18.9474 18.8667 19.3751 12.2066 19.3751 12.2066C19.3755 12.2004 19.3758 12.1941 19.3758 12.1879C19.3758 11.0417 18.4452 10.1111 17.299 10.1111C16.1528 10.1111 15.2222 11.0417 15.2222 12.1879Z" fill="#1B1D29"/>
</g>
<defs>
<clipPath id="clip0_706_2845">
<rect width="34" height="34" fill="white"/>
</clipPath>
</defs>
</svg>
