<svg width="32" height="32" viewBox="0 0 32 32" fill="none" xmlns="http://www.w3.org/2000/svg">
<path fill-rule="evenodd" clip-rule="evenodd" d="M11.1371 22.6957H2.93036C2.76744 22.6959 2.60778 22.6497 2.47014 22.5625C2.33249 22.4754 2.22248 22.3508 2.15295 22.2035C2.08358 22.0567 2.05713 21.8933 2.07657 21.7321C2.09602 21.5709 2.16064 21.4184 2.26293 21.2923C2.41426 21.106 2.58151 20.9085 2.73124 20.7094C2.98075 20.4035 3.12417 20.0249 3.13997 19.6304C3.15577 19.236 3.04306 18.8471 2.81882 18.5223C1.67489 16.8885 1.06298 14.9415 1.06661 12.9471C1.06788 10.3621 2.09544 7.88336 3.92344 6.05566C5.75144 4.22795 8.23034 3.2008 10.8153 3.19995C13.4 3.20122 15.8784 4.22854 17.7061 6.0562C19.5337 7.88386 20.5611 10.3624 20.5624 12.9471C20.5613 15.4776 19.5766 17.9087 17.8165 19.7269C16.0563 21.545 13.6583 22.6079 11.1291 22.6909L11.1371 22.6957Z" fill="#DB3236"/>
<path fill-rule="evenodd" clip-rule="evenodd" d="M22.1176 27.7333H29.3018C29.4444 27.7334 29.5842 27.693 29.7047 27.6167C29.8252 27.5404 29.9215 27.4314 29.9824 27.3024C30.0431 27.1739 30.0662 27.0308 30.0492 26.8897C30.0322 26.7486 29.9756 26.6152 29.8861 26.5048C29.7536 26.3416 29.6072 26.1687 29.4761 25.9944C29.2577 25.7267 29.1322 25.3952 29.1183 25.0499C29.1045 24.7047 29.2032 24.3642 29.3995 24.0798C30.4009 22.6496 30.9365 20.9452 30.9334 19.1993C30.9322 16.9364 30.0327 14.7665 28.4325 13.1665C26.8322 11.5665 24.6622 10.6674 22.3993 10.6666C20.1367 10.6677 17.967 11.5671 16.3671 13.167C14.7672 14.7669 13.8678 16.9366 13.8667 19.1993C13.8677 21.4146 14.7296 23.5428 16.2705 25.1344C17.8114 26.726 19.9105 27.6564 22.1246 27.7291L22.1176 27.7333Z" fill="#F4C20D"/>
<path fill-rule="evenodd" clip-rule="evenodd" d="M21.7904 22.0602C21.1227 22.0602 20.5806 22.6143 20.5806 23.2967C20.5806 23.9792 21.1227 24.5332 21.7904 24.5332C22.458 24.5332 23.0001 23.9792 23.0001 23.2967C23.0001 22.6143 22.458 22.0602 21.7904 22.0602ZM20.2666 15.4242C20.2666 15.4288 20.2667 15.4336 20.267 15.4382L20.5808 20.4333C20.5849 21.1121 21.1253 21.6619 21.7904 21.6619C22.4562 21.6619 22.997 21.1108 23 20.4311C22.9999 20.4333 23.3137 15.4382 23.3137 15.4382C23.314 15.4336 23.3142 15.4288 23.3142 15.4242C23.3142 14.5645 22.6314 13.8666 21.7904 13.8666C20.9494 13.8666 20.2666 14.5645 20.2666 15.4242Z" fill="white"/>
<path fill-rule="evenodd" clip-rule="evenodd" d="M10.6078 16.7457C10.3117 16.7457 10.0278 16.8749 9.81834 17.105C9.60892 17.3352 9.49116 17.6473 9.49095 17.9728C9.49116 18.2984 9.60892 18.6105 9.81834 18.8406C10.0278 19.0707 10.3117 19.2 10.6078 19.2C10.9037 19.1998 11.1874 19.0704 11.3967 18.8403C11.6059 18.6102 11.7236 18.2982 11.7238 17.9728C11.7236 17.6474 11.6059 17.3354 11.3967 17.1054C11.1874 16.8753 10.9037 16.7459 10.6078 16.7457ZM9.44983 13.7136L9.49173 15.1774C9.49322 15.5019 9.61143 15.8125 9.82054 16.0414C10.0297 16.2704 10.3127 16.399 10.6078 16.3992C10.903 16.3988 11.1861 16.2698 11.395 16.0405C11.604 15.8112 11.7219 15.5002 11.723 15.1756L11.7568 14.4074C12.2587 14.201 12.7065 13.8617 13.0606 13.4195C13.5708 12.782 13.8566 11.9648 13.8664 11.1158C13.8719 10.6432 13.7924 10.1741 13.6326 9.73545C13.4727 9.29677 13.2356 8.89715 12.9349 8.55953C12.6324 8.21837 12.2716 7.94624 11.8732 7.75876C11.4749 7.57129 11.0467 7.47215 10.6134 7.46703C10.1907 7.4605 9.77086 7.54321 9.37653 7.7107C8.98117 7.8791 8.61854 8.12867 8.30802 8.44611C8.16531 8.5918 8.03453 8.75102 7.9172 8.92191C7.79892 9.09314 7.69456 9.27549 7.60535 9.46683C7.52791 9.63774 7.48187 9.82376 7.46984 10.0142C7.45782 10.2047 7.48009 10.396 7.53532 10.577C7.59054 10.758 7.67767 10.9253 7.79173 11.0693C7.90579 11.2133 8.04455 11.3311 8.20006 11.4161C8.51167 11.5863 8.87173 11.6144 9.20211 11.4945C9.53249 11.3746 9.80652 11.1162 9.96475 10.7755L10.1259 10.5097C10.1872 10.4426 10.2589 10.3883 10.3378 10.3493C10.4244 10.3063 10.5177 10.2822 10.6126 10.2784C10.7133 10.2739 10.8139 10.2913 10.9084 10.3296C11.003 10.368 11.0898 10.4264 11.1638 10.5017C11.2409 10.5797 11.3032 10.6737 11.347 10.7784C11.3909 10.883 11.4154 10.9962 11.4192 11.1113C11.427 11.327 11.3641 11.5387 11.2419 11.7076C11.1168 11.8827 10.9387 12.0025 10.7399 12.0452C10.3799 12.1083 10.0521 12.3107 9.81567 12.6158C9.57828 12.9218 9.44876 13.3114 9.45066 13.7136H9.44983Z" fill="white"/>
</svg>
