<svg width="40" height="41" viewBox="0 0 40 41" fill="none" xmlns="http://www.w3.org/2000/svg">
<circle cx="16.5" cy="17" r="13" fill="#CCA558"/>
<path d="M3 32.625C3 28.625 10 26.2917 13.5 25.625H19.5C27 27.125 29.6667 30.625 30 32.625V39.625C30 40.1773 29.5523 40.625 29 40.625H4C3.44772 40.625 3 40.1782 3 39.6259V32.625Z" fill="#3CBA54"/>
<path d="M8.5 35.125C8.5 34.8489 8.72386 34.625 9 34.625C9.27614 34.625 9.5 34.8489 9.5 35.125V40.625H8.5V35.125Z" fill="#136B1B"/>
<path d="M24.5 35.125C24.5 34.8489 24.7239 34.625 25 34.625C25.2761 34.625 25.5 34.8489 25.5 35.125V40.625H24.5V35.125Z" fill="#136B1B"/>
<path fill-rule="evenodd" clip-rule="evenodd" d="M11 26.2441V31.572C11 32.2993 11.7517 32.7833 12.4138 32.4824L16.0456 30.8316C16.3317 30.7015 16.6623 30.7135 16.9382 30.864L20.5211 32.8184C21.1875 33.1818 22 32.6995 22 31.9405V26.2467C21.2336 26.0146 20.4018 25.8054 19.5 25.625H13.5C12.7834 25.7615 11.92 25.9679 11 26.2441Z" fill="#136B1B"/>
<path d="M16.5166 29.2344C14.1298 29.2344 13.511 27.3177 13.5 26.3594V23.0156C13.5 22.4633 13.9477 22.0156 14.5 22.0156H18.5C19.0523 22.0156 19.5 22.4633 19.5 23.0156V26.3594C19.5 27.3177 18.9033 29.2344 16.5166 29.2344Z" fill="#F5CC9A"/>
<path d="M16.5 26.5C14.1133 26.5 13.511 25.9583 13.5 25V20C13.5 19.4477 13.9477 19 14.5 19H18.5C19.0523 19 19.5 19.4477 19.5 20V25C19.5 25.9583 18.8867 26.5 16.5 26.5Z" fill="#E6B276"/>
<path d="M9.5 13H23.5V18C23.5 21.866 20.366 25 16.5 25C12.634 25 9.5 21.866 9.5 18V13Z" fill="#FFE1BE"/>
<path d="M21.5 23C23 19.5 22.5 17 22.5 13H23.5C23.5 19 24 20 21.5 23Z" fill="#E5B276"/>
<path d="M16 14.5C12.8 15.3 10.5 13.8333 9.5 13L10.6429 12.0204C14.0133 9.13147 18.9867 9.13147 22.3571 12.0204L23.5 13C23.1 15.4 18.1667 15 16 14.5Z" fill="black"/>
<path d="M7.5 15C7.5 13.4 8.83333 13 9.5 13V17C8.83333 17 7.5 16.6 7.5 15Z" fill="#FFE1BE"/>
<path d="M25.5 15C25.5 13.4 24.1667 13 23.5 13V17C24.1667 17 25.5 16.6 25.5 15Z" fill="#FFE1BE"/>
<path d="M26.689 34.9319C31.734 34.9319 35.8239 30.8421 35.8239 25.797C35.8239 20.7519 31.734 16.6621 26.689 16.6621C21.6439 16.6621 17.5541 20.7519 17.5541 25.797C17.5541 30.8421 21.6439 34.9319 26.689 34.9319Z" fill="white" stroke="#F4C20D" stroke-width="4"/>
<rect x="25" y="25" width="4" height="7" fill="#FFECA6"/>
<circle cx="27" cy="22" r="2" fill="#FFECA6"/>
<rect x="24" y="25" width="4" height="7" fill="#F4C20D"/>
<circle cx="26" cy="22" r="2" fill="#F4C20D"/>
</svg>
