<svg width="18" height="18" viewBox="0 0 18 18" fill="none" xmlns="http://www.w3.org/2000/svg">
<path d="M8.99996 0.666687C4.39996 0.666687 0.666626 4.40002 0.666626 9.00002C0.666626 13.6 4.39996 17.3334 8.99996 17.3334C13.6 17.3334 17.3333 13.6 17.3333 9.00002C17.3333 4.40002 13.6 0.666687 8.99996 0.666687ZM8.99996 13.1667C8.54163 13.1667 8.16663 12.7917 8.16663 12.3334V9.00002C8.16663 8.54169 8.54163 8.16669 8.99996 8.16669C9.45829 8.16669 9.83329 8.54169 9.83329 9.00002V12.3334C9.83329 12.7917 9.45829 13.1667 8.99996 13.1667ZM9.83329 6.50002H8.16663V4.83335H9.83329V6.50002Z" fill="#031A6E"/>
</svg>
