<svg width="52" height="52" viewBox="0 0 52 52" fill="none" xmlns="http://www.w3.org/2000/svg">
<path d="M25.4737 5.25745C13.0618 5.25745 3 15.2733 3 27.6289C3 39.9838 13.0618 50 25.4737 50C31.2672 50 36.5486 47.8178 40.5335 44.2344C41.4046 43.4513 42.2134 42.6011 42.9522 41.6923C46.0763 37.8499 47.9474 32.9569 47.9474 27.6289C47.9474 15.2733 37.886 5.25745 25.4737 5.25745ZM39.7588 38.543C39.0422 39.471 38.2362 40.3272 37.3539 41.0987C34.1838 43.8717 30.0258 45.5534 25.4737 45.5534C15.529 45.5534 7.46703 37.5282 7.46703 27.6289C7.46703 17.7292 15.529 9.70408 25.4737 9.70408C35.4188 9.70408 43.4804 17.7292 43.4804 27.6289C43.4804 31.736 42.0928 35.5203 39.7588 38.543Z" fill="#DB3236"/>
<path d="M25.4737 9.7041C15.529 9.7041 7.46704 17.7293 7.46704 27.6289C7.46704 37.5282 15.529 45.5534 25.4737 45.5534C30.0258 45.5534 34.1838 43.8718 37.3539 41.0987C38.2362 40.3272 39.0422 39.471 39.7588 38.543C42.0928 35.5204 43.4804 31.736 43.4804 27.6289C43.4804 17.7293 35.4188 9.7041 25.4737 9.7041ZM34.17 37.9588C31.8179 39.9232 28.7845 41.1064 25.4737 41.1064C17.9962 41.1064 11.9341 35.0723 11.9341 27.6289C11.9341 20.1852 17.9962 14.1507 25.4737 14.1507C32.9512 14.1507 39.0133 20.1852 39.0133 27.6289C39.0133 30.514 38.1026 33.1873 36.5511 35.3796C35.8731 36.3391 35.0717 37.2065 34.17 37.9588Z" fill="#FFEFFE"/>
<path d="M25.4737 14.1507C17.9962 14.1507 11.9341 20.1851 11.9341 27.6289C11.9341 35.0722 17.9962 41.1063 25.4737 41.1063C28.7845 41.1063 31.8179 39.9232 34.1701 37.9587C35.0717 37.2065 35.8731 36.3391 36.5511 35.3796C38.1026 33.1872 39.0134 30.5139 39.0134 27.6289C39.0134 20.1851 32.9512 14.1507 25.4737 14.1507ZM30.9764 34.8094C29.4502 35.9701 27.5428 36.6597 25.4737 36.6597C20.4634 36.6597 16.4015 32.6163 16.4015 27.6289C16.4015 22.6411 20.4634 18.5973 25.4737 18.5973C30.4844 18.5973 34.5463 22.6411 34.5463 27.6289C34.5463 29.2898 34.0959 30.8461 33.3096 32.183C32.7104 33.203 31.9153 34.0956 30.9764 34.8094Z" fill="#DB3236"/>
<path d="M25.4737 18.5974C20.4634 18.5974 16.4015 22.6411 16.4015 27.6289C16.4015 32.6164 20.4634 36.6597 25.4737 36.6597C27.5429 36.6597 29.4502 35.9701 30.9764 34.8094C31.9153 34.0956 32.7104 33.203 33.3096 32.183C34.0959 30.8462 34.5464 29.2899 34.5464 27.6289C34.5464 22.6411 30.4844 18.5974 25.4737 18.5974ZM27.7419 31.6194C27.0724 31.9975 26.2984 32.2131 25.4737 32.2131C22.9306 32.2131 20.8685 30.1604 20.8685 27.6289C20.8685 25.0967 22.9306 23.0443 25.4737 23.0443C28.0172 23.0443 30.0793 25.0967 30.0793 27.6289C30.0793 28.0472 30.0231 28.4526 29.9176 28.8376C29.5916 30.0274 28.7962 31.0243 27.7419 31.6194Z" fill="#FFEFFE"/>
<path d="M30.055 28.0802C30.3055 25.5609 28.4569 23.3163 25.9259 23.067C23.395 22.8176 21.1402 24.6578 20.8897 27.1771C20.6391 29.6965 22.4878 31.9411 25.0187 32.1904C27.5496 32.4398 29.8045 30.5996 30.055 28.0802Z" fill="#DB3236"/>
<g opacity="0.3">
<path opacity="0.7" d="M42.9522 41.6923C42.2133 42.6011 41.4045 43.4513 40.5335 44.2344L37.3539 41.0987L34.17 37.9588L30.9763 34.8094L27.7418 31.6194L24.6455 28.566C23.9556 27.8855 23.9503 26.7776 24.6339 26.0908C25.3172 25.404 26.4305 25.3987 27.1205 26.0792L29.9175 28.8376L33.3095 32.183L36.5511 35.3796L39.7588 38.543L42.9522 41.6923Z" fill="black"/>
</g>
<path d="M34.3589 11.4662V16.4999L42.8122 8.15933V3L34.3589 11.4662Z" fill="#3CBA54"/>
<path d="M25.883 29.0729C25.4301 29.0729 24.9778 28.8999 24.6339 28.5544C23.9507 27.8676 23.9556 26.7598 24.6455 26.0793L46.8101 4.22133C47.5001 3.54084 48.6131 3.54609 49.2967 4.23288C49.9799 4.91967 49.975 6.02757 49.2851 6.70806L27.1205 28.566C26.7776 28.9041 26.3299 29.0729 25.883 29.0729Z" fill="#10735F"/>
<path d="M44.9484 10.8505H49.9999L41.7013 19.1883H36.6241L44.9484 10.8505Z" fill="#3CBA54"/>
</svg>
