<svg width="49" height="44" viewBox="0 0 49 44" fill="none" xmlns="http://www.w3.org/2000/svg">
<path d="M20.6523 7.29507C21.8858 8.66726 23.4701 9.6793 25.2357 10.223C27.0014 10.7666 28.882 10.8215 30.6765 10.3817C29.4436 9.00878 27.8594 7.99625 26.0935 7.45252C24.3277 6.9088 22.4468 6.85437 20.6523 7.29507Z" fill="#D54E3D"/>
<path d="M30.8308 7.0116C30.9984 8.82846 31.6643 10.5643 32.7554 12.0289C33.8464 13.4935 35.3207 14.6304 37.0167 15.315C36.8477 13.4985 36.1813 11.7634 35.0904 10.299C33.9995 8.83462 32.5259 7.69741 30.8308 7.0116Z" fill="#D54E3D"/>
<path d="M32.1431 6.02343C33.8892 6.62747 35.7694 6.73542 37.5735 6.3352C36.5425 4.79433 35.057 3.61087 33.3224 2.94839C31.5877 2.28592 29.6895 2.17715 27.8901 2.63712C28.9647 4.13803 30.4375 5.31065 32.1431 6.02343Z" fill="#D54E3D"/>
<path d="M38.9907 14.0917C38.3514 15.8009 38.1955 17.6524 38.5401 19.444C38.8846 21.2355 39.7164 22.8981 40.9444 24.2502C41.5837 22.541 41.7395 20.6895 41.395 18.898C41.0504 17.1064 40.2187 15.4438 38.9907 14.0917Z" fill="#D54E3D"/>
<path d="M37.9226 12.261C39.0354 13.3215 40.4343 14.0352 41.9479 14.3146C41.7683 12.7806 41.0863 11.3486 40.0075 10.2406C38.9287 9.13259 37.5135 8.41049 35.9812 8.18628C36.2172 9.7039 36.8919 11.12 37.9226 12.261Z" fill="#D54E3D"/>
<path d="M29.5878 40.3182C30.0324 40.548 30.4624 40.8051 30.8752 41.0878C27.6962 42.5847 24.1993 43.2866 20.6871 43.1327C17.1749 42.9788 13.7532 41.9738 10.7181 40.2046C7.68298 38.4355 5.12587 35.9554 3.26803 32.9791C1.4102 30.0028 0.307597 26.6199 0.0556425 23.1231C-0.196312 19.6263 0.409967 16.1209 1.82202 12.9103C3.23407 9.69974 5.40936 6.88062 8.15967 4.69691C10.91 2.5132 14.1524 1.03068 17.6065 0.377641C21.0605 -0.275401 24.6222 -0.0792985 27.9831 0.948985C14.9249 0.00516606 11.0461 7.52689 11.0461 7.52689C20.075 1.1798 27.8899 5.22123 27.8899 5.22123C14.7137 4.03156 9.63243 14.4847 9.63243 14.4847C9.63243 14.4847 15.2782 9.32431 24.284 12.5971C17.0949 12.6457 11.2421 16.7851 9.40625 22.634C9.00487 23.9148 8.80215 25.2493 8.80511 26.5912C8.80511 32.2619 11.6485 37.3176 17.0017 39.7107C17.1525 39.7794 17.3063 39.8443 17.4566 39.9052C19.6694 40.7763 22.0314 41.2084 24.4102 41.1771C26.171 41.1638 27.9187 40.874 29.589 40.3182H29.5878Z" fill="#D54E3D"/>
<path d="M37.033 24.0598L36.8216 25.3803L36.7528 25.8259L36.6796 26.2795L35.461 34.036L33.0039 26.0687L32.8657 25.6234L32.7277 25.1778L32.4352 24.2136C33.183 24.0503 33.9444 23.9567 34.7096 23.9342H35.6073C35.7155 23.9277 35.824 23.9277 35.9322 23.9342C36.0704 23.9342 36.1921 23.9342 36.3092 23.9593C36.4085 23.9636 36.5074 23.973 36.6057 23.9876H36.6462C36.6678 23.9851 36.6897 23.9851 36.7113 23.9876C36.7423 23.9853 36.7735 23.9853 36.8045 23.9876H36.9631L37.033 24.0598Z" fill="#D0C6C6"/>
<path d="M47.9993 42.6472C46.8908 41.8372 45.6598 41.0715 43.7554 41.0715C41.8509 41.0715 39.2872 41.8169 35.4816 44C35.2334 43.5339 34.9423 43.0919 34.6121 42.6795C34.0511 41.9668 33.4108 41.3201 32.7033 40.7518C30.415 38.9434 27.5636 37.9917 24.6447 38.0622C22.4608 38.0873 20.2953 38.4634 18.2314 39.1759L13.3574 20.8396C14.239 20.594 15.142 20.4326 16.0543 20.3577L19.6481 34.6558L19.8514 35.4658L20.684 35.3199C21.7308 35.1317 22.7924 35.0367 23.8561 35.0362C25.8621 35.0079 27.8513 35.4033 29.6932 36.1964C31.535 36.9894 33.1876 38.1623 34.5424 39.6378C34.8913 40.02 35.213 40.426 35.5052 40.8528C35.5284 40.8796 35.5475 40.9097 35.562 40.942L36.0292 41.7033L36.805 41.2337C39.1925 39.8037 41.305 39.0784 43.0844 39.0784C43.8933 39.0488 44.6961 39.2301 45.4133 39.6045C46.1306 39.9788 46.7375 40.5332 47.1742 41.2129C47.219 41.2821 47.2474 41.3264 47.2677 41.3507L47.4708 41.6139L47.9993 42.6472Z" fill="#173870"/>
<path d="M48.0036 40.8082C47.6979 40.3279 47.3275 39.8918 46.9028 39.512C46.6481 39.3012 46.3764 39.1116 46.0906 38.9451C45.1734 38.4201 44.1301 38.1541 43.0728 38.1757C41.5446 38.2216 40.0432 38.5872 38.6658 39.2488C37.8588 39.5997 37.0772 40.0056 36.3263 40.4638L36.2491 40.3458C35.9479 39.9067 35.6138 39.491 35.2497 39.1022C33.814 37.5084 32.0524 36.2401 30.0835 35.3828C28.1147 34.5255 25.9843 34.0991 23.8362 34.1325C22.7213 34.1372 21.6087 34.2348 20.5101 34.4242L16.9965 20.28L16.8869 19.8384L16.7612 19.3888L16.5215 18.4006C18.1087 18.0048 19.739 17.8061 21.3751 17.8092C25.1448 17.8092 30.1241 18.9232 32.4352 24.2129C33.1831 24.0495 33.9446 23.956 34.7098 23.9335H35.0227C35.1011 23.9295 35.1796 23.9295 35.258 23.9335H35.9325L36.3094 23.9585C36.415 23.9585 36.5165 23.9836 36.602 23.9869C36.6057 23.985 36.6099 23.9841 36.614 23.9841C36.6183 23.9841 36.6225 23.9851 36.6264 23.9869H36.6588C36.6817 23.9851 36.7047 23.9851 36.7276 23.9869C36.7588 23.9909 36.7903 23.9909 36.8214 23.9869H36.8983C36.9198 23.9904 36.9418 23.9904 36.9634 23.9869H37.0244C38.4496 24.2014 39.7914 24.7916 40.9113 25.6963C41.5189 26.2009 42.0426 26.7982 42.4629 27.4661L42.7514 28.1679L42.7715 28.2045L47.6455 39.9506L48.0036 40.8082Z" fill="#66AB65"/>
<path d="M37.033 24.0598L36.8216 25.3803L36.7528 25.8258L36.6796 26.2795L35.461 34.036L33.0039 26.0687L32.8657 25.6234L32.7277 25.1778L32.4352 24.2136C33.1884 24.0544 33.9531 23.9556 34.7221 23.9182H35.6196C35.7278 23.9114 35.8363 23.9114 35.9445 23.9182C36.0827 23.9182 36.2046 23.9182 36.3215 23.9432C36.4209 23.9474 36.5199 23.9568 36.6183 23.9715H36.6764C36.698 23.9688 36.7198 23.9688 36.7414 23.9715C36.7725 23.9693 36.8036 23.9693 36.8347 23.9715H36.9603L37.033 24.0598Z" fill="#43813C"/>
</svg>
