<svg width="29" height="27" viewBox="0 0 29 27" fill="none" xmlns="http://www.w3.org/2000/svg">
<g clip-path="url(#clip0_683_3447)">
<path fill-rule="evenodd" clip-rule="evenodd" d="M0.106842 9.45223C0.0407018 9.4978 0 9.57374 0 9.65475V21.4612C0 21.5271 0.0254386 21.5929 0.0763158 21.6384C0.122105 21.684 0.188246 21.7144 0.254386 21.7144H28.7456C28.8881 21.7144 29 21.603 29 21.4612V9.65475C29 9.57374 28.9593 9.4978 28.8932 9.44717C28.8932 9.44717 20.3814 3.39204 16.5147 0.642933C15.3089 -0.212683 13.6911 -0.212683 12.4853 0.642933C8.6186 3.39204 0.106842 9.45223 0.106842 9.45223Z" fill="#AD162A"/>
<path fill-rule="evenodd" clip-rule="evenodd" d="M8.09963 15.2998C8.11489 15.3504 8.14542 15.396 8.19121 15.4263L14.0624 19.9981C15.3038 20.9651 17.0235 21.0461 18.3412 20.1955L24.5635 16.1807C24.6093 16.1503 24.6398 16.1098 24.6652 16.0643C25.0875 15.1023 25.3368 14.0442 25.3826 12.9304C25.581 8.07007 21.7703 3.93881 16.8759 3.71099C11.9816 3.48316 7.84524 7.24989 7.64173 12.1102C7.59595 13.224 7.75875 14.3024 8.09963 15.2998Z" fill="#C29000"/>
<path fill-rule="evenodd" clip-rule="evenodd" d="M6.69543 14.4998C6.71578 14.5454 6.74631 14.5859 6.78701 14.6163L12.4853 18.6716C13.691 19.5323 15.3089 19.5323 16.5147 18.6716L22.213 14.6163C22.2537 14.5859 22.2842 14.5454 22.3046 14.4998C22.6607 13.5734 22.8591 12.5659 22.8591 11.5128C22.8591 6.92081 19.1146 3.19458 14.5 3.19458C9.88543 3.19458 6.14087 6.92081 6.14087 11.5128C6.14087 12.5659 6.33929 13.5734 6.69543 14.4998Z" fill="#FED843"/>
<path fill-rule="evenodd" clip-rule="evenodd" d="M17.4051 11.5887C17.4051 11.5634 17.4051 9.78635 17.4051 9.78635C17.4051 9.4674 17.1405 9.20413 16.82 9.20413C16.6725 9.20413 16.5351 9.25982 16.4283 9.35095C15.9144 8.8953 15.2377 8.6219 14.5 8.6219C12.8974 8.6219 11.5949 9.91799 11.5949 11.5128C11.5949 13.1076 12.8974 14.4036 14.5 14.4036C15.5583 14.4036 16.4842 13.8417 16.993 12.9962C17.4356 13.3303 18.0054 13.467 18.5295 13.2949C18.9721 13.1481 19.4147 12.7835 19.6844 12.0292C19.7505 11.8419 19.7861 11.6444 19.7861 11.447V11.4419C19.7454 8.57128 17.3949 6.25757 14.5 6.25757C11.5847 6.25757 9.21387 8.61178 9.21387 11.5178C9.21387 14.4188 11.5797 16.7781 14.5 16.7781C15.7007 16.7781 16.8098 16.3781 17.6951 15.7048C17.9546 15.5073 18.0004 15.1428 17.807 14.8897C17.6086 14.6315 17.2423 14.5859 16.9879 14.7783C16.296 15.2998 15.4361 15.6137 14.5 15.6137C12.2309 15.6137 10.384 13.7809 10.384 11.5178C10.384 9.25982 12.2258 7.42202 14.5 7.42202C16.7488 7.42202 18.5804 9.22438 18.616 11.452C18.616 11.5128 18.6058 11.5735 18.5854 11.6343V11.6393C18.4786 11.9431 18.3463 12.1304 18.1683 12.1861C17.9953 12.2418 17.8172 12.1608 17.6747 12.0444C17.5272 11.9279 17.4102 11.7659 17.4051 11.5887ZM14.5 9.78635C15.4565 9.78635 16.2349 10.561 16.2349 11.5128C16.2349 12.4646 15.4565 13.2392 14.5 13.2392C13.5435 13.2392 12.7651 12.4646 12.7651 11.5128C12.7651 10.561 13.5435 9.78635 14.5 9.78635Z" fill="#DB3236"/>
<path fill-rule="evenodd" clip-rule="evenodd" d="M22.7268 13.0063L15.9245 17.8464C15.0748 18.4539 13.9301 18.4539 13.0754 17.8464L6.27307 13.0063C6.36974 13.5228 6.50711 14.0189 6.69535 14.4999C6.7157 14.5454 6.74623 14.5859 6.78693 14.6163L12.4852 18.6716C13.691 19.5323 15.3089 19.5323 16.5146 18.6716L22.2129 14.6163C22.2536 14.5859 22.2841 14.5454 22.3045 14.4999C22.4876 14.0189 22.6301 13.5228 22.7268 13.0063Z" fill="#AD162A" fill-opacity="0.17"/>
<path fill-rule="evenodd" clip-rule="evenodd" d="M29 9.65472C29 9.55852 28.9491 9.47245 28.8626 9.42689C28.7761 9.38132 28.6744 9.39145 28.5981 9.44714L16.2197 18.2564C15.1919 18.9906 13.8081 18.9906 12.7804 18.2564L0.40193 9.4522C0.325614 9.39651 0.22386 9.39145 0.137368 9.43195C0.0559649 9.47245 0 9.55852 0 9.65472V23.1117C0 24.1394 0.412105 25.1317 1.14474 25.8557C1.87737 26.5797 2.86947 26.9949 3.90737 26.9949C9.37667 26.9949 19.6335 26.9949 25.1028 26.9949C26.1356 26.9949 27.1328 26.5848 27.8604 25.8557C28.593 25.1267 29.0051 24.1394 29.0051 23.1117V9.65472H29Z" fill="#DB3236"/>
<path fill-rule="evenodd" clip-rule="evenodd" d="M0 22.5599V23.1117C0 23.132 0 23.1573 0 23.1775L9.84982 16.1655L9.41228 15.8567L0 22.5599ZM29 23.1826C29 23.1623 29 23.137 29 23.1168V22.5649L19.5877 15.8618L19.1502 16.1706L29 23.1826Z" fill="#823D00"/>
<path fill-rule="evenodd" clip-rule="evenodd" d="M28.5981 9.45229L16.2197 18.2565C15.1919 18.9906 13.8081 18.9906 12.7804 18.2565L0.40193 9.45229C0.325614 9.3966 0.22386 9.39154 0.137368 9.43204C0.0559649 9.47254 0 9.55861 0 9.65481V9.78644L12.4853 18.6666C13.6911 19.5273 15.3089 19.5273 16.5147 18.6666L29 9.78644V9.65481C29 9.55861 28.9491 9.47254 28.8626 9.42698C28.7761 9.38648 28.6744 9.3966 28.5981 9.45229Z" fill="#823D00"/>
<path fill-rule="evenodd" clip-rule="evenodd" d="M0.401887 9.86232C0.401887 9.86232 8.91364 3.80719 12.7803 1.05808C13.808 0.323975 15.1919 0.323975 16.2196 1.05808C20.0863 3.80719 28.598 9.86232 28.598 9.86232C28.715 9.94333 28.8728 9.91801 28.9542 9.80157C29.0356 9.69019 29.0101 9.52817 28.8931 9.44717C28.8931 9.44717 20.3814 3.39204 16.5147 0.642933C15.3089 -0.212683 13.691 -0.212683 12.4852 0.642933C8.61856 3.39204 0.1068 9.45223 0.1068 9.45223C-0.00513015 9.53324 -0.0356565 9.69019 0.0457471 9.80663C0.132238 9.91801 0.289958 9.94333 0.401887 9.86232Z" fill="#823D00"/>
</g>
<defs>
<clipPath id="clip0_683_3447">
<rect width="29" height="27" fill="white"/>
</clipPath>
</defs>
</svg>
