<svg width="52" height="52" viewBox="0 0 52 52" fill="none" xmlns="http://www.w3.org/2000/svg">
<path d="M42.8474 17.0916V37.5905C42.8474 38.3588 42.5422 39.0955 41.9989 39.6387C41.4556 40.1819 40.7188 40.4871 39.9504 40.4871H7.89699C7.12866 40.4871 6.39179 40.1819 5.8485 39.6387C5.30521 39.0955 5 38.3588 5 37.5905V17.0916H42.8474Z" fill="#EBF5FC"/>
<path d="M42.8474 9.68585V17.0916H5.00684V9.68585C5.00684 8.91764 5.31206 8.18088 5.85535 7.63767C6.39864 7.09447 7.13549 6.78931 7.90382 6.78931H39.9573C40.7244 6.79111 41.4595 7.09708 42.0013 7.64009C42.5432 8.1831 42.8474 8.91882 42.8474 9.68585Z" fill="#FF4155"/>
<path d="M9.2211 19.9736H7.93791C7.47533 19.9736 7.10034 20.3486 7.10034 20.8111V22.0941C7.10034 22.5566 7.47533 22.9315 7.93791 22.9315H9.2211C9.68368 22.9315 10.0587 22.5566 10.0587 22.0941V20.8111C10.0587 20.3486 9.68368 19.9736 9.2211 19.9736Z" fill="#2A428C"/>
<path d="M7.85442 20.811V22.0931C7.85446 22.2318 7.82005 22.3683 7.75432 22.4904C7.68859 22.6124 7.59357 22.7163 7.4778 22.7926C7.36181 22.7164 7.2666 22.6126 7.20071 22.4906C7.13482 22.3685 7.10032 22.2319 7.10034 22.0931V20.811C7.10032 20.6723 7.13482 20.5357 7.20071 20.4136C7.2666 20.2915 7.36181 20.1877 7.4778 20.1116C7.59357 20.1879 7.68859 20.2917 7.75432 20.4138C7.82005 20.5359 7.85446 20.6724 7.85442 20.811Z" fill="#3C58A0"/>
<path d="M9.2211 26.823H7.93791C7.47533 26.823 7.10034 27.1979 7.10034 27.6604V28.9434C7.10034 29.4059 7.47533 29.7809 7.93791 29.7809H9.2211C9.68368 29.7809 10.0587 29.4059 10.0587 28.9434V27.6604C10.0587 27.1979 9.68368 26.823 9.2211 26.823Z" fill="#2A428C"/>
<path d="M7.85442 27.6604V28.9425C7.85446 29.0812 7.82005 29.2176 7.75432 29.3397C7.68859 29.4618 7.59357 29.5656 7.4778 29.6419C7.36181 29.5658 7.2666 29.462 7.20071 29.3399C7.13482 29.2178 7.10032 29.0812 7.10034 28.9425V27.6604C7.10032 27.5216 7.13482 27.3851 7.20071 27.263C7.2666 27.1409 7.36181 27.0371 7.4778 26.9609C7.59357 27.0372 7.68859 27.1411 7.75432 27.2632C7.82005 27.3852 7.85446 27.5217 7.85442 27.6604Z" fill="#3C58A0"/>
<path d="M9.2211 33.6726H7.93791C7.47533 33.6726 7.10034 34.0475 7.10034 34.51V35.793C7.10034 36.2556 7.47533 36.6305 7.93791 36.6305H9.2211C9.68368 36.6305 10.0587 36.2556 10.0587 35.793V34.51C10.0587 34.0475 9.68368 33.6726 9.2211 33.6726Z" fill="#2A428C"/>
<path d="M7.85442 34.51V35.7879C7.85446 35.9265 7.82006 36.063 7.75432 36.1851C7.68859 36.3072 7.59358 36.411 7.4778 36.4873C7.36364 36.4116 7.26985 36.309 7.20463 36.1885C7.13941 36.068 7.10477 35.9334 7.10376 35.7964V34.5185C7.10374 34.3798 7.13822 34.2432 7.20411 34.1211C7.27 33.999 7.36523 33.8952 7.48121 33.8191C7.59516 33.895 7.68876 33.9976 7.75383 34.1181C7.81889 34.2385 7.85343 34.3731 7.85442 34.51Z" fill="#3C58A0"/>
<path d="M14.9384 19.9736H13.6552C13.1926 19.9736 12.8176 20.3486 12.8176 20.8111V22.0941C12.8176 22.5566 13.1926 22.9315 13.6552 22.9315H14.9384C15.401 22.9315 15.776 22.5566 15.776 22.0941V20.8111C15.776 20.3486 15.401 19.9736 14.9384 19.9736Z" fill="#2A428C"/>
<path d="M13.5717 20.811V22.0931C13.5717 22.2318 13.5373 22.3683 13.4716 22.4904C13.4059 22.6124 13.3109 22.7163 13.1951 22.7926C13.0791 22.7164 12.9839 22.6126 12.918 22.4906C12.8521 22.3685 12.8176 22.2319 12.8176 22.0931V20.811C12.8176 20.6723 12.8521 20.5357 12.918 20.4136C12.9839 20.2915 13.0791 20.1877 13.1951 20.1116C13.3109 20.1879 13.4059 20.2917 13.4716 20.4138C13.5373 20.5359 13.5717 20.6724 13.5717 20.811Z" fill="#3C58A0"/>
<path d="M14.9384 26.823H13.6552C13.1926 26.823 12.8176 27.1979 12.8176 27.6604V28.9434C12.8176 29.4059 13.1926 29.7809 13.6552 29.7809H14.9384C15.401 29.7809 15.776 29.4059 15.776 28.9434V27.6604C15.776 27.1979 15.401 26.823 14.9384 26.823Z" fill="#2A428C"/>
<path d="M13.5717 27.6604V28.9425C13.5717 29.0812 13.5373 29.2176 13.4716 29.3397C13.4059 29.4618 13.3109 29.5656 13.1951 29.6419C13.0791 29.5658 12.9839 29.462 12.918 29.3399C12.8521 29.2178 12.8176 29.0812 12.8176 28.9425V27.6604C12.8176 27.5216 12.8521 27.3851 12.918 27.263C12.9839 27.1409 13.0791 27.0371 13.1951 26.9609C13.3109 27.0372 13.4059 27.1411 13.4716 27.2632C13.5373 27.3852 13.5717 27.5217 13.5717 27.6604Z" fill="#3C58A0"/>
<path d="M14.9384 33.6726H13.6552C13.1926 33.6726 12.8176 34.0475 12.8176 34.51V35.793C12.8176 36.2556 13.1926 36.6305 13.6552 36.6305H14.9384C15.401 36.6305 15.776 36.2556 15.776 35.793V34.51C15.776 34.0475 15.401 33.6726 14.9384 33.6726Z" fill="#2A428C"/>
<path d="M13.5717 34.51V35.7879C13.5717 35.9265 13.5373 36.063 13.4716 36.1851C13.4059 36.3072 13.3109 36.411 13.1951 36.4873C13.0791 36.4112 12.9839 36.3074 12.918 36.1853C12.8521 36.0632 12.8176 35.9266 12.8176 35.7879V34.51C12.8176 34.3712 12.8521 34.2347 12.918 34.1126C12.9839 33.9905 13.0791 33.8867 13.1951 33.8105C13.3109 33.8868 13.4059 33.9907 13.4716 34.1128C13.5373 34.2349 13.5717 34.3713 13.5717 34.51Z" fill="#3C58A0"/>
<path d="M20.6557 19.9736H19.3725C18.9099 19.9736 18.5349 20.3486 18.5349 20.8111V22.0941C18.5349 22.5566 18.9099 22.9315 19.3725 22.9315H20.6557C21.1183 22.9315 21.4932 22.5566 21.4932 22.0941V20.8111C21.4932 20.3486 21.1183 19.9736 20.6557 19.9736Z" fill="#2A428C"/>
<path d="M19.288 20.811V22.0931C19.288 22.2318 19.2537 22.3683 19.1879 22.4904C19.1222 22.6124 19.0272 22.7163 18.9114 22.7926C18.7954 22.7164 18.7002 22.6126 18.6343 22.4906C18.5684 22.3685 18.5339 22.2319 18.5339 22.0931V20.811C18.5339 20.6723 18.5684 20.5357 18.6343 20.4136C18.7002 20.2915 18.7954 20.1877 18.9114 20.1116C19.0272 20.1879 19.1222 20.2917 19.1879 20.4138C19.2537 20.5359 19.288 20.6724 19.288 20.811Z" fill="#3C58A0"/>
<path d="M20.6557 26.823H19.3725C18.9099 26.823 18.5349 27.1979 18.5349 27.6604V28.9434C18.5349 29.4059 18.9099 29.7809 19.3725 29.7809H20.6557C21.1183 29.7809 21.4932 29.4059 21.4932 28.9434V27.6604C21.4932 27.1979 21.1183 26.823 20.6557 26.823Z" fill="#2A428C"/>
<path d="M19.288 27.6604V28.9425C19.288 29.0812 19.2537 29.2176 19.1879 29.3397C19.1222 29.4618 19.0272 29.5656 18.9114 29.6419C18.7954 29.5658 18.7002 29.462 18.6343 29.3399C18.5684 29.2178 18.5339 29.0812 18.5339 28.9425V27.6604C18.5339 27.5216 18.5684 27.3851 18.6343 27.263C18.7002 27.1409 18.7954 27.0371 18.9114 26.9609C19.0272 27.0372 19.1222 27.1411 19.1879 27.2632C19.2537 27.3852 19.288 27.5217 19.288 27.6604Z" fill="#3C58A0"/>
<path d="M20.6557 33.6726H19.3725C18.9099 33.6726 18.5349 34.0475 18.5349 34.51V35.793C18.5349 36.2556 18.9099 36.6305 19.3725 36.6305H20.6557C21.1183 36.6305 21.4932 36.2556 21.4932 35.793V34.51C21.4932 34.0475 21.1183 33.6726 20.6557 33.6726Z" fill="#2A428C"/>
<path d="M19.288 34.51V35.7879C19.288 35.9265 19.2537 36.063 19.1879 36.1851C19.1222 36.3072 19.0272 36.411 18.9114 36.4873C18.7954 36.4112 18.7002 36.3074 18.6343 36.1853C18.5684 36.0632 18.5339 35.9266 18.5339 35.7879V34.51C18.5339 34.3712 18.5684 34.2347 18.6343 34.1126C18.7002 33.9905 18.7954 33.8867 18.9114 33.8105C19.0272 33.8868 19.1222 33.9907 19.1879 34.1128C19.2537 34.2349 19.288 34.3713 19.288 34.51Z" fill="#3C58A0"/>
<path d="M26.373 19.9736H25.0898C24.6272 19.9736 24.2522 20.3486 24.2522 20.8111V22.0941C24.2522 22.5566 24.6272 22.9315 25.0898 22.9315H26.373C26.8355 22.9315 27.2105 22.5566 27.2105 22.0941V20.8111C27.2105 20.3486 26.8355 19.9736 26.373 19.9736Z" fill="#2A428C"/>
<path d="M25.0063 20.811V22.0931C25.0063 22.2318 24.9719 22.3683 24.9062 22.4904C24.8404 22.6124 24.7454 22.7163 24.6297 22.7926C24.5137 22.7164 24.4184 22.6126 24.3525 22.4906C24.2867 22.3685 24.2522 22.2319 24.2522 22.0931V20.811C24.2522 20.6723 24.2867 20.5357 24.3525 20.4136C24.4184 20.2915 24.5137 20.1877 24.6297 20.1116C24.7454 20.1879 24.8404 20.2917 24.9062 20.4138C24.9719 20.5359 25.0063 20.6724 25.0063 20.811Z" fill="#3C58A0"/>
<path d="M26.373 26.823H25.0898C24.6272 26.823 24.2522 27.1979 24.2522 27.6604V28.9434C24.2522 29.4059 24.6272 29.7809 25.0898 29.7809H26.373C26.8355 29.7809 27.2105 29.4059 27.2105 28.9434V27.6604C27.2105 27.1979 26.8355 26.823 26.373 26.823Z" fill="#2A428C"/>
<path d="M25.0063 27.6604V28.9425C25.0063 29.0812 24.9719 29.2176 24.9062 29.3397C24.8404 29.4618 24.7454 29.5656 24.6297 29.6419C24.5137 29.5658 24.4184 29.462 24.3525 29.3399C24.2867 29.2178 24.2522 29.0812 24.2522 28.9425V27.6604C24.2522 27.5216 24.2867 27.3851 24.3525 27.263C24.4184 27.1409 24.5137 27.0371 24.6297 26.9609C24.7454 27.0372 24.8404 27.1411 24.9062 27.2632C24.9719 27.3852 25.0063 27.5217 25.0063 27.6604Z" fill="#3C58A0"/>
<path d="M26.373 33.6726H25.0898C24.6272 33.6726 24.2522 34.0475 24.2522 34.51V35.793C24.2522 36.2556 24.6272 36.6305 25.0898 36.6305H26.373C26.8355 36.6305 27.2105 36.2556 27.2105 35.793V34.51C27.2105 34.0475 26.8355 33.6726 26.373 33.6726Z" fill="#2A428C"/>
<path d="M25.0063 34.51V35.7879C25.0063 35.9265 24.9719 36.063 24.9062 36.1851C24.8404 36.3072 24.7454 36.411 24.6297 36.4873C24.5137 36.4112 24.4184 36.3074 24.3525 36.1853C24.2867 36.0632 24.2522 35.9266 24.2522 35.7879V34.51C24.2522 34.3712 24.2867 34.2347 24.3525 34.1126C24.4184 33.9905 24.5137 33.8867 24.6297 33.8105C24.7454 33.8868 24.8404 33.9907 24.9062 34.1128C24.9719 34.2349 25.0063 34.3713 25.0063 34.51Z" fill="#3C58A0"/>
<path d="M32.0902 19.9736H30.8071C30.3445 19.9736 29.9695 20.3486 29.9695 20.8111V22.0941C29.9695 22.5566 30.3445 22.9315 30.8071 22.9315H32.0902C32.5528 22.9315 32.9278 22.5566 32.9278 22.0941V20.8111C32.9278 20.3486 32.5528 19.9736 32.0902 19.9736Z" fill="#2A428C"/>
<path d="M30.7235 20.811V22.0931C30.7236 22.2318 30.6892 22.3683 30.6235 22.4904C30.5577 22.6124 30.4627 22.7163 30.3469 22.7926C30.2309 22.7164 30.1357 22.6126 30.0698 22.4906C30.0039 22.3685 29.9695 22.2319 29.9695 22.0931V20.811C29.9695 20.6723 30.0039 20.5357 30.0698 20.4136C30.1357 20.2915 30.2309 20.1877 30.3469 20.1116C30.4627 20.1879 30.5577 20.2917 30.6235 20.4138C30.6892 20.5359 30.7236 20.6724 30.7235 20.811Z" fill="#3C58A0"/>
<path d="M32.0902 26.823H30.8071C30.3445 26.823 29.9695 27.1979 29.9695 27.6604V28.9434C29.9695 29.4059 30.3445 29.7809 30.8071 29.7809H32.0902C32.5528 29.7809 32.9278 29.4059 32.9278 28.9434V27.6604C32.9278 27.1979 32.5528 26.823 32.0902 26.823Z" fill="#2A428C"/>
<path d="M30.7235 27.6604V28.9425C30.7236 29.0812 30.6892 29.2176 30.6235 29.3397C30.5577 29.4618 30.4627 29.5656 30.3469 29.6419C30.2309 29.5658 30.1357 29.462 30.0698 29.3399C30.0039 29.2178 29.9695 29.0812 29.9695 28.9425V27.6604C29.9695 27.5216 30.0039 27.3851 30.0698 27.263C30.1357 27.1409 30.2309 27.0371 30.3469 26.9609C30.4627 27.0372 30.5577 27.1411 30.6235 27.2632C30.6892 27.3852 30.7236 27.5217 30.7235 27.6604Z" fill="#3C58A0"/>
<path d="M32.0902 33.6726H30.8071C30.3445 33.6726 29.9695 34.0475 29.9695 34.51V35.793C29.9695 36.2556 30.3445 36.6305 30.8071 36.6305H32.0902C32.5528 36.6305 32.9278 36.2556 32.9278 35.793V34.51C32.9278 34.0475 32.5528 33.6726 32.0902 33.6726Z" fill="#2A428C"/>
<path d="M30.7235 34.51V35.7879C30.7236 35.9265 30.6892 36.063 30.6235 36.1851C30.5577 36.3072 30.4627 36.411 30.3469 36.4873C30.2309 36.4112 30.1357 36.3074 30.0698 36.1853C30.0039 36.0632 29.9695 35.9266 29.9695 35.7879V34.51C29.9695 34.3712 30.0039 34.2347 30.0698 34.1126C30.1357 33.9905 30.2309 33.8867 30.3469 33.8105C30.4627 33.8868 30.5577 33.9907 30.6235 34.1128C30.6892 34.2349 30.7236 34.3713 30.7235 34.51Z" fill="#3C58A0"/>
<path d="M37.8075 19.9736H36.5243C36.0618 19.9736 35.6868 20.3486 35.6868 20.8111V22.0941C35.6868 22.5566 36.0618 22.9315 36.5243 22.9315H37.8075C38.2701 22.9315 38.6451 22.5566 38.6451 22.0941V20.8111C38.6451 20.3486 38.2701 19.9736 37.8075 19.9736Z" fill="#2A428C"/>
<path d="M36.4408 20.811V22.0931C36.4409 22.2318 36.4065 22.3683 36.3407 22.4904C36.275 22.6124 36.18 22.7163 36.0642 22.7926C35.9482 22.7164 35.853 22.6126 35.7871 22.4906C35.7212 22.3685 35.6867 22.2319 35.6868 22.0931V20.811C35.6867 20.6723 35.7212 20.5357 35.7871 20.4136C35.853 20.2915 35.9482 20.1877 36.0642 20.1116C36.18 20.1879 36.275 20.2917 36.3407 20.4138C36.4065 20.5359 36.4409 20.6724 36.4408 20.811Z" fill="#3C58A0"/>
<path d="M37.8075 26.823H36.5243C36.0618 26.823 35.6868 27.1979 35.6868 27.6604V28.9434C35.6868 29.4059 36.0618 29.7809 36.5243 29.7809H37.8075C38.2701 29.7809 38.6451 29.4059 38.6451 28.9434V27.6604C38.6451 27.1979 38.2701 26.823 37.8075 26.823Z" fill="#2A428C"/>
<path d="M36.4408 27.6604V28.9425C36.4409 29.0812 36.4065 29.2176 36.3407 29.3397C36.275 29.4618 36.18 29.5656 36.0642 29.6419C35.9482 29.5658 35.853 29.462 35.7871 29.3399C35.7212 29.2178 35.6867 29.0812 35.6868 28.9425V27.6604C35.6867 27.5216 35.7212 27.3851 35.7871 27.263C35.853 27.1409 35.9482 27.0371 36.0642 26.9609C36.18 27.0372 36.275 27.1411 36.3407 27.2632C36.4065 27.3852 36.4409 27.5217 36.4408 27.6604Z" fill="#3C58A0"/>
<path d="M37.8075 33.6726H36.5243C36.0618 33.6726 35.6868 34.0475 35.6868 34.51V35.793C35.6868 36.2556 36.0618 36.6305 36.5243 36.6305H37.8075C38.2701 36.6305 38.6451 36.2556 38.6451 35.793V34.51C38.6451 34.0475 38.2701 33.6726 37.8075 33.6726Z" fill="#2A428C"/>
<path d="M36.4408 34.51V35.7879C36.4409 35.9265 36.4065 36.063 36.3407 36.1851C36.275 36.3072 36.18 36.411 36.0642 36.4873C35.9482 36.4112 35.853 36.3074 35.7871 36.1853C35.7212 36.0632 35.6867 35.9266 35.6868 35.7879V34.51C35.6867 34.3712 35.7212 34.2347 35.7871 34.1126C35.853 33.9905 35.9482 33.8867 36.0642 33.8105C36.18 33.8868 36.275 33.9907 36.3407 34.1128C36.4065 34.2349 36.4409 34.3713 36.4408 34.51Z" fill="#3C58A0"/>
<path d="M16.7472 9.10132H10.5673C10.1673 9.10132 9.84302 9.42552 9.84302 9.82545C9.84302 10.2254 10.1673 10.5496 10.5673 10.5496H16.7472C17.1472 10.5496 17.4714 10.2254 17.4714 9.82545C17.4714 9.42552 17.1472 9.10132 16.7472 9.10132Z" fill="#E80054"/>
<path d="M15.5903 5.93216V9.43698C15.5903 9.69068 15.5403 9.94189 15.4431 10.1763C15.346 10.4106 15.2037 10.6236 15.0242 10.8029C14.8447 10.9823 14.6317 11.1245 14.3973 11.2215C14.1628 11.3185 13.9115 11.3684 13.6578 11.3683C13.2703 11.3688 12.8917 11.2525 12.5714 11.0343C12.3107 10.8573 12.0973 10.6192 11.9499 10.3408C11.8024 10.0623 11.7253 9.75206 11.7253 9.43698V5.93216C11.7252 5.61694 11.8022 5.30648 11.9497 5.02788C12.0971 4.74929 12.3106 4.51103 12.5714 4.33395C12.8917 4.11583 13.2703 3.99945 13.6578 4C13.9111 4.00015 14.1618 4.0502 14.3957 4.14726C14.6296 4.24432 14.8421 4.38648 15.0211 4.56567C15.2013 4.74472 15.3444 4.95763 15.4421 5.19213C15.5398 5.42664 15.5901 5.67813 15.5903 5.93216Z" fill="#D3DCFB"/>
<path d="M13.4167 5.93219V9.43702C13.4169 9.75203 13.34 10.0623 13.1926 10.3407C13.0453 10.6192 12.832 10.8573 12.5714 11.0344C12.3107 10.8574 12.0973 10.6192 11.9499 10.3408C11.8024 10.0624 11.7253 9.75209 11.7253 9.43702V5.93219C11.7252 5.61698 11.8022 5.30652 11.9497 5.02792C12.0971 4.74932 12.3106 4.51107 12.5714 4.33398C12.6717 4.40224 12.7653 4.47982 12.8509 4.56571C13.0305 4.74503 13.173 4.95807 13.27 5.19256C13.3671 5.42706 13.417 5.6784 13.4167 5.93219Z" fill="#EBF5FC"/>
<path d="M37.287 9.10132H31.1071C30.7071 9.10132 30.3828 9.42552 30.3828 9.82545C30.3828 10.2254 30.7071 10.5496 31.1071 10.5496H37.287C37.687 10.5496 38.0113 10.2254 38.0113 9.82545C38.0113 9.42552 37.687 9.10132 37.287 9.10132Z" fill="#E80054"/>
<path d="M36.1298 5.93216V9.43698C36.1298 9.69068 36.0798 9.94189 35.9827 10.1763C35.8856 10.4106 35.7432 10.6236 35.5638 10.8029C35.3843 10.9823 35.1713 11.1245 34.9368 11.2215C34.7024 11.3185 34.4511 11.3684 34.1973 11.3683C33.8099 11.3688 33.4312 11.2525 33.111 11.0343C32.8503 10.8573 32.6369 10.6192 32.4894 10.3408C32.3419 10.0623 32.2648 9.75206 32.2649 9.43698V5.93216C32.2647 5.61694 32.3417 5.30648 32.4892 5.02788C32.6367 4.74929 32.8502 4.51103 33.111 4.33395C33.4312 4.11583 33.8099 3.99945 34.1973 4C34.4506 4.00015 34.7014 4.0502 34.9353 4.14726C35.1692 4.24432 35.3817 4.38648 35.5606 4.56567C35.7409 4.74472 35.8839 4.95763 35.9816 5.19213C36.0793 5.42664 36.1297 5.67813 36.1298 5.93216Z" fill="#D3DCFB"/>
<path d="M33.9562 5.93219V9.43702C33.9564 9.75203 33.8795 10.0623 33.7322 10.3407C33.5848 10.6192 33.3716 10.8573 33.111 11.0344C32.8503 10.8574 32.6369 10.6192 32.4894 10.3408C32.3419 10.0624 32.2648 9.75209 32.2649 9.43702V5.93219C32.2647 5.61698 32.3417 5.30652 32.4892 5.02792C32.6367 4.74932 32.8502 4.51107 33.111 4.33398C33.2112 4.40224 33.3048 4.47982 33.3904 4.56571C33.5701 4.74503 33.7125 4.95807 33.8096 5.19256C33.9067 5.42706 33.9565 5.6784 33.9562 5.93219Z" fill="#EBF5FC"/>
<path opacity="0.2" d="M42.8475 9.68585V37.5906C42.8475 38.3588 42.5423 39.0956 41.999 39.6388C41.4557 40.182 40.7188 40.4871 39.9505 40.4871H37.8459C38.6135 40.486 39.3493 40.1803 39.8917 39.6373C40.434 39.0942 40.7387 38.3581 40.7387 37.5906V9.68585C40.7387 8.91837 40.434 8.18228 39.8917 7.63919C39.3493 7.09611 38.6135 6.79044 37.8459 6.78931H39.9505C40.7188 6.78931 41.4557 7.09447 41.999 7.63767C42.5423 8.18088 42.8475 8.91764 42.8475 9.68585Z" fill="#2A428C"/>
<path opacity="0.2" d="M42.8474 34.613V37.5905C42.8474 38.3587 42.5422 39.0955 41.9989 39.6387C41.4556 40.1819 40.7188 40.487 39.9504 40.487H7.89699C7.12866 40.487 6.39179 40.1819 5.8485 39.6387C5.30521 39.0955 5 38.3587 5 37.5905V34.613C5.00113 35.3805 5.30685 36.1162 5.85002 36.6584C6.39318 37.2007 7.1294 37.5053 7.89699 37.5053H39.9504C40.718 37.5053 41.4542 37.2007 41.9974 36.6584C42.5406 36.1162 42.8463 35.3805 42.8474 34.613Z" fill="#2A428C"/>
<path d="M46.0076 35.9616C46.0075 38.5647 45.0876 41.0841 43.4102 43.0749C41.7329 45.0658 39.406 46.4001 36.8404 46.8424C36.2228 46.9477 35.5974 47.0004 34.971 47C32.043 47 29.2349 45.837 27.1645 43.7669C25.0941 41.6968 23.9309 38.8891 23.9309 35.9616C23.9307 33.0348 25.093 30.2277 27.1624 28.1575C29.2317 26.0874 32.0386 24.9237 34.9659 24.9224C35.5926 24.922 36.2183 24.9747 36.8361 25.08C39.4026 25.5215 41.7305 26.8556 43.4087 28.8467C45.0869 30.8378 46.0074 33.3578 46.0076 35.9616Z" fill="#1886EA"/>
<path d="M43.7846 35.9616C43.7852 38.2485 43.1318 40.4879 41.9014 42.4157C40.6711 44.3436 38.915 45.8795 36.8404 46.8424C36.2228 46.9477 35.5975 47.0004 34.971 47C32.043 47 29.2349 45.837 27.1645 43.7669C25.0941 41.6968 23.9309 38.8891 23.9309 35.9616C23.9307 33.0348 25.093 30.2277 27.1624 28.1575C29.2317 26.0874 32.0386 24.9237 34.9659 24.9224C35.5926 24.922 36.2183 24.9747 36.8361 25.08C38.9116 26.0424 40.6686 27.5782 41.8997 29.5062C43.1309 31.4342 43.7849 33.6741 43.7846 35.9616Z" fill="#4FABF7"/>
<path d="M43.0297 35.9617C43.0297 37.0202 42.8212 38.0684 42.416 39.0463C42.0108 40.0242 41.417 40.9128 40.6683 41.6613C39.9197 42.4097 39.0309 43.0034 38.0528 43.4084C37.0746 43.8134 36.0263 44.0218 34.9676 44.0217C34.6613 44.0217 34.3552 44.0043 34.0508 43.9697C36.0172 43.7445 37.8321 42.8039 39.1498 41.3272C40.4674 39.8504 41.1958 37.9407 41.1961 35.9617C41.1958 33.9826 40.4674 32.0729 39.1498 30.5961C37.8321 29.1194 36.0172 28.1788 34.0508 27.9536C34.3552 27.919 34.6613 27.9017 34.9676 27.9016C37.1057 27.9016 39.1562 28.7508 40.6681 30.2623C42.18 31.7738 43.0295 33.8239 43.0297 35.9617Z" fill="#D3DCFB"/>
<path d="M41.1962 35.9617C41.1959 37.9407 40.4675 39.8505 39.1499 41.3272C37.8322 42.804 36.0173 43.7445 34.0509 43.9698C32.0844 43.7445 30.2695 42.804 28.9518 41.3272C27.6342 39.8505 26.9058 37.9407 26.9055 35.9617C26.906 33.9827 27.6345 32.0731 28.9521 30.5964C30.2697 29.1197 32.0845 28.179 34.0509 27.9536C36.0173 28.1788 37.8322 29.1194 39.1499 30.5962C40.4675 32.0729 41.1959 33.9827 41.1962 35.9617Z" fill="#EBF5FC"/>
<path d="M34.9138 29.6428C35.1631 29.6424 35.4024 29.7408 35.5792 29.9164C35.756 30.0921 35.8559 30.3307 35.857 30.5799V37.4141H33.9766V30.5799C33.9777 30.3317 34.0768 30.094 34.2523 29.9185C34.4278 29.743 34.6656 29.6439 34.9138 29.6428Z" fill="#3C58A0"/>
<path d="M41.571 37.1397C41.571 37.3801 41.4755 37.6107 41.3055 37.7807C41.1355 37.9507 40.9049 38.0462 40.6644 38.0462H34.9156V36.2324L40.6644 36.2324C40.9049 36.2324 41.1355 36.3279 41.3055 36.4979C41.4755 36.6679 41.571 36.8985 41.571 37.1389V37.1397Z" fill="#3C58A0"/>
<path d="M34.9344 38.2184C35.5302 38.2184 36.0131 37.7355 36.0131 37.1398C36.0131 36.5442 35.5302 36.0613 34.9344 36.0613C34.3387 36.0613 33.8557 36.5442 33.8557 37.1398C33.8557 37.7355 34.3387 38.2184 34.9344 38.2184Z" fill="#FFDD40"/>
<path opacity="0.2" d="M40.742 13.9463H5.00684V15.214H40.742V13.9463Z" fill="#2A428C"/>
</svg>
