<svg width="52" height="52" viewBox="0 0 52 52" fill="none" xmlns="http://www.w3.org/2000/svg">
<path d="M18.3086 42.3081H6.90921C5.89072 42.3081 5.06458 41.482 5.06458 40.4635V24.0139H18.3086V42.3081Z" fill="#FF9C07"/>
<path fill-rule="evenodd" clip-rule="evenodd" d="M14.5497 42.3081H8.82166V31.3429C8.82166 29.7602 10.1039 28.478 11.6866 28.478C13.2693 28.478 14.5516 29.7602 14.5516 31.3429V42.3081H14.5497Z" fill="#FFDF98"/>
<path fill-rule="evenodd" clip-rule="evenodd" d="M5.06458 27.5401V23.3342H18.2078L5.06458 27.5401Z" fill="#B7813F"/>
<path d="M39.1527 42.3081H18.2078V24.0138L28.1435 8.34271L39.1527 24.3179V42.3081Z" fill="#F4BF00"/>
<path d="M40.2042 24.6733C39.8781 25.9299 39.1527 25.5269 39.1527 25.5269V24.3179L28.1435 8.34272L19.0248 23.413C18.6841 23.9754 18.0759 24.3179 17.4201 24.3179H4.79896C4.49671 24.3179 4.22011 24.2501 3.97647 24.1292C3.05141 23.6805 2.60628 22.4989 3.17231 21.5098L3.79513 20.4253L10.4867 8.76037C11.1114 7.67044 12.2709 7 13.5257 7H27.9897C29.0924 7 30.1182 7.55321 30.7246 8.47277L39.7737 22.2187C40.25 22.9422 40.4222 23.8343 40.2042 24.6733Z" fill="#DB3236"/>
<path d="M25.9161 25.5874H20.188V31.8339H25.9161V25.5874Z" fill="#FF9C07"/>
<path fill-rule="evenodd" clip-rule="evenodd" d="M34.1988 42.3081H28V25.5343C28 23.8783 29.3427 22.5338 31.0005 22.5338H34.1988V42.3081Z" fill="#B7813F"/>
<path d="M35.2253 46.47H33.3459C31.2888 46.47 29.62 44.8031 29.62 42.7441V24.1494C29.62 22.0923 31.2888 20.4254 33.3459 20.4254H35.2253C33.1682 20.4254 31.4994 22.0923 31.4994 24.1494V42.7441C31.4994 44.8031 33.1682 46.47 35.2253 46.47Z" fill="#10735F"/>
<path d="M50.4293 24.1494V42.7441C50.4293 44.8031 48.7624 46.47 46.7034 46.47H35.2253C33.1682 46.47 31.4994 44.8031 31.4994 42.7441V24.1494C31.4994 22.0923 33.1682 20.4254 35.2253 20.4254H46.7034C48.7624 20.4254 50.4293 22.0923 50.4293 24.1494Z" fill="#3CBA54"/>
<path d="M38.7002 32.3376H35.0787C34.1024 32.3376 33.311 31.5463 33.311 30.5699V25.7797C33.311 24.8034 34.1024 24.012 35.0787 24.012H38.7002C36.8849 24.012 35.414 25.483 35.414 27.2983V29.0477C35.414 30.8648 36.8849 32.3376 38.7002 32.3376Z" fill="#F4BF00"/>
<path d="M48.6158 25.7834V30.5699C48.6158 31.5463 47.8245 32.3394 46.8463 32.3394H37.1798C36.2035 32.3394 35.4121 31.5481 35.4121 30.5717V25.7816C35.4121 24.8052 36.2035 24.0139 37.1798 24.0139H46.8463C47.8245 24.0139 48.6158 24.8052 48.6158 25.7834Z" fill="#F4BF00"/>
<path fill-rule="evenodd" clip-rule="evenodd" d="M39.9788 44.2792H41.948C42.5452 44.2792 43.0288 43.7004 43.0288 42.9878C43.0288 42.2752 42.5452 41.6945 41.948 41.6945H39.9788C39.3817 41.6945 38.8981 42.2734 38.8981 42.9878C38.8981 43.7004 39.3835 44.2792 39.9788 44.2792Z" fill="#FFEDEE"/>
<path fill-rule="evenodd" clip-rule="evenodd" d="M45.3625 44.2792H47.3317C47.9289 44.2792 48.4125 43.7004 48.4125 42.9878C48.4125 42.2752 47.9289 41.6945 47.3317 41.6945H45.3625C44.7653 41.6945 44.2817 42.2734 44.2817 42.9878C44.2817 43.7004 44.7653 44.2792 45.3625 44.2792Z" fill="#FFEDEE"/>
<path fill-rule="evenodd" clip-rule="evenodd" d="M34.5952 44.2792H36.5644C37.1615 44.2792 37.6451 43.7004 37.6451 42.9878C37.6451 42.2752 37.1615 41.6945 36.5644 41.6945H34.5952C33.998 41.6945 33.5144 42.2734 33.5144 42.9878C33.5144 43.7004 33.9998 44.2792 34.5952 44.2792Z" fill="#FFEDEE"/>
<path fill-rule="evenodd" clip-rule="evenodd" d="M39.9788 40.447H41.948C42.5452 40.447 43.0288 39.8682 43.0288 39.1538C43.0288 38.4412 42.5452 37.8624 41.948 37.8624H39.9788C39.3817 37.8624 38.8981 38.4412 38.8981 39.1538C38.8981 39.8682 39.3835 40.447 39.9788 40.447Z" fill="#FFEDEE"/>
<path fill-rule="evenodd" clip-rule="evenodd" d="M45.3625 40.447H47.3317C47.9289 40.447 48.4125 39.8682 48.4125 39.1538C48.4125 38.4412 47.9289 37.8624 47.3317 37.8624H45.3625C44.7653 37.8624 44.2817 38.4412 44.2817 39.1538C44.2817 39.8682 44.7653 40.447 45.3625 40.447Z" fill="#FFEDEE"/>
<path fill-rule="evenodd" clip-rule="evenodd" d="M34.5952 40.447H36.5644C37.1615 40.447 37.6451 39.8682 37.6451 39.1538C37.6451 38.4412 37.1615 37.8624 36.5644 37.8624H34.5952C33.998 37.8624 33.5144 38.4412 33.5144 39.1538C33.5144 39.8682 33.9998 40.447 34.5952 40.447Z" fill="#FFEDEE"/>
<path fill-rule="evenodd" clip-rule="evenodd" d="M34.5952 36.6149H36.5644C37.1615 36.6149 37.6451 36.036 37.6451 35.3235C37.6451 34.6109 37.1615 34.032 36.5644 34.032H34.5952C33.998 34.032 33.5144 34.6109 33.5144 35.3235C33.5144 36.036 33.9998 36.6149 34.5952 36.6149Z" fill="#FFEDEE"/>
<path fill-rule="evenodd" clip-rule="evenodd" d="M45.3625 36.6149H47.3317C47.9289 36.6149 48.4125 36.036 48.4125 35.3235C48.4125 34.6109 47.9289 34.032 47.3317 34.032H45.3625C44.7653 34.032 44.2817 34.6109 44.2817 35.3235C44.2817 36.036 44.7653 36.6149 45.3625 36.6149Z" fill="#FFEDEE"/>
<path fill-rule="evenodd" clip-rule="evenodd" d="M39.9788 36.6149H41.948C42.5452 36.6149 43.0288 36.036 43.0288 35.3235C43.0288 34.6109 42.5452 34.032 41.948 34.032H39.9788C39.3817 34.032 38.8981 34.6109 38.8981 35.3235C38.8981 36.036 39.3835 36.6149 39.9788 36.6149Z" fill="#FFEDEE"/>
</svg>
