<svg width="214" height="179" viewBox="0 0 214 179" fill="none" xmlns="http://www.w3.org/2000/svg">
<g clip-path="url(#clip0_3035_13243)">
<path d="M98.5917 20.9822C102.139 24.9287 106.696 27.8394 111.774 29.403C116.852 30.9666 122.261 31.1244 127.422 29.8594C123.876 25.9109 119.32 22.9988 114.241 21.435C109.162 19.8712 103.753 19.7147 98.5917 20.9822V20.9822Z" fill="#D54E3D"/>
<path d="M127.866 20.1669C128.348 25.3924 130.263 30.3847 133.401 34.597C136.539 38.8093 140.779 42.0791 145.657 44.0481C145.171 38.8239 143.254 33.8333 140.117 29.6217C136.979 25.4101 132.741 22.1394 127.866 20.1669V20.1669Z" fill="#D54E3D"/>
<path d="M131.64 17.3249C136.662 19.0622 142.07 19.3726 147.258 18.2215C144.293 13.7899 140.021 10.3862 135.032 8.48084C130.043 6.57552 124.583 6.2627 119.408 7.58559C122.499 11.9023 126.735 15.2749 131.64 17.3249V17.3249Z" fill="#D54E3D"/>
<path d="M151.334 40.53C149.496 45.4457 149.047 50.7708 150.038 55.9234C151.029 61.076 153.421 65.8578 156.953 69.7464C158.792 64.8307 159.24 59.5056 158.249 54.353C157.258 49.2004 154.866 44.4185 151.334 40.53V40.53Z" fill="#D54E3D"/>
<path d="M148.262 35.2646C151.463 38.3147 155.486 40.3672 159.839 41.1707C159.323 36.759 157.361 32.6404 154.259 29.4537C151.156 26.2669 147.086 24.1901 142.679 23.5453C143.357 27.9101 145.298 31.9828 148.262 35.2646Z" fill="#D54E3D"/>
<path d="M124.291 115.959C125.57 116.62 126.806 117.359 127.994 118.173C118.851 122.478 108.793 124.496 98.6918 124.054C88.5905 123.611 78.7494 120.721 70.0202 115.633C61.291 110.544 53.9365 103.411 48.5933 94.8514C43.25 86.2913 40.0788 76.5618 39.3542 66.5048C38.6295 56.4477 40.3732 46.366 44.4344 37.1321C48.4956 27.8982 54.7519 19.7902 62.6619 13.5097C70.572 7.22914 79.8976 2.96531 89.8317 1.08711C99.7658 -0.791082 110.009 -0.227077 119.676 2.73034C82.1191 0.0158498 70.9635 21.6489 70.9635 21.6489C96.9314 3.39418 119.408 15.0176 119.408 15.0176C81.512 11.596 66.8977 41.6602 66.8977 41.6602C66.8977 41.6602 83.1354 26.8184 109.037 36.2312C88.3605 36.371 71.5273 48.2763 66.2472 65.0981C65.0928 68.7818 64.5098 72.6199 64.5183 76.4793C64.5183 92.7886 72.696 107.329 88.0923 114.212C88.526 114.409 88.9683 114.596 89.4006 114.771C95.7647 117.277 102.558 118.519 109.4 118.429C114.464 118.391 119.49 117.558 124.294 115.959H124.291Z" fill="#D54E3D"/>
<path d="M145.704 69.1986L145.096 72.9965L144.898 74.278L144.687 75.5826L141.183 97.8911L134.116 74.9765L133.718 73.6956L133.321 72.414L132.48 69.6412C134.631 69.1713 136.821 68.9023 139.021 68.8375H141.603C141.914 68.8187 142.227 68.8187 142.538 68.8375C142.935 68.8375 143.285 68.8375 143.622 68.9096C143.907 68.9219 144.192 68.9491 144.475 68.991H144.591C144.653 68.9838 144.716 68.9838 144.778 68.991C144.868 68.9845 144.957 68.9845 145.047 68.991H145.503L145.704 69.1986Z" fill="#D0C6C6"/>
<path d="M177.244 122.657C174.055 120.328 170.515 118.126 165.038 118.126C159.56 118.126 152.187 120.269 141.242 126.548C140.528 125.208 139.691 123.936 138.741 122.75C137.128 120.701 135.286 118.841 133.251 117.206C126.67 112.005 118.469 109.268 110.074 109.471C103.793 109.543 97.5648 110.624 91.629 112.674L77.6111 59.9372C80.1466 59.2308 82.7437 58.7667 85.3674 58.5511L95.7034 99.6736L96.2882 102.003L98.6828 101.584C101.694 101.042 104.747 100.769 107.806 100.768C113.575 100.686 119.297 101.823 124.594 104.104C129.891 106.385 134.644 109.759 138.541 114.002C139.544 115.101 140.469 116.269 141.31 117.497C141.376 117.574 141.431 117.66 141.473 117.753L142.817 119.943L145.048 118.592C151.915 114.479 157.991 112.393 163.108 112.393C165.435 112.308 167.743 112.83 169.806 113.906C171.869 114.983 173.615 116.577 174.871 118.532C174.999 118.731 175.081 118.859 175.14 118.929L175.724 119.686L177.244 122.657Z" fill="#173870"/>
<path d="M177.256 117.368C176.377 115.987 175.311 114.733 174.09 113.64C173.357 113.034 172.576 112.489 171.754 112.01C169.116 110.5 166.116 109.735 163.075 109.797C158.679 109.929 154.361 110.981 150.4 112.883C148.079 113.892 145.831 115.06 143.671 116.378L143.449 116.038C142.583 114.776 141.622 113.58 140.575 112.462C136.446 107.878 131.379 104.23 125.716 101.764C120.054 99.2987 113.927 98.0726 107.749 98.1686C104.542 98.1821 101.342 98.4627 98.1826 99.0075L88.0771 58.3277L87.762 57.0576L87.4006 55.7645L86.7111 52.9225C91.2761 51.7839 95.9648 51.2125 100.67 51.2214C111.512 51.2214 125.833 54.4253 132.48 69.639C134.631 69.1691 136.821 68.9001 139.022 68.8353H139.922C140.147 68.8238 140.373 68.8238 140.599 68.8353H142.539L143.623 68.9074C143.926 68.9074 144.218 68.9795 144.464 68.9889C144.475 68.9835 144.487 68.9808 144.499 68.9809C144.511 68.981 144.523 68.9837 144.534 68.9889H144.627C144.693 68.9838 144.76 68.9838 144.825 68.9889C144.915 69.0004 145.006 69.0004 145.095 68.9889H145.316C145.378 68.999 145.441 68.999 145.503 68.9889H145.679C149.778 69.606 153.637 71.3033 156.858 73.9054C158.605 75.3566 160.112 77.0746 161.32 78.9956L162.15 81.0138L162.208 81.119L176.226 114.902L177.256 117.368Z" fill="#66AB65"/>
<path d="M145.704 69.1986L145.096 72.9965L144.898 74.278L144.687 75.5827L141.183 97.8911L134.116 74.9765L133.718 73.6956L133.321 72.4141L132.48 69.6412C134.646 69.1832 136.846 68.899 139.057 68.7914H141.639C141.95 68.7719 142.262 68.7719 142.573 68.7914C142.971 68.7914 143.321 68.7914 143.657 68.8635C143.943 68.8755 144.228 68.9026 144.511 68.9449H144.678C144.74 68.937 144.803 68.937 144.865 68.9449C144.954 68.9384 145.044 68.9384 145.133 68.9449H145.495L145.704 69.1986Z" fill="#43813C"/>
<path d="M12.3577 148.155C10.2568 148.155 8.6295 148.946 7.47592 150.526C6.3233 152.095 5.74675 154.287 5.74627 157.102C5.74627 162.958 7.95007 165.887 12.3577 165.887C14.2076 165.887 16.4482 165.426 19.0797 164.504V169.174C16.9176 170.072 14.5037 170.521 11.838 170.521C8.00621 170.521 5.07575 169.366 3.04662 167.054C1.017 164.73 0.00219727 161.401 0.00219727 157.066C0.00219727 154.335 0.500445 151.946 1.49694 149.898C2.4944 147.837 3.92361 146.262 5.78457 145.173C7.65807 144.071 9.85055 143.52 12.362 143.52C14.9207 143.52 17.491 144.137 20.0728 145.371L18.2709 149.898C17.3027 149.437 16.3101 149.029 15.2973 148.676C14.354 148.338 13.3601 148.162 12.3577 148.155ZM28.7818 160.084C28.7818 162.072 29.1061 163.575 29.7547 164.593C30.4153 165.611 31.4841 166.12 32.961 166.12C34.4259 166.12 35.4768 165.617 36.1139 164.611C36.7625 163.593 37.0868 162.084 37.0868 160.084C37.0868 158.097 36.7625 156.607 36.1139 155.615C35.4653 154.622 34.4023 154.125 32.9249 154.123C31.46 154.123 30.4033 154.621 29.7547 155.615C29.1056 156.593 28.7813 158.083 28.7818 160.084V160.084ZM42.7072 160.084C42.7072 163.354 41.8425 165.911 40.1131 167.755C38.3837 169.599 35.9744 170.521 32.8851 170.521C30.9519 170.521 29.2466 170.102 27.7692 169.264C26.2918 168.414 25.157 167.199 24.3648 165.617C23.5726 164.036 23.1763 162.191 23.1758 160.084C23.1758 156.802 24.0345 154.251 25.7518 152.431C27.4692 150.611 29.8843 149.701 32.9972 149.699C34.9309 149.699 36.6362 150.119 38.1131 150.957C39.59 151.796 40.7251 152.999 41.5182 154.568C42.3114 156.138 42.7077 157.977 42.7072 160.084V160.084ZM45.5984 162.545V158.054H55.2759V162.545H45.5984ZM63.7876 160.084C63.7876 162.072 64.1119 163.575 64.7605 164.593C65.4206 165.611 66.4894 166.12 67.9668 166.12C69.4317 166.12 70.4826 165.617 71.1197 164.611C71.7683 163.593 72.0923 162.084 72.0918 160.084C72.0918 158.097 71.7678 156.607 71.1197 155.615C70.4716 154.622 69.4086 154.125 67.9307 154.123C66.4658 154.123 65.4091 154.621 64.7605 155.615C64.1138 156.593 63.7907 158.083 63.7912 160.084H63.7876ZM77.713 160.084C77.713 163.354 76.8483 165.911 75.1189 167.755C73.3895 169.599 70.9802 170.521 67.8909 170.521C65.9577 170.521 64.2524 170.102 62.775 169.264C61.2976 168.414 60.1625 167.199 59.3699 165.617C58.5772 164.036 58.1809 162.191 58.1809 160.084C58.1809 156.802 59.0396 154.251 60.7569 152.431C62.4743 150.611 64.8884 149.701 67.9993 149.7C69.9331 149.7 71.6384 150.119 73.1153 150.958C74.5922 151.796 75.7273 153 76.5204 154.569C77.3174 156.138 77.7161 157.977 77.7166 160.084H77.713ZM93.4512 170.521C91.0852 170.521 89.2301 169.665 87.8857 167.953H87.5965C87.7893 169.63 87.8857 170.6 87.8857 170.863V179H82.3924V150.078H86.86L87.6349 152.682H87.8871C89.1713 150.695 91.0746 149.701 93.5972 149.7C95.9752 149.7 97.8364 150.616 99.1808 152.448C100.525 154.281 101.198 156.826 101.199 160.084C101.199 162.228 100.881 164.091 100.245 165.671C99.6183 167.252 98.7235 168.456 97.5603 169.282C96.3971 170.108 95.0286 170.521 93.4548 170.521H93.4512ZM91.8307 154.084C90.4733 154.084 89.4826 154.503 88.8585 155.342C88.2321 156.168 87.9078 157.539 87.8857 159.454V160.048C87.8857 162.204 88.2039 163.749 88.8405 164.683C89.4891 165.617 90.5099 166.084 91.903 166.084C94.3648 166.084 95.5957 164.06 95.5957 160.012C95.5957 158.035 95.2895 156.556 94.6771 155.575C94.0796 154.58 93.132 154.083 91.8343 154.084H91.8307ZM121.856 162.868C121.856 165.239 120.997 167.108 119.28 168.473C117.574 169.838 115.196 170.521 112.146 170.521C109.335 170.521 106.849 169.995 104.688 168.941V163.767C106.465 164.557 107.966 165.114 109.191 165.437C110.428 165.76 111.557 165.922 112.578 165.923C113.802 165.923 114.739 165.689 115.388 165.221C116.049 164.754 116.379 164.06 116.378 163.138C116.386 162.648 116.234 162.169 115.945 161.772C115.656 161.365 115.229 160.976 114.665 160.604C114.113 160.234 112.978 159.641 111.261 158.827C109.652 158.071 108.444 157.346 107.64 156.652C106.848 155.974 106.193 155.151 105.712 154.227C105.23 153.305 104.989 152.227 104.989 150.994C104.989 148.67 105.776 146.844 107.348 145.516C108.933 144.187 111.119 143.522 113.906 143.521C115.225 143.515 116.539 143.678 117.815 144.006C119.152 144.361 120.458 144.817 121.724 145.372L119.932 149.699C118.526 149.123 117.362 148.721 116.437 148.496C115.553 148.272 114.646 148.158 113.734 148.155C112.678 148.155 111.868 148.4 111.303 148.891C110.738 149.382 110.456 150.023 110.456 150.814C110.446 151.268 110.564 151.716 110.798 152.107C111.026 152.466 111.388 152.819 111.883 153.166C112.387 153.503 113.57 154.114 115.431 154.999C117.894 156.174 119.581 157.353 120.491 158.538C121.403 159.712 121.859 161.156 121.859 162.868H121.856ZM144.369 170.162H138.875V158.431C138.875 156.982 138.629 155.898 138.137 155.179C137.655 154.449 136.892 154.084 135.848 154.084C134.443 154.084 133.422 154.599 132.786 155.628C132.149 156.658 131.831 158.353 131.832 160.713V170.162H126.338V150.078H130.536L131.274 152.647H131.581C132.122 151.724 132.902 151.005 133.923 150.491C134.942 149.962 136.113 149.698 137.435 149.698C140.449 149.698 142.491 150.68 143.561 152.644H144.047C144.587 151.709 145.379 150.985 146.424 150.471C147.482 149.956 148.671 149.698 149.992 149.698C152.273 149.698 153.997 150.285 155.162 151.459C156.339 152.621 156.927 154.489 156.927 157.064V170.16H151.414V158.431C151.414 156.982 151.168 155.898 150.677 155.179C150.195 154.449 149.432 154.084 148.388 154.084C147.044 154.084 146.035 154.563 145.362 155.521C144.702 156.479 144.372 158 144.372 160.084L144.369 170.162ZM175.51 170.162L174.451 167.431H174.306C173.382 168.592 172.427 169.4 171.442 169.856C170.47 170.3 169.197 170.521 167.623 170.521C165.69 170.521 164.165 169.97 163.047 168.868C161.943 167.766 161.391 166.197 161.391 164.161C161.391 162.029 162.135 160.46 163.623 159.454C165.125 158.436 167.383 157.873 170.397 157.765L173.892 157.657V156.777C173.892 154.742 172.847 153.724 170.758 153.723C169.148 153.723 167.256 154.209 165.083 155.179L163.264 151.478C165.582 150.268 168.152 149.663 170.974 149.664C173.676 149.664 175.748 150.251 177.19 151.424C178.632 152.598 179.353 154.382 179.352 156.777V170.161L175.51 170.162ZM173.888 160.856L171.763 160.928C170.166 160.976 168.977 161.264 168.196 161.79C167.415 162.316 167.024 163.119 167.025 164.198C167.025 165.743 167.914 166.515 169.691 166.515C170.965 166.515 171.98 166.15 172.736 165.42C173.507 164.688 173.891 163.718 173.888 162.509V160.856ZM196.405 149.699C197.149 149.699 197.768 149.753 198.261 149.861L197.847 154.999C197.317 154.869 196.771 154.808 196.225 154.819C194.472 154.819 193.103 155.268 192.118 156.167C191.144 157.065 190.658 158.323 190.659 159.939V170.161H185.165V150.078H189.327L190.137 153.455H190.407C191.008 152.355 191.875 151.422 192.93 150.742C193.959 150.059 195.169 149.696 196.405 149.699V149.699ZM210.541 166.156C211.504 166.156 212.658 165.946 214 165.526V169.605C212.631 170.216 210.949 170.521 208.956 170.521C206.758 170.521 205.154 169.97 204.145 168.868C203.149 167.754 202.651 166.089 202.65 163.874V154.192H200.02V151.874L203.047 150.042L204.633 145.802H208.145V150.078H213.782V154.192H208.145V163.874C208.145 164.653 208.362 165.228 208.795 165.599C209.239 165.97 209.82 166.156 210.541 166.156V166.156Z" fill="#081C6A"/>
</g>
<defs>
<clipPath id="clip0_3035_13243">
<rect width="214" height="179" fill="white"/>
</clipPath>
</defs>
</svg>
