<svg width="22" height="27" viewBox="0 0 22 27" fill="none" xmlns="http://www.w3.org/2000/svg">
<path d="M11 26.8333C12.4667 26.8333 13.6667 25.6333 13.6667 24.1666H8.33334C8.33334 25.6333 9.52001 26.8333 11 26.8333ZM19 18.8333V12.1666C19 8.07331 16.8133 4.64665 13 3.73998V2.83331C13 1.72665 12.1067 0.833313 11 0.833313C9.89334 0.833313 9.00001 1.72665 9.00001 2.83331V3.73998C5.17334 4.64665 3.00001 8.05998 3.00001 12.1666V18.8333L1.28001 20.5533C0.440008 21.3933 1.02667 22.8333 2.21334 22.8333H19.7733C20.96 22.8333 21.56 21.3933 20.72 20.5533L19 18.8333Z" fill="#031A6E"/>
</svg>
