<svg width="20" height="24" viewBox="0 0 20 24" fill="none" xmlns="http://www.w3.org/2000/svg">
<rect width="20" height="24" fill="#A9B0D1"/>
<path d="M6.41797 10.9883C6.41797 11.6523 6.49023 12.1504 6.63477 12.4824C6.7793 12.8145 7.01367 12.9805 7.33789 12.9805C7.97852 12.9805 8.29883 12.3164 8.29883 10.9883C8.29883 9.66797 7.97852 9.00781 7.33789 9.00781C7.01367 9.00781 6.7793 9.17188 6.63477 9.5C6.49023 9.82812 6.41797 10.3242 6.41797 10.9883ZM9.10156 10.9883C9.10156 11.8789 8.95117 12.5527 8.65039 13.0098C8.35352 13.4629 7.91602 13.6895 7.33789 13.6895C6.79102 13.6895 6.36523 13.457 6.06055 12.9922C5.75977 12.5273 5.60938 11.8594 5.60938 10.9883C5.60938 10.1016 5.75391 9.43359 6.04297 8.98438C6.33594 8.53516 6.76758 8.31055 7.33789 8.31055C7.9043 8.31055 8.33984 8.54297 8.64453 9.00781C8.94922 9.47266 9.10156 10.1328 9.10156 10.9883ZM11.5742 14.4219C11.5742 15.0898 11.6465 15.5898 11.791 15.9219C11.9355 16.25 12.1719 16.4141 12.5 16.4141C12.8281 16.4141 13.0703 16.252 13.2266 15.9277C13.3828 15.5996 13.4609 15.0977 13.4609 14.4219C13.4609 13.7539 13.3828 13.2598 13.2266 12.9395C13.0703 12.6152 12.8281 12.4531 12.5 12.4531C12.1719 12.4531 11.9355 12.6152 11.791 12.9395C11.6465 13.2598 11.5742 13.7539 11.5742 14.4219ZM14.2637 14.4219C14.2637 15.3086 14.1133 15.9805 13.8125 16.4375C13.5156 16.8906 13.0781 17.1172 12.5 17.1172C11.9453 17.1172 11.5176 16.8848 11.2168 16.4199C10.9199 15.9551 10.7715 15.2891 10.7715 14.4219C10.7715 13.5352 10.916 12.8672 11.2051 12.418C11.498 11.9688 11.9297 11.7441 12.5 11.7441C13.0547 11.7441 13.4863 11.9746 13.7949 12.4355C14.1074 12.8926 14.2637 13.5547 14.2637 14.4219ZM12.752 8.43359L8 17H7.13867L11.8906 8.43359H12.752Z" fill="#031A6E"/>
</svg>
