<svg width="18" height="14" viewBox="0 0 18 14" fill="none" xmlns="http://www.w3.org/2000/svg">
<path d="M12.1917 5.57501L10.425 3.80834C10.1 3.48334 10.1 2.95834 10.425 2.63334C10.75 2.30834 11.275 2.30834 11.6 2.63334L12.775 3.80834L15.725 0.858343C16.05 0.533344 16.575 0.533344 16.9 0.858343C17.225 1.18334 17.225 1.70834 16.9 2.03334L13.3667 5.56668C13.0417 5.90001 12.5167 5.90001 12.1917 5.57501ZM7.33334 2.83334H1.50001C1.04167 2.83334 0.666672 3.20834 0.666672 3.66668C0.666672 4.12501 1.04167 4.50001 1.50001 4.50001H7.33334C7.79167 4.50001 8.16667 4.12501 8.16667 3.66668C8.16667 3.20834 7.79167 2.83334 7.33334 2.83334ZM15.9083 7.59168C15.5833 7.26668 15.0583 7.26668 14.7333 7.59168L13.1667 9.15834L11.6 7.59168C11.275 7.26668 10.75 7.26668 10.425 7.59168C10.1 7.91668 10.1 8.44168 10.425 8.76668L11.9917 10.3333L10.425 11.9C10.1 12.225 10.1 12.75 10.425 13.075C10.75 13.4 11.275 13.4 11.6 13.075L13.1667 11.5083L14.7333 13.075C15.0583 13.4 15.5833 13.4 15.9083 13.075C16.2333 12.75 16.2333 12.225 15.9083 11.9L14.3417 10.3333L15.9083 8.76668C16.2333 8.44168 16.2333 7.91668 15.9083 7.59168ZM7.33334 9.50001H1.50001C1.04167 9.50001 0.666672 9.87501 0.666672 10.3333C0.666672 10.7917 1.04167 11.1667 1.50001 11.1667H7.33334C7.79167 11.1667 8.16667 10.7917 8.16667 10.3333C8.16667 9.87501 7.79167 9.50001 7.33334 9.50001Z" fill="#2655A6"/>
</svg>
