<svg width="52" height="52" viewBox="0 0 52 52" fill="none" xmlns="http://www.w3.org/2000/svg">
<path d="M47.6381 23.6176C47.9323 23.2206 48.2059 22.77 48.4487 22.2578C48.6667 21.7949 48.4692 21.2436 48.0063 21.0255C47.5435 20.8074 46.9921 21.0049 46.7741 21.4678C45.4821 24.2039 43.2171 24.4467 42.0692 24.3726C39.1273 20.1347 33.5419 17.269 27.1316 17.269C24.3214 17.269 21.6717 17.8244 19.3306 18.7996C19.3326 18.7955 19.3347 18.7934 19.3347 18.7934C19.3347 18.7934 10.6202 17.6907 9.41468 18.6967C8.20914 19.7006 12.0274 23.2185 12.0274 23.2185C10.2849 28.7422 5.96676 29.7009 5.65612 29.7626C5.64994 29.7646 5.64377 29.7646 5.6376 29.7667C4.54315 30.0794 4.0741 31.7992 4.58841 33.6096C4.96283 34.9201 5.74869 35.9137 6.57158 36.247V36.2511C6.57158 36.2511 6.57364 36.2511 6.57981 36.2511C6.85548 36.3622 7.13732 36.3951 7.40682 36.3416C8.61648 36.5329 10.9247 37.1254 12.8667 38.9543C13.5086 39.736 14.243 40.4602 15.0577 41.1185C15.0577 41.1185 11.8422 46.6833 14.1381 48.0473C16.4484 49.4174 21.2417 50.1847 23.1467 44.7824C24.4263 45.0293 25.7594 45.1651 27.1316 45.1651C27.8105 45.1651 28.477 45.1301 29.1353 45.0663C29.9397 50.3863 35.1137 49.366 37.3355 48.0473C38.8537 47.1441 39.8247 42.9062 40.3082 40.1393C42.7851 37.72 44.2766 34.6115 44.2766 31.217C44.2766 29.4499 43.8672 27.7609 43.1307 26.2036C43.3097 26.185 43.4907 26.1562 43.6759 26.1213C43.7438 27.549 44.9226 28.6907 46.3667 28.6907C47.8521 28.6907 49.0617 27.4811 49.0617 25.9958C49.0617 24.9672 48.4857 24.0723 47.6381 23.6176ZM46.3667 26.8392C45.8997 26.8392 45.5212 26.4607 45.5212 25.9958C45.5212 25.5288 45.8997 25.1502 46.3667 25.1502C46.8317 25.1502 47.2102 25.5288 47.2102 25.9958C47.2102 26.4607 46.8317 26.8392 46.3667 26.8392Z" fill="#F4C20D"/>
<path d="M7.505 36.3239C8.59996 36.0121 9.06958 34.2914 8.55392 32.4807C8.03826 30.67 6.7326 29.4549 5.63763 29.7667C4.54267 30.0785 4.07305 31.7992 4.58871 33.6099C5.10437 35.4206 6.41003 36.6358 7.505 36.3239Z" fill="#D88712"/>
<path d="M47.638 23.6176C47.9322 23.2206 48.2058 22.77 48.4485 22.2578C48.6666 21.7949 48.4691 21.2436 48.0062 21.0255C47.5433 20.8074 46.992 21.0049 46.7739 21.4678C45.482 24.2039 43.217 24.4467 42.069 24.3726C39.1272 20.1347 33.5418 17.269 27.1315 17.269C24.3213 17.269 21.6716 17.8244 19.3304 18.7996C19.3325 18.7955 19.3345 18.7934 19.3345 18.7934C19.3345 18.7934 10.6201 17.6907 9.41455 18.6967C9.41455 18.6967 17.3555 18.4601 19.4662 20.5708C19.4662 20.5708 39.6353 18.2421 44.2764 31.217C44.2764 29.4499 43.8671 27.7609 43.1306 26.2036C43.3095 26.185 43.4906 26.1562 43.6757 26.1213C43.7436 27.549 44.9224 28.6907 46.3666 28.6907C47.8519 28.6907 49.0616 27.4811 49.0616 25.9958C49.0616 24.9672 48.4855 24.0723 47.638 23.6176ZM46.3666 26.8392C45.8996 26.8392 45.5211 26.4607 45.5211 25.9958C45.5211 25.5288 45.8996 25.1502 46.3666 25.1502C46.8315 25.1502 47.2101 25.5288 47.2101 25.9958C47.2101 26.4607 46.8315 26.8392 46.3666 26.8392Z" fill="#FFD849"/>
<path d="M16.6931 28.7298C17.4361 28.7298 18.0385 28.1274 18.0385 27.3844C18.0385 26.6413 17.4361 26.0389 16.6931 26.0389C15.95 26.0389 15.3477 26.6413 15.3477 27.3844C15.3477 28.1274 15.95 28.7298 16.6931 28.7298Z" fill="#D88712"/>
<path d="M35.1836 24.0826C34.9799 24.0517 34.8071 23.9015 34.7578 23.6896C34.7557 23.6835 34.1077 21.6921 28.5326 20.8692C22.7456 20.0134 20.5567 21.2744 20.5361 21.2888C20.2933 21.4328 19.9786 21.3588 19.8305 21.1181C19.6823 20.8774 19.7543 20.5647 19.993 20.4145C20.0897 20.3528 22.4514 18.9313 28.6807 19.8529C34.9614 20.7828 35.6938 23.1877 35.7576 23.4592C35.8214 23.737 35.6485 24.0126 35.3729 24.0764C35.3112 24.0887 35.2453 24.0908 35.1836 24.0826Z" fill="#D88712"/>
<path d="M18.4109 43.4823C10.6695 41.353 9.22327 36.7942 9.22327 36.7942C9.22327 36.7942 13.5435 34.7061 13.8171 34.6053C14.0907 34.5045 19.7563 37.1193 19.7563 37.1193L18.4109 43.4823Z" fill="#F4C20D"/>
<path d="M14.5906 42.1163C14.5906 42.1163 17.9603 44.0254 20.573 44.0254C20.573 44.0254 16.0492 44.8133 13.9487 43.4823L14.5906 42.1163Z" fill="#D88712"/>
<path d="M28.4543 18.0878C32.6206 18.0878 35.9982 14.7102 35.9982 10.5439C35.9982 6.37751 32.6206 3 28.4543 3C24.2879 3 20.9104 6.37751 20.9104 10.5439C20.9104 14.7102 24.2879 18.0878 28.4543 18.0878Z" fill="#F4BF00"/>
<path d="M28.4543 16.3247C31.647 16.3247 34.2351 13.7366 34.2351 10.5439C34.2351 7.35123 31.647 4.76306 28.4543 4.76306C25.2616 4.76306 22.6735 7.35123 22.6735 10.5439C22.6735 13.7366 25.2616 16.3247 28.4543 16.3247Z" fill="#FF8315"/>
<path fill-rule="evenodd" clip-rule="evenodd" d="M27.7919 7.35105C27.0225 7.62466 26.4691 8.35909 26.4691 9.22313C26.4691 10.3176 27.3578 11.2084 28.4543 11.2084C28.8185 11.2084 29.1147 11.5046 29.1147 11.8687C29.1147 12.2329 28.8185 12.5291 28.4543 12.5291C28.1992 12.5291 27.9771 12.383 27.866 12.1711C27.6973 11.8461 27.2982 11.7186 26.9752 11.8873C26.6502 12.0559 26.5226 12.455 26.6913 12.778C26.9217 13.2224 27.3146 13.5701 27.794 13.7388V14.072C27.794 14.4382 28.0902 14.7345 28.4564 14.7345C28.8226 14.7345 29.1188 14.4382 29.1188 14.072V13.7388C29.8882 13.4651 30.4416 12.7307 30.4416 11.8667C30.4416 10.7722 29.5529 9.88145 28.4564 9.88145C28.0923 9.88145 27.796 9.58521 27.796 9.22107C27.796 8.85694 28.0923 8.5607 28.4564 8.5607C28.7156 8.5607 28.9399 8.71088 29.0489 8.92895C29.2114 9.25605 29.6085 9.38977 29.9356 9.22725C30.2627 9.06473 30.3964 8.66768 30.2339 8.34058C30.0055 7.88181 29.6064 7.52386 29.1188 7.35105V7.01778C29.1188 6.65159 28.8226 6.35535 28.4564 6.35535C28.0902 6.35535 27.794 6.65159 27.794 7.01778L27.7919 7.35105Z" fill="#F4BF00"/>
</svg>
