<svg width="40" height="40" viewBox="0 0 40 40" fill="none" xmlns="http://www.w3.org/2000/svg">
<rect y="25" width="20" height="13" fill="#DB3236"/>
<rect x="20" y="28" width="20" height="10" fill="#DB3236"/>
<rect x="20" y="28" width="10" height="10" rx="1" fill="#AD162A"/>
<rect x="10" y="25" width="10" height="13" rx="1" fill="#AD162A"/>
<rect x="12" y="21" width="16" height="17" fill="#DB3236"/>
<path d="M24 31.3703V21H22V32C23 32.5 24 32 24 31.3703Z" fill="#AD162A"/>
<path d="M17 31.1315V21H23V31.1315C23 31.9302 22.1099 32.4066 21.4453 31.9635L20.5547 31.3698C20.2188 31.1459 19.7812 31.1459 19.4453 31.3698L18.5547 31.9635C17.8901 32.4066 17 31.9302 17 31.1315Z" fill="#FED843"/>
<path d="M21.6152 3.4712C20.9557 2.13049 19.0443 2.13049 18.3848 3.4712L16.8752 6.54033C16.8461 6.59957 16.7896 6.64061 16.7242 6.65002L13.3388 7.13734C11.8599 7.35022 11.2693 9.16811 12.3406 10.2096L14.793 12.5938C14.8403 12.6398 14.8619 12.7062 14.8506 12.7712L14.268 16.1415C14.0134 17.6138 15.5598 18.7373 16.8814 18.0403L19.9067 16.4447C19.9651 16.4139 20.0349 16.4139 20.0933 16.4447L23.1186 18.0403C24.4402 18.7373 25.9866 17.6138 25.732 16.1415L25.1494 12.7712C25.1381 12.7062 25.1597 12.6398 25.207 12.5938L27.6594 10.2096C28.7307 9.16812 28.1401 7.35022 26.6612 7.13734L23.2758 6.65002C23.2104 6.64061 23.1539 6.59957 23.1248 6.54033L21.6152 3.4712Z" fill="#FED843" stroke="#F9BC21" stroke-width="1.6"/>
</svg>
