<svg width="40" height="40" viewBox="0 0 40 40" fill="none" xmlns="http://www.w3.org/2000/svg">
<g clip-path="url(#clip0_644_5480)">
<path d="M36 22.2446V15.6781H32.3691C31.9828 14.0558 31.3648 12.5107 30.515 11.1202L33.0644 8.57082L28.4292 3.93562L25.8798 6.48498C24.4893 5.63519 22.9442 4.93991 21.3219 4.6309V1H14.6781V4.6309C13.0558 5.01717 11.5107 5.63519 10.1202 6.48498L7.57082 3.93562L2.93562 8.57082L5.48498 11.1202C4.63519 12.5107 3.93991 14.0558 3.6309 15.6781H0V22.2446H3.6309C4.01717 23.867 4.63519 25.412 5.48498 26.8026L2.93562 29.3519L7.57082 33.9871L10.1202 31.4378C11.5107 32.2876 13.0558 32.9828 14.6781 33.2918V36.9227H21.2446V33.2918C22.867 32.9056 24.412 32.2876 25.8026 31.4378L28.3519 33.9871L32.9871 29.3519L30.4378 26.8026C31.2876 25.412 31.9828 23.867 32.2918 22.2446H36ZM18 23.867C15.2961 23.867 13.133 21.7039 13.133 19C13.133 16.2961 15.2961 14.133 18 14.133C20.7039 14.133 22.867 16.2961 22.867 19C22.867 21.7039 20.7039 23.867 18 23.867Z" fill="#F4C20D"/>
<path d="M18 27.5751C22.7359 27.5751 26.5751 23.7359 26.5751 19C26.5751 14.2641 22.7359 10.4249 18 10.4249C13.2641 10.4249 9.42493 14.2641 9.42493 19C9.42493 23.7359 13.2641 27.5751 18 27.5751Z" stroke="#FDF2CB" stroke-width="4.2323"/>
<path d="M38.6077 21.6994C38.6061 21.3224 38.3221 21.0385 37.9452 21.0368L37.3798 21.0343C37.3793 20.9401 37.4732 20.8463 37.4254 20.7047L37.4196 19.3854L32.9906 19.3659L32.9964 20.6852C32.9968 20.7794 33.0446 20.9209 33.045 21.0152L32.4796 21.0127C32.1026 21.011 31.8212 21.2925 31.8228 21.6694L31.894 37.7835C31.8956 38.1605 32.1796 38.4444 32.5565 38.4461L37.9279 38.4698C38.3048 38.4715 38.5863 38.19 38.5846 37.8131L38.6077 21.6994Z" fill="#14922C"/>
<path d="M35.31 21.7787L35.2393 5.75879" stroke="#A8EAB5" stroke-width="3"/>
<path d="M35.0076 6.65324L33.7286 5.09275L34.4675 1.70364L35.9283 1.7572L36.6968 5.05874L35.4315 6.60799L35.0076 6.65324Z" fill="#A8EAB5" stroke="#A8EAB5" stroke-width="3"/>
<path d="M33.9952 22.8096L34.056 36.5678" stroke="#3CBA54" stroke-width="1.9417"/>
<path d="M36.5869 22.8682L36.6477 36.6264" stroke="#3CBA54" stroke-width="1.9417"/>
<path d="M31.9146 21.1045L38.6052 21.134" stroke="#3CBA54" stroke-width="1.9417"/>
</g>
<defs>
<clipPath id="clip0_644_5480">
<rect width="40" height="40" fill="white"/>
</clipPath>
</defs>
</svg>
