<svg width="45" height="45" viewBox="0 0 45 45" fill="none" xmlns="http://www.w3.org/2000/svg">
<path d="M22.5 0.416626C10.31 0.416626 0.416687 10.31 0.416687 22.5C0.416687 34.69 10.31 44.5833 22.5 44.5833C34.69 44.5833 44.5834 34.69 44.5834 22.5C44.5834 10.31 34.69 0.416626 22.5 0.416626ZM16.5154 31.9737L8.58752 24.0458C7.72627 23.1845 7.72627 21.7933 8.58752 20.932C9.44877 20.0708 10.84 20.0708 11.7013 20.932L18.0834 27.292L33.2767 12.0987C34.1379 11.2375 35.5292 11.2375 36.3904 12.0987C37.2517 12.96 37.2517 14.3512 36.3904 15.2125L19.6292 31.9737C18.79 32.835 17.3767 32.835 16.5154 31.9737Z" fill="#30CD60"/>
</svg>
