<svg width="40" height="40" viewBox="0 0 40 40" fill="none" xmlns="http://www.w3.org/2000/svg">
<rect width="10.5289" height="27.23" rx="2" transform="matrix(-1 0 0 1 37.095 9.87927)" fill="#1687C9"/>
<rect width="10.5289" height="17.0641" rx="2" transform="matrix(-1 0 0 1 26.5662 20.0452)" fill="#3CBA54"/>
<rect width="10.5289" height="12.3443" rx="2" transform="matrix(-1 0 0 1 16.0371 24.7649)" fill="#F4C20D"/>
<path fill-rule="evenodd" clip-rule="evenodd" d="M4.34982 38.1985H36.4382C37.0938 38.1983 37.7224 38.0069 38.186 37.6664C38.6495 37.3259 38.91 36.8642 38.9104 36.3827C38.91 35.9013 38.6494 35.4397 38.1858 35.0994C37.7223 34.759 37.0937 34.5679 36.4382 34.5679H4.34982C3.69438 34.5679 3.06581 34.759 2.60222 35.0994C2.13863 35.4397 1.87791 35.9013 1.87756 36.3827C1.8779 36.8642 2.13854 37.3259 2.60209 37.6664C3.06565 38.0069 3.69426 38.1983 4.34982 38.1985Z" fill="#2D427D"/>
<path d="M10 20C14.9706 20 19 15.9706 19 11C19 6.02944 14.9706 2 10 2C5.02944 2 1 6.02944 1 11C1 15.9706 5.02944 20 10 20Z" fill="#FED843"/>
<path d="M10 18C13.866 18 17 14.866 17 11C17 7.13401 13.866 4 10 4C6.13401 4 3 7.13401 3 11C3 14.866 6.13401 18 10 18Z" fill="#F9BC21"/>
<path fill-rule="evenodd" clip-rule="evenodd" d="M9.57399 7.12838C9.11379 7.28318 8.71536 7.56932 8.43354 7.94748C8.15172 8.32565 8.00027 8.77729 8 9.24037C8.00025 9.83424 8.24911 10.4037 8.6919 10.8237C9.13469 11.2436 9.73525 11.4796 10.3615 11.4799C10.4647 11.4799 10.567 11.4991 10.6624 11.5366C10.7578 11.5741 10.8445 11.6291 10.9176 11.6983C10.9906 11.7676 11.0485 11.8498 11.0881 11.9403C11.1276 12.0308 11.1479 12.1278 11.1479 12.2257C11.1479 12.3237 11.1276 12.4207 11.0881 12.5112C11.0485 12.6017 10.9906 12.6839 10.9176 12.7532C10.8445 12.8224 10.7578 12.8774 10.6624 12.9148C10.567 12.9523 10.4647 12.9716 10.3615 12.9716C10.2169 12.9715 10.0752 12.9336 9.95182 12.8622C9.8285 12.7907 9.72834 12.6883 9.66233 12.5664C9.56626 12.3918 9.40144 12.2602 9.20366 12.2001C9.00587 12.1401 8.7911 12.1565 8.606 12.2458C8.42171 12.3367 8.28276 12.493 8.21944 12.6807C8.15613 12.8683 8.17354 13.0721 8.26793 13.2476C8.54394 13.7538 9.01256 14.1415 9.57877 14.3323V14.7084C9.57877 14.9065 9.6617 15.0964 9.80937 15.2365C9.95705 15.3765 10.1574 15.4552 10.3662 15.4552C10.5751 15.4552 10.7753 15.3765 10.923 15.2365C11.0707 15.0964 11.1537 14.9065 11.1537 14.7084V14.3323C11.6139 14.1777 12.0123 13.8918 12.2941 13.5138C12.576 13.1357 12.7274 12.6842 12.7276 12.2212C12.7276 11.6272 12.4788 11.0576 12.036 10.6376C11.5931 10.2177 10.9925 9.98171 10.3662 9.98171C10.263 9.98171 10.1606 9.96241 10.0652 9.92493C9.96978 9.88745 9.88316 9.8325 9.81012 9.76324C9.73709 9.69398 9.67916 9.61176 9.63963 9.52126C9.60011 9.43077 9.57971 9.33376 9.57971 9.23581C9.57971 9.03791 9.66256 8.8481 9.81003 8.70807C9.9575 8.56805 10.1576 8.48926 10.3662 8.48902C10.5129 8.4893 10.6566 8.52829 10.7813 8.60164C10.906 8.67498 11.0066 8.77978 11.072 8.90431C11.118 8.99227 11.1818 9.07076 11.2598 9.13529C11.3378 9.19982 11.4285 9.2491 11.5267 9.28033C11.6248 9.31155 11.7285 9.32409 11.8317 9.31724C11.935 9.31038 12.0358 9.28426 12.1283 9.24037C12.221 9.1967 12.3037 9.13612 12.3717 9.06213C12.4397 8.98813 12.4916 8.90216 12.5245 8.80912C12.5574 8.71608 12.5706 8.6178 12.5635 8.5199C12.5563 8.422 12.5289 8.3264 12.4827 8.23857C12.2088 7.71782 11.7328 7.31796 11.1546 7.12293V6.74679C11.1546 6.54873 11.0716 6.35878 10.9239 6.21873C10.7763 6.07868 10.576 6 10.3672 6C10.1583 6 9.95808 6.07868 9.81041 6.21873C9.66273 6.35878 9.57971 6.54873 9.57971 6.74679V7.12293L9.57399 7.12838Z" fill="#FED843"/>
</svg>
