<svg width="272" height="62" viewBox="0 0 272 62" fill="none" xmlns="http://www.w3.org/2000/svg">
<path d="M0.177734 2.43359H2.59766C3.73438 2.43359 4.55664 2.60352 5.06445 2.94336C5.57227 3.2832 5.82617 3.82031 5.82617 4.55469C5.82617 5.0625 5.68359 5.48242 5.39844 5.81445C5.11719 6.14258 4.70508 6.35547 4.16211 6.45312V6.51172C5.46289 6.73438 6.11328 7.41797 6.11328 8.5625C6.11328 9.32812 5.85352 9.92578 5.33398 10.3555C4.81836 10.7852 4.0957 11 3.16602 11H0.177734V2.43359ZM1.17383 6.10156H2.81445C3.51758 6.10156 4.02344 5.99219 4.33203 5.77344C4.64062 5.55078 4.79492 5.17773 4.79492 4.6543C4.79492 4.17383 4.62305 3.82812 4.2793 3.61719C3.93555 3.40234 3.38867 3.29492 2.63867 3.29492H1.17383V6.10156ZM1.17383 6.94531V10.1504H2.96094C3.65234 10.1504 4.17188 10.0176 4.51953 9.75195C4.87109 9.48242 5.04688 9.0625 5.04688 8.49219C5.04688 7.96094 4.86719 7.57031 4.50781 7.32031C4.15234 7.07031 3.60938 6.94531 2.87891 6.94531H1.17383ZM12.1617 11L11.9684 10.0859H11.9215C11.6012 10.4883 11.2809 10.7617 10.9605 10.9062C10.6441 11.0469 10.2477 11.1172 9.77109 11.1172C9.13437 11.1172 8.63437 10.9531 8.27109 10.625C7.91172 10.2969 7.73203 9.83008 7.73203 9.22461C7.73203 7.92773 8.76914 7.24805 10.8434 7.18555L11.9332 7.15039V6.75195C11.9332 6.24805 11.8238 5.87695 11.6051 5.63867C11.3902 5.39648 11.0445 5.27539 10.568 5.27539C10.0328 5.27539 9.42734 5.43945 8.75156 5.76758L8.45273 5.02344C8.76914 4.85156 9.11484 4.7168 9.48984 4.61914C9.86875 4.52148 10.2477 4.47266 10.6266 4.47266C11.3922 4.47266 11.9586 4.64258 12.3258 4.98242C12.6969 5.32227 12.8824 5.86719 12.8824 6.61719V11H12.1617ZM9.96445 10.3145C10.5699 10.3145 11.0445 10.1484 11.3883 9.81641C11.7359 9.48438 11.9098 9.01953 11.9098 8.42188V7.8418L10.9371 7.88281C10.1637 7.91016 9.60508 8.03125 9.26133 8.24609C8.92148 8.45703 8.75156 8.78711 8.75156 9.23633C8.75156 9.58789 8.85703 9.85547 9.06797 10.0391C9.28281 10.2227 9.58164 10.3145 9.96445 10.3145ZM9.73594 12.418C9.73594 12.1953 9.79258 12.0312 9.90586 11.9258C10.023 11.8203 10.1637 11.7676 10.3277 11.7676C10.484 11.7676 10.6187 11.8203 10.732 11.9258C10.8453 12.0312 10.902 12.1953 10.902 12.418C10.902 12.6328 10.8453 12.793 10.732 12.8984C10.6187 13.0078 10.484 13.0625 10.3277 13.0625C10.1637 13.0625 10.023 13.0078 9.90586 12.8984C9.79258 12.793 9.73594 12.6328 9.73594 12.418ZM19.6867 11V6.8457C19.6867 6.32227 19.5676 5.93164 19.3293 5.67383C19.091 5.41602 18.718 5.28711 18.2102 5.28711C17.5383 5.28711 17.0461 5.46875 16.7336 5.83203C16.4211 6.19531 16.2648 6.79492 16.2648 7.63086V11H15.2922V4.57812H16.0832L16.2414 5.45703H16.2883C16.4875 5.14062 16.7668 4.89648 17.1262 4.72461C17.4855 4.54883 17.8859 4.46094 18.3273 4.46094C19.1008 4.46094 19.6828 4.64844 20.0734 5.02344C20.4641 5.39453 20.6594 5.99023 20.6594 6.81055V11H19.6867ZM29.1469 11.1172C28.2172 11.1172 27.4965 10.832 26.9848 10.2617C26.477 9.6875 26.223 8.87695 26.223 7.83008C26.223 6.75586 26.4809 5.92578 26.9965 5.33984C27.516 4.75391 28.2543 4.46094 29.2113 4.46094C29.5199 4.46094 29.8285 4.49414 30.1371 4.56055C30.4457 4.62695 30.6879 4.70508 30.8637 4.79492L30.5648 5.62109C30.35 5.53516 30.1156 5.46484 29.8617 5.41016C29.6078 5.35156 29.3832 5.32227 29.1879 5.32227C27.8832 5.32227 27.2309 6.1543 27.2309 7.81836C27.2309 8.60742 27.3891 9.21289 27.7055 9.63477C28.0258 10.0566 28.4984 10.2676 29.1234 10.2676C29.6586 10.2676 30.2074 10.1523 30.7699 9.92188V10.7832C30.3402 11.0059 29.7992 11.1172 29.1469 11.1172ZM38.2422 7.7832C38.2422 8.83008 37.9785 9.64844 37.4512 10.2383C36.9238 10.8242 36.1953 11.1172 35.2656 11.1172C34.6914 11.1172 34.1816 10.9824 33.7363 10.7129C33.291 10.4434 32.9473 10.0566 32.7051 9.55273C32.4629 9.04883 32.3418 8.45898 32.3418 7.7832C32.3418 6.73633 32.6035 5.92188 33.127 5.33984C33.6504 4.75391 34.377 4.46094 35.3066 4.46094C36.2051 4.46094 36.918 4.75977 37.4453 5.35742C37.9766 5.95508 38.2422 6.76367 38.2422 7.7832ZM33.3496 7.7832C33.3496 8.60352 33.5137 9.22852 33.8418 9.6582C34.1699 10.0879 34.6523 10.3027 35.2891 10.3027C35.9258 10.3027 36.4082 10.0898 36.7363 9.66406C37.0684 9.23438 37.2344 8.60742 37.2344 7.7832C37.2344 6.9668 37.0684 6.34766 36.7363 5.92578C36.4082 5.5 35.9219 5.28711 35.2773 5.28711C34.6406 5.28711 34.1602 5.49609 33.8359 5.91406C33.5117 6.33203 33.3496 6.95508 33.3496 7.7832ZM34.4746 3.58203C34.6621 3.33984 34.8633 3.04688 35.0781 2.70312C35.2969 2.35938 35.4688 2.06055 35.5938 1.80664H36.7773V1.92969C36.6055 2.18359 36.3496 2.49609 36.0098 2.86719C35.6699 3.23828 35.375 3.52539 35.125 3.72852H34.4746V3.58203ZM45.9445 10.3145C46.1164 10.3145 46.2824 10.3027 46.4426 10.2793C46.6027 10.252 46.7297 10.2246 46.8234 10.1973V10.9414C46.718 10.9922 46.5617 11.0332 46.3547 11.0645C46.1516 11.0996 45.968 11.1172 45.8039 11.1172C44.5617 11.1172 43.9406 10.4629 43.9406 9.1543V5.33398H43.0207V4.86523L43.9406 4.46094L44.3508 3.08984H44.9133V4.57812H46.7766V5.33398H44.9133V9.11328C44.9133 9.5 45.0051 9.79688 45.1887 10.0039C45.3723 10.2109 45.6242 10.3145 45.9445 10.3145ZM52.907 11V6.8457C52.907 6.32227 52.7879 5.93164 52.5496 5.67383C52.3113 5.41602 51.9383 5.28711 51.4305 5.28711C50.7547 5.28711 50.2605 5.4707 49.948 5.83789C49.6395 6.20508 49.4852 6.80664 49.4852 7.64258V11H48.5125V1.88281H49.4852V4.64258C49.4852 4.97461 49.4695 5.25 49.4383 5.46875H49.4969C49.6883 5.16016 49.9598 4.91797 50.3113 4.74219C50.6668 4.5625 51.0711 4.47266 51.5242 4.47266C52.3094 4.47266 52.8973 4.66016 53.2879 5.03516C53.6824 5.40625 53.8797 5.99805 53.8797 6.81055V11H52.907ZM58.9965 11.1172C58.0473 11.1172 57.2973 10.8281 56.7465 10.25C56.1996 9.67188 55.9262 8.86914 55.9262 7.8418C55.9262 6.80664 56.1801 5.98438 56.6879 5.375C57.1996 4.76562 57.8852 4.46094 58.7445 4.46094C59.5492 4.46094 60.1859 4.72656 60.6547 5.25781C61.1234 5.78516 61.3578 6.48242 61.3578 7.34961V7.96484H56.934C56.9535 8.71875 57.143 9.29102 57.5023 9.68164C57.8656 10.0723 58.3754 10.2676 59.0316 10.2676C59.723 10.2676 60.4066 10.123 61.0824 9.83398V10.7012C60.7387 10.8496 60.4125 10.9551 60.1039 11.0176C59.7992 11.084 59.4301 11.1172 58.9965 11.1172ZM58.7328 5.27539C58.2172 5.27539 57.8051 5.44336 57.4965 5.7793C57.1918 6.11523 57.0121 6.58008 56.9574 7.17383H60.3148C60.3148 6.56055 60.1781 6.0918 59.9047 5.76758C59.6312 5.43945 59.2406 5.27539 58.7328 5.27539ZM60.4379 3.72852H59.8871C59.4496 3.43555 59.0375 3.11133 58.6508 2.75586C58.2055 3.15039 57.7934 3.47461 57.4145 3.72852H56.8637V3.58203L57.1742 3.23047C57.6117 2.75 57.932 2.35938 58.1352 2.05859H59.1664C59.4242 2.42578 59.848 2.93359 60.4379 3.58203V3.72852ZM61.4223 1.36133C61.4223 1.76367 61.1742 2.02148 60.6781 2.13477L60.643 2.60938H60.1742L60.1156 1.8418C60.3383 1.80664 60.5102 1.75781 60.6312 1.69531C60.7562 1.63281 60.8187 1.52734 60.8187 1.37891C60.8187 1.23437 60.7621 1.13867 60.6488 1.0918C60.5395 1.04102 60.4008 1.01562 60.2328 1.01562C60.0531 1.01562 59.9125 1.02734 59.8109 1.05078V0.582031C59.9086 0.558594 60.0648 0.546875 60.2797 0.546875C61.0414 0.546875 61.4223 0.818359 61.4223 1.36133ZM71.3102 10.1387H71.2574C70.8082 10.791 70.1363 11.1172 69.2418 11.1172C68.402 11.1172 67.7477 10.8301 67.2789 10.2559C66.8141 9.68164 66.5816 8.86523 66.5816 7.80664C66.5816 6.74805 66.816 5.92578 67.2848 5.33984C67.7535 4.75391 68.4059 4.46094 69.2418 4.46094C70.1129 4.46094 70.7809 4.77734 71.2457 5.41016H71.3219C71.2789 5.08594 71.2574 4.78125 71.2574 4.49609V3.7168H68.6324V2.96094H71.2574V1.88281H72.2301V2.96094H73.1441V3.7168H72.2301V11H71.4391L71.3102 10.1387ZM69.3648 10.3027C70.0289 10.3027 70.5094 10.123 70.8063 9.76367C71.107 9.40039 71.2574 8.81641 71.2574 8.01172V7.80664C71.2574 6.89648 71.1051 6.24805 70.8004 5.86133C70.4996 5.4707 70.0172 5.27539 69.3531 5.27539C68.7828 5.27539 68.3453 5.49805 68.0406 5.94336C67.7398 6.38477 67.5895 7.00977 67.5895 7.81836C67.5895 8.63867 67.7398 9.25781 68.0406 9.67578C68.3414 10.0938 68.7828 10.3027 69.3648 10.3027ZM78.6477 11L78.4543 10.0859H78.4074C78.0871 10.4883 77.7668 10.7617 77.4465 10.9062C77.1301 11.0469 76.7336 11.1172 76.257 11.1172C75.6203 11.1172 75.1203 10.9531 74.757 10.625C74.3977 10.2969 74.218 9.83008 74.218 9.22461C74.218 7.92773 75.2551 7.24805 77.3293 7.18555L78.4191 7.15039V6.75195C78.4191 6.24805 78.3098 5.87695 78.091 5.63867C77.8762 5.39648 77.5305 5.27539 77.0539 5.27539C76.5188 5.27539 75.9133 5.43945 75.2375 5.76758L74.9387 5.02344C75.2551 4.85156 75.6008 4.7168 75.9758 4.61914C76.3547 4.52148 76.7336 4.47266 77.1125 4.47266C77.8781 4.47266 78.4445 4.64258 78.8117 4.98242C79.1828 5.32227 79.3684 5.86719 79.3684 6.61719V11H78.6477ZM76.4504 10.3145C77.0559 10.3145 77.5305 10.1484 77.8742 9.81641C78.2219 9.48438 78.3957 9.01953 78.3957 8.42188V7.8418L77.423 7.88281C76.6496 7.91016 76.091 8.03125 75.7473 8.24609C75.4074 8.45703 75.2375 8.78711 75.2375 9.23633C75.2375 9.58789 75.343 9.85547 75.5539 10.0391C75.7688 10.2227 76.0676 10.3145 76.4504 10.3145ZM76.2219 12.418C76.2219 12.1953 76.2785 12.0312 76.3918 11.9258C76.509 11.8203 76.6496 11.7676 76.8137 11.7676C76.9699 11.7676 77.1047 11.8203 77.218 11.9258C77.3313 12.0312 77.3879 12.1953 77.3879 12.418C77.3879 12.6328 77.3313 12.793 77.218 12.8984C77.1047 13.0078 76.9699 13.0625 76.8137 13.0625C76.6496 13.0625 76.509 13.0078 76.3918 12.8984C76.2785 12.793 76.2219 12.6328 76.2219 12.418ZM83.8523 10.3145C84.0242 10.3145 84.1902 10.3027 84.3504 10.2793C84.5105 10.252 84.6375 10.2246 84.7312 10.1973V10.9414C84.6258 10.9922 84.4695 11.0332 84.2625 11.0645C84.0594 11.0996 83.8758 11.1172 83.7117 11.1172C82.4695 11.1172 81.8484 10.4629 81.8484 9.1543V5.33398H80.9285V4.86523L81.8484 4.46094L82.2586 3.08984H82.8211V4.57812H84.6844V5.33398H82.8211V9.11328C82.8211 9.5 82.9129 9.79688 83.0965 10.0039C83.2801 10.2109 83.532 10.3145 83.8523 10.3145ZM94.3086 10.1387H94.2559C93.8066 10.791 93.1348 11.1172 92.2402 11.1172C91.4004 11.1172 90.7461 10.8301 90.2773 10.2559C89.8125 9.68164 89.5801 8.86523 89.5801 7.80664C89.5801 6.74805 89.8145 5.92578 90.2832 5.33984C90.752 4.75391 91.4043 4.46094 92.2402 4.46094C93.1113 4.46094 93.7793 4.77734 94.2441 5.41016H94.3203C94.2773 5.08594 94.2559 4.78125 94.2559 4.49609V3.7168H91.6309V2.96094H94.2559V1.88281H95.2285V2.96094H96.1426V3.7168H95.2285V11H94.4375L94.3086 10.1387ZM92.3633 10.3027C93.0273 10.3027 93.5078 10.123 93.8047 9.76367C94.1055 9.40039 94.2559 8.81641 94.2559 8.01172V7.80664C94.2559 6.89648 94.1035 6.24805 93.7988 5.86133C93.498 5.4707 93.0156 5.27539 92.3516 5.27539C91.7812 5.27539 91.3438 5.49805 91.0391 5.94336C90.7383 6.38477 90.5879 7.00977 90.5879 7.81836C90.5879 8.63867 90.7383 9.25781 91.0391 9.67578C91.3398 10.0938 91.7812 10.3027 92.3633 10.3027ZM98.6109 4.58984V8.74414C98.6109 9.26758 98.7301 9.6582 98.9684 9.91602C99.2066 10.1738 99.5797 10.3027 100.088 10.3027C100.759 10.3027 101.25 10.1191 101.558 9.75195C101.871 9.38477 102.027 8.78516 102.027 7.95312V4.58984H103V5.29883C103.32 5.25586 103.552 5.10938 103.697 4.85938C103.841 4.60938 103.914 4.18359 103.914 3.58203H104.957L105.045 3.7168C104.92 4.44336 104.685 4.99414 104.341 5.36914C103.998 5.74023 103.55 5.95312 103 6.00781V11H102.197L102.056 10.1387H102.004C101.8 10.459 101.521 10.7031 101.166 10.8711C100.814 11.0352 100.421 11.1172 99.9879 11.1172C99.1949 11.1172 98.6031 10.9316 98.2125 10.5605C97.8219 10.1895 97.6266 9.5957 97.6266 8.7793V4.58984H98.6109ZM111.62 7.7832C111.62 8.83008 111.357 9.64844 110.829 10.2383C110.302 10.8242 109.573 11.1172 108.644 11.1172C108.07 11.1172 107.56 10.9824 107.114 10.7129C106.669 10.4434 106.325 10.0566 106.083 9.55273C105.841 9.04883 105.72 8.45898 105.72 7.7832C105.72 6.73633 105.982 5.92188 106.505 5.33984C107.029 4.75391 107.755 4.46094 108.685 4.46094C109.532 4.46094 110.224 4.73633 110.759 5.28711C110.958 5.22852 111.114 5.13672 111.228 5.01172C111.341 4.88281 111.423 4.72266 111.474 4.53125C111.525 4.33594 111.55 4.02344 111.55 3.59375H112.605L112.693 3.72852C112.571 4.33789 112.392 4.81445 112.154 5.1582C111.919 5.49805 111.603 5.74219 111.204 5.89062C111.482 6.42969 111.62 7.06055 111.62 7.7832ZM106.728 7.7832C106.728 8.60742 106.882 9.23438 107.191 9.66406C107.499 10.0898 107.991 10.3027 108.667 10.3027C109.351 10.3027 109.845 10.0898 110.15 9.66406C110.458 9.23438 110.613 8.60742 110.613 7.7832C110.613 6.96289 110.456 6.3418 110.144 5.91992C109.835 5.49805 109.339 5.28711 108.655 5.28711C107.98 5.28711 107.489 5.49805 107.185 5.91992C106.88 6.3418 106.728 6.96289 106.728 7.7832ZM108.07 12.418C108.07 12.1953 108.126 12.0312 108.239 11.9258C108.357 11.8203 108.497 11.7676 108.661 11.7676C108.818 11.7676 108.952 11.8203 109.066 11.9258C109.179 12.0312 109.236 12.1953 109.236 12.418C109.236 12.6328 109.179 12.793 109.066 12.8984C108.952 13.0078 108.818 13.0625 108.661 13.0625C108.497 13.0625 108.357 13.0078 108.239 12.8984C108.126 12.793 108.07 12.6328 108.07 12.418ZM116.356 11.1172C115.427 11.1172 114.706 10.832 114.194 10.2617C113.686 9.6875 113.432 8.87695 113.432 7.83008C113.432 6.75586 113.69 5.92578 114.206 5.33984C114.725 4.75391 115.464 4.46094 116.421 4.46094C116.729 4.46094 117.038 4.49414 117.346 4.56055C117.655 4.62695 117.897 4.70508 118.073 4.79492L117.774 5.62109C117.559 5.53516 117.325 5.46484 117.071 5.41016C116.817 5.35156 116.593 5.32227 116.397 5.32227C115.093 5.32227 114.44 6.1543 114.44 7.81836C114.44 8.60742 114.598 9.21289 114.915 9.63477C115.235 10.0566 115.708 10.2676 116.333 10.2676C116.868 10.2676 117.417 10.1523 117.979 9.92188V10.7832C117.55 11.0059 117.009 11.1172 116.356 11.1172ZM131.611 11V6.82227C131.611 6.31055 131.502 5.92773 131.283 5.67383C131.064 5.41602 130.725 5.28711 130.264 5.28711C129.658 5.28711 129.211 5.46094 128.922 5.80859C128.633 6.15625 128.488 6.69141 128.488 7.41406V11H127.516V6.82227C127.516 6.31055 127.406 5.92773 127.188 5.67383C126.969 5.41602 126.627 5.28711 126.162 5.28711C125.553 5.28711 125.105 5.4707 124.82 5.83789C124.539 6.20117 124.398 6.79883 124.398 7.63086V11H123.426V4.57812H124.217L124.375 5.45703H124.422C124.605 5.14453 124.863 4.90039 125.195 4.72461C125.531 4.54883 125.906 4.46094 126.32 4.46094C127.324 4.46094 127.98 4.82422 128.289 5.55078H128.336C128.527 5.21484 128.805 4.94922 129.168 4.75391C129.531 4.55859 129.945 4.46094 130.41 4.46094C131.137 4.46094 131.68 4.64844 132.039 5.02344C132.402 5.39453 132.584 5.99023 132.584 6.81055V11H131.611ZM135.908 4.57812V8.74414C135.908 9.26758 136.027 9.6582 136.265 9.91602C136.504 10.1738 136.877 10.3027 137.384 10.3027C138.056 10.3027 138.546 10.1191 138.855 9.75195C139.168 9.38477 139.324 8.78516 139.324 7.95312V4.57812H140.296V11H139.494L139.353 10.1387H139.3C139.101 10.4551 138.824 10.6973 138.468 10.8652C138.117 11.0332 137.714 11.1172 137.261 11.1172C136.48 11.1172 135.894 10.9316 135.504 10.5605C135.117 10.1895 134.923 9.5957 134.923 8.7793V4.57812H135.908ZM136.886 12.418C136.886 12.1953 136.943 12.0312 137.056 11.9258C137.173 11.8203 137.314 11.7676 137.478 11.7676C137.634 11.7676 137.769 11.8203 137.882 11.9258C137.996 12.0312 138.052 12.1953 138.052 12.418C138.052 12.6328 137.996 12.793 137.882 12.8984C137.769 13.0078 137.634 13.0625 137.478 13.0625C137.314 13.0625 137.173 13.0078 137.056 12.8984C136.943 12.793 136.886 12.6328 136.886 12.418ZM145.331 11.1172C144.402 11.1172 143.681 10.832 143.169 10.2617C142.661 9.6875 142.407 8.87695 142.407 7.83008C142.407 6.75586 142.665 5.92578 143.181 5.33984C143.7 4.75391 144.439 4.46094 145.396 4.46094C145.704 4.46094 146.013 4.49414 146.321 4.56055C146.63 4.62695 146.872 4.70508 147.048 4.79492L146.749 5.62109C146.534 5.53516 146.3 5.46484 146.046 5.41016C145.792 5.35156 145.568 5.32227 145.372 5.32227C144.068 5.32227 143.415 6.1543 143.415 7.81836C143.415 8.60742 143.573 9.21289 143.89 9.63477C144.21 10.0566 144.683 10.2676 145.308 10.2676C145.843 10.2676 146.392 10.1523 146.954 9.92188V10.7832C146.525 11.0059 145.984 11.1172 145.331 11.1172ZM154.475 10.3145C154.647 10.3145 154.813 10.3027 154.973 10.2793C155.133 10.252 155.26 10.2246 155.354 10.1973V10.9414C155.248 10.9922 155.092 11.0332 154.885 11.0645C154.682 11.0996 154.498 11.1172 154.334 11.1172C153.092 11.1172 152.471 10.4629 152.471 9.1543V5.33398H151.551V4.86523L152.471 4.46094L152.881 3.08984H153.444V4.57812H155.307V5.33398H153.444V9.11328C153.444 9.5 153.536 9.79688 153.719 10.0039C153.903 10.2109 154.155 10.3145 154.475 10.3145ZM158.016 11H157.043V4.57812H158.016V11ZM156.961 2.83789C156.961 2.61523 157.016 2.45312 157.125 2.35156C157.234 2.24609 157.371 2.19336 157.535 2.19336C157.691 2.19336 157.826 2.24609 157.939 2.35156C158.053 2.45703 158.109 2.61914 158.109 2.83789C158.109 3.05664 158.053 3.2207 157.939 3.33008C157.826 3.43555 157.691 3.48828 157.535 3.48828C157.371 3.48828 157.234 3.43555 157.125 3.33008C157.016 3.2207 156.961 3.05664 156.961 2.83789ZM163.191 11.1172C162.242 11.1172 161.492 10.8281 160.941 10.25C160.394 9.67188 160.121 8.86914 160.121 7.8418C160.121 6.80664 160.375 5.98438 160.882 5.375C161.394 4.76562 162.08 4.46094 162.939 4.46094C163.744 4.46094 164.38 4.72656 164.849 5.25781C165.318 5.78516 165.552 6.48242 165.552 7.34961V7.96484H161.129C161.148 8.71875 161.337 9.29102 161.697 9.68164C162.06 10.0723 162.57 10.2676 163.226 10.2676C163.918 10.2676 164.601 10.123 165.277 9.83398V10.7012C164.933 10.8496 164.607 10.9551 164.298 11.0176C163.994 11.084 163.625 11.1172 163.191 11.1172ZM162.927 5.27539C162.412 5.27539 162 5.44336 161.691 5.7793C161.386 6.11523 161.207 6.58008 161.152 7.17383H164.509C164.509 6.56055 164.373 6.0918 164.099 5.76758C163.826 5.43945 163.435 5.27539 162.927 5.27539ZM160.964 3.59375C161.461 3.0625 161.808 2.67188 162.007 2.42188C162.207 2.17188 162.351 1.9668 162.441 1.80664H163.414C163.5 1.9707 163.648 2.18359 163.859 2.44531C164.074 2.70312 164.425 3.08594 164.914 3.59375V3.72852H164.216C163.873 3.51367 163.441 3.15039 162.921 2.63867C162.39 3.16211 161.962 3.52539 161.638 3.72852H160.964V3.59375ZM168.53 4.57812V8.74414C168.53 9.26758 168.65 9.6582 168.888 9.91602C169.126 10.1738 169.499 10.3027 170.007 10.3027C170.679 10.3027 171.169 10.1191 171.478 9.75195C171.79 9.38477 171.946 8.78516 171.946 7.95312V4.57812H172.919V11H172.116L171.976 10.1387H171.923C171.724 10.4551 171.446 10.6973 171.091 10.8652C170.739 11.0332 170.337 11.1172 169.884 11.1172C169.103 11.1172 168.517 10.9316 168.126 10.5605C167.739 10.1895 167.546 9.5957 167.546 8.7793V4.57812H168.53ZM183.299 11V6.8457C183.299 6.32227 183.18 5.93164 182.942 5.67383C182.704 5.41602 182.33 5.28711 181.823 5.28711C181.151 5.28711 180.659 5.46875 180.346 5.83203C180.034 6.19531 179.877 6.79492 179.877 7.63086V11H178.905V4.57812H179.696L179.854 5.45703H179.901C180.1 5.14062 180.379 4.89648 180.739 4.72461C181.098 4.54883 181.498 4.46094 181.94 4.46094C182.713 4.46094 183.295 4.64844 183.686 5.02344C184.077 5.39453 184.272 5.99023 184.272 6.81055V11H183.299ZM191.07 11V6.8457C191.07 6.32227 190.951 5.93164 190.713 5.67383C190.475 5.41602 190.102 5.28711 189.594 5.28711C188.918 5.28711 188.424 5.4707 188.111 5.83789C187.803 6.20508 187.648 6.80664 187.648 7.64258V11H186.676V1.88281H187.648V4.64258C187.648 4.97461 187.633 5.25 187.602 5.46875H187.66C187.852 5.16016 188.123 4.91797 188.475 4.74219C188.83 4.5625 189.234 4.47266 189.688 4.47266C190.473 4.47266 191.061 4.66016 191.451 5.03516C191.846 5.40625 192.043 5.99805 192.043 6.81055V11H191.07ZM198.396 11L198.203 10.0859H198.156C197.836 10.4883 197.515 10.7617 197.195 10.9062C196.879 11.0469 196.482 11.1172 196.005 11.1172C195.369 11.1172 194.869 10.9531 194.505 10.625C194.146 10.2969 193.966 9.83008 193.966 9.22461C193.966 7.92773 195.004 7.24805 197.078 7.18555L198.168 7.15039V6.75195C198.168 6.24805 198.058 5.87695 197.839 5.63867C197.625 5.39648 197.279 5.27539 196.802 5.27539C196.267 5.27539 195.662 5.43945 194.986 5.76758L194.687 5.02344C195.004 4.85156 195.349 4.7168 195.724 4.61914C196.103 4.52148 196.482 4.47266 196.861 4.47266C197.627 4.47266 198.193 4.64258 198.56 4.98242C198.931 5.32227 199.117 5.86719 199.117 6.61719V11H198.396ZM196.199 10.3145C196.804 10.3145 197.279 10.1484 197.623 9.81641C197.97 9.48438 198.144 9.01953 198.144 8.42188V7.8418L197.171 7.88281C196.398 7.91016 195.839 8.03125 195.496 8.24609C195.156 8.45703 194.986 8.78711 194.986 9.23633C194.986 9.58789 195.091 9.85547 195.302 10.0391C195.517 10.2227 195.816 10.3145 196.199 10.3145ZM205.921 11V6.8457C205.921 6.32227 205.802 5.93164 205.564 5.67383C205.325 5.41602 204.952 5.28711 204.445 5.28711C203.773 5.28711 203.28 5.46875 202.968 5.83203C202.655 6.19531 202.499 6.79492 202.499 7.63086V11H201.527V4.57812H202.318L202.476 5.45703H202.523C202.722 5.14062 203.001 4.89648 203.361 4.72461C203.72 4.54883 204.12 4.46094 204.562 4.46094C205.335 4.46094 205.917 4.64844 206.308 5.02344C206.698 5.39453 206.894 5.99023 206.894 6.81055V11H205.921ZM213.692 11V6.8457C213.692 6.32227 213.573 5.93164 213.335 5.67383C213.096 5.41602 212.723 5.28711 212.216 5.28711C211.54 5.28711 211.046 5.4707 210.733 5.83789C210.425 6.20508 210.27 6.80664 210.27 7.64258V11H209.298V1.88281H210.27V4.64258C210.27 4.97461 210.255 5.25 210.223 5.46875H210.282C210.473 5.16016 210.745 4.91797 211.096 4.74219C211.452 4.5625 211.856 4.47266 212.309 4.47266C213.095 4.47266 213.682 4.66016 214.073 5.03516C214.468 5.40625 214.665 5.99805 214.665 6.81055V11H213.692ZM224.98 11V6.8457C224.98 6.32227 224.861 5.93164 224.623 5.67383C224.385 5.41602 224.012 5.28711 223.504 5.28711C222.828 5.28711 222.334 5.4707 222.021 5.83789C221.713 6.20508 221.559 6.80664 221.559 7.64258V11H220.586V1.88281H221.559V4.64258C221.559 4.97461 221.543 5.25 221.512 5.46875H221.57C221.762 5.16016 222.033 4.91797 222.385 4.74219C222.74 4.5625 223.145 4.47266 223.598 4.47266C224.383 4.47266 224.971 4.66016 225.361 5.03516C225.756 5.40625 225.953 5.99805 225.953 6.81055V11H224.98ZM233.9 7.7832C233.9 8.83008 233.636 9.64844 233.109 10.2383C232.582 10.8242 231.853 11.1172 230.923 11.1172C230.349 11.1172 229.839 10.9824 229.394 10.7129C228.949 10.4434 228.605 10.0566 228.363 9.55273C228.121 9.04883 228 8.45898 228 7.7832C228 6.73633 228.261 5.92188 228.785 5.33984C229.308 4.75391 230.035 4.46094 230.964 4.46094C231.812 4.46094 232.504 4.73633 233.039 5.28711C233.238 5.22852 233.394 5.13672 233.507 5.01172C233.621 4.88281 233.703 4.72266 233.754 4.53125C233.804 4.33594 233.83 4.02344 233.83 3.59375H234.884L234.972 3.72852C234.851 4.33789 234.671 4.81445 234.433 5.1582C234.199 5.49805 233.882 5.74219 233.484 5.89062C233.761 6.42969 233.9 7.06055 233.9 7.7832ZM229.007 7.7832C229.007 8.60742 229.162 9.23438 229.47 9.66406C229.779 10.0898 230.271 10.3027 230.947 10.3027C231.63 10.3027 232.125 10.0898 232.429 9.66406C232.738 9.23438 232.892 8.60742 232.892 7.7832C232.892 6.96289 232.736 6.3418 232.423 5.91992C232.115 5.49805 231.619 5.28711 230.935 5.28711C230.259 5.28711 229.769 5.49805 229.464 5.91992C229.16 6.3418 229.007 6.96289 229.007 7.7832ZM240.464 11V6.8457C240.464 6.32227 240.345 5.93164 240.107 5.67383C239.868 5.41602 239.495 5.28711 238.988 5.28711C238.316 5.28711 237.823 5.46875 237.511 5.83203C237.198 6.19531 237.042 6.79492 237.042 7.63086V11H236.07V4.57812H236.861L237.019 5.45703H237.066C237.265 5.14062 237.544 4.89648 237.904 4.72461C238.263 4.54883 238.663 4.46094 239.105 4.46094C239.878 4.46094 240.46 4.64844 240.851 5.02344C241.241 5.39453 241.437 5.99023 241.437 6.81055V11H240.464ZM251.752 11V6.8457C251.752 6.32227 251.633 5.93164 251.395 5.67383C251.157 5.41602 250.784 5.28711 250.276 5.28711C249.604 5.28711 249.112 5.46875 248.799 5.83203C248.487 6.19531 248.33 6.79492 248.33 7.63086V11H247.358V4.57812H248.149L248.307 5.45703H248.354C248.553 5.14062 248.832 4.89648 249.192 4.72461C249.551 4.54883 249.952 4.46094 250.393 4.46094C251.166 4.46094 251.748 4.64844 252.139 5.02344C252.53 5.39453 252.725 5.99023 252.725 6.81055V11H251.752ZM257.842 11.1172C256.893 11.1172 256.143 10.8281 255.592 10.25C255.045 9.67188 254.771 8.86914 254.771 7.8418C254.771 6.80664 255.025 5.98438 255.533 5.375C256.045 4.76562 256.73 4.46094 257.59 4.46094C258.395 4.46094 259.031 4.72656 259.5 5.25781C259.969 5.78516 260.203 6.48242 260.203 7.34961V7.96484H255.779C255.799 8.71875 255.988 9.29102 256.348 9.68164C256.711 10.0723 257.221 10.2676 257.877 10.2676C258.568 10.2676 259.252 10.123 259.928 9.83398V10.7012C259.584 10.8496 259.258 10.9551 258.949 11.0176C258.645 11.084 258.275 11.1172 257.842 11.1172ZM257.578 5.27539C257.062 5.27539 256.65 5.44336 256.342 5.7793C256.037 6.11523 255.857 6.58008 255.803 7.17383H259.16C259.16 6.56055 259.023 6.0918 258.75 5.76758C258.477 5.43945 258.086 5.27539 257.578 5.27539ZM259.354 3.72852H258.803C258.365 3.43555 257.953 3.11133 257.566 2.75586C257.121 3.15039 256.709 3.47461 256.33 3.72852H255.779V3.58203L256.09 3.23047C256.527 2.75 256.848 2.35938 257.051 2.05859H258.082C258.34 2.42578 258.764 2.93359 259.354 3.58203V3.72852ZM258.885 2.44531C259.17 2.08984 259.418 1.69336 259.629 1.25586H260.637V1.37891C260.312 1.80859 259.916 2.21094 259.447 2.58594H258.885V2.44531ZM263.181 4.57812V8.74414C263.181 9.26758 263.3 9.6582 263.539 9.91602C263.777 10.1738 264.15 10.3027 264.658 10.3027C265.33 10.3027 265.82 10.1191 266.129 9.75195C266.441 9.38477 266.597 8.78516 266.597 7.95312V4.57812H267.57V11H266.767L266.627 10.1387H266.574C266.375 10.4551 266.097 10.6973 265.742 10.8652C265.39 11.0332 264.988 11.1172 264.535 11.1172C263.754 11.1172 263.168 10.9316 262.777 10.5605C262.39 10.1895 262.197 9.5957 262.197 8.7793V4.57812H263.181ZM269.898 10.3789C269.898 10.1172 269.956 9.91992 270.073 9.78711C270.195 9.65039 270.366 9.58203 270.589 9.58203C270.816 9.58203 270.991 9.65039 271.116 9.78711C271.245 9.91992 271.31 10.1172 271.31 10.3789C271.31 10.6328 271.245 10.8281 271.116 10.9648C270.987 11.1016 270.812 11.1699 270.589 11.1699C270.39 11.1699 270.224 11.1094 270.091 10.9883C269.962 10.8633 269.898 10.6602 269.898 10.3789ZM269.898 5.20508C269.898 4.67773 270.128 4.41406 270.589 4.41406C271.07 4.41406 271.31 4.67773 271.31 5.20508C271.31 5.45898 271.245 5.6543 271.116 5.79102C270.987 5.92773 270.812 5.99609 270.589 5.99609C270.39 5.99609 270.224 5.93555 270.091 5.81445C269.962 5.68945 269.898 5.48633 269.898 5.20508ZM6.70508 22.6172C6.70508 22.1445 6.81445 21.7852 7.0332 21.5391C7.25586 21.293 7.57812 21.1699 8 21.1699C8.41016 21.1699 8.72852 21.291 8.95508 21.5332C9.18164 21.7754 9.29492 22.1367 9.29492 22.6172C9.29492 23.082 9.18164 23.4414 8.95508 23.6953C8.73242 23.9453 8.41406 24.0703 8 24.0703C7.58203 24.0703 7.26172 23.9434 7.03906 23.6895C6.81641 23.4316 6.70508 23.0742 6.70508 22.6172ZM20.8145 27H19.8184V19.3184H17.1055V18.4336H23.5273V19.3184H20.8145V27ZM26.0484 27H25.0758V20.5781H26.0484V27ZM24.9937 18.8379C24.9937 18.6152 25.0484 18.4531 25.1578 18.3516C25.2672 18.2461 25.4039 18.1934 25.568 18.1934C25.7242 18.1934 25.859 18.2461 25.9723 18.3516C26.0855 18.457 26.1422 18.6191 26.1422 18.8379C26.1422 19.0566 26.0855 19.2207 25.9723 19.3301C25.859 19.4355 25.7242 19.4883 25.568 19.4883C25.4039 19.4883 25.2672 19.4355 25.1578 19.3301C25.0484 19.2207 24.9937 19.0566 24.9937 18.8379ZM31.2238 27.1172C30.2746 27.1172 29.5246 26.8281 28.9738 26.25C28.427 25.6719 28.1535 24.8691 28.1535 23.8418C28.1535 22.8066 28.4074 21.9844 28.9152 21.375C29.427 20.7656 30.1125 20.4609 30.9719 20.4609C31.7766 20.4609 32.4133 20.7266 32.882 21.2578C33.3508 21.7852 33.5852 22.4824 33.5852 23.3496V23.9648H29.1613C29.1809 24.7188 29.3703 25.291 29.7297 25.6816C30.093 26.0723 30.6027 26.2676 31.259 26.2676C31.9504 26.2676 32.634 26.123 33.3098 25.834V26.7012C32.966 26.8496 32.6398 26.9551 32.3312 27.0176C32.0266 27.084 31.6574 27.1172 31.2238 27.1172ZM30.9602 21.2754C30.4445 21.2754 30.0324 21.4434 29.7238 21.7793C29.4191 22.1152 29.2395 22.5801 29.1848 23.1738H32.5422C32.5422 22.5605 32.4055 22.0918 32.132 21.7676C31.8586 21.4395 31.468 21.2754 30.9602 21.2754ZM32.7355 19.7285H32.1848C31.7473 19.4355 31.3352 19.1113 30.9484 18.7559C30.5031 19.1504 30.091 19.4746 29.7121 19.7285H29.1613V19.582L29.4719 19.2305C29.9094 18.75 30.2297 18.3594 30.4328 18.0586H31.4641C31.7219 18.4258 32.1457 18.9336 32.7355 19.582V19.7285ZM32.2668 18.4453C32.552 18.0898 32.8 17.6934 33.0109 17.2559H34.0187V17.3789C33.6945 17.8086 33.298 18.2109 32.8293 18.5859H32.2668V18.4453ZM37.7234 26.3145C37.8953 26.3145 38.0613 26.3027 38.2215 26.2793C38.3816 26.252 38.5086 26.2246 38.6023 26.1973V26.9414C38.4969 26.9922 38.3406 27.0332 38.1336 27.0645C37.9305 27.0996 37.7469 27.1172 37.5828 27.1172C36.3406 27.1172 35.7195 26.4629 35.7195 25.1543V21.334H34.7996V20.8652L35.7195 20.4609L36.1297 19.0898H36.6922V20.5781H38.5555V21.334H36.6922V25.1133C36.6922 25.5 36.784 25.7969 36.9676 26.0039C37.1512 26.2109 37.4031 26.3145 37.7234 26.3145ZM44.7695 23.7129C44.9375 23.4746 45.1934 23.1621 45.5371 22.7754L47.6113 20.5781H48.7656L46.1641 23.3145L48.9473 27H47.7695L45.502 23.9648L44.7695 24.5977V27H43.8086V17.8828H44.7695V22.7168C44.7695 22.9316 44.7539 23.2637 44.7227 23.7129H44.7695ZM51.4859 27H50.5133V20.5781H51.4859V27ZM50.4313 18.8379C50.4313 18.6152 50.4859 18.4531 50.5953 18.3516C50.7047 18.2461 50.8414 18.1934 51.0055 18.1934C51.1617 18.1934 51.2965 18.2461 51.4098 18.3516C51.523 18.457 51.5797 18.6191 51.5797 18.8379C51.5797 19.0566 51.523 19.2207 51.4098 19.3301C51.2965 19.4355 51.1617 19.4883 51.0055 19.4883C50.8414 19.4883 50.7047 19.4355 50.5953 19.3301C50.4859 19.2207 50.4313 19.0566 50.4313 18.8379ZM56.6613 27.1172C55.7121 27.1172 54.9621 26.8281 54.4113 26.25C53.8645 25.6719 53.591 24.8691 53.591 23.8418C53.591 22.8066 53.8449 21.9844 54.3527 21.375C54.8645 20.7656 55.55 20.4609 56.4094 20.4609C57.2141 20.4609 57.8508 20.7266 58.3195 21.2578C58.7883 21.7852 59.0227 22.4824 59.0227 23.3496V23.9648H54.5988C54.6184 24.7188 54.8078 25.291 55.1672 25.6816C55.5305 26.0723 56.0402 26.2676 56.6965 26.2676C57.3879 26.2676 58.0715 26.123 58.7473 25.834V26.7012C58.4035 26.8496 58.0773 26.9551 57.7687 27.0176C57.4641 27.084 57.0949 27.1172 56.6613 27.1172ZM56.3977 21.2754C55.882 21.2754 55.4699 21.4434 55.1613 21.7793C54.8566 22.1152 54.677 22.5801 54.6223 23.1738H57.9797C57.9797 22.5605 57.843 22.0918 57.5695 21.7676C57.2961 21.4395 56.9055 21.2754 56.3977 21.2754ZM55.7941 28.418C55.7941 28.1953 55.8508 28.0312 55.9641 27.9258C56.0812 27.8203 56.2219 27.7676 56.3859 27.7676C56.5422 27.7676 56.677 27.8203 56.7902 27.9258C56.9035 28.0312 56.9602 28.1953 56.9602 28.418C56.9602 28.6328 56.9035 28.793 56.7902 28.8984C56.677 29.0078 56.5422 29.0625 56.3859 29.0625C56.2219 29.0625 56.0812 29.0078 55.9641 28.8984C55.8508 28.793 55.7941 28.6328 55.7941 28.418ZM54.3996 19.5938C54.8957 19.0625 55.2434 18.6719 55.4426 18.4219C55.6418 18.1719 55.7863 17.9668 55.8762 17.8066H56.8488C56.9348 17.9707 57.0832 18.1836 57.2941 18.4453C57.509 18.7031 57.8605 19.0859 58.3488 19.5938V19.7285H57.6516C57.3078 19.5137 56.8762 19.1504 56.3566 18.6387C55.8254 19.1621 55.3977 19.5254 55.0734 19.7285H54.3996V19.5938ZM69.2723 27V22.8223C69.2723 22.3105 69.1629 21.9277 68.9441 21.6738C68.7254 21.416 68.3855 21.2871 67.9246 21.2871C67.3191 21.2871 66.8719 21.4609 66.5828 21.8086C66.2938 22.1562 66.1492 22.6914 66.1492 23.4141V27H65.1766V22.8223C65.1766 22.3105 65.0672 21.9277 64.8484 21.6738C64.6297 21.416 64.2879 21.2871 63.823 21.2871C63.2137 21.2871 62.7664 21.4707 62.4813 21.8379C62.2 22.2012 62.0594 22.7988 62.0594 23.6309V27H61.0867V20.5781H61.8777L62.0359 21.457H62.0828C62.2664 21.1445 62.5242 20.9004 62.8563 20.7246C63.1922 20.5488 63.5672 20.4609 63.9813 20.4609C64.9852 20.4609 65.6414 20.8242 65.95 21.5508H65.9969C66.1883 21.2148 66.4656 20.9492 66.8289 20.7539C67.1922 20.5586 67.6063 20.4609 68.0711 20.4609C68.7977 20.4609 69.3406 20.6484 69.7 21.0234C70.0633 21.3945 70.2449 21.9902 70.2449 22.8105V27H69.2723ZM80.3145 25.248C80.3145 25.8457 80.0918 26.3066 79.6465 26.6309C79.2012 26.9551 78.5762 27.1172 77.7715 27.1172C76.9199 27.1172 76.2559 26.9824 75.7793 26.7129V25.8105C76.0879 25.9668 76.418 26.0898 76.7695 26.1797C77.125 26.2695 77.4668 26.3145 77.7949 26.3145C78.3027 26.3145 78.6934 26.2344 78.9668 26.0742C79.2402 25.9102 79.377 25.6621 79.377 25.3301C79.377 25.0801 79.2676 24.8672 79.0488 24.6914C78.834 24.5117 78.4121 24.3008 77.7832 24.0586C77.1855 23.8359 76.7598 23.6426 76.5059 23.4785C76.2559 23.3105 76.0684 23.1211 75.9434 22.9102C75.8223 22.6992 75.7617 22.4473 75.7617 22.1543C75.7617 21.6309 75.9746 21.2188 76.4004 20.918C76.8262 20.6133 77.4102 20.4609 78.1523 20.4609C78.8438 20.4609 79.5195 20.6016 80.1797 20.8828L79.834 21.6738C79.1895 21.4082 78.6055 21.2754 78.082 21.2754C77.6211 21.2754 77.2734 21.3477 77.0391 21.4922C76.8047 21.6367 76.6875 21.8359 76.6875 22.0898C76.6875 22.2617 76.7305 22.4082 76.8164 22.5293C76.9062 22.6504 77.0488 22.7656 77.2441 22.875C77.4395 22.9844 77.8145 23.1426 78.3691 23.3496C79.1309 23.627 79.6445 23.9062 79.9102 24.1875C80.1797 24.4688 80.3145 24.8223 80.3145 25.248ZM87.8453 23.7832C87.8453 24.8301 87.5816 25.6484 87.0543 26.2383C86.527 26.8242 85.7984 27.1172 84.8688 27.1172C84.2945 27.1172 83.7848 26.9824 83.3395 26.7129C82.8941 26.4434 82.5504 26.0566 82.3082 25.5527C82.066 25.0488 81.9449 24.459 81.9449 23.7832C81.9449 22.7363 82.2066 21.9219 82.7301 21.3398C83.2535 20.7539 83.9801 20.4609 84.9098 20.4609C85.8082 20.4609 86.5211 20.7598 87.0484 21.3574C87.5797 21.9551 87.8453 22.7637 87.8453 23.7832ZM82.9527 23.7832C82.9527 24.6035 83.1168 25.2285 83.4449 25.6582C83.773 26.0879 84.2555 26.3027 84.8922 26.3027C85.5289 26.3027 86.0113 26.0898 86.3395 25.6641C86.6715 25.2344 86.8375 24.6074 86.8375 23.7832C86.8375 22.9668 86.6715 22.3477 86.3395 21.9258C86.0113 21.5 85.525 21.2871 84.8805 21.2871C84.2438 21.2871 83.7633 21.4961 83.4391 21.9141C83.1148 22.332 82.9527 22.9551 82.9527 23.7832ZM86.6734 19.7285H86.1227C85.6852 19.4355 85.273 19.1113 84.8863 18.7559C84.441 19.1504 84.0289 19.4746 83.65 19.7285H83.0992V19.582L83.4098 19.2305C83.8473 18.75 84.1676 18.3594 84.3707 18.0586H85.402C85.6598 18.4258 86.0836 18.9336 86.6734 19.582V19.7285ZM86.2047 18.4453C86.4898 18.0898 86.7379 17.6934 86.9488 17.2559H87.9566V17.3789C87.6324 17.8086 87.2359 18.2109 86.7672 18.5859H86.2047V18.4453ZM95.5477 26.3145C95.7195 26.3145 95.8855 26.3027 96.0457 26.2793C96.2059 26.252 96.3328 26.2246 96.4266 26.1973V26.9414C96.3211 26.9922 96.1648 27.0332 95.9578 27.0645C95.7547 27.0996 95.5711 27.1172 95.407 27.1172C94.1648 27.1172 93.5437 26.4629 93.5437 25.1543V21.334H92.6238V20.8652L93.5437 20.4609L93.9539 19.0898H94.5164V20.5781H96.3797V21.334H94.5164V25.1133C94.5164 25.5 94.6082 25.7969 94.7918 26.0039C94.9754 26.2109 95.2273 26.3145 95.5477 26.3145ZM99.0883 27H98.1156V20.5781H99.0883V27ZM98.0336 18.8379C98.0336 18.6152 98.0883 18.4531 98.1977 18.3516C98.307 18.2461 98.4437 18.1934 98.6078 18.1934C98.7641 18.1934 98.8988 18.2461 99.0121 18.3516C99.1254 18.457 99.182 18.6191 99.182 18.8379C99.182 19.0566 99.1254 19.2207 99.0121 19.3301C98.8988 19.4355 98.7641 19.4883 98.6078 19.4883C98.4437 19.4883 98.307 19.4355 98.1977 19.3301C98.0883 19.2207 98.0336 19.0566 98.0336 18.8379ZM104.264 27.1172C103.314 27.1172 102.564 26.8281 102.014 26.25C101.467 25.6719 101.193 24.8691 101.193 23.8418C101.193 22.8066 101.447 21.9844 101.955 21.375C102.467 20.7656 103.152 20.4609 104.012 20.4609C104.816 20.4609 105.453 20.7266 105.922 21.2578C106.391 21.7852 106.625 22.4824 106.625 23.3496V23.9648H102.201C102.221 24.7188 102.41 25.291 102.77 25.6816C103.133 26.0723 103.643 26.2676 104.299 26.2676C104.99 26.2676 105.674 26.123 106.35 25.834V26.7012C106.006 26.8496 105.68 26.9551 105.371 27.0176C105.066 27.084 104.697 27.1172 104.264 27.1172ZM104 21.2754C103.484 21.2754 103.072 21.4434 102.764 21.7793C102.459 22.1152 102.279 22.5801 102.225 23.1738H105.582C105.582 22.5605 105.445 22.0918 105.172 21.7676C104.898 21.4395 104.508 21.2754 104 21.2754ZM105.811 19.7285H105.26C104.881 19.4746 104.469 19.1504 104.023 18.7559C103.609 19.1309 103.197 19.4551 102.787 19.7285H102.236V19.5938L102.547 19.2422C102.984 18.7617 103.305 18.3711 103.508 18.0703H104.539C104.797 18.4375 105.221 18.9453 105.811 19.5938V19.7285ZM102.705 18.5859H102.148C101.68 18.2188 101.281 17.8164 100.953 17.3789V17.2559H101.961C102.164 17.6777 102.412 18.0781 102.705 18.457V18.5859ZM113.084 27V22.8457C113.084 22.3223 112.964 21.9316 112.726 21.6738C112.488 21.416 112.115 21.2871 111.607 21.2871C110.935 21.2871 110.443 21.4688 110.13 21.832C109.818 22.1953 109.662 22.7949 109.662 23.6309V27H108.689V20.5781H109.48L109.638 21.457H109.685C109.884 21.1406 110.164 20.8965 110.523 20.7246C110.882 20.5488 111.283 20.4609 111.724 20.4609C112.498 20.4609 113.08 20.6484 113.47 21.0234C113.861 21.3945 114.056 21.9902 114.056 22.8105V27H113.084ZM120.95 27H119.977V17.8828H120.95V27ZM128.955 23.7832C128.955 24.8301 128.692 25.6484 128.164 26.2383C127.637 26.8242 126.909 27.1172 125.979 27.1172C125.405 27.1172 124.895 26.9824 124.45 26.7129C124.004 26.4434 123.661 26.0566 123.418 25.5527C123.176 25.0488 123.055 24.459 123.055 23.7832C123.055 22.7363 123.317 21.9219 123.84 21.3398C124.364 20.7539 125.09 20.4609 126.02 20.4609C126.868 20.4609 127.559 20.7363 128.094 21.2871C128.293 21.2285 128.45 21.1367 128.563 21.0117C128.676 20.8828 128.758 20.7227 128.809 20.5312C128.86 20.3359 128.885 20.0234 128.885 19.5938H129.94L130.028 19.7285C129.907 20.3379 129.727 20.8145 129.489 21.1582C129.254 21.498 128.938 21.7422 128.539 21.8906C128.817 22.4297 128.955 23.0605 128.955 23.7832ZM124.063 23.7832C124.063 24.6074 124.217 25.2344 124.526 25.6641C124.834 26.0898 125.327 26.3027 126.002 26.3027C126.686 26.3027 127.18 26.0898 127.485 25.6641C127.793 25.2344 127.948 24.6074 127.948 23.7832C127.948 22.9629 127.791 22.3418 127.479 21.9199C127.17 21.498 126.674 21.2871 125.991 21.2871C125.315 21.2871 124.825 21.498 124.52 21.9199C124.215 22.3418 124.063 22.9629 124.063 23.7832ZM125.323 19.582C125.51 19.3398 125.711 19.0469 125.926 18.7031C126.145 18.3594 126.317 18.0605 126.442 17.8066H127.625V17.9297C127.454 18.1836 127.198 18.4961 126.858 18.8672C126.518 19.2383 126.223 19.5254 125.973 19.7285H125.323V19.582ZM135.52 27V22.8457C135.52 22.3223 135.4 21.9316 135.162 21.6738C134.924 21.416 134.551 21.2871 134.043 21.2871C133.371 21.2871 132.879 21.4688 132.566 21.832C132.254 22.1953 132.098 22.7949 132.098 23.6309V27H131.125V20.5781H131.916L132.074 21.457H132.121C132.32 21.1406 132.6 20.8965 132.959 20.7246C133.318 20.5488 133.719 20.4609 134.16 20.4609C134.934 20.4609 135.516 20.6484 135.906 21.0234C136.297 21.3945 136.492 21.9902 136.492 22.8105V27H135.52ZM146.808 27V22.8457C146.808 22.3223 146.689 21.9316 146.45 21.6738C146.212 21.416 145.839 21.2871 145.331 21.2871C144.655 21.2871 144.161 21.4707 143.849 21.8379C143.54 22.2051 143.386 22.8066 143.386 23.6426V27H142.413V17.8828H143.386V20.6426C143.386 20.9746 143.37 21.25 143.339 21.4688H143.398C143.589 21.1602 143.861 20.918 144.212 20.7422C144.568 20.5625 144.972 20.4727 145.425 20.4727C146.21 20.4727 146.798 20.6602 147.189 21.0352C147.583 21.4062 147.78 21.998 147.78 22.8105V27H146.808ZM155.727 23.7832C155.727 24.8301 155.464 25.6484 154.936 26.2383C154.409 26.8242 153.68 27.1172 152.751 27.1172C152.177 27.1172 151.667 26.9824 151.221 26.7129C150.776 26.4434 150.432 26.0566 150.19 25.5527C149.948 25.0488 149.827 24.459 149.827 23.7832C149.827 22.7363 150.089 21.9219 150.612 21.3398C151.136 20.7539 151.862 20.4609 152.792 20.4609C153.639 20.4609 154.331 20.7363 154.866 21.2871C155.065 21.2285 155.221 21.1367 155.335 21.0117C155.448 20.8828 155.53 20.7227 155.581 20.5312C155.632 20.3359 155.657 20.0234 155.657 19.5938H156.712L156.8 19.7285C156.679 20.3379 156.499 20.8145 156.261 21.1582C156.026 21.498 155.71 21.7422 155.311 21.8906C155.589 22.4297 155.727 23.0605 155.727 23.7832ZM150.835 23.7832C150.835 24.6074 150.989 25.2344 151.298 25.6641C151.606 26.0898 152.098 26.3027 152.774 26.3027C153.458 26.3027 153.952 26.0898 154.257 25.6641C154.565 25.2344 154.72 24.6074 154.72 23.7832C154.72 22.9629 154.563 22.3418 154.251 21.9199C153.942 21.498 153.446 21.2871 152.762 21.2871C152.087 21.2871 151.596 21.498 151.292 21.9199C150.987 22.3418 150.835 22.9629 150.835 23.7832ZM162.291 27V22.8457C162.291 22.3223 162.172 21.9316 161.934 21.6738C161.696 21.416 161.323 21.2871 160.815 21.2871C160.143 21.2871 159.651 21.4688 159.338 21.832C159.026 22.1953 158.87 22.7949 158.87 23.6309V27H157.897V20.5781H158.688L158.846 21.457H158.893C159.092 21.1406 159.371 20.8965 159.731 20.7246C160.09 20.5488 160.491 20.4609 160.932 20.4609C161.705 20.4609 162.288 20.6484 162.678 21.0234C163.069 21.3945 163.264 21.9902 163.264 22.8105V27H162.291ZM173.58 27V22.8457C173.58 22.3223 173.461 21.9316 173.222 21.6738C172.984 21.416 172.611 21.2871 172.103 21.2871C171.431 21.2871 170.939 21.4688 170.627 21.832C170.314 22.1953 170.158 22.7949 170.158 23.6309V27H169.185V20.5781H169.976L170.134 21.457H170.181C170.38 21.1406 170.66 20.8965 171.019 20.7246C171.379 20.5488 171.779 20.4609 172.22 20.4609C172.994 20.4609 173.576 20.6484 173.966 21.0234C174.357 21.3945 174.552 21.9902 174.552 22.8105V27H173.58ZM179.669 27.1172C178.72 27.1172 177.97 26.8281 177.419 26.25C176.872 25.6719 176.599 24.8691 176.599 23.8418C176.599 22.8066 176.853 21.9844 177.361 21.375C177.872 20.7656 178.558 20.4609 179.417 20.4609C180.222 20.4609 180.859 20.7266 181.327 21.2578C181.796 21.7852 182.03 22.4824 182.03 23.3496V23.9648H177.607C177.626 24.7188 177.816 25.291 178.175 25.6816C178.538 26.0723 179.048 26.2676 179.704 26.2676C180.396 26.2676 181.079 26.123 181.755 25.834V26.7012C181.411 26.8496 181.085 26.9551 180.777 27.0176C180.472 27.084 180.103 27.1172 179.669 27.1172ZM179.405 21.2754C178.89 21.2754 178.478 21.4434 178.169 21.7793C177.864 22.1152 177.685 22.5801 177.63 23.1738H180.988C180.988 22.5605 180.851 22.0918 180.577 21.7676C180.304 21.4395 179.913 21.2754 179.405 21.2754ZM181.181 19.7285H180.63C180.193 19.4355 179.78 19.1113 179.394 18.7559C178.948 19.1504 178.536 19.4746 178.157 19.7285H177.607V19.582L177.917 19.2305C178.355 18.75 178.675 18.3594 178.878 18.0586H179.909C180.167 18.4258 180.591 18.9336 181.181 19.582V19.7285ZM180.712 18.4453C180.997 18.0898 181.245 17.6934 181.456 17.2559H182.464V17.3789C182.14 17.8086 181.743 18.2109 181.275 18.5859H180.712V18.4453ZM185.009 20.5781V24.7441C185.009 25.2676 185.128 25.6582 185.366 25.916C185.604 26.1738 185.977 26.3027 186.485 26.3027C187.157 26.3027 187.647 26.1191 187.956 25.752C188.268 25.3848 188.425 24.7852 188.425 23.9531V20.5781H189.397V27H188.595L188.454 26.1387H188.401C188.202 26.4551 187.925 26.6973 187.569 26.8652C187.218 27.0332 186.815 27.1172 186.362 27.1172C185.581 27.1172 184.995 26.9316 184.604 26.5605C184.218 26.1895 184.024 25.5957 184.024 24.7793V20.5781H185.009ZM197.949 27.1172C197.02 27.1172 196.299 26.832 195.787 26.2617C195.279 25.6875 195.025 24.877 195.025 23.8301C195.025 22.7559 195.283 21.9258 195.799 21.3398C196.318 20.7539 197.057 20.4609 198.014 20.4609C198.322 20.4609 198.631 20.4941 198.939 20.5605C199.248 20.627 199.49 20.7051 199.666 20.7949L199.367 21.6211C199.152 21.5352 198.918 21.4648 198.664 21.4102C198.41 21.3516 198.186 21.3223 197.99 21.3223C196.686 21.3223 196.033 22.1543 196.033 23.8184C196.033 24.6074 196.191 25.2129 196.508 25.6348C196.828 26.0566 197.301 26.2676 197.926 26.2676C198.461 26.2676 199.01 26.1523 199.572 25.9219V26.7832C199.143 27.0059 198.602 27.1172 197.949 27.1172ZM207.045 23.7832C207.045 24.8301 206.781 25.6484 206.254 26.2383C205.726 26.8242 204.998 27.1172 204.068 27.1172C203.494 27.1172 202.984 26.9824 202.539 26.7129C202.093 26.4434 201.75 26.0566 201.507 25.5527C201.265 25.0488 201.144 24.459 201.144 23.7832C201.144 22.7363 201.406 21.9219 201.929 21.3398C202.453 20.7539 203.179 20.4609 204.109 20.4609C205.007 20.4609 205.72 20.7598 206.248 21.3574C206.779 21.9551 207.045 22.7637 207.045 23.7832ZM202.152 23.7832C202.152 24.6035 202.316 25.2285 202.644 25.6582C202.972 26.0879 203.455 26.3027 204.091 26.3027C204.728 26.3027 205.211 26.0898 205.539 25.6641C205.871 25.2344 206.037 24.6074 206.037 23.7832C206.037 22.9668 205.871 22.3477 205.539 21.9258C205.211 21.5 204.724 21.2871 204.08 21.2871C203.443 21.2871 202.962 21.4961 202.638 21.9141C202.314 22.332 202.152 22.9551 202.152 23.7832ZM203.277 19.582C203.464 19.3398 203.666 19.0469 203.88 18.7031C204.099 18.3594 204.271 18.0605 204.396 17.8066H205.58V17.9297C205.408 18.1836 205.152 18.4961 204.812 18.8672C204.472 19.2383 204.177 19.5254 203.927 19.7285H203.277V19.582ZM214.747 26.3145C214.919 26.3145 215.085 26.3027 215.245 26.2793C215.405 26.252 215.532 26.2246 215.626 26.1973V26.9414C215.52 26.9922 215.364 27.0332 215.157 27.0645C214.954 27.0996 214.77 27.1172 214.606 27.1172C213.364 27.1172 212.743 26.4629 212.743 25.1543V21.334H211.823V20.8652L212.743 20.4609L213.153 19.0898H213.716V20.5781H215.579V21.334H213.716V25.1133C213.716 25.5 213.807 25.7969 213.991 26.0039C214.175 26.2109 214.427 26.3145 214.747 26.3145ZM221.709 27V22.8457C221.709 22.3223 221.59 21.9316 221.352 21.6738C221.114 21.416 220.741 21.2871 220.233 21.2871C219.557 21.2871 219.063 21.4707 218.75 21.8379C218.442 22.2051 218.288 22.8066 218.288 23.6426V27H217.315V17.8828H218.288V20.6426C218.288 20.9746 218.272 21.25 218.241 21.4688H218.299C218.491 21.1602 218.762 20.918 219.114 20.7422C219.469 20.5625 219.873 20.4727 220.327 20.4727C221.112 20.4727 221.7 20.6602 222.09 21.0352C222.485 21.4062 222.682 21.998 222.682 22.8105V27H221.709ZM227.799 27.1172C226.85 27.1172 226.1 26.8281 225.549 26.25C225.002 25.6719 224.729 24.8691 224.729 23.8418C224.729 22.8066 224.982 21.9844 225.49 21.375C226.002 20.7656 226.688 20.4609 227.547 20.4609C228.352 20.4609 228.988 20.7266 229.457 21.2578C229.926 21.7852 230.16 22.4824 230.16 23.3496V23.9648H225.736C225.756 24.7188 225.945 25.291 226.305 25.6816C226.668 26.0723 227.178 26.2676 227.834 26.2676C228.525 26.2676 229.209 26.123 229.885 25.834V26.7012C229.541 26.8496 229.215 26.9551 228.906 27.0176C228.602 27.084 228.232 27.1172 227.799 27.1172ZM227.535 21.2754C227.02 21.2754 226.607 21.4434 226.299 21.7793C225.994 22.1152 225.814 22.5801 225.76 23.1738H229.117C229.117 22.5605 228.98 22.0918 228.707 21.7676C228.434 21.4395 228.043 21.2754 227.535 21.2754ZM229.24 19.7285H228.689C228.252 19.4355 227.84 19.1113 227.453 18.7559C227.008 19.1504 226.596 19.4746 226.217 19.7285H225.666V19.582L225.977 19.2305C226.414 18.75 226.734 18.3594 226.938 18.0586H227.969C228.227 18.4258 228.65 18.9336 229.24 19.582V19.7285ZM230.225 17.3613C230.225 17.7637 229.977 18.0215 229.48 18.1348L229.445 18.6094H228.977L228.918 17.8418C229.141 17.8066 229.312 17.7578 229.434 17.6953C229.559 17.6328 229.621 17.5273 229.621 17.3789C229.621 17.2344 229.564 17.1387 229.451 17.0918C229.342 17.041 229.203 17.0156 229.035 17.0156C228.855 17.0156 228.715 17.0273 228.613 17.0508V16.582C228.711 16.5586 228.867 16.5469 229.082 16.5469C229.844 16.5469 230.225 16.8184 230.225 17.3613ZM6.70508 38.6172C6.70508 38.1445 6.81445 37.7852 7.0332 37.5391C7.25586 37.293 7.57812 37.1699 8 37.1699C8.41016 37.1699 8.72852 37.291 8.95508 37.5332C9.18164 37.7754 9.29492 38.1367 9.29492 38.6172C9.29492 39.082 9.18164 39.4414 8.95508 39.6953C8.73242 39.9453 8.41406 40.0703 8 40.0703C7.58203 40.0703 7.26172 39.9434 7.03906 39.6895C6.81641 39.4316 6.70508 39.0742 6.70508 38.6172ZM20.8145 43H19.8184V35.3184H17.1055V34.4336H23.5273V35.3184H20.8145V43ZM26.0484 43H25.0758V36.5781H26.0484V43ZM24.9937 34.8379C24.9937 34.6152 25.0484 34.4531 25.1578 34.3516C25.2672 34.2461 25.4039 34.1934 25.568 34.1934C25.7242 34.1934 25.859 34.2461 25.9723 34.3516C26.0855 34.457 26.1422 34.6191 26.1422 34.8379C26.1422 35.0566 26.0855 35.2207 25.9723 35.3301C25.859 35.4355 25.7242 35.4883 25.568 35.4883C25.4039 35.4883 25.2672 35.4355 25.1578 35.3301C25.0484 35.2207 24.9937 35.0566 24.9937 34.8379ZM31.2238 43.1172C30.2746 43.1172 29.5246 42.8281 28.9738 42.25C28.427 41.6719 28.1535 40.8691 28.1535 39.8418C28.1535 38.8066 28.4074 37.9844 28.9152 37.375C29.427 36.7656 30.1125 36.4609 30.9719 36.4609C31.7766 36.4609 32.4133 36.7266 32.882 37.2578C33.3508 37.7852 33.5852 38.4824 33.5852 39.3496V39.9648H29.1613C29.1809 40.7188 29.3703 41.291 29.7297 41.6816C30.093 42.0723 30.6027 42.2676 31.259 42.2676C31.9504 42.2676 32.634 42.123 33.3098 41.834V42.7012C32.966 42.8496 32.6398 42.9551 32.3312 43.0176C32.0266 43.084 31.6574 43.1172 31.2238 43.1172ZM30.9602 37.2754C30.4445 37.2754 30.0324 37.4434 29.7238 37.7793C29.4191 38.1152 29.2395 38.5801 29.1848 39.1738H32.5422C32.5422 38.5605 32.4055 38.0918 32.132 37.7676C31.8586 37.4395 31.468 37.2754 30.9602 37.2754ZM32.7355 35.7285H32.1848C31.7473 35.4355 31.3352 35.1113 30.9484 34.7559C30.5031 35.1504 30.091 35.4746 29.7121 35.7285H29.1613V35.582L29.4719 35.2305C29.9094 34.75 30.2297 34.3594 30.4328 34.0586H31.4641C31.7219 34.4258 32.1457 34.9336 32.7355 35.582V35.7285ZM32.2668 34.4453C32.552 34.0898 32.8 33.6934 33.0109 33.2559H34.0187V33.3789C33.6945 33.8086 33.298 34.2109 32.8293 34.5859H32.2668V34.4453ZM37.7234 42.3145C37.8953 42.3145 38.0613 42.3027 38.2215 42.2793C38.3816 42.252 38.5086 42.2246 38.6023 42.1973V42.9414C38.4969 42.9922 38.3406 43.0332 38.1336 43.0645C37.9305 43.0996 37.7469 43.1172 37.5828 43.1172C36.3406 43.1172 35.7195 42.4629 35.7195 41.1543V37.334H34.7996V36.8652L35.7195 36.4609L36.1297 35.0898H36.6922V36.5781H38.5555V37.334H36.6922V41.1133C36.6922 41.5 36.784 41.7969 36.9676 42.0039C37.1512 42.2109 37.4031 42.3145 37.7234 42.3145ZM44.7695 39.7129C44.9375 39.4746 45.1934 39.1621 45.5371 38.7754L47.6113 36.5781H48.7656L46.1641 39.3145L48.9473 43H47.7695L45.502 39.9648L44.7695 40.5977V43H43.8086V33.8828H44.7695V38.7168C44.7695 38.9316 44.7539 39.2637 44.7227 39.7129H44.7695ZM51.4859 43H50.5133V36.5781H51.4859V43ZM50.4313 34.8379C50.4313 34.6152 50.4859 34.4531 50.5953 34.3516C50.7047 34.2461 50.8414 34.1934 51.0055 34.1934C51.1617 34.1934 51.2965 34.2461 51.4098 34.3516C51.523 34.457 51.5797 34.6191 51.5797 34.8379C51.5797 35.0566 51.523 35.2207 51.4098 35.3301C51.2965 35.4355 51.1617 35.4883 51.0055 35.4883C50.8414 35.4883 50.7047 35.4355 50.5953 35.3301C50.4859 35.2207 50.4313 35.0566 50.4313 34.8379ZM56.6613 43.1172C55.7121 43.1172 54.9621 42.8281 54.4113 42.25C53.8645 41.6719 53.591 40.8691 53.591 39.8418C53.591 38.8066 53.8449 37.9844 54.3527 37.375C54.8645 36.7656 55.55 36.4609 56.4094 36.4609C57.2141 36.4609 57.8508 36.7266 58.3195 37.2578C58.7883 37.7852 59.0227 38.4824 59.0227 39.3496V39.9648H54.5988C54.6184 40.7188 54.8078 41.291 55.1672 41.6816C55.5305 42.0723 56.0402 42.2676 56.6965 42.2676C57.3879 42.2676 58.0715 42.123 58.7473 41.834V42.7012C58.4035 42.8496 58.0773 42.9551 57.7687 43.0176C57.4641 43.084 57.0949 43.1172 56.6613 43.1172ZM56.3977 37.2754C55.882 37.2754 55.4699 37.4434 55.1613 37.7793C54.8566 38.1152 54.677 38.5801 54.6223 39.1738H57.9797C57.9797 38.5605 57.843 38.0918 57.5695 37.7676C57.2961 37.4395 56.9055 37.2754 56.3977 37.2754ZM55.7941 44.418C55.7941 44.1953 55.8508 44.0312 55.9641 43.9258C56.0812 43.8203 56.2219 43.7676 56.3859 43.7676C56.5422 43.7676 56.677 43.8203 56.7902 43.9258C56.9035 44.0312 56.9602 44.1953 56.9602 44.418C56.9602 44.6328 56.9035 44.793 56.7902 44.8984C56.677 45.0078 56.5422 45.0625 56.3859 45.0625C56.2219 45.0625 56.0812 45.0078 55.9641 44.8984C55.8508 44.793 55.7941 44.6328 55.7941 44.418ZM54.3996 35.5938C54.8957 35.0625 55.2434 34.6719 55.4426 34.4219C55.6418 34.1719 55.7863 33.9668 55.8762 33.8066H56.8488C56.9348 33.9707 57.0832 34.1836 57.2941 34.4453C57.509 34.7031 57.8605 35.0859 58.3488 35.5938V35.7285H57.6516C57.3078 35.5137 56.8762 35.1504 56.3566 34.6387C55.8254 35.1621 55.3977 35.5254 55.0734 35.7285H54.3996V35.5938ZM69.2723 43V38.8223C69.2723 38.3105 69.1629 37.9277 68.9441 37.6738C68.7254 37.416 68.3855 37.2871 67.9246 37.2871C67.3191 37.2871 66.8719 37.4609 66.5828 37.8086C66.2938 38.1562 66.1492 38.6914 66.1492 39.4141V43H65.1766V38.8223C65.1766 38.3105 65.0672 37.9277 64.8484 37.6738C64.6297 37.416 64.2879 37.2871 63.823 37.2871C63.2137 37.2871 62.7664 37.4707 62.4813 37.8379C62.2 38.2012 62.0594 38.7988 62.0594 39.6309V43H61.0867V36.5781H61.8777L62.0359 37.457H62.0828C62.2664 37.1445 62.5242 36.9004 62.8563 36.7246C63.1922 36.5488 63.5672 36.4609 63.9813 36.4609C64.9852 36.4609 65.6414 36.8242 65.95 37.5508H65.9969C66.1883 37.2148 66.4656 36.9492 66.8289 36.7539C67.1922 36.5586 67.6063 36.4609 68.0711 36.4609C68.7977 36.4609 69.3406 36.6484 69.7 37.0234C70.0633 37.3945 70.2449 37.9902 70.2449 38.8105V43H69.2723ZM78.2461 42.3145C78.418 42.3145 78.584 42.3027 78.7441 42.2793C78.9043 42.252 79.0312 42.2246 79.125 42.1973V42.9414C79.0195 42.9922 78.8633 43.0332 78.6562 43.0645C78.4531 43.0996 78.2695 43.1172 78.1055 43.1172C76.8633 43.1172 76.2422 42.4629 76.2422 41.1543V37.334H75.3223V36.8652L76.2422 36.4609L76.6523 35.0898H77.2148V36.5781H79.0781V37.334H77.2148V41.1133C77.2148 41.5 77.3066 41.7969 77.4902 42.0039C77.6738 42.2109 77.9258 42.3145 78.2461 42.3145ZM85.2086 43V38.8457C85.2086 38.3223 85.0895 37.9316 84.8512 37.6738C84.6129 37.416 84.2398 37.2871 83.732 37.2871C83.0563 37.2871 82.5621 37.4707 82.2496 37.8379C81.941 38.2051 81.7867 38.8066 81.7867 39.6426V43H80.8141V33.8828H81.7867V36.6426C81.7867 36.9746 81.7711 37.25 81.7398 37.4688H81.7984C81.9898 37.1602 82.2613 36.918 82.6129 36.7422C82.9684 36.5625 83.3727 36.4727 83.8258 36.4727C84.6109 36.4727 85.1988 36.6602 85.5895 37.0352C85.984 37.4062 86.1813 37.998 86.1813 38.8105V43H85.2086ZM91.298 43.1172C90.3488 43.1172 89.5988 42.8281 89.048 42.25C88.5012 41.6719 88.2277 40.8691 88.2277 39.8418C88.2277 38.8066 88.4816 37.9844 88.9895 37.375C89.5012 36.7656 90.1867 36.4609 91.0461 36.4609C91.8508 36.4609 92.4875 36.7266 92.9563 37.2578C93.425 37.7852 93.6594 38.4824 93.6594 39.3496V39.9648H89.2355C89.2551 40.7188 89.4445 41.291 89.8039 41.6816C90.1672 42.0723 90.677 42.2676 91.3332 42.2676C92.0246 42.2676 92.7082 42.123 93.384 41.834V42.7012C93.0402 42.8496 92.7141 42.9551 92.4055 43.0176C92.1008 43.084 91.7316 43.1172 91.298 43.1172ZM91.0344 37.2754C90.5188 37.2754 90.1066 37.4434 89.798 37.7793C89.4934 38.1152 89.3137 38.5801 89.259 39.1738H92.6164C92.6164 38.5605 92.4797 38.0918 92.2063 37.7676C91.9328 37.4395 91.5422 37.2754 91.0344 37.2754ZM89.0715 35.5938C89.5676 35.0625 89.9152 34.6719 90.1145 34.4219C90.3137 34.1719 90.4582 33.9668 90.548 33.8066H91.5207C91.6066 33.9707 91.7551 34.1836 91.966 34.4453C92.1809 34.7031 92.5324 35.0859 93.0207 35.5938V35.7285H92.3234C91.9797 35.5137 91.548 35.1504 91.0285 34.6387C90.4973 35.1621 90.0695 35.5254 89.7453 35.7285H89.0715V35.5938ZM103.909 43V38.8223C103.909 38.3105 103.8 37.9277 103.581 37.6738C103.362 37.416 103.022 37.2871 102.561 37.2871C101.956 37.2871 101.509 37.4609 101.22 37.8086C100.93 38.1562 100.786 38.6914 100.786 39.4141V43H99.8133V38.8223C99.8133 38.3105 99.7039 37.9277 99.4852 37.6738C99.2664 37.416 98.9246 37.2871 98.4598 37.2871C97.8504 37.2871 97.4031 37.4707 97.118 37.8379C96.8367 38.2012 96.6961 38.7988 96.6961 39.6309V43H95.7234V36.5781H96.5145L96.6727 37.457H96.7195C96.9031 37.1445 97.1609 36.9004 97.493 36.7246C97.8289 36.5488 98.2039 36.4609 98.618 36.4609C99.6219 36.4609 100.278 36.8242 100.587 37.5508H100.634C100.825 37.2148 101.102 36.9492 101.466 36.7539C101.829 36.5586 102.243 36.4609 102.708 36.4609C103.434 36.4609 103.977 36.6484 104.337 37.0234C104.7 37.3945 104.882 37.9902 104.882 38.8105V43H103.909ZM111.77 39.7129C111.938 39.4746 112.193 39.1621 112.537 38.7754L114.611 36.5781H115.766L113.164 39.3145L115.947 43H114.77L112.502 39.9648L111.77 40.5977V43H110.809V33.8828H111.77V38.7168C111.77 38.9316 111.754 39.2637 111.723 39.7129H111.77ZM121.908 43V38.8457C121.908 38.3223 121.789 37.9316 121.55 37.6738C121.312 37.416 120.939 37.2871 120.431 37.2871C119.755 37.2871 119.261 37.4707 118.949 37.8379C118.64 38.2051 118.486 38.8066 118.486 39.6426V43H117.513V33.8828H118.486V36.6426C118.486 36.9746 118.47 37.25 118.439 37.4688H118.498C118.689 37.1602 118.961 36.918 119.312 36.7422C119.668 36.5625 120.072 36.4727 120.525 36.4727C121.31 36.4727 121.898 36.6602 122.289 37.0352C122.683 37.4062 122.88 37.998 122.88 38.8105V43H121.908ZM126.257 43H125.284V36.5781H126.257V43ZM125.202 34.8379C125.202 34.6152 125.257 34.4531 125.366 34.3516C125.476 34.2461 125.613 34.1934 125.777 34.1934C125.933 34.1934 126.068 34.2461 126.181 34.3516C126.294 34.457 126.351 34.6191 126.351 34.8379C126.351 35.0566 126.294 35.2207 126.181 35.3301C126.068 35.4355 125.933 35.4883 125.777 35.4883C125.613 35.4883 125.476 35.4355 125.366 35.3301C125.257 35.2207 125.202 35.0566 125.202 34.8379ZM134.803 43.1172C133.873 43.1172 133.153 42.832 132.641 42.2617C132.133 41.6875 131.879 40.877 131.879 39.8301C131.879 38.7559 132.137 37.9258 132.653 37.3398C133.172 36.7539 133.911 36.4609 134.868 36.4609C135.176 36.4609 135.485 36.4941 135.793 36.5605C136.102 36.627 136.344 36.7051 136.52 36.7949L136.221 37.6211C136.006 37.5352 135.772 37.4648 135.518 37.4102C135.264 37.3516 135.039 37.3223 134.844 37.3223C133.539 37.3223 132.887 38.1543 132.887 39.8184C132.887 40.6074 133.045 41.2129 133.362 41.6348C133.682 42.0566 134.155 42.2676 134.78 42.2676C135.315 42.2676 135.864 42.1523 136.426 41.9219V42.7832C135.996 43.0059 135.455 43.1172 134.803 43.1172ZM143.898 39.7832C143.898 40.8301 143.635 41.6484 143.107 42.2383C142.58 42.8242 141.852 43.1172 140.922 43.1172C140.348 43.1172 139.838 42.9824 139.393 42.7129C138.947 42.4434 138.604 42.0566 138.361 41.5527C138.119 41.0488 137.998 40.459 137.998 39.7832C137.998 38.7363 138.26 37.9219 138.783 37.3398C139.307 36.7539 140.033 36.4609 140.963 36.4609C141.861 36.4609 142.574 36.7598 143.102 37.3574C143.633 37.9551 143.898 38.7637 143.898 39.7832ZM139.006 39.7832C139.006 40.6035 139.17 41.2285 139.498 41.6582C139.826 42.0879 140.309 42.3027 140.945 42.3027C141.582 42.3027 142.064 42.0898 142.393 41.6641C142.725 41.2344 142.891 40.6074 142.891 39.7832C142.891 38.9668 142.725 38.3477 142.393 37.9258C142.064 37.5 141.578 37.2871 140.934 37.2871C140.297 37.2871 139.816 37.4961 139.492 37.9141C139.168 38.332 139.006 38.9551 139.006 39.7832ZM140.131 35.582C140.318 35.3398 140.52 35.0469 140.734 34.7031C140.953 34.3594 141.125 34.0605 141.25 33.8066H142.434V33.9297C142.262 34.1836 142.006 34.4961 141.666 34.8672C141.326 35.2383 141.031 35.5254 140.781 35.7285H140.131V35.582ZM151.601 42.3145C151.773 42.3145 151.939 42.3027 152.099 42.2793C152.259 42.252 152.386 42.2246 152.48 42.1973V42.9414C152.374 42.9922 152.218 43.0332 152.011 43.0645C151.808 43.0996 151.624 43.1172 151.46 43.1172C150.218 43.1172 149.597 42.4629 149.597 41.1543V37.334H148.677V36.8652L149.597 36.4609L150.007 35.0898H150.57V36.5781H152.433V37.334H150.57V41.1133C150.57 41.5 150.661 41.7969 150.845 42.0039C151.029 42.2109 151.28 42.3145 151.601 42.3145ZM158.563 43V38.8457C158.563 38.3223 158.444 37.9316 158.206 37.6738C157.968 37.416 157.595 37.2871 157.087 37.2871C156.411 37.2871 155.917 37.4707 155.604 37.8379C155.296 38.2051 155.141 38.8066 155.141 39.6426V43H154.169V33.8828H155.141V36.6426C155.141 36.9746 155.126 37.25 155.095 37.4688H155.153C155.345 37.1602 155.616 36.918 155.968 36.7422C156.323 36.5625 156.727 36.4727 157.18 36.4727C157.966 36.4727 158.554 36.6602 158.944 37.0352C159.339 37.4062 159.536 37.998 159.536 38.8105V43H158.563ZM162.854 36.5781V40.7441C162.854 41.2676 162.973 41.6582 163.211 41.916C163.45 42.1738 163.823 42.3027 164.33 42.3027C165.002 42.3027 165.493 42.1191 165.801 41.752C166.114 41.3848 166.27 40.7852 166.27 39.9531V36.5781H167.243V43H166.44L166.299 42.1387H166.246C166.047 42.4551 165.77 42.6973 165.414 42.8652C165.063 43.0332 164.661 43.1172 164.207 43.1172C163.426 43.1172 162.84 42.9316 162.45 42.5605C162.063 42.1895 161.87 41.5957 161.87 40.7793V36.5781H162.854ZM177.623 43V38.8457C177.623 38.3223 177.504 37.9316 177.265 37.6738C177.027 37.416 176.654 37.2871 176.146 37.2871C175.474 37.2871 174.982 37.4688 174.67 37.832C174.357 38.1953 174.201 38.7949 174.201 39.6309V43H173.228V36.5781H174.019L174.177 37.457H174.224C174.423 37.1406 174.703 36.8965 175.062 36.7246C175.421 36.5488 175.822 36.4609 176.263 36.4609C177.037 36.4609 177.619 36.6484 178.009 37.0234C178.4 37.3945 178.595 37.9902 178.595 38.8105V43H177.623ZM185.394 43V38.8457C185.394 38.3223 185.275 37.9316 185.036 37.6738C184.798 37.416 184.425 37.2871 183.917 37.2871C183.241 37.2871 182.747 37.4707 182.435 37.8379C182.126 38.2051 181.972 38.8066 181.972 39.6426V43H180.999V33.8828H181.972V36.6426C181.972 36.9746 181.956 37.25 181.925 37.4688H181.984C182.175 37.1602 182.446 36.918 182.798 36.7422C183.154 36.5625 183.558 36.4727 184.011 36.4727C184.796 36.4727 185.384 36.6602 185.775 37.0352C186.169 37.4062 186.366 37.998 186.366 38.8105V43H185.394ZM192.72 43L192.526 42.0859H192.479C192.159 42.4883 191.839 42.7617 191.518 42.9062C191.202 43.0469 190.805 43.1172 190.329 43.1172C189.692 43.1172 189.192 42.9531 188.829 42.625C188.47 42.2969 188.29 41.8301 188.29 41.2246C188.29 39.9277 189.327 39.248 191.401 39.1855L192.491 39.1504V38.752C192.491 38.248 192.382 37.877 192.163 37.6387C191.948 37.3965 191.602 37.2754 191.126 37.2754C190.591 37.2754 189.985 37.4395 189.309 37.7676L189.011 37.0234C189.327 36.8516 189.673 36.7168 190.048 36.6191C190.427 36.5215 190.805 36.4727 191.184 36.4727C191.95 36.4727 192.516 36.6426 192.884 36.9824C193.255 37.3223 193.44 37.8672 193.44 38.6172V43H192.72ZM190.522 42.3145C191.128 42.3145 191.602 42.1484 191.946 41.8164C192.294 41.4844 192.468 41.0195 192.468 40.4219V39.8418L191.495 39.8828C190.721 39.9102 190.163 40.0312 189.819 40.2461C189.479 40.457 189.309 40.7871 189.309 41.2363C189.309 41.5879 189.415 41.8555 189.626 42.0391C189.841 42.2227 190.139 42.3145 190.522 42.3145ZM190.294 44.418C190.294 44.1953 190.35 44.0312 190.464 43.9258C190.581 43.8203 190.721 43.7676 190.886 43.7676C191.042 43.7676 191.177 43.8203 191.29 43.9258C191.403 44.0312 191.46 44.1953 191.46 44.418C191.46 44.6328 191.403 44.793 191.29 44.8984C191.177 45.0078 191.042 45.0625 190.886 45.0625C190.721 45.0625 190.581 45.0078 190.464 44.8984C190.35 44.793 190.294 44.6328 190.294 44.418ZM189.052 35.5938C189.548 35.0625 189.895 34.6719 190.095 34.4219C190.294 34.1719 190.438 33.9668 190.528 33.8066H191.501C191.587 33.9707 191.735 34.1836 191.946 34.4453C192.161 34.7031 192.512 35.0859 193.001 35.5938V35.7285H192.304C191.96 35.5137 191.528 35.1504 191.009 34.6387C190.477 35.1621 190.05 35.5254 189.725 35.7285H189.052V35.5938ZM198.838 43.1172C198.42 43.1172 198.038 43.041 197.69 42.8887C197.346 42.7324 197.057 42.4941 196.823 42.1738H196.752C196.799 42.5488 196.823 42.9043 196.823 43.2402V45.8828H195.85V36.5781H196.641L196.776 37.457H196.823C197.073 37.1055 197.364 36.8516 197.696 36.6953C198.028 36.5391 198.409 36.4609 198.838 36.4609C199.69 36.4609 200.346 36.752 200.807 37.334C201.272 37.916 201.504 38.7324 201.504 39.7832C201.504 40.8379 201.268 41.6582 200.795 42.2441C200.327 42.8262 199.674 43.1172 198.838 43.1172ZM198.698 37.2871C198.041 37.2871 197.567 37.4688 197.274 37.832C196.981 38.1953 196.83 38.7734 196.823 39.5664V39.7832C196.823 40.6855 196.973 41.332 197.274 41.7227C197.575 42.1094 198.057 42.3027 198.721 42.3027C199.276 42.3027 199.709 42.0781 200.022 41.6289C200.338 41.1797 200.496 40.5605 200.496 39.7715C200.496 38.9707 200.338 38.3574 200.022 37.9316C199.709 37.502 199.268 37.2871 198.698 37.2871ZM210.115 36.4727C210.959 36.4727 211.613 36.7617 212.078 37.3398C212.546 37.9141 212.781 38.7285 212.781 39.7832C212.781 40.8379 212.545 41.6582 212.072 42.2441C211.603 42.8262 210.951 43.1172 210.115 43.1172C209.697 43.1172 209.314 43.041 208.966 42.8887C208.623 42.7324 208.334 42.4941 208.099 42.1738H208.029L207.824 43H207.127V33.8828H208.099V36.0977C208.099 36.5938 208.084 37.0391 208.052 37.4336H208.099C208.552 36.793 209.224 36.4727 210.115 36.4727ZM209.974 37.2871C209.31 37.2871 208.832 37.4785 208.539 37.8613C208.246 38.2402 208.099 38.8809 208.099 39.7832C208.099 40.6855 208.25 41.332 208.55 41.7227C208.851 42.1094 209.334 42.3027 209.998 42.3027C210.595 42.3027 211.041 42.0859 211.334 41.6523C211.627 41.2148 211.773 40.5879 211.773 39.7715C211.773 38.9355 211.627 38.3125 211.334 37.9023C211.041 37.4922 210.587 37.2871 209.974 37.2871ZM218.835 43L218.642 42.0859H218.595C218.275 42.4883 217.954 42.7617 217.634 42.9062C217.318 43.0469 216.921 43.1172 216.445 43.1172C215.808 43.1172 215.308 42.9531 214.945 42.625C214.585 42.2969 214.405 41.8301 214.405 41.2246C214.405 39.9277 215.443 39.248 217.517 39.1855L218.607 39.1504V38.752C218.607 38.248 218.497 37.877 218.279 37.6387C218.064 37.3965 217.718 37.2754 217.241 37.2754C216.706 37.2754 216.101 37.4395 215.425 37.7676L215.126 37.0234C215.443 36.8516 215.788 36.7168 216.163 36.6191C216.542 36.5215 216.921 36.4727 217.3 36.4727C218.066 36.4727 218.632 36.6426 218.999 36.9824C219.37 37.3223 219.556 37.8672 219.556 38.6172V43H218.835ZM216.638 42.3145C217.243 42.3145 217.718 42.1484 218.062 41.8164C218.409 41.4844 218.583 41.0195 218.583 40.4219V39.8418L217.611 39.8828C216.837 39.9102 216.279 40.0312 215.935 40.2461C215.595 40.457 215.425 40.7871 215.425 41.2363C215.425 41.5879 215.53 41.8555 215.741 42.0391C215.956 42.2227 216.255 42.3145 216.638 42.3145ZM218.952 35.7285H218.402C217.964 35.4355 217.552 35.1113 217.165 34.7559C216.72 35.1504 216.308 35.4746 215.929 35.7285H215.378V35.582L215.689 35.2305C216.126 34.75 216.446 34.3594 216.65 34.0586H217.681C217.939 34.4258 218.363 34.9336 218.952 35.582V35.7285ZM218.484 34.4453C218.769 34.0898 219.017 33.6934 219.228 33.2559H220.236V33.3789C219.911 33.8086 219.515 34.2109 219.046 34.5859H218.484V34.4453ZM224.04 42.3145C224.212 42.3145 224.378 42.3027 224.538 42.2793C224.698 42.252 224.825 42.2246 224.919 42.1973V42.9414C224.813 42.9922 224.657 43.0332 224.45 43.0645C224.247 43.0996 224.063 43.1172 223.899 43.1172C222.657 43.1172 222.036 42.4629 222.036 41.1543V37.334H221.116V36.8652L222.036 36.4609L222.446 35.0898H223.009V36.5781H224.872V37.334H223.009V41.1133C223.009 41.5 223.1 41.7969 223.284 42.0039C223.468 42.2109 223.72 42.3145 224.04 42.3145ZM232.199 42.3145C232.371 42.3145 232.537 42.3027 232.697 42.2793C232.857 42.252 232.984 42.2246 233.078 42.1973V42.9414C232.973 42.9922 232.816 43.0332 232.609 43.0645C232.406 43.0996 232.223 43.1172 232.059 43.1172C230.816 43.1172 230.195 42.4629 230.195 41.1543V37.334H229.275V36.8652L230.195 36.4609L230.605 35.0898H231.168V36.5781H233.031V37.334H231.168V41.1133C231.168 41.5 231.26 41.7969 231.443 42.0039C231.627 42.2109 231.879 42.3145 232.199 42.3145ZM239.162 43V38.8457C239.162 38.3223 239.043 37.9316 238.804 37.6738C238.566 37.416 238.193 37.2871 237.685 37.2871C237.009 37.2871 236.515 37.4707 236.203 37.8379C235.894 38.2051 235.74 38.8066 235.74 39.6426V43H234.767V33.8828H235.74V36.6426C235.74 36.9746 235.724 37.25 235.693 37.4688H235.752C235.943 37.1602 236.214 36.918 236.566 36.7422C236.921 36.5625 237.326 36.4727 237.779 36.4727C238.564 36.4727 239.152 36.6602 239.543 37.0352C239.937 37.4062 240.134 37.998 240.134 38.8105V43H239.162ZM243.452 36.5898V40.7441C243.452 41.2676 243.571 41.6582 243.81 41.916C244.048 42.1738 244.421 42.3027 244.929 42.3027C245.601 42.3027 246.091 42.1191 246.4 41.752C246.712 41.3848 246.868 40.7852 246.868 39.9531V36.5898H247.841V37.2988C248.161 37.2559 248.394 37.1094 248.538 36.8594C248.683 36.6094 248.755 36.1836 248.755 35.582H249.798L249.886 35.7168C249.761 36.4434 249.527 36.9941 249.183 37.3691C248.839 37.7402 248.392 37.9531 247.841 38.0078V43H247.038L246.898 42.1387H246.845C246.642 42.459 246.363 42.7031 246.007 42.8711C245.655 43.0352 245.263 43.1172 244.829 43.1172C244.036 43.1172 243.445 42.9316 243.054 42.5605C242.663 42.1895 242.468 41.5957 242.468 40.7793V36.5898H243.452ZM256.462 39.7832C256.462 40.8301 256.198 41.6484 255.671 42.2383C255.143 42.8242 254.415 43.1172 253.485 43.1172C252.911 43.1172 252.401 42.9824 251.956 42.7129C251.511 42.4434 251.167 42.0566 250.925 41.5527C250.682 41.0488 250.561 40.459 250.561 39.7832C250.561 38.7363 250.823 37.9219 251.346 37.3398C251.87 36.7539 252.596 36.4609 253.526 36.4609C254.374 36.4609 255.065 36.7363 255.6 37.2871C255.8 37.2285 255.956 37.1367 256.069 37.0117C256.182 36.8828 256.264 36.7227 256.315 36.5312C256.366 36.3359 256.391 36.0234 256.391 35.5938H257.446L257.534 35.7285C257.413 36.3379 257.233 36.8145 256.995 37.1582C256.761 37.498 256.444 37.7422 256.046 37.8906C256.323 38.4297 256.462 39.0605 256.462 39.7832ZM251.569 39.7832C251.569 40.6074 251.723 41.2344 252.032 41.6641C252.341 42.0898 252.833 42.3027 253.509 42.3027C254.192 42.3027 254.686 42.0898 254.991 41.6641C255.3 41.2344 255.454 40.6074 255.454 39.7832C255.454 38.9629 255.298 38.3418 254.985 37.9199C254.677 37.498 254.18 37.2871 253.497 37.2871C252.821 37.2871 252.331 37.498 252.026 37.9199C251.721 38.3418 251.569 38.9629 251.569 39.7832ZM254.235 35.7285H253.591C253.337 35.5254 253.036 35.2363 252.688 34.8613C252.341 34.4863 252.089 34.1758 251.932 33.9297V33.8066H253.122C253.247 34.0762 253.421 34.3887 253.643 34.7441C253.866 35.0957 254.063 35.375 254.235 35.582V35.7285ZM263.026 43V38.8457C263.026 38.3223 262.907 37.9316 262.668 37.6738C262.43 37.416 262.057 37.2871 261.549 37.2871C260.877 37.2871 260.385 37.4688 260.073 37.832C259.76 38.1953 259.604 38.7949 259.604 39.6309V43H258.631V36.5781H259.422L259.58 37.457H259.627C259.827 37.1406 260.106 36.8965 260.465 36.7246C260.825 36.5488 261.225 36.4609 261.666 36.4609C262.44 36.4609 263.022 36.6484 263.413 37.0234C263.803 37.3945 263.998 37.9902 263.998 38.8105V43H263.026ZM271.658 36.5781V37.1934L270.469 37.334C270.578 37.4707 270.676 37.6504 270.762 37.873C270.848 38.0918 270.891 38.3398 270.891 38.6172C270.891 39.2461 270.676 39.748 270.246 40.123C269.816 40.498 269.227 40.6855 268.477 40.6855C268.285 40.6855 268.105 40.6699 267.938 40.6387C267.523 40.8574 267.316 41.1328 267.316 41.4648C267.316 41.6406 267.389 41.7715 267.533 41.8574C267.678 41.9395 267.926 41.9805 268.277 41.9805H269.414C270.109 41.9805 270.643 42.127 271.014 42.4199C271.389 42.7129 271.576 43.1387 271.576 43.6973C271.576 44.4082 271.291 44.9492 270.721 45.3203C270.15 45.6953 269.318 45.8828 268.225 45.8828C267.385 45.8828 266.736 45.7266 266.279 45.4141C265.826 45.1016 265.6 44.6602 265.6 44.0898C265.6 43.6992 265.725 43.3613 265.975 43.0762C266.225 42.791 266.576 42.5977 267.029 42.4961C266.865 42.4219 266.727 42.3066 266.613 42.1504C266.504 41.9941 266.449 41.8125 266.449 41.6055C266.449 41.3711 266.512 41.166 266.637 40.9902C266.762 40.8145 266.959 40.6445 267.229 40.4805C266.896 40.3438 266.625 40.1113 266.414 39.7832C266.207 39.4551 266.104 39.0801 266.104 38.6582C266.104 37.9551 266.314 37.4141 266.736 37.0352C267.158 36.6523 267.756 36.4609 268.529 36.4609C268.865 36.4609 269.168 36.5 269.438 36.5781H271.658ZM266.537 44.0781C266.537 44.4258 266.684 44.6895 266.977 44.8691C267.27 45.0488 267.689 45.1387 268.236 45.1387C269.053 45.1387 269.656 45.0156 270.047 44.7695C270.441 44.5273 270.639 44.1973 270.639 43.7793C270.639 43.4316 270.531 43.1895 270.316 43.0527C270.102 42.9199 269.697 42.8535 269.104 42.8535H267.938C267.496 42.8535 267.152 42.959 266.906 43.1699C266.66 43.3809 266.537 43.6836 266.537 44.0781ZM267.064 38.6348C267.064 39.084 267.191 39.4238 267.445 39.6543C267.699 39.8848 268.053 40 268.506 40C269.455 40 269.93 39.5391 269.93 38.6172C269.93 37.6523 269.449 37.1699 268.488 37.1699C268.031 37.1699 267.68 37.293 267.434 37.5391C267.188 37.7852 267.064 38.1504 267.064 38.6348ZM6.70508 54.6172C6.70508 54.1445 6.81445 53.7852 7.0332 53.5391C7.25586 53.293 7.57812 53.1699 8 53.1699C8.41016 53.1699 8.72852 53.291 8.95508 53.5332C9.18164 53.7754 9.29492 54.1367 9.29492 54.6172C9.29492 55.082 9.18164 55.4414 8.95508 55.6953C8.73242 55.9453 8.41406 56.0703 8 56.0703C7.58203 56.0703 7.26172 55.9434 7.03906 55.6895C6.81641 55.4316 6.70508 55.0742 6.70508 54.6172ZM24.6816 59H23.6855V54.9688H19.1738V59H18.1777V50.4336H19.1738V54.0781H23.6855V50.4336H24.6816V59ZM31.2398 59L31.0465 58.0859H30.9996C30.6793 58.4883 30.359 58.7617 30.0387 58.9062C29.7223 59.0469 29.3258 59.1172 28.8492 59.1172C28.2125 59.1172 27.7125 58.9531 27.3492 58.625C26.9898 58.2969 26.8102 57.8301 26.8102 57.2246C26.8102 55.9277 27.8473 55.248 29.9215 55.1855L31.0113 55.1504V54.752C31.0113 54.248 30.902 53.877 30.6832 53.6387C30.4684 53.3965 30.1227 53.2754 29.6461 53.2754C29.1109 53.2754 28.5055 53.4395 27.8297 53.7676L27.5309 53.0234C27.8473 52.8516 28.193 52.7168 28.568 52.6191C28.9469 52.5215 29.3258 52.4727 29.7047 52.4727C30.4703 52.4727 31.0367 52.6426 31.4039 52.9824C31.775 53.3223 31.9605 53.8672 31.9605 54.6172V59H31.2398ZM29.0426 58.3145C29.648 58.3145 30.1227 58.1484 30.4664 57.8164C30.8141 57.4844 30.9879 57.0195 30.9879 56.4219V55.8418L30.0152 55.8828C29.2418 55.9102 28.6832 56.0312 28.3395 56.2461C27.9996 56.457 27.8297 56.7871 27.8297 57.2363C27.8297 57.5879 27.9352 57.8555 28.1461 58.0391C28.3609 58.2227 28.6598 58.3145 29.0426 58.3145ZM30.484 51.7168C30.316 51.7168 30.152 51.6816 29.9918 51.6113C29.8316 51.5371 29.6734 51.457 29.5172 51.3711C29.3648 51.2812 29.2164 51.2012 29.0719 51.1309C28.9312 51.0566 28.7945 51.0195 28.6617 51.0195C28.4664 51.0195 28.318 51.0781 28.2164 51.1953C28.1187 51.3125 28.0426 51.4902 27.9879 51.7285H27.4137C27.4645 51.2559 27.6012 50.8867 27.8238 50.6211C28.0504 50.3516 28.3414 50.2168 28.6969 50.2168C28.8766 50.2168 29.0504 50.2539 29.2184 50.3281C29.3863 50.3984 29.5465 50.4785 29.6988 50.5684C29.8512 50.6543 29.9977 50.7344 30.1383 50.8086C30.2789 50.8789 30.4117 50.9141 30.5367 50.9141C30.7281 50.9141 30.8707 50.8574 30.9645 50.7441C31.0582 50.627 31.1344 50.4473 31.193 50.2051H31.773C31.7223 50.6777 31.5855 51.0488 31.3629 51.3184C31.1441 51.584 30.8512 51.7168 30.484 51.7168ZM33.3508 52.5781H34.3937L35.8 56.2402C36.1086 57.0762 36.3 57.6797 36.3742 58.0508H36.4211C36.4719 57.8516 36.5773 57.5117 36.7375 57.0312C36.9016 56.5469 37.4328 55.0625 38.3312 52.5781H39.3742L36.6145 59.8906C36.341 60.6133 36.0207 61.125 35.6535 61.4258C35.2902 61.7305 34.843 61.8828 34.3117 61.8828C34.0148 61.8828 33.7219 61.8496 33.4328 61.7832V61.0039C33.6477 61.0508 33.8879 61.0742 34.1535 61.0742C34.8215 61.0742 35.298 60.6992 35.5832 59.9492L35.9406 59.0352L33.3508 52.5781ZM46.4086 58.3145C46.5805 58.3145 46.7465 58.3027 46.9066 58.2793C47.0668 58.252 47.1937 58.2246 47.2875 58.1973V58.9414C47.182 58.9922 47.0258 59.0332 46.8187 59.0645C46.6156 59.0996 46.432 59.1172 46.268 59.1172C45.0258 59.1172 44.4047 58.4629 44.4047 57.1543V53.334H43.4848V52.8652L44.4047 52.4609L44.8148 51.0898H45.3773V52.5781H47.2406V53.334H45.3773V57.1133C45.3773 57.5 45.4691 57.7969 45.6527 58.0039C45.8363 58.2109 46.0883 58.3145 46.4086 58.3145ZM49.9492 59H48.9766V52.5781H49.9492V59ZM48.8945 50.8379C48.8945 50.6152 48.9492 50.4531 49.0586 50.3516C49.168 50.2461 49.3047 50.1934 49.4688 50.1934C49.625 50.1934 49.7598 50.2461 49.873 50.3516C49.9863 50.457 50.043 50.6191 50.043 50.8379C50.043 51.0566 49.9863 51.2207 49.873 51.3301C49.7598 51.4355 49.625 51.4883 49.4688 51.4883C49.3047 51.4883 49.168 51.4355 49.0586 51.3301C48.9492 51.2207 48.8945 51.0566 48.8945 50.8379ZM55.1246 59.1172C54.1754 59.1172 53.4254 58.8281 52.8746 58.25C52.3277 57.6719 52.0543 56.8691 52.0543 55.8418C52.0543 54.8066 52.3082 53.9844 52.816 53.375C53.3277 52.7656 54.0133 52.4609 54.8727 52.4609C55.6773 52.4609 56.3141 52.7266 56.7828 53.2578C57.2516 53.7852 57.4859 54.4824 57.4859 55.3496V55.9648H53.0621C53.0816 56.7188 53.2711 57.291 53.6305 57.6816C53.9938 58.0723 54.5035 58.2676 55.1598 58.2676C55.8512 58.2676 56.5348 58.123 57.2105 57.834V58.7012C56.8668 58.8496 56.5406 58.9551 56.232 59.0176C55.9273 59.084 55.5582 59.1172 55.1246 59.1172ZM54.8609 53.2754C54.3453 53.2754 53.9332 53.4434 53.6246 53.7793C53.3199 54.1152 53.1402 54.5801 53.0855 55.1738H56.443C56.443 54.5605 56.3063 54.0918 56.0328 53.7676C55.7594 53.4395 55.3688 53.2754 54.8609 53.2754ZM56.6363 51.7285H56.0855C55.648 51.4355 55.2359 51.1113 54.8492 50.7559C54.4039 51.1504 53.9918 51.4746 53.6129 51.7285H53.0621V51.582L53.3727 51.2305C53.8102 50.75 54.1305 50.3594 54.3336 50.0586H55.3648C55.6227 50.4258 56.0465 50.9336 56.6363 51.582V51.7285ZM56.1676 50.4453C56.4527 50.0898 56.7008 49.6934 56.9117 49.2559H57.9195V49.3789C57.5953 49.8086 57.1988 50.2109 56.7301 50.5859H56.1676V50.4453ZM61.6242 58.3145C61.7961 58.3145 61.9621 58.3027 62.1223 58.2793C62.2824 58.252 62.4094 58.2246 62.5031 58.1973V58.9414C62.3977 58.9922 62.2414 59.0332 62.0344 59.0645C61.8312 59.0996 61.6477 59.1172 61.4836 59.1172C60.2414 59.1172 59.6203 58.4629 59.6203 57.1543V53.334H58.7004V52.8652L59.6203 52.4609L60.0305 51.0898H60.593V52.5781H62.4562V53.334H60.593V57.1133C60.593 57.5 60.6848 57.7969 60.8684 58.0039C61.052 58.2109 61.3039 58.3145 61.6242 58.3145ZM68.6703 55.7129C68.8383 55.4746 69.0941 55.1621 69.4379 54.7754L71.5121 52.5781H72.6664L70.0648 55.3145L72.848 59H71.6703L69.4027 55.9648L68.6703 56.5977V59H67.7094V49.8828H68.6703V54.7168C68.6703 54.9316 68.6547 55.2637 68.6234 55.7129H68.6703ZM75.3867 59H74.4141V52.5781H75.3867V59ZM74.332 50.8379C74.332 50.6152 74.3867 50.4531 74.4961 50.3516C74.6055 50.2461 74.7422 50.1934 74.9062 50.1934C75.0625 50.1934 75.1973 50.2461 75.3105 50.3516C75.4238 50.457 75.4805 50.6191 75.4805 50.8379C75.4805 51.0566 75.4238 51.2207 75.3105 51.3301C75.1973 51.4355 75.0625 51.4883 74.9062 51.4883C74.7422 51.4883 74.6055 51.4355 74.4961 51.3301C74.3867 51.2207 74.332 51.0566 74.332 50.8379ZM80.5621 59.1172C79.6129 59.1172 78.8629 58.8281 78.3121 58.25C77.7652 57.6719 77.4918 56.8691 77.4918 55.8418C77.4918 54.8066 77.7457 53.9844 78.2535 53.375C78.7652 52.7656 79.4508 52.4609 80.3102 52.4609C81.1148 52.4609 81.7516 52.7266 82.2203 53.2578C82.6891 53.7852 82.9234 54.4824 82.9234 55.3496V55.9648H78.4996C78.5191 56.7188 78.7086 57.291 79.068 57.6816C79.4313 58.0723 79.941 58.2676 80.5973 58.2676C81.2887 58.2676 81.9723 58.123 82.648 57.834V58.7012C82.3043 58.8496 81.9781 58.9551 81.6695 59.0176C81.3648 59.084 80.9957 59.1172 80.5621 59.1172ZM80.2984 53.2754C79.7828 53.2754 79.3707 53.4434 79.0621 53.7793C78.7574 54.1152 78.5777 54.5801 78.523 55.1738H81.8805C81.8805 54.5605 81.7438 54.0918 81.4703 53.7676C81.1969 53.4395 80.8063 53.2754 80.2984 53.2754ZM79.6949 60.418C79.6949 60.1953 79.7516 60.0312 79.8648 59.9258C79.982 59.8203 80.1227 59.7676 80.2867 59.7676C80.443 59.7676 80.5777 59.8203 80.691 59.9258C80.8043 60.0312 80.8609 60.1953 80.8609 60.418C80.8609 60.6328 80.8043 60.793 80.691 60.8984C80.5777 61.0078 80.443 61.0625 80.2867 61.0625C80.1227 61.0625 79.982 61.0078 79.8648 60.8984C79.7516 60.793 79.6949 60.6328 79.6949 60.418ZM78.3004 51.5938C78.7965 51.0625 79.1441 50.6719 79.3434 50.4219C79.5426 50.1719 79.6871 49.9668 79.777 49.8066H80.7496C80.8355 49.9707 80.984 50.1836 81.1949 50.4453C81.4098 50.7031 81.7613 51.0859 82.2496 51.5938V51.7285H81.5523C81.2086 51.5137 80.777 51.1504 80.2574 50.6387C79.7262 51.1621 79.2984 51.5254 78.9742 51.7285H78.3004V51.5938ZM93.173 59V54.8223C93.173 54.3105 93.0637 53.9277 92.8449 53.6738C92.6262 53.416 92.2863 53.2871 91.8254 53.2871C91.2199 53.2871 90.7727 53.4609 90.4836 53.8086C90.1945 54.1562 90.05 54.6914 90.05 55.4141V59H89.0773V54.8223C89.0773 54.3105 88.968 53.9277 88.7492 53.6738C88.5305 53.416 88.1887 53.2871 87.7238 53.2871C87.1145 53.2871 86.6672 53.4707 86.382 53.8379C86.1008 54.2012 85.9602 54.7988 85.9602 55.6309V59H84.9875V52.5781H85.7785L85.9367 53.457H85.9836C86.1672 53.1445 86.425 52.9004 86.757 52.7246C87.093 52.5488 87.468 52.4609 87.882 52.4609C88.8859 52.4609 89.5422 52.8242 89.8508 53.5508H89.8977C90.0891 53.2148 90.3664 52.9492 90.7297 52.7539C91.093 52.5586 91.507 52.4609 91.9719 52.4609C92.6984 52.4609 93.2414 52.6484 93.6008 53.0234C93.9641 53.3945 94.1457 53.9902 94.1457 54.8105V59H93.173ZM102.147 58.3145C102.319 58.3145 102.485 58.3027 102.645 58.2793C102.805 58.252 102.932 58.2246 103.026 58.1973V58.9414C102.92 58.9922 102.764 59.0332 102.557 59.0645C102.354 59.0996 102.17 59.1172 102.006 59.1172C100.764 59.1172 100.143 58.4629 100.143 57.1543V53.334H99.223V52.8652L100.143 52.4609L100.553 51.0898H101.116V52.5781H102.979V53.334H101.116V57.1133C101.116 57.5 101.207 57.7969 101.391 58.0039C101.575 58.2109 101.827 58.3145 102.147 58.3145ZM107.645 52.4609C107.93 52.4609 108.186 52.4844 108.412 52.5312L108.277 53.4336C108.012 53.375 107.777 53.3457 107.574 53.3457C107.055 53.3457 106.609 53.5566 106.238 53.9785C105.871 54.4004 105.688 54.9258 105.688 55.5547V59H104.715V52.5781H105.518L105.629 53.7676H105.676C105.914 53.3496 106.201 53.0273 106.537 52.8008C106.873 52.5742 107.242 52.4609 107.645 52.4609ZM110.927 52.5898V56.7441C110.927 57.2676 111.046 57.6582 111.285 57.916C111.523 58.1738 111.896 58.3027 112.404 58.3027C113.076 58.3027 113.566 58.1191 113.875 57.752C114.187 57.3848 114.343 56.7852 114.343 55.9531V52.5898H115.316V53.2988C115.636 53.2559 115.869 53.1094 116.013 52.8594C116.158 52.6094 116.23 52.1836 116.23 51.582H117.273L117.361 51.7168C117.236 52.4434 117.002 52.9941 116.658 53.3691C116.314 53.7402 115.867 53.9531 115.316 54.0078V59H114.513L114.373 58.1387H114.32C114.117 58.459 113.838 58.7031 113.482 58.8711C113.13 59.0352 112.738 59.1172 112.304 59.1172C111.511 59.1172 110.92 58.9316 110.529 58.5605C110.138 58.1895 109.943 57.5957 109.943 56.7793V52.5898H110.927ZM123.937 55.7832C123.937 56.8301 123.673 57.6484 123.146 58.2383C122.618 58.8242 121.89 59.1172 120.96 59.1172C120.386 59.1172 119.876 58.9824 119.431 58.7129C118.986 58.4434 118.642 58.0566 118.4 57.5527C118.157 57.0488 118.036 56.459 118.036 55.7832C118.036 54.7363 118.298 53.9219 118.821 53.3398C119.345 52.7539 120.071 52.4609 121.001 52.4609C121.849 52.4609 122.54 52.7363 123.075 53.2871C123.275 53.2285 123.431 53.1367 123.544 53.0117C123.657 52.8828 123.739 52.7227 123.79 52.5312C123.841 52.3359 123.866 52.0234 123.866 51.5938H124.921L125.009 51.7285C124.888 52.3379 124.708 52.8145 124.47 53.1582C124.236 53.498 123.919 53.7422 123.521 53.8906C123.798 54.4297 123.937 55.0605 123.937 55.7832ZM119.044 55.7832C119.044 56.6074 119.198 57.2344 119.507 57.6641C119.816 58.0898 120.308 58.3027 120.984 58.3027C121.667 58.3027 122.161 58.0898 122.466 57.6641C122.775 57.2344 122.929 56.6074 122.929 55.7832C122.929 54.9629 122.773 54.3418 122.46 53.9199C122.152 53.498 121.655 53.2871 120.972 53.2871C120.296 53.2871 119.806 53.498 119.501 53.9199C119.196 54.3418 119.044 54.9629 119.044 55.7832ZM120.304 51.582C120.491 51.3398 120.693 51.0469 120.907 50.7031C121.126 50.3594 121.298 50.0605 121.423 49.8066H122.607V49.9297C122.435 50.1836 122.179 50.4961 121.839 50.8672C121.499 51.2383 121.204 51.5254 120.954 51.7285H120.304V51.582ZM128.673 59.1172C127.743 59.1172 127.022 58.832 126.511 58.2617C126.003 57.6875 125.749 56.877 125.749 55.8301C125.749 54.7559 126.007 53.9258 126.522 53.3398C127.042 52.7539 127.78 52.4609 128.737 52.4609C129.046 52.4609 129.354 52.4941 129.663 52.5605C129.971 52.627 130.214 52.7051 130.389 52.7949L130.091 53.6211C129.876 53.5352 129.641 53.4648 129.387 53.4102C129.134 53.3516 128.909 53.3223 128.714 53.3223C127.409 53.3223 126.757 54.1543 126.757 55.8184C126.757 56.6074 126.915 57.2129 127.231 57.6348C127.552 58.0566 128.024 58.2676 128.649 58.2676C129.184 58.2676 129.733 58.1523 130.296 57.9219V58.7832C129.866 59.0059 129.325 59.1172 128.673 59.1172ZM136.703 55.7129C136.871 55.4746 137.127 55.1621 137.471 54.7754L139.545 52.5781H140.699L138.098 55.3145L140.881 59H139.703L137.436 55.9648L136.703 56.5977V59H135.742V49.8828H136.703V54.7168C136.703 54.9316 136.688 55.2637 136.656 55.7129H136.703ZM146.841 59V54.8457C146.841 54.3223 146.722 53.9316 146.484 53.6738C146.246 53.416 145.873 53.2871 145.365 53.2871C144.689 53.2871 144.195 53.4707 143.882 53.8379C143.574 54.2051 143.42 54.8066 143.42 55.6426V59H142.447V49.8828H143.42V52.6426C143.42 52.9746 143.404 53.25 143.373 53.4688H143.431C143.623 53.1602 143.894 52.918 144.246 52.7422C144.601 52.5625 145.005 52.4727 145.459 52.4727C146.244 52.4727 146.832 52.6602 147.222 53.0352C147.617 53.4062 147.814 53.998 147.814 54.8105V59H146.841ZM151.191 59H150.218V52.5781H151.191V59ZM150.136 50.8379C150.136 50.6152 150.191 50.4531 150.3 50.3516C150.409 50.2461 150.546 50.1934 150.71 50.1934C150.866 50.1934 151.001 50.2461 151.114 50.3516C151.228 50.457 151.284 50.6191 151.284 50.8379C151.284 51.0566 151.228 51.2207 151.114 51.3301C151.001 51.4355 150.866 51.4883 150.71 51.4883C150.546 51.4883 150.409 51.4355 150.3 51.3301C150.191 51.2207 150.136 51.0566 150.136 50.8379ZM159.737 59.1172C158.807 59.1172 158.086 58.832 157.575 58.2617C157.067 57.6875 156.813 56.877 156.813 55.8301C156.813 54.7559 157.071 53.9258 157.586 53.3398C158.106 52.7539 158.844 52.4609 159.801 52.4609C160.11 52.4609 160.418 52.4941 160.727 52.5605C161.036 52.627 161.278 52.7051 161.454 52.7949L161.155 53.6211C160.94 53.5352 160.705 53.4648 160.452 53.4102C160.198 53.3516 159.973 53.3223 159.778 53.3223C158.473 53.3223 157.821 54.1543 157.821 55.8184C157.821 56.6074 157.979 57.2129 158.295 57.6348C158.616 58.0566 159.088 58.2676 159.713 58.2676C160.248 58.2676 160.797 58.1523 161.36 57.9219V58.7832C160.93 59.0059 160.389 59.1172 159.737 59.1172ZM167.684 59V54.8457C167.684 54.3223 167.564 53.9316 167.326 53.6738C167.088 53.416 166.715 53.2871 166.207 53.2871C165.531 53.2871 165.037 53.4707 164.725 53.8379C164.416 54.2051 164.262 54.8066 164.262 55.6426V59H163.289V49.8828H164.262V52.6426C164.262 52.9746 164.246 53.25 164.215 53.4688H164.273C164.465 53.1602 164.736 52.918 165.088 52.7422C165.443 52.5625 165.848 52.4727 166.301 52.4727C167.086 52.4727 167.674 52.6602 168.064 53.0352C168.459 53.4062 168.656 53.998 168.656 54.8105V59H167.684ZM172.033 59H171.06V52.5781H172.033V59ZM170.978 50.8379C170.978 50.6152 171.033 50.4531 171.142 50.3516C171.252 50.2461 171.388 50.1934 171.552 50.1934C171.709 50.1934 171.843 50.2461 171.957 50.3516C172.07 50.457 172.127 50.6191 172.127 50.8379C172.127 51.0566 172.07 51.2207 171.957 51.3301C171.843 51.4355 171.709 51.4883 171.552 51.4883C171.388 51.4883 171.252 51.4355 171.142 51.3301C171.033 51.2207 170.978 51.0566 170.978 50.8379ZM180.087 58.3145C180.259 58.3145 180.425 58.3027 180.585 58.2793C180.745 58.252 180.872 58.2246 180.966 58.1973V58.9414C180.86 58.9922 180.704 59.0332 180.497 59.0645C180.294 59.0996 180.11 59.1172 179.946 59.1172C178.704 59.1172 178.083 58.4629 178.083 57.1543V53.334H177.163V52.8652L178.083 52.4609L178.493 51.0898H179.055V52.5781H180.919V53.334H179.055V57.1133C179.055 57.5 179.147 57.7969 179.331 58.0039C179.514 58.2109 179.766 58.3145 180.087 58.3145ZM183.627 59H182.655V52.5781H183.627V59ZM182.573 50.8379C182.573 50.6152 182.627 50.4531 182.737 50.3516C182.846 50.2461 182.983 50.1934 183.147 50.1934C183.303 50.1934 183.438 50.2461 183.551 50.3516C183.664 50.457 183.721 50.6191 183.721 50.8379C183.721 51.0566 183.664 51.2207 183.551 51.3301C183.438 51.4355 183.303 51.4883 183.147 51.4883C182.983 51.4883 182.846 51.4355 182.737 51.3301C182.627 51.2207 182.573 51.0566 182.573 50.8379ZM188.803 59.1172C187.854 59.1172 187.104 58.8281 186.553 58.25C186.006 57.6719 185.732 56.8691 185.732 55.8418C185.732 54.8066 185.986 53.9844 186.494 53.375C187.006 52.7656 187.691 52.4609 188.551 52.4609C189.355 52.4609 189.992 52.7266 190.461 53.2578C190.93 53.7852 191.164 54.4824 191.164 55.3496V55.9648H186.74C186.76 56.7188 186.949 57.291 187.309 57.6816C187.672 58.0723 188.182 58.2676 188.838 58.2676C189.529 58.2676 190.213 58.123 190.889 57.834V58.7012C190.545 58.8496 190.219 58.9551 189.91 59.0176C189.605 59.084 189.236 59.1172 188.803 59.1172ZM188.539 53.2754C188.023 53.2754 187.611 53.4434 187.303 53.7793C186.998 54.1152 186.818 54.5801 186.764 55.1738H190.121C190.121 54.5605 189.984 54.0918 189.711 53.7676C189.438 53.4395 189.047 53.2754 188.539 53.2754ZM186.576 51.5938C187.072 51.0625 187.42 50.6719 187.619 50.4219C187.818 50.1719 187.963 49.9668 188.053 49.8066H189.025C189.111 49.9707 189.26 50.1836 189.471 50.4453C189.686 50.7031 190.037 51.0859 190.525 51.5938V51.7285H189.828C189.484 51.5137 189.053 51.1504 188.533 50.6387C188.002 51.1621 187.574 51.5254 187.25 51.7285H186.576V51.5938ZM194.142 52.5781V56.7441C194.142 57.2676 194.261 57.6582 194.5 57.916C194.738 58.1738 195.111 58.3027 195.619 58.3027C196.291 58.3027 196.781 58.1191 197.089 57.752C197.402 57.3848 197.558 56.7852 197.558 55.9531V52.5781H198.531V59H197.728L197.587 58.1387H197.535C197.336 58.4551 197.058 58.6973 196.703 58.8652C196.351 59.0332 195.949 59.1172 195.496 59.1172C194.714 59.1172 194.129 58.9316 193.738 58.5605C193.351 58.1895 193.158 57.5957 193.158 56.7793V52.5781H194.142Z" fill="#82869E"/>
</svg>
