<svg width="47" height="24" viewBox="0 0 47 24" fill="none" xmlns="http://www.w3.org/2000/svg">
<rect width="47" height="24" fill="#A9B0D1"/>
<path d="M8.81445 17H7.81836V9.31836H5.10547V8.43359H11.5273V9.31836H8.81445V17ZM17.4703 17V12.8457C17.4703 12.3223 17.3512 11.9316 17.1129 11.6738C16.8746 11.416 16.5016 11.2871 15.9938 11.2871C15.318 11.2871 14.8238 11.4707 14.5113 11.8379C14.2027 12.2051 14.0484 12.8066 14.0484 13.6426V17H13.0758V7.88281H14.0484V10.6426C14.0484 10.9746 14.0328 11.25 14.0016 11.4688H14.0602C14.2516 11.1602 14.523 10.918 14.8746 10.7422C15.2301 10.5625 15.6344 10.4727 16.0875 10.4727C16.8727 10.4727 17.4605 10.6602 17.8512 11.0352C18.2457 11.4062 18.443 11.998 18.443 12.8105V17H17.4703ZM24.7961 17L24.6027 16.0859H24.5559C24.2355 16.4883 23.9152 16.7617 23.5949 16.9062C23.2785 17.0469 22.882 17.1172 22.4055 17.1172C21.7688 17.1172 21.2688 16.9531 20.9055 16.625C20.5461 16.2969 20.3664 15.8301 20.3664 15.2246C20.3664 13.9277 21.4035 13.248 23.4777 13.1855L24.5676 13.1504V12.752C24.5676 12.248 24.4582 11.877 24.2395 11.6387C24.0246 11.3965 23.6789 11.2754 23.2023 11.2754C22.6672 11.2754 22.0617 11.4395 21.3859 11.7676L21.0871 11.0234C21.4035 10.8516 21.7492 10.7168 22.1242 10.6191C22.5031 10.5215 22.882 10.4727 23.2609 10.4727C24.0266 10.4727 24.593 10.6426 24.9602 10.9824C25.3313 11.3223 25.5168 11.8672 25.5168 12.6172V17H24.7961ZM22.5988 16.3145C23.2043 16.3145 23.6789 16.1484 24.0227 15.8164C24.3703 15.4844 24.5441 15.0195 24.5441 14.4219V13.8418L23.5715 13.8828C22.798 13.9102 22.2395 14.0312 21.8957 14.2461C21.5559 14.457 21.3859 14.7871 21.3859 15.2363C21.3859 15.5879 21.4914 15.8555 21.7023 16.0391C21.9172 16.2227 22.216 16.3145 22.5988 16.3145ZM22.3703 9.58203C22.5578 9.33984 22.759 9.04688 22.9738 8.70312C23.1926 8.35938 23.3645 8.06055 23.4895 7.80664H24.673V7.92969C24.5012 8.18359 24.2453 8.49609 23.9055 8.86719C23.5656 9.23828 23.2707 9.52539 23.0207 9.72852H22.3703V9.58203ZM32.3211 17V12.8457C32.3211 12.3223 32.202 11.9316 31.9637 11.6738C31.7254 11.416 31.3523 11.2871 30.8445 11.2871C30.1727 11.2871 29.6805 11.4688 29.368 11.832C29.0555 12.1953 28.8992 12.7949 28.8992 13.6309V17H27.9266V10.5781H28.7176L28.8758 11.457H28.9227C29.1219 11.1406 29.4012 10.8965 29.7605 10.7246C30.1199 10.5488 30.5203 10.4609 30.9617 10.4609C31.7352 10.4609 32.3172 10.6484 32.7078 11.0234C33.0984 11.3945 33.2938 11.9902 33.2938 12.8105V17H32.3211ZM40.9535 10.5781V11.1934L39.7641 11.334C39.8734 11.4707 39.9711 11.6504 40.057 11.873C40.143 12.0918 40.1859 12.3398 40.1859 12.6172C40.1859 13.2461 39.9711 13.748 39.5414 14.123C39.1117 14.498 38.5219 14.6855 37.7719 14.6855C37.5805 14.6855 37.4008 14.6699 37.2328 14.6387C36.8188 14.8574 36.6117 15.1328 36.6117 15.4648C36.6117 15.6406 36.684 15.7715 36.8285 15.8574C36.973 15.9395 37.2211 15.9805 37.5727 15.9805H38.7094C39.4047 15.9805 39.9379 16.127 40.309 16.4199C40.684 16.7129 40.8715 17.1387 40.8715 17.6973C40.8715 18.4082 40.5863 18.9492 40.016 19.3203C39.4457 19.6953 38.6137 19.8828 37.5199 19.8828C36.6801 19.8828 36.0316 19.7266 35.5746 19.4141C35.1215 19.1016 34.8949 18.6602 34.8949 18.0898C34.8949 17.6992 35.0199 17.3613 35.2699 17.0762C35.5199 16.791 35.8715 16.5977 36.3246 16.4961C36.1605 16.4219 36.0219 16.3066 35.9086 16.1504C35.7992 15.9941 35.7445 15.8125 35.7445 15.6055C35.7445 15.3711 35.807 15.166 35.932 14.9902C36.057 14.8145 36.2543 14.6445 36.5238 14.4805C36.1918 14.3438 35.9203 14.1113 35.7094 13.7832C35.5023 13.4551 35.3988 13.0801 35.3988 12.6582C35.3988 11.9551 35.6098 11.4141 36.0316 11.0352C36.4535 10.6523 37.0512 10.4609 37.8246 10.4609C38.1605 10.4609 38.4633 10.5 38.7328 10.5781H40.9535ZM35.8324 18.0781C35.8324 18.4258 35.9789 18.6895 36.2719 18.8691C36.5648 19.0488 36.9848 19.1387 37.5316 19.1387C38.348 19.1387 38.9516 19.0156 39.3422 18.7695C39.7367 18.5273 39.934 18.1973 39.934 17.7793C39.934 17.4316 39.8266 17.1895 39.6117 17.0527C39.3969 16.9199 38.9926 16.8535 38.3988 16.8535H37.2328C36.7914 16.8535 36.4477 16.959 36.2016 17.1699C35.9555 17.3809 35.8324 17.6836 35.8324 18.0781ZM36.3598 12.6348C36.3598 13.084 36.4867 13.4238 36.7406 13.6543C36.9945 13.8848 37.348 14 37.8012 14C38.7504 14 39.225 13.5391 39.225 12.6172C39.225 11.6523 38.7445 11.1699 37.7836 11.1699C37.3266 11.1699 36.975 11.293 36.7289 11.5391C36.4828 11.7852 36.3598 12.1504 36.3598 12.6348Z" fill="#031A6E"/>
</svg>
