<svg width="36" height="24" viewBox="0 0 36 24" fill="none" xmlns="http://www.w3.org/2000/svg">
<rect width="36" height="24" fill="#A9B0D1"/>
<path d="M11.0703 8.43359H12.1426L9.05469 17H8.07031L5 8.43359H6.05469L8.02344 13.9766C8.25 14.6133 8.42969 15.2324 8.5625 15.834C8.70312 15.2012 8.88672 14.5703 9.11328 13.9414L11.0703 8.43359ZM20.4176 17H19.2809L14.5992 9.81055H14.5523C14.6148 10.6543 14.6461 11.4277 14.6461 12.1309V17H13.7262V8.43359H14.8512L19.5211 15.5938H19.568C19.5602 15.4883 19.5426 15.1504 19.5152 14.5801C19.4879 14.0059 19.4781 13.5957 19.4859 13.3496V8.43359H20.4176V17ZM30.0109 12.6348C30.0109 14.0488 29.6262 15.1309 28.8566 15.8809C28.091 16.627 26.9875 17 25.5461 17H23.173V8.43359H25.798C27.1301 8.43359 28.1652 8.80273 28.9035 9.54102C29.6418 10.2793 30.0109 11.3105 30.0109 12.6348ZM28.9562 12.6699C28.9562 11.5527 28.675 10.7109 28.1125 10.1445C27.5539 9.57812 26.7219 9.29492 25.6164 9.29492H24.1691V16.1387H25.382C26.5695 16.1387 27.4621 15.8477 28.0598 15.2656C28.6574 14.6797 28.9562 13.8145 28.9562 12.6699Z" fill="#031A6E"/>
</svg>
