<svg width="18" height="18" viewBox="0 0 18 18" fill="none" xmlns="http://www.w3.org/2000/svg">
<path d="M8.00001 12.25L11.8917 9.33335C12.1167 9.16669 12.1167 8.83335 11.8917 8.66669L8.00001 5.75002C7.72501 5.54169 7.33334 5.74169 7.33334 6.08335V11.9167C7.33334 12.2584 7.72501 12.4584 8.00001 12.25ZM9.00001 0.666687C4.40001 0.666687 0.666672 4.40002 0.666672 9.00002C0.666672 13.6 4.40001 17.3334 9.00001 17.3334C13.6 17.3334 17.3333 13.6 17.3333 9.00002C17.3333 4.40002 13.6 0.666687 9.00001 0.666687ZM9.00001 15.6667C5.32501 15.6667 2.33334 12.675 2.33334 9.00002C2.33334 5.32502 5.32501 2.33335 9.00001 2.33335C12.675 2.33335 15.6667 5.32502 15.6667 9.00002C15.6667 12.675 12.675 15.6667 9.00001 15.6667Z" fill="#2655A6"/>
</svg>
