<svg width="22" height="22" viewBox="0 0 22 22" fill="none" xmlns="http://www.w3.org/2000/svg">
<circle cx="11" cy="11" r="9.16667" fill="#FFCFC9"/>
<path d="M15.38 6.62693C15.1089 6.35579 14.6709 6.35579 14.3997 6.62693L11 10.0197L7.60032 6.61998C7.32918 6.34884 6.89118 6.34884 6.62004 6.61998C6.3489 6.89112 6.3489 7.32912 6.62004 7.60026L10.0197 11L6.62004 14.3997C6.3489 14.6708 6.3489 15.1088 6.62004 15.3799C6.89118 15.6511 7.32918 15.6511 7.60032 15.3799L11 11.9802L14.3997 15.3799C14.6709 15.6511 15.1089 15.6511 15.38 15.3799C15.6511 15.1088 15.6511 14.6708 15.38 14.3997L11.9803 11L15.38 7.60026C15.6442 7.33607 15.6442 6.89112 15.38 6.62693Z" fill="#E6706C"/>
</svg>
