<svg width="61" height="60" viewBox="0 0 61 60" fill="none" xmlns="http://www.w3.org/2000/svg">
<path d="M30.4689 59.3161C46.6769 59.3161 59.8161 46.177 59.8161 29.969C59.8161 13.761 46.6769 0.621826 30.4689 0.621826C14.2609 0.621826 1.12177 13.761 1.12177 29.969C1.12177 46.177 14.2609 59.3161 30.4689 59.3161Z" fill="#FFA940"/>
<path d="M32.8625 15.8039C32.9 15.4231 32.75 15 32.1125 15H28.8125C28.25 15 28.0625 15.3385 28.1 15.8039L28.925 34.6333C28.9625 35.0987 29.225 35.3103 29.7125 35.3103H31.1375C31.775 35.3103 32 35.1834 32 34.5487L32.8625 15.8039ZM33.5 41.6573C33.5 39.7955 32.1875 38.3145 30.5 38.3145C28.85 38.3145 27.5 39.8378 27.5 41.6573C27.5 43.5614 28.8125 45 30.5 45C32.1875 45 33.5 43.519 33.5 41.6573Z" fill="white"/>
</svg>
