<svg width="40" height="24" viewBox="0 0 40 24" fill="none" xmlns="http://www.w3.org/2000/svg">
<rect width="40" height="24" fill="#A9B0D1"/>
<path d="M8.81445 17H7.81836V9.31836H5.10547V8.43359H11.5273V9.31836H8.81445V17ZM13.9898 10.5781V14.7441C13.9898 15.2676 14.109 15.6582 14.3473 15.916C14.5855 16.1738 14.9586 16.3027 15.4664 16.3027C16.1383 16.3027 16.6285 16.1191 16.9371 15.752C17.2496 15.3848 17.4059 14.7852 17.4059 13.9531V10.5781H18.3785V17H17.5758L17.4352 16.1387H17.3824C17.1832 16.4551 16.9059 16.6973 16.5504 16.8652C16.1988 17.0332 15.7965 17.1172 15.3434 17.1172C14.5621 17.1172 13.9762 16.9316 13.5855 16.5605C13.1988 16.1895 13.0055 15.5957 13.0055 14.7793V10.5781H13.9898ZM24.7961 17L24.6027 16.0859H24.5559C24.2355 16.4883 23.9152 16.7617 23.5949 16.9062C23.2785 17.0469 22.882 17.1172 22.4055 17.1172C21.7688 17.1172 21.2688 16.9531 20.9055 16.625C20.5461 16.2969 20.3664 15.8301 20.3664 15.2246C20.3664 13.9277 21.4035 13.248 23.4777 13.1855L24.5676 13.1504V12.752C24.5676 12.248 24.4582 11.877 24.2395 11.6387C24.0246 11.3965 23.6789 11.2754 23.2023 11.2754C22.6672 11.2754 22.0617 11.4395 21.3859 11.7676L21.0871 11.0234C21.4035 10.8516 21.7492 10.7168 22.1242 10.6191C22.5031 10.5215 22.882 10.4727 23.2609 10.4727C24.0266 10.4727 24.593 10.6426 24.9602 10.9824C25.3313 11.3223 25.5168 11.8672 25.5168 12.6172V17H24.7961ZM22.5988 16.3145C23.2043 16.3145 23.6789 16.1484 24.0227 15.8164C24.3703 15.4844 24.5441 15.0195 24.5441 14.4219V13.8418L23.5715 13.8828C22.798 13.9102 22.2395 14.0312 21.8957 14.2461C21.5559 14.457 21.3859 14.7871 21.3859 15.2363C21.3859 15.5879 21.4914 15.8555 21.7023 16.0391C21.9172 16.2227 22.216 16.3145 22.5988 16.3145ZM24.9367 9.72852H24.3859C24.007 9.47461 23.5949 9.15039 23.1496 8.75586C22.7355 9.13086 22.3234 9.45508 21.9133 9.72852H21.3625V9.59375L21.673 9.24219C22.1105 8.76172 22.4309 8.37109 22.634 8.07031H23.6652C23.923 8.4375 24.3469 8.94531 24.9367 9.59375V9.72852ZM21.8313 8.58594H21.2746C20.8059 8.21875 20.4074 7.81641 20.0793 7.37891V7.25586H21.0871C21.2902 7.67773 21.5383 8.07812 21.8313 8.45703V8.58594ZM32.3211 17V12.8457C32.3211 12.3223 32.202 11.9316 31.9637 11.6738C31.7254 11.416 31.3523 11.2871 30.8445 11.2871C30.1727 11.2871 29.6805 11.4688 29.368 11.832C29.0555 12.1953 28.8992 12.7949 28.8992 13.6309V17H27.9266V10.5781H28.7176L28.8758 11.457H28.9227C29.1219 11.1406 29.4012 10.8965 29.7605 10.7246C30.1199 10.5488 30.5203 10.4609 30.9617 10.4609C31.7352 10.4609 32.3172 10.6484 32.7078 11.0234C33.0984 11.3945 33.2938 11.9902 33.2938 12.8105V17H32.3211Z" fill="#031A6E"/>
</svg>
