<svg width="66" height="66" viewBox="0 0 66 66" fill="none" xmlns="http://www.w3.org/2000/svg">
<rect width="66" height="66" rx="12" fill="#DFF6FF"/>
<path d="M34.7734 17.2617L26.0017 26.0334C25.4159 26.6192 25.0834 27.4267 25.0834 28.2659V44.0834C25.0834 45.825 26.5084 47.25 28.25 47.25H42.5C43.7667 47.25 44.9067 46.49 45.4134 45.3342L50.575 33.285C51.905 30.15 49.6092 26.6667 46.205 26.6667H37.2592L38.7634 19.415C38.9217 18.6234 38.6842 17.8159 38.1142 17.2459C37.18 16.3275 35.6917 16.3275 34.7734 17.2617ZM18.75 47.25C20.4917 47.25 21.9167 45.825 21.9167 44.0834V31.4167C21.9167 29.675 20.4917 28.25 18.75 28.25C17.0084 28.25 15.5834 29.675 15.5834 31.4167V44.0834C15.5834 45.825 17.0084 47.25 18.75 47.25Z" fill="#2655A6"/>
</svg>
