<svg width="66" height="66" viewBox="0 0 66 66" fill="none" xmlns="http://www.w3.org/2000/svg">
<rect width="66" height="66" rx="12" fill="#6CE68C"/>
<path d="M34.7733 17.2617L26.0016 26.0334C25.4158 26.6192 25.0833 27.4267 25.0833 28.2659V44.0834C25.0833 45.825 26.5083 47.25 28.25 47.25H42.5C43.7666 47.25 44.9066 46.49 45.4133 45.3342L50.575 33.285C51.905 30.15 49.6091 26.6667 46.205 26.6667H37.2591L38.7633 19.415C38.9216 18.6234 38.6841 17.8159 38.1141 17.2459C37.18 16.3275 35.6916 16.3275 34.7733 17.2617ZM18.75 47.25C20.4916 47.25 21.9166 45.825 21.9166 44.0834V31.4167C21.9166 29.675 20.4916 28.25 18.75 28.25C17.0083 28.25 15.5833 29.675 15.5833 31.4167V44.0834C15.5833 45.825 17.0083 47.25 18.75 47.25Z" fill="white"/>
</svg>
