<svg width="66" height="66" viewBox="0 0 66 66" fill="none" xmlns="http://www.w3.org/2000/svg">
<rect width="66" height="66" rx="12" fill="#DFF6FF"/>
<path d="M31.2267 48.7383L39.9825 39.9667C40.5683 39.3808 40.9008 38.5733 40.9008 37.7342V21.9167C40.9008 20.175 39.4758 18.75 37.7342 18.75H23.5C22.2333 18.75 21.0933 19.51 20.6025 20.6658L15.4408 32.715C14.095 35.85 16.3908 39.3333 19.795 39.3333H28.7408L27.2367 46.585C27.0783 47.3767 27.3158 48.1842 27.8858 48.7542C28.82 49.6725 30.3083 49.6725 31.2267 48.7383ZM47.25 18.75C45.5083 18.75 44.0833 20.175 44.0833 21.9167V34.5833C44.0833 36.325 45.5083 37.75 47.25 37.75C48.9917 37.75 50.4167 36.325 50.4167 34.5833V21.9167C50.4167 20.175 48.9917 18.75 47.25 18.75Z" fill="#2655A6"/>
</svg>
