<svg width="375" height="104" viewBox="0 0 375 104" fill="none" xmlns="http://www.w3.org/2000/svg">
<rect width="375" height="104" fill="#EFF0FB"/>
<rect x="43" y="70" width="292" height="4" fill="#CCECFB"/>
<rect x="43" y="70" width="214" height="4" fill="#30CD60"/>
<circle cx="36" cy="72" r="12" fill="#30CD60"/>
<path d="M37.8467 77H36.2334V70.5674C36.2334 70.3532 36.2357 70.139 36.2402 69.9248C36.2448 69.7106 36.2493 69.501 36.2539 69.2959C36.263 69.0908 36.2744 68.8949 36.2881 68.708C36.1924 68.8128 36.0739 68.9268 35.9326 69.0498C35.7959 69.1729 35.6501 69.3005 35.4951 69.4326L34.3467 70.3486L33.54 69.3301L36.5068 67.0059H37.8467V77Z" fill="white"/>
<circle cx="112" cy="72" r="12" fill="#30CD60"/>
<path d="M114.891 76H108.123V74.79L110.714 72.165C111.215 71.6546 111.628 71.2148 111.951 70.8457C112.275 70.472 112.514 70.1188 112.669 69.7861C112.828 69.4535 112.908 69.0911 112.908 68.6992C112.908 68.2161 112.769 67.8516 112.491 67.6055C112.213 67.3548 111.846 67.2295 111.391 67.2295C110.958 67.2295 110.557 67.3161 110.188 67.4893C109.823 67.6579 109.445 67.8994 109.053 68.2139L108.171 67.1543C108.449 66.9173 108.745 66.7008 109.06 66.5049C109.379 66.3089 109.734 66.154 110.126 66.04C110.518 65.9215 110.965 65.8623 111.466 65.8623C112.099 65.8623 112.646 65.9762 113.106 66.2041C113.567 66.4274 113.92 66.7396 114.166 67.1406C114.417 67.5417 114.542 68.0088 114.542 68.542C114.542 69.0798 114.435 69.5765 114.221 70.0322C114.007 70.488 113.701 70.9391 113.305 71.3857C112.908 71.8278 112.437 72.3086 111.89 72.8281L110.16 74.5166V74.5918H114.891V76Z" fill="white"/>
<circle cx="188" cy="72" r="12" fill="#30CD60"/>
<path d="M190.508 68.2891C190.508 68.7402 190.417 69.1322 190.234 69.4648C190.052 69.7975 189.801 70.071 189.482 70.2852C189.168 70.4948 188.803 70.6452 188.389 70.7363V70.7842C189.186 70.8844 189.788 71.1351 190.193 71.5361C190.604 71.9372 190.809 72.4681 190.809 73.1289C190.809 73.7077 190.67 74.2249 190.392 74.6807C190.114 75.1318 189.688 75.4873 189.113 75.7471C188.539 76.0068 187.801 76.1367 186.898 76.1367C186.356 76.1367 185.853 76.0934 185.388 76.0068C184.927 75.9202 184.49 75.7812 184.075 75.5898V74.1611C184.499 74.3708 184.95 74.5326 185.429 74.6465C185.907 74.7604 186.361 74.8174 186.789 74.8174C187.623 74.8174 188.218 74.6624 188.573 74.3525C188.929 74.0381 189.106 73.6051 189.106 73.0537C189.106 72.6982 189.013 72.4066 188.826 72.1787C188.644 71.9508 188.359 71.7799 187.972 71.666C187.589 71.5521 187.094 71.4951 186.488 71.4951H185.606V70.2031H186.495C187.074 70.2031 187.539 70.1348 187.89 69.998C188.241 69.8568 188.493 69.6631 188.648 69.417C188.808 69.1709 188.888 68.8838 188.888 68.5557C188.888 68.1273 188.749 67.7946 188.471 67.5576C188.193 67.3161 187.78 67.1953 187.233 67.1953C186.896 67.1953 186.589 67.234 186.311 67.3115C186.037 67.389 185.784 67.487 185.552 67.6055C185.319 67.724 185.098 67.8516 184.889 67.9883L184.116 66.874C184.494 66.5915 184.946 66.3522 185.47 66.1562C185.994 65.9603 186.604 65.8623 187.302 65.8623C188.327 65.8623 189.118 66.0833 189.674 66.5254C190.23 66.9629 190.508 67.5508 190.508 68.2891Z" fill="white"/>
<circle cx="264" cy="72" r="12" fill="#30CD60"/>
<path d="M267.253 73.8057H265.899V76H264.313V73.8057H259.768V72.5889L264.334 65.9785H265.899V72.4727H267.253V73.8057ZM264.313 72.4727V69.9912C264.313 69.7861 264.316 69.5788 264.32 69.3691C264.329 69.1549 264.339 68.9499 264.348 68.7539C264.357 68.5579 264.366 68.3779 264.375 68.2139C264.384 68.0452 264.391 67.9062 264.396 67.7969H264.341C264.254 67.9792 264.159 68.166 264.054 68.3574C263.949 68.5443 263.837 68.7266 263.719 68.9043L261.258 72.4727H264.313Z" fill="white"/>
<circle cx="340" cy="72" r="12" fill="#CCECFB"/>
<path d="M339.521 69.752C340.163 69.752 340.728 69.8682 341.216 70.1006C341.708 70.3285 342.091 70.6657 342.364 71.1123C342.638 71.5544 342.774 72.0967 342.774 72.7393C342.774 73.4411 342.626 74.0472 342.33 74.5576C342.034 75.0635 341.599 75.4531 341.024 75.7266C340.45 76 339.751 76.1367 338.926 76.1367C338.402 76.1367 337.912 76.0911 337.456 76C337.005 75.9089 336.615 75.7721 336.287 75.5898V74.1406C336.629 74.332 337.039 74.4893 337.518 74.6123C337.996 74.7308 338.454 74.79 338.892 74.79C339.356 74.79 339.755 74.7217 340.088 74.585C340.421 74.4482 340.676 74.2386 340.854 73.9561C341.036 73.6735 341.127 73.3158 341.127 72.8828C341.127 72.3086 340.942 71.8665 340.573 71.5566C340.209 71.2422 339.637 71.085 338.857 71.085C338.584 71.085 338.292 71.11 337.982 71.1602C337.677 71.2057 337.422 71.2559 337.217 71.3105L336.513 70.8936L336.889 66.0059H342.084V67.4209H338.304L338.085 69.9092C338.249 69.8727 338.445 69.8385 338.673 69.8066C338.901 69.7702 339.183 69.752 339.521 69.752Z" fill="#5AB5E5"/>
<mask id="path-14-inside-1_1686_12148" fill="white">
<path fill-rule="evenodd" clip-rule="evenodd" d="M182 20C177.582 20 174 23.5817 174 28V40C174 44.4183 177.582 48 182 48H258.005L264.5 54L270.995 48H347C351.418 48 355 44.4183 355 40V28C355 23.5817 351.418 20 347 20H182Z"/>
</mask>
<path fill-rule="evenodd" clip-rule="evenodd" d="M182 20C177.582 20 174 23.5817 174 28V40C174 44.4183 177.582 48 182 48H258.005L264.5 54L270.995 48H347C351.418 48 355 44.4183 355 40V28C355 23.5817 351.418 20 347 20H182Z" fill="white"/>
<path d="M258.005 48L258.683 47.2654L258.396 47H258.005V48ZM264.5 54L263.821 54.7346L264.5 55.3614L265.179 54.7346L264.5 54ZM270.995 48V47H270.604L270.317 47.2654L270.995 48ZM175 28C175 24.134 178.134 21 182 21V19C177.029 19 173 23.0294 173 28H175ZM175 40V28H173V40H175ZM182 47C178.134 47 175 43.866 175 40H173C173 44.9706 177.029 49 182 49V47ZM258.005 47H182V49H258.005V47ZM265.179 53.2654L258.683 47.2654L257.326 48.7346L263.821 54.7346L265.179 53.2654ZM270.317 47.2654L263.821 53.2654L265.179 54.7346L271.674 48.7346L270.317 47.2654ZM347 47H270.995V49H347V47ZM354 40C354 43.866 350.866 47 347 47V49C351.971 49 356 44.9706 356 40H354ZM354 28V40H356V28H354ZM347 21C350.866 21 354 24.134 354 28H356C356 23.0294 351.971 19 347 19V21ZM182 21H347V19H182V21Z" fill="#CCECFB" mask="url(#path-14-inside-1_1686_12148)"/>
<path d="M193.633 38H191.999V33.4883H187.392V38H185.751V28.0059H187.392V32.0938H191.999V28.0059H193.633V38ZM203.313 34.1992C203.313 34.8281 203.231 35.3864 203.067 35.874C202.903 36.3617 202.664 36.7741 202.35 37.1113C202.035 37.444 201.657 37.6992 201.215 37.877C200.773 38.0501 200.274 38.1367 199.718 38.1367C199.198 38.1367 198.722 38.0501 198.289 37.877C197.856 37.6992 197.48 37.444 197.161 37.1113C196.847 36.7741 196.603 36.3617 196.43 35.874C196.257 35.3864 196.17 34.8281 196.17 34.1992C196.17 33.3652 196.313 32.6589 196.601 32.0801C196.892 31.4967 197.307 31.0524 197.845 30.7471C198.382 30.4417 199.023 30.2891 199.766 30.2891C200.463 30.2891 201.078 30.4417 201.611 30.7471C202.145 31.0524 202.562 31.4967 202.862 32.0801C203.163 32.6634 203.313 33.3698 203.313 34.1992ZM197.824 34.1992C197.824 34.7507 197.89 35.2223 198.022 35.6143C198.159 36.0062 198.369 36.307 198.651 36.5166C198.934 36.7217 199.299 36.8242 199.745 36.8242C200.192 36.8242 200.556 36.7217 200.839 36.5166C201.121 36.307 201.329 36.0062 201.461 35.6143C201.593 35.2223 201.659 34.7507 201.659 34.1992C201.659 33.6478 201.593 33.1807 201.461 32.7979C201.329 32.4105 201.121 32.1165 200.839 31.916C200.556 31.7109 200.189 31.6084 199.738 31.6084C199.073 31.6084 198.588 31.8317 198.282 32.2783C197.977 32.7249 197.824 33.3652 197.824 34.1992ZM208.626 30.2891C209.583 30.2891 210.305 30.501 210.793 30.9248C211.285 31.3486 211.531 32.0094 211.531 32.9072V38H210.39L210.082 36.9268H210.027C209.813 37.2002 209.592 37.4258 209.364 37.6035C209.136 37.7812 208.872 37.9134 208.571 38C208.275 38.0911 207.913 38.1367 207.484 38.1367C207.033 38.1367 206.63 38.0547 206.274 37.8906C205.919 37.722 205.639 37.4668 205.434 37.125C205.229 36.7832 205.126 36.3503 205.126 35.8262C205.126 35.0469 205.415 34.4613 205.994 34.0693C206.577 33.6774 207.457 33.4609 208.633 33.4199L209.945 33.3721V32.9756C209.945 32.4515 209.822 32.0778 209.576 31.8545C209.335 31.6312 208.993 31.5195 208.551 31.5195C208.173 31.5195 207.806 31.5742 207.45 31.6836C207.095 31.793 206.748 31.9274 206.411 32.0869L205.892 30.9521C206.261 30.7562 206.68 30.5967 207.149 30.4736C207.623 30.3506 208.116 30.2891 208.626 30.2891ZM209.938 34.3838L208.961 34.418C208.159 34.4453 207.596 34.582 207.272 34.8281C206.949 35.0742 206.787 35.4115 206.787 35.8398C206.787 36.2135 206.899 36.487 207.122 36.6602C207.345 36.8288 207.639 36.9131 208.004 36.9131C208.56 36.9131 209.02 36.7559 209.385 36.4414C209.754 36.1224 209.938 35.6553 209.938 35.04V34.3838ZM208.564 40.666C208.309 40.666 208.093 40.5977 207.915 40.4609C207.742 40.3288 207.655 40.1032 207.655 39.7842C207.655 39.4606 207.742 39.2327 207.915 39.1006C208.093 38.9684 208.309 38.9023 208.564 38.9023C208.815 38.9023 209.029 38.9684 209.207 39.1006C209.385 39.2327 209.474 39.4606 209.474 39.7842C209.474 40.1032 209.385 40.3288 209.207 40.4609C209.029 40.5977 208.815 40.666 208.564 40.666ZM217.097 36.8379C217.306 36.8379 217.514 36.8197 217.719 36.7832C217.924 36.7422 218.111 36.6943 218.279 36.6396V37.8564C218.102 37.9339 217.871 38 217.589 38.0547C217.306 38.1094 217.012 38.1367 216.707 38.1367C216.279 38.1367 215.894 38.0661 215.552 37.9248C215.21 37.779 214.939 37.5306 214.738 37.1797C214.538 36.8288 214.438 36.3434 214.438 35.7236V31.6562H213.405V30.9385L214.513 30.3711L215.039 28.751H216.051V30.4326H218.218V31.6562H216.051V35.7031C216.051 36.0859 216.146 36.3708 216.338 36.5576C216.529 36.7445 216.782 36.8379 217.097 36.8379ZM226.997 38.1367C226.095 38.1367 225.37 37.8177 224.823 37.1797C224.281 36.5371 224.01 35.596 224.01 34.3564C224.01 33.0804 224.285 32.1234 224.837 31.4854C225.393 30.8428 226.124 30.5215 227.031 30.5215C227.41 30.5215 227.742 30.5716 228.029 30.6719C228.316 30.7721 228.565 30.9089 228.774 31.082C228.984 31.2552 229.162 31.4512 229.308 31.6699H229.383C229.355 31.4967 229.328 31.2712 229.301 30.9932C229.273 30.7152 229.26 30.4759 229.26 30.2754V29.6533H226.669V28.5459H229.26V27.3633H230.873V28.5459H231.933V29.6533H230.873V38H229.608L229.328 36.9678H229.253C229.116 37.1865 228.945 37.3848 228.74 37.5625C228.535 37.7357 228.289 37.8747 228.002 37.9795C227.715 38.0843 227.38 38.1367 226.997 38.1367ZM227.455 36.8311C228.139 36.8311 228.622 36.6419 228.904 36.2637C229.187 35.8854 229.33 35.3158 229.335 34.5547V34.3496C229.335 33.5339 229.198 32.9118 228.925 32.4834C228.656 32.055 228.159 31.8408 227.435 31.8408C226.856 31.8408 226.414 32.0618 226.108 32.5039C225.808 32.946 225.657 33.568 225.657 34.3701C225.657 35.1676 225.808 35.7783 226.108 36.2021C226.414 36.6214 226.863 36.8311 227.455 36.8311ZM240.499 34.1992C240.499 34.8281 240.417 35.3864 240.253 35.874C240.089 36.3617 239.85 36.7741 239.535 37.1113C239.221 37.444 238.842 37.6992 238.4 37.877C237.958 38.0501 237.459 38.1367 236.903 38.1367C236.384 38.1367 235.908 38.0501 235.475 37.877C235.042 37.6992 234.666 37.444 234.347 37.1113C234.032 36.7741 233.788 36.3617 233.615 35.874C233.442 35.3864 233.355 34.8281 233.355 34.1992C233.355 33.3652 233.499 32.6589 233.786 32.0801C234.078 31.4967 234.493 31.0524 235.03 30.7471C235.568 30.4417 236.208 30.2891 236.951 30.2891C237.648 30.2891 238.264 30.4417 238.797 30.7471C239.33 31.0524 239.747 31.4967 240.048 32.0801C240.349 32.6634 240.499 33.3698 240.499 34.1992ZM235.01 34.1992C235.01 34.7507 235.076 35.2223 235.208 35.6143C235.345 36.0062 235.554 36.307 235.837 36.5166C236.119 36.7217 236.484 36.8242 236.931 36.8242C237.377 36.8242 237.742 36.7217 238.024 36.5166C238.307 36.307 238.514 36.0062 238.646 35.6143C238.779 35.2223 238.845 34.7507 238.845 34.1992C238.845 33.6478 238.779 33.1807 238.646 32.7979C238.514 32.4105 238.307 32.1165 238.024 31.916C237.742 31.7109 237.375 31.6084 236.924 31.6084C236.258 31.6084 235.773 31.8317 235.468 32.2783C235.162 32.7249 235.01 33.3652 235.01 34.1992ZM236.91 40.666C236.655 40.666 236.438 40.5977 236.261 40.4609C236.088 40.3288 236.001 40.1032 236.001 39.7842C236.001 39.4606 236.088 39.2327 236.261 39.1006C236.438 38.9684 236.655 38.9023 236.91 38.9023C237.161 38.9023 237.375 38.9684 237.553 39.1006C237.73 39.2327 237.819 39.4606 237.819 39.7842C237.819 40.1032 237.73 40.3288 237.553 40.4609C237.375 40.5977 237.161 40.666 236.91 40.666ZM237.847 27.2744C237.97 27.484 238.134 27.7165 238.339 27.9717C238.549 28.2269 238.765 28.4775 238.988 28.7236C239.216 28.9652 239.417 29.1725 239.59 29.3457V29.5166H238.496C238.25 29.3617 237.988 29.1771 237.71 28.9629C237.437 28.7441 237.179 28.5094 236.938 28.2588C236.691 28.5094 236.434 28.7419 236.165 28.9561C235.901 29.1702 235.648 29.3571 235.406 29.5166H234.319V29.3457C234.493 29.168 234.691 28.9583 234.914 28.7168C235.137 28.4753 235.352 28.2269 235.557 27.9717C235.762 27.7165 235.926 27.484 236.049 27.2744H237.847ZM246.789 30.2891C247.641 30.2891 248.304 30.5101 248.778 30.9521C249.257 31.3896 249.496 32.0938 249.496 33.0645V38H247.89V33.3652C247.89 32.7773 247.769 32.3376 247.527 32.0459C247.286 31.7497 246.912 31.6016 246.406 31.6016C245.673 31.6016 245.162 31.8271 244.875 32.2783C244.592 32.7295 244.451 33.3835 244.451 34.2402V38H242.845V30.4326H244.096L244.321 31.458H244.41C244.574 31.1937 244.777 30.9772 245.019 30.8086C245.265 30.6354 245.538 30.5055 245.839 30.4189C246.144 30.3324 246.461 30.2891 246.789 30.2891ZM254.405 41.3633C253.38 41.3633 252.594 41.1787 252.047 40.8096C251.5 40.4404 251.227 39.9232 251.227 39.2578C251.227 38.793 251.372 38.3988 251.664 38.0752C251.956 37.7562 252.373 37.5352 252.915 37.4121C252.71 37.321 252.532 37.1797 252.382 36.9883C252.236 36.7923 252.163 36.5758 252.163 36.3389C252.163 36.0563 252.243 35.8148 252.402 35.6143C252.562 35.4137 252.801 35.2201 253.12 35.0332C252.724 34.8646 252.405 34.5911 252.163 34.2129C251.926 33.8301 251.808 33.3812 251.808 32.8662C251.808 32.3193 251.924 31.8545 252.156 31.4717C252.389 31.0843 252.728 30.7904 253.175 30.5898C253.621 30.3848 254.161 30.2822 254.795 30.2822C254.932 30.2822 255.08 30.2913 255.239 30.3096C255.403 30.3232 255.554 30.3415 255.69 30.3643C255.832 30.3825 255.939 30.403 256.012 30.4258H258.63V31.3213L257.345 31.5605C257.468 31.7337 257.566 31.932 257.639 32.1553C257.712 32.374 257.748 32.6133 257.748 32.873C257.748 33.6569 257.477 34.2744 256.935 34.7256C256.397 35.1722 255.654 35.3955 254.706 35.3955C254.478 35.3864 254.257 35.3682 254.043 35.3408C253.879 35.4411 253.754 35.5527 253.667 35.6758C253.58 35.7943 253.537 35.9287 253.537 36.0791C253.537 36.2021 253.58 36.3024 253.667 36.3799C253.754 36.4528 253.881 36.5075 254.05 36.5439C254.223 36.5804 254.433 36.5986 254.679 36.5986H255.984C256.814 36.5986 257.447 36.7741 257.885 37.125C258.322 37.4759 258.541 37.9909 258.541 38.6699C258.541 39.5312 258.186 40.1943 257.475 40.6592C256.764 41.1286 255.741 41.3633 254.405 41.3633ZM254.467 40.2354C255.027 40.2354 255.499 40.1807 255.882 40.0713C256.265 39.9619 256.554 39.8047 256.75 39.5996C256.946 39.3991 257.044 39.1598 257.044 38.8818C257.044 38.6357 256.982 38.4466 256.859 38.3145C256.736 38.1823 256.552 38.0911 256.306 38.041C256.06 37.9909 255.754 37.9658 255.39 37.9658H254.2C253.904 37.9658 253.642 38.0114 253.414 38.1025C253.186 38.1982 253.008 38.335 252.881 38.5127C252.758 38.6904 252.696 38.9046 252.696 39.1553C252.696 39.5016 252.849 39.7682 253.154 39.9551C253.464 40.1419 253.902 40.2354 254.467 40.2354ZM254.781 34.3428C255.251 34.3428 255.599 34.2152 255.827 33.96C256.055 33.7002 256.169 33.3356 256.169 32.8662C256.169 32.3558 256.05 31.973 255.813 31.7178C255.581 31.4626 255.235 31.335 254.774 31.335C254.323 31.335 253.979 31.4648 253.742 31.7246C253.51 31.9844 253.394 32.3695 253.394 32.8799C253.394 33.3402 253.51 33.7002 253.742 33.96C253.979 34.2152 254.326 34.3428 254.781 34.3428ZM266.254 27.3633V32.5039C266.254 32.7363 266.245 32.9915 266.227 33.2695C266.208 33.543 266.19 33.8005 266.172 34.042H266.206C266.325 33.8825 266.466 33.6956 266.63 33.4814C266.799 33.2673 266.958 33.0804 267.108 32.9209L269.419 30.4326H271.265L268.236 33.6865L271.463 38H269.576L267.156 34.6777L266.254 35.4502V38H264.647V27.3633H266.254ZM274.779 30.4326V38H273.173V30.4326H274.779ZM273.986 27.5342C274.232 27.5342 274.444 27.6003 274.622 27.7324C274.804 27.8646 274.896 28.0924 274.896 28.416C274.896 28.735 274.804 28.9629 274.622 29.0996C274.444 29.2318 274.232 29.2979 273.986 29.2979C273.731 29.2979 273.515 29.2318 273.337 29.0996C273.164 28.9629 273.077 28.735 273.077 28.416C273.077 28.0924 273.164 27.8646 273.337 27.7324C273.515 27.6003 273.731 27.5342 273.986 27.5342ZM281.527 30.2891C282.38 30.2891 283.043 30.5101 283.517 30.9521C283.995 31.3896 284.234 32.0938 284.234 33.0645V38H282.628V33.3652C282.628 32.7773 282.507 32.3376 282.266 32.0459C282.024 31.7497 281.65 31.6016 281.145 31.6016C280.411 31.6016 279.9 31.8271 279.613 32.2783C279.331 32.7295 279.189 33.3835 279.189 34.2402V38H277.583V30.4326H278.834L279.06 31.458H279.148C279.312 31.1937 279.515 30.9772 279.757 30.8086C280.003 30.6354 280.276 30.5055 280.577 30.4189C280.882 30.3324 281.199 30.2891 281.527 30.2891ZM288.59 27.3633V30.0361C288.59 30.3141 288.581 30.5853 288.562 30.8496C288.549 31.1139 288.533 31.319 288.515 31.4648H288.604C288.763 31.2005 288.959 30.984 289.191 30.8154C289.424 30.6423 289.684 30.5124 289.971 30.4258C290.262 30.3392 290.572 30.2959 290.9 30.2959C291.479 30.2959 291.971 30.3939 292.377 30.5898C292.783 30.7812 293.092 31.0798 293.307 31.4854C293.525 31.891 293.635 32.4173 293.635 33.0645V38H292.028V33.3652C292.028 32.7773 291.908 32.3376 291.666 32.0459C291.424 31.7497 291.051 31.6016 290.545 31.6016C290.057 31.6016 289.67 31.7041 289.383 31.9092C289.1 32.1097 288.897 32.4082 288.774 32.8047C288.651 33.1966 288.59 33.6751 288.59 34.2402V38H286.983V27.3633H288.59ZM303.063 38.1367C302.161 38.1367 301.437 37.8086 300.89 37.1523C300.347 36.4915 300.076 35.5186 300.076 34.2334C300.076 32.9346 300.352 31.9525 300.903 31.2871C301.459 30.6217 302.191 30.2891 303.098 30.2891C303.48 30.2891 303.815 30.3415 304.103 30.4463C304.39 30.5465 304.636 30.6833 304.841 30.8564C305.05 31.0296 305.228 31.2233 305.374 31.4375H305.449C305.426 31.2962 305.399 31.0934 305.367 30.8291C305.34 30.5602 305.326 30.3118 305.326 30.084V27.3633H306.939V38H305.682L305.395 36.9678H305.326C305.189 37.1865 305.016 37.3848 304.807 37.5625C304.602 37.7357 304.355 37.8747 304.068 37.9795C303.786 38.0843 303.451 38.1367 303.063 38.1367ZM303.515 36.8311C304.203 36.8311 304.688 36.6328 304.971 36.2363C305.253 35.8398 305.399 35.2451 305.408 34.4521V34.2402C305.408 33.3926 305.271 32.7432 304.998 32.292C304.725 31.8363 304.226 31.6084 303.501 31.6084C302.922 31.6084 302.48 31.8431 302.175 32.3125C301.874 32.7773 301.724 33.4268 301.724 34.2607C301.724 35.0947 301.874 35.7327 302.175 36.1748C302.48 36.6123 302.927 36.8311 303.515 36.8311ZM316.442 34.1992C316.442 34.8281 316.36 35.3864 316.196 35.874C316.032 36.3617 315.793 36.7741 315.479 37.1113C315.164 37.444 314.786 37.6992 314.344 37.877C313.902 38.0501 313.403 38.1367 312.847 38.1367C312.327 38.1367 311.851 38.0501 311.418 37.877C310.985 37.6992 310.609 37.444 310.29 37.1113C309.976 36.7741 309.732 36.3617 309.559 35.874C309.385 35.3864 309.299 34.8281 309.299 34.1992C309.299 33.3652 309.442 32.6589 309.729 32.0801C310.021 31.4967 310.436 31.0524 310.974 30.7471C311.511 30.4417 312.152 30.2891 312.895 30.2891C313.592 30.2891 314.207 30.4417 314.74 30.7471C315.273 31.0524 315.69 31.4967 315.991 32.0801C316.292 32.6634 316.442 33.3698 316.442 34.1992ZM310.953 34.1992C310.953 34.7507 311.019 35.2223 311.151 35.6143C311.288 36.0062 311.498 36.307 311.78 36.5166C312.063 36.7217 312.427 36.8242 312.874 36.8242C313.321 36.8242 313.685 36.7217 313.968 36.5166C314.25 36.307 314.458 36.0062 314.59 35.6143C314.722 35.2223 314.788 34.7507 314.788 34.1992C314.788 33.6478 314.722 33.1807 314.59 32.7979C314.458 32.4105 314.25 32.1165 313.968 31.916C313.685 31.7109 313.318 31.6084 312.867 31.6084C312.202 31.6084 311.716 31.8317 311.411 32.2783C311.106 32.7249 310.953 33.3652 310.953 34.1992ZM321.755 30.2891C322.712 30.2891 323.434 30.501 323.922 30.9248C324.414 31.3486 324.66 32.0094 324.66 32.9072V38H323.519L323.211 36.9268H323.156C322.942 37.2002 322.721 37.4258 322.493 37.6035C322.265 37.7812 322.001 37.9134 321.7 38C321.404 38.0911 321.042 38.1367 320.613 38.1367C320.162 38.1367 319.759 38.0547 319.403 37.8906C319.048 37.722 318.768 37.4668 318.562 37.125C318.357 36.7832 318.255 36.3503 318.255 35.8262C318.255 35.0469 318.544 34.4613 319.123 34.0693C319.706 33.6774 320.586 33.4609 321.762 33.4199L323.074 33.3721V32.9756C323.074 32.4515 322.951 32.0778 322.705 31.8545C322.464 31.6312 322.122 31.5195 321.68 31.5195C321.301 31.5195 320.935 31.5742 320.579 31.6836C320.224 31.793 319.877 31.9274 319.54 32.0869L319.021 30.9521C319.39 30.7562 319.809 30.5967 320.278 30.4736C320.752 30.3506 321.244 30.2891 321.755 30.2891ZM323.067 34.3838L322.09 34.418C321.288 34.4453 320.725 34.582 320.401 34.8281C320.078 35.0742 319.916 35.4115 319.916 35.8398C319.916 36.2135 320.028 36.487 320.251 36.6602C320.474 36.8288 320.768 36.9131 321.133 36.9131C321.689 36.9131 322.149 36.7559 322.514 36.4414C322.883 36.1224 323.067 35.6553 323.067 35.04V34.3838ZM331.354 30.2891C332.206 30.2891 332.869 30.5101 333.343 30.9521C333.821 31.3896 334.061 32.0938 334.061 33.0645V38H332.454V33.3652C332.454 32.7773 332.333 32.3376 332.092 32.0459C331.85 31.7497 331.477 31.6016 330.971 31.6016C330.237 31.6016 329.727 31.8271 329.439 32.2783C329.157 32.7295 329.016 33.3835 329.016 34.2402V38H327.409V30.4326H328.66L328.886 31.458H328.975C329.139 31.1937 329.341 30.9772 329.583 30.8086C329.829 30.6354 330.103 30.5055 330.403 30.4189C330.709 30.3324 331.025 30.2891 331.354 30.2891ZM338.416 27.3633V30.0361C338.416 30.3141 338.407 30.5853 338.389 30.8496C338.375 31.1139 338.359 31.319 338.341 31.4648H338.43C338.589 31.2005 338.785 30.984 339.018 30.8154C339.25 30.6423 339.51 30.5124 339.797 30.4258C340.089 30.3392 340.398 30.2959 340.727 30.2959C341.305 30.2959 341.798 30.3939 342.203 30.5898C342.609 30.7812 342.919 31.0798 343.133 31.4854C343.352 31.891 343.461 32.4173 343.461 33.0645V38H341.854V33.3652C341.854 32.7773 341.734 32.3376 341.492 32.0459C341.251 31.7497 340.877 31.6016 340.371 31.6016C339.883 31.6016 339.496 31.7041 339.209 31.9092C338.926 32.1097 338.724 32.4082 338.601 32.8047C338.478 33.1966 338.416 33.6751 338.416 34.2402V38H336.81V27.3633H338.416Z" fill="#031A6E"/>
</svg>
