<svg width="375" height="104" viewBox="0 0 375 104" fill="none" xmlns="http://www.w3.org/2000/svg">
<rect width="375" height="104" fill="#EFF0FB"/>
<rect x="43" y="70" width="292" height="4" fill="#CCECFB"/>
<rect x="43" y="70" width="288" height="4" fill="#30CD60"/>
<circle cx="36" cy="72" r="12" fill="#30CD60"/>
<path d="M37.8467 77H36.2334V70.5674C36.2334 70.3532 36.2357 70.139 36.2402 69.9248C36.2448 69.7106 36.2493 69.501 36.2539 69.2959C36.263 69.0908 36.2744 68.8949 36.2881 68.708C36.1924 68.8128 36.0739 68.9268 35.9326 69.0498C35.7959 69.1729 35.6501 69.3005 35.4951 69.4326L34.3467 70.3486L33.54 69.3301L36.5068 67.0059H37.8467V77Z" fill="white"/>
<circle cx="112" cy="72" r="12" fill="#30CD60"/>
<path d="M114.891 76H108.123V74.79L110.714 72.165C111.215 71.6546 111.628 71.2148 111.951 70.8457C112.275 70.472 112.514 70.1188 112.669 69.7861C112.828 69.4535 112.908 69.0911 112.908 68.6992C112.908 68.2161 112.769 67.8516 112.491 67.6055C112.213 67.3548 111.846 67.2295 111.391 67.2295C110.958 67.2295 110.557 67.3161 110.188 67.4893C109.823 67.6579 109.445 67.8994 109.053 68.2139L108.171 67.1543C108.449 66.9173 108.745 66.7008 109.06 66.5049C109.379 66.3089 109.734 66.154 110.126 66.04C110.518 65.9215 110.965 65.8623 111.466 65.8623C112.099 65.8623 112.646 65.9762 113.106 66.2041C113.567 66.4274 113.92 66.7396 114.166 67.1406C114.417 67.5417 114.542 68.0088 114.542 68.542C114.542 69.0798 114.435 69.5765 114.221 70.0322C114.007 70.488 113.701 70.9391 113.305 71.3857C112.908 71.8278 112.437 72.3086 111.89 72.8281L110.16 74.5166V74.5918H114.891V76Z" fill="white"/>
<circle cx="188" cy="72" r="12" fill="#30CD60"/>
<path d="M190.508 68.2891C190.508 68.7402 190.417 69.1322 190.234 69.4648C190.052 69.7975 189.801 70.071 189.482 70.2852C189.168 70.4948 188.803 70.6452 188.389 70.7363V70.7842C189.186 70.8844 189.788 71.1351 190.193 71.5361C190.604 71.9372 190.809 72.4681 190.809 73.1289C190.809 73.7077 190.67 74.2249 190.392 74.6807C190.114 75.1318 189.688 75.4873 189.113 75.7471C188.539 76.0068 187.801 76.1367 186.898 76.1367C186.356 76.1367 185.853 76.0934 185.388 76.0068C184.927 75.9202 184.49 75.7812 184.075 75.5898V74.1611C184.499 74.3708 184.95 74.5326 185.429 74.6465C185.907 74.7604 186.361 74.8174 186.789 74.8174C187.623 74.8174 188.218 74.6624 188.573 74.3525C188.929 74.0381 189.106 73.6051 189.106 73.0537C189.106 72.6982 189.013 72.4066 188.826 72.1787C188.644 71.9508 188.359 71.7799 187.972 71.666C187.589 71.5521 187.094 71.4951 186.488 71.4951H185.606V70.2031H186.495C187.074 70.2031 187.539 70.1348 187.89 69.998C188.241 69.8568 188.493 69.6631 188.648 69.417C188.808 69.1709 188.888 68.8838 188.888 68.5557C188.888 68.1273 188.749 67.7946 188.471 67.5576C188.193 67.3161 187.78 67.1953 187.233 67.1953C186.896 67.1953 186.589 67.234 186.311 67.3115C186.037 67.389 185.784 67.487 185.552 67.6055C185.319 67.724 185.098 67.8516 184.889 67.9883L184.116 66.874C184.494 66.5915 184.946 66.3522 185.47 66.1562C185.994 65.9603 186.604 65.8623 187.302 65.8623C188.327 65.8623 189.118 66.0833 189.674 66.5254C190.23 66.9629 190.508 67.5508 190.508 68.2891Z" fill="white"/>
<circle cx="264" cy="72" r="12" fill="#30CD60"/>
<path d="M267.253 73.8057H265.899V76H264.313V73.8057H259.768V72.5889L264.334 65.9785H265.899V72.4727H267.253V73.8057ZM264.313 72.4727V69.9912C264.313 69.7861 264.316 69.5788 264.32 69.3691C264.329 69.1549 264.339 68.9499 264.348 68.7539C264.357 68.5579 264.366 68.3779 264.375 68.2139C264.384 68.0452 264.391 67.9062 264.396 67.7969H264.341C264.254 67.9792 264.159 68.166 264.054 68.3574C263.949 68.5443 263.837 68.7266 263.719 68.9043L261.258 72.4727H264.313Z" fill="white"/>
<circle cx="340" cy="72" r="12" fill="#30CD60"/>
<path d="M339.521 69.752C340.163 69.752 340.728 69.8682 341.216 70.1006C341.708 70.3285 342.091 70.6657 342.364 71.1123C342.638 71.5544 342.774 72.0967 342.774 72.7393C342.774 73.4411 342.626 74.0472 342.33 74.5576C342.034 75.0635 341.599 75.4531 341.024 75.7266C340.45 76 339.751 76.1367 338.926 76.1367C338.402 76.1367 337.912 76.0911 337.456 76C337.005 75.9089 336.615 75.7721 336.287 75.5898V74.1406C336.629 74.332 337.039 74.4893 337.518 74.6123C337.996 74.7308 338.454 74.79 338.892 74.79C339.356 74.79 339.755 74.7217 340.088 74.585C340.421 74.4482 340.676 74.2386 340.854 73.9561C341.036 73.6735 341.127 73.3158 341.127 72.8828C341.127 72.3086 340.942 71.8665 340.573 71.5566C340.209 71.2422 339.637 71.085 338.857 71.085C338.584 71.085 338.292 71.11 337.982 71.1602C337.677 71.2057 337.422 71.2559 337.217 71.3105L336.513 70.8936L336.889 66.0059H342.084V67.4209H338.304L338.085 69.9092C338.249 69.8727 338.445 69.8385 338.673 69.8066C338.901 69.7702 339.183 69.752 339.521 69.752Z" fill="white"/>
<path d="M340 54V28C340 23.5817 336.418 20 332 20H202C197.582 20 194 23.5817 194 28V39.6569C194 44.0751 197.582 47.6569 202 47.6569H331.796C334.728 47.6569 337.425 49.2611 338.825 51.8376L340 54Z" fill="white" stroke="#CCECFB" stroke-linejoin="round"/>
<path d="M213.427 32.9072C213.427 34.0329 213.217 34.974 212.798 35.7305C212.379 36.4824 211.77 37.0498 210.973 37.4326C210.175 37.8109 209.214 38 208.088 38H205.312V28.0059H208.389C209.423 28.0059 210.316 28.1927 211.068 28.5664C211.82 28.9355 212.401 29.4847 212.812 30.2139C213.222 30.9385 213.427 31.8363 213.427 32.9072ZM211.718 32.9551C211.718 32.1348 211.588 31.4603 211.328 30.9316C211.073 30.403 210.695 30.0111 210.193 29.7559C209.697 29.4961 209.084 29.3662 208.354 29.3662H206.953V36.626H208.115C209.323 36.626 210.225 36.3184 210.822 35.7031C211.419 35.0879 211.718 34.1719 211.718 32.9551ZM225.179 29.2773L225.274 29.4277C225.211 29.7832 225.122 30.1204 225.008 30.4395C224.894 30.7539 224.734 31.0387 224.529 31.2939C224.324 31.5492 224.058 31.7633 223.729 31.9365C223.406 32.1051 223 32.2214 222.513 32.2852V38H221.248L221.029 36.9814H220.934C220.774 37.2412 220.571 37.4577 220.325 37.6309C220.084 37.7995 219.812 37.9248 219.512 38.0068C219.215 38.0934 218.903 38.1367 218.575 38.1367C218.001 38.1367 217.511 38.041 217.105 37.8496C216.7 37.6536 216.39 37.3529 216.176 36.9473C215.962 36.5417 215.854 36.0176 215.854 35.375V30.4395H217.468V35.0742C217.468 35.6621 217.586 36.1019 217.823 36.3936C218.065 36.6852 218.438 36.8311 218.944 36.8311C219.678 36.8311 220.186 36.6055 220.469 36.1543C220.756 35.7031 220.899 35.0514 220.899 34.1992V30.4395H222.513V31.2529C222.777 31.1891 222.984 31.0684 223.135 30.8906C223.285 30.7083 223.392 30.4805 223.456 30.207C223.52 29.929 223.552 29.6191 223.552 29.2773H225.179ZM219.04 40.666C218.785 40.666 218.568 40.5977 218.391 40.4609C218.217 40.3288 218.131 40.1032 218.131 39.7842C218.131 39.4606 218.217 39.2327 218.391 39.1006C218.568 38.9684 218.785 38.9023 219.04 38.9023C219.291 38.9023 219.505 38.9684 219.683 39.1006C219.86 39.2327 219.949 39.4606 219.949 39.7842C219.949 40.1032 219.86 40.3288 219.683 40.4609C219.505 40.5977 219.291 40.666 219.04 40.666ZM233.336 36.8379C233.546 36.8379 233.753 36.8197 233.958 36.7832C234.163 36.7422 234.35 36.6943 234.519 36.6396V37.8564C234.341 37.9339 234.111 38 233.828 38.0547C233.546 38.1094 233.252 38.1367 232.946 38.1367C232.518 38.1367 232.133 38.0661 231.791 37.9248C231.449 37.779 231.178 37.5306 230.978 37.1797C230.777 36.8288 230.677 36.3434 230.677 35.7236V31.6562H229.645V30.9385L230.752 30.3711L231.278 28.751H232.29V30.4326H234.457V31.6562H232.29V35.7031C232.29 36.0859 232.386 36.3708 232.577 36.5576C232.769 36.7445 233.021 36.8379 233.336 36.8379ZM243.256 34.1992C243.256 34.8281 243.174 35.3864 243.01 35.874C242.846 36.3617 242.606 36.7741 242.292 37.1113C241.978 37.444 241.599 37.6992 241.157 37.877C240.715 38.0501 240.216 38.1367 239.66 38.1367C239.141 38.1367 238.664 38.0501 238.231 37.877C237.799 37.6992 237.423 37.444 237.104 37.1113C236.789 36.7741 236.545 36.3617 236.372 35.874C236.199 35.3864 236.112 34.8281 236.112 34.1992C236.112 33.3652 236.256 32.6589 236.543 32.0801C236.835 31.4967 237.249 31.0524 237.787 30.7471C238.325 30.4417 238.965 30.2891 239.708 30.2891C240.405 30.2891 241.021 30.4417 241.554 30.7471C242.087 31.0524 242.504 31.4967 242.805 32.0801C243.105 32.6634 243.256 33.3698 243.256 34.1992ZM237.767 34.1992C237.767 34.7507 237.833 35.2223 237.965 35.6143C238.102 36.0062 238.311 36.307 238.594 36.5166C238.876 36.7217 239.241 36.8242 239.688 36.8242C240.134 36.8242 240.499 36.7217 240.781 36.5166C241.064 36.307 241.271 36.0062 241.403 35.6143C241.535 35.2223 241.602 34.7507 241.602 34.1992C241.602 33.6478 241.535 33.1807 241.403 32.7979C241.271 32.4105 241.064 32.1165 240.781 31.916C240.499 31.7109 240.132 31.6084 239.681 31.6084C239.015 31.6084 238.53 31.8317 238.225 32.2783C237.919 32.7249 237.767 33.3652 237.767 34.1992ZM248.568 30.2891C249.525 30.2891 250.248 30.501 250.735 30.9248C251.228 31.3486 251.474 32.0094 251.474 32.9072V38H250.332L250.024 36.9268H249.97C249.756 37.2002 249.535 37.4258 249.307 37.6035C249.079 37.7812 248.814 37.9134 248.514 38C248.217 38.0911 247.855 38.1367 247.427 38.1367C246.976 38.1367 246.572 38.0547 246.217 37.8906C245.861 37.722 245.581 37.4668 245.376 37.125C245.171 36.7832 245.068 36.3503 245.068 35.8262C245.068 35.0469 245.358 34.4613 245.937 34.0693C246.52 33.6774 247.399 33.4609 248.575 33.4199L249.888 33.3721V32.9756C249.888 32.4515 249.765 32.0778 249.519 31.8545C249.277 31.6312 248.935 31.5195 248.493 31.5195C248.115 31.5195 247.748 31.5742 247.393 31.6836C247.037 31.793 246.691 31.9274 246.354 32.0869L245.834 30.9521C246.203 30.7562 246.622 30.5967 247.092 30.4736C247.566 30.3506 248.058 30.2891 248.568 30.2891ZM249.881 34.3838L248.903 34.418C248.101 34.4453 247.538 34.582 247.215 34.8281C246.891 35.0742 246.729 35.4115 246.729 35.8398C246.729 36.2135 246.841 36.487 247.064 36.6602C247.288 36.8288 247.582 36.9131 247.946 36.9131C248.502 36.9131 248.963 36.7559 249.327 36.4414C249.696 36.1224 249.881 35.6553 249.881 35.04V34.3838ZM250.845 27.2744V27.4111C250.735 27.5433 250.587 27.7028 250.4 27.8896C250.214 28.0719 250.011 28.2656 249.792 28.4707C249.573 28.6712 249.357 28.8649 249.143 29.0518C248.928 29.234 248.735 29.389 248.562 29.5166H247.488V29.3389C247.639 29.1657 247.805 28.9583 247.987 28.7168C248.174 28.4753 248.356 28.2269 248.534 27.9717C248.716 27.7165 248.869 27.484 248.992 27.2744H250.845ZM258.167 30.2891C259.019 30.2891 259.682 30.5101 260.156 30.9521C260.635 31.3896 260.874 32.0938 260.874 33.0645V38H259.268V33.3652C259.268 32.7773 259.147 32.3376 258.905 32.0459C258.664 31.7497 258.29 31.6016 257.784 31.6016C257.05 31.6016 256.54 31.8271 256.253 32.2783C255.97 32.7295 255.829 33.3835 255.829 34.2402V38H254.223V30.4326H255.474L255.699 31.458H255.788C255.952 31.1937 256.155 30.9772 256.396 30.8086C256.643 30.6354 256.916 30.5055 257.217 30.4189C257.522 30.3324 257.839 30.2891 258.167 30.2891ZM270.576 36.8379C270.786 36.8379 270.993 36.8197 271.198 36.7832C271.403 36.7422 271.59 36.6943 271.759 36.6396V37.8564C271.581 37.9339 271.351 38 271.068 38.0547C270.786 38.1094 270.492 38.1367 270.187 38.1367C269.758 38.1367 269.373 38.0661 269.031 37.9248C268.689 37.779 268.418 37.5306 268.218 37.1797C268.017 36.8288 267.917 36.3434 267.917 35.7236V31.6562H266.885V30.9385L267.992 30.3711L268.519 28.751H269.53V30.4326H271.697V31.6562H269.53V35.7031C269.53 36.0859 269.626 36.3708 269.817 36.5576C270.009 36.7445 270.262 36.8379 270.576 36.8379ZM276.764 30.2891C277.721 30.2891 278.443 30.501 278.931 30.9248C279.423 31.3486 279.669 32.0094 279.669 32.9072V38H278.527L278.22 36.9268H278.165C277.951 37.2002 277.73 37.4258 277.502 37.6035C277.274 37.7812 277.01 37.9134 276.709 38C276.413 38.0911 276.05 38.1367 275.622 38.1367C275.171 38.1367 274.768 38.0547 274.412 37.8906C274.057 37.722 273.776 37.4668 273.571 37.125C273.366 36.7832 273.264 36.3503 273.264 35.8262C273.264 35.0469 273.553 34.4613 274.132 34.0693C274.715 33.6774 275.595 33.4609 276.771 33.4199L278.083 33.3721V32.9756C278.083 32.4515 277.96 32.0778 277.714 31.8545C277.472 31.6312 277.131 31.5195 276.688 31.5195C276.31 31.5195 275.943 31.5742 275.588 31.6836C275.232 31.793 274.886 31.9274 274.549 32.0869L274.029 30.9521C274.398 30.7562 274.818 30.5967 275.287 30.4736C275.761 30.3506 276.253 30.2891 276.764 30.2891ZM278.076 34.3838L277.099 34.418C276.297 34.4453 275.734 34.582 275.41 34.8281C275.087 35.0742 274.925 35.4115 274.925 35.8398C274.925 36.2135 275.036 36.487 275.26 36.6602C275.483 36.8288 275.777 36.9131 276.142 36.9131C276.698 36.9131 277.158 36.7559 277.522 36.4414C277.892 36.1224 278.076 35.6553 278.076 35.04V34.3838ZM276.306 27.2744C276.429 27.484 276.579 27.7165 276.757 27.9717C276.935 28.2269 277.119 28.4753 277.311 28.7168C277.502 28.9583 277.671 29.1657 277.816 29.3389V29.5166H276.743C276.57 29.389 276.376 29.234 276.162 29.0518C275.948 28.8649 275.729 28.6712 275.506 28.4707C275.287 28.2656 275.084 28.0719 274.897 27.8896C274.715 27.7028 274.569 27.5433 274.46 27.4111V27.2744H276.306ZM284.024 30.4326V38H282.418V30.4326H284.024ZM283.231 27.5342C283.478 27.5342 283.689 27.6003 283.867 27.7324C284.049 27.8646 284.141 28.0924 284.141 28.416C284.141 28.735 284.049 28.9629 283.867 29.0996C283.689 29.2318 283.478 29.2979 283.231 29.2979C282.976 29.2979 282.76 29.2318 282.582 29.0996C282.409 28.9629 282.322 28.735 282.322 28.416C282.322 28.0924 282.409 27.8646 282.582 27.7324C282.76 27.6003 282.976 27.5342 283.231 27.5342ZM294.014 38.1367C293.298 38.1367 292.678 37.9977 292.154 37.7197C291.63 37.4417 291.227 37.0156 290.944 36.4414C290.662 35.8672 290.521 35.138 290.521 34.2539C290.521 33.3333 290.675 32.5814 290.985 31.998C291.295 31.4147 291.724 30.984 292.271 30.7061C292.822 30.4281 293.453 30.2891 294.164 30.2891C294.615 30.2891 295.023 30.3346 295.388 30.4258C295.757 30.5124 296.069 30.6195 296.324 30.7471L295.846 32.0322C295.568 31.9183 295.283 31.8226 294.991 31.7451C294.7 31.6676 294.419 31.6289 294.15 31.6289C293.708 31.6289 293.339 31.7269 293.043 31.9229C292.751 32.1188 292.533 32.4105 292.387 32.7979C292.245 33.1852 292.175 33.666 292.175 34.2402C292.175 34.7962 292.248 35.2656 292.394 35.6484C292.539 36.0267 292.756 36.3138 293.043 36.5098C293.33 36.7012 293.683 36.7969 294.103 36.7969C294.517 36.7969 294.889 36.7467 295.217 36.6465C295.545 36.5462 295.855 36.4163 296.146 36.2568V37.6514C295.859 37.8154 295.552 37.9362 295.224 38.0137C294.896 38.0957 294.492 38.1367 294.014 38.1367ZM300.03 27.3633V30.0361C300.03 30.3141 300.021 30.5853 300.003 30.8496C299.989 31.1139 299.973 31.319 299.955 31.4648H300.044C300.203 31.2005 300.399 30.984 300.632 30.8154C300.864 30.6423 301.124 30.5124 301.411 30.4258C301.703 30.3392 302.013 30.2959 302.341 30.2959C302.92 30.2959 303.412 30.3939 303.817 30.5898C304.223 30.7812 304.533 31.0798 304.747 31.4854C304.966 31.891 305.075 32.4173 305.075 33.0645V38H303.469V33.3652C303.469 32.7773 303.348 32.3376 303.106 32.0459C302.865 31.7497 302.491 31.6016 301.985 31.6016C301.498 31.6016 301.11 31.7041 300.823 31.9092C300.541 32.1097 300.338 32.4082 300.215 32.8047C300.092 33.1966 300.03 33.6751 300.03 34.2402V38H298.424V27.3633H300.03ZM309.431 38H307.824V30.4326H309.431V38ZM310.962 27.2744V27.4111C310.853 27.5433 310.704 27.7028 310.518 27.8896C310.331 28.0719 310.128 28.2656 309.909 28.4707C309.69 28.6712 309.474 28.8649 309.26 29.0518C309.046 29.234 308.852 29.389 308.679 29.5166H307.605V29.3389C307.756 29.1657 307.922 28.9583 308.104 28.7168C308.291 28.4753 308.474 28.2269 308.651 27.9717C308.834 27.7165 308.986 27.484 309.109 27.2744H310.962ZM316.179 30.2891C317.031 30.2891 317.694 30.5101 318.168 30.9521C318.646 31.3896 318.886 32.0938 318.886 33.0645V38H317.279V33.3652C317.279 32.7773 317.159 32.3376 316.917 32.0459C316.675 31.7497 316.302 31.6016 315.796 31.6016C315.062 31.6016 314.552 31.8271 314.265 32.2783C313.982 32.7295 313.841 33.3835 313.841 34.2402V38H312.234V30.4326H313.485L313.711 31.458H313.8C313.964 31.1937 314.167 30.9772 314.408 30.8086C314.654 30.6354 314.928 30.5055 315.229 30.4189C315.534 30.3324 315.851 30.2891 316.179 30.2891ZM323.241 27.3633V30.0361C323.241 30.3141 323.232 30.5853 323.214 30.8496C323.2 31.1139 323.184 31.319 323.166 31.4648H323.255C323.414 31.2005 323.61 30.984 323.843 30.8154C324.075 30.6423 324.335 30.5124 324.622 30.4258C324.914 30.3392 325.224 30.2959 325.552 30.2959C326.131 30.2959 326.623 30.3939 327.028 30.5898C327.434 30.7812 327.744 31.0798 327.958 31.4854C328.177 31.891 328.286 32.4173 328.286 33.0645V38H326.68V33.3652C326.68 32.7773 326.559 32.3376 326.317 32.0459C326.076 31.7497 325.702 31.6016 325.196 31.6016C324.709 31.6016 324.321 31.7041 324.034 31.9092C323.752 32.1097 323.549 32.4082 323.426 32.8047C323.303 33.1966 323.241 33.6751 323.241 34.2402V38H321.635V27.3633H323.241Z" fill="#031A6E"/>
</svg>
