<svg width="375" height="104" viewBox="0 0 375 104" fill="none" xmlns="http://www.w3.org/2000/svg">
<rect width="375" height="104" fill="#EFF0FB"/>
<rect x="43" y="70" width="292" height="4" fill="#CCECFB"/>
<rect x="43" y="70" width="199" height="4" fill="#30CD60"/>
<circle cx="36" cy="72" r="12" fill="#30CD60"/>
<path d="M37.8467 77H36.2334V70.5674C36.2334 70.3532 36.2357 70.139 36.2402 69.9248C36.2448 69.7106 36.2493 69.501 36.2539 69.2959C36.263 69.0908 36.2744 68.8949 36.2881 68.708C36.1924 68.8128 36.0739 68.9268 35.9326 69.0498C35.7959 69.1729 35.6501 69.3005 35.4951 69.4326L34.3467 70.3486L33.54 69.3301L36.5068 67.0059H37.8467V77Z" fill="white"/>
<circle cx="137" cy="72" r="12" fill="#30CD60"/>
<path d="M139.891 76H133.123V74.79L135.714 72.165C136.215 71.6546 136.628 71.2148 136.951 70.8457C137.275 70.472 137.514 70.1188 137.669 69.7861C137.828 69.4535 137.908 69.0911 137.908 68.6992C137.908 68.2161 137.769 67.8516 137.491 67.6055C137.213 67.3548 136.846 67.2295 136.391 67.2295C135.958 67.2295 135.557 67.3161 135.188 67.4893C134.823 67.6579 134.445 67.8994 134.053 68.2139L133.171 67.1543C133.449 66.9173 133.745 66.7008 134.06 66.5049C134.379 66.3089 134.734 66.154 135.126 66.04C135.518 65.9215 135.965 65.8623 136.466 65.8623C137.099 65.8623 137.646 65.9762 138.106 66.2041C138.567 66.4274 138.92 66.7396 139.166 67.1406C139.417 67.5417 139.542 68.0088 139.542 68.542C139.542 69.0798 139.435 69.5765 139.221 70.0322C139.007 70.488 138.701 70.9391 138.305 71.3857C137.908 71.8278 137.437 72.3086 136.89 72.8281L135.16 74.5166V74.5918H139.891V76Z" fill="white"/>
<circle cx="238" cy="72" r="12" fill="#30CD60"/>
<path d="M240.508 68.2891C240.508 68.7402 240.417 69.1322 240.234 69.4648C240.052 69.7975 239.801 70.071 239.482 70.2852C239.168 70.4948 238.803 70.6452 238.389 70.7363V70.7842C239.186 70.8844 239.788 71.1351 240.193 71.5361C240.604 71.9372 240.809 72.4681 240.809 73.1289C240.809 73.7077 240.67 74.2249 240.392 74.6807C240.114 75.1318 239.688 75.4873 239.113 75.7471C238.539 76.0068 237.801 76.1367 236.898 76.1367C236.356 76.1367 235.853 76.0934 235.388 76.0068C234.927 75.9202 234.49 75.7812 234.075 75.5898V74.1611C234.499 74.3708 234.95 74.5326 235.429 74.6465C235.907 74.7604 236.361 74.8174 236.789 74.8174C237.623 74.8174 238.218 74.6624 238.573 74.3525C238.929 74.0381 239.106 73.6051 239.106 73.0537C239.106 72.6982 239.013 72.4066 238.826 72.1787C238.644 71.9508 238.359 71.7799 237.972 71.666C237.589 71.5521 237.094 71.4951 236.488 71.4951H235.606V70.2031H236.495C237.074 70.2031 237.539 70.1348 237.89 69.998C238.241 69.8568 238.493 69.6631 238.648 69.417C238.808 69.1709 238.888 68.8838 238.888 68.5557C238.888 68.1273 238.749 67.7946 238.471 67.5576C238.193 67.3161 237.78 67.1953 237.233 67.1953C236.896 67.1953 236.589 67.234 236.311 67.3115C236.037 67.389 235.784 67.487 235.552 67.6055C235.319 67.724 235.098 67.8516 234.889 67.9883L234.116 66.874C234.494 66.5915 234.946 66.3522 235.47 66.1562C235.994 65.9603 236.604 65.8623 237.302 65.8623C238.327 65.8623 239.118 66.0833 239.674 66.5254C240.23 66.9629 240.508 67.5508 240.508 68.2891Z" fill="white"/>
<circle cx="339" cy="72" r="12" fill="#CCECFB"/>
<path d="M342.253 73.8057H340.899V76H339.313V73.8057H334.768V72.5889L339.334 65.9785H340.899V72.4727H342.253V73.8057ZM339.313 72.4727V69.9912C339.313 69.7861 339.316 69.5788 339.32 69.3691C339.329 69.1549 339.339 68.9499 339.348 68.7539C339.357 68.5579 339.366 68.3779 339.375 68.2139C339.384 68.0452 339.391 67.9062 339.396 67.7969H339.341C339.254 67.9792 339.159 68.166 339.054 68.3574C338.949 68.5443 338.837 68.7266 338.719 68.9043L336.258 72.4727H339.313Z" fill="#5AB5E5"/>
<mask id="path-12-inside-1_1686_12305" fill="white">
<path fill-rule="evenodd" clip-rule="evenodd" d="M169 20C164.582 20 161 23.5817 161 28V40C161 44.4183 164.582 48 169 48H231.005L237.5 54L243.995 48H306C310.418 48 314 44.4183 314 40V28C314 23.5817 310.418 20 306 20H169Z"/>
</mask>
<path fill-rule="evenodd" clip-rule="evenodd" d="M169 20C164.582 20 161 23.5817 161 28V40C161 44.4183 164.582 48 169 48H231.005L237.5 54L243.995 48H306C310.418 48 314 44.4183 314 40V28C314 23.5817 310.418 20 306 20H169Z" fill="white"/>
<path d="M231.005 48L231.683 47.2654L231.396 47H231.005V48ZM237.5 54L236.821 54.7346L237.5 55.3614L238.179 54.7346L237.5 54ZM243.995 48V47H243.604L243.317 47.2654L243.995 48ZM162 28C162 24.134 165.134 21 169 21V19C164.029 19 160 23.0294 160 28H162ZM162 40V28H160V40H162ZM169 47C165.134 47 162 43.866 162 40H160C160 44.9706 164.029 49 169 49V47ZM231.005 47H169V49H231.005V47ZM238.179 53.2654L231.683 47.2654L230.326 48.7346L236.821 54.7346L238.179 53.2654ZM243.317 47.2654L236.821 53.2654L238.179 54.7346L244.674 48.7346L243.317 47.2654ZM306 47H243.995V49H306V47ZM313 40C313 43.866 309.866 47 306 47V49C310.971 49 315 44.9706 315 40H313ZM313 28V40H315V28H313ZM306 21C309.866 21 313 24.134 313 28H315C315 23.0294 310.971 19 306 19V21ZM169 21H306V19H169V21Z" fill="#CCECFB" mask="url(#path-12-inside-1_1686_12305)"/>
<path d="M172.042 29.2568C171.563 29.2568 171.135 29.3434 170.757 29.5166C170.383 29.6898 170.066 29.9404 169.807 30.2686C169.547 30.5921 169.349 30.9863 169.212 31.4512C169.075 31.9115 169.007 32.431 169.007 33.0098C169.007 33.7845 169.116 34.4521 169.335 35.0127C169.554 35.5687 169.886 35.9971 170.333 36.2979C170.78 36.5941 171.345 36.7422 172.028 36.7422C172.452 36.7422 172.865 36.7012 173.266 36.6191C173.667 36.5371 174.081 36.4255 174.51 36.2842V37.6787C174.104 37.8382 173.694 37.9544 173.279 38.0273C172.865 38.1003 172.386 38.1367 171.844 38.1367C170.823 38.1367 169.975 37.9248 169.301 37.501C168.631 37.0771 168.13 36.4801 167.797 35.71C167.469 34.9398 167.305 34.0374 167.305 33.0029C167.305 32.2464 167.41 31.5537 167.619 30.9248C167.829 30.2959 168.134 29.7536 168.535 29.2979C168.936 28.8376 169.431 28.4844 170.019 28.2383C170.611 27.9876 171.288 27.8623 172.049 27.8623C172.55 27.8623 173.042 27.9193 173.525 28.0332C174.013 28.1426 174.464 28.2998 174.879 28.5049L174.305 29.8584C173.958 29.6943 173.596 29.5531 173.218 29.4346C172.84 29.3161 172.448 29.2568 172.042 29.2568ZM179.959 30.2891C180.916 30.2891 181.638 30.501 182.126 30.9248C182.618 31.3486 182.864 32.0094 182.864 32.9072V38H181.723L181.415 36.9268H181.36C181.146 37.2002 180.925 37.4258 180.697 37.6035C180.469 37.7812 180.205 37.9134 179.904 38C179.608 38.0911 179.246 38.1367 178.817 38.1367C178.366 38.1367 177.963 38.0547 177.607 37.8906C177.252 37.722 176.972 37.4668 176.767 37.125C176.562 36.7832 176.459 36.3503 176.459 35.8262C176.459 35.0469 176.748 34.4613 177.327 34.0693C177.91 33.6774 178.79 33.4609 179.966 33.4199L181.278 33.3721V32.9756C181.278 32.4515 181.155 32.0778 180.909 31.8545C180.668 31.6312 180.326 31.5195 179.884 31.5195C179.506 31.5195 179.139 31.5742 178.783 31.6836C178.428 31.793 178.081 31.9274 177.744 32.0869L177.225 30.9521C177.594 30.7562 178.013 30.5967 178.482 30.4736C178.956 30.3506 179.449 30.2891 179.959 30.2891ZM181.271 34.3838L180.294 34.418C179.492 34.4453 178.929 34.582 178.605 34.8281C178.282 35.0742 178.12 35.4115 178.12 35.8398C178.12 36.2135 178.232 36.487 178.455 36.6602C178.678 36.8288 178.972 36.9131 179.337 36.9131C179.893 36.9131 180.353 36.7559 180.718 36.4414C181.087 36.1224 181.271 35.6553 181.271 35.04V34.3838ZM182.235 27.2744V27.4111C182.126 27.5433 181.978 27.7028 181.791 27.8896C181.604 28.0719 181.401 28.2656 181.183 28.4707C180.964 28.6712 180.747 28.8649 180.533 29.0518C180.319 29.234 180.125 29.389 179.952 29.5166H178.879V29.3389C179.029 29.1657 179.196 28.9583 179.378 28.7168C179.565 28.4753 179.747 28.2269 179.925 27.9717C180.107 27.7165 180.26 27.484 180.383 27.2744H182.235ZM188.662 38.1367C187.947 38.1367 187.327 37.9977 186.803 37.7197C186.279 37.4417 185.875 37.0156 185.593 36.4414C185.31 35.8672 185.169 35.138 185.169 34.2539C185.169 33.3333 185.324 32.5814 185.634 31.998C185.944 31.4147 186.372 30.984 186.919 30.7061C187.47 30.4281 188.102 30.2891 188.812 30.2891C189.264 30.2891 189.672 30.3346 190.036 30.4258C190.405 30.5124 190.717 30.6195 190.973 30.7471L190.494 32.0322C190.216 31.9183 189.931 31.8226 189.64 31.7451C189.348 31.6676 189.068 31.6289 188.799 31.6289C188.357 31.6289 187.988 31.7269 187.691 31.9229C187.4 32.1188 187.181 32.4105 187.035 32.7979C186.894 33.1852 186.823 33.666 186.823 34.2402C186.823 34.7962 186.896 35.2656 187.042 35.6484C187.188 36.0267 187.404 36.3138 187.691 36.5098C187.979 36.7012 188.332 36.7969 188.751 36.7969C189.166 36.7969 189.537 36.7467 189.865 36.6465C190.193 36.5462 190.503 36.4163 190.795 36.2568V37.6514C190.508 37.8154 190.2 37.9362 189.872 38.0137C189.544 38.0957 189.141 38.1367 188.662 38.1367ZM194.679 27.3633V30.0361C194.679 30.3141 194.67 30.5853 194.651 30.8496C194.638 31.1139 194.622 31.319 194.604 31.4648H194.692C194.852 31.2005 195.048 30.984 195.28 30.8154C195.513 30.6423 195.772 30.5124 196.06 30.4258C196.351 30.3392 196.661 30.2959 196.989 30.2959C197.568 30.2959 198.06 30.3939 198.466 30.5898C198.871 30.7812 199.181 31.0798 199.396 31.4854C199.614 31.891 199.724 32.4173 199.724 33.0645V38H198.117V33.3652C198.117 32.7773 197.996 32.3376 197.755 32.0459C197.513 31.7497 197.14 31.6016 196.634 31.6016C196.146 31.6016 195.759 31.7041 195.472 31.9092C195.189 32.1097 194.986 32.4082 194.863 32.8047C194.74 33.1966 194.679 33.6751 194.679 34.2402V38H193.072V27.3633H194.679ZM209.426 36.8379C209.635 36.8379 209.843 36.8197 210.048 36.7832C210.253 36.7422 210.44 36.6943 210.608 36.6396V37.8564C210.431 37.9339 210.201 38 209.918 38.0547C209.635 38.1094 209.341 38.1367 209.036 38.1367C208.608 38.1367 208.223 38.0661 207.881 37.9248C207.539 37.779 207.268 37.5306 207.067 37.1797C206.867 36.8288 206.767 36.3434 206.767 35.7236V31.6562H205.734V30.9385L206.842 30.3711L207.368 28.751H208.38V30.4326H210.547V31.6562H208.38V35.7031C208.38 36.0859 208.476 36.3708 208.667 36.5576C208.858 36.7445 209.111 36.8379 209.426 36.8379ZM214.253 27.3633V30.0361C214.253 30.3141 214.244 30.5853 214.226 30.8496C214.212 31.1139 214.196 31.319 214.178 31.4648H214.267C214.426 31.2005 214.622 30.984 214.854 30.8154C215.087 30.6423 215.347 30.5124 215.634 30.4258C215.925 30.3392 216.235 30.2959 216.563 30.2959C217.142 30.2959 217.634 30.3939 218.04 30.5898C218.446 30.7812 218.756 31.0798 218.97 31.4854C219.188 31.891 219.298 32.4173 219.298 33.0645V38H217.691V33.3652C217.691 32.7773 217.571 32.3376 217.329 32.0459C217.088 31.7497 216.714 31.6016 216.208 31.6016C215.72 31.6016 215.333 31.7041 215.046 31.9092C214.763 32.1097 214.561 32.4082 214.438 32.8047C214.314 33.1966 214.253 33.6751 214.253 34.2402V38H212.646V27.3633H214.253ZM231.31 29.2773L231.405 29.4277C231.341 29.7832 231.253 30.1204 231.139 30.4395C231.025 30.7539 230.865 31.0387 230.66 31.2939C230.455 31.5492 230.188 31.7633 229.86 31.9365C229.537 32.1051 229.131 32.2214 228.644 32.2852V38H227.379L227.16 36.9814H227.064C226.905 37.2412 226.702 37.4577 226.456 37.6309C226.215 37.7995 225.943 37.9248 225.643 38.0068C225.346 38.0934 225.034 38.1367 224.706 38.1367C224.132 38.1367 223.642 38.041 223.236 37.8496C222.831 37.6536 222.521 37.3529 222.307 36.9473C222.092 36.5417 221.985 36.0176 221.985 35.375V30.4395H223.599V35.0742C223.599 35.6621 223.717 36.1019 223.954 36.3936C224.196 36.6852 224.569 36.8311 225.075 36.8311C225.809 36.8311 226.317 36.6055 226.6 36.1543C226.887 35.7031 227.03 35.0514 227.03 34.1992V30.4395H228.644V31.2529C228.908 31.1891 229.115 31.0684 229.266 30.8906C229.416 30.7083 229.523 30.4805 229.587 30.207C229.651 29.929 229.683 29.6191 229.683 29.2773H231.31ZM227.687 27.2744V27.4111C227.577 27.5433 227.429 27.7028 227.242 27.8896C227.055 28.0719 226.853 28.2656 226.634 28.4707C226.415 28.6712 226.199 28.8649 225.984 29.0518C225.77 29.234 225.576 29.389 225.403 29.5166H224.33V29.3389C224.48 29.1657 224.647 28.9583 224.829 28.7168C225.016 28.4753 225.198 28.2269 225.376 27.9717C225.558 27.7165 225.711 27.484 225.834 27.2744H227.687ZM235.562 38.1367C234.847 38.1367 234.227 37.9977 233.703 37.7197C233.179 37.4417 232.776 37.0156 232.493 36.4414C232.211 35.8672 232.069 35.138 232.069 34.2539C232.069 33.3333 232.224 32.5814 232.534 31.998C232.844 31.4147 233.272 30.984 233.819 30.7061C234.371 30.4281 235.002 30.2891 235.713 30.2891C236.164 30.2891 236.572 30.3346 236.937 30.4258C237.306 30.5124 237.618 30.6195 237.873 30.7471L237.395 32.0322C237.117 31.9183 236.832 31.8226 236.54 31.7451C236.248 31.6676 235.968 31.6289 235.699 31.6289C235.257 31.6289 234.888 31.7269 234.592 31.9229C234.3 32.1188 234.081 32.4105 233.936 32.7979C233.794 33.1852 233.724 33.666 233.724 34.2402C233.724 34.7962 233.797 35.2656 233.942 35.6484C234.088 36.0267 234.305 36.3138 234.592 36.5098C234.879 36.7012 235.232 36.7969 235.651 36.7969C236.066 36.7969 236.438 36.7467 236.766 36.6465C237.094 36.5462 237.404 36.4163 237.695 36.2568V37.6514C237.408 37.8154 237.101 37.9362 236.772 38.0137C236.444 38.0957 236.041 38.1367 235.562 38.1367ZM245.716 27.3633V29.9268C245.716 30.223 245.707 30.5146 245.688 30.8018C245.675 31.0843 245.661 31.3053 245.647 31.4648H245.716C245.921 31.1367 246.206 30.861 246.57 30.6377C246.939 30.4098 247.411 30.2959 247.985 30.2959C248.883 30.2959 249.605 30.6263 250.152 31.2871C250.699 31.9434 250.973 32.9163 250.973 34.2061C250.973 35.0628 250.847 35.7829 250.597 36.3662C250.346 36.9495 249.993 37.3916 249.537 37.6924C249.086 37.9886 248.555 38.1367 247.944 38.1367C247.37 38.1367 246.905 38.0319 246.55 37.8223C246.199 37.6081 245.923 37.3597 245.723 37.0771H245.606L245.312 38H244.109V27.3633H245.716ZM247.562 31.6016C247.106 31.6016 246.743 31.6927 246.475 31.875C246.21 32.0573 246.019 32.3307 245.9 32.6953C245.782 33.0553 245.72 33.5133 245.716 34.0693V34.2129C245.716 35.056 245.848 35.7008 246.112 36.1475C246.381 36.5941 246.869 36.8174 247.575 36.8174C248.136 36.8174 248.566 36.5918 248.867 36.1406C249.168 35.6849 249.318 35.0332 249.318 34.1855C249.318 33.3288 249.168 32.6839 248.867 32.251C248.571 31.818 248.136 31.6016 247.562 31.6016ZM256.299 30.2891C257.256 30.2891 257.978 30.501 258.466 30.9248C258.958 31.3486 259.204 32.0094 259.204 32.9072V38H258.062L257.755 36.9268H257.7C257.486 37.2002 257.265 37.4258 257.037 37.6035C256.809 37.7812 256.545 37.9134 256.244 38C255.948 38.0911 255.586 38.1367 255.157 38.1367C254.706 38.1367 254.303 38.0547 253.947 37.8906C253.592 37.722 253.312 37.4668 253.106 37.125C252.901 36.7832 252.799 36.3503 252.799 35.8262C252.799 35.0469 253.088 34.4613 253.667 34.0693C254.25 33.6774 255.13 33.4609 256.306 33.4199L257.618 33.3721V32.9756C257.618 32.4515 257.495 32.0778 257.249 31.8545C257.007 31.6312 256.666 31.5195 256.224 31.5195C255.845 31.5195 255.479 31.5742 255.123 31.6836C254.768 31.793 254.421 31.9274 254.084 32.0869L253.564 30.9521C253.934 30.7562 254.353 30.5967 254.822 30.4736C255.296 30.3506 255.788 30.2891 256.299 30.2891ZM257.611 34.3838L256.634 34.418C255.832 34.4453 255.269 34.582 254.945 34.8281C254.622 35.0742 254.46 35.4115 254.46 35.8398C254.46 36.2135 254.572 36.487 254.795 36.6602C255.018 36.8288 255.312 36.9131 255.677 36.9131C256.233 36.9131 256.693 36.7559 257.058 36.4414C257.427 36.1224 257.611 35.6553 257.611 35.04V34.3838ZM258.575 27.2744V27.4111C258.466 27.5433 258.318 27.7028 258.131 27.8896C257.944 28.0719 257.741 28.2656 257.522 28.4707C257.304 28.6712 257.087 28.8649 256.873 29.0518C256.659 29.234 256.465 29.389 256.292 29.5166H255.219V29.3389C255.369 29.1657 255.535 28.9583 255.718 28.7168C255.905 28.4753 256.087 28.2269 256.265 27.9717C256.447 27.7165 256.6 27.484 256.723 27.2744H258.575ZM265.897 30.2891C266.75 30.2891 267.413 30.5101 267.887 30.9521C268.365 31.3896 268.604 32.0938 268.604 33.0645V38H266.998V33.3652C266.998 32.7773 266.877 32.3376 266.636 32.0459C266.394 31.7497 266.021 31.6016 265.515 31.6016C264.781 31.6016 264.271 31.8271 263.983 32.2783C263.701 32.7295 263.56 33.3835 263.56 34.2402V38H261.953V30.4326H263.204L263.43 31.458H263.519C263.683 31.1937 263.885 30.9772 264.127 30.8086C264.373 30.6354 264.646 30.5055 264.947 30.4189C265.253 30.3324 265.569 30.2891 265.897 30.2891ZM277.097 27.3633V30.0361C277.097 30.3141 277.088 30.5853 277.069 30.8496C277.056 31.1139 277.04 31.319 277.021 31.4648H277.11C277.27 31.2005 277.466 30.984 277.698 30.8154C277.931 30.6423 278.19 30.5124 278.478 30.4258C278.769 30.3392 279.079 30.2959 279.407 30.2959C279.986 30.2959 280.478 30.3939 280.884 30.5898C281.289 30.7812 281.599 31.0798 281.813 31.4854C282.032 31.891 282.142 32.4173 282.142 33.0645V38H280.535V33.3652C280.535 32.7773 280.414 32.3376 280.173 32.0459C279.931 31.7497 279.558 31.6016 279.052 31.6016C278.564 31.6016 278.177 31.7041 277.89 31.9092C277.607 32.1097 277.404 32.4082 277.281 32.8047C277.158 33.1966 277.097 33.6751 277.097 34.2402V38H275.49V27.3633H277.097ZM287.857 30.2891C288.814 30.2891 289.537 30.501 290.024 30.9248C290.517 31.3486 290.763 32.0094 290.763 32.9072V38H289.621L289.313 36.9268H289.259C289.045 37.2002 288.824 37.4258 288.596 37.6035C288.368 37.7812 288.104 37.9134 287.803 38C287.507 38.0911 287.144 38.1367 286.716 38.1367C286.265 38.1367 285.861 38.0547 285.506 37.8906C285.15 37.722 284.87 37.4668 284.665 37.125C284.46 36.7832 284.357 36.3503 284.357 35.8262C284.357 35.0469 284.647 34.4613 285.226 34.0693C285.809 33.6774 286.688 33.4609 287.864 33.4199L289.177 33.3721V32.9756C289.177 32.4515 289.054 32.0778 288.808 31.8545C288.566 31.6312 288.224 31.5195 287.782 31.5195C287.404 31.5195 287.037 31.5742 286.682 31.6836C286.326 31.793 285.98 31.9274 285.643 32.0869L285.123 30.9521C285.492 30.7562 285.911 30.5967 286.381 30.4736C286.855 30.3506 287.347 30.2891 287.857 30.2891ZM289.17 34.3838L288.192 34.418C287.39 34.4453 286.827 34.582 286.504 34.8281C286.18 35.0742 286.019 35.4115 286.019 35.8398C286.019 36.2135 286.13 36.487 286.354 36.6602C286.577 36.8288 286.871 36.9131 287.235 36.9131C287.791 36.9131 288.252 36.7559 288.616 36.4414C288.985 36.1224 289.17 35.6553 289.17 35.04V34.3838ZM287.399 27.2744C287.522 27.484 287.673 27.7165 287.851 27.9717C288.028 28.2269 288.213 28.4753 288.404 28.7168C288.596 28.9583 288.764 29.1657 288.91 29.3389V29.5166H287.837C287.664 29.389 287.47 29.234 287.256 29.0518C287.042 28.8649 286.823 28.6712 286.6 28.4707C286.381 28.2656 286.178 28.0719 285.991 27.8896C285.809 27.7028 285.663 27.5433 285.554 27.4111V27.2744H287.399ZM297.456 30.2891C298.308 30.2891 298.971 30.5101 299.445 30.9521C299.924 31.3896 300.163 32.0938 300.163 33.0645V38H298.557V33.3652C298.557 32.7773 298.436 32.3376 298.194 32.0459C297.953 31.7497 297.579 31.6016 297.073 31.6016C296.34 31.6016 295.829 31.8271 295.542 32.2783C295.259 32.7295 295.118 33.3835 295.118 34.2402V38H293.512V30.4326H294.763L294.988 31.458H295.077C295.241 31.1937 295.444 30.9772 295.686 30.8086C295.932 30.6354 296.205 30.5055 296.506 30.4189C296.811 30.3324 297.128 30.2891 297.456 30.2891ZM305.072 41.3633C304.047 41.3633 303.261 41.1787 302.714 40.8096C302.167 40.4404 301.894 39.9232 301.894 39.2578C301.894 38.793 302.039 38.3988 302.331 38.0752C302.623 37.7562 303.04 37.5352 303.582 37.4121C303.377 37.321 303.199 37.1797 303.049 36.9883C302.903 36.7923 302.83 36.5758 302.83 36.3389C302.83 36.0563 302.91 35.8148 303.069 35.6143C303.229 35.4137 303.468 35.2201 303.787 35.0332C303.391 34.8646 303.072 34.5911 302.83 34.2129C302.593 33.8301 302.475 33.3812 302.475 32.8662C302.475 32.3193 302.591 31.8545 302.823 31.4717C303.056 31.0843 303.395 30.7904 303.842 30.5898C304.288 30.3848 304.828 30.2822 305.462 30.2822C305.599 30.2822 305.747 30.2913 305.906 30.3096C306.07 30.3232 306.221 30.3415 306.357 30.3643C306.499 30.3825 306.606 30.403 306.679 30.4258H309.297V31.3213L308.012 31.5605C308.135 31.7337 308.233 31.932 308.306 32.1553C308.379 32.374 308.415 32.6133 308.415 32.873C308.415 33.6569 308.144 34.2744 307.602 34.7256C307.064 35.1722 306.321 35.3955 305.373 35.3955C305.145 35.3864 304.924 35.3682 304.71 35.3408C304.546 35.4411 304.421 35.5527 304.334 35.6758C304.247 35.7943 304.204 35.9287 304.204 36.0791C304.204 36.2021 304.247 36.3024 304.334 36.3799C304.421 36.4528 304.548 36.5075 304.717 36.5439C304.89 36.5804 305.1 36.5986 305.346 36.5986H306.651C307.481 36.5986 308.114 36.7741 308.552 37.125C308.989 37.4759 309.208 37.9909 309.208 38.6699C309.208 39.5312 308.853 40.1943 308.142 40.6592C307.431 41.1286 306.408 41.3633 305.072 41.3633ZM305.134 40.2354C305.694 40.2354 306.166 40.1807 306.549 40.0713C306.932 39.9619 307.221 39.8047 307.417 39.5996C307.613 39.3991 307.711 39.1598 307.711 38.8818C307.711 38.6357 307.649 38.4466 307.526 38.3145C307.403 38.1823 307.219 38.0911 306.973 38.041C306.727 37.9909 306.421 37.9658 306.057 37.9658H304.867C304.571 37.9658 304.309 38.0114 304.081 38.1025C303.853 38.1982 303.675 38.335 303.548 38.5127C303.425 38.6904 303.363 38.9046 303.363 39.1553C303.363 39.5016 303.516 39.7682 303.821 39.9551C304.131 40.1419 304.569 40.2354 305.134 40.2354ZM305.448 34.3428C305.918 34.3428 306.266 34.2152 306.494 33.96C306.722 33.7002 306.836 33.3356 306.836 32.8662C306.836 32.3558 306.717 31.973 306.48 31.7178C306.248 31.4626 305.902 31.335 305.441 31.335C304.99 31.335 304.646 31.4648 304.409 31.7246C304.177 31.9844 304.061 32.3695 304.061 32.8799C304.061 33.3402 304.177 33.7002 304.409 33.96C304.646 34.2152 304.993 34.3428 305.448 34.3428Z" fill="#031A6E"/>
</svg>
