<svg width="375" height="104" viewBox="0 0 375 104" fill="none" xmlns="http://www.w3.org/2000/svg">
<rect width="375" height="104" fill="#EFF0FB"/>
<rect x="43" y="70" width="292" height="4" fill="#CCECFB"/>
<rect x="43" y="70" width="93" height="4" fill="#30CD60"/>
<circle cx="36" cy="72" r="12" fill="#30CD60"/>
<path d="M37.8467 77H36.2334V70.5674C36.2334 70.3532 36.2357 70.139 36.2402 69.9248C36.2448 69.7106 36.2493 69.501 36.2539 69.2959C36.263 69.0908 36.2744 68.8949 36.2881 68.708C36.1924 68.8128 36.0739 68.9268 35.9326 69.0498C35.7959 69.1729 35.6501 69.3005 35.4951 69.4326L34.3467 70.3486L33.54 69.3301L36.5068 67.0059H37.8467V77Z" fill="white"/>
<circle cx="137" cy="72" r="12" fill="#30CD60"/>
<path d="M139.891 76H133.123V74.79L135.714 72.165C136.215 71.6546 136.628 71.2148 136.951 70.8457C137.275 70.472 137.514 70.1188 137.669 69.7861C137.828 69.4535 137.908 69.0911 137.908 68.6992C137.908 68.2161 137.769 67.8516 137.491 67.6055C137.213 67.3548 136.846 67.2295 136.391 67.2295C135.958 67.2295 135.557 67.3161 135.188 67.4893C134.823 67.6579 134.445 67.8994 134.053 68.2139L133.171 67.1543C133.449 66.9173 133.745 66.7008 134.06 66.5049C134.379 66.3089 134.734 66.154 135.126 66.04C135.518 65.9215 135.965 65.8623 136.466 65.8623C137.099 65.8623 137.646 65.9762 138.106 66.2041C138.567 66.4274 138.92 66.7396 139.166 67.1406C139.417 67.5417 139.542 68.0088 139.542 68.542C139.542 69.0798 139.435 69.5765 139.221 70.0322C139.007 70.488 138.701 70.9391 138.305 71.3857C137.908 71.8278 137.437 72.3086 136.89 72.8281L135.16 74.5166V74.5918H139.891V76Z" fill="white"/>
<circle cx="238" cy="72" r="12" fill="#CCECFB"/>
<path d="M240.508 68.2891C240.508 68.7402 240.417 69.1322 240.234 69.4648C240.052 69.7975 239.801 70.071 239.482 70.2852C239.168 70.4948 238.803 70.6452 238.389 70.7363V70.7842C239.186 70.8844 239.788 71.1351 240.193 71.5361C240.604 71.9372 240.809 72.4681 240.809 73.1289C240.809 73.7077 240.67 74.2249 240.392 74.6807C240.114 75.1318 239.688 75.4873 239.113 75.7471C238.539 76.0068 237.801 76.1367 236.898 76.1367C236.356 76.1367 235.853 76.0934 235.388 76.0068C234.927 75.9202 234.49 75.7812 234.075 75.5898V74.1611C234.499 74.3708 234.95 74.5326 235.429 74.6465C235.907 74.7604 236.361 74.8174 236.789 74.8174C237.623 74.8174 238.218 74.6624 238.573 74.3525C238.929 74.0381 239.106 73.6051 239.106 73.0537C239.106 72.6982 239.013 72.4066 238.826 72.1787C238.644 71.9508 238.359 71.7799 237.972 71.666C237.589 71.5521 237.094 71.4951 236.488 71.4951H235.606V70.2031H236.495C237.074 70.2031 237.539 70.1348 237.89 69.998C238.241 69.8568 238.493 69.6631 238.648 69.417C238.808 69.1709 238.888 68.8838 238.888 68.5557C238.888 68.1273 238.749 67.7946 238.471 67.5576C238.193 67.3161 237.78 67.1953 237.233 67.1953C236.896 67.1953 236.589 67.234 236.311 67.3115C236.037 67.389 235.784 67.487 235.552 67.6055C235.319 67.724 235.098 67.8516 234.889 67.9883L234.116 66.874C234.494 66.5915 234.946 66.3522 235.47 66.1562C235.994 65.9603 236.604 65.8623 237.302 65.8623C238.327 65.8623 239.118 66.0833 239.674 66.5254C240.23 66.9629 240.508 67.5508 240.508 68.2891Z" fill="#5AB5E5"/>
<circle cx="339" cy="72" r="12" fill="#CCECFB"/>
<path d="M342.253 73.8057H340.899V76H339.313V73.8057H334.768V72.5889L339.334 65.9785H340.899V72.4727H342.253V73.8057ZM339.313 72.4727V69.9912C339.313 69.7861 339.316 69.5788 339.32 69.3691C339.329 69.1549 339.339 68.9499 339.348 68.7539C339.357 68.5579 339.366 68.3779 339.375 68.2139C339.384 68.0452 339.391 67.9062 339.396 67.7969H339.341C339.254 67.9792 339.159 68.166 339.054 68.3574C338.949 68.5443 338.837 68.7266 338.719 68.9043L336.258 72.4727H339.313Z" fill="#5AB5E5"/>
<mask id="path-12-inside-1_1686_12281" fill="white">
<path fill-rule="evenodd" clip-rule="evenodd" d="M60 20C55.5817 20 52 23.5817 52 28V40C52 44.4183 55.5817 48 60 48H130.005L136.5 54L142.995 48H214C218.418 48 222 44.4183 222 40V28C222 23.5817 218.418 20 214 20H60Z"/>
</mask>
<path fill-rule="evenodd" clip-rule="evenodd" d="M60 20C55.5817 20 52 23.5817 52 28V40C52 44.4183 55.5817 48 60 48H130.005L136.5 54L142.995 48H214C218.418 48 222 44.4183 222 40V28C222 23.5817 218.418 20 214 20H60Z" fill="white"/>
<path d="M130.005 48L130.683 47.2654L130.396 47H130.005V48ZM136.5 54L135.821 54.7346L136.5 55.3614L137.179 54.7346L136.5 54ZM142.995 48V47H142.604L142.317 47.2654L142.995 48ZM53 28C53 24.134 56.134 21 60 21V19C55.0294 19 51 23.0294 51 28H53ZM53 40V28H51V40H53ZM60 47C56.134 47 53 43.866 53 40H51C51 44.9706 55.0294 49 60 49V47ZM130.005 47H60V49H130.005V47ZM137.179 53.2654L130.683 47.2654L129.326 48.7346L135.821 54.7346L137.179 53.2654ZM142.317 47.2654L135.821 53.2654L137.179 54.7346L143.674 48.7346L142.317 47.2654ZM214 47H142.995V49H214V47ZM221 40C221 43.866 217.866 47 214 47V49C218.971 49 223 44.9706 223 40H221ZM221 28V40H223V28H221ZM214 21C217.866 21 221 24.134 221 28H223C223 23.0294 218.971 19 214 19V21ZM60 21H214V19H60V21Z" fill="#CCECFB" mask="url(#path-12-inside-1_1686_12281)"/>
<path d="M72.7754 38H70.7588L65.8643 30.0225H65.8027C65.821 30.2913 65.8369 30.5762 65.8506 30.877C65.8688 31.1777 65.8825 31.4876 65.8916 31.8066C65.9053 32.1257 65.9167 32.4492 65.9258 32.7773V38H64.4355V28.0059H66.4385L71.3262 35.9287H71.374C71.3649 35.6963 71.3535 35.4297 71.3398 35.1289C71.3262 34.8281 71.3125 34.5182 71.2988 34.1992C71.2897 33.8757 71.2829 33.5635 71.2783 33.2627V28.0059H72.7754V38ZM77.8965 41.3633C76.8711 41.3633 76.085 41.1787 75.5381 40.8096C74.9912 40.4404 74.7178 39.9232 74.7178 39.2578C74.7178 38.793 74.8636 38.3988 75.1553 38.0752C75.4469 37.7562 75.8639 37.5352 76.4062 37.4121C76.2012 37.321 76.0234 37.1797 75.873 36.9883C75.7272 36.7923 75.6543 36.5758 75.6543 36.3389C75.6543 36.0563 75.734 35.8148 75.8936 35.6143C76.0531 35.4137 76.2923 35.2201 76.6113 35.0332C76.2148 34.8646 75.8958 34.5911 75.6543 34.2129C75.4173 33.8301 75.2988 33.3812 75.2988 32.8662C75.2988 32.3193 75.415 31.8545 75.6475 31.4717C75.8799 31.0843 76.2194 30.7904 76.666 30.5898C77.1126 30.3848 77.6527 30.2822 78.2861 30.2822C78.4229 30.2822 78.571 30.2913 78.7305 30.3096C78.8945 30.3232 79.0449 30.3415 79.1816 30.3643C79.3229 30.3825 79.43 30.403 79.5029 30.4258H82.1211V31.3213L80.8359 31.5605C80.959 31.7337 81.057 31.932 81.1299 32.1553C81.2028 32.374 81.2393 32.6133 81.2393 32.873C81.2393 33.6569 80.9681 34.2744 80.4258 34.7256C79.888 35.1722 79.1452 35.3955 78.1973 35.3955C77.9694 35.3864 77.7484 35.3682 77.5342 35.3408C77.3701 35.4411 77.2448 35.5527 77.1582 35.6758C77.0716 35.7943 77.0283 35.9287 77.0283 36.0791C77.0283 36.2021 77.0716 36.3024 77.1582 36.3799C77.2448 36.4528 77.3724 36.5075 77.541 36.5439C77.7142 36.5804 77.9238 36.5986 78.1699 36.5986H79.4756C80.305 36.5986 80.9385 36.7741 81.376 37.125C81.8135 37.4759 82.0322 37.9909 82.0322 38.6699C82.0322 39.5312 81.6768 40.1943 80.9658 40.6592C80.2549 41.1286 79.2318 41.3633 77.8965 41.3633ZM77.958 40.2354C78.5186 40.2354 78.9902 40.1807 79.373 40.0713C79.7559 39.9619 80.0452 39.8047 80.2412 39.5996C80.4372 39.3991 80.5352 39.1598 80.5352 38.8818C80.5352 38.6357 80.4736 38.4466 80.3506 38.3145C80.2275 38.1823 80.043 38.0911 79.7969 38.041C79.5508 37.9909 79.2454 37.9658 78.8809 37.9658H77.6914C77.3952 37.9658 77.1331 38.0114 76.9053 38.1025C76.6774 38.1982 76.4997 38.335 76.3721 38.5127C76.249 38.6904 76.1875 38.9046 76.1875 39.1553C76.1875 39.5016 76.3402 39.7682 76.6455 39.9551C76.9554 40.1419 77.3929 40.2354 77.958 40.2354ZM78.2725 34.3428C78.7419 34.3428 79.0905 34.2152 79.3184 33.96C79.5462 33.7002 79.6602 33.3356 79.6602 32.8662C79.6602 32.3558 79.5417 31.973 79.3047 31.7178C79.0723 31.4626 78.7259 31.335 78.2656 31.335C77.8145 31.335 77.4704 31.4648 77.2334 31.7246C77.001 31.9844 76.8848 32.3695 76.8848 32.8799C76.8848 33.3402 77.001 33.7002 77.2334 33.96C77.4704 34.2152 77.8167 34.3428 78.2725 34.3428ZM90.5986 30.4326V38H89.334L89.1152 36.9814H89.0264C88.8669 37.2412 88.6641 37.4577 88.418 37.6309C88.1719 37.7995 87.8984 37.9248 87.5977 38.0068C87.2969 38.0934 86.9801 38.1367 86.6475 38.1367C86.0778 38.1367 85.5902 38.041 85.1846 37.8496C84.7835 37.6536 84.4759 37.3529 84.2617 36.9473C84.0475 36.5417 83.9404 36.0176 83.9404 35.375V30.4326H85.5537V35.0742C85.5537 35.6621 85.6722 36.1019 85.9092 36.3936C86.1507 36.6852 86.5244 36.8311 87.0303 36.8311C87.5179 36.8311 87.9053 36.7308 88.1924 36.5303C88.4795 36.3298 88.6823 36.0335 88.8008 35.6416C88.9238 35.2497 88.9854 34.7689 88.9854 34.1992V30.4326H90.5986ZM100.102 34.1992C100.102 34.8281 100.02 35.3864 99.8555 35.874C99.6914 36.3617 99.4521 36.7741 99.1377 37.1113C98.8232 37.444 98.445 37.6992 98.0029 37.877C97.5609 38.0501 97.0618 38.1367 96.5059 38.1367C95.9863 38.1367 95.5101 38.0501 95.0771 37.877C94.6442 37.6992 94.2682 37.444 93.9492 37.1113C93.6348 36.7741 93.391 36.3617 93.2178 35.874C93.0446 35.3864 92.958 34.8281 92.958 34.1992C92.958 33.3652 93.1016 32.6589 93.3887 32.0801C93.6803 31.4967 94.0951 31.0524 94.6328 30.7471C95.1706 30.4417 95.8109 30.2891 96.5537 30.2891C97.251 30.2891 97.8662 30.4417 98.3994 30.7471C98.9326 31.0524 99.3496 31.4967 99.6504 32.0801C99.9512 32.6634 100.102 33.3698 100.102 34.1992ZM94.6123 34.1992C94.6123 34.7507 94.6784 35.2223 94.8105 35.6143C94.9473 36.0062 95.1569 36.307 95.4395 36.5166C95.722 36.7217 96.0866 36.8242 96.5332 36.8242C96.9798 36.8242 97.3444 36.7217 97.627 36.5166C97.9095 36.307 98.1169 36.0062 98.249 35.6143C98.3812 35.2223 98.4473 34.7507 98.4473 34.1992C98.4473 33.6478 98.3812 33.1807 98.249 32.7979C98.1169 32.4105 97.9095 32.1165 97.627 31.916C97.3444 31.7109 96.9775 31.6084 96.5264 31.6084C95.861 31.6084 95.3757 31.8317 95.0703 32.2783C94.765 32.7249 94.6123 33.3652 94.6123 34.1992ZM94.209 29.5166V29.3457C94.3639 29.1725 94.528 28.9834 94.7012 28.7783C94.8789 28.5687 95.0521 28.3545 95.2207 28.1357C95.3939 27.917 95.5511 27.7051 95.6924 27.5H97.3672C97.513 27.7051 97.6702 27.917 97.8389 28.1357C98.0075 28.3545 98.1784 28.5687 98.3516 28.7783C98.5293 28.9834 98.6956 29.1725 98.8506 29.3457V29.5166H97.9688C97.7363 29.3571 97.4993 29.1816 97.2578 28.9902C97.0163 28.7943 96.7725 28.5869 96.5264 28.3682C96.2894 28.5869 96.0479 28.7943 95.8018 28.9902C95.5557 29.1816 95.3164 29.3571 95.084 29.5166H94.209ZM93.9492 28.1836C93.6895 27.9876 93.4297 27.7712 93.1699 27.5342C92.9102 27.2926 92.6777 27.0397 92.4727 26.7754V26.6318H93.8672C94.013 26.9281 94.1543 27.181 94.291 27.3906C94.4323 27.5957 94.5941 27.8053 94.7764 28.0195V28.1836H93.9492ZM106.392 30.2891C107.244 30.2891 107.907 30.5101 108.381 30.9521C108.859 31.3896 109.099 32.0938 109.099 33.0645V38H107.492V33.3652C107.492 32.7773 107.371 32.3376 107.13 32.0459C106.888 31.7497 106.515 31.6016 106.009 31.6016C105.275 31.6016 104.765 31.8271 104.478 32.2783C104.195 32.7295 104.054 33.3835 104.054 34.2402V38H102.447V30.4326H103.698L103.924 31.458H104.013C104.177 31.1937 104.38 30.9772 104.621 30.8086C104.867 30.6354 105.141 30.5055 105.441 30.4189C105.747 30.3324 106.063 30.2891 106.392 30.2891ZM117.598 38H115.984V27.3633H117.598V38ZM129.657 29.2773L129.753 29.4277C129.689 29.7832 129.6 30.1204 129.486 30.4395C129.372 30.7539 129.213 31.0387 129.008 31.2939C128.803 31.5492 128.536 31.7633 128.208 31.9365C127.884 32.1051 127.479 32.2214 126.991 32.2852V38H125.727L125.508 36.9814H125.412C125.253 37.2412 125.05 37.4577 124.804 37.6309C124.562 37.7995 124.291 37.9248 123.99 38.0068C123.694 38.0934 123.382 38.1367 123.054 38.1367C122.479 38.1367 121.99 38.041 121.584 37.8496C121.178 37.6536 120.868 37.3529 120.654 36.9473C120.44 36.5417 120.333 36.0176 120.333 35.375V30.4395H121.946V35.0742C121.946 35.6621 122.065 36.1019 122.302 36.3936C122.543 36.6852 122.917 36.8311 123.423 36.8311C124.157 36.8311 124.665 36.6055 124.947 36.1543C125.234 35.7031 125.378 35.0514 125.378 34.1992V30.4395H126.991V31.2529C127.256 31.1891 127.463 31.0684 127.613 30.8906C127.764 30.7083 127.871 30.4805 127.935 30.207C127.998 29.929 128.03 29.6191 128.03 29.2773H129.657ZM123.519 40.666C123.263 40.666 123.047 40.5977 122.869 40.4609C122.696 40.3288 122.609 40.1032 122.609 39.7842C122.609 39.4606 122.696 39.2327 122.869 39.1006C123.047 38.9684 123.263 38.9023 123.519 38.9023C123.769 38.9023 123.983 38.9684 124.161 39.1006C124.339 39.2327 124.428 39.4606 124.428 39.7842C124.428 40.1032 124.339 40.3288 124.161 40.4609C123.983 40.5977 123.769 40.666 123.519 40.666ZM133.91 38.1367C133.195 38.1367 132.575 37.9977 132.051 37.7197C131.527 37.4417 131.123 37.0156 130.841 36.4414C130.558 35.8672 130.417 35.138 130.417 34.2539C130.417 33.3333 130.572 32.5814 130.882 31.998C131.192 31.4147 131.62 30.984 132.167 30.7061C132.718 30.4281 133.35 30.2891 134.061 30.2891C134.512 30.2891 134.92 30.3346 135.284 30.4258C135.653 30.5124 135.965 30.6195 136.221 30.7471L135.742 32.0322C135.464 31.9183 135.179 31.8226 134.888 31.7451C134.596 31.6676 134.316 31.6289 134.047 31.6289C133.605 31.6289 133.236 31.7269 132.939 31.9229C132.648 32.1188 132.429 32.4105 132.283 32.7979C132.142 33.1852 132.071 33.666 132.071 34.2402C132.071 34.7962 132.144 35.2656 132.29 35.6484C132.436 36.0267 132.652 36.3138 132.939 36.5098C133.227 36.7012 133.58 36.7969 133.999 36.7969C134.414 36.7969 134.785 36.7467 135.113 36.6465C135.441 36.5462 135.751 36.4163 136.043 36.2568V37.6514C135.756 37.8154 135.448 37.9362 135.12 38.0137C134.792 38.0957 134.389 38.1367 133.91 38.1367ZM144.063 27.3633V29.9268C144.063 30.223 144.054 30.5146 144.036 30.8018C144.022 31.0843 144.009 31.3053 143.995 31.4648H144.063C144.269 31.1367 144.553 30.861 144.918 30.6377C145.287 30.4098 145.759 30.2959 146.333 30.2959C147.231 30.2959 147.953 30.6263 148.5 31.2871C149.047 31.9434 149.32 32.9163 149.32 34.2061C149.32 35.0628 149.195 35.7829 148.944 36.3662C148.694 36.9495 148.34 37.3916 147.885 37.6924C147.434 37.9886 146.903 38.1367 146.292 38.1367C145.718 38.1367 145.253 38.0319 144.897 37.8223C144.547 37.6081 144.271 37.3597 144.07 37.0771H143.954L143.66 38H142.457V27.3633H144.063ZM145.909 31.6016C145.453 31.6016 145.091 31.6927 144.822 31.875C144.558 32.0573 144.367 32.3307 144.248 32.6953C144.13 33.0553 144.068 33.5133 144.063 34.0693V34.2129C144.063 35.056 144.196 35.7008 144.46 36.1475C144.729 36.5941 145.216 36.8174 145.923 36.8174C146.483 36.8174 146.914 36.5918 147.215 36.1406C147.516 35.6849 147.666 35.0332 147.666 34.1855C147.666 33.3288 147.516 32.6839 147.215 32.251C146.919 31.818 146.483 31.6016 145.909 31.6016ZM154.694 30.2891C155.369 30.2891 155.948 30.4281 156.431 30.7061C156.914 30.984 157.285 31.3783 157.545 31.8887C157.805 32.3991 157.935 33.0098 157.935 33.7207V34.582H152.883C152.901 35.3158 153.097 35.8809 153.471 36.2773C153.849 36.6738 154.378 36.8721 155.057 36.8721C155.54 36.8721 155.973 36.8265 156.355 36.7354C156.743 36.6396 157.142 36.5007 157.552 36.3184V37.624C157.174 37.8018 156.788 37.9316 156.396 38.0137C156.005 38.0957 155.535 38.1367 154.988 38.1367C154.245 38.1367 153.591 37.9932 153.026 37.7061C152.466 37.4144 152.026 36.9814 151.707 36.4072C151.393 35.833 151.235 35.1198 151.235 34.2676C151.235 33.4199 151.379 32.6999 151.666 32.1074C151.953 31.515 152.356 31.0638 152.876 30.7539C153.396 30.444 154.002 30.2891 154.694 30.2891ZM154.694 31.499C154.188 31.499 153.778 31.6631 153.464 31.9912C153.154 32.3193 152.972 32.8001 152.917 33.4336H156.362C156.358 33.0553 156.294 32.7204 156.171 32.4287C156.052 32.137 155.87 31.9092 155.624 31.7451C155.382 31.5811 155.073 31.499 154.694 31.499ZM155.508 27.2744C155.631 27.484 155.795 27.7165 156 27.9717C156.21 28.2269 156.426 28.4775 156.649 28.7236C156.877 28.9652 157.078 29.1725 157.251 29.3457V29.5166H156.157C155.911 29.3617 155.649 29.1771 155.371 28.9629C155.098 28.7441 154.84 28.5094 154.599 28.2588C154.353 28.5094 154.095 28.7419 153.826 28.9561C153.562 29.1702 153.309 29.3571 153.067 29.5166H151.98V29.3457C152.154 29.168 152.352 28.9583 152.575 28.7168C152.799 28.4753 153.013 28.2269 153.218 27.9717C153.423 27.7165 153.587 27.484 153.71 27.2744H155.508ZM164.19 30.2891C165.043 30.2891 165.706 30.5101 166.18 30.9521C166.658 31.3896 166.897 32.0938 166.897 33.0645V38H165.291V33.3652C165.291 32.7773 165.17 32.3376 164.929 32.0459C164.687 31.7497 164.313 31.6016 163.808 31.6016C163.074 31.6016 162.563 31.8271 162.276 32.2783C161.994 32.7295 161.853 33.3835 161.853 34.2402V38H160.246V30.4326H161.497L161.723 31.458H161.812C161.976 31.1937 162.178 30.9772 162.42 30.8086C162.666 30.6354 162.939 30.5055 163.24 30.4189C163.546 30.3324 163.862 30.2891 164.19 30.2891ZM177.728 30.2891C178.58 30.2891 179.243 30.5101 179.717 30.9521C180.195 31.3896 180.435 32.0938 180.435 33.0645V38H178.828V33.3652C178.828 32.7773 178.707 32.3376 178.466 32.0459C178.224 31.7497 177.851 31.6016 177.345 31.6016C176.611 31.6016 176.101 31.8271 175.813 32.2783C175.531 32.7295 175.39 33.3835 175.39 34.2402V38H173.783V30.4326H175.034L175.26 31.458H175.349C175.513 31.1937 175.715 30.9772 175.957 30.8086C176.203 30.6354 176.477 30.5055 176.777 30.4189C177.083 30.3324 177.399 30.2891 177.728 30.2891ZM185.344 41.3633C184.318 41.3633 183.532 41.1787 182.985 40.8096C182.438 40.4404 182.165 39.9232 182.165 39.2578C182.165 38.793 182.311 38.3988 182.603 38.0752C182.894 37.7562 183.311 37.5352 183.854 37.4121C183.648 37.321 183.471 37.1797 183.32 36.9883C183.174 36.7923 183.102 36.5758 183.102 36.3389C183.102 36.0563 183.181 35.8148 183.341 35.6143C183.5 35.4137 183.74 35.2201 184.059 35.0332C183.662 34.8646 183.343 34.5911 183.102 34.2129C182.865 33.8301 182.746 33.3812 182.746 32.8662C182.746 32.3193 182.862 31.8545 183.095 31.4717C183.327 31.0843 183.667 30.7904 184.113 30.5898C184.56 30.3848 185.1 30.2822 185.733 30.2822C185.87 30.2822 186.018 30.2913 186.178 30.3096C186.342 30.3232 186.492 30.3415 186.629 30.3643C186.77 30.3825 186.877 30.403 186.95 30.4258H189.568V31.3213L188.283 31.5605C188.406 31.7337 188.504 31.932 188.577 32.1553C188.65 32.374 188.687 32.6133 188.687 32.873C188.687 33.6569 188.415 34.2744 187.873 34.7256C187.335 35.1722 186.592 35.3955 185.645 35.3955C185.417 35.3864 185.196 35.3682 184.981 35.3408C184.817 35.4411 184.692 35.5527 184.605 35.6758C184.519 35.7943 184.476 35.9287 184.476 36.0791C184.476 36.2021 184.519 36.3024 184.605 36.3799C184.692 36.4528 184.82 36.5075 184.988 36.5439C185.161 36.5804 185.371 36.5986 185.617 36.5986H186.923C187.752 36.5986 188.386 36.7741 188.823 37.125C189.261 37.4759 189.479 37.9909 189.479 38.6699C189.479 39.5312 189.124 40.1943 188.413 40.6592C187.702 41.1286 186.679 41.3633 185.344 41.3633ZM185.405 40.2354C185.966 40.2354 186.438 40.1807 186.82 40.0713C187.203 39.9619 187.493 39.8047 187.688 39.5996C187.884 39.3991 187.982 39.1598 187.982 38.8818C187.982 38.6357 187.921 38.4466 187.798 38.3145C187.675 38.1823 187.49 38.0911 187.244 38.041C186.998 37.9909 186.693 37.9658 186.328 37.9658H185.139C184.842 37.9658 184.58 38.0114 184.353 38.1025C184.125 38.1982 183.947 38.335 183.819 38.5127C183.696 38.6904 183.635 38.9046 183.635 39.1553C183.635 39.5016 183.787 39.7682 184.093 39.9551C184.403 40.1419 184.84 40.2354 185.405 40.2354ZM185.72 34.3428C186.189 34.3428 186.538 34.2152 186.766 33.96C186.993 33.7002 187.107 33.3356 187.107 32.8662C187.107 32.3558 186.989 31.973 186.752 31.7178C186.52 31.4626 186.173 31.335 185.713 31.335C185.262 31.335 184.918 31.4648 184.681 31.7246C184.448 31.9844 184.332 32.3695 184.332 32.8799C184.332 33.3402 184.448 33.7002 184.681 33.96C184.918 34.2152 185.264 34.3428 185.72 34.3428ZM198.148 34.1992C198.148 34.8281 198.066 35.3864 197.902 35.874C197.738 36.3617 197.499 36.7741 197.185 37.1113C196.87 37.444 196.492 37.6992 196.05 37.877C195.608 38.0501 195.109 38.1367 194.553 38.1367C194.033 38.1367 193.557 38.0501 193.124 37.877C192.691 37.6992 192.315 37.444 191.996 37.1113C191.682 36.7741 191.438 36.3617 191.265 35.874C191.091 35.3864 191.005 34.8281 191.005 34.1992C191.005 33.3652 191.148 32.6589 191.436 32.0801C191.727 31.4967 192.142 31.0524 192.68 30.7471C193.217 30.4417 193.858 30.2891 194.601 30.2891C195.298 30.2891 195.913 30.4417 196.446 30.7471C196.979 31.0524 197.396 31.4967 197.697 32.0801C197.998 32.6634 198.148 33.3698 198.148 34.1992ZM192.659 34.1992C192.659 34.7507 192.725 35.2223 192.857 35.6143C192.994 36.0062 193.204 36.307 193.486 36.5166C193.769 36.7217 194.133 36.8242 194.58 36.8242C195.027 36.8242 195.391 36.7217 195.674 36.5166C195.956 36.307 196.164 36.0062 196.296 35.6143C196.428 35.2223 196.494 34.7507 196.494 34.1992C196.494 33.6478 196.428 33.1807 196.296 32.7979C196.164 32.4105 195.956 32.1165 195.674 31.916C195.391 31.7109 195.024 31.6084 194.573 31.6084C193.908 31.6084 193.423 31.8317 193.117 32.2783C192.812 32.7249 192.659 33.3652 192.659 34.1992ZM203.461 30.2891C204.418 30.2891 205.14 30.501 205.628 30.9248C206.12 31.3486 206.366 32.0094 206.366 32.9072V38H205.225L204.917 36.9268H204.862C204.648 37.2002 204.427 37.4258 204.199 37.6035C203.971 37.7812 203.707 37.9134 203.406 38C203.11 38.0911 202.748 38.1367 202.319 38.1367C201.868 38.1367 201.465 38.0547 201.109 37.8906C200.754 37.722 200.474 37.4668 200.269 37.125C200.063 36.7832 199.961 36.3503 199.961 35.8262C199.961 35.0469 200.25 34.4613 200.829 34.0693C201.412 33.6774 202.292 33.4609 203.468 33.4199L204.78 33.3721V32.9756C204.78 32.4515 204.657 32.0778 204.411 31.8545C204.17 31.6312 203.828 31.5195 203.386 31.5195C203.007 31.5195 202.641 31.5742 202.285 31.6836C201.93 31.793 201.583 31.9274 201.246 32.0869L200.727 30.9521C201.096 30.7562 201.515 30.5967 201.984 30.4736C202.458 30.3506 202.951 30.2891 203.461 30.2891ZM204.773 34.3838L203.796 34.418C202.994 34.4453 202.431 34.582 202.107 34.8281C201.784 35.0742 201.622 35.4115 201.622 35.8398C201.622 36.2135 201.734 36.487 201.957 36.6602C202.18 36.8288 202.474 36.9131 202.839 36.9131C203.395 36.9131 203.855 36.7559 204.22 36.4414C204.589 36.1224 204.773 35.6553 204.773 35.04V34.3838ZM203.003 27.2744C203.126 27.484 203.276 27.7165 203.454 27.9717C203.632 28.2269 203.816 28.4753 204.008 28.7168C204.199 28.9583 204.368 29.1657 204.514 29.3389V29.5166H203.44C203.267 29.389 203.074 29.234 202.859 29.0518C202.645 28.8649 202.426 28.6712 202.203 28.4707C201.984 28.2656 201.782 28.0719 201.595 27.8896C201.412 27.7028 201.267 27.5433 201.157 27.4111V27.2744H203.003ZM210.722 30.4326V38H209.115V30.4326H210.722ZM209.929 27.5342C210.175 27.5342 210.387 27.6003 210.564 27.7324C210.747 27.8646 210.838 28.0924 210.838 28.416C210.838 28.735 210.747 28.9629 210.564 29.0996C210.387 29.2318 210.175 29.2979 209.929 29.2979C209.674 29.2979 209.457 29.2318 209.279 29.0996C209.106 28.9629 209.02 28.735 209.02 28.416C209.02 28.0924 209.106 27.8646 209.279 27.7324C209.457 27.6003 209.674 27.5342 209.929 27.5342Z" fill="#031A6E"/>
</svg>
