<svg width="375" height="104" viewBox="0 0 375 104" fill="none" xmlns="http://www.w3.org/2000/svg">
<rect width="375" height="104" fill="#EFF0FB"/>
<rect x="43" y="70" width="292" height="4" fill="#CCECFB"/>
<rect x="43" y="70" width="71" height="4" fill="#30CD60"/>
<circle cx="36" cy="72" r="12" fill="#30CD60"/>
<path d="M37.8467 77H36.2334V70.5674C36.2334 70.3532 36.2357 70.139 36.2402 69.9248C36.2448 69.7106 36.2493 69.501 36.2539 69.2959C36.263 69.0908 36.2744 68.8949 36.2881 68.708C36.1924 68.8128 36.0739 68.9268 35.9326 69.0498C35.7959 69.1729 35.6501 69.3005 35.4951 69.4326L34.3467 70.3486L33.54 69.3301L36.5068 67.0059H37.8467V77Z" fill="white"/>
<circle cx="112" cy="72" r="12" fill="#30CD60"/>
<path d="M114.891 76H108.123V74.79L110.714 72.165C111.215 71.6546 111.628 71.2148 111.951 70.8457C112.275 70.472 112.514 70.1188 112.669 69.7861C112.828 69.4535 112.908 69.0911 112.908 68.6992C112.908 68.2161 112.769 67.8516 112.491 67.6055C112.213 67.3548 111.846 67.2295 111.391 67.2295C110.958 67.2295 110.557 67.3161 110.188 67.4893C109.823 67.6579 109.445 67.8994 109.053 68.2139L108.171 67.1543C108.449 66.9173 108.745 66.7008 109.06 66.5049C109.379 66.3089 109.734 66.154 110.126 66.04C110.518 65.9215 110.965 65.8623 111.466 65.8623C112.099 65.8623 112.646 65.9762 113.106 66.2041C113.567 66.4274 113.92 66.7396 114.166 67.1406C114.417 67.5417 114.542 68.0088 114.542 68.542C114.542 69.0798 114.435 69.5765 114.221 70.0322C114.007 70.488 113.701 70.9391 113.305 71.3857C112.908 71.8278 112.437 72.3086 111.89 72.8281L110.16 74.5166V74.5918H114.891V76Z" fill="white"/>
<circle cx="188" cy="72" r="12" fill="#CCECFB"/>
<path d="M190.508 68.2891C190.508 68.7402 190.417 69.1322 190.234 69.4648C190.052 69.7975 189.801 70.071 189.482 70.2852C189.168 70.4948 188.803 70.6452 188.389 70.7363V70.7842C189.186 70.8844 189.788 71.1351 190.193 71.5361C190.604 71.9372 190.809 72.4681 190.809 73.1289C190.809 73.7077 190.67 74.2249 190.392 74.6807C190.114 75.1318 189.688 75.4873 189.113 75.7471C188.539 76.0068 187.801 76.1367 186.898 76.1367C186.356 76.1367 185.853 76.0934 185.388 76.0068C184.927 75.9202 184.49 75.7812 184.075 75.5898V74.1611C184.499 74.3708 184.95 74.5326 185.429 74.6465C185.907 74.7604 186.361 74.8174 186.789 74.8174C187.623 74.8174 188.218 74.6624 188.573 74.3525C188.929 74.0381 189.106 73.6051 189.106 73.0537C189.106 72.6982 189.013 72.4066 188.826 72.1787C188.644 71.9508 188.359 71.7799 187.972 71.666C187.589 71.5521 187.094 71.4951 186.488 71.4951H185.606V70.2031H186.495C187.074 70.2031 187.539 70.1348 187.89 69.998C188.241 69.8568 188.493 69.6631 188.648 69.417C188.808 69.1709 188.888 68.8838 188.888 68.5557C188.888 68.1273 188.749 67.7946 188.471 67.5576C188.193 67.3161 187.78 67.1953 187.233 67.1953C186.896 67.1953 186.589 67.234 186.311 67.3115C186.037 67.389 185.784 67.487 185.552 67.6055C185.319 67.724 185.098 67.8516 184.889 67.9883L184.116 66.874C184.494 66.5915 184.946 66.3522 185.47 66.1562C185.994 65.9603 186.604 65.8623 187.302 65.8623C188.327 65.8623 189.118 66.0833 189.674 66.5254C190.23 66.9629 190.508 67.5508 190.508 68.2891Z" fill="#5AB5E5"/>
<circle cx="264" cy="72" r="12" fill="#CCECFB"/>
<path d="M267.253 73.8057H265.899V76H264.313V73.8057H259.768V72.5889L264.334 65.9785H265.899V72.4727H267.253V73.8057ZM264.313 72.4727V69.9912C264.313 69.7861 264.316 69.5788 264.32 69.3691C264.329 69.1549 264.339 68.9499 264.348 68.7539C264.357 68.5579 264.366 68.3779 264.375 68.2139C264.384 68.0452 264.391 67.9062 264.396 67.7969H264.341C264.254 67.9792 264.159 68.166 264.054 68.3574C263.949 68.5443 263.837 68.7266 263.719 68.9043L261.258 72.4727H264.313Z" fill="#5AB5E5"/>
<circle cx="340" cy="72" r="12" fill="#CCECFB"/>
<path d="M339.521 69.752C340.163 69.752 340.728 69.8682 341.216 70.1006C341.708 70.3285 342.091 70.6657 342.364 71.1123C342.638 71.5544 342.774 72.0967 342.774 72.7393C342.774 73.4411 342.626 74.0472 342.33 74.5576C342.034 75.0635 341.599 75.4531 341.024 75.7266C340.45 76 339.751 76.1367 338.926 76.1367C338.402 76.1367 337.912 76.0911 337.456 76C337.005 75.9089 336.615 75.7721 336.287 75.5898V74.1406C336.629 74.332 337.039 74.4893 337.518 74.6123C337.996 74.7308 338.454 74.79 338.892 74.79C339.356 74.79 339.755 74.7217 340.088 74.585C340.421 74.4482 340.676 74.2386 340.854 73.9561C341.036 73.6735 341.127 73.3158 341.127 72.8828C341.127 72.3086 340.942 71.8665 340.573 71.5566C340.209 71.2422 339.637 71.085 338.857 71.085C338.584 71.085 338.292 71.11 337.982 71.1602C337.677 71.2057 337.422 71.2559 337.217 71.3105L336.513 70.8936L336.889 66.0059H342.084V67.4209H338.304L338.085 69.9092C338.249 69.8727 338.445 69.8385 338.673 69.8066C338.901 69.7702 339.183 69.752 339.521 69.752Z" fill="#5AB5E5"/>
<mask id="path-14-inside-1_1686_12096" fill="white">
<path fill-rule="evenodd" clip-rule="evenodd" d="M29 20C24.5817 20 21 23.5817 21 28V40C21 44.4183 24.5817 48 29 48H105.005L111.5 54L117.995 48H194C198.418 48 202 44.4183 202 40V28C202 23.5817 198.418 20 194 20H29Z"/>
</mask>
<path fill-rule="evenodd" clip-rule="evenodd" d="M29 20C24.5817 20 21 23.5817 21 28V40C21 44.4183 24.5817 48 29 48H105.005L111.5 54L117.995 48H194C198.418 48 202 44.4183 202 40V28C202 23.5817 198.418 20 194 20H29Z" fill="white"/>
<path d="M105.005 48L105.683 47.2654L105.396 47H105.005V48ZM111.5 54L110.821 54.7346L111.5 55.3614L112.179 54.7346L111.5 54ZM117.995 48V47H117.604L117.317 47.2654L117.995 48ZM22 28C22 24.134 25.134 21 29 21V19C24.0294 19 20 23.0294 20 28H22ZM22 40V28H20V40H22ZM29 47C25.134 47 22 43.866 22 40H20C20 44.9706 24.0294 49 29 49V47ZM105.005 47H29V49H105.005V47ZM112.179 53.2654L105.683 47.2654L104.326 48.7346L110.821 54.7346L112.179 53.2654ZM117.317 47.2654L110.821 53.2654L112.179 54.7346L118.674 48.7346L117.317 47.2654ZM194 47H117.995V49H194V47ZM201 40C201 43.866 197.866 47 194 47V49C198.971 49 203 44.9706 203 40H201ZM201 28V40H203V28H201ZM194 21C197.866 21 201 24.134 201 28H203C203 23.0294 198.971 19 194 19V21ZM29 21H194V19H29V21Z" fill="#CCECFB" mask="url(#path-14-inside-1_1686_12096)"/>
<path d="M40.2871 38H38.4004L35.29 33.4609L34.3057 34.2607V38H32.665V28.0059H34.3057V32.7842C34.5062 32.5381 34.709 32.292 34.9141 32.0459C35.1191 31.7998 35.3242 31.5537 35.5293 31.3076L38.3457 28.0059H40.1982L36.4658 32.3809L40.2871 38ZM43.5488 27.3633V30.0361C43.5488 30.3141 43.5397 30.5853 43.5215 30.8496C43.5078 31.1139 43.4919 31.319 43.4736 31.4648H43.5625C43.722 31.2005 43.918 30.984 44.1504 30.8154C44.3828 30.6423 44.6426 30.5124 44.9297 30.4258C45.2214 30.3392 45.5312 30.2959 45.8594 30.2959C46.4382 30.2959 46.9303 30.3939 47.3359 30.5898C47.7415 30.7812 48.0514 31.0798 48.2656 31.4854C48.4844 31.891 48.5938 32.4173 48.5938 33.0645V38H46.9873V33.3652C46.9873 32.7773 46.8665 32.3376 46.625 32.0459C46.3835 31.7497 46.0098 31.6016 45.5039 31.6016C45.0163 31.6016 44.6289 31.7041 44.3418 31.9092C44.0592 32.1097 43.8564 32.4082 43.7334 32.8047C43.6104 33.1966 43.5488 33.6751 43.5488 34.2402V38H41.9424V27.3633H43.5488ZM54.3096 30.2891C55.2666 30.2891 55.9889 30.501 56.4766 30.9248C56.9688 31.3486 57.2148 32.0094 57.2148 32.9072V38H56.0732L55.7656 36.9268H55.7109C55.4967 37.2002 55.2757 37.4258 55.0479 37.6035C54.82 37.7812 54.5557 37.9134 54.2549 38C53.9587 38.0911 53.5964 38.1367 53.168 38.1367C52.7168 38.1367 52.3135 38.0547 51.958 37.8906C51.6025 37.722 51.3223 37.4668 51.1172 37.125C50.9121 36.7832 50.8096 36.3503 50.8096 35.8262C50.8096 35.0469 51.099 34.4613 51.6777 34.0693C52.2611 33.6774 53.1406 33.4609 54.3164 33.4199L55.6289 33.3721V32.9756C55.6289 32.4515 55.5059 32.0778 55.2598 31.8545C55.0182 31.6312 54.6764 31.5195 54.2344 31.5195C53.8561 31.5195 53.4893 31.5742 53.1338 31.6836C52.7783 31.793 52.432 31.9274 52.0947 32.0869L51.5752 30.9521C51.9443 30.7562 52.3636 30.5967 52.833 30.4736C53.307 30.3506 53.7992 30.2891 54.3096 30.2891ZM55.6221 34.3838L54.6445 34.418C53.8424 34.4453 53.2796 34.582 52.9561 34.8281C52.6325 35.0742 52.4707 35.4115 52.4707 35.8398C52.4707 36.2135 52.5824 36.487 52.8057 36.6602C53.029 36.8288 53.3229 36.9131 53.6875 36.9131C54.2435 36.9131 54.7038 36.7559 55.0684 36.4414C55.4375 36.1224 55.6221 35.6553 55.6221 35.04V34.3838ZM56.5859 27.2744V27.4111C56.4766 27.5433 56.3285 27.7028 56.1416 27.8896C55.9548 28.0719 55.752 28.2656 55.5332 28.4707C55.3145 28.6712 55.098 28.8649 54.8838 29.0518C54.6696 29.234 54.4759 29.389 54.3027 29.5166H53.2295V29.3389C53.3799 29.1657 53.5462 28.9583 53.7285 28.7168C53.9154 28.4753 54.0977 28.2269 54.2754 27.9717C54.4577 27.7165 54.6104 27.484 54.7334 27.2744H56.5859ZM63.0127 38.1367C62.2972 38.1367 61.6774 37.9977 61.1533 37.7197C60.6292 37.4417 60.2259 37.0156 59.9434 36.4414C59.6608 35.8672 59.5195 35.138 59.5195 34.2539C59.5195 33.3333 59.6745 32.5814 59.9844 31.998C60.2943 31.4147 60.7227 30.984 61.2695 30.7061C61.821 30.4281 62.4521 30.2891 63.1631 30.2891C63.6143 30.2891 64.0221 30.3346 64.3867 30.4258C64.7559 30.5124 65.068 30.6195 65.3232 30.7471L64.8447 32.0322C64.5667 31.9183 64.2819 31.8226 63.9902 31.7451C63.6986 31.6676 63.4183 31.6289 63.1494 31.6289C62.7074 31.6289 62.3382 31.7269 62.042 31.9229C61.7503 32.1188 61.5316 32.4105 61.3857 32.7979C61.2445 33.1852 61.1738 33.666 61.1738 34.2402C61.1738 34.7962 61.2467 35.2656 61.3926 35.6484C61.5384 36.0267 61.7549 36.3138 62.042 36.5098C62.3291 36.7012 62.6823 36.7969 63.1016 36.7969C63.5163 36.7969 63.8877 36.7467 64.2158 36.6465C64.5439 36.5462 64.8538 36.4163 65.1455 36.2568V37.6514C64.8584 37.8154 64.5508 37.9362 64.2227 38.0137C63.8945 38.0957 63.4912 38.1367 63.0127 38.1367ZM69.0293 27.3633V30.0361C69.0293 30.3141 69.0202 30.5853 69.002 30.8496C68.9883 31.1139 68.9723 31.319 68.9541 31.4648H69.043C69.2025 31.2005 69.3984 30.984 69.6309 30.8154C69.8633 30.6423 70.123 30.5124 70.4102 30.4258C70.7018 30.3392 71.0117 30.2959 71.3398 30.2959C71.9186 30.2959 72.4108 30.3939 72.8164 30.5898C73.222 30.7812 73.5319 31.0798 73.7461 31.4854C73.9648 31.891 74.0742 32.4173 74.0742 33.0645V38H72.4678V33.3652C72.4678 32.7773 72.347 32.3376 72.1055 32.0459C71.8639 31.7497 71.4902 31.6016 70.9844 31.6016C70.4967 31.6016 70.1094 31.7041 69.8223 31.9092C69.5397 32.1097 69.3369 32.4082 69.2139 32.8047C69.0908 33.1966 69.0293 33.6751 69.0293 34.2402V38H67.4229V27.3633H69.0293ZM82.5664 27.3633V30.0361C82.5664 30.3141 82.5573 30.5853 82.5391 30.8496C82.5254 31.1139 82.5094 31.319 82.4912 31.4648H82.5801C82.7396 31.2005 82.9355 30.984 83.168 30.8154C83.4004 30.6423 83.6602 30.5124 83.9473 30.4258C84.2389 30.3392 84.5488 30.2959 84.877 30.2959C85.4557 30.2959 85.9479 30.3939 86.3535 30.5898C86.7591 30.7812 87.069 31.0798 87.2832 31.4854C87.502 31.891 87.6113 32.4173 87.6113 33.0645V38H86.0049V33.3652C86.0049 32.7773 85.8841 32.3376 85.6426 32.0459C85.401 31.7497 85.0273 31.6016 84.5215 31.6016C84.0339 31.6016 83.6465 31.7041 83.3594 31.9092C83.0768 32.1097 82.874 32.4082 82.751 32.8047C82.6279 33.1966 82.5664 33.6751 82.5664 34.2402V38H80.96V27.3633H82.5664ZM93.3271 30.2891C94.2842 30.2891 95.0065 30.501 95.4941 30.9248C95.9863 31.3486 96.2324 32.0094 96.2324 32.9072V38H95.0908L94.7832 36.9268H94.7285C94.5143 37.2002 94.2933 37.4258 94.0654 37.6035C93.8376 37.7812 93.5732 37.9134 93.2725 38C92.9762 38.0911 92.6139 38.1367 92.1855 38.1367C91.7344 38.1367 91.3311 38.0547 90.9756 37.8906C90.6201 37.722 90.3398 37.4668 90.1348 37.125C89.9297 36.7832 89.8271 36.3503 89.8271 35.8262C89.8271 35.0469 90.1165 34.4613 90.6953 34.0693C91.2786 33.6774 92.1582 33.4609 93.334 33.4199L94.6465 33.3721V32.9756C94.6465 32.4515 94.5234 32.0778 94.2773 31.8545C94.0358 31.6312 93.694 31.5195 93.252 31.5195C92.8737 31.5195 92.5068 31.5742 92.1514 31.6836C91.7959 31.793 91.4495 31.9274 91.1123 32.0869L90.5928 30.9521C90.9619 30.7562 91.3812 30.5967 91.8506 30.4736C92.3245 30.3506 92.8167 30.2891 93.3271 30.2891ZM94.6396 34.3838L93.6621 34.418C92.86 34.4453 92.2972 34.582 91.9736 34.8281C91.6501 35.0742 91.4883 35.4115 91.4883 35.8398C91.4883 36.2135 91.5999 36.487 91.8232 36.6602C92.0465 36.8288 92.3405 36.9131 92.7051 36.9131C93.2611 36.9131 93.7214 36.7559 94.0859 36.4414C94.4551 36.1224 94.6396 35.6553 94.6396 35.04V34.3838ZM92.8691 27.2744C92.9922 27.484 93.1426 27.7165 93.3203 27.9717C93.498 28.2269 93.6826 28.4753 93.874 28.7168C94.0654 28.9583 94.234 29.1657 94.3799 29.3389V29.5166H93.3066C93.1335 29.389 92.9398 29.234 92.7256 29.0518C92.5114 28.8649 92.2926 28.6712 92.0693 28.4707C91.8506 28.2656 91.6478 28.0719 91.4609 27.8896C91.2786 27.7028 91.1328 27.5433 91.0234 27.4111V27.2744H92.8691ZM102.926 30.2891C103.778 30.2891 104.441 30.5101 104.915 30.9521C105.394 31.3896 105.633 32.0938 105.633 33.0645V38H104.026V33.3652C104.026 32.7773 103.906 32.3376 103.664 32.0459C103.423 31.7497 103.049 31.6016 102.543 31.6016C101.809 31.6016 101.299 31.8271 101.012 32.2783C100.729 32.7295 100.588 33.3835 100.588 34.2402V38H98.9814V30.4326H100.232L100.458 31.458H100.547C100.711 31.1937 100.914 30.9772 101.155 30.8086C101.401 30.6354 101.675 30.5055 101.976 30.4189C102.281 30.3324 102.598 30.2891 102.926 30.2891ZM110.542 41.3633C109.517 41.3633 108.73 41.1787 108.184 40.8096C107.637 40.4404 107.363 39.9232 107.363 39.2578C107.363 38.793 107.509 38.3988 107.801 38.0752C108.092 37.7562 108.509 37.5352 109.052 37.4121C108.847 37.321 108.669 37.1797 108.519 36.9883C108.373 36.7923 108.3 36.5758 108.3 36.3389C108.3 36.0563 108.38 35.8148 108.539 35.6143C108.699 35.4137 108.938 35.2201 109.257 35.0332C108.86 34.8646 108.541 34.5911 108.3 34.2129C108.063 33.8301 107.944 33.3812 107.944 32.8662C107.944 32.3193 108.061 31.8545 108.293 31.4717C108.525 31.0843 108.865 30.7904 109.312 30.5898C109.758 30.3848 110.298 30.2822 110.932 30.2822C111.068 30.2822 111.216 30.2913 111.376 30.3096C111.54 30.3232 111.69 30.3415 111.827 30.3643C111.968 30.3825 112.076 30.403 112.148 30.4258H114.767V31.3213L113.481 31.5605C113.604 31.7337 113.702 31.932 113.775 32.1553C113.848 32.374 113.885 32.6133 113.885 32.873C113.885 33.6569 113.614 34.2744 113.071 34.7256C112.534 35.1722 111.791 35.3955 110.843 35.3955C110.615 35.3864 110.394 35.3682 110.18 35.3408C110.016 35.4411 109.89 35.5527 109.804 35.6758C109.717 35.7943 109.674 35.9287 109.674 36.0791C109.674 36.2021 109.717 36.3024 109.804 36.3799C109.89 36.4528 110.018 36.5075 110.187 36.5439C110.36 36.5804 110.569 36.5986 110.815 36.5986H112.121C112.951 36.5986 113.584 36.7741 114.021 37.125C114.459 37.4759 114.678 37.9909 114.678 38.6699C114.678 39.5312 114.322 40.1943 113.611 40.6592C112.9 41.1286 111.877 41.3633 110.542 41.3633ZM110.604 40.2354C111.164 40.2354 111.636 40.1807 112.019 40.0713C112.401 39.9619 112.691 39.8047 112.887 39.5996C113.083 39.3991 113.181 39.1598 113.181 38.8818C113.181 38.6357 113.119 38.4466 112.996 38.3145C112.873 38.1823 112.688 38.0911 112.442 38.041C112.196 37.9909 111.891 37.9658 111.526 37.9658H110.337C110.041 37.9658 109.779 38.0114 109.551 38.1025C109.323 38.1982 109.145 38.335 109.018 38.5127C108.895 38.6904 108.833 38.9046 108.833 39.1553C108.833 39.5016 108.986 39.7682 109.291 39.9551C109.601 40.1419 110.038 40.2354 110.604 40.2354ZM110.918 34.3428C111.387 34.3428 111.736 34.2152 111.964 33.96C112.192 33.7002 112.306 33.3356 112.306 32.8662C112.306 32.3558 112.187 31.973 111.95 31.7178C111.718 31.4626 111.371 31.335 110.911 31.335C110.46 31.335 110.116 31.4648 109.879 31.7246C109.646 31.9844 109.53 32.3695 109.53 32.8799C109.53 33.3402 109.646 33.7002 109.879 33.96C110.116 34.2152 110.462 34.3428 110.918 34.3428ZM122.514 38L119.636 30.4326H121.338L122.896 34.876C122.997 35.1585 123.088 35.4639 123.17 35.792C123.252 36.1201 123.309 36.3958 123.341 36.6191H123.396C123.427 36.3867 123.489 36.1087 123.58 35.7852C123.671 35.457 123.765 35.154 123.86 34.876L125.419 30.4326H127.114L124.236 38H122.514ZM131.729 30.2891C132.687 30.2891 133.409 30.501 133.896 30.9248C134.389 31.3486 134.635 32.0094 134.635 32.9072V38H133.493L133.186 36.9268H133.131C132.917 37.2002 132.696 37.4258 132.468 37.6035C132.24 37.7812 131.976 37.9134 131.675 38C131.379 38.0911 131.016 38.1367 130.588 38.1367C130.137 38.1367 129.733 38.0547 129.378 37.8906C129.022 37.722 128.742 37.4668 128.537 37.125C128.332 36.7832 128.229 36.3503 128.229 35.8262C128.229 35.0469 128.519 34.4613 129.098 34.0693C129.681 33.6774 130.561 33.4609 131.736 33.4199L133.049 33.3721V32.9756C133.049 32.4515 132.926 32.0778 132.68 31.8545C132.438 31.6312 132.096 31.5195 131.654 31.5195C131.276 31.5195 130.909 31.5742 130.554 31.6836C130.198 31.793 129.852 31.9274 129.515 32.0869L128.995 30.9521C129.364 30.7562 129.784 30.5967 130.253 30.4736C130.727 30.3506 131.219 30.2891 131.729 30.2891ZM133.042 34.3838L132.064 34.418C131.262 34.4453 130.7 34.582 130.376 34.8281C130.052 35.0742 129.891 35.4115 129.891 35.8398C129.891 36.2135 130.002 36.487 130.226 36.6602C130.449 36.8288 130.743 36.9131 131.107 36.9131C131.663 36.9131 132.124 36.7559 132.488 36.4414C132.857 36.1224 133.042 35.6553 133.042 35.04V34.3838ZM131.271 27.2744C131.395 27.484 131.545 27.7165 131.723 27.9717C131.9 28.2269 132.085 28.4753 132.276 28.7168C132.468 28.9583 132.636 29.1657 132.782 29.3389V29.5166H131.709C131.536 29.389 131.342 29.234 131.128 29.0518C130.914 28.8649 130.695 28.6712 130.472 28.4707C130.253 28.2656 130.05 28.0719 129.863 27.8896C129.681 27.7028 129.535 27.5433 129.426 27.4111V27.2744H131.271ZM144.063 38.1367C143.161 38.1367 142.437 37.8177 141.89 37.1797C141.347 36.5371 141.076 35.596 141.076 34.3564C141.076 33.0804 141.352 32.1234 141.903 31.4854C142.459 30.8428 143.191 30.5215 144.098 30.5215C144.476 30.5215 144.809 30.5716 145.096 30.6719C145.383 30.7721 145.631 30.9089 145.841 31.082C146.05 31.2552 146.228 31.4512 146.374 31.6699H146.449C146.422 31.4967 146.395 31.2712 146.367 30.9932C146.34 30.7152 146.326 30.4759 146.326 30.2754V29.6533H143.735V28.5459H146.326V27.3633H147.939V28.5459H148.999V29.6533H147.939V38H146.675L146.395 36.9678H146.319C146.183 37.1865 146.012 37.3848 145.807 37.5625C145.602 37.7357 145.355 37.8747 145.068 37.9795C144.781 38.0843 144.446 38.1367 144.063 38.1367ZM144.521 36.8311C145.205 36.8311 145.688 36.6419 145.971 36.2637C146.253 35.8854 146.397 35.3158 146.401 34.5547V34.3496C146.401 33.5339 146.265 32.9118 145.991 32.4834C145.722 32.055 145.226 31.8408 144.501 31.8408C143.922 31.8408 143.48 32.0618 143.175 32.5039C142.874 32.946 142.724 33.568 142.724 34.3701C142.724 35.1676 142.874 35.7783 143.175 36.2021C143.48 36.6214 143.929 36.8311 144.521 36.8311ZM157.565 34.1992C157.565 34.8281 157.483 35.3864 157.319 35.874C157.155 36.3617 156.916 36.7741 156.602 37.1113C156.287 37.444 155.909 37.6992 155.467 37.877C155.025 38.0501 154.526 38.1367 153.97 38.1367C153.45 38.1367 152.974 38.0501 152.541 37.877C152.108 37.6992 151.732 37.444 151.413 37.1113C151.099 36.7741 150.855 36.3617 150.682 35.874C150.508 35.3864 150.422 34.8281 150.422 34.1992C150.422 33.3652 150.565 32.6589 150.853 32.0801C151.144 31.4967 151.559 31.0524 152.097 30.7471C152.634 30.4417 153.275 30.2891 154.018 30.2891C154.715 30.2891 155.33 30.4417 155.863 30.7471C156.396 31.0524 156.813 31.4967 157.114 32.0801C157.415 32.6634 157.565 33.3698 157.565 34.1992ZM152.076 34.1992C152.076 34.7507 152.142 35.2223 152.274 35.6143C152.411 36.0062 152.621 36.307 152.903 36.5166C153.186 36.7217 153.55 36.8242 153.997 36.8242C154.444 36.8242 154.808 36.7217 155.091 36.5166C155.373 36.307 155.581 36.0062 155.713 35.6143C155.845 35.2223 155.911 34.7507 155.911 34.1992C155.911 33.6478 155.845 33.1807 155.713 32.7979C155.581 32.4105 155.373 32.1165 155.091 31.916C154.808 31.7109 154.441 31.6084 153.99 31.6084C153.325 31.6084 152.84 31.8317 152.534 32.2783C152.229 32.7249 152.076 33.3652 152.076 34.1992ZM156.28 29.5166H155.405C155.173 29.3571 154.934 29.1816 154.688 28.9902C154.441 28.7943 154.2 28.5869 153.963 28.3682C153.721 28.5869 153.478 28.7943 153.231 28.9902C152.99 29.1816 152.753 29.3571 152.521 29.5166H151.646V29.3389C151.8 29.1657 151.965 28.9766 152.138 28.7715C152.315 28.5618 152.489 28.3477 152.657 28.1289C152.83 27.9102 152.988 27.6982 153.129 27.4932H154.797C154.938 27.6982 155.093 27.9102 155.262 28.1289C155.435 28.3477 155.608 28.5618 155.781 28.7715C155.959 28.9766 156.125 29.1657 156.28 29.3389V29.5166ZM155.706 28.0127C155.893 27.7985 156.055 27.5889 156.191 27.3838C156.333 27.1787 156.476 26.9281 156.622 26.6318H158.017V26.7754C157.821 27.0397 157.59 27.2926 157.326 27.5342C157.066 27.7712 156.809 27.9876 156.554 28.1836H155.706V28.0127ZM161.518 30.4326V38H159.911V30.4326H161.518ZM160.725 27.5342C160.971 27.5342 161.183 27.6003 161.36 27.7324C161.543 27.8646 161.634 28.0924 161.634 28.416C161.634 28.735 161.543 28.9629 161.36 29.0996C161.183 29.2318 160.971 29.2979 160.725 29.2979C160.469 29.2979 160.253 29.2318 160.075 29.0996C159.902 28.9629 159.815 28.735 159.815 28.416C159.815 28.0924 159.902 27.8646 160.075 27.7324C160.253 27.6003 160.469 27.5342 160.725 27.5342ZM171.274 36.8379C171.484 36.8379 171.691 36.8197 171.896 36.7832C172.102 36.7422 172.288 36.6943 172.457 36.6396V37.8564C172.279 37.9339 172.049 38 171.767 38.0547C171.484 38.1094 171.19 38.1367 170.885 38.1367C170.456 38.1367 170.071 38.0661 169.729 37.9248C169.388 37.779 169.117 37.5306 168.916 37.1797C168.715 36.8288 168.615 36.3434 168.615 35.7236V31.6562H167.583V30.9385L168.69 30.3711L169.217 28.751H170.229V30.4326H172.396V31.6562H170.229V35.7031C170.229 36.0859 170.324 36.3708 170.516 36.5576C170.707 36.7445 170.96 36.8379 171.274 36.8379ZM176.102 27.3633V30.0361C176.102 30.3141 176.092 30.5853 176.074 30.8496C176.061 31.1139 176.045 31.319 176.026 31.4648H176.115C176.275 31.2005 176.471 30.984 176.703 30.8154C176.936 30.6423 177.195 30.5124 177.482 30.4258C177.774 30.3392 178.084 30.2959 178.412 30.2959C178.991 30.2959 179.483 30.3939 179.889 30.5898C180.294 30.7812 180.604 31.0798 180.818 31.4854C181.037 31.891 181.146 32.4173 181.146 33.0645V38H179.54V33.3652C179.54 32.7773 179.419 32.3376 179.178 32.0459C178.936 31.7497 178.562 31.6016 178.057 31.6016C177.569 31.6016 177.182 31.7041 176.895 31.9092C176.612 32.1097 176.409 32.4082 176.286 32.8047C176.163 33.1966 176.102 33.6751 176.102 34.2402V38H174.495V27.3633H176.102ZM190.492 30.4326V38H189.228L189.009 36.9814H188.92C188.76 37.2412 188.558 37.4577 188.312 37.6309C188.065 37.7995 187.792 37.9248 187.491 38.0068C187.19 38.0934 186.874 38.1367 186.541 38.1367C185.971 38.1367 185.484 38.041 185.078 37.8496C184.677 37.6536 184.369 37.3529 184.155 36.9473C183.941 36.5417 183.834 36.0176 183.834 35.375V30.4326H185.447V35.0742C185.447 35.6621 185.566 36.1019 185.803 36.3936C186.044 36.6852 186.418 36.8311 186.924 36.8311C187.411 36.8311 187.799 36.7308 188.086 36.5303C188.373 36.3298 188.576 36.0335 188.694 35.6416C188.817 35.2497 188.879 34.7689 188.879 34.1992V30.4326H190.492ZM188.763 27.7939C188.763 28.1449 188.662 28.4274 188.462 28.6416C188.261 28.8512 187.986 28.9971 187.635 29.0791L187.573 29.7012H186.623L186.5 28.6074C186.846 28.5527 187.099 28.4684 187.259 28.3545C187.418 28.2406 187.498 28.0856 187.498 27.8896C187.498 27.7028 187.43 27.5706 187.293 27.4932C187.161 27.4111 186.988 27.3701 186.773 27.3701C186.618 27.3701 186.47 27.3815 186.329 27.4043C186.192 27.4225 186.067 27.4476 185.953 27.4795V26.5635C186.067 26.527 186.211 26.4974 186.384 26.4746C186.562 26.4518 186.751 26.4404 186.951 26.4404C187.544 26.4404 187.993 26.5566 188.298 26.7891C188.608 27.0215 188.763 27.3564 188.763 27.7939Z" fill="#031A6E"/>
</svg>
