<svg width="375" height="104" viewBox="0 0 375 104" fill="none" xmlns="http://www.w3.org/2000/svg">
<rect width="375" height="104" fill="#EFF0FB"/>
<rect x="43" y="70" width="292" height="4" fill="#CCECFB"/>
<circle cx="36" cy="72" r="12" fill="#30CD60"/>
<path d="M37.8467 77H36.2334V70.5674C36.2334 70.3532 36.2357 70.139 36.2402 69.9248C36.2448 69.7106 36.2493 69.501 36.2539 69.2959C36.263 69.0908 36.2744 68.8949 36.2881 68.708C36.1924 68.8128 36.0739 68.9268 35.9326 69.0498C35.7959 69.1729 35.6501 69.3005 35.4951 69.4326L34.3467 70.3486L33.54 69.3301L36.5068 67.0059H37.8467V77Z" fill="white"/>
<circle cx="137" cy="72" r="12" fill="#CCECFB"/>
<path d="M139.891 76H133.123V74.79L135.714 72.165C136.215 71.6546 136.628 71.2148 136.951 70.8457C137.275 70.472 137.514 70.1188 137.669 69.7861C137.828 69.4535 137.908 69.0911 137.908 68.6992C137.908 68.2161 137.769 67.8516 137.491 67.6055C137.213 67.3548 136.846 67.2295 136.391 67.2295C135.958 67.2295 135.557 67.3161 135.188 67.4893C134.823 67.6579 134.445 67.8994 134.053 68.2139L133.171 67.1543C133.449 66.9173 133.745 66.7008 134.06 66.5049C134.379 66.3089 134.734 66.154 135.126 66.04C135.518 65.9215 135.965 65.8623 136.466 65.8623C137.099 65.8623 137.646 65.9762 138.106 66.2041C138.567 66.4274 138.92 66.7396 139.166 67.1406C139.417 67.5417 139.542 68.0088 139.542 68.542C139.542 69.0798 139.435 69.5765 139.221 70.0322C139.007 70.488 138.701 70.9391 138.305 71.3857C137.908 71.8278 137.437 72.3086 136.89 72.8281L135.16 74.5166V74.5918H139.891V76Z" fill="#5AB5E5"/>
<circle cx="238" cy="72" r="12" fill="#CCECFB"/>
<path d="M240.508 68.2891C240.508 68.7402 240.417 69.1322 240.234 69.4648C240.052 69.7975 239.801 70.071 239.482 70.2852C239.168 70.4948 238.803 70.6452 238.389 70.7363V70.7842C239.186 70.8844 239.788 71.1351 240.193 71.5361C240.604 71.9372 240.809 72.4681 240.809 73.1289C240.809 73.7077 240.67 74.2249 240.392 74.6807C240.114 75.1318 239.688 75.4873 239.113 75.7471C238.539 76.0068 237.801 76.1367 236.898 76.1367C236.356 76.1367 235.853 76.0934 235.388 76.0068C234.927 75.9202 234.49 75.7812 234.075 75.5898V74.1611C234.499 74.3708 234.95 74.5326 235.429 74.6465C235.907 74.7604 236.361 74.8174 236.789 74.8174C237.623 74.8174 238.218 74.6624 238.573 74.3525C238.929 74.0381 239.106 73.6051 239.106 73.0537C239.106 72.6982 239.013 72.4066 238.826 72.1787C238.644 71.9508 238.359 71.7799 237.972 71.666C237.589 71.5521 237.094 71.4951 236.488 71.4951H235.606V70.2031H236.495C237.074 70.2031 237.539 70.1348 237.89 69.998C238.241 69.8568 238.493 69.6631 238.648 69.417C238.808 69.1709 238.888 68.8838 238.888 68.5557C238.888 68.1273 238.749 67.7946 238.471 67.5576C238.193 67.3161 237.78 67.1953 237.233 67.1953C236.896 67.1953 236.589 67.234 236.311 67.3115C236.037 67.389 235.784 67.487 235.552 67.6055C235.319 67.724 235.098 67.8516 234.889 67.9883L234.116 66.874C234.494 66.5915 234.946 66.3522 235.47 66.1562C235.994 65.9603 236.604 65.8623 237.302 65.8623C238.327 65.8623 239.118 66.0833 239.674 66.5254C240.23 66.9629 240.508 67.5508 240.508 68.2891Z" fill="#5AB5E5"/>
<circle cx="339" cy="72" r="12" fill="#CCECFB"/>
<path d="M342.253 73.8057H340.899V76H339.313V73.8057H334.768V72.5889L339.334 65.9785H340.899V72.4727H342.253V73.8057ZM339.313 72.4727V69.9912C339.313 69.7861 339.316 69.5788 339.32 69.3691C339.329 69.1549 339.339 68.9499 339.348 68.7539C339.357 68.5579 339.366 68.3779 339.375 68.2139C339.384 68.0452 339.391 67.9062 339.396 67.7969H339.341C339.254 67.9792 339.159 68.166 339.054 68.3574C338.949 68.5443 338.837 68.7266 338.719 68.9043L336.258 72.4727H339.313Z" fill="#5AB5E5"/>
<path d="M24 54V28C24 23.5817 27.5817 20 32 20H256C260.418 20 264 23.5817 264 28V39.6569C264 44.0751 260.418 47.6569 256 47.6569H33.2464C30.9679 47.6569 28.7975 48.6284 27.2797 50.3278L24 54Z" fill="white" stroke="#CCECFB" stroke-linejoin="round"/>
<path d="M42.9346 38H41.0479L37.9375 33.4609L36.9531 34.2607V38H35.3125V28.0059H36.9531V32.7842C37.1536 32.5381 37.3564 32.292 37.5615 32.0459C37.7666 31.7998 37.9717 31.5537 38.1768 31.3076L40.9932 28.0059H42.8457L39.1133 32.3809L42.9346 38ZM46.1963 27.3633V30.0361C46.1963 30.3141 46.1872 30.5853 46.1689 30.8496C46.1553 31.1139 46.1393 31.319 46.1211 31.4648H46.21C46.3695 31.2005 46.5654 30.984 46.7979 30.8154C47.0303 30.6423 47.29 30.5124 47.5771 30.4258C47.8688 30.3392 48.1787 30.2959 48.5068 30.2959C49.0856 30.2959 49.5778 30.3939 49.9834 30.5898C50.389 30.7812 50.6989 31.0798 50.9131 31.4854C51.1318 31.891 51.2412 32.4173 51.2412 33.0645V38H49.6348V33.3652C49.6348 32.7773 49.514 32.3376 49.2725 32.0459C49.0309 31.7497 48.6572 31.6016 48.1514 31.6016C47.6637 31.6016 47.2764 31.7041 46.9893 31.9092C46.7067 32.1097 46.5039 32.4082 46.3809 32.8047C46.2578 33.1966 46.1963 33.6751 46.1963 34.2402V38H44.5898V27.3633H46.1963ZM56.957 30.2891C57.9141 30.2891 58.6364 30.501 59.124 30.9248C59.6162 31.3486 59.8623 32.0094 59.8623 32.9072V38H58.7207L58.4131 36.9268H58.3584C58.1442 37.2002 57.9232 37.4258 57.6953 37.6035C57.4674 37.7812 57.2031 37.9134 56.9023 38C56.6061 38.0911 56.2438 38.1367 55.8154 38.1367C55.3643 38.1367 54.9609 38.0547 54.6055 37.8906C54.25 37.722 53.9697 37.4668 53.7646 37.125C53.5596 36.7832 53.457 36.3503 53.457 35.8262C53.457 35.0469 53.7464 34.4613 54.3252 34.0693C54.9085 33.6774 55.7881 33.4609 56.9639 33.4199L58.2764 33.3721V32.9756C58.2764 32.4515 58.1533 32.0778 57.9072 31.8545C57.6657 31.6312 57.3239 31.5195 56.8818 31.5195C56.5036 31.5195 56.1367 31.5742 55.7812 31.6836C55.4258 31.793 55.0794 31.9274 54.7422 32.0869L54.2227 30.9521C54.5918 30.7562 55.0111 30.5967 55.4805 30.4736C55.9544 30.3506 56.4466 30.2891 56.957 30.2891ZM58.2695 34.3838L57.292 34.418C56.4899 34.4453 55.9271 34.582 55.6035 34.8281C55.2799 35.0742 55.1182 35.4115 55.1182 35.8398C55.1182 36.2135 55.2298 36.487 55.4531 36.6602C55.6764 36.8288 55.9704 36.9131 56.335 36.9131C56.891 36.9131 57.3512 36.7559 57.7158 36.4414C58.085 36.1224 58.2695 35.6553 58.2695 35.04V34.3838ZM59.2334 27.2744V27.4111C59.124 27.5433 58.9759 27.7028 58.7891 27.8896C58.6022 28.0719 58.3994 28.2656 58.1807 28.4707C57.9619 28.6712 57.7454 28.8649 57.5312 29.0518C57.3171 29.234 57.1234 29.389 56.9502 29.5166H55.877V29.3389C56.0273 29.1657 56.1937 28.9583 56.376 28.7168C56.5628 28.4753 56.7451 28.2269 56.9229 27.9717C57.1051 27.7165 57.2578 27.484 57.3809 27.2744H59.2334ZM64.2178 30.4326V38H62.6113V30.4326H64.2178ZM63.4248 27.5342C63.6709 27.5342 63.8828 27.6003 64.0605 27.7324C64.2428 27.8646 64.334 28.0924 64.334 28.416C64.334 28.735 64.2428 28.9629 64.0605 29.0996C63.8828 29.2318 63.6709 29.2979 63.4248 29.2979C63.1696 29.2979 62.9531 29.2318 62.7754 29.0996C62.6022 28.9629 62.5156 28.735 62.5156 28.416C62.5156 28.0924 62.6022 27.8646 62.7754 27.7324C62.9531 27.6003 63.1696 27.5342 63.4248 27.5342ZM75.9639 41.3564V38.1436C75.9639 37.9613 75.9684 37.763 75.9775 37.5488C75.9912 37.3346 76.0117 37.1387 76.0391 36.9609H75.957C75.752 37.2936 75.4671 37.5739 75.1025 37.8018C74.738 38.0251 74.2617 38.1367 73.6738 38.1367C72.7852 38.1367 72.0697 37.8086 71.5273 37.1523C70.985 36.4915 70.7139 35.5163 70.7139 34.2266C70.7139 33.3698 70.8392 32.6497 71.0898 32.0664C71.3405 31.4831 71.6914 31.041 72.1426 30.7402C72.5983 30.4395 73.127 30.2891 73.7285 30.2891C74.3073 30.2891 74.7767 30.403 75.1367 30.6309C75.5013 30.8542 75.793 31.1299 76.0117 31.458H76.0664L76.2441 30.4326H77.5771V41.3564H75.9639ZM74.1523 36.8447C74.6081 36.8447 74.9727 36.7581 75.2461 36.585C75.5195 36.4118 75.7178 36.1497 75.8408 35.7988C75.9639 35.4434 76.0299 35.0036 76.0391 34.4795V34.2334C76.0391 33.3766 75.9001 32.7249 75.6221 32.2783C75.3441 31.8317 74.8496 31.6084 74.1387 31.6084C73.5371 31.6084 73.0905 31.8431 72.7988 32.3125C72.5072 32.7773 72.3613 33.4245 72.3613 34.2539C72.3613 35.0924 72.5072 35.735 72.7988 36.1816C73.0951 36.6237 73.5462 36.8447 74.1523 36.8447ZM86.9775 30.4326V38H85.7129L85.4941 36.9814H85.4053C85.2458 37.2412 85.043 37.4577 84.7969 37.6309C84.5508 37.7995 84.2773 37.9248 83.9766 38.0068C83.6758 38.0934 83.359 38.1367 83.0264 38.1367C82.4567 38.1367 81.9691 38.041 81.5635 37.8496C81.1624 37.6536 80.8548 37.3529 80.6406 36.9473C80.4264 36.5417 80.3193 36.0176 80.3193 35.375V30.4326H81.9326V35.0742C81.9326 35.6621 82.0511 36.1019 82.2881 36.3936C82.5296 36.6852 82.9033 36.8311 83.4092 36.8311C83.8968 36.8311 84.2842 36.7308 84.5713 36.5303C84.8584 36.3298 85.0612 36.0335 85.1797 35.6416C85.3027 35.2497 85.3643 34.7689 85.3643 34.1992V30.4326H86.9775ZM92.748 30.2891C93.7051 30.2891 94.4274 30.501 94.915 30.9248C95.4072 31.3486 95.6533 32.0094 95.6533 32.9072V38H94.5117L94.2041 36.9268H94.1494C93.9352 37.2002 93.7142 37.4258 93.4863 37.6035C93.2585 37.7812 92.9941 37.9134 92.6934 38C92.3971 38.0911 92.0348 38.1367 91.6064 38.1367C91.1553 38.1367 90.752 38.0547 90.3965 37.8906C90.041 37.722 89.7607 37.4668 89.5557 37.125C89.3506 36.7832 89.248 36.3503 89.248 35.8262C89.248 35.0469 89.5374 34.4613 90.1162 34.0693C90.6995 33.6774 91.5791 33.4609 92.7549 33.4199L94.0674 33.3721V32.9756C94.0674 32.4515 93.9443 32.0778 93.6982 31.8545C93.4567 31.6312 93.1149 31.5195 92.6729 31.5195C92.2946 31.5195 91.9277 31.5742 91.5723 31.6836C91.2168 31.793 90.8704 31.9274 90.5332 32.0869L90.0137 30.9521C90.3828 30.7562 90.8021 30.5967 91.2715 30.4736C91.7454 30.3506 92.2376 30.2891 92.748 30.2891ZM94.0605 34.3838L93.083 34.418C92.2809 34.4453 91.7181 34.582 91.3945 34.8281C91.071 35.0742 90.9092 35.4115 90.9092 35.8398C90.9092 36.2135 91.0208 36.487 91.2441 36.6602C91.4674 36.8288 91.7614 36.9131 92.126 36.9131C92.682 36.9131 93.1423 36.7559 93.5068 36.4414C93.876 36.1224 94.0605 35.6553 94.0605 35.04V34.3838ZM95.0244 27.2744V27.4111C94.915 27.5433 94.7669 27.7028 94.5801 27.8896C94.3932 28.0719 94.1904 28.2656 93.9717 28.4707C93.7529 28.6712 93.5365 28.8649 93.3223 29.0518C93.1081 29.234 92.9144 29.389 92.7412 29.5166H91.668V29.3389C91.8184 29.1657 91.9847 28.9583 92.167 28.7168C92.3538 28.4753 92.5361 28.2269 92.7139 27.9717C92.8962 27.7165 93.0488 27.484 93.1719 27.2744H95.0244ZM101.219 36.8379C101.428 36.8379 101.636 36.8197 101.841 36.7832C102.046 36.7422 102.233 36.6943 102.401 36.6396V37.8564C102.224 37.9339 101.993 38 101.711 38.0547C101.428 38.1094 101.134 38.1367 100.829 38.1367C100.401 38.1367 100.016 38.0661 99.6738 37.9248C99.332 37.779 99.0609 37.5306 98.8604 37.1797C98.6598 36.8288 98.5596 36.3434 98.5596 35.7236V31.6562H97.5273V30.9385L98.6348 30.3711L99.1611 28.751H100.173V30.4326H102.34V31.6562H100.173V35.7031C100.173 36.0859 100.269 36.3708 100.46 36.5576C100.651 36.7445 100.904 36.8379 101.219 36.8379ZM110.306 38L107.428 30.4326H109.13L110.688 34.876C110.789 35.1585 110.88 35.4639 110.962 35.792C111.044 36.1201 111.101 36.3958 111.133 36.6191H111.188C111.219 36.3867 111.281 36.1087 111.372 35.7852C111.463 35.457 111.557 35.154 111.652 34.876L113.211 30.4326H114.906L112.028 38H110.306ZM119.569 30.2891C120.244 30.2891 120.823 30.4281 121.306 30.7061C121.789 30.984 122.16 31.3783 122.42 31.8887C122.68 32.3991 122.81 33.0098 122.81 33.7207V34.582H117.758C117.776 35.3158 117.972 35.8809 118.346 36.2773C118.724 36.6738 119.253 36.8721 119.932 36.8721C120.415 36.8721 120.848 36.8265 121.23 36.7354C121.618 36.6396 122.017 36.5007 122.427 36.3184V37.624C122.049 37.8018 121.663 37.9316 121.271 38.0137C120.88 38.0957 120.41 38.1367 119.863 38.1367C119.12 38.1367 118.466 37.9932 117.901 37.7061C117.341 37.4144 116.901 36.9814 116.582 36.4072C116.268 35.833 116.11 35.1198 116.11 34.2676C116.11 33.4199 116.254 32.6999 116.541 32.1074C116.828 31.515 117.231 31.0638 117.751 30.7539C118.271 30.444 118.877 30.2891 119.569 30.2891ZM119.569 31.499C119.063 31.499 118.653 31.6631 118.339 31.9912C118.029 32.3193 117.847 32.8001 117.792 33.4336H121.237C121.233 33.0553 121.169 32.7204 121.046 32.4287C120.927 32.137 120.745 31.9092 120.499 31.7451C120.257 31.5811 119.948 31.499 119.569 31.499ZM117.279 29.5166V29.3457C117.434 29.1725 117.598 28.9834 117.771 28.7783C117.949 28.5687 118.122 28.3545 118.291 28.1357C118.464 27.917 118.621 27.7051 118.763 27.5H120.438C120.583 27.7051 120.741 27.917 120.909 28.1357C121.078 28.3545 121.249 28.5687 121.422 28.7783C121.6 28.9834 121.766 29.1725 121.921 29.3457V29.5166H121.039C120.807 29.3571 120.57 29.1816 120.328 28.9902C120.087 28.7943 119.843 28.5869 119.597 28.3682C119.36 28.5869 119.118 28.7943 118.872 28.9902C118.626 29.1816 118.387 29.3571 118.154 29.5166H117.279ZM117.02 28.1836C116.76 27.9876 116.5 27.7712 116.24 27.5342C115.98 27.2926 115.748 27.0397 115.543 26.7754V26.6318H116.938C117.083 26.9281 117.225 27.181 117.361 27.3906C117.503 27.5957 117.664 27.8053 117.847 28.0195V28.1836H117.02ZM130.864 27.3633V32.5039C130.864 32.7363 130.855 32.9915 130.837 33.2695C130.819 33.543 130.8 33.8005 130.782 34.042H130.816C130.935 33.8825 131.076 33.6956 131.24 33.4814C131.409 33.2673 131.568 33.0804 131.719 32.9209L134.029 30.4326H135.875L132.847 33.6865L136.073 38H134.187L131.767 34.6777L130.864 35.4502V38H129.258V27.3633H130.864ZM140.798 30.2891C141.472 30.2891 142.051 30.4281 142.534 30.7061C143.017 30.984 143.389 31.3783 143.648 31.8887C143.908 32.3991 144.038 33.0098 144.038 33.7207V34.582H138.986C139.005 35.3158 139.201 35.8809 139.574 36.2773C139.952 36.6738 140.481 36.8721 141.16 36.8721C141.643 36.8721 142.076 36.8265 142.459 36.7354C142.846 36.6396 143.245 36.5007 143.655 36.3184V37.624C143.277 37.8018 142.892 37.9316 142.5 38.0137C142.108 38.0957 141.639 38.1367 141.092 38.1367C140.349 38.1367 139.695 37.9932 139.13 37.7061C138.569 37.4144 138.13 36.9814 137.811 36.4072C137.496 35.833 137.339 35.1198 137.339 34.2676C137.339 33.4199 137.482 32.6999 137.77 32.1074C138.057 31.515 138.46 31.0638 138.979 30.7539C139.499 30.444 140.105 30.2891 140.798 30.2891ZM140.798 31.499C140.292 31.499 139.882 31.6631 139.567 31.9912C139.257 32.3193 139.075 32.8001 139.021 33.4336H142.466C142.461 33.0553 142.397 32.7204 142.274 32.4287C142.156 32.137 141.974 31.9092 141.728 31.7451C141.486 31.5811 141.176 31.499 140.798 31.499ZM143.088 29.5166H142.213C141.98 29.3571 141.741 29.1816 141.495 28.9902C141.249 28.7943 141.007 28.5869 140.771 28.3682C140.529 28.5869 140.285 28.7943 140.039 28.9902C139.798 29.1816 139.561 29.3571 139.328 29.5166H138.453V29.3389C138.608 29.1657 138.772 28.9766 138.945 28.7715C139.123 28.5618 139.296 28.3477 139.465 28.1289C139.638 27.9102 139.795 27.6982 139.937 27.4932H141.604C141.746 27.6982 141.901 27.9102 142.069 28.1289C142.243 28.3477 142.416 28.5618 142.589 28.7715C142.767 28.9766 142.933 29.1657 143.088 29.3389V29.5166ZM142.514 28.0127C142.701 27.7985 142.862 27.5889 142.999 27.3838C143.14 27.1787 143.284 26.9281 143.43 26.6318H144.824V26.7754C144.628 27.0397 144.398 27.2926 144.134 27.5342C143.874 27.7712 143.617 27.9876 143.361 28.1836H142.514V28.0127ZM152.093 27.3633V30.0361C152.093 30.3141 152.084 30.5853 152.065 30.8496C152.052 31.1139 152.036 31.319 152.018 31.4648H152.106C152.266 31.2005 152.462 30.984 152.694 30.8154C152.927 30.6423 153.187 30.5124 153.474 30.4258C153.765 30.3392 154.075 30.2959 154.403 30.2959C154.982 30.2959 155.474 30.3939 155.88 30.5898C156.285 30.7812 156.595 31.0798 156.81 31.4854C157.028 31.891 157.138 32.4173 157.138 33.0645V38H155.531V33.3652C155.531 32.7773 155.41 32.3376 155.169 32.0459C154.927 31.7497 154.554 31.6016 154.048 31.6016C153.56 31.6016 153.173 31.7041 152.886 31.9092C152.603 32.1097 152.4 32.4082 152.277 32.8047C152.154 33.1966 152.093 33.6751 152.093 34.2402V38H150.486V27.3633H152.093ZM166.586 34.1992C166.586 34.8281 166.504 35.3864 166.34 35.874C166.176 36.3617 165.937 36.7741 165.622 37.1113C165.308 37.444 164.929 37.6992 164.487 37.877C164.045 38.0501 163.546 38.1367 162.99 38.1367C162.471 38.1367 161.994 38.0501 161.562 37.877C161.129 37.6992 160.753 37.444 160.434 37.1113C160.119 36.7741 159.875 36.3617 159.702 35.874C159.529 35.3864 159.442 34.8281 159.442 34.1992C159.442 33.3652 159.586 32.6589 159.873 32.0801C160.165 31.4967 160.579 31.0524 161.117 30.7471C161.655 30.4417 162.295 30.2891 163.038 30.2891C163.735 30.2891 164.351 30.4417 164.884 30.7471C165.417 31.0524 165.834 31.4967 166.135 32.0801C166.436 32.6634 166.586 33.3698 166.586 34.1992ZM161.097 34.1992C161.097 34.7507 161.163 35.2223 161.295 35.6143C161.432 36.0062 161.641 36.307 161.924 36.5166C162.206 36.7217 162.571 36.8242 163.018 36.8242C163.464 36.8242 163.829 36.7217 164.111 36.5166C164.394 36.307 164.601 36.0062 164.733 35.6143C164.866 35.2223 164.932 34.7507 164.932 34.1992C164.932 33.6478 164.866 33.1807 164.733 32.7979C164.601 32.4105 164.394 32.1165 164.111 31.916C163.829 31.7109 163.462 31.6084 163.011 31.6084C162.345 31.6084 161.86 31.8317 161.555 32.2783C161.249 32.7249 161.097 33.3652 161.097 34.1992ZM171.898 30.2891C172.855 30.2891 173.578 30.501 174.065 30.9248C174.558 31.3486 174.804 32.0094 174.804 32.9072V38H173.662L173.354 36.9268H173.3C173.086 37.2002 172.865 37.4258 172.637 37.6035C172.409 37.7812 172.145 37.9134 171.844 38C171.548 38.0911 171.185 38.1367 170.757 38.1367C170.306 38.1367 169.902 38.0547 169.547 37.8906C169.191 37.722 168.911 37.4668 168.706 37.125C168.501 36.7832 168.398 36.3503 168.398 35.8262C168.398 35.0469 168.688 34.4613 169.267 34.0693C169.85 33.6774 170.729 33.4609 171.905 33.4199L173.218 33.3721V32.9756C173.218 32.4515 173.095 32.0778 172.849 31.8545C172.607 31.6312 172.265 31.5195 171.823 31.5195C171.445 31.5195 171.078 31.5742 170.723 31.6836C170.367 31.793 170.021 31.9274 169.684 32.0869L169.164 30.9521C169.533 30.7562 169.952 30.5967 170.422 30.4736C170.896 30.3506 171.388 30.2891 171.898 30.2891ZM173.211 34.3838L172.233 34.418C171.431 34.4453 170.868 34.582 170.545 34.8281C170.221 35.0742 170.06 35.4115 170.06 35.8398C170.06 36.2135 170.171 36.487 170.395 36.6602C170.618 36.8288 170.912 36.9131 171.276 36.9131C171.832 36.9131 172.293 36.7559 172.657 36.4414C173.026 36.1224 173.211 35.6553 173.211 35.04V34.3838ZM171.837 40.666C171.582 40.666 171.365 40.5977 171.188 40.4609C171.014 40.3288 170.928 40.1032 170.928 39.7842C170.928 39.4606 171.014 39.2327 171.188 39.1006C171.365 38.9684 171.582 38.9023 171.837 38.9023C172.088 38.9023 172.302 38.9684 172.479 39.1006C172.657 39.2327 172.746 39.4606 172.746 39.7842C172.746 40.1032 172.657 40.3288 172.479 40.4609C172.302 40.5977 172.088 40.666 171.837 40.666ZM180.602 38.1367C179.886 38.1367 179.266 37.9977 178.742 37.7197C178.218 37.4417 177.815 37.0156 177.532 36.4414C177.25 35.8672 177.108 35.138 177.108 34.2539C177.108 33.3333 177.263 32.5814 177.573 31.998C177.883 31.4147 178.312 30.984 178.858 30.7061C179.41 30.4281 180.041 30.2891 180.752 30.2891C181.203 30.2891 181.611 30.3346 181.976 30.4258C182.345 30.5124 182.657 30.6195 182.912 30.7471L182.434 32.0322C182.156 31.9183 181.871 31.8226 181.579 31.7451C181.287 31.6676 181.007 31.6289 180.738 31.6289C180.296 31.6289 179.927 31.7269 179.631 31.9229C179.339 32.1188 179.12 32.4105 178.975 32.7979C178.833 33.1852 178.763 33.666 178.763 34.2402C178.763 34.7962 178.836 35.2656 178.981 35.6484C179.127 36.0267 179.344 36.3138 179.631 36.5098C179.918 36.7012 180.271 36.7969 180.69 36.7969C181.105 36.7969 181.477 36.7467 181.805 36.6465C182.133 36.5462 182.443 36.4163 182.734 36.2568V37.6514C182.447 37.8154 182.14 37.9362 181.812 38.0137C181.483 38.0957 181.08 38.1367 180.602 38.1367ZM186.618 27.3633V30.0361C186.618 30.3141 186.609 30.5853 186.591 30.8496C186.577 31.1139 186.561 31.319 186.543 31.4648H186.632C186.791 31.2005 186.987 30.984 187.22 30.8154C187.452 30.6423 187.712 30.5124 187.999 30.4258C188.291 30.3392 188.601 30.2959 188.929 30.2959C189.507 30.2959 190 30.3939 190.405 30.5898C190.811 30.7812 191.121 31.0798 191.335 31.4854C191.554 31.891 191.663 32.4173 191.663 33.0645V38H190.057V33.3652C190.057 32.7773 189.936 32.3376 189.694 32.0459C189.453 31.7497 189.079 31.6016 188.573 31.6016C188.086 31.6016 187.698 31.7041 187.411 31.9092C187.129 32.1097 186.926 32.4082 186.803 32.8047C186.68 33.1966 186.618 33.6751 186.618 34.2402V38H185.012V27.3633H186.618ZM201.598 38.1367C200.882 38.1367 200.262 37.9977 199.738 37.7197C199.214 37.4417 198.811 37.0156 198.528 36.4414C198.246 35.8672 198.104 35.138 198.104 34.2539C198.104 33.3333 198.259 32.5814 198.569 31.998C198.879 31.4147 199.308 30.984 199.854 30.7061C200.406 30.4281 201.037 30.2891 201.748 30.2891C202.199 30.2891 202.607 30.3346 202.972 30.4258C203.341 30.5124 203.653 30.6195 203.908 30.7471L203.43 32.0322C203.152 31.9183 202.867 31.8226 202.575 31.7451C202.284 31.6676 202.003 31.6289 201.734 31.6289C201.292 31.6289 200.923 31.7269 200.627 31.9229C200.335 32.1188 200.117 32.4105 199.971 32.7979C199.829 33.1852 199.759 33.666 199.759 34.2402C199.759 34.7962 199.832 35.2656 199.978 35.6484C200.123 36.0267 200.34 36.3138 200.627 36.5098C200.914 36.7012 201.267 36.7969 201.687 36.7969C202.101 36.7969 202.473 36.7467 202.801 36.6465C203.129 36.5462 203.439 36.4163 203.73 36.2568V37.6514C203.443 37.8154 203.136 37.9362 202.808 38.0137C202.479 38.0957 202.076 38.1367 201.598 38.1367ZM212.604 30.4326V38H211.34L211.121 36.9814H211.032C210.873 37.2412 210.67 37.4577 210.424 37.6309C210.178 37.7995 209.904 37.9248 209.604 38.0068C209.303 38.0934 208.986 38.1367 208.653 38.1367C208.084 38.1367 207.596 38.041 207.19 37.8496C206.789 37.6536 206.482 37.3529 206.268 36.9473C206.053 36.5417 205.946 36.0176 205.946 35.375V30.4326H207.56V35.0742C207.56 35.6621 207.678 36.1019 207.915 36.3936C208.157 36.6852 208.53 36.8311 209.036 36.8311C209.524 36.8311 209.911 36.7308 210.198 36.5303C210.485 36.3298 210.688 36.0335 210.807 35.6416C210.93 35.2497 210.991 34.7689 210.991 34.1992V30.4326H212.604ZM210.875 27.7939C210.875 28.1449 210.775 28.4274 210.574 28.6416C210.374 28.8512 210.098 28.9971 209.747 29.0791L209.686 29.7012H208.735L208.612 28.6074C208.959 28.5527 209.212 28.4684 209.371 28.3545C209.531 28.2406 209.61 28.0856 209.61 27.8896C209.61 27.7028 209.542 27.5706 209.405 27.4932C209.273 27.4111 209.1 27.3701 208.886 27.3701C208.731 27.3701 208.583 27.3815 208.441 27.4043C208.305 27.4225 208.179 27.4476 208.065 27.4795V26.5635C208.179 26.527 208.323 26.4974 208.496 26.4746C208.674 26.4518 208.863 26.4404 209.063 26.4404C209.656 26.4404 210.105 26.5566 210.41 26.7891C210.72 27.0215 210.875 27.3564 210.875 27.7939ZM218.375 30.2891C219.332 30.2891 220.054 30.501 220.542 30.9248C221.034 31.3486 221.28 32.0094 221.28 32.9072V38H220.139L219.831 36.9268H219.776C219.562 37.2002 219.341 37.4258 219.113 37.6035C218.885 37.7812 218.621 37.9134 218.32 38C218.024 38.0911 217.662 38.1367 217.233 38.1367C216.782 38.1367 216.379 38.0547 216.023 37.8906C215.668 37.722 215.388 37.4668 215.183 37.125C214.978 36.7832 214.875 36.3503 214.875 35.8262C214.875 35.0469 215.164 34.4613 215.743 34.0693C216.326 33.6774 217.206 33.4609 218.382 33.4199L219.694 33.3721V32.9756C219.694 32.4515 219.571 32.0778 219.325 31.8545C219.084 31.6312 218.742 31.5195 218.3 31.5195C217.922 31.5195 217.555 31.5742 217.199 31.6836C216.844 31.793 216.497 31.9274 216.16 32.0869L215.641 30.9521C216.01 30.7562 216.429 30.5967 216.898 30.4736C217.372 30.3506 217.865 30.2891 218.375 30.2891ZM219.688 34.3838L218.71 34.418C217.908 34.4453 217.345 34.582 217.021 34.8281C216.698 35.0742 216.536 35.4115 216.536 35.8398C216.536 36.2135 216.648 36.487 216.871 36.6602C217.094 36.8288 217.388 36.9131 217.753 36.9131C218.309 36.9131 218.769 36.7559 219.134 36.4414C219.503 36.1224 219.688 35.6553 219.688 35.04V34.3838ZM229.772 27.3633V29.9268C229.772 30.223 229.763 30.5146 229.745 30.8018C229.731 31.0843 229.718 31.3053 229.704 31.4648H229.772C229.978 31.1367 230.262 30.861 230.627 30.6377C230.996 30.4098 231.468 30.2959 232.042 30.2959C232.94 30.2959 233.662 30.6263 234.209 31.2871C234.756 31.9434 235.029 32.9163 235.029 34.2061C235.029 35.0628 234.904 35.7829 234.653 36.3662C234.403 36.9495 234.049 37.3916 233.594 37.6924C233.143 37.9886 232.612 38.1367 232.001 38.1367C231.427 38.1367 230.962 38.0319 230.606 37.8223C230.256 37.6081 229.98 37.3597 229.779 37.0771H229.663L229.369 38H228.166V27.3633H229.772ZM231.618 31.6016C231.162 31.6016 230.8 31.6927 230.531 31.875C230.267 32.0573 230.076 32.3307 229.957 32.6953C229.839 33.0553 229.777 33.5133 229.772 34.0693V34.2129C229.772 35.056 229.905 35.7008 230.169 36.1475C230.438 36.5941 230.925 36.8174 231.632 36.8174C232.192 36.8174 232.623 36.5918 232.924 36.1406C233.225 35.6849 233.375 35.0332 233.375 34.1855C233.375 33.3288 233.225 32.6839 232.924 32.251C232.628 31.818 232.192 31.6016 231.618 31.6016ZM240.355 30.2891C241.312 30.2891 242.035 30.501 242.522 30.9248C243.015 31.3486 243.261 32.0094 243.261 32.9072V38H242.119L241.812 36.9268H241.757C241.543 37.2002 241.322 37.4258 241.094 37.6035C240.866 37.7812 240.602 37.9134 240.301 38C240.005 38.0911 239.642 38.1367 239.214 38.1367C238.763 38.1367 238.359 38.0547 238.004 37.8906C237.648 37.722 237.368 37.4668 237.163 37.125C236.958 36.7832 236.855 36.3503 236.855 35.8262C236.855 35.0469 237.145 34.4613 237.724 34.0693C238.307 33.6774 239.187 33.4609 240.362 33.4199L241.675 33.3721V32.9756C241.675 32.4515 241.552 32.0778 241.306 31.8545C241.064 31.6312 240.722 31.5195 240.28 31.5195C239.902 31.5195 239.535 31.5742 239.18 31.6836C238.824 31.793 238.478 31.9274 238.141 32.0869L237.621 30.9521C237.99 30.7562 238.41 30.5967 238.879 30.4736C239.353 30.3506 239.845 30.2891 240.355 30.2891ZM241.668 34.3838L240.69 34.418C239.888 34.4453 239.326 34.582 239.002 34.8281C238.678 35.0742 238.517 35.4115 238.517 35.8398C238.517 36.2135 238.628 36.487 238.852 36.6602C239.075 36.8288 239.369 36.9131 239.733 36.9131C240.289 36.9131 240.75 36.7559 241.114 36.4414C241.483 36.1224 241.668 35.6553 241.668 35.04V34.3838ZM240.294 40.666C240.039 40.666 239.822 40.5977 239.645 40.4609C239.471 40.3288 239.385 40.1032 239.385 39.7842C239.385 39.4606 239.471 39.2327 239.645 39.1006C239.822 38.9684 240.039 38.9023 240.294 38.9023C240.545 38.9023 240.759 38.9684 240.937 39.1006C241.114 39.2327 241.203 39.4606 241.203 39.7842C241.203 40.1032 241.114 40.3288 240.937 40.4609C240.759 40.5977 240.545 40.666 240.294 40.666ZM249.954 30.2891C250.806 30.2891 251.469 30.5101 251.943 30.9521C252.422 31.3896 252.661 32.0938 252.661 33.0645V38H251.055V33.3652C251.055 32.7773 250.934 32.3376 250.692 32.0459C250.451 31.7497 250.077 31.6016 249.571 31.6016C248.838 31.6016 248.327 31.8271 248.04 32.2783C247.757 32.7295 247.616 33.3835 247.616 34.2402V38H246.01V30.4326H247.261L247.486 31.458H247.575C247.739 31.1937 247.942 30.9772 248.184 30.8086C248.43 30.6354 248.703 30.5055 249.004 30.4189C249.309 30.3324 249.626 30.2891 249.954 30.2891Z" fill="#031A6E"/>
</svg>
