<svg width="375" height="104" viewBox="0 0 375 104" fill="none" xmlns="http://www.w3.org/2000/svg">
<rect width="375" height="104" fill="#EFF0FB"/>
<rect x="43" y="70" width="292" height="4" fill="#CCECFB"/>
<rect x="43" y="70" width="142" height="4" fill="#30CD60"/>
<circle cx="36" cy="72" r="12" fill="#30CD60"/>
<path d="M37.8467 77H36.2334V70.5674C36.2334 70.3532 36.2357 70.139 36.2402 69.9248C36.2448 69.7106 36.2493 69.501 36.2539 69.2959C36.263 69.0908 36.2744 68.8949 36.2881 68.708C36.1924 68.8128 36.0739 68.9268 35.9326 69.0498C35.7959 69.1729 35.6501 69.3005 35.4951 69.4326L34.3467 70.3486L33.54 69.3301L36.5068 67.0059H37.8467V77Z" fill="white"/>
<circle cx="112" cy="72" r="12" fill="#30CD60"/>
<path d="M114.891 76H108.123V74.79L110.714 72.165C111.215 71.6546 111.628 71.2148 111.951 70.8457C112.275 70.472 112.514 70.1188 112.669 69.7861C112.828 69.4535 112.908 69.0911 112.908 68.6992C112.908 68.2161 112.769 67.8516 112.491 67.6055C112.213 67.3548 111.846 67.2295 111.391 67.2295C110.958 67.2295 110.557 67.3161 110.188 67.4893C109.823 67.6579 109.445 67.8994 109.053 68.2139L108.171 67.1543C108.449 66.9173 108.745 66.7008 109.06 66.5049C109.379 66.3089 109.734 66.154 110.126 66.04C110.518 65.9215 110.965 65.8623 111.466 65.8623C112.099 65.8623 112.646 65.9762 113.106 66.2041C113.567 66.4274 113.92 66.7396 114.166 67.1406C114.417 67.5417 114.542 68.0088 114.542 68.542C114.542 69.0798 114.435 69.5765 114.221 70.0322C114.007 70.488 113.701 70.9391 113.305 71.3857C112.908 71.8278 112.437 72.3086 111.89 72.8281L110.16 74.5166V74.5918H114.891V76Z" fill="white"/>
<circle cx="188" cy="72" r="12" fill="#30CD60"/>
<path d="M190.508 68.2891C190.508 68.7402 190.417 69.1322 190.234 69.4648C190.052 69.7975 189.801 70.071 189.482 70.2852C189.168 70.4948 188.803 70.6452 188.389 70.7363V70.7842C189.186 70.8844 189.788 71.1351 190.193 71.5361C190.604 71.9372 190.809 72.4681 190.809 73.1289C190.809 73.7077 190.67 74.2249 190.392 74.6807C190.114 75.1318 189.688 75.4873 189.113 75.7471C188.539 76.0068 187.801 76.1367 186.898 76.1367C186.356 76.1367 185.853 76.0934 185.388 76.0068C184.927 75.9202 184.49 75.7812 184.075 75.5898V74.1611C184.499 74.3708 184.95 74.5326 185.429 74.6465C185.907 74.7604 186.361 74.8174 186.789 74.8174C187.623 74.8174 188.218 74.6624 188.573 74.3525C188.929 74.0381 189.106 73.6051 189.106 73.0537C189.106 72.6982 189.013 72.4066 188.826 72.1787C188.644 71.9508 188.359 71.7799 187.972 71.666C187.589 71.5521 187.094 71.4951 186.488 71.4951H185.606V70.2031H186.495C187.074 70.2031 187.539 70.1348 187.89 69.998C188.241 69.8568 188.493 69.6631 188.648 69.417C188.808 69.1709 188.888 68.8838 188.888 68.5557C188.888 68.1273 188.749 67.7946 188.471 67.5576C188.193 67.3161 187.78 67.1953 187.233 67.1953C186.896 67.1953 186.589 67.234 186.311 67.3115C186.037 67.389 185.784 67.487 185.552 67.6055C185.319 67.724 185.098 67.8516 184.889 67.9883L184.116 66.874C184.494 66.5915 184.946 66.3522 185.47 66.1562C185.994 65.9603 186.604 65.8623 187.302 65.8623C188.327 65.8623 189.118 66.0833 189.674 66.5254C190.23 66.9629 190.508 67.5508 190.508 68.2891Z" fill="white"/>
<circle cx="264" cy="72" r="12" fill="#CCECFB"/>
<path d="M267.253 73.8057H265.899V76H264.313V73.8057H259.768V72.5889L264.334 65.9785H265.899V72.4727H267.253V73.8057ZM264.313 72.4727V69.9912C264.313 69.7861 264.316 69.5788 264.32 69.3691C264.329 69.1549 264.339 68.9499 264.348 68.7539C264.357 68.5579 264.366 68.3779 264.375 68.2139C264.384 68.0452 264.391 67.9062 264.396 67.7969H264.341C264.254 67.9792 264.159 68.166 264.054 68.3574C263.949 68.5443 263.837 68.7266 263.719 68.9043L261.258 72.4727H264.313Z" fill="#5AB5E5"/>
<circle cx="340" cy="72" r="12" fill="#CCECFB"/>
<path d="M339.521 69.752C340.163 69.752 340.728 69.8682 341.216 70.1006C341.708 70.3285 342.091 70.6657 342.364 71.1123C342.638 71.5544 342.774 72.0967 342.774 72.7393C342.774 73.4411 342.626 74.0472 342.33 74.5576C342.034 75.0635 341.599 75.4531 341.024 75.7266C340.45 76 339.751 76.1367 338.926 76.1367C338.402 76.1367 337.912 76.0911 337.456 76C337.005 75.9089 336.615 75.7721 336.287 75.5898V74.1406C336.629 74.332 337.039 74.4893 337.518 74.6123C337.996 74.7308 338.454 74.79 338.892 74.79C339.356 74.79 339.755 74.7217 340.088 74.585C340.421 74.4482 340.676 74.2386 340.854 73.9561C341.036 73.6735 341.127 73.3158 341.127 72.8828C341.127 72.3086 340.942 71.8665 340.573 71.5566C340.209 71.2422 339.637 71.085 338.857 71.085C338.584 71.085 338.292 71.11 337.982 71.1602C337.677 71.2057 337.422 71.2559 337.217 71.3105L336.513 70.8936L336.889 66.0059H342.084V67.4209H338.304L338.085 69.9092C338.249 69.8727 338.445 69.8385 338.673 69.8066C338.901 69.7702 339.183 69.752 339.521 69.752Z" fill="#5AB5E5"/>
<mask id="path-14-inside-1_1686_12122" fill="white">
<path fill-rule="evenodd" clip-rule="evenodd" d="M117 20C112.582 20 109 23.5817 109 28V40C109 44.4183 112.582 48 117 48H181.005L187.5 54L193.995 48H258C262.418 48 266 44.4183 266 40V28C266 23.5817 262.418 20 258 20H117Z"/>
</mask>
<path fill-rule="evenodd" clip-rule="evenodd" d="M117 20C112.582 20 109 23.5817 109 28V40C109 44.4183 112.582 48 117 48H181.005L187.5 54L193.995 48H258C262.418 48 266 44.4183 266 40V28C266 23.5817 262.418 20 258 20H117Z" fill="white"/>
<path d="M181.005 48L181.683 47.2654L181.396 47H181.005V48ZM187.5 54L186.821 54.7346L187.5 55.3614L188.179 54.7346L187.5 54ZM193.995 48V47H193.604L193.317 47.2654L193.995 48ZM110 28C110 24.134 113.134 21 117 21V19C112.029 19 108 23.0294 108 28H110ZM110 40V28H108V40H110ZM117 47C113.134 47 110 43.866 110 40H108C108 44.9706 112.029 49 117 49V47ZM181.005 47H117V49H181.005V47ZM188.179 53.2654L181.683 47.2654L180.326 48.7346L186.821 54.7346L188.179 53.2654ZM193.317 47.2654L186.821 53.2654L188.179 54.7346L194.674 48.7346L193.317 47.2654ZM258 47H193.995V49H258V47ZM265 40C265 43.866 261.866 47 258 47V49C262.971 49 267 44.9706 267 40H265ZM265 28V40H267V28H265ZM258 21C261.866 21 265 24.134 265 28H267C267 23.0294 262.971 19 258 19V21ZM117 21H258V19H117V21Z" fill="#CCECFB" mask="url(#path-14-inside-1_1686_12122)"/>
<path d="M128.047 38H126.16L123.05 33.4609L122.065 34.2607V38H120.425V28.0059H122.065V32.7842C122.266 32.5381 122.469 32.292 122.674 32.0459C122.879 31.7998 123.084 31.5537 123.289 31.3076L126.105 28.0059H127.958L124.226 32.3809L128.047 38ZM132.717 30.2891C133.391 30.2891 133.97 30.4281 134.453 30.7061C134.936 30.984 135.308 31.3783 135.567 31.8887C135.827 32.3991 135.957 33.0098 135.957 33.7207V34.582H130.905C130.924 35.3158 131.119 35.8809 131.493 36.2773C131.871 36.6738 132.4 36.8721 133.079 36.8721C133.562 36.8721 133.995 36.8265 134.378 36.7354C134.765 36.6396 135.164 36.5007 135.574 36.3184V37.624C135.196 37.8018 134.811 37.9316 134.419 38.0137C134.027 38.0957 133.558 38.1367 133.011 38.1367C132.268 38.1367 131.614 37.9932 131.049 37.7061C130.488 37.4144 130.049 36.9814 129.729 36.4072C129.415 35.833 129.258 35.1198 129.258 34.2676C129.258 33.4199 129.401 32.6999 129.688 32.1074C129.976 31.515 130.379 31.0638 130.898 30.7539C131.418 30.444 132.024 30.2891 132.717 30.2891ZM132.717 31.499C132.211 31.499 131.801 31.6631 131.486 31.9912C131.176 32.3193 130.994 32.8001 130.939 33.4336H134.385C134.38 33.0553 134.316 32.7204 134.193 32.4287C134.075 32.137 133.893 31.9092 133.646 31.7451C133.405 31.5811 133.095 31.499 132.717 31.499ZM135.007 29.5166H134.132C133.899 29.3571 133.66 29.1816 133.414 28.9902C133.168 28.7943 132.926 28.5869 132.689 28.3682C132.448 28.5869 132.204 28.7943 131.958 28.9902C131.716 29.1816 131.479 29.3571 131.247 29.5166H130.372V29.3389C130.527 29.1657 130.691 28.9766 130.864 28.7715C131.042 28.5618 131.215 28.3477 131.384 28.1289C131.557 27.9102 131.714 27.6982 131.855 27.4932H133.523C133.665 27.6982 133.82 27.9102 133.988 28.1289C134.161 28.3477 134.335 28.5618 134.508 28.7715C134.686 28.9766 134.852 29.1657 135.007 29.3389V29.5166ZM134.433 28.0127C134.619 27.7985 134.781 27.5889 134.918 27.3838C135.059 27.1787 135.203 26.9281 135.349 26.6318H136.743V26.7754C136.547 27.0397 136.317 27.2926 136.053 27.5342C135.793 27.7712 135.535 27.9876 135.28 28.1836H134.433V28.0127ZM144.012 27.3633V30.0361C144.012 30.3141 144.003 30.5853 143.984 30.8496C143.971 31.1139 143.955 31.319 143.937 31.4648H144.025C144.185 31.2005 144.381 30.984 144.613 30.8154C144.846 30.6423 145.105 30.5124 145.393 30.4258C145.684 30.3392 145.994 30.2959 146.322 30.2959C146.901 30.2959 147.393 30.3939 147.799 30.5898C148.204 30.7812 148.514 31.0798 148.729 31.4854C148.947 31.891 149.057 32.4173 149.057 33.0645V38H147.45V33.3652C147.45 32.7773 147.329 32.3376 147.088 32.0459C146.846 31.7497 146.473 31.6016 145.967 31.6016C145.479 31.6016 145.092 31.7041 144.805 31.9092C144.522 32.1097 144.319 32.4082 144.196 32.8047C144.073 33.1966 144.012 33.6751 144.012 34.2402V38H142.405V27.3633H144.012ZM158.505 34.1992C158.505 34.8281 158.423 35.3864 158.259 35.874C158.095 36.3617 157.855 36.7741 157.541 37.1113C157.227 37.444 156.848 37.6992 156.406 37.877C155.964 38.0501 155.465 38.1367 154.909 38.1367C154.39 38.1367 153.913 38.0501 153.48 37.877C153.048 37.6992 152.672 37.444 152.353 37.1113C152.038 36.7741 151.794 36.3617 151.621 35.874C151.448 35.3864 151.361 34.8281 151.361 34.1992C151.361 33.3652 151.505 32.6589 151.792 32.0801C152.084 31.4967 152.498 31.0524 153.036 30.7471C153.574 30.4417 154.214 30.2891 154.957 30.2891C155.654 30.2891 156.27 30.4417 156.803 30.7471C157.336 31.0524 157.753 31.4967 158.054 32.0801C158.354 32.6634 158.505 33.3698 158.505 34.1992ZM153.016 34.1992C153.016 34.7507 153.082 35.2223 153.214 35.6143C153.351 36.0062 153.56 36.307 153.843 36.5166C154.125 36.7217 154.49 36.8242 154.937 36.8242C155.383 36.8242 155.748 36.7217 156.03 36.5166C156.313 36.307 156.52 36.0062 156.652 35.6143C156.785 35.2223 156.851 34.7507 156.851 34.1992C156.851 33.6478 156.785 33.1807 156.652 32.7979C156.52 32.4105 156.313 32.1165 156.03 31.916C155.748 31.7109 155.381 31.6084 154.93 31.6084C154.264 31.6084 153.779 31.8317 153.474 32.2783C153.168 32.7249 153.016 33.3652 153.016 34.1992ZM163.817 30.2891C164.774 30.2891 165.497 30.501 165.984 30.9248C166.477 31.3486 166.723 32.0094 166.723 32.9072V38H165.581L165.273 36.9268H165.219C165.005 37.2002 164.784 37.4258 164.556 37.6035C164.328 37.7812 164.063 37.9134 163.763 38C163.466 38.0911 163.104 38.1367 162.676 38.1367C162.225 38.1367 161.821 38.0547 161.466 37.8906C161.11 37.722 160.83 37.4668 160.625 37.125C160.42 36.7832 160.317 36.3503 160.317 35.8262C160.317 35.0469 160.607 34.4613 161.186 34.0693C161.769 33.6774 162.648 33.4609 163.824 33.4199L165.137 33.3721V32.9756C165.137 32.4515 165.014 32.0778 164.768 31.8545C164.526 31.6312 164.184 31.5195 163.742 31.5195C163.364 31.5195 162.997 31.5742 162.642 31.6836C162.286 31.793 161.94 31.9274 161.603 32.0869L161.083 30.9521C161.452 30.7562 161.871 30.5967 162.341 30.4736C162.815 30.3506 163.307 30.2891 163.817 30.2891ZM165.13 34.3838L164.152 34.418C163.35 34.4453 162.787 34.582 162.464 34.8281C162.14 35.0742 161.979 35.4115 161.979 35.8398C161.979 36.2135 162.09 36.487 162.313 36.6602C162.537 36.8288 162.831 36.9131 163.195 36.9131C163.751 36.9131 164.212 36.7559 164.576 36.4414C164.945 36.1224 165.13 35.6553 165.13 35.04V34.3838ZM163.756 40.666C163.501 40.666 163.284 40.5977 163.106 40.4609C162.933 40.3288 162.847 40.1032 162.847 39.7842C162.847 39.4606 162.933 39.2327 163.106 39.1006C163.284 38.9684 163.501 38.9023 163.756 38.9023C164.007 38.9023 164.221 38.9684 164.398 39.1006C164.576 39.2327 164.665 39.4606 164.665 39.7842C164.665 40.1032 164.576 40.3288 164.398 40.4609C164.221 40.5977 164.007 40.666 163.756 40.666ZM172.521 38.1367C171.805 38.1367 171.185 37.9977 170.661 37.7197C170.137 37.4417 169.734 37.0156 169.451 36.4414C169.169 35.8672 169.027 35.138 169.027 34.2539C169.027 33.3333 169.182 32.5814 169.492 31.998C169.802 31.4147 170.23 30.984 170.777 30.7061C171.329 30.4281 171.96 30.2891 172.671 30.2891C173.122 30.2891 173.53 30.3346 173.895 30.4258C174.264 30.5124 174.576 30.6195 174.831 30.7471L174.353 32.0322C174.075 31.9183 173.79 31.8226 173.498 31.7451C173.206 31.6676 172.926 31.6289 172.657 31.6289C172.215 31.6289 171.846 31.7269 171.55 31.9229C171.258 32.1188 171.039 32.4105 170.894 32.7979C170.752 33.1852 170.682 33.666 170.682 34.2402C170.682 34.7962 170.755 35.2656 170.9 35.6484C171.046 36.0267 171.263 36.3138 171.55 36.5098C171.837 36.7012 172.19 36.7969 172.609 36.7969C173.024 36.7969 173.396 36.7467 173.724 36.6465C174.052 36.5462 174.362 36.4163 174.653 36.2568V37.6514C174.366 37.8154 174.059 37.9362 173.73 38.0137C173.402 38.0957 172.999 38.1367 172.521 38.1367ZM178.537 27.3633V30.0361C178.537 30.3141 178.528 30.5853 178.51 30.8496C178.496 31.1139 178.48 31.319 178.462 31.4648H178.551C178.71 31.2005 178.906 30.984 179.139 30.8154C179.371 30.6423 179.631 30.5124 179.918 30.4258C180.21 30.3392 180.52 30.2959 180.848 30.2959C181.426 30.2959 181.919 30.3939 182.324 30.5898C182.73 30.7812 183.04 31.0798 183.254 31.4854C183.473 31.891 183.582 32.4173 183.582 33.0645V38H181.976V33.3652C181.976 32.7773 181.855 32.3376 181.613 32.0459C181.372 31.7497 180.998 31.6016 180.492 31.6016C180.005 31.6016 179.617 31.7041 179.33 31.9092C179.048 32.1097 178.845 32.4082 178.722 32.8047C178.599 33.1966 178.537 33.6751 178.537 34.2402V38H176.931V27.3633H178.537ZM192.074 27.3633V29.9268C192.074 30.223 192.065 30.5146 192.047 30.8018C192.033 31.0843 192.02 31.3053 192.006 31.4648H192.074C192.279 31.1367 192.564 30.861 192.929 30.6377C193.298 30.4098 193.77 30.2959 194.344 30.2959C195.242 30.2959 195.964 30.6263 196.511 31.2871C197.058 31.9434 197.331 32.9163 197.331 34.2061C197.331 35.0628 197.206 35.7829 196.955 36.3662C196.704 36.9495 196.351 37.3916 195.896 37.6924C195.444 37.9886 194.913 38.1367 194.303 38.1367C193.729 38.1367 193.264 38.0319 192.908 37.8223C192.557 37.6081 192.282 37.3597 192.081 37.0771H191.965L191.671 38H190.468V27.3633H192.074ZM193.92 31.6016C193.464 31.6016 193.102 31.6927 192.833 31.875C192.569 32.0573 192.377 32.3307 192.259 32.6953C192.14 33.0553 192.079 33.5133 192.074 34.0693V34.2129C192.074 35.056 192.206 35.7008 192.471 36.1475C192.74 36.5941 193.227 36.8174 193.934 36.8174C194.494 36.8174 194.925 36.5918 195.226 36.1406C195.526 35.6849 195.677 35.0332 195.677 34.1855C195.677 33.3288 195.526 32.6839 195.226 32.251C194.929 31.818 194.494 31.6016 193.92 31.6016ZM202.657 30.2891C203.614 30.2891 204.337 30.501 204.824 30.9248C205.316 31.3486 205.562 32.0094 205.562 32.9072V38H204.421L204.113 36.9268H204.059C203.844 37.2002 203.623 37.4258 203.396 37.6035C203.168 37.7812 202.903 37.9134 202.603 38C202.306 38.0911 201.944 38.1367 201.516 38.1367C201.064 38.1367 200.661 38.0547 200.306 37.8906C199.95 37.722 199.67 37.4668 199.465 37.125C199.26 36.7832 199.157 36.3503 199.157 35.8262C199.157 35.0469 199.447 34.4613 200.025 34.0693C200.609 33.6774 201.488 33.4609 202.664 33.4199L203.977 33.3721V32.9756C203.977 32.4515 203.854 32.0778 203.607 31.8545C203.366 31.6312 203.024 31.5195 202.582 31.5195C202.204 31.5195 201.837 31.5742 201.481 31.6836C201.126 31.793 200.78 31.9274 200.442 32.0869L199.923 30.9521C200.292 30.7562 200.711 30.5967 201.181 30.4736C201.655 30.3506 202.147 30.2891 202.657 30.2891ZM203.97 34.3838L202.992 34.418C202.19 34.4453 201.627 34.582 201.304 34.8281C200.98 35.0742 200.818 35.4115 200.818 35.8398C200.818 36.2135 200.93 36.487 201.153 36.6602C201.377 36.8288 201.671 36.9131 202.035 36.9131C202.591 36.9131 203.051 36.7559 203.416 36.4414C203.785 36.1224 203.97 35.6553 203.97 35.04V34.3838ZM204.934 27.2744V27.4111C204.824 27.5433 204.676 27.7028 204.489 27.8896C204.302 28.0719 204.1 28.2656 203.881 28.4707C203.662 28.6712 203.446 28.8649 203.231 29.0518C203.017 29.234 202.824 29.389 202.65 29.5166H201.577V29.3389C201.728 29.1657 201.894 28.9583 202.076 28.7168C202.263 28.4753 202.445 28.2269 202.623 27.9717C202.805 27.7165 202.958 27.484 203.081 27.2744H204.934ZM212.256 30.2891C213.108 30.2891 213.771 30.5101 214.245 30.9521C214.724 31.3896 214.963 32.0938 214.963 33.0645V38H213.356V33.3652C213.356 32.7773 213.236 32.3376 212.994 32.0459C212.753 31.7497 212.379 31.6016 211.873 31.6016C211.139 31.6016 210.629 31.8271 210.342 32.2783C210.059 32.7295 209.918 33.3835 209.918 34.2402V38H208.312V30.4326H209.562L209.788 31.458H209.877C210.041 31.1937 210.244 30.9772 210.485 30.8086C210.731 30.6354 211.005 30.5055 211.306 30.4189C211.611 30.3324 211.928 30.2891 212.256 30.2891ZM223.455 27.3633V30.0361C223.455 30.3141 223.446 30.5853 223.428 30.8496C223.414 31.1139 223.398 31.319 223.38 31.4648H223.469C223.628 31.2005 223.824 30.984 224.057 30.8154C224.289 30.6423 224.549 30.5124 224.836 30.4258C225.128 30.3392 225.438 30.2959 225.766 30.2959C226.344 30.2959 226.837 30.3939 227.242 30.5898C227.648 30.7812 227.958 31.0798 228.172 31.4854C228.391 31.891 228.5 32.4173 228.5 33.0645V38H226.894V33.3652C226.894 32.7773 226.773 32.3376 226.531 32.0459C226.29 31.7497 225.916 31.6016 225.41 31.6016C224.923 31.6016 224.535 31.7041 224.248 31.9092C223.965 32.1097 223.763 32.4082 223.64 32.8047C223.517 33.1966 223.455 33.6751 223.455 34.2402V38H221.849V27.3633H223.455ZM234.216 30.2891C235.173 30.2891 235.895 30.501 236.383 30.9248C236.875 31.3486 237.121 32.0094 237.121 32.9072V38H235.979L235.672 36.9268H235.617C235.403 37.2002 235.182 37.4258 234.954 37.6035C234.726 37.7812 234.462 37.9134 234.161 38C233.865 38.0911 233.503 38.1367 233.074 38.1367C232.623 38.1367 232.22 38.0547 231.864 37.8906C231.509 37.722 231.229 37.4668 231.023 37.125C230.818 36.7832 230.716 36.3503 230.716 35.8262C230.716 35.0469 231.005 34.4613 231.584 34.0693C232.167 33.6774 233.047 33.4609 234.223 33.4199L235.535 33.3721V32.9756C235.535 32.4515 235.412 32.0778 235.166 31.8545C234.924 31.6312 234.583 31.5195 234.141 31.5195C233.762 31.5195 233.396 31.5742 233.04 31.6836C232.685 31.793 232.338 31.9274 232.001 32.0869L231.481 30.9521C231.851 30.7562 232.27 30.5967 232.739 30.4736C233.213 30.3506 233.705 30.2891 234.216 30.2891ZM235.528 34.3838L234.551 34.418C233.749 34.4453 233.186 34.582 232.862 34.8281C232.539 35.0742 232.377 35.4115 232.377 35.8398C232.377 36.2135 232.489 36.487 232.712 36.6602C232.935 36.8288 233.229 36.9131 233.594 36.9131C234.15 36.9131 234.61 36.7559 234.975 36.4414C235.344 36.1224 235.528 35.6553 235.528 35.04V34.3838ZM233.758 27.2744C233.881 27.484 234.031 27.7165 234.209 27.9717C234.387 28.2269 234.571 28.4753 234.763 28.7168C234.954 28.9583 235.123 29.1657 235.269 29.3389V29.5166H234.195C234.022 29.389 233.828 29.234 233.614 29.0518C233.4 28.8649 233.181 28.6712 232.958 28.4707C232.739 28.2656 232.536 28.0719 232.35 27.8896C232.167 27.7028 232.021 27.5433 231.912 27.4111V27.2744H233.758ZM243.814 30.2891C244.667 30.2891 245.33 30.5101 245.804 30.9521C246.282 31.3896 246.521 32.0938 246.521 33.0645V38H244.915V33.3652C244.915 32.7773 244.794 32.3376 244.553 32.0459C244.311 31.7497 243.938 31.6016 243.432 31.6016C242.698 31.6016 242.188 31.8271 241.9 32.2783C241.618 32.7295 241.477 33.3835 241.477 34.2402V38H239.87V30.4326H241.121L241.347 31.458H241.436C241.6 31.1937 241.802 30.9772 242.044 30.8086C242.29 30.6354 242.563 30.5055 242.864 30.4189C243.17 30.3324 243.486 30.2891 243.814 30.2891ZM251.431 41.3633C250.405 41.3633 249.619 41.1787 249.072 40.8096C248.525 40.4404 248.252 39.9232 248.252 39.2578C248.252 38.793 248.398 38.3988 248.689 38.0752C248.981 37.7562 249.398 37.5352 249.94 37.4121C249.735 37.321 249.558 37.1797 249.407 36.9883C249.261 36.7923 249.188 36.5758 249.188 36.3389C249.188 36.0563 249.268 35.8148 249.428 35.6143C249.587 35.4137 249.826 35.2201 250.146 35.0332C249.749 34.8646 249.43 34.5911 249.188 34.2129C248.951 33.8301 248.833 33.3812 248.833 32.8662C248.833 32.3193 248.949 31.8545 249.182 31.4717C249.414 31.0843 249.754 30.7904 250.2 30.5898C250.647 30.3848 251.187 30.2822 251.82 30.2822C251.957 30.2822 252.105 30.2913 252.265 30.3096C252.429 30.3232 252.579 30.3415 252.716 30.3643C252.857 30.3825 252.964 30.403 253.037 30.4258H255.655V31.3213L254.37 31.5605C254.493 31.7337 254.591 31.932 254.664 32.1553C254.737 32.374 254.773 32.6133 254.773 32.873C254.773 33.6569 254.502 34.2744 253.96 34.7256C253.422 35.1722 252.679 35.3955 251.731 35.3955C251.504 35.3864 251.283 35.3682 251.068 35.3408C250.904 35.4411 250.779 35.5527 250.692 35.6758C250.606 35.7943 250.562 35.9287 250.562 36.0791C250.562 36.2021 250.606 36.3024 250.692 36.3799C250.779 36.4528 250.907 36.5075 251.075 36.5439C251.248 36.5804 251.458 36.5986 251.704 36.5986H253.01C253.839 36.5986 254.473 36.7741 254.91 37.125C255.348 37.4759 255.566 37.9909 255.566 38.6699C255.566 39.5312 255.211 40.1943 254.5 40.6592C253.789 41.1286 252.766 41.3633 251.431 41.3633ZM251.492 40.2354C252.053 40.2354 252.524 40.1807 252.907 40.0713C253.29 39.9619 253.579 39.8047 253.775 39.5996C253.971 39.3991 254.069 39.1598 254.069 38.8818C254.069 38.6357 254.008 38.4466 253.885 38.3145C253.762 38.1823 253.577 38.0911 253.331 38.041C253.085 37.9909 252.78 37.9658 252.415 37.9658H251.226C250.929 37.9658 250.667 38.0114 250.439 38.1025C250.212 38.1982 250.034 38.335 249.906 38.5127C249.783 38.6904 249.722 38.9046 249.722 39.1553C249.722 39.5016 249.874 39.7682 250.18 39.9551C250.49 40.1419 250.927 40.2354 251.492 40.2354ZM251.807 34.3428C252.276 34.3428 252.625 34.2152 252.853 33.96C253.08 33.7002 253.194 33.3356 253.194 32.8662C253.194 32.3558 253.076 31.973 252.839 31.7178C252.606 31.4626 252.26 31.335 251.8 31.335C251.349 31.335 251.005 31.4648 250.768 31.7246C250.535 31.9844 250.419 32.3695 250.419 32.8799C250.419 33.3402 250.535 33.7002 250.768 33.96C251.005 34.2152 251.351 34.3428 251.807 34.3428Z" fill="#031A6E"/>
</svg>
