<svg width="375" height="104" viewBox="0 0 375 104" fill="none" xmlns="http://www.w3.org/2000/svg">
<rect width="375" height="104" fill="#EFF0FB"/>
<rect x="43" y="70" width="292" height="4" fill="#CCECFB"/>
<rect x="43" y="70" width="292" height="4" fill="#30CD60"/>
<circle cx="36" cy="72" r="12" fill="#30CD60"/>
<path d="M37.8467 77H36.2334V70.5674C36.2334 70.3532 36.2357 70.139 36.2402 69.9248C36.2448 69.7106 36.2493 69.501 36.2539 69.2959C36.263 69.0908 36.2744 68.8949 36.2881 68.708C36.1924 68.8128 36.0739 68.9268 35.9326 69.0498C35.7959 69.1729 35.6501 69.3005 35.4951 69.4326L34.3467 70.3486L33.54 69.3301L36.5068 67.0059H37.8467V77Z" fill="white"/>
<circle cx="137" cy="72" r="12" fill="#30CD60"/>
<path d="M139.891 76H133.123V74.79L135.714 72.165C136.215 71.6546 136.628 71.2148 136.951 70.8457C137.275 70.472 137.514 70.1188 137.669 69.7861C137.828 69.4535 137.908 69.0911 137.908 68.6992C137.908 68.2161 137.769 67.8516 137.491 67.6055C137.213 67.3548 136.846 67.2295 136.391 67.2295C135.958 67.2295 135.557 67.3161 135.188 67.4893C134.823 67.6579 134.445 67.8994 134.053 68.2139L133.171 67.1543C133.449 66.9173 133.745 66.7008 134.06 66.5049C134.379 66.3089 134.734 66.154 135.126 66.04C135.518 65.9215 135.965 65.8623 136.466 65.8623C137.099 65.8623 137.646 65.9762 138.106 66.2041C138.567 66.4274 138.92 66.7396 139.166 67.1406C139.417 67.5417 139.542 68.0088 139.542 68.542C139.542 69.0798 139.435 69.5765 139.221 70.0322C139.007 70.488 138.701 70.9391 138.305 71.3857C137.908 71.8278 137.437 72.3086 136.89 72.8281L135.16 74.5166V74.5918H139.891V76Z" fill="white"/>
<circle cx="238" cy="72" r="12" fill="#30CD60"/>
<path d="M240.508 68.2891C240.508 68.7402 240.417 69.1322 240.234 69.4648C240.052 69.7975 239.801 70.071 239.482 70.2852C239.168 70.4948 238.803 70.6452 238.389 70.7363V70.7842C239.186 70.8844 239.788 71.1351 240.193 71.5361C240.604 71.9372 240.809 72.4681 240.809 73.1289C240.809 73.7077 240.67 74.2249 240.392 74.6807C240.114 75.1318 239.688 75.4873 239.113 75.7471C238.539 76.0068 237.801 76.1367 236.898 76.1367C236.356 76.1367 235.853 76.0934 235.388 76.0068C234.927 75.9202 234.49 75.7812 234.075 75.5898V74.1611C234.499 74.3708 234.95 74.5326 235.429 74.6465C235.907 74.7604 236.361 74.8174 236.789 74.8174C237.623 74.8174 238.218 74.6624 238.573 74.3525C238.929 74.0381 239.106 73.6051 239.106 73.0537C239.106 72.6982 239.013 72.4066 238.826 72.1787C238.644 71.9508 238.359 71.7799 237.972 71.666C237.589 71.5521 237.094 71.4951 236.488 71.4951H235.606V70.2031H236.495C237.074 70.2031 237.539 70.1348 237.89 69.998C238.241 69.8568 238.493 69.6631 238.648 69.417C238.808 69.1709 238.888 68.8838 238.888 68.5557C238.888 68.1273 238.749 67.7946 238.471 67.5576C238.193 67.3161 237.78 67.1953 237.233 67.1953C236.896 67.1953 236.589 67.234 236.311 67.3115C236.037 67.389 235.784 67.487 235.552 67.6055C235.319 67.724 235.098 67.8516 234.889 67.9883L234.116 66.874C234.494 66.5915 234.946 66.3522 235.47 66.1562C235.994 65.9603 236.604 65.8623 237.302 65.8623C238.327 65.8623 239.118 66.0833 239.674 66.5254C240.23 66.9629 240.508 67.5508 240.508 68.2891Z" fill="white"/>
<circle cx="339" cy="72" r="12" fill="#30CD60"/>
<path d="M342.253 73.8057H340.899V76H339.313V73.8057H334.768V72.5889L339.334 65.9785H340.899V72.4727H342.253V73.8057ZM339.313 72.4727V69.9912C339.313 69.7861 339.316 69.5788 339.32 69.3691C339.329 69.1549 339.339 68.9499 339.348 68.7539C339.357 68.5579 339.366 68.3779 339.375 68.2139C339.384 68.0452 339.391 67.9062 339.396 67.7969H339.341C339.254 67.9792 339.159 68.166 339.054 68.3574C338.949 68.5443 338.837 68.7266 338.719 68.9043L336.258 72.4727H339.313Z" fill="white"/>
<path d="M339 54V28C339 23.5817 335.418 20 331 20H201C196.582 20 193 23.5817 193 28V39.6569C193 44.0751 196.582 47.6569 201 47.6569H330.796C333.728 47.6569 336.425 49.2611 337.825 51.8376L339 54Z" fill="white" stroke="#CCECFB" stroke-linejoin="round"/>
<path d="M212.427 32.9072C212.427 34.0329 212.217 34.974 211.798 35.7305C211.379 36.4824 210.77 37.0498 209.973 37.4326C209.175 37.8109 208.214 38 207.088 38H204.312V28.0059H207.389C208.423 28.0059 209.316 28.1927 210.068 28.5664C210.82 28.9355 211.401 29.4847 211.812 30.2139C212.222 30.9385 212.427 31.8363 212.427 32.9072ZM210.718 32.9551C210.718 32.1348 210.588 31.4603 210.328 30.9316C210.073 30.403 209.695 30.0111 209.193 29.7559C208.697 29.4961 208.084 29.3662 207.354 29.3662H205.953V36.626H207.115C208.323 36.626 209.225 36.3184 209.822 35.7031C210.419 35.0879 210.718 34.1719 210.718 32.9551ZM224.179 29.2773L224.274 29.4277C224.211 29.7832 224.122 30.1204 224.008 30.4395C223.894 30.7539 223.734 31.0387 223.529 31.2939C223.324 31.5492 223.058 31.7633 222.729 31.9365C222.406 32.1051 222 32.2214 221.513 32.2852V38H220.248L220.029 36.9814H219.934C219.774 37.2412 219.571 37.4577 219.325 37.6309C219.084 37.7995 218.812 37.9248 218.512 38.0068C218.215 38.0934 217.903 38.1367 217.575 38.1367C217.001 38.1367 216.511 38.041 216.105 37.8496C215.7 37.6536 215.39 37.3529 215.176 36.9473C214.962 36.5417 214.854 36.0176 214.854 35.375V30.4395H216.468V35.0742C216.468 35.6621 216.586 36.1019 216.823 36.3936C217.065 36.6852 217.438 36.8311 217.944 36.8311C218.678 36.8311 219.186 36.6055 219.469 36.1543C219.756 35.7031 219.899 35.0514 219.899 34.1992V30.4395H221.513V31.2529C221.777 31.1891 221.984 31.0684 222.135 30.8906C222.285 30.7083 222.392 30.4805 222.456 30.207C222.52 29.929 222.552 29.6191 222.552 29.2773H224.179ZM218.04 40.666C217.785 40.666 217.568 40.5977 217.391 40.4609C217.217 40.3288 217.131 40.1032 217.131 39.7842C217.131 39.4606 217.217 39.2327 217.391 39.1006C217.568 38.9684 217.785 38.9023 218.04 38.9023C218.291 38.9023 218.505 38.9684 218.683 39.1006C218.86 39.2327 218.949 39.4606 218.949 39.7842C218.949 40.1032 218.86 40.3288 218.683 40.4609C218.505 40.5977 218.291 40.666 218.04 40.666ZM232.336 36.8379C232.546 36.8379 232.753 36.8197 232.958 36.7832C233.163 36.7422 233.35 36.6943 233.519 36.6396V37.8564C233.341 37.9339 233.111 38 232.828 38.0547C232.546 38.1094 232.252 38.1367 231.946 38.1367C231.518 38.1367 231.133 38.0661 230.791 37.9248C230.449 37.779 230.178 37.5306 229.978 37.1797C229.777 36.8288 229.677 36.3434 229.677 35.7236V31.6562H228.645V30.9385L229.752 30.3711L230.278 28.751H231.29V30.4326H233.457V31.6562H231.29V35.7031C231.29 36.0859 231.386 36.3708 231.577 36.5576C231.769 36.7445 232.021 36.8379 232.336 36.8379ZM242.256 34.1992C242.256 34.8281 242.174 35.3864 242.01 35.874C241.846 36.3617 241.606 36.7741 241.292 37.1113C240.978 37.444 240.599 37.6992 240.157 37.877C239.715 38.0501 239.216 38.1367 238.66 38.1367C238.141 38.1367 237.664 38.0501 237.231 37.877C236.799 37.6992 236.423 37.444 236.104 37.1113C235.789 36.7741 235.545 36.3617 235.372 35.874C235.199 35.3864 235.112 34.8281 235.112 34.1992C235.112 33.3652 235.256 32.6589 235.543 32.0801C235.835 31.4967 236.249 31.0524 236.787 30.7471C237.325 30.4417 237.965 30.2891 238.708 30.2891C239.405 30.2891 240.021 30.4417 240.554 30.7471C241.087 31.0524 241.504 31.4967 241.805 32.0801C242.105 32.6634 242.256 33.3698 242.256 34.1992ZM236.767 34.1992C236.767 34.7507 236.833 35.2223 236.965 35.6143C237.102 36.0062 237.311 36.307 237.594 36.5166C237.876 36.7217 238.241 36.8242 238.688 36.8242C239.134 36.8242 239.499 36.7217 239.781 36.5166C240.064 36.307 240.271 36.0062 240.403 35.6143C240.535 35.2223 240.602 34.7507 240.602 34.1992C240.602 33.6478 240.535 33.1807 240.403 32.7979C240.271 32.4105 240.064 32.1165 239.781 31.916C239.499 31.7109 239.132 31.6084 238.681 31.6084C238.015 31.6084 237.53 31.8317 237.225 32.2783C236.919 32.7249 236.767 33.3652 236.767 34.1992ZM247.568 30.2891C248.525 30.2891 249.248 30.501 249.735 30.9248C250.228 31.3486 250.474 32.0094 250.474 32.9072V38H249.332L249.024 36.9268H248.97C248.756 37.2002 248.535 37.4258 248.307 37.6035C248.079 37.7812 247.814 37.9134 247.514 38C247.217 38.0911 246.855 38.1367 246.427 38.1367C245.976 38.1367 245.572 38.0547 245.217 37.8906C244.861 37.722 244.581 37.4668 244.376 37.125C244.171 36.7832 244.068 36.3503 244.068 35.8262C244.068 35.0469 244.358 34.4613 244.937 34.0693C245.52 33.6774 246.399 33.4609 247.575 33.4199L248.888 33.3721V32.9756C248.888 32.4515 248.765 32.0778 248.519 31.8545C248.277 31.6312 247.935 31.5195 247.493 31.5195C247.115 31.5195 246.748 31.5742 246.393 31.6836C246.037 31.793 245.691 31.9274 245.354 32.0869L244.834 30.9521C245.203 30.7562 245.622 30.5967 246.092 30.4736C246.566 30.3506 247.058 30.2891 247.568 30.2891ZM248.881 34.3838L247.903 34.418C247.101 34.4453 246.538 34.582 246.215 34.8281C245.891 35.0742 245.729 35.4115 245.729 35.8398C245.729 36.2135 245.841 36.487 246.064 36.6602C246.288 36.8288 246.582 36.9131 246.946 36.9131C247.502 36.9131 247.963 36.7559 248.327 36.4414C248.696 36.1224 248.881 35.6553 248.881 35.04V34.3838ZM249.845 27.2744V27.4111C249.735 27.5433 249.587 27.7028 249.4 27.8896C249.214 28.0719 249.011 28.2656 248.792 28.4707C248.573 28.6712 248.357 28.8649 248.143 29.0518C247.928 29.234 247.735 29.389 247.562 29.5166H246.488V29.3389C246.639 29.1657 246.805 28.9583 246.987 28.7168C247.174 28.4753 247.356 28.2269 247.534 27.9717C247.716 27.7165 247.869 27.484 247.992 27.2744H249.845ZM257.167 30.2891C258.019 30.2891 258.682 30.5101 259.156 30.9521C259.635 31.3896 259.874 32.0938 259.874 33.0645V38H258.268V33.3652C258.268 32.7773 258.147 32.3376 257.905 32.0459C257.664 31.7497 257.29 31.6016 256.784 31.6016C256.05 31.6016 255.54 31.8271 255.253 32.2783C254.97 32.7295 254.829 33.3835 254.829 34.2402V38H253.223V30.4326H254.474L254.699 31.458H254.788C254.952 31.1937 255.155 30.9772 255.396 30.8086C255.643 30.6354 255.916 30.5055 256.217 30.4189C256.522 30.3324 256.839 30.2891 257.167 30.2891ZM269.576 36.8379C269.786 36.8379 269.993 36.8197 270.198 36.7832C270.403 36.7422 270.59 36.6943 270.759 36.6396V37.8564C270.581 37.9339 270.351 38 270.068 38.0547C269.786 38.1094 269.492 38.1367 269.187 38.1367C268.758 38.1367 268.373 38.0661 268.031 37.9248C267.689 37.779 267.418 37.5306 267.218 37.1797C267.017 36.8288 266.917 36.3434 266.917 35.7236V31.6562H265.885V30.9385L266.992 30.3711L267.519 28.751H268.53V30.4326H270.697V31.6562H268.53V35.7031C268.53 36.0859 268.626 36.3708 268.817 36.5576C269.009 36.7445 269.262 36.8379 269.576 36.8379ZM275.764 30.2891C276.721 30.2891 277.443 30.501 277.931 30.9248C278.423 31.3486 278.669 32.0094 278.669 32.9072V38H277.527L277.22 36.9268H277.165C276.951 37.2002 276.73 37.4258 276.502 37.6035C276.274 37.7812 276.01 37.9134 275.709 38C275.413 38.0911 275.05 38.1367 274.622 38.1367C274.171 38.1367 273.768 38.0547 273.412 37.8906C273.057 37.722 272.776 37.4668 272.571 37.125C272.366 36.7832 272.264 36.3503 272.264 35.8262C272.264 35.0469 272.553 34.4613 273.132 34.0693C273.715 33.6774 274.595 33.4609 275.771 33.4199L277.083 33.3721V32.9756C277.083 32.4515 276.96 32.0778 276.714 31.8545C276.472 31.6312 276.131 31.5195 275.688 31.5195C275.31 31.5195 274.943 31.5742 274.588 31.6836C274.232 31.793 273.886 31.9274 273.549 32.0869L273.029 30.9521C273.398 30.7562 273.818 30.5967 274.287 30.4736C274.761 30.3506 275.253 30.2891 275.764 30.2891ZM277.076 34.3838L276.099 34.418C275.297 34.4453 274.734 34.582 274.41 34.8281C274.087 35.0742 273.925 35.4115 273.925 35.8398C273.925 36.2135 274.036 36.487 274.26 36.6602C274.483 36.8288 274.777 36.9131 275.142 36.9131C275.698 36.9131 276.158 36.7559 276.522 36.4414C276.892 36.1224 277.076 35.6553 277.076 35.04V34.3838ZM275.306 27.2744C275.429 27.484 275.579 27.7165 275.757 27.9717C275.935 28.2269 276.119 28.4753 276.311 28.7168C276.502 28.9583 276.671 29.1657 276.816 29.3389V29.5166H275.743C275.57 29.389 275.376 29.234 275.162 29.0518C274.948 28.8649 274.729 28.6712 274.506 28.4707C274.287 28.2656 274.084 28.0719 273.897 27.8896C273.715 27.7028 273.569 27.5433 273.46 27.4111V27.2744H275.306ZM283.024 30.4326V38H281.418V30.4326H283.024ZM282.231 27.5342C282.478 27.5342 282.689 27.6003 282.867 27.7324C283.049 27.8646 283.141 28.0924 283.141 28.416C283.141 28.735 283.049 28.9629 282.867 29.0996C282.689 29.2318 282.478 29.2979 282.231 29.2979C281.976 29.2979 281.76 29.2318 281.582 29.0996C281.409 28.9629 281.322 28.735 281.322 28.416C281.322 28.0924 281.409 27.8646 281.582 27.7324C281.76 27.6003 281.976 27.5342 282.231 27.5342ZM293.014 38.1367C292.298 38.1367 291.678 37.9977 291.154 37.7197C290.63 37.4417 290.227 37.0156 289.944 36.4414C289.662 35.8672 289.521 35.138 289.521 34.2539C289.521 33.3333 289.675 32.5814 289.985 31.998C290.295 31.4147 290.724 30.984 291.271 30.7061C291.822 30.4281 292.453 30.2891 293.164 30.2891C293.615 30.2891 294.023 30.3346 294.388 30.4258C294.757 30.5124 295.069 30.6195 295.324 30.7471L294.846 32.0322C294.568 31.9183 294.283 31.8226 293.991 31.7451C293.7 31.6676 293.419 31.6289 293.15 31.6289C292.708 31.6289 292.339 31.7269 292.043 31.9229C291.751 32.1188 291.533 32.4105 291.387 32.7979C291.245 33.1852 291.175 33.666 291.175 34.2402C291.175 34.7962 291.248 35.2656 291.394 35.6484C291.539 36.0267 291.756 36.3138 292.043 36.5098C292.33 36.7012 292.683 36.7969 293.103 36.7969C293.517 36.7969 293.889 36.7467 294.217 36.6465C294.545 36.5462 294.855 36.4163 295.146 36.2568V37.6514C294.859 37.8154 294.552 37.9362 294.224 38.0137C293.896 38.0957 293.492 38.1367 293.014 38.1367ZM299.03 27.3633V30.0361C299.03 30.3141 299.021 30.5853 299.003 30.8496C298.989 31.1139 298.973 31.319 298.955 31.4648H299.044C299.203 31.2005 299.399 30.984 299.632 30.8154C299.864 30.6423 300.124 30.5124 300.411 30.4258C300.703 30.3392 301.013 30.2959 301.341 30.2959C301.92 30.2959 302.412 30.3939 302.817 30.5898C303.223 30.7812 303.533 31.0798 303.747 31.4854C303.966 31.891 304.075 32.4173 304.075 33.0645V38H302.469V33.3652C302.469 32.7773 302.348 32.3376 302.106 32.0459C301.865 31.7497 301.491 31.6016 300.985 31.6016C300.498 31.6016 300.11 31.7041 299.823 31.9092C299.541 32.1097 299.338 32.4082 299.215 32.8047C299.092 33.1966 299.03 33.6751 299.03 34.2402V38H297.424V27.3633H299.03ZM308.431 38H306.824V30.4326H308.431V38ZM309.962 27.2744V27.4111C309.853 27.5433 309.704 27.7028 309.518 27.8896C309.331 28.0719 309.128 28.2656 308.909 28.4707C308.69 28.6712 308.474 28.8649 308.26 29.0518C308.046 29.234 307.852 29.389 307.679 29.5166H306.605V29.3389C306.756 29.1657 306.922 28.9583 307.104 28.7168C307.291 28.4753 307.474 28.2269 307.651 27.9717C307.834 27.7165 307.986 27.484 308.109 27.2744H309.962ZM315.179 30.2891C316.031 30.2891 316.694 30.5101 317.168 30.9521C317.646 31.3896 317.886 32.0938 317.886 33.0645V38H316.279V33.3652C316.279 32.7773 316.159 32.3376 315.917 32.0459C315.675 31.7497 315.302 31.6016 314.796 31.6016C314.062 31.6016 313.552 31.8271 313.265 32.2783C312.982 32.7295 312.841 33.3835 312.841 34.2402V38H311.234V30.4326H312.485L312.711 31.458H312.8C312.964 31.1937 313.167 30.9772 313.408 30.8086C313.654 30.6354 313.928 30.5055 314.229 30.4189C314.534 30.3324 314.851 30.2891 315.179 30.2891ZM322.241 27.3633V30.0361C322.241 30.3141 322.232 30.5853 322.214 30.8496C322.2 31.1139 322.184 31.319 322.166 31.4648H322.255C322.414 31.2005 322.61 30.984 322.843 30.8154C323.075 30.6423 323.335 30.5124 323.622 30.4258C323.914 30.3392 324.224 30.2959 324.552 30.2959C325.131 30.2959 325.623 30.3939 326.028 30.5898C326.434 30.7812 326.744 31.0798 326.958 31.4854C327.177 31.891 327.286 32.4173 327.286 33.0645V38H325.68V33.3652C325.68 32.7773 325.559 32.3376 325.317 32.0459C325.076 31.7497 324.702 31.6016 324.196 31.6016C323.709 31.6016 323.321 31.7041 323.034 31.9092C322.752 32.1097 322.549 32.4082 322.426 32.8047C322.303 33.1966 322.241 33.6751 322.241 34.2402V38H320.635V27.3633H322.241Z" fill="#031A6E"/>
</svg>
