<svg id="Logo_Dr_Tracy_W" data-name="Logo Dr Tracy_W" xmlns="http://www.w3.org/2000/svg" width="156.76" height="196.265" viewBox="0 0 156.76 196.265">
  <path id="Logo_Dr_Tracy_W-2" data-name="Logo Dr Tracy_W" d="M17.551,175.807a11.01,11.01,0,0,0-4.121-2.889,15.9,15.9,0,0,0-6.206-1.084H0V196H8.406a13.45,13.45,0,0,0,4.662-.8,11.593,11.593,0,0,0,3.875-2.331,11.038,11.038,0,0,0,2.643-3.677,11.664,11.664,0,0,0,.969-4.843,14.536,14.536,0,0,0-.723-4.5A11.594,11.594,0,0,0,17.551,175.807Zm-2.5,11.41a6.023,6.023,0,0,1-1.642,2.316,7.25,7.25,0,0,1-2.545,1.4,10.661,10.661,0,0,1-3.283.476H4.761V176.4H8.636a8.133,8.133,0,0,1,2,.312,7.009,7.009,0,0,1,2.315,1.133,6.443,6.443,0,0,1,1.9,2.316,9.638,9.638,0,0,1,.2,7.059Zm19.111-5.795a4.337,4.337,0,0,1,1.625-.492l-.23,4.6a4.1,4.1,0,0,0-2.758.526,4.948,4.948,0,0,0-1.774,1.9,5.153,5.153,0,0,0-.624,2.43V196H25.841V181.651h4.138l.356,3.3a6.538,6.538,0,0,1,1.679-2.131A9.783,9.783,0,0,1,34.165,181.422Zm7.158,10.508a2.24,2.24,0,0,1,.738,1.707,2.166,2.166,0,0,1-.738,1.724,2.356,2.356,0,0,1-1.56.64,2.429,2.429,0,0,1-1.625-.64,2.167,2.167,0,0,1-.739-1.724,2.241,2.241,0,0,1,.739-1.707,2.331,2.331,0,0,1,1.625-.69A2.264,2.264,0,0,1,41.323,191.93Zm2.348-20.1H59.957v4.6H54.079V196H49.318V176.431H43.671Zm37.054,13.791a7.637,7.637,0,0,0,1.445-2.693,10.245,10.245,0,0,0,.444-2.955,8.661,8.661,0,0,0-.625-3.366,6.994,6.994,0,0,0-1.822-2.561,8.215,8.215,0,0,0-2.971-1.642,13.1,13.1,0,0,0-4.039-.575H65.835V196H70.6v-7.683h3.17l5.1,7.683H84.42l-5.63-8.784A6.836,6.836,0,0,0,80.725,185.625Zm-3.217-4.351a3.778,3.778,0,0,1-.592,1.166,3.077,3.077,0,0,1-1.133.92,4.018,4.018,0,0,1-1.806.361H70.6v-7.29h3.415a3.965,3.965,0,0,1,1.986.426,2.916,2.916,0,0,1,1.1,1.051,3.924,3.924,0,0,1,.476,1.232,5.59,5.59,0,0,1,.116,1A4.02,4.02,0,0,1,77.508,181.274Zm20.308-10.392L86.915,196h4.694l1.969-4.727H101.6L103.463,196h5.516l-10.9-25.118Zm-2.569,16.384,2.453-5.892,2.322,5.892Zm33.04,2.463L130.257,194a9.172,9.172,0,0,1-1.461.887,13.33,13.33,0,0,1-2.61.985,12.026,12.026,0,0,1-3.415.393,13.588,13.588,0,0,1-5.106-1.033,11.141,11.141,0,0,1-3.81-2.644,11.6,11.6,0,0,1-2.38-3.841,12.954,12.954,0,0,1-.822-4.63,14.67,14.67,0,0,1,.838-5.057,11.566,11.566,0,0,1,2.4-3.974,10.789,10.789,0,0,1,3.728-2.593,12.143,12.143,0,0,1,4.793-.92,12.955,12.955,0,0,1,4.3.658,14.839,14.839,0,0,1,3.054,1.412l-1.872,4.5a13.644,13.644,0,0,0-2.184-1.3,6.98,6.98,0,0,0-3.135-.674,6.326,6.326,0,0,0-2.644.575,6.889,6.889,0,0,0-2.232,1.625,7.911,7.911,0,0,0-1.527,2.446,8.1,8.1,0,0,0-.558,3.038,9.506,9.506,0,0,0,.509,3.184,7.064,7.064,0,0,0,1.461,2.48,6.459,6.459,0,0,0,2.283,1.592,7.676,7.676,0,0,0,3,.558,8.019,8.019,0,0,0,3.317-.624A7.559,7.559,0,0,0,128.287,189.73Zm22.23-17.9h5.878l-9.063,16.648V196h-4.76v-7.519l-8.9-16.648h5.878L145.1,182.99ZM156.76,52.476v51.659l-2.354.145c-.165.01-1.635.094-4.117.094a140.918,140.918,0,0,1-23.079-2c-14.182-2.4-34.452-8.188-50.474-22.1C51.411,58.286,14.86,57.261,5.129,57.406V99.115h48.89a41.093,41.093,0,0,1,40.907,41.1V156.76H54.147v-13.2a39.318,39.318,0,0,0-39.274-39.274H0V52.636l.121-.008v-.074L2.46,52.4a127.928,127.928,0,0,1,27.069,1.822C43.662,56.6,63.894,62.367,80.022,76.367,105.2,98.222,142.039,99.3,151.632,99.187V57.49H102.78A40.991,40.991,0,0,1,61.835,16.545V0h40.777V13.2a39.187,39.187,0,0,0,39.174,39.192h14.851v.082Z" fill="#fff"/>
</svg>
