<svg width="343" height="32" viewBox="0 0 343 32" fill="none" xmlns="http://www.w3.org/2000/svg">
<path d="M1.17773 4.43359H3.59766C4.73438 4.43359 5.55664 4.60352 6.06445 4.94336C6.57227 5.2832 6.82617 5.82031 6.82617 6.55469C6.82617 7.0625 6.68359 7.48242 6.39844 7.81445C6.11719 8.14258 5.70508 8.35547 5.16211 8.45312V8.51172C6.46289 8.73438 7.11328 9.41797 7.11328 10.5625C7.11328 11.3281 6.85352 11.9258 6.33398 12.3555C5.81836 12.7852 5.0957 13 4.16602 13H1.17773V4.43359ZM2.17383 8.10156H3.81445C4.51758 8.10156 5.02344 7.99219 5.33203 7.77344C5.64062 7.55078 5.79492 7.17773 5.79492 6.6543C5.79492 6.17383 5.62305 5.82812 5.2793 5.61719C4.93555 5.40234 4.38867 5.29492 3.63867 5.29492H2.17383V8.10156ZM2.17383 8.94531V12.1504H3.96094C4.65234 12.1504 5.17188 12.0176 5.51953 11.752C5.87109 11.4824 6.04688 11.0625 6.04688 10.4922C6.04688 9.96094 5.86719 9.57031 5.50781 9.32031C5.15234 9.07031 4.60938 8.94531 3.87891 8.94531H2.17383ZM13.1617 13L12.9684 12.0859H12.9215C12.6012 12.4883 12.2809 12.7617 11.9605 12.9062C11.6441 13.0469 11.2477 13.1172 10.7711 13.1172C10.1344 13.1172 9.63437 12.9531 9.27109 12.625C8.91172 12.2969 8.73203 11.8301 8.73203 11.2246C8.73203 9.92773 9.76914 9.24805 11.8434 9.18555L12.9332 9.15039V8.75195C12.9332 8.24805 12.8238 7.87695 12.6051 7.63867C12.3902 7.39648 12.0445 7.27539 11.568 7.27539C11.0328 7.27539 10.4273 7.43945 9.75156 7.76758L9.45273 7.02344C9.76914 6.85156 10.1148 6.7168 10.4898 6.61914C10.8687 6.52148 11.2477 6.47266 11.6266 6.47266C12.3922 6.47266 12.9586 6.64258 13.3258 6.98242C13.6969 7.32227 13.8824 7.86719 13.8824 8.61719V13H13.1617ZM10.9645 12.3145C11.5699 12.3145 12.0445 12.1484 12.3883 11.8164C12.7359 11.4844 12.9098 11.0195 12.9098 10.4219V9.8418L11.9371 9.88281C11.1637 9.91016 10.6051 10.0312 10.2613 10.2461C9.92148 10.457 9.75156 10.7871 9.75156 11.2363C9.75156 11.5879 9.85703 11.8555 10.068 12.0391C10.2828 12.2227 10.5816 12.3145 10.9645 12.3145ZM10.7359 14.418C10.7359 14.1953 10.7926 14.0312 10.9059 13.9258C11.023 13.8203 11.1637 13.7676 11.3277 13.7676C11.484 13.7676 11.6187 13.8203 11.732 13.9258C11.8453 14.0312 11.902 14.1953 11.902 14.418C11.902 14.6328 11.8453 14.793 11.732 14.8984C11.6187 15.0078 11.484 15.0625 11.3277 15.0625C11.1637 15.0625 11.023 15.0078 10.9059 14.8984C10.7926 14.793 10.7359 14.6328 10.7359 14.418ZM20.6867 13V8.8457C20.6867 8.32227 20.5676 7.93164 20.3293 7.67383C20.091 7.41602 19.718 7.28711 19.2102 7.28711C18.5383 7.28711 18.0461 7.46875 17.7336 7.83203C17.4211 8.19531 17.2648 8.79492 17.2648 9.63086V13H16.2922V6.57812H17.0832L17.2414 7.45703H17.2883C17.4875 7.14062 17.7668 6.89648 18.1262 6.72461C18.4855 6.54883 18.8859 6.46094 19.3273 6.46094C20.1008 6.46094 20.6828 6.64844 21.0734 7.02344C21.4641 7.39453 21.6594 7.99023 21.6594 8.81055V13H20.6867ZM33.1084 11.248C33.1084 11.8457 32.8858 12.3066 32.4404 12.6309C31.9951 12.9551 31.3701 13.1172 30.5654 13.1172C29.7139 13.1172 29.0498 12.9824 28.5733 12.7129V11.8105C28.8819 11.9668 29.2119 12.0898 29.5635 12.1797C29.919 12.2695 30.2608 12.3145 30.5889 12.3145C31.0967 12.3145 31.4873 12.2344 31.7608 12.0742C32.0342 11.9102 32.1709 11.6621 32.1709 11.3301C32.1709 11.0801 32.0615 10.8672 31.8428 10.6914C31.6279 10.5117 31.2061 10.3008 30.5772 10.0586C29.9795 9.83594 29.5537 9.64258 29.2998 9.47852C29.0498 9.31055 28.8623 9.12109 28.7373 8.91016C28.6162 8.69922 28.5557 8.44727 28.5557 8.1543C28.5557 7.63086 28.7686 7.21875 29.1944 6.91797C29.6201 6.61328 30.2041 6.46094 30.9463 6.46094C31.6377 6.46094 32.3135 6.60156 32.9737 6.88281L32.6279 7.67383C31.9834 7.4082 31.3994 7.27539 30.876 7.27539C30.4151 7.27539 30.0674 7.34766 29.833 7.49219C29.5987 7.63672 29.4815 7.83594 29.4815 8.08984C29.4815 8.26172 29.5244 8.4082 29.6104 8.5293C29.7002 8.65039 29.8428 8.76562 30.0381 8.875C30.2334 8.98438 30.6084 9.14258 31.1631 9.34961C31.9248 9.62695 32.4385 9.90625 32.7041 10.1875C32.9737 10.4688 33.1084 10.8223 33.1084 11.248ZM37.8092 13.1172C36.86 13.1172 36.11 12.8281 35.5592 12.25C35.0123 11.6719 34.7389 10.8691 34.7389 9.8418C34.7389 8.80664 34.9928 7.98438 35.5006 7.375C36.0123 6.76562 36.6979 6.46094 37.5572 6.46094C38.3619 6.46094 38.9987 6.72656 39.4674 7.25781C39.9362 7.78516 40.1705 8.48242 40.1705 9.34961V9.96484H35.7467C35.7662 10.7188 35.9557 11.291 36.3151 11.6816C36.6783 12.0723 37.1881 12.2676 37.8444 12.2676C38.5358 12.2676 39.2194 12.123 39.8951 11.834V12.7012C39.5514 12.8496 39.2252 12.9551 38.9166 13.0176C38.6119 13.084 38.2428 13.1172 37.8092 13.1172ZM37.5455 7.27539C37.0299 7.27539 36.6178 7.44336 36.3092 7.7793C36.0045 8.11523 35.8248 8.58008 35.7701 9.17383H39.1276C39.1276 8.56055 38.9908 8.0918 38.7174 7.76758C38.444 7.43945 38.0533 7.27539 37.5455 7.27539ZM38.401 5.7168C38.233 5.7168 38.069 5.68164 37.9088 5.61133C37.7487 5.53711 37.5905 5.45703 37.4342 5.37109C37.2819 5.28125 37.1334 5.20117 36.9889 5.13086C36.8483 5.05664 36.7115 5.01953 36.5787 5.01953C36.3834 5.01953 36.235 5.07812 36.1334 5.19531C36.0358 5.3125 35.9596 5.49023 35.9049 5.72852H35.3307C35.3815 5.25586 35.5182 4.88672 35.7408 4.62109C35.9674 4.35156 36.2584 4.2168 36.6139 4.2168C36.7936 4.2168 36.9674 4.25391 37.1354 4.32812C37.3033 4.39844 37.4635 4.47852 37.6158 4.56836C37.7682 4.6543 37.9147 4.73438 38.0553 4.80859C38.1959 4.87891 38.3287 4.91406 38.4537 4.91406C38.6451 4.91406 38.7877 4.85742 38.8815 4.74414C38.9752 4.62695 39.0514 4.44727 39.11 4.20508H39.6901C39.6393 4.67773 39.5026 5.04883 39.2799 5.31836C39.0612 5.58398 38.7682 5.7168 38.401 5.7168ZM51.2797 11.248C51.2797 11.8457 51.0571 12.3066 50.6118 12.6309C50.1664 12.9551 49.5414 13.1172 48.7368 13.1172C47.8852 13.1172 47.2211 12.9824 46.7446 12.7129V11.8105C47.0532 11.9668 47.3832 12.0898 47.7348 12.1797C48.0903 12.2695 48.4321 12.3145 48.7602 12.3145C49.268 12.3145 49.6586 12.2344 49.9321 12.0742C50.2055 11.9102 50.3422 11.6621 50.3422 11.3301C50.3422 11.0801 50.2328 10.8672 50.0141 10.6914C49.7993 10.5117 49.3774 10.3008 48.7485 10.0586C48.1508 9.83594 47.725 9.64258 47.4711 9.47852C47.2211 9.31055 47.0336 9.12109 46.9086 8.91016C46.7875 8.69922 46.727 8.44727 46.727 8.1543C46.727 7.63086 46.9399 7.21875 47.3657 6.91797C47.7914 6.61328 48.3754 6.46094 49.1176 6.46094C49.809 6.46094 50.4848 6.60156 51.145 6.88281L50.7993 7.67383C50.1547 7.4082 49.5707 7.27539 49.0473 7.27539C48.5864 7.27539 48.2387 7.34766 48.0043 7.49219C47.77 7.63672 47.6528 7.83594 47.6528 8.08984C47.6528 8.26172 47.6957 8.4082 47.7817 8.5293C47.8715 8.65039 48.0141 8.76562 48.2094 8.875C48.4047 8.98438 48.7797 9.14258 49.3344 9.34961C50.0961 9.62695 50.6098 9.90625 50.8754 10.1875C51.145 10.4688 51.2797 10.8223 51.2797 11.248ZM54.1817 6.58984V10.7441C54.1817 11.2676 54.3008 11.6582 54.5391 11.916C54.7774 12.1738 55.1504 12.3027 55.6582 12.3027C56.3301 12.3027 56.8204 12.1191 57.1289 11.752C57.4414 11.3848 57.5977 10.7852 57.5977 9.95312V6.58984H58.5704V7.29883C58.8907 7.25586 59.1231 7.10938 59.2676 6.85938C59.4121 6.60938 59.4844 6.18359 59.4844 5.58203H60.5274L60.6153 5.7168C60.4903 6.44336 60.2559 6.99414 59.9121 7.36914C59.5684 7.74023 59.1211 7.95312 58.5704 8.00781V13H57.7676L57.627 12.1387H57.5743C57.3711 12.459 57.0918 12.7031 56.7364 12.8711C56.3848 13.0352 55.9922 13.1172 55.5586 13.1172C54.7657 13.1172 54.1739 12.9316 53.7832 12.5605C53.3926 12.1895 53.1973 11.5957 53.1973 10.7793V6.58984H54.1817ZM57.1934 4.24023C57.1934 4.78711 56.8692 5.12695 56.2207 5.25977L56.1621 5.92188H55.5469L55.4766 4.89062C55.8125 4.83594 56.0567 4.75977 56.209 4.66211C56.3614 4.56445 56.4375 4.43164 56.4375 4.26367C56.4375 4.0957 56.3711 3.97266 56.2383 3.89453C56.1094 3.8125 55.9024 3.77148 55.6172 3.77148C55.375 3.77148 55.1914 3.7832 55.0664 3.80664V3.2207C55.2149 3.18164 55.4239 3.16211 55.6934 3.16211C56.6934 3.16211 57.1934 3.52148 57.1934 4.24023ZM70.9217 12.1387H70.869C70.4198 12.791 69.7479 13.1172 68.8534 13.1172C68.0135 13.1172 67.3592 12.8301 66.8905 12.2559C66.4256 11.6816 66.1932 10.8652 66.1932 9.80664C66.1932 8.74805 66.4276 7.92578 66.8963 7.33984C67.3651 6.75391 68.0174 6.46094 68.8534 6.46094C69.7245 6.46094 70.3924 6.77734 70.8573 7.41016H70.9335L70.8924 6.94727L70.869 6.49609V3.88281H71.8417V13H71.0506L70.9217 12.1387ZM68.9764 12.3027C69.6405 12.3027 70.121 12.123 70.4178 11.7637C70.7186 11.4004 70.869 10.8164 70.869 10.0117V9.80664C70.869 8.89648 70.7167 8.24805 70.412 7.86133C70.1112 7.4707 69.6288 7.27539 68.9647 7.27539C68.3944 7.27539 67.9569 7.49805 67.6522 7.94336C67.3514 8.38477 67.201 9.00977 67.201 9.81836C67.201 10.6387 67.3514 11.2578 67.6522 11.6758C67.953 12.0938 68.3944 12.3027 68.9764 12.3027ZM75.2241 6.57812V10.7441C75.2241 11.2676 75.3432 11.6582 75.5815 11.916C75.8198 12.1738 76.1928 12.3027 76.7006 12.3027C77.3725 12.3027 77.8628 12.1191 78.1713 11.752C78.4838 11.3848 78.6401 10.7852 78.6401 9.95312V6.57812H79.6128V13H78.81L78.6694 12.1387H78.6167C78.4174 12.4551 78.1401 12.6973 77.7846 12.8652C77.4331 13.0332 77.0307 13.1172 76.5776 13.1172C75.7963 13.1172 75.2104 12.9316 74.8198 12.5605C74.4331 12.1895 74.2397 11.5957 74.2397 10.7793V6.57812H75.2241ZM76.2026 14.418C76.2026 14.1953 76.2592 14.0312 76.3725 13.9258C76.4897 13.8203 76.6303 13.7676 76.7944 13.7676C76.9506 13.7676 77.0854 13.8203 77.1987 13.9258C77.312 14.0312 77.3686 14.1953 77.3686 14.418C77.3686 14.6328 77.312 14.793 77.1987 14.8984C77.0854 15.0078 76.9506 15.0625 76.7944 15.0625C76.6303 15.0625 76.4897 15.0078 76.3725 14.8984C76.2592 14.793 76.2026 14.6328 76.2026 14.418ZM86.4756 13V8.8457C86.4756 8.32227 86.3565 7.93164 86.1182 7.67383C85.8799 7.41602 85.5069 7.28711 84.9991 7.28711C84.3272 7.28711 83.835 7.46875 83.5225 7.83203C83.21 8.19531 83.0538 8.79492 83.0538 9.63086V13H82.0811V6.57812H82.8721L83.0303 7.45703H83.0772C83.2764 7.14062 83.5557 6.89648 83.9151 6.72461C84.2745 6.54883 84.6749 6.46094 85.1163 6.46094C85.8897 6.46094 86.4717 6.64844 86.8624 7.02344C87.253 7.39453 87.4483 7.99023 87.4483 8.81055V13H86.4756ZM95.1081 6.57812V7.19336L93.9186 7.33398C94.028 7.4707 94.1256 7.65039 94.2116 7.87305C94.2975 8.0918 94.3405 8.33984 94.3405 8.61719C94.3405 9.24609 94.1256 9.74805 93.696 10.123C93.2663 10.498 92.6764 10.6855 91.9264 10.6855C91.735 10.6855 91.5553 10.6699 91.3874 10.6387C90.9733 10.8574 90.7663 11.1328 90.7663 11.4648C90.7663 11.6406 90.8385 11.7715 90.9831 11.8574C91.1276 11.9395 91.3756 11.9805 91.7272 11.9805H92.8639C93.5592 11.9805 94.0924 12.127 94.4635 12.4199C94.8385 12.7129 95.026 13.1387 95.026 13.6973C95.026 14.4082 94.7409 14.9492 94.1706 15.3203C93.6003 15.6953 92.7682 15.8828 91.6745 15.8828C90.8346 15.8828 90.1862 15.7266 89.7292 15.4141C89.276 15.1016 89.0495 14.6602 89.0495 14.0898C89.0495 13.6992 89.1745 13.3613 89.4245 13.0762C89.6745 12.791 90.026 12.5977 90.4792 12.4961C90.3151 12.4219 90.1764 12.3066 90.0631 12.1504C89.9538 11.9941 89.8991 11.8125 89.8991 11.6055C89.8991 11.3711 89.9616 11.166 90.0866 10.9902C90.2116 10.8145 90.4088 10.6445 90.6784 10.4805C90.3463 10.3438 90.0749 10.1113 89.8639 9.7832C89.6569 9.45508 89.5534 9.08008 89.5534 8.6582C89.5534 7.95508 89.7643 7.41406 90.1862 7.03516C90.6081 6.65234 91.2057 6.46094 91.9792 6.46094C92.3151 6.46094 92.6178 6.5 92.8874 6.57812H95.1081ZM89.987 14.0781C89.987 14.4258 90.1335 14.6895 90.4264 14.8691C90.7194 15.0488 91.1393 15.1387 91.6862 15.1387C92.5026 15.1387 93.1061 15.0156 93.4967 14.7695C93.8913 14.5273 94.0885 14.1973 94.0885 13.7793C94.0885 13.4316 93.9811 13.1895 93.7663 13.0527C93.5514 12.9199 93.1471 12.8535 92.5534 12.8535H91.3874C90.946 12.8535 90.6022 12.959 90.3561 13.1699C90.11 13.3809 89.987 13.6836 89.987 14.0781ZM90.5143 8.63477C90.5143 9.08398 90.6413 9.42383 90.8952 9.6543C91.1491 9.88477 91.5026 10 91.9557 10C92.9049 10 93.3795 9.53906 93.3795 8.61719C93.3795 7.65234 92.8991 7.16992 91.9381 7.16992C91.4811 7.16992 91.1295 7.29297 90.8835 7.53906C90.6374 7.78516 90.5143 8.15039 90.5143 8.63477ZM106.124 13V8.8457C106.124 8.32227 106.004 7.93164 105.766 7.67383C105.528 7.41602 105.155 7.28711 104.647 7.28711C103.975 7.28711 103.483 7.46875 103.17 7.83203C102.858 8.19531 102.702 8.79492 102.702 9.63086V13H101.729V6.57812H102.52L102.678 7.45703H102.725C102.924 7.14062 103.204 6.89648 103.563 6.72461C103.922 6.54883 104.323 6.46094 104.764 6.46094C105.538 6.46094 106.12 6.64844 106.51 7.02344C106.901 7.39453 107.096 7.99023 107.096 8.81055V13H106.124ZM114.756 6.57812V7.19336L113.566 7.33398C113.676 7.4707 113.774 7.65039 113.859 7.87305C113.945 8.0918 113.988 8.33984 113.988 8.61719C113.988 9.24609 113.774 9.74805 113.344 10.123C112.914 10.498 112.324 10.6855 111.574 10.6855C111.383 10.6855 111.203 10.6699 111.035 10.6387C110.621 10.8574 110.414 11.1328 110.414 11.4648C110.414 11.6406 110.486 11.7715 110.631 11.8574C110.775 11.9395 111.024 11.9805 111.375 11.9805H112.512C113.207 11.9805 113.74 12.127 114.111 12.4199C114.486 12.7129 114.674 13.1387 114.674 13.6973C114.674 14.4082 114.389 14.9492 113.818 15.3203C113.248 15.6953 112.416 15.8828 111.322 15.8828C110.482 15.8828 109.834 15.7266 109.377 15.4141C108.924 15.1016 108.697 14.6602 108.697 14.0898C108.697 13.6992 108.822 13.3613 109.072 13.0762C109.322 12.791 109.674 12.5977 110.127 12.4961C109.963 12.4219 109.824 12.3066 109.711 12.1504C109.602 11.9941 109.547 11.8125 109.547 11.6055C109.547 11.3711 109.609 11.166 109.734 10.9902C109.859 10.8145 110.057 10.6445 110.326 10.4805C109.994 10.3438 109.723 10.1113 109.512 9.7832C109.305 9.45508 109.201 9.08008 109.201 8.6582C109.201 7.95508 109.412 7.41406 109.834 7.03516C110.256 6.65234 110.854 6.46094 111.627 6.46094C111.963 6.46094 112.266 6.5 112.535 6.57812H114.756ZM109.635 14.0781C109.635 14.4258 109.781 14.6895 110.074 14.8691C110.367 15.0488 110.787 15.1387 111.334 15.1387C112.15 15.1387 112.754 15.0156 113.145 14.7695C113.539 14.5273 113.736 14.1973 113.736 13.7793C113.736 13.4316 113.629 13.1895 113.414 13.0527C113.199 12.9199 112.795 12.8535 112.201 12.8535H111.035C110.594 12.8535 110.25 12.959 110.004 13.1699C109.758 13.3809 109.635 13.6836 109.635 14.0781ZM110.162 8.63477C110.162 9.08398 110.289 9.42383 110.543 9.6543C110.797 9.88477 111.15 10 111.604 10C112.553 10 113.027 9.53906 113.027 8.61719C113.027 7.65234 112.547 7.16992 111.586 7.16992C111.129 7.16992 110.777 7.29297 110.531 7.53906C110.285 7.78516 110.162 8.15039 110.162 8.63477ZM117.388 6.57812V10.7441C117.388 11.2676 117.507 11.6582 117.746 11.916C117.984 12.1738 118.357 12.3027 118.865 12.3027C119.537 12.3027 120.027 12.1191 120.336 11.752C120.648 11.3848 120.804 10.7852 120.804 9.95312V6.57812H121.777V13H120.974L120.834 12.1387H120.781C120.582 12.4551 120.304 12.6973 119.949 12.8652C119.597 13.0332 119.195 13.1172 118.742 13.1172C117.961 13.1172 117.375 12.9316 116.984 12.5605C116.597 12.1895 116.404 11.5957 116.404 10.7793V6.57812H117.388ZM129.788 9.7832C129.788 10.8301 129.525 11.6484 128.997 12.2383C128.47 12.8242 127.741 13.1172 126.812 13.1172C126.238 13.1172 125.728 12.9824 125.282 12.7129C124.837 12.4434 124.493 12.0566 124.251 11.5527C124.009 11.0488 123.888 10.459 123.888 9.7832C123.888 8.73633 124.15 7.92188 124.673 7.33984C125.197 6.75391 125.923 6.46094 126.853 6.46094C127.751 6.46094 128.464 6.75977 128.991 7.35742C129.523 7.95508 129.788 8.76367 129.788 9.7832ZM124.896 9.7832C124.896 10.6035 125.06 11.2285 125.388 11.6582C125.716 12.0879 126.199 12.3027 126.835 12.3027C127.472 12.3027 127.954 12.0898 128.282 11.6641C128.615 11.2344 128.781 10.6074 128.781 9.7832C128.781 8.9668 128.615 8.34766 128.282 7.92578C127.954 7.5 127.468 7.28711 126.824 7.28711C126.187 7.28711 125.706 7.49609 125.382 7.91406C125.058 8.33203 124.896 8.95508 124.896 9.7832ZM128.64 5.72852H128.089C127.71 5.47461 127.298 5.15039 126.853 4.75586C126.439 5.13086 126.027 5.45508 125.616 5.72852H125.066V5.59375L125.376 5.24219C125.814 4.76172 126.134 4.37109 126.337 4.07031H127.368C127.626 4.4375 128.05 4.94531 128.64 5.59375V5.72852ZM125.534 4.58594H124.978C124.509 4.21875 124.111 3.81641 123.782 3.37891V3.25586H124.79C124.993 3.67773 125.241 4.07812 125.534 4.45703V4.58594ZM136.294 13V8.8457C136.294 8.32227 136.175 7.93164 135.936 7.67383C135.698 7.41602 135.325 7.28711 134.817 7.28711C134.145 7.28711 133.653 7.46875 133.341 7.83203C133.028 8.19531 132.872 8.79492 132.872 9.63086V13H131.899V6.57812H132.69L132.849 7.45703H132.895C133.095 7.14062 133.374 6.89648 133.733 6.72461C134.093 6.54883 134.493 6.46094 134.934 6.46094C135.708 6.46094 136.29 6.64844 136.681 7.02344C137.071 7.39453 137.266 7.99023 137.266 8.81055V13H136.294ZM148.967 13V8.8457C148.967 8.32227 148.848 7.93164 148.61 7.67383C148.372 7.41602 147.999 7.28711 147.491 7.28711C146.819 7.28711 146.327 7.46875 146.014 7.83203C145.702 8.19531 145.546 8.79492 145.546 9.63086V13H144.573V6.57812H145.364L145.522 7.45703H145.569C145.768 7.14062 146.048 6.89648 146.407 6.72461C146.766 6.54883 147.167 6.46094 147.608 6.46094C148.382 6.46094 148.964 6.64844 149.354 7.02344C149.745 7.39453 149.94 7.99023 149.94 8.81055V13H148.967ZM156.739 13V8.8457C156.739 8.32227 156.619 7.93164 156.381 7.67383C156.143 7.41602 155.77 7.28711 155.262 7.28711C154.586 7.28711 154.092 7.4707 153.78 7.83789C153.471 8.20508 153.317 8.80664 153.317 9.64258V13H152.344V3.88281H153.317V6.64258C153.317 6.97461 153.301 7.25 153.27 7.46875H153.328C153.52 7.16016 153.791 6.91797 154.143 6.74219C154.498 6.5625 154.903 6.47266 155.356 6.47266C156.141 6.47266 156.729 6.66016 157.119 7.03516C157.514 7.40625 157.711 7.99805 157.711 8.81055V13H156.739ZM164.064 13L163.871 12.0859H163.824C163.504 12.4883 163.183 12.7617 162.863 12.9062C162.547 13.0469 162.15 13.1172 161.674 13.1172C161.037 13.1172 160.537 12.9531 160.174 12.625C159.814 12.2969 159.635 11.8301 159.635 11.2246C159.635 9.92773 160.672 9.24805 162.746 9.18555L163.836 9.15039V8.75195C163.836 8.24805 163.726 7.87695 163.508 7.63867C163.293 7.39648 162.947 7.27539 162.471 7.27539C161.935 7.27539 161.33 7.43945 160.654 7.76758L160.355 7.02344C160.672 6.85156 161.017 6.7168 161.392 6.61914C161.771 6.52148 162.15 6.47266 162.529 6.47266C163.295 6.47266 163.861 6.64258 164.228 6.98242C164.6 7.32227 164.785 7.86719 164.785 8.61719V13H164.064ZM161.867 12.3145C162.473 12.3145 162.947 12.1484 163.291 11.8164C163.639 11.4844 163.812 11.0195 163.812 10.4219V9.8418L162.84 9.88281C162.066 9.91016 161.508 10.0312 161.164 10.2461C160.824 10.457 160.654 10.7871 160.654 11.2363C160.654 11.5879 160.76 11.8555 160.971 12.0391C161.185 12.2227 161.484 12.3145 161.867 12.3145ZM160.42 5.59375C160.916 5.0625 161.264 4.67188 161.463 4.42188C161.662 4.17188 161.807 3.9668 161.896 3.80664H162.869C162.955 3.9707 163.103 4.18359 163.314 4.44531C163.529 4.70312 163.881 5.08594 164.369 5.59375V5.72852H163.672C163.328 5.51367 162.896 5.15039 162.377 4.63867C161.846 5.16211 161.418 5.52539 161.094 5.72852H160.42V5.59375ZM171.589 13V8.8457C171.589 8.32227 171.47 7.93164 171.232 7.67383C170.994 7.41602 170.621 7.28711 170.113 7.28711C169.441 7.28711 168.949 7.46875 168.636 7.83203C168.324 8.19531 168.167 8.79492 168.167 9.63086V13H167.195V6.57812H167.986L168.144 7.45703H168.191C168.39 7.14062 168.669 6.89648 169.029 6.72461C169.388 6.54883 169.789 6.46094 170.23 6.46094C171.003 6.46094 171.585 6.64844 171.976 7.02344C172.367 7.39453 172.562 7.99023 172.562 8.81055V13H171.589ZM182.435 13.1172C181.505 13.1172 180.784 12.832 180.273 12.2617C179.765 11.6875 179.511 10.877 179.511 9.83008C179.511 8.75586 179.769 7.92578 180.284 7.33984C180.804 6.75391 181.542 6.46094 182.499 6.46094C182.808 6.46094 183.117 6.49414 183.425 6.56055C183.734 6.62695 183.976 6.70508 184.152 6.79492L183.853 7.62109C183.638 7.53516 183.404 7.46484 183.15 7.41016C182.896 7.35156 182.671 7.32227 182.476 7.32227C181.171 7.32227 180.519 8.1543 180.519 9.81836C180.519 10.6074 180.677 11.2129 180.993 11.6348C181.314 12.0566 181.786 12.2676 182.411 12.2676C182.947 12.2676 183.495 12.1523 184.058 11.9219V12.7832C183.628 13.0059 183.087 13.1172 182.435 13.1172ZM191.53 9.7832C191.53 10.8301 191.267 11.6484 190.739 12.2383C190.212 12.8242 189.483 13.1172 188.554 13.1172C187.979 13.1172 187.47 12.9824 187.024 12.7129C186.579 12.4434 186.235 12.0566 185.993 11.5527C185.751 11.0488 185.63 10.459 185.63 9.7832C185.63 8.73633 185.892 7.92188 186.415 7.33984C186.938 6.75391 187.665 6.46094 188.595 6.46094C189.493 6.46094 190.206 6.75977 190.733 7.35742C191.265 7.95508 191.53 8.76367 191.53 9.7832ZM186.638 9.7832C186.638 10.6035 186.802 11.2285 187.13 11.6582C187.458 12.0879 187.94 12.3027 188.577 12.3027C189.214 12.3027 189.696 12.0898 190.024 11.6641C190.356 11.2344 190.522 10.6074 190.522 9.7832C190.522 8.9668 190.356 8.34766 190.024 7.92578C189.696 7.5 189.21 7.28711 188.565 7.28711C187.929 7.28711 187.448 7.49609 187.124 7.91406C186.8 8.33203 186.638 8.95508 186.638 9.7832ZM186.608 5.59375C187.104 5.0625 187.452 4.67188 187.651 4.42188C187.851 4.17188 187.995 3.9668 188.085 3.80664H189.058C189.143 3.9707 189.292 4.18359 189.503 4.44531C189.718 4.70312 190.069 5.08594 190.558 5.59375V5.72852H189.86C189.517 5.51367 189.085 5.15039 188.565 4.63867C188.034 5.16211 187.606 5.52539 187.282 5.72852H186.608V5.59375ZM198.036 13V8.8457C198.036 8.32227 197.917 7.93164 197.678 7.67383C197.44 7.41602 197.067 7.28711 196.559 7.28711C195.887 7.28711 195.395 7.46875 195.083 7.83203C194.77 8.19531 194.614 8.79492 194.614 9.63086V13H193.641V6.57812H194.432L194.59 7.45703H194.637C194.836 7.14062 195.116 6.89648 195.475 6.72461C195.834 6.54883 196.235 6.46094 196.676 6.46094C197.45 6.46094 198.032 6.64844 198.422 7.02344C198.813 7.39453 199.008 7.99023 199.008 8.81055V13H198.036ZM206.668 6.57812V7.19336L205.479 7.33398C205.588 7.4707 205.686 7.65039 205.772 7.87305C205.858 8.0918 205.901 8.33984 205.901 8.61719C205.901 9.24609 205.686 9.74805 205.256 10.123C204.826 10.498 204.236 10.6855 203.486 10.6855C203.295 10.6855 203.115 10.6699 202.947 10.6387C202.533 10.8574 202.326 11.1328 202.326 11.4648C202.326 11.6406 202.399 11.7715 202.543 11.8574C202.688 11.9395 202.936 11.9805 203.287 11.9805H204.424C205.119 11.9805 205.652 12.127 206.024 12.4199C206.399 12.7129 206.586 13.1387 206.586 13.6973C206.586 14.4082 206.301 14.9492 205.731 15.3203C205.16 15.6953 204.328 15.8828 203.234 15.8828C202.395 15.8828 201.746 15.7266 201.289 15.4141C200.836 15.1016 200.609 14.6602 200.609 14.0898C200.609 13.6992 200.734 13.3613 200.984 13.0762C201.234 12.791 201.586 12.5977 202.039 12.4961C201.875 12.4219 201.736 12.3066 201.623 12.1504C201.514 11.9941 201.459 11.8125 201.459 11.6055C201.459 11.3711 201.522 11.166 201.647 10.9902C201.772 10.8145 201.969 10.6445 202.238 10.4805C201.906 10.3438 201.635 10.1113 201.424 9.7832C201.217 9.45508 201.113 9.08008 201.113 8.6582C201.113 7.95508 201.324 7.41406 201.746 7.03516C202.168 6.65234 202.766 6.46094 203.539 6.46094C203.875 6.46094 204.178 6.5 204.447 6.57812H206.668ZM201.547 14.0781C201.547 14.4258 201.693 14.6895 201.986 14.8691C202.279 15.0488 202.699 15.1387 203.246 15.1387C204.063 15.1387 204.666 15.0156 205.057 14.7695C205.451 14.5273 205.649 14.1973 205.649 13.7793C205.649 13.4316 205.541 13.1895 205.326 13.0527C205.111 12.9199 204.707 12.8535 204.113 12.8535H202.947C202.506 12.8535 202.162 12.959 201.916 13.1699C201.67 13.3809 201.547 13.6836 201.547 14.0781ZM202.074 8.63477C202.074 9.08398 202.201 9.42383 202.455 9.6543C202.709 9.88477 203.063 10 203.516 10C204.465 10 204.94 9.53906 204.94 8.61719C204.94 7.65234 204.459 7.16992 203.498 7.16992C203.041 7.16992 202.69 7.29297 202.443 7.53906C202.197 7.78516 202.074 8.15039 202.074 8.63477ZM215.363 12.3145C215.535 12.3145 215.701 12.3027 215.861 12.2793C216.021 12.252 216.148 12.2246 216.242 12.1973V12.9414C216.137 12.9922 215.98 13.0332 215.773 13.0645C215.57 13.0996 215.387 13.1172 215.223 13.1172C213.98 13.1172 213.359 12.4629 213.359 11.1543V7.33398H212.439V6.86523L213.359 6.46094L213.769 5.08984H214.332V6.57812H216.195V7.33398H214.332V11.1133C214.332 11.5 214.424 11.7969 214.607 12.0039C214.791 12.2109 215.043 12.3145 215.363 12.3145ZM220.861 6.46094C221.146 6.46094 221.402 6.48438 221.628 6.53125L221.494 7.43359C221.228 7.375 220.994 7.3457 220.791 7.3457C220.271 7.3457 219.826 7.55664 219.455 7.97852C219.087 8.40039 218.904 8.92578 218.904 9.55469V13H217.931V6.57812H218.734L218.845 7.76758H218.892C219.13 7.34961 219.418 7.02734 219.753 6.80078C220.089 6.57422 220.459 6.46094 220.861 6.46094ZM228.773 9.7832C228.773 10.8301 228.509 11.6484 227.982 12.2383C227.454 12.8242 226.726 13.1172 225.796 13.1172C225.222 13.1172 224.712 12.9824 224.267 12.7129C223.821 12.4434 223.478 12.0566 223.235 11.5527C222.993 11.0488 222.872 10.459 222.872 9.7832C222.872 8.73633 223.134 7.92188 223.657 7.33984C224.181 6.75391 224.907 6.46094 225.837 6.46094C226.735 6.46094 227.448 6.75977 227.976 7.35742C228.507 7.95508 228.773 8.76367 228.773 9.7832ZM223.88 9.7832C223.88 10.6035 224.044 11.2285 224.372 11.6582C224.7 12.0879 225.183 12.3027 225.819 12.3027C226.456 12.3027 226.939 12.0898 227.267 11.6641C227.599 11.2344 227.765 10.6074 227.765 9.7832C227.765 8.9668 227.599 8.34766 227.267 7.92578C226.939 7.5 226.452 7.28711 225.808 7.28711C225.171 7.28711 224.691 7.49609 224.366 7.91406C224.042 8.33203 223.88 8.95508 223.88 9.7832ZM235.278 13V8.8457C235.278 8.32227 235.159 7.93164 234.921 7.67383C234.682 7.41602 234.309 7.28711 233.801 7.28711C233.13 7.28711 232.637 7.46875 232.325 7.83203C232.012 8.19531 231.856 8.79492 231.856 9.63086V13H230.884V6.57812H231.675L231.833 7.45703H231.88C232.079 7.14062 232.358 6.89648 232.718 6.72461C233.077 6.54883 233.477 6.46094 233.919 6.46094C234.692 6.46094 235.274 6.64844 235.665 7.02344C236.055 7.39453 236.251 7.99023 236.251 8.81055V13H235.278ZM243.91 6.57812V7.19336L242.721 7.33398C242.83 7.4707 242.928 7.65039 243.014 7.87305C243.1 8.0918 243.143 8.33984 243.143 8.61719C243.143 9.24609 242.928 9.74805 242.498 10.123C242.069 10.498 241.479 10.6855 240.729 10.6855C240.537 10.6855 240.358 10.6699 240.19 10.6387C239.776 10.8574 239.569 11.1328 239.569 11.4648C239.569 11.6406 239.641 11.7715 239.785 11.8574C239.93 11.9395 240.178 11.9805 240.53 11.9805H241.666C242.362 11.9805 242.895 12.127 243.266 12.4199C243.641 12.7129 243.828 13.1387 243.828 13.6973C243.828 14.4082 243.543 14.9492 242.973 15.3203C242.403 15.6953 241.571 15.8828 240.477 15.8828C239.637 15.8828 238.989 15.7266 238.532 15.4141C238.078 15.1016 237.852 14.6602 237.852 14.0898C237.852 13.6992 237.977 13.3613 238.227 13.0762C238.477 12.791 238.828 12.5977 239.282 12.4961C239.118 12.4219 238.979 12.3066 238.866 12.1504C238.756 11.9941 238.701 11.8125 238.701 11.6055C238.701 11.3711 238.764 11.166 238.889 10.9902C239.014 10.8145 239.211 10.6445 239.481 10.4805C239.149 10.3438 238.877 10.1113 238.666 9.7832C238.459 9.45508 238.356 9.08008 238.356 8.6582C238.356 7.95508 238.567 7.41406 238.989 7.03516C239.41 6.65234 240.008 6.46094 240.782 6.46094C241.118 6.46094 241.42 6.5 241.69 6.57812H243.91ZM238.789 14.0781C238.789 14.4258 238.936 14.6895 239.229 14.8691C239.522 15.0488 239.942 15.1387 240.489 15.1387C241.305 15.1387 241.909 15.0156 242.299 14.7695C242.694 14.5273 242.891 14.1973 242.891 13.7793C242.891 13.4316 242.784 13.1895 242.569 13.0527C242.354 12.9199 241.95 12.8535 241.356 12.8535H240.19C239.748 12.8535 239.405 12.959 239.159 13.1699C238.912 13.3809 238.789 13.6836 238.789 14.0781ZM239.317 8.63477C239.317 9.08398 239.444 9.42383 239.698 9.6543C239.951 9.88477 240.305 10 240.758 10C241.707 10 242.182 9.53906 242.182 8.61719C242.182 7.65234 241.701 7.16992 240.741 7.16992C240.284 7.16992 239.932 7.29297 239.686 7.53906C239.44 7.78516 239.317 8.15039 239.317 8.63477ZM255.787 6.57812V7.19336L254.598 7.33398C254.707 7.4707 254.805 7.65039 254.891 7.87305C254.977 8.0918 255.02 8.33984 255.02 8.61719C255.02 9.24609 254.805 9.74805 254.375 10.123C253.945 10.498 253.356 10.6855 252.606 10.6855C252.414 10.6855 252.235 10.6699 252.067 10.6387C251.652 10.8574 251.445 11.1328 251.445 11.4648C251.445 11.6406 251.518 11.7715 251.662 11.8574C251.807 11.9395 252.055 11.9805 252.406 11.9805H253.543C254.238 11.9805 254.772 12.127 255.143 12.4199C255.518 12.7129 255.705 13.1387 255.705 13.6973C255.705 14.4082 255.42 14.9492 254.85 15.3203C254.279 15.6953 253.447 15.8828 252.354 15.8828C251.514 15.8828 250.865 15.7266 250.408 15.4141C249.955 15.1016 249.729 14.6602 249.729 14.0898C249.729 13.6992 249.854 13.3613 250.104 13.0762C250.354 12.791 250.705 12.5977 251.158 12.4961C250.994 12.4219 250.856 12.3066 250.742 12.1504C250.633 11.9941 250.578 11.8125 250.578 11.6055C250.578 11.3711 250.641 11.166 250.766 10.9902C250.891 10.8145 251.088 10.6445 251.358 10.4805C251.026 10.3438 250.754 10.1113 250.543 9.7832C250.336 9.45508 250.233 9.08008 250.233 8.6582C250.233 7.95508 250.444 7.41406 250.865 7.03516C251.287 6.65234 251.885 6.46094 252.658 6.46094C252.994 6.46094 253.297 6.5 253.567 6.57812H255.787ZM250.666 14.0781C250.666 14.4258 250.813 14.6895 251.106 14.8691C251.399 15.0488 251.819 15.1387 252.365 15.1387C253.182 15.1387 253.785 15.0156 254.176 14.7695C254.57 14.5273 254.768 14.1973 254.768 13.7793C254.768 13.4316 254.66 13.1895 254.445 13.0527C254.231 12.9199 253.826 12.8535 253.233 12.8535H252.067C251.625 12.8535 251.281 12.959 251.035 13.1699C250.789 13.3809 250.666 13.6836 250.666 14.0781ZM251.194 8.63477C251.194 9.08398 251.32 9.42383 251.574 9.6543C251.828 9.88477 252.182 10 252.635 10C253.584 10 254.059 9.53906 254.059 8.61719C254.059 7.65234 253.578 7.16992 252.617 7.16992C252.16 7.16992 251.809 7.29297 251.563 7.53906C251.317 7.78516 251.194 8.15039 251.194 8.63477ZM258.478 13H257.506V6.57812H258.478V13ZM257.424 4.83789C257.424 4.61523 257.478 4.45312 257.588 4.35156C257.697 4.24609 257.834 4.19336 257.998 4.19336C258.154 4.19336 258.289 4.24609 258.402 4.35156C258.515 4.45703 258.572 4.61914 258.572 4.83789C258.572 5.05664 258.515 5.2207 258.402 5.33008C258.289 5.43555 258.154 5.48828 257.998 5.48828C257.834 5.48828 257.697 5.43555 257.588 5.33008C257.478 5.2207 257.424 5.05664 257.424 4.83789ZM264.89 13L264.697 12.0859H264.65C264.329 12.4883 264.009 12.7617 263.689 12.9062C263.372 13.0469 262.976 13.1172 262.499 13.1172C261.863 13.1172 261.363 12.9531 260.999 12.625C260.64 12.2969 260.46 11.8301 260.46 11.2246C260.46 9.92773 261.497 9.24805 263.572 9.18555L264.661 9.15039V8.75195C264.661 8.24805 264.552 7.87695 264.333 7.63867C264.119 7.39648 263.773 7.27539 263.296 7.27539C262.761 7.27539 262.156 7.43945 261.48 7.76758L261.181 7.02344C261.497 6.85156 261.843 6.7168 262.218 6.61914C262.597 6.52148 262.976 6.47266 263.355 6.47266C264.12 6.47266 264.687 6.64258 265.054 6.98242C265.425 7.32227 265.611 7.86719 265.611 8.61719V13H264.89ZM262.693 12.3145C263.298 12.3145 263.773 12.1484 264.117 11.8164C264.464 11.4844 264.638 11.0195 264.638 10.4219V9.8418L263.665 9.88281C262.892 9.91016 262.333 10.0312 261.99 10.2461C261.65 10.457 261.48 10.7871 261.48 11.2363C261.48 11.5879 261.585 11.8555 261.796 12.0391C262.011 12.2227 262.31 12.3145 262.693 12.3145ZM277.294 12.1387H277.241C276.792 12.791 276.12 13.1172 275.226 13.1172C274.386 13.1172 273.732 12.8301 273.263 12.2559C272.798 11.6816 272.566 10.8652 272.566 9.80664C272.566 8.74805 272.8 7.92578 273.269 7.33984C273.737 6.75391 274.39 6.46094 275.226 6.46094C276.097 6.46094 276.765 6.77734 277.23 7.41016H277.306C277.263 7.08594 277.241 6.78125 277.241 6.49609V5.7168H274.616V4.96094H277.241V3.88281H278.214V4.96094H279.128V5.7168H278.214V13H277.423L277.294 12.1387ZM275.349 12.3027C276.013 12.3027 276.493 12.123 276.79 11.7637C277.091 11.4004 277.241 10.8164 277.241 10.0117V9.80664C277.241 8.89648 277.089 8.24805 276.784 7.86133C276.484 7.4707 276.001 7.27539 275.337 7.27539C274.767 7.27539 274.329 7.49805 274.025 7.94336C273.724 8.38477 273.573 9.00977 273.573 9.81836C273.573 10.6387 273.724 11.2578 274.025 11.6758C274.325 12.0938 274.767 12.3027 275.349 12.3027ZM281.655 13H280.682V6.57812H281.655V13ZM281.731 5.72852H281.087C280.833 5.52539 280.532 5.23633 280.184 4.86133C279.837 4.48633 279.585 4.17578 279.428 3.92969V3.80664H280.618C280.743 4.07617 280.917 4.38867 281.139 4.74414C281.362 5.0957 281.559 5.375 281.731 5.58203V5.72852ZM288.512 13V8.8457C288.512 8.32227 288.393 7.93164 288.155 7.67383C287.916 7.41602 287.543 7.28711 287.036 7.28711C286.364 7.28711 285.871 7.46875 285.559 7.83203C285.246 8.19531 285.09 8.79492 285.09 9.63086V13H284.118V6.57812H284.909L285.067 7.45703H285.114C285.313 7.14062 285.592 6.89648 285.952 6.72461C286.311 6.54883 286.711 6.46094 287.153 6.46094C287.926 6.46094 288.508 6.64844 288.899 7.02344C289.289 7.39453 289.485 7.99023 289.485 8.81055V13H288.512ZM296.283 13V8.8457C296.283 8.32227 296.164 7.93164 295.926 7.67383C295.687 7.41602 295.314 7.28711 294.807 7.28711C294.131 7.28711 293.637 7.4707 293.324 7.83789C293.016 8.20508 292.861 8.80664 292.861 9.64258V13H291.889V3.88281H292.861V6.64258C292.861 6.97461 292.846 7.25 292.814 7.46875H292.873C293.064 7.16016 293.336 6.91797 293.687 6.74219C294.043 6.5625 294.447 6.47266 294.9 6.47266C295.686 6.47266 296.273 6.66016 296.664 7.03516C297.059 7.40625 297.256 7.99805 297.256 8.81055V13H296.283ZM308.957 13V8.8457C308.957 8.32227 308.838 7.93164 308.599 7.67383C308.361 7.41602 307.988 7.28711 307.48 7.28711C306.804 7.28711 306.31 7.4707 305.998 7.83789C305.689 8.20508 305.535 8.80664 305.535 9.64258V13H304.562V3.88281H305.535V6.64258C305.535 6.97461 305.519 7.25 305.488 7.46875H305.547C305.738 7.16016 306.01 6.91797 306.361 6.74219C306.717 6.5625 307.121 6.47266 307.574 6.47266C308.359 6.47266 308.947 6.66016 309.338 7.03516C309.732 7.40625 309.929 7.99805 309.929 8.81055V13H308.957ZM316.283 13L316.089 12.0859H316.042C315.722 12.4883 315.402 12.7617 315.081 12.9062C314.765 13.0469 314.369 13.1172 313.892 13.1172C313.255 13.1172 312.755 12.9531 312.392 12.625C312.033 12.2969 311.853 11.8301 311.853 11.2246C311.853 9.92773 312.89 9.24805 314.964 9.18555L316.054 9.15039V8.75195C316.054 8.24805 315.945 7.87695 315.726 7.63867C315.511 7.39648 315.165 7.27539 314.689 7.27539C314.154 7.27539 313.548 7.43945 312.872 7.76758L312.574 7.02344C312.89 6.85156 313.236 6.7168 313.611 6.61914C313.99 6.52148 314.369 6.47266 314.747 6.47266C315.513 6.47266 316.079 6.64258 316.447 6.98242C316.818 7.32227 317.003 7.86719 317.003 8.61719V13H316.283ZM314.085 12.3145C314.691 12.3145 315.165 12.1484 315.509 11.8164C315.857 11.4844 316.031 11.0195 316.031 10.4219V9.8418L315.058 9.88281C314.285 9.91016 313.726 10.0312 313.382 10.2461C313.042 10.457 312.872 10.7871 312.872 11.2363C312.872 11.5879 312.978 11.8555 313.189 12.0391C313.404 12.2227 313.703 12.3145 314.085 12.3145ZM318.394 6.57812H319.437L320.843 10.2402C321.151 11.0762 321.343 11.6797 321.417 12.0508H321.464C321.515 11.8516 321.62 11.5117 321.78 11.0312C321.944 10.5469 322.476 9.0625 323.374 6.57812H324.417L321.657 13.8906C321.384 14.6133 321.063 15.125 320.696 15.4258C320.333 15.7305 319.886 15.8828 319.354 15.8828C319.058 15.8828 318.765 15.8496 318.476 15.7832V15.0039C318.69 15.0508 318.931 15.0742 319.196 15.0742C319.864 15.0742 320.341 14.6992 320.626 13.9492L320.983 13.0352L318.394 6.57812ZM334.905 11.248C334.905 11.8457 334.682 12.3066 334.237 12.6309C333.792 12.9551 333.167 13.1172 332.362 13.1172C331.511 13.1172 330.846 12.9824 330.37 12.7129V11.8105C330.679 11.9668 331.009 12.0898 331.36 12.1797C331.716 12.2695 332.057 12.3145 332.386 12.3145C332.893 12.3145 333.284 12.2344 333.557 12.0742C333.831 11.9102 333.968 11.6621 333.968 11.3301C333.968 11.0801 333.858 10.8672 333.639 10.6914C333.425 10.5117 333.003 10.3008 332.374 10.0586C331.776 9.83594 331.35 9.64258 331.096 9.47852C330.846 9.31055 330.659 9.12109 330.534 8.91016C330.413 8.69922 330.352 8.44727 330.352 8.1543C330.352 7.63086 330.565 7.21875 330.991 6.91797C331.417 6.61328 332.001 6.46094 332.743 6.46094C333.434 6.46094 334.11 6.60156 334.77 6.88281L334.425 7.67383C333.78 7.4082 333.196 7.27539 332.673 7.27539C332.212 7.27539 331.864 7.34766 331.63 7.49219C331.395 7.63672 331.278 7.83594 331.278 8.08984C331.278 8.26172 331.321 8.4082 331.407 8.5293C331.497 8.65039 331.639 8.76562 331.835 8.875C332.03 8.98438 332.405 9.14258 332.96 9.34961C333.721 9.62695 334.235 9.90625 334.501 10.1875C334.77 10.4688 334.905 10.8223 334.905 11.248ZM339.606 13.1172C338.657 13.1172 337.907 12.8281 337.356 12.25C336.809 11.6719 336.536 10.8691 336.536 9.8418C336.536 8.80664 336.789 7.98438 337.297 7.375C337.809 6.76562 338.495 6.46094 339.354 6.46094C340.159 6.46094 340.795 6.72656 341.264 7.25781C341.733 7.78516 341.967 8.48242 341.967 9.34961V9.96484H337.543C337.563 10.7188 337.752 11.291 338.112 11.6816C338.475 12.0723 338.985 12.2676 339.641 12.2676C340.332 12.2676 341.016 12.123 341.692 11.834V12.7012C341.348 12.8496 341.022 12.9551 340.713 13.0176C340.409 13.084 340.039 13.1172 339.606 13.1172ZM339.342 7.27539C338.827 7.27539 338.414 7.44336 338.106 7.7793C337.801 8.11523 337.621 8.58008 337.567 9.17383H340.924C340.924 8.56055 340.788 8.0918 340.514 7.76758C340.241 7.43945 339.85 7.27539 339.342 7.27539ZM340.198 5.7168C340.03 5.7168 339.866 5.68164 339.705 5.61133C339.545 5.53711 339.387 5.45703 339.231 5.37109C339.079 5.28125 338.93 5.20117 338.786 5.13086C338.645 5.05664 338.508 5.01953 338.375 5.01953C338.18 5.01953 338.032 5.07812 337.93 5.19531C337.832 5.3125 337.756 5.49023 337.702 5.72852H337.127C337.178 5.25586 337.315 4.88672 337.538 4.62109C337.764 4.35156 338.055 4.2168 338.411 4.2168C338.59 4.2168 338.764 4.25391 338.932 4.32812C339.1 4.39844 339.26 4.47852 339.413 4.56836C339.565 4.6543 339.711 4.73438 339.852 4.80859C339.993 4.87891 340.125 4.91406 340.25 4.91406C340.442 4.91406 340.584 4.85742 340.678 4.74414C340.772 4.62695 340.848 4.44727 340.907 4.20508H341.487C341.436 4.67773 341.299 5.04883 341.077 5.31836C340.858 5.58398 340.565 5.7168 340.198 5.7168ZM3.10547 28.3145C3.27734 28.3145 3.44336 28.3027 3.60352 28.2793C3.76367 28.252 3.89062 28.2246 3.98438 28.1973V28.9414C3.87891 28.9922 3.72266 29.0332 3.51562 29.0645C3.3125 29.0996 3.12891 29.1172 2.96484 29.1172C1.72266 29.1172 1.10156 28.4629 1.10156 27.1543V23.334H0.181641V22.8652L1.10156 22.4609L1.51172 21.0898H2.07422V22.5781H3.9375V23.334H2.07422V27.1133C2.07422 27.5 2.16602 27.7969 2.34961 28.0039C2.5332 28.2109 2.78516 28.3145 3.10547 28.3145ZM10.068 29V24.8457C10.068 24.3223 9.94883 23.9316 9.71055 23.6738C9.47227 23.416 9.09922 23.2871 8.59141 23.2871C7.91563 23.2871 7.42148 23.4707 7.10898 23.8379C6.80039 24.2051 6.64609 24.8066 6.64609 25.6426V29H5.67344V19.8828H6.64609V22.6426C6.64609 22.9746 6.63047 23.25 6.59922 23.4688H6.65781C6.84922 23.1602 7.1207 22.918 7.47227 22.7422C7.82773 22.5625 8.23203 22.4727 8.68516 22.4727C9.47031 22.4727 10.0582 22.6602 10.4488 23.0352C10.8434 23.4062 11.0406 23.998 11.0406 24.8105V29H10.068ZM14.3586 22.5781V26.7441C14.3586 27.2676 14.4777 27.6582 14.716 27.916C14.9543 28.1738 15.3273 28.3027 15.8352 28.3027C16.507 28.3027 16.9973 28.1191 17.3059 27.752C17.6184 27.3848 17.7746 26.7852 17.7746 25.9531V22.5781H18.7473V29H17.9445L17.8039 28.1387H17.7512C17.552 28.4551 17.2746 28.6973 16.9191 28.8652C16.5676 29.0332 16.1652 29.1172 15.7121 29.1172C14.9309 29.1172 14.3449 28.9316 13.9543 28.5605C13.5676 28.1895 13.3742 27.5957 13.3742 26.7793V22.5781H14.3586ZM23.9285 29.1172C22.9793 29.1172 22.2293 28.8281 21.6785 28.25C21.1316 27.6719 20.8582 26.8691 20.8582 25.8418C20.8582 24.8066 21.1121 23.9844 21.6199 23.375C22.1316 22.7656 22.8172 22.4609 23.6766 22.4609C24.4813 22.4609 25.118 22.7266 25.5867 23.2578C26.0555 23.7852 26.2898 24.4824 26.2898 25.3496V25.9648H21.866C21.8855 26.7188 22.075 27.291 22.4344 27.6816C22.7977 28.0723 23.3074 28.2676 23.9637 28.2676C24.6551 28.2676 25.3387 28.123 26.0145 27.834V28.7012C25.6707 28.8496 25.3445 28.9551 25.0359 29.0176C24.7313 29.084 24.3621 29.1172 23.9285 29.1172ZM23.6648 23.2754C23.1492 23.2754 22.7371 23.4434 22.4285 23.7793C22.1238 24.1152 21.9441 24.5801 21.8895 25.1738H25.2469C25.2469 24.5605 25.1102 24.0918 24.8367 23.7676C24.5633 23.4395 24.1727 23.2754 23.6648 23.2754ZM21.702 21.5938C22.198 21.0625 22.5457 20.6719 22.7449 20.4219C22.9441 20.1719 23.0887 19.9668 23.1785 19.8066H24.1512C24.2371 19.9707 24.3855 20.1836 24.5965 20.4453C24.8113 20.7031 25.1629 21.0859 25.6512 21.5938V21.7285H24.9539C24.6102 21.5137 24.1785 21.1504 23.659 20.6387C23.1277 21.1621 22.7 21.5254 22.3758 21.7285H21.702V21.5938ZM36.2656 29V24.8457C36.2656 24.3223 36.1465 23.9316 35.9082 23.6738C35.6699 23.416 35.2969 23.2871 34.7891 23.2871C34.1172 23.2871 33.625 23.4688 33.3125 23.832C33 24.1953 32.8438 24.7949 32.8438 25.6309V29H31.8711V22.5781H32.6621L32.8203 23.457H32.8672C33.0664 23.1406 33.3457 22.8965 33.7051 22.7246C34.0645 22.5488 34.4648 22.4609 34.9062 22.4609C35.6797 22.4609 36.2617 22.6484 36.6523 23.0234C37.043 23.3945 37.2383 23.9902 37.2383 24.8105V29H36.2656ZM44.0367 29V24.8457C44.0367 24.3223 43.9176 23.9316 43.6793 23.6738C43.441 23.416 43.068 23.2871 42.5602 23.2871C41.8844 23.2871 41.3902 23.4707 41.0777 23.8379C40.7691 24.2051 40.6148 24.8066 40.6148 25.6426V29H39.6422V19.8828H40.6148V22.6426C40.6148 22.9746 40.5992 23.25 40.568 23.4688H40.6266C40.818 23.1602 41.0895 22.918 41.441 22.7422C41.7965 22.5625 42.2008 22.4727 42.6539 22.4727C43.4391 22.4727 44.027 22.6602 44.4176 23.0352C44.8121 23.4062 45.0094 23.998 45.0094 24.8105V29H44.0367ZM51.3625 29L51.1691 28.0859H51.1223C50.802 28.4883 50.4816 28.7617 50.1613 28.9062C49.8449 29.0469 49.4484 29.1172 48.9719 29.1172C48.3352 29.1172 47.8352 28.9531 47.4719 28.625C47.1125 28.2969 46.9328 27.8301 46.9328 27.2246C46.9328 25.9277 47.9699 25.248 50.0441 25.1855L51.134 25.1504V24.752C51.134 24.248 51.0246 23.877 50.8059 23.6387C50.591 23.3965 50.2453 23.2754 49.7687 23.2754C49.2336 23.2754 48.6281 23.4395 47.9523 23.7676L47.6535 23.0234C47.9699 22.8516 48.3156 22.7168 48.6906 22.6191C49.0695 22.5215 49.4484 22.4727 49.8273 22.4727C50.593 22.4727 51.1594 22.6426 51.5266 22.9824C51.8977 23.3223 52.0832 23.8672 52.0832 24.6172V29H51.3625ZM49.1652 28.3145C49.7707 28.3145 50.2453 28.1484 50.5891 27.8164C50.9367 27.4844 51.1105 27.0195 51.1105 26.4219V25.8418L50.1379 25.8828C49.3645 25.9102 48.8059 26.0312 48.4621 26.2461C48.1223 26.457 47.9523 26.7871 47.9523 27.2363C47.9523 27.5879 48.0578 27.8555 48.2687 28.0391C48.4836 28.2227 48.7824 28.3145 49.1652 28.3145ZM47.718 21.5938C48.2141 21.0625 48.5617 20.6719 48.7609 20.4219C48.9602 20.1719 49.1047 19.9668 49.1945 19.8066H50.1672C50.2531 19.9707 50.4016 20.1836 50.6125 20.4453C50.8273 20.7031 51.1789 21.0859 51.6672 21.5938V21.7285H50.9699C50.6262 21.5137 50.1945 21.1504 49.675 20.6387C49.1437 21.1621 48.716 21.5254 48.3918 21.7285H47.718V21.5938ZM58.8875 29V24.8457C58.8875 24.3223 58.7684 23.9316 58.5301 23.6738C58.2918 23.416 57.9188 23.2871 57.4109 23.2871C56.7391 23.2871 56.2469 23.4688 55.9344 23.832C55.6219 24.1953 55.4656 24.7949 55.4656 25.6309V29H54.493V22.5781H55.284L55.4422 23.457H55.4891C55.6883 23.1406 55.9676 22.8965 56.327 22.7246C56.6863 22.5488 57.0867 22.4609 57.5281 22.4609C58.3016 22.4609 58.8836 22.6484 59.2742 23.0234C59.6648 23.3945 59.8602 23.9902 59.8602 24.8105V29H58.8875ZM68.3477 29.1172C67.418 29.1172 66.6973 28.832 66.1855 28.2617C65.6777 27.6875 65.4238 26.877 65.4238 25.8301C65.4238 24.7559 65.6816 23.9258 66.1973 23.3398C66.7168 22.7539 67.4551 22.4609 68.4121 22.4609C68.7207 22.4609 69.0293 22.4941 69.3379 22.5605C69.6465 22.627 69.8887 22.7051 70.0645 22.7949L69.7656 23.6211C69.5508 23.5352 69.3164 23.4648 69.0625 23.4102C68.8086 23.3516 68.584 23.3223 68.3887 23.3223C67.084 23.3223 66.4316 24.1543 66.4316 25.8184C66.4316 26.6074 66.5898 27.2129 66.9062 27.6348C67.2266 28.0566 67.6992 28.2676 68.3242 28.2676C68.8594 28.2676 69.4082 28.1523 69.9707 27.9219V28.7832C69.541 29.0059 69 29.1172 68.3477 29.1172ZM77.443 25.7832C77.443 26.8301 77.1793 27.6484 76.652 28.2383C76.1246 28.8242 75.3961 29.1172 74.4664 29.1172C73.8922 29.1172 73.3824 28.9824 72.9371 28.7129C72.4918 28.4434 72.148 28.0566 71.9059 27.5527C71.6637 27.0488 71.5426 26.459 71.5426 25.7832C71.5426 24.7363 71.8043 23.9219 72.3277 23.3398C72.8512 22.7539 73.5777 22.4609 74.5074 22.4609C75.4059 22.4609 76.1188 22.7598 76.6461 23.3574C77.1773 23.9551 77.443 24.7637 77.443 25.7832ZM72.5504 25.7832C72.5504 26.6035 72.7145 27.2285 73.0426 27.6582C73.3707 28.0879 73.8531 28.3027 74.4898 28.3027C75.1266 28.3027 75.609 28.0898 75.9371 27.6641C76.2691 27.2344 76.4352 26.6074 76.4352 25.7832C76.4352 24.9668 76.2691 24.3477 75.9371 23.9258C75.609 23.5 75.1227 23.2871 74.4781 23.2871C73.8414 23.2871 73.3609 23.4961 73.0367 23.9141C72.7125 24.332 72.5504 24.9551 72.5504 25.7832ZM72.5211 21.5938C73.0172 21.0625 73.3648 20.6719 73.5641 20.4219C73.7633 20.1719 73.9078 19.9668 73.9977 19.8066H74.9703C75.0563 19.9707 75.2047 20.1836 75.4156 20.4453C75.6305 20.7031 75.982 21.0859 76.4703 21.5938V21.7285H75.773C75.4293 21.5137 74.9977 21.1504 74.4781 20.6387C73.9469 21.1621 73.5191 21.5254 73.1949 21.7285H72.5211V21.5938ZM83.9484 29V24.8457C83.9484 24.3223 83.8293 23.9316 83.591 23.6738C83.3527 23.416 82.9797 23.2871 82.4719 23.2871C81.8 23.2871 81.3078 23.4688 80.9953 23.832C80.6828 24.1953 80.5266 24.7949 80.5266 25.6309V29H79.5539V22.5781H80.3449L80.5031 23.457H80.55C80.7492 23.1406 81.0285 22.8965 81.3879 22.7246C81.7473 22.5488 82.1477 22.4609 82.5891 22.4609C83.3625 22.4609 83.9445 22.6484 84.3352 23.0234C84.7258 23.3945 84.9211 23.9902 84.9211 24.8105V29H83.9484ZM92.5809 22.5781V23.1934L91.3914 23.334C91.5008 23.4707 91.5984 23.6504 91.6844 23.873C91.7703 24.0918 91.8133 24.3398 91.8133 24.6172C91.8133 25.2461 91.5984 25.748 91.1687 26.123C90.7391 26.498 90.1492 26.6855 89.3992 26.6855C89.2078 26.6855 89.0281 26.6699 88.8602 26.6387C88.4461 26.8574 88.2391 27.1328 88.2391 27.4648C88.2391 27.6406 88.3113 27.7715 88.4559 27.8574C88.6004 27.9395 88.8484 27.9805 89.2 27.9805H90.3367C91.032 27.9805 91.5652 28.127 91.9363 28.4199C92.3113 28.7129 92.4988 29.1387 92.4988 29.6973C92.4988 30.4082 92.2137 30.9492 91.6434 31.3203C91.073 31.6953 90.241 31.8828 89.1473 31.8828C88.3074 31.8828 87.659 31.7266 87.202 31.4141C86.7488 31.1016 86.5223 30.6602 86.5223 30.0898C86.5223 29.6992 86.6473 29.3613 86.8973 29.0762C87.1473 28.791 87.4988 28.5977 87.952 28.4961C87.7879 28.4219 87.6492 28.3066 87.5359 28.1504C87.4266 27.9941 87.3719 27.8125 87.3719 27.6055C87.3719 27.3711 87.4344 27.166 87.5594 26.9902C87.6844 26.8145 87.8816 26.6445 88.1512 26.4805C87.8191 26.3438 87.5477 26.1113 87.3367 25.7832C87.1297 25.4551 87.0262 25.0801 87.0262 24.6582C87.0262 23.9551 87.2371 23.4141 87.659 23.0352C88.0809 22.6523 88.6785 22.4609 89.452 22.4609C89.7879 22.4609 90.0906 22.5 90.3602 22.5781H92.5809ZM87.4598 30.0781C87.4598 30.4258 87.6062 30.6895 87.8992 30.8691C88.1922 31.0488 88.6121 31.1387 89.159 31.1387C89.9754 31.1387 90.5789 31.0156 90.9695 30.7695C91.3641 30.5273 91.5613 30.1973 91.5613 29.7793C91.5613 29.4316 91.4539 29.1895 91.2391 29.0527C91.0242 28.9199 90.6199 28.8535 90.0262 28.8535H88.8602C88.4187 28.8535 88.075 28.959 87.8289 29.1699C87.5828 29.3809 87.4598 29.6836 87.4598 30.0781ZM87.9871 24.6348C87.9871 25.084 88.1141 25.4238 88.368 25.6543C88.6219 25.8848 88.9754 26 89.4285 26C90.3777 26 90.8523 25.5391 90.8523 24.6172C90.8523 23.6523 90.3719 23.1699 89.4109 23.1699C88.9539 23.1699 88.6023 23.293 88.3562 23.5391C88.1102 23.7852 87.9871 24.1504 87.9871 24.6348ZM100.805 22.4727C101.648 22.4727 102.303 22.7617 102.768 23.3398C103.236 23.9141 103.471 24.7285 103.471 25.7832C103.471 26.8379 103.234 27.6582 102.762 28.2441C102.293 28.8262 101.641 29.1172 100.805 29.1172C100.387 29.1172 100.004 29.041 99.6562 28.8887C99.3125 28.7324 99.0234 28.4941 98.7891 28.1738H98.7188L98.5137 29H97.8164V19.8828H98.7891V22.0977C98.7891 22.5938 98.7734 23.0391 98.7422 23.4336H98.7891C99.2422 22.793 99.9141 22.4727 100.805 22.4727ZM100.664 23.2871C100 23.2871 99.5215 23.4785 99.2285 23.8613C98.9355 24.2402 98.7891 24.8809 98.7891 25.7832C98.7891 26.6855 98.9395 27.332 99.2402 27.7227C99.541 28.1094 100.023 28.3027 100.688 28.3027C101.285 28.3027 101.73 28.0859 102.023 27.6523C102.316 27.2148 102.463 26.5879 102.463 25.7715C102.463 24.9355 102.316 24.3125 102.023 23.9023C101.73 23.4922 101.277 23.2871 100.664 23.2871ZM108.289 29.1172C107.339 29.1172 106.589 28.8281 106.039 28.25C105.492 27.6719 105.218 26.8691 105.218 25.8418C105.218 24.8066 105.472 23.9844 105.98 23.375C106.492 22.7656 107.177 22.4609 108.037 22.4609C108.841 22.4609 109.478 22.7266 109.947 23.2578C110.416 23.7852 110.65 24.4824 110.65 25.3496V25.9648H106.226C106.246 26.7188 106.435 27.291 106.795 27.6816C107.158 28.0723 107.668 28.2676 108.324 28.2676C109.015 28.2676 109.699 28.123 110.375 27.834V28.7012C110.031 28.8496 109.705 28.9551 109.396 29.0176C109.091 29.084 108.722 29.1172 108.289 29.1172ZM108.025 23.2754C107.509 23.2754 107.097 23.4434 106.789 23.7793C106.484 24.1152 106.304 24.5801 106.25 25.1738H109.607C109.607 24.5605 109.47 24.0918 109.197 23.7676C108.923 23.4395 108.533 23.2754 108.025 23.2754ZM106.062 21.5938C106.558 21.0625 106.906 20.6719 107.105 20.4219C107.304 20.1719 107.449 19.9668 107.539 19.8066H108.511C108.597 19.9707 108.746 20.1836 108.957 20.4453C109.171 20.7031 109.523 21.0859 110.011 21.5938V21.7285H109.314C108.97 21.5137 108.539 21.1504 108.019 20.6387C107.488 21.1621 107.06 21.5254 106.736 21.7285H106.062V21.5938ZM117.109 29V24.8457C117.109 24.3223 116.989 23.9316 116.751 23.6738C116.513 23.416 116.14 23.2871 115.632 23.2871C114.96 23.2871 114.468 23.4688 114.155 23.832C113.843 24.1953 113.687 24.7949 113.687 25.6309V29H112.714V22.5781H113.505L113.663 23.457H113.71C113.909 23.1406 114.189 22.8965 114.548 22.7246C114.907 22.5488 115.308 22.4609 115.749 22.4609C116.523 22.4609 117.105 22.6484 117.495 23.0234C117.886 23.3945 118.081 23.9902 118.081 24.8105V29H117.109ZM128.397 29V24.8457C128.397 24.3223 128.278 23.9316 128.039 23.6738C127.801 23.416 127.428 23.2871 126.92 23.2871C126.248 23.2871 125.756 23.4688 125.444 23.832C125.131 24.1953 124.975 24.7949 124.975 25.6309V29H124.002V22.5781H124.793L124.952 23.457H124.998C125.198 23.1406 125.477 22.8965 125.836 22.7246C126.196 22.5488 126.596 22.4609 127.037 22.4609C127.811 22.4609 128.393 22.6484 128.784 23.0234C129.174 23.3945 129.37 23.9902 129.37 24.8105V29H128.397ZM137.029 22.5781V23.1934L135.84 23.334C135.949 23.4707 136.047 23.6504 136.133 23.873C136.219 24.0918 136.262 24.3398 136.262 24.6172C136.262 25.2461 136.047 25.748 135.617 26.123C135.188 26.498 134.598 26.6855 133.848 26.6855C133.656 26.6855 133.477 26.6699 133.309 26.6387C132.895 26.8574 132.688 27.1328 132.688 27.4648C132.688 27.6406 132.76 27.7715 132.904 27.8574C133.049 27.9395 133.297 27.9805 133.648 27.9805H134.785C135.48 27.9805 136.014 28.127 136.385 28.4199C136.76 28.7129 136.947 29.1387 136.947 29.6973C136.947 30.4082 136.662 30.9492 136.092 31.3203C135.521 31.6953 134.689 31.8828 133.596 31.8828C132.756 31.8828 132.107 31.7266 131.65 31.4141C131.197 31.1016 130.971 30.6602 130.971 30.0898C130.971 29.6992 131.096 29.3613 131.346 29.0762C131.596 28.791 131.947 28.5977 132.4 28.4961C132.236 28.4219 132.098 28.3066 131.984 28.1504C131.875 27.9941 131.82 27.8125 131.82 27.6055C131.82 27.3711 131.883 27.166 132.008 26.9902C132.133 26.8145 132.33 26.6445 132.6 26.4805C132.268 26.3438 131.996 26.1113 131.785 25.7832C131.578 25.4551 131.475 25.0801 131.475 24.6582C131.475 23.9551 131.686 23.4141 132.107 23.0352C132.529 22.6523 133.127 22.4609 133.9 22.4609C134.236 22.4609 134.539 22.5 134.809 22.5781H137.029ZM131.908 30.0781C131.908 30.4258 132.055 30.6895 132.348 30.8691C132.641 31.0488 133.061 31.1387 133.607 31.1387C134.424 31.1387 135.027 31.0156 135.418 30.7695C135.812 30.5273 136.01 30.1973 136.01 29.7793C136.01 29.4316 135.902 29.1895 135.688 29.0527C135.473 28.9199 135.068 28.8535 134.475 28.8535H133.309C132.867 28.8535 132.523 28.959 132.277 29.1699C132.031 29.3809 131.908 29.6836 131.908 30.0781ZM132.436 24.6348C132.436 25.084 132.562 25.4238 132.816 25.6543C133.07 25.8848 133.424 26 133.877 26C134.826 26 135.301 25.5391 135.301 24.6172C135.301 23.6523 134.82 23.1699 133.859 23.1699C133.402 23.1699 133.051 23.293 132.805 23.5391C132.559 23.7852 132.436 24.1504 132.436 24.6348ZM144.291 25.7832C144.291 26.8301 144.027 27.6484 143.5 28.2383C142.972 28.8242 142.244 29.1172 141.314 29.1172C140.74 29.1172 140.23 28.9824 139.785 28.7129C139.339 28.4434 138.996 28.0566 138.754 27.5527C138.511 27.0488 138.39 26.459 138.39 25.7832C138.39 24.7363 138.652 23.9219 139.175 23.3398C139.699 22.7539 140.425 22.4609 141.355 22.4609C142.254 22.4609 142.966 22.7598 143.494 23.3574C144.025 23.9551 144.291 24.7637 144.291 25.7832ZM139.398 25.7832C139.398 26.6035 139.562 27.2285 139.89 27.6582C140.218 28.0879 140.701 28.3027 141.337 28.3027C141.974 28.3027 142.457 28.0898 142.785 27.6641C143.117 27.2344 143.283 26.6074 143.283 25.7832C143.283 24.9668 143.117 24.3477 142.785 23.9258C142.457 23.5 141.97 23.2871 141.326 23.2871C140.689 23.2871 140.209 23.4961 139.884 23.9141C139.56 24.332 139.398 24.9551 139.398 25.7832ZM150.351 29L150.157 28.0859H150.111C149.79 28.4883 149.47 28.7617 149.15 28.9062C148.833 29.0469 148.437 29.1172 147.96 29.1172C147.323 29.1172 146.823 28.9531 146.46 28.625C146.101 28.2969 145.921 27.8301 145.921 27.2246C145.921 25.9277 146.958 25.248 149.032 25.1855L150.122 25.1504V24.752C150.122 24.248 150.013 23.877 149.794 23.6387C149.579 23.3965 149.234 23.2754 148.757 23.2754C148.222 23.2754 147.616 23.4395 146.941 23.7676L146.642 23.0234C146.958 22.8516 147.304 22.7168 147.679 22.6191C148.058 22.5215 148.437 22.4727 148.816 22.4727C149.581 22.4727 150.148 22.6426 150.515 22.9824C150.886 23.3223 151.071 23.8672 151.071 24.6172V29H150.351ZM148.154 28.3145C148.759 28.3145 149.234 28.1484 149.577 27.8164C149.925 27.4844 150.099 27.0195 150.099 26.4219V25.8418L149.126 25.8828C148.353 25.9102 147.794 26.0312 147.45 26.2461C147.111 26.457 146.941 26.7871 146.941 27.2363C146.941 27.5879 147.046 27.8555 147.257 28.0391C147.472 28.2227 147.771 28.3145 148.154 28.3145ZM149.308 21.7285H148.663C148.409 21.5254 148.109 21.2363 147.761 20.8613C147.413 20.4863 147.161 20.1758 147.005 19.9297V19.8066H148.195C148.32 20.0762 148.493 20.3887 148.716 20.7441C148.939 21.0957 149.136 21.375 149.308 21.582V21.7285ZM154.454 29H153.481V22.5781H154.454V29ZM153.399 20.8379C153.399 20.6152 153.454 20.4531 153.563 20.3516C153.673 20.2461 153.809 20.1934 153.973 20.1934C154.13 20.1934 154.264 20.2461 154.378 20.3516C154.491 20.457 154.548 20.6191 154.548 20.8379C154.548 21.0566 154.491 21.2207 154.378 21.3301C154.264 21.4355 154.13 21.4883 153.973 21.4883C153.809 21.4883 153.673 21.4355 153.563 21.3301C153.454 21.2207 153.399 21.0566 153.399 20.8379Z" fill="#A7ABC3"/>
</svg>
