<svg width="343" height="64" viewBox="0 0 343 64" fill="none" xmlns="http://www.w3.org/2000/svg">
<path d="M6.00586 10.7207C6.00586 11.2285 5.87891 11.6621 5.625 12.0215C5.375 12.377 5.02344 12.6484 4.57031 12.8359C4.11719 13.0234 3.58398 13.1172 2.9707 13.1172C2.64648 13.1172 2.33984 13.1016 2.05078 13.0703C1.76172 13.0391 1.49609 12.9941 1.25391 12.9355C1.01172 12.877 0.798828 12.8047 0.615234 12.7188V11.7637C0.908203 11.8848 1.26562 11.998 1.6875 12.1035C2.10938 12.2051 2.55078 12.2559 3.01172 12.2559C3.44141 12.2559 3.80469 12.1992 4.10156 12.0859C4.39844 11.9688 4.62305 11.8027 4.77539 11.5879C4.93164 11.3691 5.00977 11.1074 5.00977 10.8027C5.00977 10.5098 4.94531 10.2656 4.81641 10.0703C4.6875 9.87109 4.47266 9.69141 4.17188 9.53125C3.875 9.36719 3.46875 9.19336 2.95312 9.00977C2.58984 8.88086 2.26953 8.74023 1.99219 8.58789C1.71484 8.43164 1.48242 8.25586 1.29492 8.06055C1.10742 7.86523 0.964844 7.63867 0.867188 7.38086C0.773438 7.12305 0.726562 6.82812 0.726562 6.49609C0.726562 6.03906 0.841797 5.64844 1.07227 5.32422C1.30664 4.99609 1.62891 4.74609 2.03906 4.57422C2.45312 4.39844 2.92773 4.31055 3.46289 4.31055C3.91992 4.31055 4.3418 4.35352 4.72852 4.43945C5.11914 4.52539 5.47656 4.64062 5.80078 4.78516L5.49023 5.64062C5.18164 5.51172 4.85352 5.4043 4.50586 5.31836C4.16211 5.23242 3.80664 5.18945 3.43945 5.18945C3.07227 5.18945 2.76172 5.24414 2.50781 5.35352C2.25781 5.45898 2.06641 5.60938 1.93359 5.80469C1.80078 6 1.73438 6.23242 1.73438 6.50195C1.73438 6.80273 1.79688 7.05273 1.92188 7.25195C2.05078 7.45117 2.25391 7.62891 2.53125 7.78516C2.8125 7.9375 3.18359 8.09766 3.64453 8.26562C4.14844 8.44922 4.57617 8.64453 4.92773 8.85156C5.2793 9.05469 5.54688 9.30469 5.73047 9.60156C5.91406 9.89453 6.00586 10.2676 6.00586 10.7207ZM10.4137 6.47266C11.1793 6.47266 11.7477 6.64453 12.1188 6.98828C12.4898 7.33203 12.6754 7.88086 12.6754 8.63477V13H11.9664L11.7789 12.0508H11.732C11.5523 12.2852 11.3648 12.4824 11.1695 12.6426C10.9742 12.7988 10.7477 12.918 10.4898 13C10.2359 13.0781 9.92344 13.1172 9.55234 13.1172C9.16172 13.1172 8.81406 13.0488 8.50938 12.9121C8.20859 12.7754 7.97031 12.5684 7.79453 12.291C7.62266 12.0137 7.53672 11.6621 7.53672 11.2363C7.53672 10.5957 7.79063 10.1035 8.29844 9.75977C8.80625 9.41602 9.57969 9.22852 10.6188 9.19727L11.7262 9.15039V8.75781C11.7262 8.20312 11.607 7.81445 11.3688 7.5918C11.1305 7.36914 10.7945 7.25781 10.3609 7.25781C10.025 7.25781 9.70469 7.30664 9.4 7.4043C9.09531 7.50195 8.80625 7.61719 8.53281 7.75L8.23398 7.01172C8.52305 6.86328 8.85508 6.73633 9.23008 6.63086C9.60508 6.52539 9.99961 6.47266 10.4137 6.47266ZM11.7145 9.83594L10.7359 9.87695C9.93516 9.9082 9.3707 10.0391 9.04258 10.2695C8.71445 10.5 8.55039 10.8262 8.55039 11.248C8.55039 11.6152 8.66172 11.8867 8.88438 12.0625C9.10703 12.2383 9.40195 12.3262 9.76914 12.3262C10.3395 12.3262 10.8063 12.168 11.1695 11.8516C11.5328 11.5352 11.7145 11.0605 11.7145 10.4277V9.83594ZM11.5914 4.22266C11.5914 4.52344 11.4996 4.75781 11.316 4.92578C11.1324 5.08984 10.898 5.20508 10.6129 5.27148L10.5602 5.92188H9.95078L9.87461 4.9082C10.1754 4.85742 10.4098 4.78516 10.5777 4.69141C10.7496 4.59375 10.8355 4.44922 10.8355 4.25781C10.8355 4.06641 10.7594 3.93555 10.607 3.86523C10.4586 3.79492 10.2691 3.75977 10.0387 3.75977C9.9293 3.75977 9.81992 3.76562 9.71055 3.77734C9.60508 3.78516 9.51719 3.79687 9.44688 3.8125V3.22656C9.525 3.20312 9.61875 3.18555 9.72813 3.17383C9.8375 3.1582 9.96836 3.15039 10.1207 3.15039C10.5934 3.15039 10.9566 3.24023 11.2105 3.41992C11.4645 3.5957 11.5914 3.86328 11.5914 4.22266ZM18.1203 6.46094C18.882 6.46094 19.4582 6.64844 19.8488 7.02344C20.2395 7.39453 20.4348 7.99219 20.4348 8.81641V13H19.4738V8.88086C19.4738 8.3457 19.3508 7.94531 19.1047 7.67969C18.8625 7.41406 18.4895 7.28125 17.9855 7.28125C17.2746 7.28125 16.7746 7.48242 16.4855 7.88477C16.1965 8.28711 16.052 8.87109 16.052 9.63672V13H15.0793V6.57812H15.8645L16.0109 7.50391H16.0637C16.2004 7.27734 16.3742 7.08789 16.5852 6.93555C16.7961 6.7793 17.0324 6.66211 17.2941 6.58398C17.5559 6.50195 17.8313 6.46094 18.1203 6.46094ZM29.3734 6.46094C30.1742 6.46094 30.8129 6.73633 31.2895 7.28711C31.766 7.83789 32.0043 8.66602 32.0043 9.77148C32.0043 10.502 31.8949 11.1152 31.6762 11.6113C31.4574 12.1074 31.1488 12.4824 30.7504 12.7363C30.3559 12.9902 29.8891 13.1172 29.35 13.1172C29.0102 13.1172 28.7113 13.0723 28.4535 12.9824C28.1957 12.8926 27.975 12.7715 27.7914 12.6191C27.6078 12.4668 27.4555 12.3008 27.3344 12.1211H27.2641C27.2758 12.2734 27.2895 12.457 27.3051 12.6719C27.3246 12.8867 27.3344 13.0742 27.3344 13.2344V15.8711H26.3559V6.57812H27.1586L27.2875 7.52734H27.3344C27.4594 7.33203 27.6117 7.1543 27.7914 6.99414C27.9711 6.83008 28.1898 6.70117 28.4477 6.60742C28.7094 6.50977 29.018 6.46094 29.3734 6.46094ZM29.2035 7.28125C28.7582 7.28125 28.3988 7.36719 28.1254 7.53906C27.8559 7.71094 27.6586 7.96875 27.5336 8.3125C27.4086 8.65234 27.3422 9.08008 27.3344 9.5957V9.7832C27.3344 10.3262 27.393 10.7852 27.5102 11.1602C27.6313 11.5352 27.8285 11.8203 28.102 12.0156C28.3793 12.2109 28.7504 12.3086 29.2152 12.3086C29.6137 12.3086 29.9457 12.2012 30.2113 11.9863C30.477 11.7715 30.6742 11.4727 30.8031 11.0898C30.9359 10.7031 31.0023 10.2598 31.0023 9.75977C31.0023 9.00195 30.8539 8.40039 30.557 7.95508C30.2641 7.50586 29.8129 7.28125 29.2035 7.28125ZM35.0762 3.88281V6.60742C35.0762 6.76367 35.0723 6.92188 35.0645 7.08203C35.0566 7.23828 35.043 7.38281 35.0234 7.51562H35.0879C35.2207 7.28906 35.3887 7.09961 35.5918 6.94727C35.7988 6.79102 36.0332 6.67383 36.2949 6.5957C36.5566 6.51367 36.834 6.47266 37.127 6.47266C37.6426 6.47266 38.0723 6.55469 38.416 6.71875C38.7637 6.88281 39.0234 7.13672 39.1953 7.48047C39.3711 7.82422 39.459 8.26953 39.459 8.81641V13H38.498V8.88086C38.498 8.3457 38.375 7.94531 38.1289 7.67969C37.8867 7.41406 37.5137 7.28125 37.0098 7.28125C36.5332 7.28125 36.1523 7.37305 35.8672 7.55664C35.5859 7.73633 35.3828 8.00195 35.2578 8.35352C35.1367 8.70508 35.0762 9.13477 35.0762 9.64258V13H34.1035V3.88281H35.0762ZM44.2652 6.47266C45.0309 6.47266 45.5992 6.64453 45.9703 6.98828C46.3414 7.33203 46.527 7.88086 46.527 8.63477V13H45.818L45.6305 12.0508H45.5836C45.4039 12.2852 45.2164 12.4824 45.0211 12.6426C44.8258 12.7988 44.5992 12.918 44.3414 13C44.0875 13.0781 43.775 13.1172 43.4039 13.1172C43.0133 13.1172 42.6656 13.0488 42.3609 12.9121C42.0602 12.7754 41.8219 12.5684 41.6461 12.291C41.4742 12.0137 41.3883 11.6621 41.3883 11.2363C41.3883 10.5957 41.6422 10.1035 42.15 9.75977C42.6578 9.41602 43.4313 9.22852 44.4703 9.19727L45.5777 9.15039V8.75781C45.5777 8.20312 45.4586 7.81445 45.2203 7.5918C44.982 7.36914 44.6461 7.25781 44.2125 7.25781C43.8766 7.25781 43.5563 7.30664 43.2516 7.4043C42.9469 7.50195 42.6578 7.61719 42.3844 7.75L42.0855 7.01172C42.3746 6.86328 42.7066 6.73633 43.0816 6.63086C43.4566 6.52539 43.8512 6.47266 44.2652 6.47266ZM45.566 9.83594L44.5875 9.87695C43.7867 9.9082 43.2223 10.0391 42.8941 10.2695C42.566 10.5 42.402 10.8262 42.402 11.248C42.402 11.6152 42.5133 11.8867 42.7359 12.0625C42.9586 12.2383 43.2535 12.3262 43.6207 12.3262C44.191 12.3262 44.6578 12.168 45.0211 11.8516C45.3844 11.5352 45.566 11.0605 45.566 10.4277V9.83594ZM44.6813 4.05859C44.8023 4.23438 44.9352 4.41211 45.0797 4.5918C45.2281 4.77148 45.3785 4.94531 45.5309 5.11328C45.6832 5.28125 45.8277 5.43945 45.9645 5.58789V5.72852H45.4137C45.2145 5.5918 45.0074 5.43945 44.7926 5.27148C44.5816 5.10352 44.3766 4.92383 44.1773 4.73242C43.9703 4.92383 43.7613 5.10352 43.5504 5.27148C43.3434 5.43945 43.1402 5.5918 42.941 5.72852H42.3844V5.58789C42.5211 5.43945 42.6656 5.28125 42.818 5.11328C42.9703 4.94531 43.1207 4.77148 43.2691 4.5918C43.4176 4.41211 43.5523 4.23438 43.6734 4.05859H44.6813ZM45.8648 2.55273C46.2203 2.55273 46.4957 2.62109 46.691 2.75781C46.8863 2.89063 46.984 3.0957 46.984 3.37305C46.984 3.59961 46.9098 3.77148 46.7613 3.88867C46.6168 4.00586 46.4391 4.08789 46.2281 4.13477L46.193 4.60938H45.7301L45.6773 3.85352C45.9117 3.81836 46.0895 3.76953 46.2105 3.70703C46.3355 3.64453 46.398 3.54102 46.398 3.39648C46.398 3.25586 46.3434 3.1582 46.234 3.10352C46.1285 3.04883 45.9859 3.02148 45.8063 3.02148C45.7203 3.02148 45.6383 3.02539 45.5602 3.0332C45.4859 3.04102 45.4234 3.05078 45.3727 3.0625V2.59961C45.4273 2.58398 45.4957 2.57227 45.5777 2.56445C45.6598 2.55664 45.7555 2.55273 45.8648 2.55273ZM55.9035 6.46094C56.6105 6.46094 57.1437 6.64648 57.5031 7.01758C57.8625 7.38477 58.0422 7.97656 58.0422 8.79297V13H57.0812V8.83984C57.0812 8.32031 56.968 7.93164 56.7414 7.67383C56.5187 7.41211 56.1867 7.28125 55.7453 7.28125C55.1242 7.28125 54.673 7.46094 54.3918 7.82031C54.1105 8.17969 53.9699 8.70898 53.9699 9.4082V13H53.0031V8.83984C53.0031 8.49219 52.9523 8.20312 52.8508 7.97266C52.7531 7.74219 52.6047 7.57031 52.4055 7.45703C52.2102 7.33984 51.9621 7.28125 51.6613 7.28125C51.2355 7.28125 50.8937 7.36914 50.6359 7.54492C50.3781 7.7207 50.1906 7.98242 50.0734 8.33008C49.9602 8.67383 49.9035 9.09766 49.9035 9.60156V13H48.9309V6.57812H49.716L49.8625 7.48633H49.9152C50.0441 7.26367 50.2062 7.07617 50.4016 6.92383C50.5969 6.77148 50.8156 6.65625 51.0578 6.57812C51.3 6.5 51.5578 6.46094 51.8312 6.46094C52.3195 6.46094 52.7277 6.55273 53.0559 6.73633C53.3879 6.91602 53.6281 7.19141 53.7766 7.5625H53.8293C54.0402 7.19141 54.3293 6.91602 54.6965 6.73633C55.0637 6.55273 55.466 6.46094 55.9035 6.46094ZM66.2426 13.1172C65.4301 13.1172 64.7855 12.8398 64.309 12.2852C63.8363 11.7305 63.6 10.9062 63.6 9.8125C63.6 8.70703 63.8422 7.87305 64.3266 7.31055C64.8109 6.74414 65.4555 6.46094 66.2602 6.46094C66.6 6.46094 66.8969 6.50586 67.1508 6.5957C67.4047 6.68555 67.6234 6.80664 67.807 6.95898C67.9906 7.10742 68.1449 7.27734 68.2699 7.46875H68.3402C68.3246 7.34766 68.309 7.18164 68.2934 6.9707C68.2777 6.75977 68.2699 6.58789 68.2699 6.45508V3.88281H69.2426V13H68.4574L68.3109 12.0859H68.2699C68.1488 12.2773 67.9945 12.4512 67.807 12.6074C67.6234 12.7637 67.4027 12.8887 67.1449 12.9824C66.891 13.0723 66.5902 13.1172 66.2426 13.1172ZM66.3949 12.3086C67.0824 12.3086 67.5687 12.1133 67.8539 11.7227C68.1391 11.332 68.2816 10.752 68.2816 9.98242V9.80664C68.2816 8.99023 68.1449 8.36328 67.8715 7.92578C67.602 7.48828 67.1098 7.26953 66.3949 7.26953C65.7973 7.26953 65.35 7.5 65.0531 7.96094C64.7562 8.41797 64.6078 9.04297 64.6078 9.83594C64.6078 10.625 64.7543 11.2344 65.0473 11.6641C65.3441 12.0938 65.7934 12.3086 66.3949 12.3086ZM78.9355 5.58203L79.0176 5.71094C78.9746 5.99219 78.9082 6.26172 78.8184 6.51953C78.7324 6.77734 78.6133 7.00977 78.4609 7.2168C78.3086 7.42383 78.1133 7.5957 77.875 7.73242C77.6406 7.86914 77.3516 7.95703 77.0078 7.99609V13H76.2109L76.0703 12.0977H76.0176C75.8848 12.3203 75.7148 12.5078 75.5078 12.6602C75.3008 12.8125 75.0664 12.9258 74.8047 13C74.543 13.0781 74.2656 13.1172 73.9727 13.1172C73.457 13.1172 73.0254 13.0352 72.6777 12.8711C72.3301 12.707 72.0684 12.4531 71.8926 12.1094C71.7207 11.7656 71.6348 11.3242 71.6348 10.7852V6.58984H72.6191V10.7148C72.6191 11.25 72.7402 11.6504 72.9824 11.916C73.2246 12.1777 73.5938 12.3086 74.0898 12.3086C74.8008 12.3086 75.3008 12.1074 75.5898 11.7051C75.8828 11.3027 76.0293 10.7207 76.0293 9.95898V6.58984H77.0078V7.30469C77.2578 7.25781 77.4473 7.1582 77.5762 7.00586C77.7051 6.85352 77.793 6.65625 77.8398 6.41406C77.8867 6.17188 77.9102 5.89453 77.9102 5.58203H78.9355ZM74.1777 15.0566C74.0137 15.0566 73.875 15.0039 73.7617 14.8984C73.6484 14.793 73.5918 14.6328 73.5918 14.418C73.5918 14.1992 73.6484 14.0371 73.7617 13.9316C73.875 13.8301 74.0137 13.7793 74.1777 13.7793C74.3457 13.7793 74.4863 13.8301 74.5996 13.9316C74.7129 14.0371 74.7695 14.1992 74.7695 14.418C74.7695 14.6328 74.7129 14.793 74.5996 14.8984C74.4863 15.0039 74.3457 15.0566 74.1777 15.0566ZM84.5461 3.88281V8.61719C84.5461 8.77344 84.5402 8.96484 84.5285 9.19141C84.5168 9.41406 84.507 9.61133 84.4992 9.7832H84.5402C84.6223 9.68164 84.7414 9.53125 84.8977 9.33203C85.0578 9.13281 85.1926 8.97266 85.302 8.85156L87.4348 6.57812H88.5773L85.9934 9.32031L88.7648 13H87.593L85.3254 9.95898L84.5461 10.6738V13H83.5793V3.88281H84.5461ZM91.2566 6.57812V13H90.284V6.57812H91.2566ZM90.782 4.17578C90.9422 4.17578 91.0789 4.22852 91.1922 4.33398C91.3094 4.43555 91.368 4.5957 91.368 4.81445C91.368 5.0293 91.3094 5.18945 91.1922 5.29492C91.0789 5.40039 90.9422 5.45312 90.782 5.45312C90.6141 5.45312 90.4734 5.40039 90.3602 5.29492C90.2508 5.18945 90.1961 5.0293 90.1961 4.81445C90.1961 4.5957 90.2508 4.43555 90.3602 4.33398C90.4734 4.22852 90.6141 4.17578 90.782 4.17578ZM96.1918 6.46094C96.7387 6.46094 97.2074 6.58203 97.598 6.82422C97.9887 7.06641 98.2875 7.40625 98.4945 7.84375C98.7016 8.27734 98.8051 8.78516 98.8051 9.36719V9.9707H94.3695C94.3812 10.7246 94.5687 11.2988 94.932 11.6934C95.2953 12.0879 95.807 12.2852 96.4672 12.2852C96.8734 12.2852 97.2328 12.248 97.5453 12.1738C97.8578 12.0996 98.182 11.9902 98.518 11.8457V12.7012C98.1937 12.8457 97.8715 12.9512 97.5512 13.0176C97.2348 13.084 96.8598 13.1172 96.4262 13.1172C95.809 13.1172 95.2699 12.9922 94.809 12.7422C94.352 12.4883 93.9965 12.1172 93.7426 11.6289C93.4887 11.1406 93.3617 10.543 93.3617 9.83594C93.3617 9.14453 93.477 8.54688 93.7074 8.04297C93.9418 7.53516 94.2699 7.14453 94.6918 6.87109C95.1176 6.59766 95.6176 6.46094 96.1918 6.46094ZM96.1801 7.25781C95.6605 7.25781 95.2465 7.42773 94.9379 7.76758C94.6293 8.10742 94.4457 8.58203 94.3871 9.19141H97.7855C97.7816 8.80859 97.7211 8.47266 97.6039 8.18359C97.4906 7.89062 97.3168 7.66406 97.0824 7.50391C96.848 7.33984 96.5473 7.25781 96.1801 7.25781ZM97.932 5.72852H97.3812C97.182 5.5918 96.975 5.43945 96.7602 5.27148C96.5492 5.10352 96.3441 4.92383 96.1449 4.73242C95.9379 4.92383 95.7289 5.10352 95.518 5.27148C95.3109 5.43945 95.1078 5.5918 94.9086 5.72852H94.352V5.58789C94.4887 5.43945 94.6332 5.28125 94.7855 5.11328C94.9379 4.94531 95.0883 4.77148 95.2367 4.5918C95.3852 4.41211 95.5199 4.23438 95.641 4.05859H96.6488C96.7699 4.23438 96.9027 4.41211 97.0473 4.5918C97.1957 4.77148 97.3461 4.94531 97.4984 5.11328C97.6508 5.28125 97.7953 5.43945 97.932 5.58789V5.72852ZM97.4691 4.45117C97.6293 4.25586 97.7641 4.07031 97.8734 3.89453C97.9867 3.71875 98.1059 3.50586 98.2309 3.25586H99.2094V3.37891C99.0414 3.60547 98.8539 3.82227 98.6469 4.0293C98.4437 4.23242 98.2387 4.41797 98.0316 4.58594H97.4691V4.45117ZM103.898 6.46094C104.66 6.46094 105.236 6.64844 105.627 7.02344C106.018 7.39453 106.213 7.99219 106.213 8.81641V13H105.252V8.88086C105.252 8.3457 105.129 7.94531 104.883 7.67969C104.641 7.41406 104.268 7.28125 103.764 7.28125C103.053 7.28125 102.553 7.48242 102.264 7.88477C101.975 8.28711 101.83 8.87109 101.83 9.63672V13H100.857V6.57812H101.643L101.789 7.50391H101.842C101.979 7.27734 102.152 7.08789 102.363 6.93555C102.574 6.7793 102.811 6.66211 103.072 6.58398C103.334 6.50195 103.609 6.46094 103.898 6.46094ZM116.288 11.2422C116.288 11.6523 116.185 11.998 115.978 12.2793C115.775 12.5566 115.482 12.7656 115.099 12.9062C114.72 13.0469 114.267 13.1172 113.739 13.1172C113.29 13.1172 112.902 13.082 112.573 13.0117C112.245 12.9414 111.958 12.8418 111.712 12.7129V11.8164C111.974 11.9453 112.286 12.0625 112.65 12.168C113.013 12.2734 113.384 12.3262 113.763 12.3262C114.318 12.3262 114.72 12.2363 114.97 12.0566C115.22 11.877 115.345 11.6328 115.345 11.3242C115.345 11.1484 115.294 10.9941 115.193 10.8613C115.095 10.7246 114.929 10.5938 114.695 10.4688C114.46 10.3398 114.136 10.1992 113.722 10.0469C113.312 9.89062 112.956 9.73633 112.655 9.58398C112.359 9.42773 112.128 9.23828 111.964 9.01562C111.804 8.79297 111.724 8.50391 111.724 8.14844C111.724 7.60547 111.943 7.18945 112.38 6.90039C112.821 6.60742 113.4 6.46094 114.114 6.46094C114.501 6.46094 114.863 6.5 115.198 6.57812C115.538 6.65234 115.855 6.75391 116.148 6.88281L115.82 7.66211C115.554 7.54883 115.271 7.45312 114.97 7.375C114.669 7.29688 114.363 7.25781 114.05 7.25781C113.601 7.25781 113.255 7.33203 113.013 7.48047C112.775 7.62891 112.655 7.83203 112.655 8.08984C112.655 8.28906 112.71 8.45312 112.82 8.58203C112.933 8.71094 113.113 8.83203 113.359 8.94531C113.605 9.05859 113.929 9.19141 114.331 9.34375C114.734 9.49219 115.081 9.64648 115.374 9.80664C115.667 9.96289 115.892 10.1543 116.048 10.3809C116.208 10.6035 116.288 10.8906 116.288 11.2422ZM120.655 6.47266C121.421 6.47266 121.989 6.64453 122.36 6.98828C122.731 7.33203 122.917 7.88086 122.917 8.63477V13H122.208L122.02 12.0508H121.973C121.794 12.2852 121.606 12.4824 121.411 12.6426C121.216 12.7988 120.989 12.918 120.731 13C120.477 13.0781 120.165 13.1172 119.794 13.1172C119.403 13.1172 119.055 13.0488 118.751 12.9121C118.45 12.7754 118.212 12.5684 118.036 12.291C117.864 12.0137 117.778 11.6621 117.778 11.2363C117.778 10.5957 118.032 10.1035 118.54 9.75977C119.048 9.41602 119.821 9.22852 120.86 9.19727L121.968 9.15039V8.75781C121.968 8.20312 121.848 7.81445 121.61 7.5918C121.372 7.36914 121.036 7.25781 120.602 7.25781C120.266 7.25781 119.946 7.30664 119.641 7.4043C119.337 7.50195 119.048 7.61719 118.774 7.75L118.475 7.01172C118.764 6.86328 119.096 6.73633 119.471 6.63086C119.846 6.52539 120.241 6.47266 120.655 6.47266ZM121.956 9.83594L120.977 9.87695C120.177 9.9082 119.612 10.0391 119.284 10.2695C118.956 10.5 118.792 10.8262 118.792 11.248C118.792 11.6152 118.903 11.8867 119.126 12.0625C119.348 12.2383 119.643 12.3262 120.011 12.3262C120.581 12.3262 121.048 12.168 121.411 11.8516C121.774 11.5352 121.956 11.0605 121.956 10.4277V9.83594ZM121.833 4.22266C121.833 4.52344 121.741 4.75781 121.557 4.92578C121.374 5.08984 121.139 5.20508 120.854 5.27148L120.802 5.92188H120.192L120.116 4.9082C120.417 4.85742 120.651 4.78516 120.819 4.69141C120.991 4.59375 121.077 4.44922 121.077 4.25781C121.077 4.06641 121.001 3.93555 120.848 3.86523C120.7 3.79492 120.511 3.75977 120.28 3.75977C120.171 3.75977 120.061 3.76562 119.952 3.77734C119.846 3.78516 119.759 3.79687 119.688 3.8125V3.22656C119.766 3.20312 119.86 3.18555 119.97 3.17383C120.079 3.1582 120.21 3.15039 120.362 3.15039C120.835 3.15039 121.198 3.24023 121.452 3.41992C121.706 3.5957 121.833 3.86328 121.833 4.22266ZM128.362 6.46094C129.123 6.46094 129.7 6.64844 130.09 7.02344C130.481 7.39453 130.676 7.99219 130.676 8.81641V13H129.715V8.88086C129.715 8.3457 129.592 7.94531 129.346 7.67969C129.104 7.41406 128.731 7.28125 128.227 7.28125C127.516 7.28125 127.016 7.48242 126.727 7.88477C126.438 8.28711 126.293 8.87109 126.293 9.63672V13H125.321V6.57812H126.106L126.252 7.50391H126.305C126.442 7.27734 126.616 7.08789 126.827 6.93555C127.037 6.7793 127.274 6.66211 127.536 6.58398C127.797 6.50195 128.073 6.46094 128.362 6.46094ZM138.127 9.71289L135.906 6.57812H137.019L138.712 9.05078L140.4 6.57812H141.502L139.281 9.71289L141.625 13H140.511L138.712 10.3809L136.902 13H135.8L138.127 9.71289ZM148.581 6.57812V13H147.784L147.644 12.0977H147.591C147.458 12.3203 147.286 12.5078 147.075 12.6602C146.864 12.8125 146.626 12.9258 146.361 13C146.099 13.0781 145.82 13.1172 145.523 13.1172C145.015 13.1172 144.589 13.0352 144.245 12.8711C143.902 12.707 143.642 12.4531 143.466 12.1094C143.294 11.7656 143.208 11.3242 143.208 10.7852V6.57812H144.193V10.7148C144.193 11.25 144.314 11.6504 144.556 11.916C144.798 12.1777 145.167 12.3086 145.663 12.3086C146.14 12.3086 146.519 12.2188 146.8 12.0391C147.085 11.8594 147.29 11.5957 147.415 11.248C147.54 10.8965 147.603 10.4668 147.603 9.95898V6.57812H148.581ZM153.44 6.47266C154.206 6.47266 154.774 6.64453 155.145 6.98828C155.516 7.33203 155.702 7.88086 155.702 8.63477V13H154.993L154.805 12.0508H154.759C154.579 12.2852 154.391 12.4824 154.196 12.6426C154.001 12.7988 153.774 12.918 153.516 13C153.262 13.0781 152.95 13.1172 152.579 13.1172C152.188 13.1172 151.841 13.0488 151.536 12.9121C151.235 12.7754 150.997 12.5684 150.821 12.291C150.649 12.0137 150.563 11.6621 150.563 11.2363C150.563 10.5957 150.817 10.1035 151.325 9.75977C151.833 9.41602 152.606 9.22852 153.645 9.19727L154.753 9.15039V8.75781C154.753 8.20312 154.634 7.81445 154.395 7.5918C154.157 7.36914 153.821 7.25781 153.387 7.25781C153.052 7.25781 152.731 7.30664 152.427 7.4043C152.122 7.50195 151.833 7.61719 151.559 7.75L151.261 7.01172C151.55 6.86328 151.882 6.73633 152.257 6.63086C152.632 6.52539 153.026 6.47266 153.44 6.47266ZM154.741 9.83594L153.762 9.87695C152.962 9.9082 152.397 10.0391 152.069 10.2695C151.741 10.5 151.577 10.8262 151.577 11.248C151.577 11.6152 151.688 11.8867 151.911 12.0625C152.134 12.2383 152.429 12.3262 152.796 12.3262C153.366 12.3262 153.833 12.168 154.196 11.8516C154.559 11.5352 154.741 11.0605 154.741 10.4277V9.83594ZM155.098 5.72852H154.548C154.348 5.5918 154.141 5.43945 153.927 5.27148C153.716 5.10352 153.511 4.92383 153.311 4.73242C153.104 4.92383 152.895 5.10352 152.684 5.27148C152.477 5.43945 152.274 5.5918 152.075 5.72852H151.518V5.58789C151.655 5.43945 151.8 5.28125 151.952 5.11328C152.104 4.94531 152.255 4.77148 152.403 4.5918C152.552 4.41211 152.686 4.23438 152.807 4.05859H153.815C153.936 4.23438 154.069 4.41211 154.214 4.5918C154.362 4.77148 154.512 4.94531 154.665 5.11328C154.817 5.28125 154.962 5.43945 155.098 5.58789V5.72852ZM154.636 4.45117C154.796 4.25586 154.93 4.07031 155.04 3.89453C155.153 3.71875 155.272 3.50586 155.397 3.25586H156.376V3.37891C156.208 3.60547 156.02 3.82227 155.813 4.0293C155.61 4.23242 155.405 4.41797 155.198 4.58594H154.636V4.45117ZM160.18 12.3203C160.34 12.3203 160.504 12.3066 160.672 12.2793C160.84 12.252 160.977 12.2188 161.082 12.1797V12.9355C160.969 12.9863 160.811 13.0293 160.608 13.0645C160.409 13.0996 160.213 13.1172 160.022 13.1172C159.682 13.1172 159.373 13.0586 159.096 12.9414C158.819 12.8203 158.596 12.6172 158.428 12.332C158.264 12.0469 158.182 11.6523 158.182 11.1484V7.33984H157.268V6.86523L158.188 6.48438L158.575 5.08984H159.161V6.57812H161.041V7.33984H159.161V11.1191C159.161 11.5215 159.252 11.8223 159.436 12.0215C159.623 12.2207 159.871 12.3203 160.18 12.3203ZM162.637 12.3906C162.637 12.1172 162.703 11.9238 162.836 11.8105C162.969 11.6934 163.131 11.6348 163.322 11.6348C163.521 11.6348 163.689 11.6934 163.826 11.8105C163.963 11.9238 164.031 12.1172 164.031 12.3906C164.031 12.6602 163.963 12.8574 163.826 12.9824C163.689 13.1035 163.521 13.1641 163.322 13.1641C163.131 13.1641 162.969 13.1035 162.836 12.9824C162.703 12.8574 162.637 12.6602 162.637 12.3906ZM162.637 7.19336C162.637 6.91211 162.703 6.71484 162.836 6.60156C162.969 6.48438 163.131 6.42578 163.322 6.42578C163.521 6.42578 163.689 6.48438 163.826 6.60156C163.963 6.71484 164.031 6.91211 164.031 7.19336C164.031 7.45898 163.963 7.65234 163.826 7.77344C163.689 7.89453 163.521 7.95508 163.322 7.95508C163.131 7.95508 162.969 7.89453 162.836 7.77344C162.703 7.65234 162.637 7.45898 162.637 7.19336ZM7.74609 24.6172C7.74609 24.2773 7.80078 24.0059 7.91016 23.8027C8.01953 23.5957 8.16797 23.4453 8.35547 23.3516C8.54688 23.2578 8.76172 23.2109 9 23.2109C9.23828 23.2109 9.45117 23.2578 9.63867 23.3516C9.83008 23.4453 9.98047 23.5957 10.0898 23.8027C10.1992 24.0098 10.2539 24.2812 10.2539 24.6172C10.2539 24.9453 10.1992 25.2148 10.0898 25.4258C9.98047 25.6328 9.83008 25.7852 9.63867 25.8828C9.45117 25.9805 9.23828 26.0293 9 26.0293C8.76172 26.0293 8.54688 25.9805 8.35547 25.8828C8.16797 25.7852 8.01953 25.6328 7.91016 25.4258C7.80078 25.2188 7.74609 24.9492 7.74609 24.6172ZM25.9746 24.6348C25.9746 25.5996 25.7988 26.4062 25.4473 27.0547C25.0957 27.6992 24.5859 28.1855 23.918 28.5137C23.2539 28.8379 22.4473 29 21.498 29H19.1719V20.4336H21.7559C22.627 20.4336 23.377 20.5938 24.0059 20.9141C24.6348 21.2305 25.1191 21.7012 25.459 22.3262C25.8027 22.9473 25.9746 23.7168 25.9746 24.6348ZM24.9258 24.6699C24.9258 23.9004 24.7969 23.2656 24.5391 22.7656C24.2852 22.2656 23.9102 21.8945 23.4141 21.6523C22.9219 21.4062 22.3184 21.2832 21.6035 21.2832H20.168V28.1445H21.3809C22.5605 28.1445 23.4453 27.8535 24.0352 27.2715C24.6289 26.6895 24.9258 25.8223 24.9258 24.6699ZM29.1051 22.5781V29H28.1324V22.5781H29.1051ZM28.6305 20.1758C28.7906 20.1758 28.9273 20.2285 29.0406 20.334C29.1578 20.4355 29.2164 20.5957 29.2164 20.8145C29.2164 21.0293 29.1578 21.1895 29.0406 21.2949C28.9273 21.4004 28.7906 21.4531 28.6305 21.4531C28.4625 21.4531 28.3219 21.4004 28.2086 21.2949C28.0992 21.1895 28.0445 21.0293 28.0445 20.8145C28.0445 20.5957 28.0992 20.4355 28.2086 20.334C28.3219 20.2285 28.4625 20.1758 28.6305 20.1758ZM34.0402 22.4609C34.5871 22.4609 35.0559 22.582 35.4465 22.8242C35.8371 23.0664 36.1359 23.4062 36.343 23.8438C36.55 24.2773 36.6535 24.7852 36.6535 25.3672V25.9707H32.218C32.2297 26.7246 32.4172 27.2988 32.7805 27.6934C33.1437 28.0879 33.6555 28.2852 34.3156 28.2852C34.7219 28.2852 35.0812 28.248 35.3937 28.1738C35.7062 28.0996 36.0305 27.9902 36.3664 27.8457V28.7012C36.0422 28.8457 35.7199 28.9512 35.3996 29.0176C35.0832 29.084 34.7082 29.1172 34.2746 29.1172C33.6574 29.1172 33.1184 28.9922 32.6574 28.7422C32.2004 28.4883 31.8449 28.1172 31.591 27.6289C31.3371 27.1406 31.2102 26.543 31.2102 25.8359C31.2102 25.1445 31.3254 24.5469 31.5559 24.043C31.7902 23.5352 32.1184 23.1445 32.5402 22.8711C32.966 22.5977 33.466 22.4609 34.0402 22.4609ZM34.0285 23.2578C33.509 23.2578 33.0949 23.4277 32.7863 23.7676C32.4777 24.1074 32.2941 24.582 32.2355 25.1914H35.634C35.6301 24.8086 35.5695 24.4727 35.4523 24.1836C35.3391 23.8906 35.1652 23.6641 34.9309 23.5039C34.6965 23.3398 34.3957 23.2578 34.0285 23.2578ZM34.4621 19.8125C34.5598 19.9883 34.6965 20.1875 34.8723 20.4102C35.048 20.6289 35.2336 20.8438 35.4289 21.0547C35.6242 21.2656 35.798 21.4473 35.9504 21.5996V21.7285H35.259C35.048 21.5918 34.8312 21.4238 34.6086 21.2246C34.3859 21.0254 34.1691 20.8184 33.9582 20.6035C33.7473 20.8184 33.5324 21.0254 33.3137 21.2246C33.0988 21.4199 32.8859 21.5879 32.675 21.7285H32.007V21.5996C32.1555 21.4434 32.3234 21.2598 32.5109 21.0488C32.7023 20.8379 32.884 20.623 33.0559 20.4043C33.2316 20.1855 33.3703 19.9883 33.4719 19.8125H34.4621ZM34.1281 31.0566C33.9641 31.0566 33.8254 31.0039 33.7121 30.8984C33.5988 30.793 33.5422 30.6328 33.5422 30.418C33.5422 30.1992 33.5988 30.0371 33.7121 29.9316C33.8254 29.8301 33.9641 29.7793 34.1281 29.7793C34.2961 29.7793 34.4367 29.8301 34.55 29.9316C34.6633 30.0371 34.7199 30.1992 34.7199 30.418C34.7199 30.6328 34.6633 30.793 34.55 30.8984C34.4367 31.0039 34.2961 31.0566 34.1281 31.0566ZM41.7469 22.4609C42.5086 22.4609 43.0848 22.6484 43.4754 23.0234C43.866 23.3945 44.0613 23.9922 44.0613 24.8164V29H43.1004V24.8809C43.1004 24.3457 42.9773 23.9453 42.7313 23.6797C42.4891 23.4141 42.116 23.2812 41.6121 23.2812C40.9012 23.2812 40.4012 23.4824 40.1121 23.8848C39.823 24.2871 39.6785 24.8711 39.6785 25.6367V29H38.7059V22.5781H39.491L39.6375 23.5039H39.6902C39.827 23.2773 40.0008 23.0879 40.2117 22.9355C40.4227 22.7793 40.659 22.6621 40.9207 22.584C41.1824 22.502 41.4578 22.4609 41.7469 22.4609ZM52.0566 28.3203C52.2168 28.3203 52.3809 28.3066 52.5488 28.2793C52.7168 28.252 52.8535 28.2188 52.959 28.1797V28.9355C52.8457 28.9863 52.6875 29.0293 52.4844 29.0645C52.2852 29.0996 52.0898 29.1172 51.8984 29.1172C51.5586 29.1172 51.25 29.0586 50.9727 28.9414C50.6953 28.8203 50.4727 28.6172 50.3047 28.332C50.1406 28.0469 50.0586 27.6523 50.0586 27.1484V23.3398H49.1445V22.8652L50.0645 22.4844L50.4512 21.0898H51.0371V22.5781H52.918V23.3398H51.0371V27.1191C51.0371 27.5215 51.1289 27.8223 51.3125 28.0215C51.5 28.2207 51.748 28.3203 52.0566 28.3203ZM55.6324 29H54.6598V22.5781H55.6324V29ZM56.8453 19.8066V19.9238C56.7672 20.0371 56.6598 20.1738 56.523 20.334C56.3902 20.4902 56.2418 20.6562 56.0777 20.832C55.9137 21.0039 55.7477 21.168 55.5797 21.3242C55.4156 21.4805 55.2633 21.6152 55.1227 21.7285H54.4723V21.5879C54.5973 21.4395 54.734 21.2617 54.8824 21.0547C55.0309 20.8438 55.1754 20.6289 55.316 20.4102C55.4566 20.1875 55.5738 19.9863 55.6676 19.8066H56.8453ZM60.6672 29.1172C60.0891 29.1172 59.5793 28.998 59.1379 28.7598C58.6965 28.5215 58.3527 28.1582 58.1066 27.6699C57.8605 27.1816 57.7375 26.5664 57.7375 25.8242C57.7375 25.0469 57.8664 24.4121 58.1242 23.9199C58.3859 23.4238 58.7453 23.0566 59.2023 22.8184C59.6594 22.5801 60.1789 22.4609 60.7609 22.4609C61.0812 22.4609 61.3898 22.4941 61.6867 22.5605C61.9875 22.623 62.2336 22.7031 62.425 22.8008L62.132 23.6152C61.9367 23.5371 61.7102 23.4668 61.4523 23.4043C61.1984 23.3418 60.9602 23.3105 60.7375 23.3105C60.2922 23.3105 59.9211 23.4062 59.6242 23.5977C59.3312 23.7891 59.1105 24.0703 58.9621 24.4414C58.8176 24.8125 58.7453 25.2695 58.7453 25.8125C58.7453 26.332 58.8156 26.7754 58.9562 27.1426C59.1008 27.5098 59.3137 27.791 59.5949 27.9863C59.8801 28.1777 60.2355 28.2734 60.6613 28.2734C61.0012 28.2734 61.3078 28.2383 61.5812 28.168C61.8547 28.0938 62.1027 28.0078 62.3254 27.9102V28.7773C62.1105 28.8867 61.8703 28.9707 61.6047 29.0293C61.343 29.0879 61.0305 29.1172 60.6672 29.1172ZM65.2215 19.8828V22.6074C65.2215 22.7637 65.2176 22.9219 65.2098 23.082C65.202 23.2383 65.1883 23.3828 65.1688 23.5156H65.2332C65.366 23.2891 65.534 23.0996 65.7371 22.9473C65.9441 22.791 66.1785 22.6738 66.4402 22.5957C66.702 22.5137 66.9793 22.4727 67.2723 22.4727C67.7879 22.4727 68.2176 22.5547 68.5613 22.7188C68.909 22.8828 69.1688 23.1367 69.3406 23.4805C69.5164 23.8242 69.6043 24.2695 69.6043 24.8164V29H68.6434V24.8809C68.6434 24.3457 68.5203 23.9453 68.2742 23.6797C68.032 23.4141 67.659 23.2812 67.1551 23.2812C66.6785 23.2812 66.2977 23.373 66.0125 23.5566C65.7313 23.7363 65.5281 24.002 65.4031 24.3535C65.282 24.7051 65.2215 25.1348 65.2215 25.6426V29H64.2488V19.8828H65.2215ZM77.5996 28.3203C77.7598 28.3203 77.9238 28.3066 78.0918 28.2793C78.2598 28.252 78.3965 28.2188 78.502 28.1797V28.9355C78.3887 28.9863 78.2305 29.0293 78.0273 29.0645C77.8281 29.0996 77.6328 29.1172 77.4414 29.1172C77.1016 29.1172 76.793 29.0586 76.5156 28.9414C76.2383 28.8203 76.0156 28.6172 75.8477 28.332C75.6836 28.0469 75.6016 27.6523 75.6016 27.1484V23.3398H74.6875V22.8652L75.6074 22.4844L75.9941 21.0898H76.5801V22.5781H78.4609V23.3398H76.5801V27.1191C76.5801 27.5215 76.6719 27.8223 76.8555 28.0215C77.043 28.2207 77.291 28.3203 77.5996 28.3203ZM83.1207 22.4609C83.2496 22.4609 83.3844 22.4688 83.525 22.4844C83.6656 22.4961 83.7906 22.5137 83.9 22.5371L83.777 23.4395C83.6715 23.4121 83.5543 23.3906 83.4254 23.375C83.2965 23.3594 83.1754 23.3516 83.0621 23.3516C82.8043 23.3516 82.5602 23.4043 82.3297 23.5098C82.1031 23.6113 81.9039 23.7598 81.732 23.9551C81.5602 24.1465 81.4254 24.3789 81.3277 24.6523C81.2301 24.9219 81.1813 25.2227 81.1813 25.5547V29H80.2027V22.5781H81.0113L81.1168 23.7617H81.1578C81.2906 23.5234 81.4508 23.3066 81.6383 23.1113C81.8258 22.9121 82.0426 22.7539 82.2887 22.6367C82.5387 22.5195 82.816 22.4609 83.1207 22.4609ZM91.05 25.7773C91.05 26.3047 90.9816 26.7754 90.8449 27.1895C90.7082 27.6035 90.5109 27.9531 90.2531 28.2383C89.9953 28.5234 89.6828 28.7422 89.3156 28.8945C88.9523 29.043 88.5402 29.1172 88.0793 29.1172C87.6496 29.1172 87.2551 29.043 86.8957 28.8945C86.5402 28.7422 86.2316 28.5234 85.9699 28.2383C85.7121 27.9531 85.5109 27.6035 85.3664 27.1895C85.2258 26.7754 85.1555 26.3047 85.1555 25.7773C85.1555 25.0742 85.2746 24.4766 85.5129 23.9844C85.7512 23.4883 86.091 23.1113 86.5324 22.8535C86.9777 22.5918 87.507 22.4609 88.1203 22.4609C88.7063 22.4609 89.218 22.5918 89.6555 22.8535C90.0969 23.1152 90.4387 23.4941 90.6809 23.9902C90.927 24.4824 91.05 25.0781 91.05 25.7773ZM86.1633 25.7773C86.1633 26.293 86.2316 26.7402 86.3684 27.1191C86.5051 27.498 86.716 27.791 87.0012 27.998C87.2863 28.2051 87.6535 28.3086 88.1027 28.3086C88.548 28.3086 88.9133 28.2051 89.1984 27.998C89.4875 27.791 89.7004 27.498 89.8371 27.1191C89.9738 26.7402 90.0422 26.293 90.0422 25.7773C90.0422 25.2656 89.9738 24.8242 89.8371 24.4531C89.7004 24.0781 89.4895 23.7891 89.2043 23.5859C88.9191 23.3828 88.55 23.2812 88.0969 23.2812C87.4289 23.2812 86.9387 23.502 86.6262 23.9434C86.3176 24.3848 86.1633 24.9961 86.1633 25.7773ZM86.3156 21.7285V21.5996C86.4484 21.4512 86.591 21.293 86.7434 21.125C86.8957 20.957 87.0461 20.7832 87.1945 20.6035C87.3469 20.4238 87.4836 20.2461 87.6047 20.0703H88.6242C88.7492 20.2461 88.884 20.4238 89.0285 20.6035C89.177 20.7832 89.3254 20.957 89.4738 21.125C89.6262 21.293 89.7707 21.4512 89.9074 21.5996V21.7285H89.3449C89.1418 21.5918 88.9367 21.4395 88.7297 21.2715C88.5227 21.1035 88.3156 20.9238 88.1086 20.7324C87.9055 20.9238 87.6984 21.1035 87.4875 21.2715C87.2766 21.4395 87.0695 21.5918 86.8664 21.7285H86.3156ZM86.2453 20.5859C86.0227 20.418 85.8098 20.2324 85.6066 20.0293C85.4074 19.8223 85.2219 19.6055 85.05 19.3789V19.2559H86.0168C86.1418 19.5059 86.2609 19.7207 86.3742 19.9004C86.4875 20.0762 86.6223 20.2637 86.7785 20.4629V20.5859H86.2453ZM96.1727 22.4609C96.9344 22.4609 97.5105 22.6484 97.9012 23.0234C98.2918 23.3945 98.4871 23.9922 98.4871 24.8164V29H97.5262V24.8809C97.5262 24.3457 97.4031 23.9453 97.157 23.6797C96.9148 23.4141 96.5418 23.2812 96.0379 23.2812C95.327 23.2812 94.827 23.4824 94.5379 23.8848C94.2488 24.2871 94.1043 24.8711 94.1043 25.6367V29H93.1316V22.5781H93.9168L94.0633 23.5039H94.116C94.2527 23.2773 94.4266 23.0879 94.6375 22.9355C94.8484 22.7793 95.0848 22.6621 95.3465 22.584C95.6082 22.502 95.8836 22.4609 96.1727 22.4609ZM102.684 31.8828C101.84 31.8828 101.19 31.7246 100.733 31.4082C100.276 31.0957 100.047 30.6562 100.047 30.0898C100.047 29.6875 100.174 29.3438 100.428 29.0586C100.686 28.7734 101.041 28.584 101.495 28.4902C101.327 28.4121 101.182 28.2949 101.061 28.1387C100.944 27.9824 100.885 27.8027 100.885 27.5996C100.885 27.3652 100.95 27.1602 101.079 26.9844C101.211 26.8047 101.412 26.6328 101.682 26.4688C101.346 26.332 101.073 26.1016 100.862 25.7773C100.655 25.4492 100.551 25.0684 100.551 24.6348C100.551 24.1738 100.647 23.7812 100.838 23.457C101.03 23.1289 101.307 22.8789 101.67 22.707C102.034 22.5352 102.473 22.4492 102.989 22.4492C103.102 22.4492 103.215 22.4551 103.329 22.4668C103.446 22.4746 103.557 22.4883 103.662 22.5078C103.768 22.5234 103.86 22.543 103.938 22.5664H106.141V23.1934L104.957 23.3398C105.075 23.4922 105.172 23.6758 105.25 23.8906C105.329 24.1055 105.368 24.3438 105.368 24.6055C105.368 25.2461 105.151 25.7559 104.717 26.1348C104.284 26.5098 103.688 26.6973 102.93 26.6973C102.75 26.6973 102.567 26.6816 102.379 26.6504C102.188 26.7559 102.041 26.873 101.94 27.002C101.842 27.1309 101.793 27.2793 101.793 27.4473C101.793 27.5723 101.83 27.6719 101.905 27.7461C101.983 27.8203 102.094 27.875 102.239 27.9102C102.383 27.9414 102.557 27.957 102.76 27.957H103.891C104.59 27.957 105.125 28.1035 105.496 28.3965C105.871 28.6895 106.059 29.1172 106.059 29.6797C106.059 30.3906 105.77 30.9355 105.192 31.3145C104.614 31.6934 103.778 31.8828 102.684 31.8828ZM102.713 31.1211C103.245 31.1211 103.684 31.0664 104.032 30.957C104.383 30.8516 104.645 30.6973 104.817 30.4941C104.993 30.2949 105.08 30.0566 105.08 29.7793C105.08 29.5215 105.022 29.3262 104.905 29.1934C104.787 29.0645 104.616 28.9785 104.389 28.9355C104.162 28.8887 103.885 28.8652 103.557 28.8652H102.444C102.155 28.8652 101.903 28.9102 101.688 29C101.473 29.0898 101.307 29.2227 101.19 29.3984C101.077 29.5742 101.02 29.793 101.02 30.0547C101.02 30.4023 101.166 30.666 101.459 30.8457C101.752 31.0293 102.17 31.1211 102.713 31.1211ZM102.965 25.9883C103.43 25.9883 103.78 25.8711 104.014 25.6367C104.248 25.4023 104.366 25.0605 104.366 24.6113C104.366 24.1309 104.246 23.7715 104.008 23.5332C103.77 23.291 103.418 23.1699 102.954 23.1699C102.508 23.1699 102.164 23.2949 101.922 23.5449C101.684 23.791 101.565 24.1523 101.565 24.6289C101.565 25.0664 101.686 25.4023 101.928 25.6367C102.17 25.8711 102.516 25.9883 102.965 25.9883ZM113.398 28.3203C113.558 28.3203 113.722 28.3066 113.89 28.2793C114.058 28.252 114.195 28.2188 114.3 28.1797V28.9355C114.187 28.9863 114.029 29.0293 113.826 29.0645C113.627 29.0996 113.431 29.1172 113.24 29.1172C112.9 29.1172 112.591 29.0586 112.314 28.9414C112.037 28.8203 111.814 28.6172 111.646 28.332C111.482 28.0469 111.4 27.6523 111.4 27.1484V23.3398H110.486V22.8652L111.406 22.4844L111.793 21.0898H112.379V22.5781H114.259V23.3398H112.379V27.1191C112.379 27.5215 112.47 27.8223 112.654 28.0215C112.841 28.2207 113.089 28.3203 113.398 28.3203ZM118.919 22.4609C119.048 22.4609 119.183 22.4688 119.323 22.4844C119.464 22.4961 119.589 22.5137 119.698 22.5371L119.575 23.4395C119.47 23.4121 119.353 23.3906 119.224 23.375C119.095 23.3594 118.974 23.3516 118.861 23.3516C118.603 23.3516 118.359 23.4043 118.128 23.5098C117.902 23.6113 117.702 23.7598 117.53 23.9551C117.359 24.1465 117.224 24.3789 117.126 24.6523C117.029 24.9219 116.98 25.2227 116.98 25.5547V29H116.001V22.5781H116.81L116.915 23.7617H116.956C117.089 23.5234 117.249 23.3066 117.437 23.1113C117.624 22.9121 117.841 22.7539 118.087 22.6367C118.337 22.5195 118.614 22.4609 118.919 22.4609ZM126.848 25.7773C126.848 26.3047 126.78 26.7754 126.643 27.1895C126.507 27.6035 126.309 27.9531 126.052 28.2383C125.794 28.5234 125.481 28.7422 125.114 28.8945C124.751 29.043 124.339 29.1172 123.878 29.1172C123.448 29.1172 123.054 29.043 122.694 28.8945C122.339 28.7422 122.03 28.5234 121.768 28.2383C121.511 27.9531 121.309 27.6035 121.165 27.1895C121.024 26.7754 120.954 26.3047 120.954 25.7773C120.954 25.0742 121.073 24.4766 121.311 23.9844C121.55 23.4883 121.889 23.1113 122.331 22.8535C122.776 22.5918 123.305 22.4609 123.919 22.4609C124.505 22.4609 125.016 22.5918 125.454 22.8535C125.895 23.1152 126.237 23.4941 126.479 23.9902C126.725 24.4824 126.848 25.0781 126.848 25.7773ZM121.962 25.7773C121.962 26.293 122.03 26.7402 122.167 27.1191C122.304 27.498 122.514 27.791 122.8 27.998C123.085 28.2051 123.452 28.3086 123.901 28.3086C124.346 28.3086 124.712 28.2051 124.997 27.998C125.286 27.791 125.499 27.498 125.636 27.1191C125.772 26.7402 125.841 26.293 125.841 25.7773C125.841 25.2656 125.772 24.8242 125.636 24.4531C125.499 24.0781 125.288 23.7891 125.003 23.5859C124.718 23.3828 124.348 23.2812 123.895 23.2812C123.227 23.2812 122.737 23.502 122.425 23.9434C122.116 24.3848 121.962 24.9961 121.962 25.7773ZM123.866 31.0566C123.702 31.0566 123.563 31.0039 123.45 30.8984C123.337 30.793 123.28 30.6328 123.28 30.418C123.28 30.1992 123.337 30.0371 123.45 29.9316C123.563 29.8301 123.702 29.7793 123.866 29.7793C124.034 29.7793 124.175 29.8301 124.288 29.9316C124.401 30.0371 124.458 30.1992 124.458 30.418C124.458 30.6328 124.401 30.793 124.288 30.8984C124.175 31.0039 124.034 31.0566 123.866 31.0566ZM131.004 28.3203C131.164 28.3203 131.329 28.3066 131.496 28.2793C131.664 28.252 131.801 28.2188 131.907 28.1797V28.9355C131.793 28.9863 131.635 29.0293 131.432 29.0645C131.233 29.0996 131.037 29.1172 130.846 29.1172C130.506 29.1172 130.198 29.0586 129.92 28.9414C129.643 28.8203 129.42 28.6172 129.252 28.332C129.088 28.0469 129.006 27.6523 129.006 27.1484V23.3398H128.092V22.8652L129.012 22.4844L129.399 21.0898H129.985V22.5781H131.866V23.3398H129.985V27.1191C129.985 27.5215 130.077 27.8223 130.26 28.0215C130.448 28.2207 130.696 28.3203 131.004 28.3203ZM134.27 26.6211V26.3164C134.27 26.0039 134.299 25.7363 134.357 25.5137C134.416 25.2871 134.518 25.0762 134.662 24.8809C134.811 24.6855 135.016 24.4785 135.277 24.2598C135.582 24.0059 135.822 23.791 135.998 23.6152C136.178 23.4355 136.307 23.2559 136.385 23.0762C136.463 22.8965 136.502 22.6797 136.502 22.4258C136.502 22.0195 136.371 21.709 136.109 21.4941C135.848 21.2754 135.479 21.166 135.002 21.166C134.615 21.166 134.271 21.2148 133.971 21.3125C133.67 21.4102 133.381 21.5273 133.104 21.6641L132.764 20.8789C133.084 20.7109 133.432 20.5742 133.807 20.4688C134.182 20.3633 134.6 20.3105 135.061 20.3105C135.814 20.3105 136.398 20.498 136.812 20.873C137.227 21.2441 137.434 21.7559 137.434 22.4082C137.434 22.7715 137.375 23.082 137.258 23.3398C137.141 23.5938 136.975 23.8281 136.76 24.043C136.545 24.2539 136.291 24.4785 135.998 24.7168C135.74 24.9355 135.543 25.1289 135.406 25.2969C135.27 25.4609 135.176 25.6309 135.125 25.8066C135.074 25.9785 135.049 26.1855 135.049 26.4277V26.6211H134.27ZM134.012 28.3906C134.012 28.1172 134.076 27.9238 134.205 27.8105C134.334 27.6934 134.5 27.6348 134.703 27.6348C134.895 27.6348 135.057 27.6934 135.189 27.8105C135.326 27.9238 135.395 28.1172 135.395 28.3906C135.395 28.6602 135.326 28.8574 135.189 28.9824C135.057 29.1035 134.895 29.1641 134.703 29.1641C134.5 29.1641 134.334 29.1035 134.205 28.9824C134.076 28.8574 134.012 28.6602 134.012 28.3906ZM7.74609 40.6172C7.74609 40.2773 7.80078 40.0059 7.91016 39.8027C8.01953 39.5957 8.16797 39.4453 8.35547 39.3516C8.54688 39.2578 8.76172 39.2109 9 39.2109C9.23828 39.2109 9.45117 39.2578 9.63867 39.3516C9.83008 39.4453 9.98047 39.5957 10.0898 39.8027C10.1992 40.0098 10.2539 40.2812 10.2539 40.6172C10.2539 40.9453 10.1992 41.2148 10.0898 41.4258C9.98047 41.6328 9.83008 41.7852 9.63867 41.8828C9.45117 41.9805 9.23828 42.0293 9 42.0293C8.76172 42.0293 8.54688 41.9805 8.35547 41.8828C8.16797 41.7852 8.01953 41.6328 7.91016 41.4258C7.80078 41.2188 7.74609 40.9492 7.74609 40.6172ZM26.6016 40.7051C26.6016 41.4082 26.5059 42.0449 26.3145 42.6152C26.123 43.1855 25.8379 43.668 25.459 44.0625C25.084 44.457 24.6152 44.7441 24.0527 44.9238L26.0684 47.0391H24.6445L22.9863 45.1055C22.9355 45.1055 22.8828 45.1074 22.8281 45.1113C22.7773 45.1152 22.7266 45.1172 22.6758 45.1172C22.0117 45.1172 21.4316 45.0117 20.9355 44.8008C20.4434 44.5898 20.0332 44.2891 19.7051 43.8984C19.3809 43.5078 19.1367 43.041 18.9727 42.498C18.8125 41.9551 18.7324 41.3535 18.7324 40.6934C18.7324 39.8184 18.877 39.0508 19.166 38.3906C19.4551 37.7305 19.8926 37.2168 20.4785 36.8496C21.0684 36.4824 21.8066 36.2988 22.6934 36.2988C23.541 36.2988 24.2539 36.4805 24.832 36.8438C25.4141 37.207 25.8535 37.7188 26.1504 38.3789C26.4512 39.0352 26.6016 39.8105 26.6016 40.7051ZM19.7812 40.7051C19.7812 41.4316 19.8848 42.0605 20.0918 42.5918C20.2988 43.123 20.6152 43.5332 21.041 43.8223C21.4707 44.1113 22.0156 44.2559 22.6758 44.2559C23.3398 44.2559 23.8828 44.1113 24.3047 43.8223C24.7305 43.5332 25.0449 43.123 25.248 42.5918C25.4512 42.0605 25.5527 41.4316 25.5527 40.7051C25.5527 39.5996 25.3203 38.7363 24.8555 38.1152C24.3945 37.4902 23.6738 37.1777 22.6934 37.1777C22.0293 37.1777 21.4824 37.3203 21.0527 37.6055C20.623 37.8906 20.3027 38.2969 20.0918 38.8242C19.8848 39.3477 19.7812 39.9746 19.7812 40.7051ZM34.068 38.5781V45H33.2711L33.1305 44.0977H33.0777C32.9449 44.3203 32.773 44.5078 32.5621 44.6602C32.3512 44.8125 32.1129 44.9258 31.8473 45C31.5855 45.0781 31.3062 45.1172 31.0094 45.1172C30.5016 45.1172 30.0758 45.0352 29.732 44.8711C29.3883 44.707 29.1285 44.4531 28.9527 44.1094C28.7809 43.7656 28.6949 43.3242 28.6949 42.7852V38.5781H29.6793V42.7148C29.6793 43.25 29.8004 43.6504 30.0426 43.916C30.2848 44.1777 30.6539 44.3086 31.15 44.3086C31.6266 44.3086 32.0055 44.2188 32.2867 44.0391C32.5719 43.8594 32.777 43.5957 32.902 43.248C33.027 42.8965 33.0895 42.4668 33.0895 41.959V38.5781H34.068ZM35.5109 38.5781H36.5539L37.9719 42.3047C38.0539 42.5234 38.1301 42.7344 38.2004 42.9375C38.2707 43.1367 38.3332 43.3281 38.3879 43.5117C38.4426 43.6953 38.4855 43.873 38.5168 44.0449H38.5578C38.6125 43.8496 38.6906 43.5938 38.7922 43.2773C38.8937 42.957 39.0031 42.6309 39.1203 42.2988L40.4621 38.5781H41.5109L38.716 45.9434C38.5676 46.3379 38.3937 46.6816 38.1945 46.9746C37.9992 47.2676 37.7609 47.4922 37.4797 47.6484C37.1984 47.8086 36.8586 47.8887 36.4602 47.8887C36.2766 47.8887 36.1145 47.877 35.9738 47.8535C35.8332 47.834 35.7121 47.8105 35.6105 47.7832V47.0039C35.6965 47.0234 35.8 47.041 35.9211 47.0566C36.0461 47.0723 36.175 47.0801 36.3078 47.0801C36.55 47.0801 36.759 47.0332 36.9348 46.9395C37.1145 46.8496 37.2687 46.7168 37.3977 46.541C37.5266 46.3652 37.6379 46.1562 37.7316 45.9141L38.0832 45.0117L35.5109 38.5781ZM53.4262 38.4609C54.1332 38.4609 54.6664 38.6465 55.0258 39.0176C55.3852 39.3848 55.5648 39.9766 55.5648 40.793V45H54.6039V40.8398C54.6039 40.3203 54.4906 39.9316 54.2641 39.6738C54.0414 39.4121 53.7094 39.2812 53.268 39.2812C52.6469 39.2812 52.1957 39.4609 51.9145 39.8203C51.6332 40.1797 51.4926 40.709 51.4926 41.4082V45H50.5258V40.8398C50.5258 40.4922 50.475 40.2031 50.3734 39.9727C50.2758 39.7422 50.1273 39.5703 49.9281 39.457C49.7328 39.3398 49.4848 39.2812 49.184 39.2812C48.7582 39.2812 48.4164 39.3691 48.1586 39.5449C47.9008 39.7207 47.7133 39.9824 47.5961 40.3301C47.4828 40.6738 47.4262 41.0977 47.4262 41.6016V45H46.4535V38.5781H47.2387L47.3852 39.4863H47.4379C47.5668 39.2637 47.7289 39.0762 47.9242 38.9238C48.1195 38.7715 48.3383 38.6562 48.5805 38.5781C48.8227 38.5 49.0805 38.4609 49.3539 38.4609C49.8422 38.4609 50.2504 38.5527 50.5785 38.7363C50.9105 38.916 51.1508 39.1914 51.2992 39.5625H51.352C51.5629 39.1914 51.852 38.916 52.2191 38.7363C52.5863 38.5527 52.9887 38.4609 53.4262 38.4609ZM63.5 41.7773C63.5 42.3047 63.4316 42.7754 63.2949 43.1895C63.1582 43.6035 62.9609 43.9531 62.7031 44.2383C62.4453 44.5234 62.1328 44.7422 61.7656 44.8945C61.4023 45.043 60.9902 45.1172 60.5293 45.1172C60.0996 45.1172 59.7051 45.043 59.3457 44.8945C58.9902 44.7422 58.6816 44.5234 58.4199 44.2383C58.1621 43.9531 57.9609 43.6035 57.8164 43.1895C57.6758 42.7754 57.6055 42.3047 57.6055 41.7773C57.6055 41.0742 57.7246 40.4766 57.9629 39.9844C58.2012 39.4883 58.541 39.1113 58.9824 38.8535C59.4277 38.5918 59.957 38.4609 60.5703 38.4609C61.1562 38.4609 61.668 38.5918 62.1055 38.8535C62.5469 39.1152 62.8887 39.4941 63.1309 39.9902C63.377 40.4824 63.5 41.0781 63.5 41.7773ZM58.6133 41.7773C58.6133 42.293 58.6816 42.7402 58.8184 43.1191C58.9551 43.498 59.166 43.791 59.4512 43.998C59.7363 44.2051 60.1035 44.3086 60.5527 44.3086C60.998 44.3086 61.3633 44.2051 61.6484 43.998C61.9375 43.791 62.1504 43.498 62.2871 43.1191C62.4238 42.7402 62.4922 42.293 62.4922 41.7773C62.4922 41.2656 62.4238 40.8242 62.2871 40.4531C62.1504 40.0781 61.9395 39.7891 61.6543 39.5859C61.3691 39.3828 61 39.2812 60.5469 39.2812C59.8789 39.2812 59.3887 39.502 59.0762 39.9434C58.7676 40.3848 58.6133 40.9961 58.6133 41.7773ZM61.0566 35.8125C61.1543 35.9883 61.291 36.1875 61.4668 36.4102C61.6426 36.6289 61.8281 36.8438 62.0234 37.0547C62.2188 37.2656 62.3926 37.4473 62.5449 37.5996V37.7285H61.8535C61.6426 37.5918 61.4258 37.4238 61.2031 37.2246C60.9805 37.0254 60.7637 36.8184 60.5527 36.6035C60.3418 36.8184 60.127 37.0254 59.9082 37.2246C59.6934 37.4199 59.4805 37.5879 59.2695 37.7285H58.6016V37.5996C58.75 37.4434 58.918 37.2598 59.1055 37.0488C59.2969 36.8379 59.4785 36.623 59.6504 36.4043C59.8262 36.1855 59.9648 35.9883 60.0664 35.8125H61.0566ZM71.6711 45.1172C71.093 45.1172 70.5832 44.998 70.1418 44.7598C69.7004 44.5215 69.3566 44.1582 69.1105 43.6699C68.8645 43.1816 68.7414 42.5664 68.7414 41.8242C68.7414 41.0469 68.8703 40.4121 69.1281 39.9199C69.3898 39.4238 69.7492 39.0566 70.2063 38.8184C70.6633 38.5801 71.1828 38.4609 71.7648 38.4609C72.0852 38.4609 72.3938 38.4941 72.6906 38.5605C72.9914 38.623 73.2375 38.7031 73.4289 38.8008L73.1359 39.6152C72.9406 39.5371 72.7141 39.4668 72.4563 39.4043C72.2023 39.3418 71.9641 39.3105 71.7414 39.3105C71.2961 39.3105 70.925 39.4062 70.6281 39.5977C70.3352 39.7891 70.1145 40.0703 69.966 40.4414C69.8215 40.8125 69.7492 41.2695 69.7492 41.8125C69.7492 42.332 69.8195 42.7754 69.9602 43.1426C70.1047 43.5098 70.3176 43.791 70.5988 43.9863C70.884 44.1777 71.2395 44.2734 71.6652 44.2734C72.0051 44.2734 72.3117 44.2383 72.5852 44.168C72.8586 44.0938 73.1066 44.0078 73.3293 43.9102V44.7773C73.1145 44.8867 72.8742 44.9707 72.6086 45.0293C72.3469 45.0879 72.0344 45.1172 71.6711 45.1172ZM76.2254 35.8828V38.6074C76.2254 38.7637 76.2215 38.9219 76.2137 39.082C76.2059 39.2383 76.1922 39.3828 76.1727 39.5156H76.2371C76.3699 39.2891 76.5379 39.0996 76.741 38.9473C76.948 38.791 77.1824 38.6738 77.4441 38.5957C77.7059 38.5137 77.9832 38.4727 78.2762 38.4727C78.7918 38.4727 79.2215 38.5547 79.5652 38.7188C79.9129 38.8828 80.1727 39.1367 80.3445 39.4805C80.5203 39.8242 80.6082 40.2695 80.6082 40.8164V45H79.6473V40.8809C79.6473 40.3457 79.5242 39.9453 79.2781 39.6797C79.0359 39.4141 78.6629 39.2812 78.159 39.2812C77.6824 39.2812 77.3016 39.373 77.0164 39.5566C76.7352 39.7363 76.532 40.002 76.407 40.3535C76.2859 40.7051 76.2254 41.1348 76.2254 41.6426V45H75.2527V35.8828H76.2254ZM85.4145 38.4727C86.1801 38.4727 86.7484 38.6445 87.1195 38.9883C87.4906 39.332 87.6762 39.8809 87.6762 40.6348V45H86.9672L86.7797 44.0508H86.7328C86.5531 44.2852 86.3656 44.4824 86.1703 44.6426C85.975 44.7988 85.7484 44.918 85.4906 45C85.2367 45.0781 84.9242 45.1172 84.5531 45.1172C84.1625 45.1172 83.8148 45.0488 83.5102 44.9121C83.2094 44.7754 82.9711 44.5684 82.7953 44.291C82.6234 44.0137 82.5375 43.6621 82.5375 43.2363C82.5375 42.5957 82.7914 42.1035 83.2992 41.7598C83.807 41.416 84.5805 41.2285 85.6195 41.1973L86.727 41.1504V40.7578C86.727 40.2031 86.6078 39.8145 86.3695 39.5918C86.1312 39.3691 85.7953 39.2578 85.3617 39.2578C85.0258 39.2578 84.7055 39.3066 84.4008 39.4043C84.0961 39.502 83.807 39.6172 83.5336 39.75L83.2348 39.0117C83.5238 38.8633 83.8559 38.7363 84.2309 38.6309C84.6059 38.5254 85.0004 38.4727 85.4145 38.4727ZM86.7152 41.8359L85.7367 41.877C84.9359 41.9082 84.3715 42.0391 84.0434 42.2695C83.7152 42.5 83.5512 42.8262 83.5512 43.248C83.5512 43.6152 83.6625 43.8867 83.8852 44.0625C84.1078 44.2383 84.4027 44.3262 84.7699 44.3262C85.3402 44.3262 85.807 44.168 86.1703 43.8516C86.5336 43.5352 86.7152 43.0605 86.7152 42.4277V41.8359ZM87.184 36.1465C87.1566 36.4629 87.0668 36.7402 86.9145 36.9785C86.766 37.2129 86.559 37.3965 86.2934 37.5293C86.0277 37.6621 85.7074 37.7285 85.3324 37.7285C84.7582 37.7285 84.3227 37.5859 84.0258 37.3008C83.7328 37.0156 83.5707 36.6309 83.5395 36.1465H84.1488C84.1723 36.3652 84.2328 36.5312 84.3305 36.6445C84.4281 36.7578 84.5629 36.8359 84.7348 36.8789C84.9066 36.918 85.1137 36.9375 85.3559 36.9375C85.5707 36.9375 85.7641 36.916 85.9359 36.873C86.1078 36.8262 86.2484 36.7461 86.3578 36.6328C86.4672 36.5156 86.5355 36.3535 86.5629 36.1465H87.184ZM93.1211 38.4609C93.8828 38.4609 94.459 38.6484 94.8496 39.0234C95.2402 39.3945 95.4355 39.9922 95.4355 40.8164V45H94.4746V40.8809C94.4746 40.3457 94.3516 39.9453 94.1055 39.6797C93.8633 39.4141 93.4902 39.2812 92.9863 39.2812C92.2754 39.2812 91.7754 39.4824 91.4863 39.8848C91.1973 40.2871 91.0527 40.8711 91.0527 41.6367V45H90.0801V38.5781H90.8652L91.0117 39.5039H91.0645C91.2012 39.2773 91.375 39.0879 91.5859 38.9355C91.7969 38.7793 92.0332 38.6621 92.2949 38.584C92.5566 38.502 92.832 38.4609 93.1211 38.4609ZM104.398 38.4609C105.159 38.4609 105.736 38.6484 106.126 39.0234C106.517 39.3945 106.712 39.9922 106.712 40.8164V45H105.751V40.8809C105.751 40.3457 105.628 39.9453 105.382 39.6797C105.14 39.4141 104.767 39.2812 104.263 39.2812C103.552 39.2812 103.052 39.4824 102.763 39.8848C102.474 40.2871 102.329 40.8711 102.329 41.6367V45H101.357V38.5781H102.142L102.288 39.5039H102.341C102.478 39.2773 102.652 39.0879 102.863 38.9355C103.073 38.7793 103.31 38.6621 103.571 38.584C103.833 38.502 104.109 38.4609 104.398 38.4609ZM114.419 38.5781V45H113.622L113.481 44.0977H113.429C113.296 44.3203 113.124 44.5078 112.913 44.6602C112.702 44.8125 112.464 44.9258 112.198 45C111.936 45.0781 111.657 45.1172 111.36 45.1172C110.852 45.1172 110.427 45.0352 110.083 44.8711C109.739 44.707 109.479 44.4531 109.304 44.1094C109.132 43.7656 109.046 43.3242 109.046 42.7852V38.5781H110.03V42.7148C110.03 43.25 110.151 43.6504 110.393 43.916C110.636 44.1777 111.005 44.3086 111.501 44.3086C111.977 44.3086 112.356 44.2188 112.637 44.0391C112.923 43.8594 113.128 43.5957 113.253 43.248C113.378 42.8965 113.44 42.4668 113.44 41.959V38.5781H114.419ZM122.412 41.7773C122.412 42.3047 122.344 42.7754 122.207 43.1895C122.071 43.6035 121.873 43.9531 121.616 44.2383C121.358 44.5234 121.045 44.7422 120.678 44.8945C120.315 45.043 119.903 45.1172 119.442 45.1172C119.012 45.1172 118.618 45.043 118.258 44.8945C117.903 44.7422 117.594 44.5234 117.332 44.2383C117.075 43.9531 116.873 43.6035 116.729 43.1895C116.588 42.7754 116.518 42.3047 116.518 41.7773C116.518 41.0742 116.637 40.4766 116.875 39.9844C117.114 39.4883 117.454 39.1113 117.895 38.8535C118.34 38.5918 118.87 38.4609 119.483 38.4609C120.069 38.4609 120.58 38.5918 121.018 38.8535C121.459 39.1152 121.801 39.4941 122.043 39.9902C122.289 40.4824 122.412 41.0781 122.412 41.7773ZM117.526 41.7773C117.526 42.293 117.594 42.7402 117.731 43.1191C117.868 43.498 118.079 43.791 118.364 43.998C118.649 44.2051 119.016 44.3086 119.465 44.3086C119.911 44.3086 120.276 44.2051 120.561 43.998C120.85 43.791 121.063 43.498 121.2 43.1191C121.336 42.7402 121.405 42.293 121.405 41.7773C121.405 41.2656 121.336 40.8242 121.2 40.4531C121.063 40.0781 120.852 39.7891 120.567 39.5859C120.282 39.3828 119.912 39.2812 119.459 39.2812C118.791 39.2812 118.301 39.502 117.989 39.9434C117.68 40.3848 117.526 40.9961 117.526 41.7773ZM119.969 35.8125C120.067 35.9883 120.204 36.1875 120.379 36.4102C120.555 36.6289 120.741 36.8438 120.936 37.0547C121.131 37.2656 121.305 37.4473 121.457 37.5996V37.7285H120.766C120.555 37.5918 120.338 37.4238 120.116 37.2246C119.893 37.0254 119.676 36.8184 119.465 36.6035C119.254 36.8184 119.039 37.0254 118.821 37.2246C118.606 37.4199 118.393 37.5879 118.182 37.7285H117.514V37.5996C117.662 37.4434 117.83 37.2598 118.018 37.0488C118.209 36.8379 118.391 36.623 118.563 36.4043C118.739 36.1855 118.877 35.9883 118.979 35.8125H119.969ZM125.467 38.5781V45H124.494V38.5781H125.467ZM124.992 36.1758C125.152 36.1758 125.289 36.2285 125.402 36.334C125.52 36.4355 125.578 36.5957 125.578 36.8145C125.578 37.0293 125.52 37.1895 125.402 37.2949C125.289 37.4004 125.152 37.4531 124.992 37.4531C124.824 37.4531 124.684 37.4004 124.57 37.2949C124.461 37.1895 124.406 37.0293 124.406 36.8145C124.406 36.5957 124.461 36.4355 124.57 36.334C124.684 36.2285 124.824 36.1758 124.992 36.1758ZM128.591 42.6211V42.3164C128.591 42.0039 128.621 41.7363 128.679 41.5137C128.738 41.2871 128.839 41.0762 128.984 40.8809C129.132 40.6855 129.338 40.4785 129.599 40.2598C129.904 40.0059 130.144 39.791 130.32 39.6152C130.5 39.4355 130.629 39.2559 130.707 39.0762C130.785 38.8965 130.824 38.6797 130.824 38.4258C130.824 38.0195 130.693 37.709 130.431 37.4941C130.17 37.2754 129.8 37.166 129.324 37.166C128.937 37.166 128.593 37.2148 128.293 37.3125C127.992 37.4102 127.703 37.5273 127.425 37.6641L127.086 36.8789C127.406 36.7109 127.754 36.5742 128.129 36.4688C128.504 36.3633 128.921 36.3105 129.382 36.3105C130.136 36.3105 130.72 36.498 131.134 36.873C131.548 37.2441 131.755 37.7559 131.755 38.4082C131.755 38.7715 131.697 39.082 131.58 39.3398C131.463 39.5938 131.296 39.8281 131.082 40.043C130.867 40.2539 130.613 40.4785 130.32 40.7168C130.062 40.9355 129.865 41.1289 129.728 41.2969C129.591 41.4609 129.498 41.6309 129.447 41.8066C129.396 41.9785 129.371 42.1855 129.371 42.4277V42.6211H128.591ZM128.334 44.3906C128.334 44.1172 128.398 43.9238 128.527 43.8105C128.656 43.6934 128.822 43.6348 129.025 43.6348C129.216 43.6348 129.379 43.6934 129.511 43.8105C129.648 43.9238 129.716 44.1172 129.716 44.3906C129.716 44.6602 129.648 44.8574 129.511 44.9824C129.379 45.1035 129.216 45.1641 129.025 45.1641C128.822 45.1641 128.656 45.1035 128.527 44.9824C128.398 44.8574 128.334 44.6602 128.334 44.3906ZM7.74609 56.6172C7.74609 56.2773 7.80078 56.0059 7.91016 55.8027C8.01953 55.5957 8.16797 55.4453 8.35547 55.3516C8.54688 55.2578 8.76172 55.2109 9 55.2109C9.23828 55.2109 9.45117 55.2578 9.63867 55.3516C9.83008 55.4453 9.98047 55.5957 10.0898 55.8027C10.1992 56.0098 10.2539 56.2812 10.2539 56.6172C10.2539 56.9453 10.1992 57.2148 10.0898 57.4258C9.98047 57.6328 9.83008 57.7852 9.63867 57.8828C9.45117 57.9805 9.23828 58.0293 9 58.0293C8.76172 58.0293 8.54688 57.9805 8.35547 57.8828C8.16797 57.7852 8.01953 57.6328 7.91016 57.4258C7.80078 57.2188 7.74609 56.9492 7.74609 56.6172ZM24.0059 58.7207C24.0059 59.2285 23.8789 59.6621 23.625 60.0215C23.375 60.377 23.0234 60.6484 22.5703 60.8359C22.1172 61.0234 21.584 61.1172 20.9707 61.1172C20.6465 61.1172 20.3398 61.1016 20.0508 61.0703C19.7617 61.0391 19.4961 60.9941 19.2539 60.9355C19.0117 60.877 18.7988 60.8047 18.6152 60.7188V59.7637C18.9082 59.8848 19.2656 59.998 19.6875 60.1035C20.1094 60.2051 20.5508 60.2559 21.0117 60.2559C21.4414 60.2559 21.8047 60.1992 22.1016 60.0859C22.3984 59.9688 22.623 59.8027 22.7754 59.5879C22.9316 59.3691 23.0098 59.1074 23.0098 58.8027C23.0098 58.5098 22.9453 58.2656 22.8164 58.0703C22.6875 57.8711 22.4727 57.6914 22.1719 57.5312C21.875 57.3672 21.4688 57.1934 20.9531 57.0098C20.5898 56.8809 20.2695 56.7402 19.9922 56.5879C19.7148 56.4316 19.4824 56.2559 19.2949 56.0605C19.1074 55.8652 18.9648 55.6387 18.8672 55.3809C18.7734 55.123 18.7266 54.8281 18.7266 54.4961C18.7266 54.0391 18.8418 53.6484 19.0723 53.3242C19.3066 52.9961 19.6289 52.7461 20.0391 52.5742C20.4531 52.3984 20.9277 52.3105 21.4629 52.3105C21.9199 52.3105 22.3418 52.3535 22.7285 52.4395C23.1191 52.5254 23.4766 52.6406 23.8008 52.7852L23.4902 53.6406C23.1816 53.5117 22.8535 53.4043 22.5059 53.3184C22.1621 53.2324 21.8066 53.1895 21.4395 53.1895C21.0723 53.1895 20.7617 53.2441 20.5078 53.3535C20.2578 53.459 20.0664 53.6094 19.9336 53.8047C19.8008 54 19.7344 54.2324 19.7344 54.502C19.7344 54.8027 19.7969 55.0527 19.9219 55.252C20.0508 55.4512 20.2539 55.6289 20.5312 55.7852C20.8125 55.9375 21.1836 56.0977 21.6445 56.2656C22.1484 56.4492 22.5762 56.6445 22.9277 56.8516C23.2793 57.0547 23.5469 57.3047 23.7305 57.6016C23.9141 57.8945 24.0059 58.2676 24.0059 58.7207ZM28.4137 54.4727C29.1793 54.4727 29.7477 54.6445 30.1187 54.9883C30.4898 55.332 30.6754 55.8809 30.6754 56.6348V61H29.9664L29.7789 60.0508H29.732C29.5523 60.2852 29.3648 60.4824 29.1695 60.6426C28.9742 60.7988 28.7477 60.918 28.4898 61C28.2359 61.0781 27.9234 61.1172 27.5523 61.1172C27.1617 61.1172 26.8141 61.0488 26.5094 60.9121C26.2086 60.7754 25.9703 60.5684 25.7945 60.291C25.6227 60.0137 25.5367 59.6621 25.5367 59.2363C25.5367 58.5957 25.7906 58.1035 26.2984 57.7598C26.8062 57.416 27.5797 57.2285 28.6187 57.1973L29.7262 57.1504V56.7578C29.7262 56.2031 29.607 55.8145 29.3687 55.5918C29.1305 55.3691 28.7945 55.2578 28.3609 55.2578C28.025 55.2578 27.7047 55.3066 27.4 55.4043C27.0953 55.502 26.8062 55.6172 26.5328 55.75L26.234 55.0117C26.523 54.8633 26.8551 54.7363 27.2301 54.6309C27.6051 54.5254 27.9996 54.4727 28.4137 54.4727ZM29.7145 57.8359L28.7359 57.877C27.9352 57.9082 27.3707 58.0391 27.0426 58.2695C26.7145 58.5 26.5504 58.8262 26.5504 59.248C26.5504 59.6152 26.6617 59.8867 26.8844 60.0625C27.107 60.2383 27.402 60.3262 27.7691 60.3262C28.3395 60.3262 28.8062 60.168 29.1695 59.8516C29.5328 59.5352 29.7145 59.0605 29.7145 58.4277V57.8359ZM29.5914 52.2227C29.5914 52.5234 29.4996 52.7578 29.316 52.9258C29.1324 53.0898 28.898 53.2051 28.6129 53.2715L28.5602 53.9219H27.9508L27.8746 52.9082C28.1754 52.8574 28.4098 52.7852 28.5777 52.6914C28.7496 52.5938 28.8355 52.4492 28.8355 52.2578C28.8355 52.0664 28.7594 51.9355 28.607 51.8652C28.4586 51.7949 28.2691 51.7598 28.0387 51.7598C27.9293 51.7598 27.8199 51.7656 27.7105 51.7773C27.6051 51.7852 27.5172 51.7969 27.4469 51.8125V51.2266C27.525 51.2031 27.6187 51.1855 27.7281 51.1738C27.8375 51.1582 27.9684 51.1504 28.1207 51.1504C28.5934 51.1504 28.9566 51.2402 29.2105 51.4199C29.4645 51.5957 29.5914 51.8633 29.5914 52.2227ZM36.1203 54.4609C36.882 54.4609 37.4582 54.6484 37.8488 55.0234C38.2395 55.3945 38.4348 55.9922 38.4348 56.8164V61H37.4738V56.8809C37.4738 56.3457 37.3508 55.9453 37.1047 55.6797C36.8625 55.4141 36.4895 55.2812 35.9855 55.2812C35.2746 55.2812 34.7746 55.4824 34.4855 55.8848C34.1965 56.2871 34.052 56.8711 34.052 57.6367V61H33.0793V54.5781H33.8645L34.0109 55.5039H34.0637C34.2004 55.2773 34.3742 55.0879 34.5852 54.9355C34.7961 54.7793 35.0324 54.6621 35.2941 54.584C35.5559 54.502 35.8312 54.4609 36.1203 54.4609ZM45.3344 61H44.3559V51.8828H45.3344V61ZM55.0215 53.582L55.1035 53.7109C55.0605 53.9922 54.9941 54.2617 54.9043 54.5195C54.8184 54.7773 54.6992 55.0098 54.5469 55.2168C54.3945 55.4238 54.1992 55.5957 53.9609 55.7324C53.7266 55.8691 53.4375 55.957 53.0938 55.9961V61H52.2969L52.1562 60.0977H52.1035C51.9707 60.3203 51.8008 60.5078 51.5938 60.6602C51.3867 60.8125 51.1523 60.9258 50.8906 61C50.6289 61.0781 50.3516 61.1172 50.0586 61.1172C49.543 61.1172 49.1113 61.0352 48.7637 60.8711C48.416 60.707 48.1543 60.4531 47.9785 60.1094C47.8066 59.7656 47.7207 59.3242 47.7207 58.7852V54.5898H48.7051V58.7148C48.7051 59.25 48.8262 59.6504 49.0684 59.916C49.3105 60.1777 49.6797 60.3086 50.1758 60.3086C50.8867 60.3086 51.3867 60.1074 51.6758 59.7051C51.9688 59.3027 52.1152 58.7207 52.1152 57.959V54.5898H53.0938V55.3047C53.3438 55.2578 53.5332 55.1582 53.6621 55.0059C53.791 54.8535 53.8789 54.6562 53.9258 54.4141C53.9727 54.1719 53.9961 53.8945 53.9961 53.582H55.0215ZM61.6852 57.7773C61.6852 58.4805 61.5641 59.082 61.3219 59.582C61.0836 60.0781 60.7418 60.459 60.2965 60.7246C59.8551 60.9863 59.3277 61.1172 58.7145 61.1172C58.1441 61.1172 57.6383 60.9863 57.1969 60.7246C56.7555 60.459 56.4098 60.0781 56.1598 59.582C55.9137 59.082 55.7906 58.4805 55.7906 57.7773C55.7906 56.7227 56.0543 55.9062 56.5816 55.3281C57.1129 54.75 57.8375 54.4609 58.7555 54.4609C59.1813 54.4609 59.5699 54.5332 59.9215 54.6777C60.277 54.8223 60.5816 55.0273 60.8355 55.293C61.066 55.2188 61.2398 55.1035 61.357 54.9473C61.4742 54.7871 61.5523 54.5918 61.5914 54.3613C61.6305 54.1309 61.65 53.875 61.65 53.5938H62.6813L62.7633 53.7168C62.7008 54.084 62.609 54.4102 62.4879 54.6953C62.3668 54.9805 62.2066 55.2227 62.0074 55.4219C61.8121 55.6211 61.566 55.7773 61.2691 55.8906C61.402 56.1445 61.5035 56.4297 61.5738 56.7461C61.648 57.0625 61.6852 57.4062 61.6852 57.7773ZM56.7984 57.7773C56.7984 58.3242 56.8648 58.7871 56.9977 59.166C57.1344 59.541 57.3453 59.8262 57.6305 60.0215C57.9195 60.2129 58.2887 60.3086 58.7379 60.3086C59.191 60.3086 59.5602 60.2109 59.8453 60.0156C60.1305 59.8203 60.3395 59.5352 60.4723 59.1602C60.609 58.7812 60.6773 58.3203 60.6773 57.7773C60.6773 57.2383 60.609 56.7832 60.4723 56.4121C60.3395 56.041 60.1305 55.7598 59.8453 55.5684C59.5602 55.377 59.1891 55.2812 58.732 55.2812C58.0602 55.2812 57.5699 55.4941 57.2613 55.9199C56.9527 56.3418 56.7984 56.9609 56.7984 57.7773ZM58.7145 63.0566C58.5504 63.0566 58.4117 63.0039 58.2984 62.8984C58.1852 62.793 58.1285 62.6328 58.1285 62.418C58.1285 62.1992 58.1852 62.0371 58.2984 61.9316C58.4117 61.8301 58.5504 61.7793 58.7145 61.7793C58.8824 61.7793 59.023 61.8301 59.1363 61.9316C59.2496 62.0371 59.3063 62.1992 59.3063 62.418C59.3063 62.6328 59.2496 62.793 59.1363 62.8984C59.023 63.0039 58.8824 63.0566 58.7145 63.0566ZM66.925 54.4609C67.6867 54.4609 68.2629 54.6484 68.6535 55.0234C69.0441 55.3945 69.2395 55.9922 69.2395 56.8164V61H68.2785V56.8809C68.2785 56.3457 68.1555 55.9453 67.9094 55.6797C67.6672 55.4141 67.2941 55.2812 66.7902 55.2812C66.0793 55.2812 65.5793 55.4824 65.2902 55.8848C65.0012 56.2871 64.8566 56.8711 64.8566 57.6367V61H63.884V54.5781H64.6691L64.8156 55.5039H64.8684C65.0051 55.2773 65.1789 55.0879 65.3898 54.9355C65.6008 54.7793 65.8371 54.6621 66.0988 54.584C66.3605 54.502 66.6359 54.4609 66.925 54.4609ZM73.4363 63.8828C72.5926 63.8828 71.9422 63.7246 71.4852 63.4082C71.0281 63.0957 70.7996 62.6562 70.7996 62.0898C70.7996 61.6875 70.9266 61.3438 71.1805 61.0586C71.4383 60.7734 71.7937 60.584 72.2469 60.4902C72.0789 60.4121 71.9344 60.2949 71.8133 60.1387C71.6961 59.9824 71.6375 59.8027 71.6375 59.5996C71.6375 59.3652 71.702 59.1602 71.8309 58.9844C71.9637 58.8047 72.1648 58.6328 72.4344 58.4688C72.0984 58.332 71.825 58.1016 71.6141 57.7773C71.407 57.4492 71.3035 57.0684 71.3035 56.6348C71.3035 56.1738 71.3992 55.7812 71.5906 55.457C71.782 55.1289 72.0594 54.8789 72.4227 54.707C72.7859 54.5352 73.2254 54.4492 73.741 54.4492C73.8543 54.4492 73.9676 54.4551 74.0809 54.4668C74.198 54.4746 74.3094 54.4883 74.4148 54.5078C74.5203 54.5234 74.6121 54.543 74.6902 54.5664H76.8934V55.1934L75.7098 55.3398C75.827 55.4922 75.9246 55.6758 76.0027 55.8906C76.0809 56.1055 76.1199 56.3438 76.1199 56.6055C76.1199 57.2461 75.9031 57.7559 75.4695 58.1348C75.0359 58.5098 74.4402 58.6973 73.6824 58.6973C73.5027 58.6973 73.3191 58.6816 73.1316 58.6504C72.9402 58.7559 72.7937 58.873 72.6922 59.002C72.5945 59.1309 72.5457 59.2793 72.5457 59.4473C72.5457 59.5723 72.5828 59.6719 72.657 59.7461C72.7352 59.8203 72.8465 59.875 72.991 59.9102C73.1355 59.9414 73.3094 59.957 73.5125 59.957H74.6434C75.3426 59.957 75.8777 60.1035 76.2488 60.3965C76.6238 60.6895 76.8113 61.1172 76.8113 61.6797C76.8113 62.3906 76.5223 62.9355 75.9441 63.3145C75.366 63.6934 74.5301 63.8828 73.4363 63.8828ZM73.4656 63.1211C73.9969 63.1211 74.4363 63.0664 74.784 62.957C75.1355 62.8516 75.3973 62.6973 75.5691 62.4941C75.7449 62.2949 75.8328 62.0566 75.8328 61.7793C75.8328 61.5215 75.7742 61.3262 75.657 61.1934C75.5398 61.0645 75.368 60.9785 75.1414 60.9355C74.9148 60.8887 74.6375 60.8652 74.3094 60.8652H73.1961C72.907 60.8652 72.6551 60.9102 72.4402 61C72.2254 61.0898 72.0594 61.2227 71.9422 61.3984C71.8289 61.5742 71.7723 61.793 71.7723 62.0547C71.7723 62.4023 71.9187 62.666 72.2117 62.8457C72.5047 63.0293 72.9227 63.1211 73.4656 63.1211ZM73.7176 57.9883C74.1824 57.9883 74.532 57.8711 74.7664 57.6367C75.0008 57.4023 75.118 57.0605 75.118 56.6113C75.118 56.1309 74.9988 55.7715 74.7605 55.5332C74.5223 55.291 74.1707 55.1699 73.7059 55.1699C73.2605 55.1699 72.9168 55.2949 72.6746 55.5449C72.4363 55.791 72.3172 56.1523 72.3172 56.6289C72.3172 57.0664 72.4383 57.4023 72.6805 57.6367C72.9227 57.8711 73.2684 57.9883 73.7176 57.9883ZM83.0488 51.8828V54.6074C83.0488 54.7637 83.0449 54.9219 83.0371 55.082C83.0293 55.2383 83.0156 55.3828 82.9961 55.5156H83.0605C83.1934 55.2891 83.3613 55.0996 83.5645 54.9473C83.7715 54.791 84.0059 54.6738 84.2676 54.5957C84.5293 54.5137 84.8066 54.4727 85.0996 54.4727C85.6152 54.4727 86.0449 54.5547 86.3887 54.7188C86.7363 54.8828 86.9961 55.1367 87.168 55.4805C87.3438 55.8242 87.4316 56.2695 87.4316 56.8164V61H86.4707V56.8809C86.4707 56.3457 86.3477 55.9453 86.1016 55.6797C85.8594 55.4141 85.4863 55.2812 84.9824 55.2812C84.5059 55.2812 84.125 55.373 83.8398 55.5566C83.5586 55.7363 83.3555 56.002 83.2305 56.3535C83.1094 56.7051 83.0488 57.1348 83.0488 57.6426V61H82.0762V51.8828H83.0488ZM90.8082 54.5781V61H89.8355V54.5781H90.8082ZM90.3336 52.1758C90.4938 52.1758 90.6305 52.2285 90.7438 52.334C90.8609 52.4355 90.9195 52.5957 90.9195 52.8145C90.9195 53.0293 90.8609 53.1895 90.7438 53.2949C90.6305 53.4004 90.4938 53.4531 90.3336 53.4531C90.1656 53.4531 90.025 53.4004 89.9117 53.2949C89.8023 53.1895 89.7477 53.0293 89.7477 52.8145C89.7477 52.5957 89.8023 52.4355 89.9117 52.334C90.025 52.2285 90.1656 52.1758 90.3336 52.1758ZM95.7434 54.4609C96.2902 54.4609 96.759 54.582 97.1496 54.8242C97.5402 55.0664 97.8391 55.4062 98.0461 55.8438C98.2531 56.2773 98.3566 56.7852 98.3566 57.3672V57.9707H93.9211C93.9328 58.7246 94.1203 59.2988 94.4836 59.6934C94.8469 60.0879 95.3586 60.2852 96.0188 60.2852C96.425 60.2852 96.7844 60.248 97.0969 60.1738C97.4094 60.0996 97.7336 59.9902 98.0695 59.8457V60.7012C97.7453 60.8457 97.423 60.9512 97.1027 61.0176C96.7863 61.084 96.4113 61.1172 95.9777 61.1172C95.3605 61.1172 94.8215 60.9922 94.3605 60.7422C93.9035 60.4883 93.548 60.1172 93.2941 59.6289C93.0402 59.1406 92.9133 58.543 92.9133 57.8359C92.9133 57.1445 93.0285 56.5469 93.259 56.043C93.4934 55.5352 93.8215 55.1445 94.2434 54.8711C94.6691 54.5977 95.1691 54.4609 95.7434 54.4609ZM95.7316 55.2578C95.2121 55.2578 94.798 55.4277 94.4895 55.7676C94.1809 56.1074 93.9973 56.582 93.9387 57.1914H97.3371C97.3332 56.8086 97.2727 56.4727 97.1555 56.1836C97.0422 55.8906 96.8684 55.6641 96.634 55.5039C96.3996 55.3398 96.0988 55.2578 95.7316 55.2578ZM96.1652 51.8125C96.2629 51.9883 96.3996 52.1875 96.5754 52.4102C96.7512 52.6289 96.9367 52.8438 97.132 53.0547C97.3273 53.2656 97.5012 53.4473 97.6535 53.5996V53.7285H96.9621C96.7512 53.5918 96.5344 53.4238 96.3117 53.2246C96.0891 53.0254 95.8723 52.8184 95.6613 52.6035C95.4504 52.8184 95.2355 53.0254 95.0168 53.2246C94.802 53.4199 94.5891 53.5879 94.3781 53.7285H93.7102V53.5996C93.8586 53.4434 94.0266 53.2598 94.2141 53.0488C94.4055 52.8379 94.5871 52.623 94.759 52.4043C94.9348 52.1855 95.0734 51.9883 95.175 51.8125H96.1652ZM95.8313 63.0566C95.6672 63.0566 95.5285 63.0039 95.4152 62.8984C95.302 62.793 95.2453 62.6328 95.2453 62.418C95.2453 62.1992 95.302 62.0371 95.4152 61.9316C95.5285 61.8301 95.6672 61.7793 95.8313 61.7793C95.9992 61.7793 96.1398 61.8301 96.2531 61.9316C96.3664 62.0371 96.423 62.1992 96.423 62.418C96.423 62.6328 96.3664 62.793 96.2531 62.8984C96.1398 63.0039 95.9992 63.0566 95.8313 63.0566ZM103.45 54.4609C104.212 54.4609 104.788 54.6484 105.179 55.0234C105.569 55.3945 105.764 55.9922 105.764 56.8164V61H104.804V56.8809C104.804 56.3457 104.68 55.9453 104.434 55.6797C104.192 55.4141 103.819 55.2812 103.315 55.2812C102.604 55.2812 102.104 55.4824 101.815 55.8848C101.526 56.2871 101.382 56.8711 101.382 57.6367V61H100.409V54.5781H101.194L101.341 55.5039H101.393C101.53 55.2773 101.704 55.0879 101.915 54.9355C102.126 54.7793 102.362 54.6621 102.624 54.584C102.886 54.502 103.161 54.4609 103.45 54.4609ZM113.76 60.3203C113.92 60.3203 114.084 60.3066 114.252 60.2793C114.42 60.252 114.557 60.2188 114.662 60.1797V60.9355C114.549 60.9863 114.391 61.0293 114.188 61.0645C113.988 61.0996 113.793 61.1172 113.602 61.1172C113.262 61.1172 112.953 61.0586 112.676 60.9414C112.398 60.8203 112.176 60.6172 112.008 60.332C111.844 60.0469 111.762 59.6523 111.762 59.1484V55.3398H110.848V54.8652L111.768 54.4844L112.154 53.0898H112.74V54.5781H114.621V55.3398H112.74V59.1191C112.74 59.5215 112.832 59.8223 113.016 60.0215C113.203 60.2207 113.451 60.3203 113.76 60.3203ZM118.765 54.4727C119.531 54.4727 120.099 54.6445 120.47 54.9883C120.841 55.332 121.027 55.8809 121.027 56.6348V61H120.318L120.13 60.0508H120.084C119.904 60.2852 119.716 60.4824 119.521 60.6426C119.326 60.7988 119.099 60.918 118.841 61C118.588 61.0781 118.275 61.1172 117.904 61.1172C117.513 61.1172 117.166 61.0488 116.861 60.9121C116.56 60.7754 116.322 60.5684 116.146 60.291C115.974 60.0137 115.888 59.6621 115.888 59.2363C115.888 58.5957 116.142 58.1035 116.65 57.7598C117.158 57.416 117.931 57.2285 118.97 57.1973L120.078 57.1504V56.7578C120.078 56.2031 119.959 55.8145 119.72 55.5918C119.482 55.3691 119.146 55.2578 118.713 55.2578C118.377 55.2578 118.056 55.3066 117.752 55.4043C117.447 55.502 117.158 55.6172 116.884 55.75L116.586 55.0117C116.875 54.8633 117.207 54.7363 117.582 54.6309C117.957 54.5254 118.351 54.4727 118.765 54.4727ZM120.066 57.8359L119.088 57.877C118.287 57.9082 117.722 58.0391 117.394 58.2695C117.066 58.5 116.902 58.8262 116.902 59.248C116.902 59.6152 117.013 59.8867 117.236 60.0625C117.459 60.2383 117.754 60.3262 118.121 60.3262C118.691 60.3262 119.158 60.168 119.521 59.8516C119.884 59.5352 120.066 59.0605 120.066 58.4277V57.8359ZM118.666 63.0566C118.502 63.0566 118.363 63.0039 118.25 62.8984C118.136 62.793 118.08 62.6328 118.08 62.418C118.08 62.1992 118.136 62.0371 118.25 61.9316C118.363 61.8301 118.502 61.7793 118.666 61.7793C118.834 61.7793 118.974 61.8301 119.088 61.9316C119.201 62.0371 119.257 62.1992 119.257 62.418C119.257 62.6328 119.201 62.793 119.088 62.8984C118.974 63.0039 118.834 63.0566 118.666 63.0566ZM124.404 54.5781V61H123.431V54.5781H124.404ZM123.929 52.1758C124.089 52.1758 124.226 52.2285 124.339 52.334C124.456 52.4355 124.515 52.5957 124.515 52.8145C124.515 53.0293 124.456 53.1895 124.339 53.2949C124.226 53.4004 124.089 53.4531 123.929 53.4531C123.761 53.4531 123.62 53.4004 123.507 53.2949C123.398 53.1895 123.343 53.0293 123.343 52.8145C123.343 52.5957 123.398 52.4355 123.507 52.334C123.62 52.2285 123.761 52.1758 123.929 52.1758ZM127.979 59.6055L128.055 59.7402C127.985 60.0254 127.895 60.3301 127.786 60.6543C127.68 60.9785 127.563 61.3027 127.434 61.627C127.309 61.9551 127.182 62.2617 127.054 62.5469H126.327C126.409 62.2344 126.489 61.9043 126.567 61.5566C126.645 61.2129 126.716 60.873 126.778 60.5371C126.845 60.1973 126.897 59.8867 126.936 59.6055H127.979ZM138.043 59.2422C138.043 59.6523 137.939 59.998 137.732 60.2793C137.529 60.5566 137.236 60.7656 136.854 60.9062C136.475 61.0469 136.021 61.1172 135.494 61.1172C135.045 61.1172 134.656 61.082 134.328 61.0117C134 60.9414 133.713 60.8418 133.467 60.7129V59.8164C133.729 59.9453 134.041 60.0625 134.404 60.168C134.768 60.2734 135.139 60.3262 135.518 60.3262C136.072 60.3262 136.475 60.2363 136.725 60.0566C136.975 59.877 137.1 59.6328 137.1 59.3242C137.1 59.1484 137.049 58.9941 136.947 58.8613C136.85 58.7246 136.684 58.5938 136.449 58.4688C136.215 58.3398 135.891 58.1992 135.477 58.0469C135.066 57.8906 134.711 57.7363 134.41 57.584C134.113 57.4277 133.883 57.2383 133.719 57.0156C133.559 56.793 133.479 56.5039 133.479 56.1484C133.479 55.6055 133.697 55.1895 134.135 54.9004C134.576 54.6074 135.154 54.4609 135.869 54.4609C136.256 54.4609 136.617 54.5 136.953 54.5781C137.293 54.6523 137.609 54.7539 137.902 54.8828L137.574 55.6621C137.309 55.5488 137.025 55.4531 136.725 55.375C136.424 55.2969 136.117 55.2578 135.805 55.2578C135.355 55.2578 135.01 55.332 134.768 55.4805C134.529 55.6289 134.41 55.832 134.41 56.0898C134.41 56.2891 134.465 56.4531 134.574 56.582C134.688 56.7109 134.867 56.832 135.113 56.9453C135.359 57.0586 135.684 57.1914 136.086 57.3438C136.488 57.4922 136.836 57.6465 137.129 57.8066C137.422 57.9629 137.646 58.1543 137.803 58.3809C137.963 58.6035 138.043 58.8906 138.043 59.2422ZM142.41 54.4727C143.175 54.4727 143.744 54.6445 144.115 54.9883C144.486 55.332 144.671 55.8809 144.671 56.6348V61H143.962L143.775 60.0508H143.728C143.548 60.2852 143.361 60.4824 143.166 60.6426C142.97 60.7988 142.744 60.918 142.486 61C142.232 61.0781 141.92 61.1172 141.548 61.1172C141.158 61.1172 140.81 61.0488 140.505 60.9121C140.205 60.7754 139.966 60.5684 139.791 60.291C139.619 60.0137 139.533 59.6621 139.533 59.2363C139.533 58.5957 139.787 58.1035 140.295 57.7598C140.802 57.416 141.576 57.2285 142.615 57.1973L143.722 57.1504V56.7578C143.722 56.2031 143.603 55.8145 143.365 55.5918C143.127 55.3691 142.791 55.2578 142.357 55.2578C142.021 55.2578 141.701 55.3066 141.396 55.4043C141.091 55.502 140.802 55.6172 140.529 55.75L140.23 55.0117C140.519 54.8633 140.851 54.7363 141.226 54.6309C141.601 54.5254 141.996 54.4727 142.41 54.4727ZM143.711 57.8359L142.732 57.877C141.931 57.9082 141.367 58.0391 141.039 58.2695C140.711 58.5 140.546 58.8262 140.546 59.248C140.546 59.6152 140.658 59.8867 140.88 60.0625C141.103 60.2383 141.398 60.3262 141.765 60.3262C142.336 60.3262 142.802 60.168 143.166 59.8516C143.529 59.5352 143.711 59.0605 143.711 58.4277V57.8359ZM143.587 52.2227C143.587 52.5234 143.496 52.7578 143.312 52.9258C143.129 53.0898 142.894 53.2051 142.609 53.2715L142.556 53.9219H141.947L141.871 52.9082C142.171 52.8574 142.406 52.7852 142.574 52.6914C142.746 52.5938 142.832 52.4492 142.832 52.2578C142.832 52.0664 142.755 51.9355 142.603 51.8652C142.455 51.7949 142.265 51.7598 142.035 51.7598C141.925 51.7598 141.816 51.7656 141.707 51.7773C141.601 51.7852 141.513 51.7969 141.443 51.8125V51.2266C141.521 51.2031 141.615 51.1855 141.724 51.1738C141.834 51.1582 141.964 51.1504 142.117 51.1504C142.589 51.1504 142.953 51.2402 143.207 51.4199C143.461 51.5957 143.587 51.8633 143.587 52.2227ZM150.116 54.4609C150.878 54.4609 151.454 54.6484 151.845 55.0234C152.236 55.3945 152.431 55.9922 152.431 56.8164V61H151.47V56.8809C151.47 56.3457 151.347 55.9453 151.101 55.6797C150.859 55.4141 150.486 55.2812 149.982 55.2812C149.271 55.2812 148.771 55.4824 148.482 55.8848C148.193 56.2871 148.048 56.8711 148.048 57.6367V61H147.075V54.5781H147.861L148.007 55.5039H148.06C148.196 55.2773 148.37 55.0879 148.581 54.9355C148.792 54.7793 149.029 54.6621 149.29 54.584C149.552 54.502 149.827 54.4609 150.116 54.4609ZM159.33 61H158.352V51.8828H159.33V61ZM169.018 53.582L169.1 53.7109C169.057 53.9922 168.99 54.2617 168.9 54.5195C168.814 54.7773 168.695 55.0098 168.543 55.2168C168.391 55.4238 168.195 55.5957 167.957 55.7324C167.723 55.8691 167.434 55.957 167.09 55.9961V61H166.293L166.152 60.0977H166.1C165.967 60.3203 165.797 60.5078 165.59 60.6602C165.383 60.8125 165.148 60.9258 164.887 61C164.625 61.0781 164.348 61.1172 164.055 61.1172C163.539 61.1172 163.107 61.0352 162.76 60.8711C162.412 60.707 162.15 60.4531 161.975 60.1094C161.803 59.7656 161.717 59.3242 161.717 58.7852V54.5898H162.701V58.7148C162.701 59.25 162.822 59.6504 163.064 59.916C163.307 60.1777 163.676 60.3086 164.172 60.3086C164.883 60.3086 165.383 60.1074 165.672 59.7051C165.965 59.3027 166.111 58.7207 166.111 57.959V54.5898H167.09V55.3047C167.34 55.2578 167.529 55.1582 167.658 55.0059C167.787 54.8535 167.875 54.6562 167.922 54.4141C167.969 54.1719 167.992 53.8945 167.992 53.582H169.018ZM175.681 57.7773C175.681 58.4805 175.56 59.082 175.318 59.582C175.08 60.0781 174.738 60.459 174.293 60.7246C173.851 60.9863 173.324 61.1172 172.711 61.1172C172.14 61.1172 171.634 60.9863 171.193 60.7246C170.752 60.459 170.406 60.0781 170.156 59.582C169.91 59.082 169.787 58.4805 169.787 57.7773C169.787 56.7227 170.05 55.9062 170.578 55.3281C171.109 54.75 171.834 54.4609 172.752 54.4609C173.177 54.4609 173.566 54.5332 173.918 54.6777C174.273 54.8223 174.578 55.0273 174.832 55.293C175.062 55.2188 175.236 55.1035 175.353 54.9473C175.47 54.7871 175.548 54.5918 175.587 54.3613C175.627 54.1309 175.646 53.875 175.646 53.5938H176.677L176.759 53.7168C176.697 54.084 176.605 54.4102 176.484 54.6953C176.363 54.9805 176.203 55.2227 176.004 55.4219C175.808 55.6211 175.562 55.7773 175.265 55.8906C175.398 56.1445 175.5 56.4297 175.57 56.7461C175.644 57.0625 175.681 57.4062 175.681 57.7773ZM170.795 57.7773C170.795 58.3242 170.861 58.7871 170.994 59.166C171.13 59.541 171.341 59.8262 171.627 60.0215C171.916 60.2129 172.285 60.3086 172.734 60.3086C173.187 60.3086 173.556 60.2109 173.841 60.0156C174.127 59.8203 174.336 59.5352 174.468 59.1602C174.605 58.7812 174.673 58.3203 174.673 57.7773C174.673 57.2383 174.605 56.7832 174.468 56.4121C174.336 56.041 174.127 55.7598 173.841 55.5684C173.556 55.377 173.185 55.2812 172.728 55.2812C172.056 55.2812 171.566 55.4941 171.257 55.9199C170.949 56.3418 170.795 56.9609 170.795 57.7773ZM172.711 63.0566C172.546 63.0566 172.408 63.0039 172.295 62.8984C172.181 62.793 172.125 62.6328 172.125 62.418C172.125 62.1992 172.181 62.0371 172.295 61.9316C172.408 61.8301 172.546 61.7793 172.711 61.7793C172.879 61.7793 173.019 61.8301 173.132 61.9316C173.246 62.0371 173.302 62.1992 173.302 62.418C173.302 62.6328 173.246 62.793 173.132 62.8984C173.019 63.0039 172.879 63.0566 172.711 63.0566ZM180.921 54.4609C181.683 54.4609 182.259 54.6484 182.65 55.0234C183.04 55.3945 183.236 55.9922 183.236 56.8164V61H182.275V56.8809C182.275 56.3457 182.152 55.9453 181.905 55.6797C181.663 55.4141 181.29 55.2812 180.786 55.2812C180.075 55.2812 179.575 55.4824 179.286 55.8848C178.997 56.2871 178.853 56.8711 178.853 57.6367V61H177.88V54.5781H178.665L178.812 55.5039H178.864C179.001 55.2773 179.175 55.0879 179.386 54.9355C179.597 54.7793 179.833 54.6621 180.095 54.584C180.357 54.502 180.632 54.4609 180.921 54.4609ZM187.432 63.8828C186.589 63.8828 185.938 63.7246 185.481 63.4082C185.024 63.0957 184.796 62.6562 184.796 62.0898C184.796 61.6875 184.923 61.3438 185.177 61.0586C185.434 60.7734 185.79 60.584 186.243 60.4902C186.075 60.4121 185.93 60.2949 185.809 60.1387C185.692 59.9824 185.634 59.8027 185.634 59.5996C185.634 59.3652 185.698 59.1602 185.827 58.9844C185.96 58.8047 186.161 58.6328 186.43 58.4688C186.095 58.332 185.821 58.1016 185.61 57.7773C185.403 57.4492 185.3 57.0684 185.3 56.6348C185.3 56.1738 185.395 55.7812 185.587 55.457C185.778 55.1289 186.055 54.8789 186.419 54.707C186.782 54.5352 187.221 54.4492 187.737 54.4492C187.85 54.4492 187.964 54.4551 188.077 54.4668C188.194 54.4746 188.305 54.4883 188.411 54.5078C188.516 54.5234 188.608 54.543 188.686 54.5664H190.889V55.1934L189.706 55.3398C189.823 55.4922 189.921 55.6758 189.999 55.8906C190.077 56.1055 190.116 56.3438 190.116 56.6055C190.116 57.2461 189.899 57.7559 189.466 58.1348C189.032 58.5098 188.436 58.6973 187.679 58.6973C187.499 58.6973 187.315 58.6816 187.128 58.6504C186.936 58.7559 186.79 58.873 186.688 59.002C186.591 59.1309 186.542 59.2793 186.542 59.4473C186.542 59.5723 186.579 59.6719 186.653 59.7461C186.731 59.8203 186.843 59.875 186.987 59.9102C187.132 59.9414 187.305 59.957 187.509 59.957H188.639C189.339 59.957 189.874 60.1035 190.245 60.3965C190.62 60.6895 190.807 61.1172 190.807 61.6797C190.807 62.3906 190.518 62.9355 189.94 63.3145C189.362 63.6934 188.526 63.8828 187.432 63.8828ZM187.462 63.1211C187.993 63.1211 188.432 63.0664 188.78 62.957C189.132 62.8516 189.393 62.6973 189.565 62.4941C189.741 62.2949 189.829 62.0566 189.829 61.7793C189.829 61.5215 189.77 61.3262 189.653 61.1934C189.536 61.0645 189.364 60.9785 189.137 60.9355C188.911 60.8887 188.634 60.8652 188.305 60.8652H187.192C186.903 60.8652 186.651 60.9102 186.436 61C186.221 61.0898 186.055 61.2227 185.938 61.3984C185.825 61.5742 185.768 61.793 185.768 62.0547C185.768 62.4023 185.915 62.666 186.208 62.8457C186.501 63.0293 186.919 63.1211 187.462 63.1211ZM187.714 57.9883C188.179 57.9883 188.528 57.8711 188.762 57.6367C188.997 57.4023 189.114 57.0605 189.114 56.6113C189.114 56.1309 188.995 55.7715 188.757 55.5332C188.518 55.291 188.167 55.1699 187.702 55.1699C187.257 55.1699 186.913 55.2949 186.671 55.5449C186.432 55.791 186.313 56.1523 186.313 56.6289C186.313 57.0664 186.434 57.4023 186.677 57.6367C186.919 57.8711 187.264 57.9883 187.714 57.9883ZM198.357 61.1172C197.545 61.1172 196.9 60.8398 196.424 60.2852C195.951 59.7305 195.715 58.9062 195.715 57.8125C195.715 56.707 195.957 55.873 196.441 55.3105C196.926 54.7441 197.57 54.4609 198.375 54.4609C198.715 54.4609 199.012 54.5059 199.266 54.5957C199.52 54.6855 199.738 54.8066 199.922 54.959C200.105 55.1074 200.26 55.2773 200.385 55.4688H200.455C200.439 55.3477 200.424 55.1816 200.408 54.9707C200.393 54.7598 200.385 54.5879 200.385 54.4551V51.8828H201.357V61H200.572L200.426 60.0859H200.385C200.264 60.2773 200.109 60.4512 199.922 60.6074C199.738 60.7637 199.518 60.8887 199.26 60.9824C199.006 61.0723 198.705 61.1172 198.357 61.1172ZM198.51 60.3086C199.197 60.3086 199.684 60.1133 199.969 59.7227C200.254 59.332 200.396 58.752 200.396 57.9824V57.8066C200.396 56.9902 200.26 56.3633 199.986 55.9258C199.717 55.4883 199.225 55.2695 198.51 55.2695C197.912 55.2695 197.465 55.5 197.168 55.9609C196.871 56.418 196.723 57.043 196.723 57.8359C196.723 58.625 196.869 59.2344 197.162 59.6641C197.459 60.0938 197.908 60.3086 198.51 60.3086ZM211.05 53.582L211.132 53.7109C211.089 53.9922 211.023 54.2617 210.933 54.5195C210.847 54.7773 210.728 55.0098 210.576 55.2168C210.423 55.4238 210.228 55.5957 209.99 55.7324C209.755 55.8691 209.466 55.957 209.123 55.9961V61H208.326L208.185 60.0977H208.132C208 60.3203 207.83 60.5078 207.623 60.6602C207.416 60.8125 207.181 60.9258 206.92 61C206.658 61.0781 206.38 61.1172 206.087 61.1172C205.572 61.1172 205.14 61.0352 204.793 60.8711C204.445 60.707 204.183 60.4531 204.007 60.1094C203.836 59.7656 203.75 59.3242 203.75 58.7852V54.5898H204.734V58.7148C204.734 59.25 204.855 59.6504 205.097 59.916C205.339 60.1777 205.709 60.3086 206.205 60.3086C206.916 60.3086 207.416 60.1074 207.705 59.7051C207.998 59.3027 208.144 58.7207 208.144 57.959V54.5898H209.123V55.3047C209.373 55.2578 209.562 55.1582 209.691 55.0059C209.82 54.8535 209.908 54.6562 209.955 54.4141C210.002 54.1719 210.025 53.8945 210.025 53.582H211.05ZM206.293 63.0566C206.129 63.0566 205.99 63.0039 205.877 62.8984C205.763 62.793 205.707 62.6328 205.707 62.418C205.707 62.1992 205.763 62.0371 205.877 61.9316C205.99 61.8301 206.129 61.7793 206.293 61.7793C206.461 61.7793 206.601 61.8301 206.714 61.9316C206.828 62.0371 206.884 62.1992 206.884 62.418C206.884 62.6328 206.828 62.793 206.714 62.8984C206.601 63.0039 206.461 63.0566 206.293 63.0566ZM216.661 51.8828V56.6172C216.661 56.7734 216.655 56.9648 216.643 57.1914C216.632 57.4141 216.622 57.6113 216.614 57.7832H216.655C216.737 57.6816 216.856 57.5312 217.012 57.332C217.173 57.1328 217.307 56.9727 217.417 56.8516L219.55 54.5781H220.692L218.108 57.3203L220.88 61H219.708L217.44 57.959L216.661 58.6738V61H215.694V51.8828H216.661ZM223.371 54.5781V61H222.399V54.5781H223.371ZM222.897 52.1758C223.057 52.1758 223.194 52.2285 223.307 52.334C223.424 52.4355 223.483 52.5957 223.483 52.8145C223.483 53.0293 223.424 53.1895 223.307 53.2949C223.194 53.4004 223.057 53.4531 222.897 53.4531C222.729 53.4531 222.588 53.4004 222.475 53.2949C222.366 53.1895 222.311 53.0293 222.311 52.8145C222.311 52.5957 222.366 52.4355 222.475 52.334C222.588 52.2285 222.729 52.1758 222.897 52.1758ZM228.307 54.4609C228.854 54.4609 229.322 54.582 229.713 54.8242C230.104 55.0664 230.402 55.4062 230.609 55.8438C230.816 56.2773 230.92 56.7852 230.92 57.3672V57.9707H226.484C226.496 58.7246 226.684 59.2988 227.047 59.6934C227.41 60.0879 227.922 60.2852 228.582 60.2852C228.988 60.2852 229.348 60.248 229.66 60.1738C229.973 60.0996 230.297 59.9902 230.633 59.8457V60.7012C230.309 60.8457 229.986 60.9512 229.666 61.0176C229.35 61.084 228.975 61.1172 228.541 61.1172C227.924 61.1172 227.385 60.9922 226.924 60.7422C226.467 60.4883 226.111 60.1172 225.857 59.6289C225.604 59.1406 225.477 58.543 225.477 57.8359C225.477 57.1445 225.592 56.5469 225.822 56.043C226.057 55.5352 226.385 55.1445 226.807 54.8711C227.232 54.5977 227.732 54.4609 228.307 54.4609ZM228.295 55.2578C227.775 55.2578 227.361 55.4277 227.053 55.7676C226.744 56.1074 226.561 56.582 226.502 57.1914H229.9C229.896 56.8086 229.836 56.4727 229.719 56.1836C229.605 55.8906 229.432 55.6641 229.197 55.5039C228.963 55.3398 228.662 55.2578 228.295 55.2578ZM230.047 53.7285H229.496C229.297 53.5918 229.09 53.4395 228.875 53.2715C228.664 53.1035 228.459 52.9238 228.26 52.7324C228.053 52.9238 227.844 53.1035 227.633 53.2715C227.426 53.4395 227.223 53.5918 227.023 53.7285H226.467V53.5879C226.604 53.4395 226.748 53.2812 226.9 53.1133C227.053 52.9453 227.203 52.7715 227.352 52.5918C227.5 52.4121 227.635 52.2344 227.756 52.0586H228.764C228.885 52.2344 229.018 52.4121 229.162 52.5918C229.311 52.7715 229.461 52.9453 229.613 53.1133C229.766 53.2812 229.91 53.4395 230.047 53.5879V53.7285ZM229.584 52.4512C229.744 52.2559 229.879 52.0703 229.988 51.8945C230.102 51.7188 230.221 51.5059 230.346 51.2559H231.324V51.3789C231.156 51.6055 230.969 51.8223 230.762 52.0293C230.559 52.2324 230.354 52.418 230.146 52.5859H229.584V52.4512ZM236.013 54.4609C236.775 54.4609 237.351 54.6484 237.742 55.0234C238.132 55.3945 238.328 55.9922 238.328 56.8164V61H237.367V56.8809C237.367 56.3457 237.244 55.9453 236.998 55.6797C236.755 55.4141 236.382 55.2812 235.879 55.2812C235.168 55.2812 234.668 55.4824 234.379 55.8848C234.089 56.2871 233.945 56.8711 233.945 57.6367V61H232.972V54.5781H233.757L233.904 55.5039H233.957C234.093 55.2773 234.267 55.0879 234.478 54.9355C234.689 54.7793 234.925 54.6621 235.187 54.584C235.449 54.502 235.724 54.4609 236.013 54.4609ZM245.227 61H244.249V51.8828H245.227V61ZM250.086 54.4727C250.852 54.4727 251.42 54.6445 251.791 54.9883C252.163 55.332 252.348 55.8809 252.348 56.6348V61H251.639L251.452 60.0508H251.405C251.225 60.2852 251.038 60.4824 250.842 60.6426C250.647 60.7988 250.42 60.918 250.163 61C249.909 61.0781 249.596 61.1172 249.225 61.1172C248.834 61.1172 248.487 61.0488 248.182 60.9121C247.881 60.7754 247.643 60.5684 247.467 60.291C247.295 60.0137 247.209 59.6621 247.209 59.2363C247.209 58.5957 247.463 58.1035 247.971 57.7598C248.479 57.416 249.252 57.2285 250.291 57.1973L251.399 57.1504V56.7578C251.399 56.2031 251.28 55.8145 251.041 55.5918C250.803 55.3691 250.467 55.2578 250.034 55.2578C249.698 55.2578 249.377 55.3066 249.073 55.4043C248.768 55.502 248.479 55.6172 248.205 55.75L247.907 55.0117C248.196 54.8633 248.528 54.7363 248.903 54.6309C249.278 54.5254 249.672 54.4727 250.086 54.4727ZM251.387 57.8359L250.409 57.877C249.608 57.9082 249.043 58.0391 248.715 58.2695C248.387 58.5 248.223 58.8262 248.223 59.248C248.223 59.6152 248.334 59.8867 248.557 60.0625C248.78 60.2383 249.075 60.3262 249.442 60.3262C250.012 60.3262 250.479 60.168 250.842 59.8516C251.205 59.5352 251.387 59.0605 251.387 58.4277V57.8359ZM249.588 51.8066C249.682 51.9863 249.797 52.1875 249.934 52.4102C250.075 52.6289 250.221 52.8438 250.373 53.0547C250.53 53.2617 250.672 53.4395 250.801 53.5879V53.7285H250.139C249.998 53.6152 249.844 53.4805 249.676 53.3242C249.512 53.168 249.348 53.0039 249.184 52.832C249.02 52.6562 248.871 52.4902 248.739 52.334C248.606 52.1738 248.502 52.0371 248.428 51.9238V51.8066H249.588ZM259.242 51.8828V54.1621C259.242 54.4238 259.234 54.6777 259.218 54.9238C259.207 55.1699 259.197 55.3613 259.189 55.498H259.242C259.418 55.209 259.671 54.9648 260.004 54.7656C260.336 54.5664 260.759 54.4668 261.275 54.4668C262.08 54.4668 262.72 54.7461 263.197 55.3047C263.677 55.8594 263.918 56.6855 263.918 57.7832C263.918 58.5059 263.808 59.1152 263.589 59.6113C263.371 60.1074 263.062 60.4824 262.664 60.7363C262.265 60.9902 261.795 61.1172 261.252 61.1172C260.744 61.1172 260.326 61.0234 259.998 60.8359C259.673 60.6445 259.423 60.4121 259.248 60.1387H259.171L258.972 61H258.269V51.8828H259.242ZM261.117 55.2812C260.652 55.2812 260.283 55.373 260.009 55.5566C259.736 55.7363 259.539 56.0098 259.418 56.377C259.3 56.7402 259.242 57.2012 259.242 57.7598V57.8125C259.242 58.6211 259.377 59.2402 259.646 59.6699C259.916 60.0957 260.406 60.3086 261.117 60.3086C261.714 60.3086 262.162 60.0898 262.459 59.6523C262.759 59.2148 262.91 58.5898 262.91 57.7773C262.91 56.9492 262.761 56.3262 262.464 55.9082C262.171 55.4902 261.722 55.2812 261.117 55.2812ZM268.419 54.4727C269.185 54.4727 269.753 54.6445 270.124 54.9883C270.495 55.332 270.681 55.8809 270.681 56.6348V61H269.972L269.784 60.0508H269.737C269.558 60.2852 269.37 60.4824 269.175 60.6426C268.98 60.7988 268.753 60.918 268.495 61C268.241 61.0781 267.929 61.1172 267.558 61.1172C267.167 61.1172 266.82 61.0488 266.515 60.9121C266.214 60.7754 265.976 60.5684 265.8 60.291C265.628 60.0137 265.542 59.6621 265.542 59.2363C265.542 58.5957 265.796 58.1035 266.304 57.7598C266.812 57.416 267.585 57.2285 268.624 57.1973L269.732 57.1504V56.7578C269.732 56.2031 269.612 55.8145 269.374 55.5918C269.136 55.3691 268.8 55.2578 268.366 55.2578C268.03 55.2578 267.71 55.3066 267.405 55.4043C267.101 55.502 266.812 55.6172 266.538 55.75L266.239 55.0117C266.529 54.8633 266.861 54.7363 267.236 54.6309C267.611 54.5254 268.005 54.4727 268.419 54.4727ZM269.72 57.8359L268.741 57.877C267.941 57.9082 267.376 58.0391 267.048 58.2695C266.72 58.5 266.556 58.8262 266.556 59.248C266.556 59.6152 266.667 59.8867 266.89 60.0625C267.112 60.2383 267.407 60.3262 267.775 60.3262C268.345 60.3262 268.812 60.168 269.175 59.8516C269.538 59.5352 269.72 59.0605 269.72 58.4277V57.8359ZM278.622 57.7773C278.622 58.3047 278.554 58.7754 278.417 59.1895C278.28 59.6035 278.083 59.9531 277.825 60.2383C277.567 60.5234 277.255 60.7422 276.888 60.8945C276.524 61.043 276.112 61.1172 275.651 61.1172C275.221 61.1172 274.827 61.043 274.468 60.8945C274.112 60.7422 273.804 60.5234 273.542 60.2383C273.284 59.9531 273.083 59.6035 272.938 59.1895C272.798 58.7754 272.727 58.3047 272.727 57.7773C272.727 57.0742 272.846 56.4766 273.085 55.9844C273.323 55.4883 273.663 55.1113 274.104 54.8535C274.55 54.5918 275.079 54.4609 275.692 54.4609C276.278 54.4609 276.79 54.5918 277.227 54.8535C277.669 55.1152 278.011 55.4941 278.253 55.9902C278.499 56.4824 278.622 57.0781 278.622 57.7773ZM273.735 57.7773C273.735 58.293 273.804 58.7402 273.94 59.1191C274.077 59.498 274.288 59.791 274.573 59.998C274.858 60.2051 275.225 60.3086 275.675 60.3086C276.12 60.3086 276.485 60.2051 276.77 59.998C277.059 59.791 277.272 59.498 277.409 59.1191C277.546 58.7402 277.614 58.293 277.614 57.7773C277.614 57.2656 277.546 56.8242 277.409 56.4531C277.272 56.0781 277.061 55.7891 276.776 55.5859C276.491 55.3828 276.122 55.2812 275.669 55.2812C275.001 55.2812 274.511 55.502 274.198 55.9434C273.889 56.3848 273.735 56.9961 273.735 57.7773ZM287.262 54.4609C288.023 54.4609 288.6 54.6484 288.99 55.0234C289.381 55.3945 289.576 55.9922 289.576 56.8164V61H288.615V56.8809C288.615 56.3457 288.492 55.9453 288.246 55.6797C288.004 55.4141 287.631 55.2812 287.127 55.2812C286.416 55.2812 285.916 55.4824 285.627 55.8848C285.338 56.2871 285.193 56.8711 285.193 57.6367V61H284.221V54.5781H285.006L285.152 55.5039H285.205C285.342 55.2773 285.516 55.0879 285.727 54.9355C285.938 54.7793 286.174 54.6621 286.436 54.584C286.697 54.502 286.973 54.4609 287.262 54.4609ZM292.953 51.8828V54.6074C292.953 54.7637 292.949 54.9219 292.941 55.082C292.933 55.2383 292.92 55.3828 292.9 55.5156H292.964C293.097 55.2891 293.265 55.0996 293.468 54.9473C293.675 54.791 293.91 54.6738 294.171 54.5957C294.433 54.5137 294.711 54.4727 295.004 54.4727C295.519 54.4727 295.949 54.5547 296.293 54.7188C296.64 54.8828 296.9 55.1367 297.072 55.4805C297.248 55.8242 297.336 56.2695 297.336 56.8164V61H296.375V56.8809C296.375 56.3457 296.252 55.9453 296.005 55.6797C295.763 55.4141 295.39 55.2812 294.886 55.2812C294.41 55.2812 294.029 55.373 293.744 55.5566C293.462 55.7363 293.259 56.002 293.134 56.3535C293.013 56.7051 292.953 57.1348 292.953 57.6426V61H291.98V51.8828H292.953ZM300.712 54.5781V61H299.739V54.5781H300.712ZM300.237 52.1758C300.398 52.1758 300.534 52.2285 300.648 52.334C300.765 52.4355 300.823 52.5957 300.823 52.8145C300.823 53.0293 300.765 53.1895 300.648 53.2949C300.534 53.4004 300.398 53.4531 300.237 53.4531C300.07 53.4531 299.929 53.4004 299.816 53.2949C299.706 53.1895 299.652 53.0293 299.652 52.8145C299.652 52.5957 299.706 52.4355 299.816 52.334C299.929 52.2285 300.07 52.1758 300.237 52.1758ZM305.647 54.4609C306.194 54.4609 306.663 54.582 307.054 54.8242C307.444 55.0664 307.743 55.4062 307.95 55.8438C308.157 56.2773 308.261 56.7852 308.261 57.3672V57.9707H303.825C303.837 58.7246 304.024 59.2988 304.388 59.6934C304.751 60.0879 305.263 60.2852 305.923 60.2852C306.329 60.2852 306.688 60.248 307.001 60.1738C307.313 60.0996 307.638 59.9902 307.973 59.8457V60.7012C307.649 60.8457 307.327 60.9512 307.007 61.0176C306.69 61.084 306.315 61.1172 305.882 61.1172C305.264 61.1172 304.725 60.9922 304.264 60.7422C303.807 60.4883 303.452 60.1172 303.198 59.6289C302.944 59.1406 302.817 58.543 302.817 57.8359C302.817 57.1445 302.932 56.5469 303.163 56.043C303.397 55.5352 303.725 55.1445 304.147 54.8711C304.573 54.5977 305.073 54.4609 305.647 54.4609ZM305.636 55.2578C305.116 55.2578 304.702 55.4277 304.393 55.7676C304.085 56.1074 303.901 56.582 303.843 57.1914H307.241C307.237 56.8086 307.177 56.4727 307.059 56.1836C306.946 55.8906 306.772 55.6641 306.538 55.5039C306.304 55.3398 306.003 55.2578 305.636 55.2578ZM306.069 51.8125C306.167 51.9883 306.304 52.1875 306.479 52.4102C306.655 52.6289 306.841 52.8438 307.036 53.0547C307.231 53.2656 307.405 53.4473 307.557 53.5996V53.7285H306.866C306.655 53.5918 306.438 53.4238 306.216 53.2246C305.993 53.0254 305.776 52.8184 305.565 52.6035C305.354 52.8184 305.139 53.0254 304.921 53.2246C304.706 53.4199 304.493 53.5879 304.282 53.7285H303.614V53.5996C303.763 53.4434 303.93 53.2598 304.118 53.0488C304.309 52.8379 304.491 52.623 304.663 52.4043C304.839 52.1855 304.977 51.9883 305.079 51.8125H306.069ZM315.616 54.5781V61H314.819L314.678 60.0977H314.625C314.493 60.3203 314.321 60.5078 314.11 60.6602C313.899 60.8125 313.661 60.9258 313.395 61C313.133 61.0781 312.854 61.1172 312.557 61.1172C312.049 61.1172 311.623 61.0352 311.28 60.8711C310.936 60.707 310.676 60.4531 310.5 60.1094C310.329 59.7656 310.243 59.3242 310.243 58.7852V54.5781H311.227V58.7148C311.227 59.25 311.348 59.6504 311.59 59.916C311.832 60.1777 312.202 60.3086 312.698 60.3086C313.174 60.3086 313.553 60.2188 313.834 60.0391C314.12 59.8594 314.325 59.5957 314.45 59.248C314.575 58.8965 314.637 58.4668 314.637 57.959V54.5781H315.616ZM318.734 58.6211V58.3164C318.734 58.0039 318.764 57.7363 318.822 57.5137C318.881 57.2871 318.982 57.0762 319.127 56.8809C319.275 56.6855 319.48 56.4785 319.742 56.2598C320.047 56.0059 320.287 55.791 320.463 55.6152C320.643 55.4355 320.771 55.2559 320.85 55.0762C320.928 54.8965 320.967 54.6797 320.967 54.4258C320.967 54.0195 320.836 53.709 320.574 53.4941C320.312 53.2754 319.943 53.166 319.467 53.166C319.08 53.166 318.736 53.2148 318.436 53.3125C318.135 53.4102 317.846 53.5273 317.568 53.6641L317.229 52.8789C317.549 52.7109 317.896 52.5742 318.271 52.4688C318.646 52.3633 319.064 52.3105 319.525 52.3105C320.279 52.3105 320.863 52.498 321.277 52.873C321.691 53.2441 321.898 53.7559 321.898 54.4082C321.898 54.7715 321.84 55.082 321.723 55.3398C321.605 55.5938 321.439 55.8281 321.225 56.043C321.01 56.2539 320.756 56.4785 320.463 56.7168C320.205 56.9355 320.008 57.1289 319.871 57.2969C319.734 57.4609 319.641 57.6309 319.59 57.8066C319.539 57.9785 319.514 58.1855 319.514 58.4277V58.6211H318.734ZM318.477 60.3906C318.477 60.1172 318.541 59.9238 318.67 59.8105C318.799 59.6934 318.965 59.6348 319.168 59.6348C319.359 59.6348 319.521 59.6934 319.654 59.8105C319.791 59.9238 319.859 60.1172 319.859 60.3906C319.859 60.6602 319.791 60.8574 319.654 60.9824C319.521 61.1035 319.359 61.1641 319.168 61.1641C318.965 61.1641 318.799 61.1035 318.67 60.9824C318.541 60.8574 318.477 60.6602 318.477 60.3906Z" fill="#A7ABC3"/>
</svg>
