<svg width="20" height="20" viewBox="0 0 20 20" fill="none" xmlns="http://www.w3.org/2000/svg">
<path fill-rule="evenodd" clip-rule="evenodd" d="M10.3601 3.16653C6.38722 3.16653 3.16653 6.38722 3.16653 10.3601C3.16653 14.3127 6.35445 17.5209 10.2993 17.5535C10.6214 17.5562 10.8804 17.8195 10.8777 18.1416C10.8751 18.4637 10.6118 18.7227 10.2897 18.72C5.70487 18.6821 2 14.9538 2 10.3601C2 5.74296 5.74296 2 10.3601 2C14.9538 2 18.6821 5.70487 18.72 10.2897C18.7227 10.6118 18.4637 10.8751 18.1416 10.8777C17.8195 10.8804 17.5562 10.6214 17.5535 10.2993C17.5209 6.35445 14.3127 3.16653 10.3601 3.16653ZM7.05497 10.3601C7.05497 8.53475 8.53475 7.05497 10.3601 7.05497C11.7472 7.05497 12.936 7.90951 13.4262 9.123C13.5468 9.42171 13.8867 9.56605 14.1854 9.44535C14.4841 9.32473 14.6284 8.9848 14.5078 8.68609C13.8456 7.04681 12.2388 5.88844 10.3601 5.88844C7.89049 5.88844 5.88844 7.89049 5.88844 10.3601C5.88844 12.2388 7.04681 13.8456 8.68609 14.5078C8.9848 14.6284 9.32473 14.4841 9.44535 14.1854C9.56605 13.8867 9.42171 13.5468 9.123 13.4262C7.90951 12.936 7.05497 11.7472 7.05497 10.3601ZM10.4047 11.4672L12.4365 17.5626C12.6516 18.2079 13.4545 18.3095 13.8547 17.8674L17.8673 13.8547C18.3095 13.4546 18.2079 12.6516 17.5626 12.4365L11.4672 10.4047C10.8106 10.1858 10.1858 10.8106 10.4047 11.4672Z" fill="#2655A6"/>
</svg>
