<svg width="18" height="14" viewBox="0 0 18 14" fill="none" xmlns="http://www.w3.org/2000/svg">
<path d="M12.1917 5.57499L10.425 3.80833C10.1 3.48333 10.1 2.95833 10.425 2.63333C10.75 2.30833 11.275 2.30833 11.6 2.63333L12.775 3.80833L15.725 0.858328C16.05 0.533328 16.575 0.533328 16.9 0.858328C17.225 1.18333 17.225 1.70833 16.9 2.03333L13.3667 5.56666C13.0417 5.89999 12.5167 5.89999 12.1917 5.57499ZM7.33334 2.83333H1.50001C1.04167 2.83333 0.666672 3.20833 0.666672 3.66666C0.666672 4.12499 1.04167 4.49999 1.50001 4.49999H7.33334C7.79167 4.49999 8.16667 4.12499 8.16667 3.66666C8.16667 3.20833 7.79167 2.83333 7.33334 2.83333ZM15.9083 7.59166C15.5833 7.26666 15.0583 7.26666 14.7333 7.59166L13.1667 9.15833L11.6 7.59166C11.275 7.26666 10.75 7.26666 10.425 7.59166C10.1 7.91666 10.1 8.44166 10.425 8.76666L11.9917 10.3333L10.425 11.9C10.1 12.225 10.1 12.75 10.425 13.075C10.75 13.4 11.275 13.4 11.6 13.075L13.1667 11.5083L14.7333 13.075C15.0583 13.4 15.5833 13.4 15.9083 13.075C16.2333 12.75 16.2333 12.225 15.9083 11.9L14.3417 10.3333L15.9083 8.76666C16.2333 8.44166 16.2333 7.91666 15.9083 7.59166ZM7.33334 9.49999H1.50001C1.04167 9.49999 0.666672 9.87499 0.666672 10.3333C0.666672 10.7917 1.04167 11.1667 1.50001 11.1667H7.33334C7.79167 11.1667 8.16667 10.7917 8.16667 10.3333C8.16667 9.87499 7.79167 9.49999 7.33334 9.49999Z" fill="#2655A6"/>
</svg>
