<svg width="249" height="225" viewBox="0 0 249 225" fill="none" xmlns="http://www.w3.org/2000/svg">
<path d="M248.914 128.162C249.296 127.51 248.333 126.799 247.522 127.131C239.29 130.497 218.673 141.497 215.351 168.167C211.182 201.63 199.036 211.42 186.069 216.126C186.069 216.126 202.01 216.155 214.866 206.342C246.434 182.247 242.112 139.75 248.914 128.162Z" fill="url(#paint0_linear_1901_10739)"/>
<path d="M240.824 137.067C238.937 140.468 237.139 143.901 235.51 147.39C233.856 150.871 232.342 154.395 230.976 157.961C229.626 161.53 228.364 165.125 227.304 168.766C226.222 172.402 225.345 176.082 224.482 179.78C223.592 183.47 222.722 187.194 221.356 190.831C219.996 194.463 218.048 197.994 215.305 201.096C214.62 201.868 213.914 202.634 213.154 203.356C212.411 204.09 211.626 204.796 210.822 205.49C209.205 206.871 207.462 208.164 205.593 209.343C201.848 211.693 197.607 213.567 193.13 214.952C192.659 215.098 192.099 214.908 191.878 214.529C191.662 214.156 191.855 213.738 192.308 213.585L192.311 213.584C193.385 213.222 194.452 212.851 195.49 212.443C196.015 212.245 196.525 212.029 197.04 211.821C197.544 211.598 198.061 211.39 198.553 211.154C200.549 210.237 202.449 209.207 204.233 208.066C207.812 205.802 210.939 203.082 213.566 200.123C214.857 198.629 215.998 197.056 216.975 195.412C217.949 193.767 218.759 192.051 219.439 190.29C220.802 186.767 221.701 183.09 222.626 179.407C223.557 175.724 224.526 172.029 225.69 168.383C226.267 166.559 226.884 164.745 227.545 162.943C227.868 162.04 228.214 161.143 228.559 160.247C228.914 159.353 229.276 158.461 229.647 157.572C231.141 154.02 232.775 150.513 234.554 147.059C236.354 143.613 238.274 140.211 240.363 136.883C240.423 136.788 240.574 136.754 240.7 136.808C240.822 136.857 240.876 136.973 240.824 137.067Z" fill="#BDD0FB"/>
<path d="M171.091 125.22L208.558 52.8665H200.882C199.466 52.8665 198.688 51.2079 199.585 50.1043L239.518 1.04546C241.248 -1.08093 244.667 0.267704 244.507 3.01326L241.7 50.9866C241.539 53.7329 239.123 55.78 236.411 55.4671L231.059 54.8494L193.884 136.001C192.917 138.113 190.819 139.466 188.51 139.466H175.626L171.091 125.22Z" fill="url(#paint1_linear_1901_10739)"/>
<g opacity="0.78">
<path opacity="0.78" d="M205.417 45.6428C205.335 45.6428 205.253 45.6154 205.184 45.5599C205.028 45.4316 205.006 45.201 205.134 45.0453L239.641 3.07118C240.045 2.58031 240.68 2.42894 241.259 2.68627C241.835 2.94143 242.158 3.53322 242.065 4.15888L241.297 9.31121C241.268 9.51088 241.081 9.64927 240.882 9.619C240.682 9.58944 240.545 9.40347 240.574 9.20381L241.342 4.05148C241.396 3.68603 241.182 3.45249 240.963 3.35518C240.747 3.25931 240.436 3.25715 240.207 3.5361L205.699 45.5102C205.627 45.5974 205.523 45.6428 205.417 45.6428Z" fill="white"/>
</g>
<path d="M137.442 74.4754L163.893 133.703C165.46 137.211 168.922 139.467 172.738 139.467H186.375C188.183 139.467 189.85 138.477 190.729 136.883L191.214 136.001C189.749 136.001 188.407 135.173 187.742 133.858L152.498 64.2529L137.442 74.4754Z" fill="url(#paint2_linear_1901_10739)"/>
<path d="M156.058 71.2823C153.405 69.171 149.53 69.7916 147.657 72.628L108.767 131.525C105.652 136.242 100.403 139.076 94.7813 139.076H89.309L84.8555 126.144C84.8555 126.144 121.01 70.2645 130.329 61.8116C130.329 61.8116 139.609 53.381 148.759 59.7551C151.176 61.4389 153.011 63.8428 154.133 66.5804L156.058 71.2823Z" fill="url(#paint3_linear_1901_10739)"/>
<path d="M42.5565 91.3656C42.5565 91.3656 49.0663 83.1635 61.6815 81.8877C61.6815 81.8877 67.6729 83.9456 79.6096 105.505C91.5463 127.064 99.4693 136.896 108.766 131.526L107.996 132.814C105.46 137.06 100.902 139.655 95.9855 139.655H90.8434C85.1821 139.655 79.867 136.912 76.5613 132.279C67.2713 119.262 48.2632 93.386 42.5565 91.3656Z" fill="url(#paint4_linear_1901_10739)"/>
<g opacity="0.78">
<path opacity="0.78" d="M239.794 17.2916C239.776 17.2916 239.758 17.2902 239.74 17.2873C239.54 17.2577 239.403 17.0718 239.432 16.8721L239.78 14.5403C239.809 14.3406 239.998 14.203 240.195 14.2325C240.395 14.2621 240.532 14.448 240.503 14.6477L240.155 16.9795C240.128 17.1611 239.972 17.2916 239.794 17.2916Z" fill="white"/>
</g>
<g opacity="0.78">
<path opacity="0.78" d="M130.245 93.0191C130.176 93.0191 130.105 92.9989 130.042 92.9571C129.874 92.8447 129.829 92.6176 129.941 92.4496L146.995 66.9698C147.605 66.058 148.622 65.5628 149.708 65.6457C150.799 65.7279 151.729 66.3715 152.196 67.367C152.282 67.5501 152.203 67.7678 152.021 67.8535C151.838 67.9393 151.62 67.8607 151.534 67.6777C151.18 66.9244 150.477 66.4371 149.653 66.3744C148.832 66.3132 148.065 66.6873 147.603 67.3764L130.55 92.8562C130.479 92.9621 130.364 93.0191 130.245 93.0191Z" fill="white"/>
</g>
<path d="M34.7068 206.109C37.5435 177.506 44.6407 106.465 46.1906 96.0819C48.1381 83.0308 64.1343 85.9119 64.1343 85.9119L67.5594 217.979H45.2563C42.259 217.979 39.4007 216.687 37.3912 214.422C35.3826 212.156 34.4061 209.146 34.7068 206.109Z" fill="url(#paint5_linear_1901_10739)"/>
<path d="M0.156825 103.828C-0.258614 103.032 0.788441 102.164 1.66913 102.569C10.6161 106.68 33.0235 120.111 36.6346 152.68C41.1649 193.543 59.0551 200.297 68.4589 211.245C68.4589 211.245 51.1336 211.28 37.1609 199.296C2.85154 169.874 7.54919 117.979 0.156825 103.828Z" fill="url(#paint6_linear_1901_10739)"/>
<path d="M8.94878 114.703C10.9997 118.856 12.9537 123.049 14.7245 127.309C16.5216 131.56 18.1664 135.864 19.6524 140.218C21.1187 144.577 22.49 148.966 23.6433 153.413C24.8191 157.853 25.7722 162.347 26.7111 166.862C27.6783 171.369 28.6238 175.916 30.1089 180.357C31.5864 184.792 33.704 189.105 36.6845 192.893C37.4289 193.836 38.1968 194.771 39.023 195.652C39.8294 196.548 40.6847 197.41 41.557 198.257C43.3137 199.944 45.2094 201.523 47.2396 202.962C51.3104 205.832 55.9197 208.122 60.7846 209.812C61.2969 209.99 61.9059 209.759 62.1447 209.295C62.3797 208.839 62.1701 208.329 61.6776 208.143L61.6738 208.142C60.5064 207.7 59.3466 207.247 58.2178 206.748C57.6482 206.507 57.0936 206.243 56.5325 205.989C55.9845 205.715 55.4234 205.462 54.8877 205.173C52.7193 204.053 50.6534 202.795 48.7144 201.402C44.825 198.637 41.4273 195.315 38.5718 191.701C37.1685 189.878 35.9279 187.958 34.8667 185.949C33.8074 183.939 32.9286 181.843 32.1889 179.694C30.7076 175.392 29.7301 170.902 28.7254 166.403C27.714 161.906 26.6613 157.395 25.3953 152.942C24.7693 150.714 24.0973 148.499 23.3801 146.298C23.0286 145.196 22.6526 144.101 22.2785 143.006C21.8922 141.915 21.4994 140.826 21.0961 139.74C19.4729 135.402 17.6965 131.119 15.764 126.901C13.8081 122.692 11.7215 118.539 9.44975 114.475C9.3849 114.358 9.22135 114.318 9.08413 114.382C8.9516 114.447 8.89239 114.589 8.94878 114.703Z" fill="#BDD0FB"/>
<path d="M56.7683 194.259C56.3811 195.68 54.6686 196.245 53.4993 195.347C47.0516 190.393 30.0891 174.739 29.3268 146.685C28.683 122.995 26.0813 110.21 24.4985 104.488C24.1639 103.278 25.5691 102.344 26.5569 103.119C37.4579 111.667 70.7842 142.743 56.7683 194.259Z" fill="url(#paint7_linear_1901_10739)"/>
<path d="M54.7805 194.433C54.7514 194.456 54.7204 194.476 54.6866 194.494C54.4036 194.639 54.0568 194.527 53.9121 194.245C53.7476 193.925 37.4139 161.84 35.0303 128.941C35.0077 128.625 35.2455 128.349 35.5623 128.326C35.879 128.303 36.1544 128.541 36.1779 128.858C38.5446 161.517 54.7711 193.401 54.9347 193.719C55.0635 193.968 54.992 194.266 54.7805 194.433Z" fill="white"/>
<path d="M215.149 221.308C222.114 221.16 227.64 215.395 227.492 208.432L225.218 101.217C225.093 95.3017 220.352 90.5226 214.437 90.3478L58.7873 85.7312C54.1583 85.594 50.3357 89.3151 50.3498 93.9449L50.7229 216.874C50.7361 221.224 54.3162 224.718 58.667 224.626L215.149 221.308Z" fill="url(#paint8_linear_1901_10739)"/>
<path d="M225.181 212.307C227.41 212.273 229.093 210.277 228.746 208.076C226.449 193.477 219.239 143.259 221.552 101.565C221.657 99.6642 220.184 98.047 218.28 97.986L61.9295 93.0001C59.7856 92.9315 57.9894 94.605 57.9076 96.7484C57.2431 114.278 54.7665 186.463 58.0063 212.124C58.2037 213.685 59.5468 214.846 61.1212 214.821L225.181 212.307Z" fill="url(#paint9_linear_1901_10739)"/>
<path d="M221.23 210.666C223.375 210.633 224.995 208.712 224.662 206.594C222.452 192.545 215.513 144.219 217.739 104.094C217.84 102.265 216.422 100.709 214.59 100.65L64.127 95.8516C62.0639 95.7858 60.3354 97.3964 60.2564 99.4589C59.6164 116.328 57.2337 185.796 60.3514 210.489C60.5412 211.992 61.8336 213.108 63.3487 213.086L221.23 210.666Z" fill="#ECECEC"/>
<path opacity="0.72" d="M128.752 126.14L128.982 136.974C129.016 138.628 127.69 139.989 126.036 139.999L114.921 140.062C113.302 140.071 111.976 138.78 111.942 137.163L111.7 125.773C111.664 124.061 113.083 122.675 114.794 122.751L125.92 123.244C127.48 123.314 128.718 124.581 128.752 126.14Z" fill="url(#paint10_linear_1901_10739)"/>
<path opacity="0.72" d="M167.612 139.909L156.497 139.972C154.879 139.981 153.552 138.69 153.519 137.072L153.313 127.385C153.277 125.683 154.679 124.301 156.381 124.362L167.506 124.762C169.076 124.818 170.329 126.089 170.362 127.659L170.557 136.883C170.592 138.537 169.267 139.9 167.612 139.909Z" fill="url(#paint11_linear_1901_10739)"/>
<path opacity="0.72" d="M157.873 188.164L168.446 188.062C170.217 188.045 171.673 189.455 171.71 191.226L171.92 201.124C171.958 202.882 170.582 204.348 168.824 204.422L158.258 204.87C156.447 204.947 154.927 203.52 154.889 201.709L154.672 191.465C154.634 189.666 156.073 188.181 157.873 188.164Z" fill="url(#paint12_linear_1901_10739)"/>
<path opacity="0.72" d="M175.661 200.887L175.455 191.209C175.417 189.44 176.832 187.982 178.602 187.964L189.286 187.861C191.026 187.844 192.457 189.231 192.494 190.97L192.692 200.3C192.729 202.028 191.377 203.469 189.649 203.542L178.973 203.994C177.193 204.07 175.699 202.668 175.661 200.887Z" fill="url(#paint13_linear_1901_10739)"/>
<path opacity="0.72" d="M174.734 157.192L174.566 149.247C174.526 147.328 176.072 145.752 177.991 145.755L188.194 145.774C190.052 145.777 191.567 147.263 191.606 149.12L191.767 156.712C191.807 158.585 190.332 160.14 188.46 160.202L178.264 160.536C176.362 160.599 174.775 159.095 174.734 157.192Z" fill="url(#paint14_linear_1901_10739)"/>
<path opacity="0.72" d="M175.224 180.28L174.966 168.129C174.93 166.388 176.299 164.943 178.04 164.886L188.474 164.545C190.377 164.483 191.964 165.986 192.005 167.889L192.265 180.144C192.303 181.925 190.869 183.389 189.088 183.389L178.403 183.39C176.672 183.39 175.26 182.009 175.224 180.28Z" fill="url(#paint15_linear_1901_10739)"/>
<path opacity="0.72" d="M146.826 140.026L135.711 140.089C134.093 140.098 132.766 138.807 132.733 137.19L132.509 126.638C132.472 124.936 133.876 123.554 135.578 123.615L146.702 124.015C148.272 124.071 149.525 125.342 149.558 126.913L149.772 137.002C149.806 138.654 148.48 140.016 146.826 140.026Z" fill="url(#paint16_linear_1901_10739)"/>
<path opacity="0.72" d="M154.434 180.229L154.193 168.864C154.155 167.093 155.549 165.623 157.32 165.564L167.887 165.219C169.686 165.159 171.187 166.581 171.225 168.381L171.474 180.091C171.512 181.902 170.053 183.392 168.241 183.392L157.666 183.393C155.908 183.393 154.471 181.987 154.434 180.229Z" fill="url(#paint17_linear_1901_10739)"/>
<path opacity="0.72" d="M135.422 145.68L147.56 145.701C148.892 145.703 149.979 146.769 150.007 148.101L150.239 159.03C150.268 160.372 149.21 161.488 147.868 161.532L135.739 161.928C134.375 161.974 133.236 160.895 133.207 159.53L132.967 148.183C132.936 146.807 134.045 145.677 135.422 145.68Z" fill="url(#paint18_linear_1901_10739)"/>
<path opacity="0.72" d="M129.23 148.678L129.451 159.085C129.486 160.773 128.157 162.175 126.47 162.231L115.6 162.586C113.885 162.642 112.454 161.287 112.418 159.571L112.189 148.788C112.153 147.059 113.546 145.638 115.276 145.641L126.153 145.66C127.829 145.664 129.195 147.003 129.23 148.678Z" fill="url(#paint19_linear_1901_10739)"/>
<path opacity="0.72" d="M168.642 160.852L156.512 161.249C155.148 161.294 154.009 160.215 153.98 158.851L153.755 148.22C153.725 146.844 154.835 145.714 156.211 145.717L168.349 145.738C169.681 145.741 170.768 146.807 170.796 148.138L171.012 158.35C171.041 159.692 169.984 160.808 168.642 160.852Z" fill="url(#paint20_linear_1901_10739)"/>
<path opacity="0.72" d="M136.545 166.243L147.112 165.897C148.911 165.838 150.412 167.26 150.451 169.059L150.685 180.092C150.723 181.904 149.265 183.393 147.452 183.393L136.877 183.394C135.118 183.394 133.682 181.988 133.644 180.23L133.418 169.542C133.381 167.773 134.775 166.301 136.545 166.243Z" fill="url(#paint21_linear_1901_10739)"/>
<path opacity="0.72" d="M115.405 166.934L126.712 166.564C128.306 166.511 129.635 167.771 129.668 169.364L129.904 180.471C129.938 182.075 128.647 183.394 127.042 183.394L115.727 183.395C114.169 183.395 112.897 182.15 112.864 180.593L112.635 169.855C112.603 168.287 113.838 166.985 115.405 166.934Z" fill="url(#paint22_linear_1901_10739)"/>
<path opacity="0.72" d="M186.844 139.657L178.408 139.705C176.165 139.717 174.326 137.928 174.279 135.685L174.131 128.727C174.087 126.625 175.819 124.917 177.922 124.993L187.31 125.33C189.44 125.406 191.14 127.131 191.186 129.262L191.309 135.073C191.361 137.579 189.351 139.643 186.844 139.657Z" fill="url(#paint23_linear_1901_10739)"/>
<path opacity="0.72" d="M196.246 191.251C196.205 189.349 197.728 187.778 199.631 187.76L203.306 187.724C206.099 187.697 208.383 189.542 208.433 191.867L208.576 198.593C208.624 200.898 206.456 202.83 203.689 202.947L199.743 203.115C197.964 203.19 196.47 201.789 196.432 200.008L196.246 191.251Z" fill="url(#paint24_linear_1901_10739)"/>
<path opacity="0.72" d="M78.078 188.939L85.3049 188.868C87.0776 188.851 88.5344 190.263 88.5711 192.035L88.839 204.638C88.8766 206.398 87.4996 207.865 85.741 207.939L78.547 208.243C75.6784 208.364 73.2713 206.495 73.2215 204.106L72.9922 193.298C72.9414 190.928 75.2301 188.967 78.078 188.939Z" fill="url(#paint25_linear_1901_10739)"/>
<path opacity="0.72" d="M203.014 183.387L199.426 183.388C197.565 183.388 196.047 181.901 196.007 180.042L195.745 167.688C195.705 165.815 197.179 164.259 199.052 164.198L202.663 164.08C205.51 163.986 207.88 165.849 207.931 168.22L208.16 179.028C208.211 181.416 205.885 183.387 203.014 183.387Z" fill="url(#paint26_linear_1901_10739)"/>
<path opacity="0.72" d="M202.712 159.736L198.196 159.883C196.757 159.93 195.556 158.793 195.526 157.354L195.337 148.431C195.306 146.981 196.476 145.788 197.927 145.791L202.488 145.799C205.253 145.804 207.495 147.641 207.544 149.942L207.659 155.38C207.707 157.704 205.504 159.645 202.712 159.736Z" fill="url(#paint27_linear_1901_10739)"/>
<path opacity="0.72" d="M76.9238 121.365L84.1714 121.626C85.804 121.684 87.1077 123.007 87.1425 124.639L87.4066 137.088C87.4432 138.808 86.0634 140.225 84.3425 140.235L76.8796 140.277C74.0965 140.293 71.8276 138.45 71.7787 136.134L71.5578 125.721C71.5052 123.259 73.9696 121.259 76.9238 121.365Z" fill="url(#paint28_linear_1901_10739)"/>
<path opacity="0.72" d="M137.089 188.365L147.662 188.263C149.433 188.246 150.889 189.656 150.926 191.427L151.151 202.003C151.189 203.761 149.813 205.227 148.055 205.301L137.489 205.748C135.678 205.825 134.158 204.399 134.12 202.587L133.888 191.666C133.849 189.867 135.289 188.383 137.089 188.365Z" fill="url(#paint29_linear_1901_10739)"/>
<path opacity="0.72" d="M77.2282 145.574L84.5735 145.587C86.2484 145.59 87.6141 146.93 87.6498 148.604L87.9008 160.446C87.9365 162.134 86.6075 163.536 84.9204 163.592L77.5449 163.833C74.6979 163.926 72.3284 162.064 72.2777 159.693L72.0709 149.933C72.0201 147.541 74.353 145.57 77.2282 145.574Z" fill="url(#paint30_linear_1901_10739)"/>
<path opacity="0.72" d="M77.496 168.175L85.1638 167.924C86.7569 167.873 88.0859 169.131 88.1198 170.725L88.3265 180.476C88.3604 182.08 87.0689 183.4 85.4645 183.4L77.7601 183.401C74.9902 183.401 72.742 181.563 72.6931 179.258L72.5502 172.532C72.5014 170.207 74.7045 168.266 77.496 168.175Z" fill="url(#paint31_linear_1901_10739)"/>
<path opacity="0.72" d="M108.895 170.045L109.117 180.474C109.15 182.078 107.859 183.398 106.255 183.398L94.939 183.399C93.3816 183.399 92.109 182.153 92.0761 180.596L91.8627 170.535C91.8298 168.968 93.0639 167.665 94.6317 167.614L105.939 167.244C107.531 167.193 108.861 168.452 108.895 170.045Z" fill="url(#paint32_linear_1901_10739)"/>
<path opacity="0.72" d="M95.5226 188.771L106.09 188.668C107.863 188.651 109.319 190.063 109.357 191.835L109.61 203.76C109.647 205.52 108.271 206.987 106.512 207.061L95.9521 207.508C94.14 207.585 92.6183 206.157 92.5798 204.344L92.3194 192.073C92.2799 190.274 93.7208 188.788 95.5226 188.771Z" fill="url(#paint33_linear_1901_10739)"/>
<path opacity="0.72" d="M202.118 139.569L197.696 139.595C196.283 139.603 195.125 138.476 195.095 137.064L194.91 128.338C194.878 126.852 196.103 125.645 197.589 125.699L202.273 125.867C204.955 125.963 207.073 127.772 207.12 130.006L207.23 135.211C207.28 137.589 204.977 139.553 202.118 139.569Z" fill="url(#paint34_linear_1901_10739)"/>
<path opacity="0.72" d="M116.307 188.568L126.697 188.467C128.568 188.449 130.106 189.939 130.145 191.809L130.38 202.88C130.418 204.64 129.041 206.106 127.281 206.181L116.721 206.628C114.909 206.705 113.387 205.278 113.349 203.464L113.103 191.871C113.065 190.07 114.505 188.584 116.307 188.568Z" fill="url(#paint35_linear_1901_10739)"/>
<path opacity="0.72" d="M107.946 125.386L108.192 136.97C108.229 138.691 106.849 140.107 105.128 140.117L94.2517 140.178C92.5684 140.187 91.1886 138.845 91.1528 137.162L90.8972 125.125C90.8596 123.354 92.3193 121.917 94.0891 121.98L104.975 122.37C106.609 122.431 107.912 123.753 107.946 125.386Z" fill="url(#paint36_linear_1901_10739)"/>
<path opacity="0.72" d="M108.44 148.642L108.676 159.767C108.711 161.455 107.382 162.857 105.695 162.912L94.8252 163.269C93.1099 163.325 91.6793 161.97 91.6427 160.254L91.3983 148.753C91.3616 147.024 92.7555 145.604 94.4849 145.606L105.362 145.626C107.039 145.628 108.405 146.967 108.44 148.642Z" fill="url(#paint37_linear_1901_10739)"/>
<path d="M203.325 116.481L202.824 120.149C202.663 121.324 201.673 122.207 200.487 122.233L200.314 122.236C198.983 122.264 197.881 121.209 197.853 119.878L197.773 116.123C197.742 114.667 199 113.517 200.446 113.677L201.2 113.76C202.548 113.909 203.508 115.138 203.325 116.481Z" fill="white"/>
<path d="M186.293 115.537L185.792 119.205C185.632 120.38 184.641 121.263 183.456 121.288L183.283 121.292C181.952 121.32 180.85 120.265 180.822 118.934L180.742 115.179C180.711 113.723 181.969 112.573 183.415 112.733L184.169 112.815C185.516 112.964 186.476 114.194 186.293 115.537Z" fill="white"/>
<path d="M165.337 115.825L164.836 119.493C164.676 120.668 163.684 121.551 162.499 121.576L162.325 121.58C160.994 121.608 159.893 120.553 159.865 119.222L159.785 115.467C159.754 114.011 161.011 112.861 162.459 113.021L163.213 113.103C164.56 113.252 165.52 114.482 165.337 115.825Z" fill="white"/>
<path d="M144.92 114.912L144.419 118.58C144.259 119.755 143.268 120.638 142.082 120.663L141.909 120.667C140.578 120.695 139.476 119.64 139.448 118.31L139.368 114.555C139.337 113.099 140.595 111.949 142.041 112.109L142.795 112.191C144.143 112.339 145.104 113.568 144.92 114.912Z" fill="white"/>
<path d="M123.95 112.246L123.449 115.915C123.288 117.089 122.298 117.973 121.113 117.998L120.94 118.002C119.609 118.03 118.507 116.974 118.479 115.643L118.399 111.888C118.368 110.433 119.626 109.283 121.072 109.441L121.826 109.524C123.173 109.674 124.133 110.903 123.95 112.246Z" fill="white"/>
<path d="M101.735 112.716L101.234 116.385C101.074 117.559 100.083 118.442 98.8968 118.468L98.7239 118.472C97.393 118.5 96.2914 117.445 96.2632 116.113L96.1833 112.358C96.1523 110.903 97.4099 109.752 98.8564 109.911L99.6102 109.994C100.958 110.143 101.919 111.373 101.735 112.716Z" fill="white"/>
<path d="M82.9844 112.325L82.4834 115.993C82.3227 117.168 81.332 118.051 80.1468 118.076L79.9739 118.08C78.643 118.108 77.5414 117.053 77.5132 115.722L77.4333 111.967C77.4023 110.511 78.6599 109.361 80.1073 109.521L80.8611 109.603C82.208 109.752 83.1676 110.982 82.9844 112.325Z" fill="white"/>
<path d="M151.891 134.326C151.937 133.532 152.766 133.193 153.376 133.673C155.099 135.03 155.8 137.139 156.648 139.105C157.638 141.396 158.586 143.704 159.43 146.054C160.318 148.53 161.075 151.052 161.652 153.612C162.796 150.554 164.125 147.576 165.811 144.749C166.258 143.998 167.522 144.438 167.271 145.329C165.813 150.51 164.019 155.585 162.647 160.793C162.163 162.63 159.649 162.196 159.462 160.43C158.95 155.608 157.786 150.995 156.132 146.441C155.346 144.276 154.469 142.144 153.559 140.027C152.753 138.153 151.769 136.407 151.891 134.326Z" fill="url(#paint38_linear_1901_10739)"/>
<path d="M149.523 138.169C151.022 137.888 151.567 139.807 150.193 140.412C141.096 144.413 139.907 155.688 146.479 162.516C149.518 165.673 153.551 168.125 157.37 170.231C161.244 172.368 165.567 174 170.062 173.549C180.481 172.503 181.897 161.901 178.781 153.721C175.786 145.853 169.369 139.779 161.513 136.867C160.498 136.492 160.892 134.84 161.932 135.213C169.302 137.855 175.575 143.067 179.462 149.889C183.036 156.164 185.181 165.014 180.501 171.313C175.659 177.83 166.468 177.947 159.543 175.23C151.926 172.241 142.442 166.697 139.41 158.651C136.234 150.219 140.154 139.921 149.523 138.169Z" fill="url(#paint39_linear_1901_10739)"/>
<path d="M200.355 110.35C202.585 109.675 203.845 107.32 203.17 105.091C202.495 102.862 200.14 101.602 197.91 102.277C195.68 102.952 194.42 105.306 195.095 107.535C195.77 109.765 198.125 111.025 200.355 110.35Z" fill="#7D97F4"/>
<path d="M167.545 108.972C169.192 107.325 169.192 104.655 167.545 103.008C165.897 101.361 163.226 101.361 161.579 103.008C159.932 104.655 159.932 107.325 161.579 108.972C163.226 110.619 165.897 110.619 167.545 108.972Z" fill="#7D97F4"/>
<path d="M129.674 109.071C132.004 109.071 133.892 107.183 133.892 104.854C133.892 102.525 132.004 100.637 129.674 100.637C127.344 100.637 125.456 102.525 125.456 104.854C125.456 107.183 127.344 109.071 129.674 109.071Z" fill="#7D97F4"/>
<path d="M96.0805 107.324C98.3477 106.789 99.7517 104.518 99.2164 102.251C98.681 99.9842 96.409 98.5806 94.1417 99.1158C91.8745 99.6511 90.4705 101.922 91.0059 104.189C91.5412 106.456 93.8132 107.86 96.0805 107.324Z" fill="#7D97F4"/>
<path d="M91.9012 74.0086C99.0003 75.5571 98.3301 94.2293 97.7596 101.81C97.6252 103.593 96.1392 104.97 94.3496 104.97C93.8524 104.97 93.3796 104.755 93.0478 104.386C92.7161 104.017 92.5572 103.523 92.6108 103.028C93.2236 97.2992 94.5291 80.7986 89.3023 79.9163C89.3023 79.9163 85.5531 79.2529 84.9224 86.5128H80.8667C80.8667 86.5128 82.9758 72.0616 91.9012 74.0086Z" fill="url(#paint40_linear_1901_10739)"/>
<path d="M126.466 74.9675C133.565 76.5161 132.895 95.1948 132.325 102.775C132.19 104.559 130.704 105.938 128.915 105.938C128.417 105.938 127.945 105.726 127.613 105.356C127.281 104.987 127.122 104.493 127.176 104C127.789 98.2704 129.094 81.7576 123.867 80.8752C123.867 80.8752 120.118 80.3575 119.487 87.4595H115.432C115.431 87.4595 117.541 73.0215 126.466 74.9675Z" fill="url(#paint41_linear_1901_10739)"/>
<path d="M161.031 75.9326C168.13 77.4812 167.46 96.1647 166.89 103.745C166.755 105.529 165.269 106.911 163.48 106.911C162.982 106.911 162.51 106.699 162.178 106.33C161.846 105.961 161.687 105.467 161.741 104.973C162.354 99.244 163.659 82.7227 158.432 81.8404C158.432 81.8404 154.685 81.4184 154.054 88.5571L149.997 88.4162C149.996 88.4152 152.106 73.9856 161.031 75.9326Z" fill="url(#paint42_linear_1901_10739)"/>
<path d="M195.595 77.0479C202.694 78.5965 202.024 97.2893 201.453 104.87C201.318 106.653 199.832 108.04 198.043 108.04C197.546 108.04 197.073 107.831 196.741 107.462C196.409 107.093 196.25 106.601 196.304 106.107C196.917 100.378 198.222 83.8371 192.995 82.9547C192.995 82.9547 189.246 82.4088 188.616 89.5108H184.56C184.561 89.5108 186.671 75.1019 195.595 77.0479Z" fill="url(#paint43_linear_1901_10739)"/>
<defs>
<linearGradient id="paint0_linear_1901_10739" x1="217.534" y1="127.047" x2="217.534" y2="216.126" gradientUnits="userSpaceOnUse">
<stop stop-color="#72D181"/>
<stop offset="1" stop-color="#009964"/>
</linearGradient>
<linearGradient id="paint1_linear_1901_10739" x1="192.834" y1="205.664" x2="239.958" y2="7.55403" gradientUnits="userSpaceOnUse">
<stop stop-color="#FFA462"/>
<stop offset="1" stop-color="#FEE149"/>
</linearGradient>
<linearGradient id="paint2_linear_1901_10739" x1="153.367" y1="175.168" x2="172.551" y2="65.6421" gradientUnits="userSpaceOnUse">
<stop offset="0.75" stop-color="#FFA462"/>
<stop offset="1" stop-color="#FEE149"/>
</linearGradient>
<linearGradient id="paint3_linear_1901_10739" x1="105.942" y1="177.858" x2="123.206" y2="57.7115" gradientUnits="userSpaceOnUse">
<stop stop-color="#FFA462"/>
<stop offset="1" stop-color="#FEE149"/>
</linearGradient>
<linearGradient id="paint4_linear_1901_10739" x1="62.1643" y1="167.075" x2="71.5252" y2="81.3965" gradientUnits="userSpaceOnUse">
<stop stop-color="#FFA462"/>
<stop offset="1" stop-color="#FEE149"/>
</linearGradient>
<linearGradient id="paint5_linear_1901_10739" x1="34.7" y1="151.586" x2="67.5362" y2="151.586" gradientUnits="userSpaceOnUse">
<stop offset="8e-08" stop-color="#A91134"/>
<stop offset="1" stop-color="#FC1C43"/>
</linearGradient>
<linearGradient id="paint6_linear_1901_10739" x1="34.2609" y1="102.466" x2="34.2609" y2="211.245" gradientUnits="userSpaceOnUse">
<stop stop-color="#268B74"/>
<stop offset="1" stop-color="#00604F"/>
</linearGradient>
<linearGradient id="paint7_linear_1901_10739" x1="42.3014" y1="102.836" x2="42.3014" y2="195.78" gradientUnits="userSpaceOnUse">
<stop stop-color="#72D181"/>
<stop offset="1" stop-color="#009964"/>
</linearGradient>
<linearGradient id="paint8_linear_1901_10739" x1="63.6975" y1="231.158" x2="215.466" y2="99.6048" gradientUnits="userSpaceOnUse">
<stop offset="8e-08" stop-color="#D82C53"/>
<stop offset="1" stop-color="#FF5F7A"/>
</linearGradient>
<linearGradient id="paint9_linear_1901_10739" x1="56.3407" y1="153.914" x2="228.82" y2="153.914" gradientUnits="userSpaceOnUse">
<stop stop-color="#012D64"/>
<stop offset="1" stop-color="#0D3F99"/>
</linearGradient>
<linearGradient id="paint10_linear_1901_10739" x1="120.341" y1="122.748" x2="120.341" y2="140.062" gradientUnits="userSpaceOnUse">
<stop stop-color="white"/>
<stop offset="1" stop-color="white" stop-opacity="0.52"/>
</linearGradient>
<linearGradient id="paint11_linear_1901_10739" x1="161.935" y1="124.36" x2="161.935" y2="139.972" gradientUnits="userSpaceOnUse">
<stop stop-color="white"/>
<stop offset="1" stop-color="white" stop-opacity="0.52"/>
</linearGradient>
<linearGradient id="paint12_linear_1901_10739" x1="163.296" y1="188.062" x2="163.296" y2="204.873" gradientUnits="userSpaceOnUse">
<stop stop-color="white"/>
<stop offset="1" stop-color="white" stop-opacity="0.52"/>
</linearGradient>
<linearGradient id="paint13_linear_1901_10739" x1="184.074" y1="187.86" x2="184.074" y2="203.997" gradientUnits="userSpaceOnUse">
<stop stop-color="white"/>
<stop offset="1" stop-color="white" stop-opacity="0.52"/>
</linearGradient>
<linearGradient id="paint14_linear_1901_10739" x1="183.167" y1="145.755" x2="183.167" y2="160.538" gradientUnits="userSpaceOnUse">
<stop stop-color="white"/>
<stop offset="1" stop-color="white" stop-opacity="0.52"/>
</linearGradient>
<linearGradient id="paint15_linear_1901_10739" x1="183.616" y1="164.543" x2="183.616" y2="183.39" gradientUnits="userSpaceOnUse">
<stop stop-color="white"/>
<stop offset="1" stop-color="white" stop-opacity="0.52"/>
</linearGradient>
<linearGradient id="paint16_linear_1901_10739" x1="141.14" y1="123.613" x2="141.14" y2="140.089" gradientUnits="userSpaceOnUse">
<stop stop-color="white"/>
<stop offset="1" stop-color="white" stop-opacity="0.52"/>
</linearGradient>
<linearGradient id="paint17_linear_1901_10739" x1="162.833" y1="165.217" x2="162.833" y2="183.393" gradientUnits="userSpaceOnUse">
<stop stop-color="white"/>
<stop offset="1" stop-color="white" stop-opacity="0.52"/>
</linearGradient>
<linearGradient id="paint18_linear_1901_10739" x1="141.603" y1="145.68" x2="141.603" y2="161.93" gradientUnits="userSpaceOnUse">
<stop stop-color="white"/>
<stop offset="1" stop-color="white" stop-opacity="0.52"/>
</linearGradient>
<linearGradient id="paint19_linear_1901_10739" x1="120.82" y1="145.641" x2="120.82" y2="162.587" gradientUnits="userSpaceOnUse">
<stop stop-color="white"/>
<stop offset="1" stop-color="white" stop-opacity="0.52"/>
</linearGradient>
<linearGradient id="paint20_linear_1901_10739" x1="162.383" y1="145.717" x2="162.383" y2="161.25" gradientUnits="userSpaceOnUse">
<stop stop-color="white"/>
<stop offset="1" stop-color="white" stop-opacity="0.52"/>
</linearGradient>
<linearGradient id="paint21_linear_1901_10739" x1="142.051" y1="165.896" x2="142.051" y2="183.394" gradientUnits="userSpaceOnUse">
<stop stop-color="white"/>
<stop offset="1" stop-color="white" stop-opacity="0.52"/>
</linearGradient>
<linearGradient id="paint22_linear_1901_10739" x1="121.27" y1="166.562" x2="121.27" y2="183.395" gradientUnits="userSpaceOnUse">
<stop stop-color="white"/>
<stop offset="1" stop-color="white" stop-opacity="0.52"/>
</linearGradient>
<linearGradient id="paint23_linear_1901_10739" x1="182.72" y1="124.99" x2="182.72" y2="139.705" gradientUnits="userSpaceOnUse">
<stop stop-color="white"/>
<stop offset="1" stop-color="white" stop-opacity="0.52"/>
</linearGradient>
<linearGradient id="paint24_linear_1901_10739" x1="202.411" y1="187.724" x2="202.411" y2="203.118" gradientUnits="userSpaceOnUse">
<stop stop-color="white"/>
<stop offset="1" stop-color="white" stop-opacity="0.52"/>
</linearGradient>
<linearGradient id="paint25_linear_1901_10739" x1="80.9155" y1="188.868" x2="80.9155" y2="208.249" gradientUnits="userSpaceOnUse">
<stop stop-color="white"/>
<stop offset="1" stop-color="white" stop-opacity="0.52"/>
</linearGradient>
<linearGradient id="paint26_linear_1901_10739" x1="201.952" y1="164.076" x2="201.952" y2="183.388" gradientUnits="userSpaceOnUse">
<stop stop-color="white"/>
<stop offset="1" stop-color="white" stop-opacity="0.52"/>
</linearGradient>
<linearGradient id="paint27_linear_1901_10739" x1="201.498" y1="145.791" x2="201.498" y2="159.885" gradientUnits="userSpaceOnUse">
<stop stop-color="white"/>
<stop offset="1" stop-color="white" stop-opacity="0.52"/>
</linearGradient>
<linearGradient id="paint28_linear_1901_10739" x1="79.4821" y1="121.361" x2="79.4821" y2="140.277" gradientUnits="userSpaceOnUse">
<stop stop-color="white"/>
<stop offset="1" stop-color="white" stop-opacity="0.52"/>
</linearGradient>
<linearGradient id="paint29_linear_1901_10739" x1="142.519" y1="188.263" x2="142.519" y2="205.751" gradientUnits="userSpaceOnUse">
<stop stop-color="white"/>
<stop offset="1" stop-color="white" stop-opacity="0.52"/>
</linearGradient>
<linearGradient id="paint30_linear_1901_10739" x1="79.9858" y1="145.574" x2="79.9858" y2="163.836" gradientUnits="userSpaceOnUse">
<stop stop-color="white"/>
<stop offset="1" stop-color="white" stop-opacity="0.52"/>
</linearGradient>
<linearGradient id="paint31_linear_1901_10739" x1="80.4383" y1="167.923" x2="80.4383" y2="183.401" gradientUnits="userSpaceOnUse">
<stop stop-color="white"/>
<stop offset="1" stop-color="white" stop-opacity="0.52"/>
</linearGradient>
<linearGradient id="paint32_linear_1901_10739" x1="100.49" y1="167.242" x2="100.49" y2="183.399" gradientUnits="userSpaceOnUse">
<stop stop-color="white"/>
<stop offset="1" stop-color="white" stop-opacity="0.52"/>
</linearGradient>
<linearGradient id="paint33_linear_1901_10739" x1="100.965" y1="188.668" x2="100.965" y2="207.511" gradientUnits="userSpaceOnUse">
<stop stop-color="white"/>
<stop offset="1" stop-color="white" stop-opacity="0.52"/>
</linearGradient>
<linearGradient id="paint34_linear_1901_10739" x1="201.07" y1="125.697" x2="201.07" y2="139.595" gradientUnits="userSpaceOnUse">
<stop stop-color="white"/>
<stop offset="1" stop-color="white" stop-opacity="0.52"/>
</linearGradient>
<linearGradient id="paint35_linear_1901_10739" x1="121.741" y1="188.467" x2="121.741" y2="206.631" gradientUnits="userSpaceOnUse">
<stop stop-color="white"/>
<stop offset="1" stop-color="white" stop-opacity="0.52"/>
</linearGradient>
<linearGradient id="paint36_linear_1901_10739" x1="99.5448" y1="121.978" x2="99.5448" y2="140.178" gradientUnits="userSpaceOnUse">
<stop stop-color="white"/>
<stop offset="1" stop-color="white" stop-opacity="0.52"/>
</linearGradient>
<linearGradient id="paint37_linear_1901_10739" x1="100.037" y1="145.606" x2="100.037" y2="163.27" gradientUnits="userSpaceOnUse">
<stop stop-color="white"/>
<stop offset="1" stop-color="white" stop-opacity="0.52"/>
</linearGradient>
<linearGradient id="paint38_linear_1901_10739" x1="151.902" y1="147.667" x2="167.293" y2="147.667" gradientUnits="userSpaceOnUse">
<stop offset="8e-08" stop-color="#A91134"/>
<stop offset="1" stop-color="#FC1C43"/>
</linearGradient>
<linearGradient id="paint39_linear_1901_10739" x1="138.388" y1="155.961" x2="183.156" y2="155.961" gradientUnits="userSpaceOnUse">
<stop offset="8e-08" stop-color="#A91134"/>
<stop offset="1" stop-color="#FC1C43"/>
</linearGradient>
<linearGradient id="paint40_linear_1901_10739" x1="80.8632" y1="89.4" x2="98.0924" y2="89.4" gradientUnits="userSpaceOnUse">
<stop stop-color="#012D64"/>
<stop offset="1" stop-color="#0D3F99"/>
</linearGradient>
<linearGradient id="paint41_linear_1901_10739" x1="115.428" y1="90.3637" x2="132.657" y2="90.3637" gradientUnits="userSpaceOnUse">
<stop stop-color="#012D64"/>
<stop offset="1" stop-color="#0D3F99"/>
</linearGradient>
<linearGradient id="paint42_linear_1901_10739" x1="149.993" y1="91.3324" x2="167.222" y2="91.3324" gradientUnits="userSpaceOnUse">
<stop stop-color="#012D64"/>
<stop offset="1" stop-color="#0D3F99"/>
</linearGradient>
<linearGradient id="paint43_linear_1901_10739" x1="184.556" y1="92.4547" x2="201.786" y2="92.4547" gradientUnits="userSpaceOnUse">
<stop stop-color="#012D64"/>
<stop offset="1" stop-color="#0D3F99"/>
</linearGradient>
</defs>
</svg>
