<svg width="327" height="67" viewBox="0 0 327 67" fill="none" xmlns="http://www.w3.org/2000/svg">
<rect opacity="0.3" width="327" height="67" rx="8" fill="#DCDEE9"/>
<path d="M13.1777 21V12.4336H14.1738V20.0977H17.9531V21H13.1777ZM20.5797 14.5898V18.7441C20.5797 19.2676 20.6988 19.6582 20.9371 19.916C21.1754 20.1738 21.5484 20.3027 22.0563 20.3027C22.7281 20.3027 23.2184 20.1191 23.527 19.752C23.8395 19.3848 23.9957 18.7852 23.9957 17.9531V14.5898H24.9684V15.2988C25.2887 15.2559 25.5211 15.1094 25.6656 14.8594C25.8102 14.6094 25.8824 14.1836 25.8824 13.582H26.9254L27.0133 13.7168C26.8883 14.4434 26.6539 14.9941 26.3102 15.3691C25.9664 15.7402 25.5191 15.9531 24.9684 16.0078V21H24.1656L24.025 20.1387H23.9723C23.7691 20.459 23.4898 20.7031 23.1344 20.8711C22.7828 21.0352 22.3902 21.1172 21.9566 21.1172C21.1637 21.1172 20.5719 20.9316 20.1813 20.5605C19.7906 20.1895 19.5953 19.5957 19.5953 18.7793V14.5898H20.5797ZM28.9602 14.5781V18.7441C28.9602 19.2676 29.0793 19.6582 29.3176 19.916C29.5559 20.1738 29.9289 20.3027 30.4367 20.3027C31.1086 20.3027 31.5988 20.1191 31.9074 19.752C32.2199 19.3848 32.3762 18.7852 32.3762 17.9531V14.5781H33.3488V21H32.5461L32.4055 20.1387H32.3527C32.1535 20.4551 31.8762 20.6973 31.5207 20.8652C31.1691 21.0332 30.7668 21.1172 30.3137 21.1172C29.5324 21.1172 28.9465 20.9316 28.5559 20.5605C28.1691 20.1895 27.9758 19.5957 27.9758 18.7793V14.5781H28.9602ZM38.3148 14.5781H39.3578L40.7641 18.2402C41.0727 19.0762 41.2641 19.6797 41.3383 20.0508H41.3852C41.4359 19.8516 41.5414 19.5117 41.7016 19.0312C41.8656 18.5469 42.3969 17.0625 43.2953 14.5781H44.3383L41.5785 21.8906C41.3051 22.6133 40.9848 23.125 40.6176 23.4258C40.2543 23.7305 39.807 23.8828 39.2758 23.8828C38.9789 23.8828 38.6859 23.8496 38.3969 23.7832V23.0039C38.6117 23.0508 38.852 23.0742 39.1176 23.0742C39.7855 23.0742 40.2621 22.6992 40.5473 21.9492L40.9047 21.0352L38.3148 14.5781ZM40.7113 13.582C40.8988 13.3398 41.1 13.0469 41.3148 12.7031C41.5336 12.3594 41.7055 12.0605 41.8305 11.8066H43.0141V11.9297C42.8422 12.1836 42.5863 12.4961 42.2465 12.8672C41.9066 13.2383 41.6117 13.5254 41.3617 13.7285H40.7113V13.582ZM45.6406 20.3789C45.6406 20.1172 45.6992 19.9199 45.8164 19.7871C45.9375 19.6504 46.1094 19.582 46.332 19.582C46.5586 19.582 46.7344 19.6504 46.8594 19.7871C46.9883 19.9199 47.0527 20.1172 47.0527 20.3789C47.0527 20.6328 46.9883 20.8281 46.8594 20.9648C46.7305 21.1016 46.5547 21.1699 46.332 21.1699C46.1328 21.1699 45.9668 21.1094 45.834 20.9883C45.7051 20.8633 45.6406 20.6602 45.6406 20.3789ZM45.6406 15.2051C45.6406 14.6777 45.8711 14.4141 46.332 14.4141C46.8125 14.4141 47.0527 14.6777 47.0527 15.2051C47.0527 15.459 46.9883 15.6543 46.8594 15.791C46.7305 15.9277 46.5547 15.9961 46.332 15.9961C46.1328 15.9961 45.9668 15.9355 45.834 15.8145C45.7051 15.6895 45.6406 15.4863 45.6406 15.2051ZM56.8352 21L53.9289 13.4062H53.882C53.9367 14.0078 53.9641 14.7227 53.9641 15.5508V21H53.0441V12.4336H54.5441L57.257 19.5H57.3039L60.0402 12.4336H61.5285V21H60.5324V15.4805C60.5324 14.8477 60.5598 14.1602 60.6145 13.418H60.5676L57.6379 21H56.8352ZM68.0867 21L67.8934 20.0859H67.8465C67.5262 20.4883 67.2059 20.7617 66.8855 20.9062C66.5691 21.0469 66.1727 21.1172 65.6961 21.1172C65.0594 21.1172 64.5594 20.9531 64.1961 20.625C63.8367 20.2969 63.657 19.8301 63.657 19.2246C63.657 17.9277 64.6941 17.248 66.7684 17.1855L67.8582 17.1504V16.752C67.8582 16.248 67.7488 15.877 67.5301 15.6387C67.3152 15.3965 66.9695 15.2754 66.493 15.2754C65.9578 15.2754 65.3523 15.4395 64.6766 15.7676L64.3777 15.0234C64.6941 14.8516 65.0398 14.7168 65.4148 14.6191C65.7938 14.5215 66.1727 14.4727 66.5516 14.4727C67.3172 14.4727 67.8836 14.6426 68.2508 14.9824C68.6219 15.3223 68.8074 15.8672 68.8074 16.6172V21H68.0867ZM65.8895 20.3145C66.4949 20.3145 66.9695 20.1484 67.3133 19.8164C67.6609 19.4844 67.8348 19.0195 67.8348 18.4219V17.8418L66.8621 17.8828C66.0887 17.9102 65.5301 18.0312 65.1863 18.2461C64.8465 18.457 64.6766 18.7871 64.6766 19.2363C64.6766 19.5879 64.782 19.8555 64.993 20.0391C65.2078 20.2227 65.5066 20.3145 65.8895 20.3145ZM65.6609 22.418C65.6609 22.1953 65.7176 22.0312 65.8309 21.9258C65.948 21.8203 66.0887 21.7676 66.2527 21.7676C66.409 21.7676 66.5438 21.8203 66.657 21.9258C66.7703 22.0312 66.827 22.1953 66.827 22.418C66.827 22.6328 66.7703 22.793 66.657 22.8984C66.5438 23.0078 66.409 23.0625 66.2527 23.0625C66.0887 23.0625 65.948 23.0078 65.8309 22.8984C65.7176 22.793 65.6609 22.6328 65.6609 22.418ZM64.4188 13.5938C64.9148 13.0625 65.2625 12.6719 65.4617 12.4219C65.6609 12.1719 65.8055 11.9668 65.8953 11.8066H66.868C66.9539 11.9707 67.1023 12.1836 67.3133 12.4453C67.5281 12.7031 67.8797 13.0859 68.368 13.5938V13.7285H67.6707C67.327 13.5137 66.8953 13.1504 66.3758 12.6387C65.8445 13.1621 65.4168 13.5254 65.0926 13.7285H64.4188V13.5938ZM73.2914 20.3145C73.4633 20.3145 73.6293 20.3027 73.7895 20.2793C73.9496 20.252 74.0766 20.2246 74.1703 20.1973V20.9414C74.0648 20.9922 73.9086 21.0332 73.7016 21.0645C73.4984 21.0996 73.3148 21.1172 73.1508 21.1172C71.9086 21.1172 71.2875 20.4629 71.2875 19.1543V15.334H70.3676V14.8652L71.2875 14.4609L71.6977 13.0898H72.2602V14.5781H74.1234V15.334H72.2602V19.1133C72.2602 19.5 72.352 19.7969 72.5355 20.0039C72.7191 20.2109 72.9711 20.3145 73.2914 20.3145ZM80.3375 17.7129C80.5055 17.4746 80.7613 17.1621 81.1051 16.7754L83.1793 14.5781H84.3336L81.732 17.3145L84.5152 21H83.3375L81.0699 17.9648L80.3375 18.5977V21H79.3766V11.8828H80.3375V16.7168C80.3375 16.9316 80.3219 17.2637 80.2906 17.7129H80.3375ZM90.4758 21V16.8457C90.4758 16.3223 90.3566 15.9316 90.1184 15.6738C89.8801 15.416 89.507 15.2871 88.9992 15.2871C88.3234 15.2871 87.8293 15.4707 87.5168 15.8379C87.2082 16.2051 87.0539 16.8066 87.0539 17.6426V21H86.0813V11.8828H87.0539V14.6426C87.0539 14.9746 87.0383 15.25 87.007 15.4688H87.0656C87.257 15.1602 87.5285 14.918 87.8801 14.7422C88.2355 14.5625 88.6398 14.4727 89.093 14.4727C89.8781 14.4727 90.466 14.6602 90.8566 15.0352C91.2512 15.4062 91.4484 15.998 91.4484 16.8105V21H90.4758ZM97.8016 21L97.6082 20.0859H97.5613C97.241 20.4883 96.9207 20.7617 96.6004 20.9062C96.284 21.0469 95.8875 21.1172 95.4109 21.1172C94.7742 21.1172 94.2742 20.9531 93.9109 20.625C93.5516 20.2969 93.3719 19.8301 93.3719 19.2246C93.3719 17.9277 94.409 17.248 96.4832 17.1855L97.573 17.1504V16.752C97.573 16.248 97.4637 15.877 97.2449 15.6387C97.0301 15.3965 96.6844 15.2754 96.2078 15.2754C95.6727 15.2754 95.0672 15.4395 94.3914 15.7676L94.0926 15.0234C94.409 14.8516 94.7547 14.7168 95.1297 14.6191C95.5086 14.5215 95.8875 14.4727 96.2664 14.4727C97.032 14.4727 97.5984 14.6426 97.9656 14.9824C98.3367 15.3223 98.5223 15.8672 98.5223 16.6172V21H97.8016ZM95.6043 20.3145C96.2098 20.3145 96.6844 20.1484 97.0281 19.8164C97.3758 19.4844 97.5496 19.0195 97.5496 18.4219V17.8418L96.577 17.8828C95.8035 17.9102 95.2449 18.0312 94.9012 18.2461C94.5613 18.457 94.3914 18.7871 94.3914 19.2363C94.3914 19.5879 94.4969 19.8555 94.7078 20.0391C94.9227 20.2227 95.2215 20.3145 95.6043 20.3145ZM97.9715 13.7285H97.4207C96.9832 13.4355 96.5711 13.1113 96.1844 12.7559C95.7391 13.1504 95.327 13.4746 94.948 13.7285H94.3973V13.582L94.7078 13.2305C95.1453 12.75 95.4656 12.3594 95.6687 12.0586H96.7C96.9578 12.4258 97.3816 12.9336 97.9715 13.582V13.7285ZM98.9559 11.3613C98.9559 11.7637 98.7078 12.0215 98.2117 12.1348L98.1766 12.6094H97.7078L97.6492 11.8418C97.8719 11.8066 98.0437 11.7578 98.1648 11.6953C98.2898 11.6328 98.3523 11.5273 98.3523 11.3789C98.3523 11.2344 98.2957 11.1387 98.1824 11.0918C98.073 11.041 97.9344 11.0156 97.7664 11.0156C97.5867 11.0156 97.4461 11.0273 97.3445 11.0508V10.582C97.4422 10.5586 97.5984 10.5469 97.8133 10.5469C98.575 10.5469 98.9559 10.8184 98.9559 11.3613ZM101.846 14.5781V18.7441C101.846 19.2676 101.965 19.6582 102.204 19.916C102.442 20.1738 102.815 20.3027 103.323 20.3027C103.995 20.3027 104.485 20.1191 104.793 19.752C105.106 19.3848 105.262 18.7852 105.262 17.9531V14.5781H106.235V21H105.432L105.291 20.1387H105.239C105.039 20.4551 104.762 20.6973 104.407 20.8652C104.055 21.0332 103.653 21.1172 103.2 21.1172C102.418 21.1172 101.832 20.9316 101.442 20.5605C101.055 20.1895 100.862 19.5957 100.862 18.7793V14.5781H101.846ZM115.209 21.1172C114.791 21.1172 114.408 21.041 114.06 20.8887C113.716 20.7324 113.427 20.4941 113.193 20.1738H113.123C113.17 20.5488 113.193 20.9043 113.193 21.2402V23.8828H112.22V14.5781H113.011L113.146 15.457H113.193C113.443 15.1055 113.734 14.8516 114.066 14.6953C114.398 14.5391 114.779 14.4609 115.209 14.4609C116.06 14.4609 116.716 14.752 117.177 15.334C117.642 15.916 117.875 16.7324 117.875 17.7832C117.875 18.8379 117.638 19.6582 117.166 20.2441C116.697 20.8262 116.045 21.1172 115.209 21.1172ZM115.068 15.2871C114.412 15.2871 113.937 15.4688 113.644 15.832C113.351 16.1953 113.201 16.7734 113.193 17.5664V17.7832C113.193 18.6855 113.343 19.332 113.644 19.7227C113.945 20.1094 114.427 20.3027 115.091 20.3027C115.646 20.3027 116.08 20.0781 116.392 19.6289C116.709 19.1797 116.867 18.5605 116.867 17.7715C116.867 16.9707 116.709 16.3574 116.392 15.9316C116.08 15.502 115.638 15.2871 115.068 15.2871ZM124.374 21V16.8457C124.374 16.3223 124.255 15.9316 124.017 15.6738C123.779 15.416 123.405 15.2871 122.898 15.2871C122.222 15.2871 121.728 15.4707 121.415 15.8379C121.107 16.2051 120.952 16.8066 120.952 17.6426V21H119.98V11.8828H120.952V14.6426C120.952 14.9746 120.937 15.25 120.905 15.4688H120.964C121.155 15.1602 121.427 14.918 121.779 14.7422C122.134 14.5625 122.538 14.4727 122.991 14.4727C123.777 14.4727 124.364 14.6602 124.755 15.0352C125.15 15.4062 125.347 15.998 125.347 16.8105V21H124.374ZM131.7 21L131.507 20.0859H131.46C131.139 20.4883 130.819 20.7617 130.499 20.9062C130.182 21.0469 129.786 21.1172 129.309 21.1172C128.673 21.1172 128.173 20.9531 127.809 20.625C127.45 20.2969 127.27 19.8301 127.27 19.2246C127.27 17.9277 128.307 17.248 130.382 17.1855L131.471 17.1504V16.752C131.471 16.248 131.362 15.877 131.143 15.6387C130.929 15.3965 130.583 15.2754 130.106 15.2754C129.571 15.2754 128.966 15.4395 128.29 15.7676L127.991 15.0234C128.307 14.8516 128.653 14.7168 129.028 14.6191C129.407 14.5215 129.786 14.4727 130.165 14.4727C130.93 14.4727 131.497 14.6426 131.864 14.9824C132.235 15.3223 132.421 15.8672 132.421 16.6172V21H131.7ZM129.503 20.3145C130.108 20.3145 130.583 20.1484 130.927 19.8164C131.274 19.4844 131.448 19.0195 131.448 18.4219V17.8418L130.475 17.8828C129.702 17.9102 129.143 18.0312 128.8 18.2461C128.46 18.457 128.29 18.7871 128.29 19.2363C128.29 19.5879 128.395 19.8555 128.606 20.0391C128.821 20.2227 129.12 20.3145 129.503 20.3145ZM131.366 12.2402C131.366 12.7871 131.042 13.127 130.393 13.2598L130.335 13.9219H129.72L129.649 12.8906C129.985 12.8359 130.229 12.7598 130.382 12.6621C130.534 12.5645 130.61 12.4316 130.61 12.2637C130.61 12.0957 130.544 11.9727 130.411 11.8945C130.282 11.8125 130.075 11.7715 129.79 11.7715C129.548 11.7715 129.364 11.7832 129.239 11.8066V11.2207C129.387 11.1816 129.596 11.1621 129.866 11.1621C130.866 11.1621 131.366 11.5215 131.366 12.2402ZM135.803 21H134.83V14.5781H135.803V21ZM134.748 12.8379C134.748 12.6152 134.803 12.4531 134.912 12.3516C135.022 12.2461 135.159 12.1934 135.323 12.1934C135.479 12.1934 135.614 12.2461 135.727 12.3516C135.84 12.457 135.897 12.6191 135.897 12.8379C135.897 13.0566 135.84 13.2207 135.727 13.3301C135.614 13.4355 135.479 13.4883 135.323 13.4883C135.159 13.4883 135.022 13.4355 134.912 13.3301C134.803 13.2207 134.748 13.0566 134.748 12.8379ZM143.857 20.3145C144.029 20.3145 144.195 20.3027 144.355 20.2793C144.515 20.252 144.642 20.2246 144.736 20.1973V20.9414C144.63 20.9922 144.474 21.0332 144.267 21.0645C144.064 21.0996 143.88 21.1172 143.716 21.1172C142.474 21.1172 141.853 20.4629 141.853 19.1543V15.334H140.933V14.8652L141.853 14.4609L142.263 13.0898H142.826V14.5781H144.689V15.334H142.826V19.1133C142.826 19.5 142.918 19.7969 143.101 20.0039C143.285 20.2109 143.537 20.3145 143.857 20.3145ZM150.82 21V16.8457C150.82 16.3223 150.7 15.9316 150.462 15.6738C150.224 15.416 149.851 15.2871 149.343 15.2871C148.667 15.2871 148.173 15.4707 147.861 15.8379C147.552 16.2051 147.398 16.8066 147.398 17.6426V21H146.425V11.8828H147.398V14.6426C147.398 14.9746 147.382 15.25 147.351 15.4688H147.409C147.601 15.1602 147.872 14.918 148.224 14.7422C148.579 14.5625 148.984 14.4727 149.437 14.4727C150.222 14.4727 150.81 14.6602 151.2 15.0352C151.595 15.4062 151.792 15.998 151.792 16.8105V21H150.82ZM159.739 17.7832C159.739 18.8301 159.475 19.6484 158.948 20.2383C158.421 20.8242 157.692 21.1172 156.762 21.1172C156.188 21.1172 155.679 20.9824 155.233 20.7129C154.788 20.4434 154.444 20.0566 154.202 19.5527C153.96 19.0488 153.839 18.459 153.839 17.7832C153.839 16.7363 154.1 15.9219 154.624 15.3398C155.147 14.7539 155.874 14.4609 156.804 14.4609C157.702 14.4609 158.415 14.7598 158.942 15.3574C159.473 15.9551 159.739 16.7637 159.739 17.7832ZM154.846 17.7832C154.846 18.6035 155.011 19.2285 155.339 19.6582C155.667 20.0879 156.149 20.3027 156.786 20.3027C157.423 20.3027 157.905 20.0898 158.233 19.6641C158.565 19.2344 158.731 18.6074 158.731 17.7832C158.731 16.9668 158.565 16.3477 158.233 15.9258C157.905 15.5 157.419 15.2871 156.774 15.2871C156.137 15.2871 155.657 15.4961 155.333 15.9141C155.009 16.332 154.846 16.9551 154.846 17.7832ZM165.799 21L165.606 20.0859H165.559C165.239 20.4883 164.918 20.7617 164.598 20.9062C164.282 21.0469 163.885 21.1172 163.409 21.1172C162.772 21.1172 162.272 20.9531 161.909 20.625C161.549 20.2969 161.37 19.8301 161.37 19.2246C161.37 17.9277 162.407 17.248 164.481 17.1855L165.571 17.1504V16.752C165.571 16.248 165.461 15.877 165.243 15.6387C165.028 15.3965 164.682 15.2754 164.205 15.2754C163.67 15.2754 163.065 15.4395 162.389 15.7676L162.09 15.0234C162.407 14.8516 162.752 14.7168 163.127 14.6191C163.506 14.5215 163.885 14.4727 164.264 14.4727C165.03 14.4727 165.596 14.6426 165.963 14.9824C166.334 15.3223 166.52 15.8672 166.52 16.6172V21H165.799ZM163.602 20.3145C164.207 20.3145 164.682 20.1484 165.026 19.8164C165.373 19.4844 165.547 19.0195 165.547 18.4219V17.8418L164.575 17.8828C163.801 17.9102 163.243 18.0312 162.899 18.2461C162.559 18.457 162.389 18.7871 162.389 19.2363C162.389 19.5879 162.495 19.8555 162.705 20.0391C162.92 20.2227 163.219 20.3145 163.602 20.3145ZM165.465 12.2402C165.465 12.7871 165.141 13.127 164.493 13.2598L164.434 13.9219H163.819L163.748 12.8906C164.084 12.8359 164.329 12.7598 164.481 12.6621C164.633 12.5645 164.709 12.4316 164.709 12.2637C164.709 12.0957 164.643 11.9727 164.51 11.8945C164.381 11.8125 164.174 11.7715 163.889 11.7715C163.647 11.7715 163.463 11.7832 163.338 11.8066V11.2207C163.487 11.1816 163.696 11.1621 163.965 11.1621C164.965 11.1621 165.465 11.5215 165.465 12.2402ZM180.632 21V16.8223C180.632 16.3105 180.523 15.9277 180.304 15.6738C180.086 15.416 179.746 15.2871 179.285 15.2871C178.679 15.2871 178.232 15.4609 177.943 15.8086C177.654 16.1562 177.509 16.6914 177.509 17.4141V21H176.537V16.8223C176.537 16.3105 176.427 15.9277 176.209 15.6738C175.99 15.416 175.648 15.2871 175.183 15.2871C174.574 15.2871 174.127 15.4707 173.841 15.8379C173.56 16.2012 173.42 16.7988 173.42 17.6309V21H172.447V14.5781H173.238L173.396 15.457H173.443C173.627 15.1445 173.884 14.9004 174.216 14.7246C174.552 14.5488 174.927 14.4609 175.341 14.4609C176.345 14.4609 177.002 14.8242 177.31 15.5508H177.357C177.548 15.2148 177.826 14.9492 178.189 14.7539C178.552 14.5586 178.966 14.4609 179.431 14.4609C180.158 14.4609 180.701 14.6484 181.06 15.0234C181.423 15.3945 181.605 15.9902 181.605 16.8105V21H180.632ZM187.964 21L187.771 20.0859H187.724C187.404 20.4883 187.083 20.7617 186.763 20.9062C186.446 21.0469 186.05 21.1172 185.573 21.1172C184.937 21.1172 184.437 20.9531 184.073 20.625C183.714 20.2969 183.534 19.8301 183.534 19.2246C183.534 17.9277 184.571 17.248 186.646 17.1855L187.736 17.1504V16.752C187.736 16.248 187.626 15.877 187.407 15.6387C187.193 15.3965 186.847 15.2754 186.37 15.2754C185.835 15.2754 185.23 15.4395 184.554 15.7676L184.255 15.0234C184.571 14.8516 184.917 14.7168 185.292 14.6191C185.671 14.5215 186.05 14.4727 186.429 14.4727C187.195 14.4727 187.761 14.6426 188.128 14.9824C188.499 15.3223 188.685 15.8672 188.685 16.6172V21H187.964ZM185.767 20.3145C186.372 20.3145 186.847 20.1484 187.191 19.8164C187.538 19.4844 187.712 19.0195 187.712 18.4219V17.8418L186.739 17.8828C185.966 17.9102 185.407 18.0312 185.064 18.2461C184.724 18.457 184.554 18.7871 184.554 19.2363C184.554 19.5879 184.659 19.8555 184.87 20.0391C185.085 20.2227 185.384 20.3145 185.767 20.3145ZM187.208 13.7168C187.04 13.7168 186.876 13.6816 186.716 13.6113C186.556 13.5371 186.398 13.457 186.241 13.3711C186.089 13.2812 185.941 13.2012 185.796 13.1309C185.655 13.0566 185.519 13.0195 185.386 13.0195C185.191 13.0195 185.042 13.0781 184.941 13.1953C184.843 13.3125 184.767 13.4902 184.712 13.7285H184.138C184.189 13.2559 184.325 12.8867 184.548 12.6211C184.775 12.3516 185.066 12.2168 185.421 12.2168C185.601 12.2168 185.775 12.2539 185.943 12.3281C186.111 12.3984 186.271 12.4785 186.423 12.5684C186.575 12.6543 186.722 12.7344 186.863 12.8086C187.003 12.8789 187.136 12.9141 187.261 12.9141C187.452 12.9141 187.595 12.8574 187.689 12.7441C187.782 12.627 187.859 12.4473 187.917 12.2051H188.497C188.446 12.6777 188.31 13.0488 188.087 13.3184C187.868 13.584 187.575 13.7168 187.208 13.7168ZM195.489 21V16.8457C195.489 16.3223 195.37 15.9316 195.132 15.6738C194.893 15.416 194.52 15.2871 194.012 15.2871C193.341 15.2871 192.848 15.4688 192.536 15.832C192.223 16.1953 192.067 16.7949 192.067 17.6309V21H191.095V14.5781H191.886L192.044 15.457H192.091C192.29 15.1406 192.569 14.8965 192.929 14.7246C193.288 14.5488 193.688 14.4609 194.13 14.4609C194.903 14.4609 195.485 14.6484 195.876 15.0234C196.266 15.3945 196.462 15.9902 196.462 16.8105V21H195.489ZM204.949 21.1172C204.02 21.1172 203.299 20.832 202.787 20.2617C202.279 19.6875 202.025 18.877 202.025 17.8301C202.025 16.7559 202.283 15.9258 202.799 15.3398C203.318 14.7539 204.057 14.4609 205.014 14.4609C205.322 14.4609 205.631 14.4941 205.939 14.5605C206.248 14.627 206.49 14.7051 206.666 14.7949L206.367 15.6211C206.152 15.5352 205.918 15.4648 205.664 15.4102C205.41 15.3516 205.186 15.3223 204.99 15.3223C203.686 15.3223 203.033 16.1543 203.033 17.8184C203.033 18.6074 203.191 19.2129 203.508 19.6348C203.828 20.0566 204.301 20.2676 204.926 20.2676C205.461 20.2676 206.01 20.1523 206.572 19.9219V20.7832C206.143 21.0059 205.602 21.1172 204.949 21.1172ZM212.451 21L212.257 20.0859H212.211C211.89 20.4883 211.57 20.7617 211.25 20.9062C210.933 21.0469 210.537 21.1172 210.06 21.1172C209.423 21.1172 208.923 20.9531 208.56 20.625C208.201 20.2969 208.021 19.8301 208.021 19.2246C208.021 17.9277 209.058 17.248 211.132 17.1855L212.222 17.1504V16.752C212.222 16.248 212.113 15.877 211.894 15.6387C211.679 15.3965 211.334 15.2754 210.857 15.2754C210.322 15.2754 209.716 15.4395 209.041 15.7676L208.742 15.0234C209.058 14.8516 209.404 14.7168 209.779 14.6191C210.158 14.5215 210.537 14.4727 210.916 14.4727C211.681 14.4727 212.248 14.6426 212.615 14.9824C212.986 15.3223 213.171 15.8672 213.171 16.6172V21H212.451ZM210.254 20.3145C210.859 20.3145 211.334 20.1484 211.677 19.8164C212.025 19.4844 212.199 19.0195 212.199 18.4219V17.8418L211.226 17.8828C210.453 17.9102 209.894 18.0312 209.55 18.2461C209.211 18.457 209.041 18.7871 209.041 19.2363C209.041 19.5879 209.146 19.8555 209.357 20.0391C209.572 20.2227 209.871 20.3145 210.254 20.3145ZM210.025 13.582C210.212 13.3398 210.414 13.0469 210.629 12.7031C210.847 12.3594 211.019 12.0605 211.144 11.8066H212.328V11.9297C212.156 12.1836 211.9 12.4961 211.56 12.8672C211.22 13.2383 210.925 13.5254 210.675 13.7285H210.025V13.582ZM218.148 21.1172C217.218 21.1172 216.497 20.832 215.986 20.2617C215.478 19.6875 215.224 18.877 215.224 17.8301C215.224 16.7559 215.482 15.9258 215.997 15.3398C216.517 14.7539 217.255 14.4609 218.212 14.4609C218.521 14.4609 218.829 14.4941 219.138 14.5605C219.446 14.627 219.689 14.7051 219.864 14.7949L219.566 15.6211C219.351 15.5352 219.116 15.4648 218.863 15.4102C218.609 15.3516 218.384 15.3223 218.189 15.3223C216.884 15.3223 216.232 16.1543 216.232 17.8184C216.232 18.6074 216.39 19.2129 216.706 19.6348C217.027 20.0566 217.499 20.2676 218.124 20.2676C218.659 20.2676 219.208 20.1523 219.771 19.9219V20.7832C219.341 21.0059 218.8 21.1172 218.148 21.1172ZM229.588 20.1387H229.536C229.086 20.791 228.414 21.1172 227.52 21.1172C226.68 21.1172 226.026 20.8301 225.557 20.2559C225.092 19.6816 224.86 18.8652 224.86 17.8066C224.86 16.748 225.094 15.9258 225.563 15.3398C226.032 14.7539 226.684 14.4609 227.52 14.4609C228.391 14.4609 229.059 14.7773 229.524 15.4102H229.6C229.557 15.0859 229.536 14.7812 229.536 14.4961V13.7168H226.911V12.9609H229.536V11.8828H230.508V12.9609H231.422V13.7168H230.508V21H229.717L229.588 20.1387ZM227.643 20.3027C228.307 20.3027 228.788 20.123 229.084 19.7637C229.385 19.4004 229.536 18.8164 229.536 18.0117V17.8066C229.536 16.8965 229.383 16.248 229.079 15.8613C228.778 15.4707 228.295 15.2754 227.631 15.2754C227.061 15.2754 226.623 15.498 226.319 15.9434C226.018 16.3848 225.868 17.0098 225.868 17.8184C225.868 18.6387 226.018 19.2578 226.319 19.6758C226.62 20.0938 227.061 20.3027 227.643 20.3027ZM233.949 21H232.977V14.5781H233.949V21ZM232.895 12.8379C232.895 12.6152 232.949 12.4531 233.059 12.3516C233.168 12.2461 233.305 12.1934 233.469 12.1934C233.625 12.1934 233.76 12.2461 233.873 12.3516C233.986 12.457 234.043 12.6191 234.043 12.8379C234.043 13.0566 233.986 13.2207 233.873 13.3301C233.76 13.4355 233.625 13.4883 233.469 13.4883C233.305 13.4883 233.168 13.4355 233.059 13.3301C232.949 13.2207 232.895 13.0566 232.895 12.8379ZM239.125 21.1172C238.175 21.1172 237.425 20.8281 236.875 20.25C236.328 19.6719 236.054 18.8691 236.054 17.8418C236.054 16.8066 236.308 15.9844 236.816 15.375C237.328 14.7656 238.013 14.4609 238.873 14.4609C239.677 14.4609 240.314 14.7266 240.783 15.2578C241.252 15.7852 241.486 16.4824 241.486 17.3496V17.9648H237.062C237.082 18.7188 237.271 19.291 237.63 19.6816C237.994 20.0723 238.504 20.2676 239.16 20.2676C239.851 20.2676 240.535 20.123 241.211 19.834V20.7012C240.867 20.8496 240.541 20.9551 240.232 21.0176C239.927 21.084 239.558 21.1172 239.125 21.1172ZM238.861 15.2754C238.345 15.2754 237.933 15.4434 237.625 15.7793C237.32 16.1152 237.14 16.5801 237.086 17.1738H240.443C240.443 16.5605 240.306 16.0918 240.033 15.7676C239.759 15.4395 239.369 15.2754 238.861 15.2754ZM240.671 13.7285H240.121C239.742 13.4746 239.33 13.1504 238.884 12.7559C238.47 13.1309 238.058 13.4551 237.648 13.7285H237.097V13.5938L237.408 13.2422C237.845 12.7617 238.166 12.3711 238.369 12.0703H239.4C239.658 12.4375 240.082 12.9453 240.671 13.5938V13.7285ZM237.566 12.5859H237.009C236.541 12.2188 236.142 11.8164 235.814 11.3789V11.2559H236.822C237.025 11.6777 237.273 12.0781 237.566 12.457V12.5859ZM244.464 14.5781V18.7441C244.464 19.2676 244.583 19.6582 244.821 19.916C245.06 20.1738 245.433 20.3027 245.941 20.3027C246.613 20.3027 247.103 20.1191 247.411 19.752C247.724 19.3848 247.88 18.7852 247.88 17.9531V14.5781H248.853V21H248.05L247.909 20.1387H247.857C247.657 20.4551 247.38 20.6973 247.025 20.8652C246.673 21.0332 246.271 21.1172 245.818 21.1172C245.036 21.1172 244.45 20.9316 244.06 20.5605C243.673 20.1895 243.48 19.5957 243.48 18.7793V14.5781H244.464ZM255.799 17.7129C255.967 17.4746 256.223 17.1621 256.567 16.7754L258.641 14.5781H259.795L257.194 17.3145L259.977 21H258.799L256.532 17.9648L255.799 18.5977V21H254.838V11.8828H255.799V16.7168C255.799 16.9316 255.784 17.2637 255.752 17.7129H255.799ZM262.516 21H261.543V14.5781H262.516V21ZM261.461 12.8379C261.461 12.6152 261.516 12.4531 261.625 12.3516C261.734 12.2461 261.871 12.1934 262.035 12.1934C262.191 12.1934 262.326 12.2461 262.439 12.3516C262.553 12.457 262.609 12.6191 262.609 12.8379C262.609 13.0566 262.553 13.2207 262.439 13.3301C262.326 13.4355 262.191 13.4883 262.035 13.4883C261.871 13.4883 261.734 13.4355 261.625 13.3301C261.516 13.2207 261.461 13.0566 261.461 12.8379ZM267.691 21.1172C266.742 21.1172 265.992 20.8281 265.441 20.25C264.894 19.6719 264.621 18.8691 264.621 17.8418C264.621 16.8066 264.875 15.9844 265.382 15.375C265.894 14.7656 266.58 14.4609 267.439 14.4609C268.244 14.4609 268.88 14.7266 269.349 15.2578C269.818 15.7852 270.052 16.4824 270.052 17.3496V17.9648H265.629C265.648 18.7188 265.837 19.291 266.197 19.6816C266.56 20.0723 267.07 20.2676 267.726 20.2676C268.418 20.2676 269.101 20.123 269.777 19.834V20.7012C269.433 20.8496 269.107 20.9551 268.798 21.0176C268.494 21.084 268.125 21.1172 267.691 21.1172ZM267.427 15.2754C266.912 15.2754 266.5 15.4434 266.191 15.7793C265.886 16.1152 265.707 16.5801 265.652 17.1738H269.009C269.009 16.5605 268.873 16.0918 268.599 15.7676C268.326 15.4395 267.935 15.2754 267.427 15.2754ZM266.824 22.418C266.824 22.1953 266.88 22.0312 266.994 21.9258C267.111 21.8203 267.252 21.7676 267.416 21.7676C267.572 21.7676 267.707 21.8203 267.82 21.9258C267.933 22.0312 267.99 22.1953 267.99 22.418C267.99 22.6328 267.933 22.793 267.82 22.8984C267.707 23.0078 267.572 23.0625 267.416 23.0625C267.252 23.0625 267.111 23.0078 266.994 22.8984C266.88 22.793 266.824 22.6328 266.824 22.418ZM265.429 13.5938C265.925 13.0625 266.273 12.6719 266.472 12.4219C266.671 12.1719 266.816 11.9668 266.906 11.8066H267.879C267.964 11.9707 268.113 12.1836 268.324 12.4453C268.539 12.7031 268.89 13.0859 269.379 13.5938V13.7285H268.681C268.337 13.5137 267.906 13.1504 267.386 12.6387C266.855 13.1621 266.427 13.5254 266.103 13.7285H265.429V13.5938ZM276.511 21V16.8457C276.511 16.3223 276.392 15.9316 276.154 15.6738C275.915 15.416 275.542 15.2871 275.034 15.2871C274.362 15.2871 273.87 15.4688 273.558 15.832C273.245 16.1953 273.089 16.7949 273.089 17.6309V21H272.116V14.5781H272.907L273.066 15.457H273.112C273.312 15.1406 273.591 14.8965 273.95 14.7246C274.31 14.5488 274.71 14.4609 275.152 14.4609C275.925 14.4609 276.507 14.6484 276.898 15.0234C277.288 15.3945 277.484 15.9902 277.484 16.8105V21H276.511ZM287.547 19.248C287.547 19.8457 287.325 20.3066 286.879 20.6309C286.434 20.9551 285.809 21.1172 285.004 21.1172C284.153 21.1172 283.489 20.9824 283.012 20.7129V19.8105C283.321 19.9668 283.651 20.0898 284.002 20.1797C284.358 20.2695 284.7 20.3145 285.028 20.3145C285.536 20.3145 285.926 20.2344 286.2 20.0742C286.473 19.9102 286.61 19.6621 286.61 19.3301C286.61 19.0801 286.5 18.8672 286.282 18.6914C286.067 18.5117 285.645 18.3008 285.016 18.0586C284.418 17.8359 283.993 17.6426 283.739 17.4785C283.489 17.3105 283.301 17.1211 283.176 16.9102C283.055 16.6992 282.995 16.4473 282.995 16.1543C282.995 15.6309 283.207 15.2188 283.633 14.918C284.059 14.6133 284.643 14.4609 285.385 14.4609C286.077 14.4609 286.752 14.6016 287.413 14.8828L287.067 15.6738C286.422 15.4082 285.838 15.2754 285.315 15.2754C284.854 15.2754 284.506 15.3477 284.272 15.4922C284.038 15.6367 283.92 15.8359 283.92 16.0898C283.92 16.2617 283.963 16.4082 284.049 16.5293C284.139 16.6504 284.282 16.7656 284.477 16.875C284.672 16.9844 285.047 17.1426 285.602 17.3496C286.364 17.627 286.877 17.9062 287.143 18.1875C287.413 18.4688 287.547 18.8223 287.547 19.248ZM293.484 21L293.291 20.0859H293.244C292.924 20.4883 292.604 20.7617 292.283 20.9062C291.967 21.0469 291.57 21.1172 291.094 21.1172C290.457 21.1172 289.957 20.9531 289.594 20.625C289.234 20.2969 289.055 19.8301 289.055 19.2246C289.055 17.9277 290.092 17.248 292.166 17.1855L293.256 17.1504V16.752C293.256 16.248 293.146 15.877 292.928 15.6387C292.713 15.3965 292.367 15.2754 291.891 15.2754C291.355 15.2754 290.75 15.4395 290.074 15.7676L289.775 15.0234C290.092 14.8516 290.438 14.7168 290.812 14.6191C291.191 14.5215 291.57 14.4727 291.949 14.4727C292.715 14.4727 293.281 14.6426 293.648 14.9824C294.02 15.3223 294.205 15.8672 294.205 16.6172V21H293.484ZM291.287 20.3145C291.893 20.3145 292.367 20.1484 292.711 19.8164C293.059 19.4844 293.232 19.0195 293.232 18.4219V17.8418L292.26 17.8828C291.486 17.9102 290.928 18.0312 290.584 18.2461C290.244 18.457 290.074 18.7871 290.074 19.2363C290.074 19.5879 290.18 19.8555 290.391 20.0391C290.605 20.2227 290.904 20.3145 291.287 20.3145ZM297.529 14.5781V18.7441C297.529 19.2676 297.648 19.6582 297.886 19.916C298.125 20.1738 298.498 20.3027 299.005 20.3027C299.677 20.3027 300.168 20.1191 300.476 19.752C300.789 19.3848 300.945 18.7852 300.945 17.9531V14.5781H301.918V21H301.115L300.974 20.1387H300.921C300.722 20.4551 300.445 20.6973 300.089 20.8652C299.738 21.0332 299.336 21.1172 298.882 21.1172C298.101 21.1172 297.515 20.9316 297.125 20.5605C296.738 20.1895 296.545 19.5957 296.545 18.7793V14.5781H297.529ZM19.7051 32.6172C19.7051 32.1445 19.8145 31.7852 20.0332 31.5391C20.2559 31.293 20.5781 31.1699 21 31.1699C21.4102 31.1699 21.7285 31.291 21.9551 31.5332C22.1816 31.7754 22.2949 32.1367 22.2949 32.6172C22.2949 33.082 22.1816 33.4414 21.9551 33.6953C21.7324 33.9453 21.4141 34.0703 21 34.0703C20.582 34.0703 20.2617 33.9434 20.0391 33.6895C19.8164 33.4316 19.7051 33.0742 19.7051 32.6172ZM34.8457 29.2012C33.9043 29.2012 33.1602 29.5156 32.6133 30.1445C32.0703 30.7695 31.7988 31.627 31.7988 32.7168C31.7988 33.8379 32.0605 34.7051 32.584 35.3184C33.1113 35.9277 33.8613 36.2324 34.834 36.2324C35.4316 36.2324 36.1133 36.125 36.8789 35.9102V36.7832C36.2852 37.0059 35.5527 37.1172 34.6816 37.1172C33.4199 37.1172 32.4453 36.7344 31.7578 35.9688C31.0742 35.2031 30.7324 34.1152 30.7324 32.7051C30.7324 31.8223 30.8965 31.0488 31.2246 30.3848C31.5566 29.7207 32.0332 29.209 32.6543 28.8496C33.2793 28.4902 34.0137 28.3105 34.8574 28.3105C35.7559 28.3105 36.541 28.4746 37.2129 28.8027L36.791 29.6582C36.1426 29.3535 35.4941 29.2012 34.8457 29.2012ZM44.5445 33.7832C44.5445 34.8301 44.2809 35.6484 43.7535 36.2383C43.2262 36.8242 42.4977 37.1172 41.568 37.1172C40.9937 37.1172 40.484 36.9824 40.0387 36.7129C39.5934 36.4434 39.2496 36.0566 39.0074 35.5527C38.7652 35.0488 38.6441 34.459 38.6441 33.7832C38.6441 32.7363 38.9059 31.9219 39.4293 31.3398C39.9527 30.7539 40.6793 30.4609 41.609 30.4609C42.5074 30.4609 43.2203 30.7598 43.7477 31.3574C44.2789 31.9551 44.5445 32.7637 44.5445 33.7832ZM39.652 33.7832C39.652 34.6035 39.816 35.2285 40.1441 35.6582C40.4723 36.0879 40.9547 36.3027 41.5914 36.3027C42.2281 36.3027 42.7105 36.0898 43.0387 35.6641C43.3707 35.2344 43.5367 34.6074 43.5367 33.7832C43.5367 32.9668 43.3707 32.3477 43.0387 31.9258C42.7105 31.5 42.2242 31.2871 41.5797 31.2871C40.943 31.2871 40.4625 31.4961 40.1383 31.9141C39.8141 32.332 39.652 32.9551 39.652 33.7832ZM40.777 29.582C40.9645 29.3398 41.1656 29.0469 41.3805 28.7031C41.5992 28.3594 41.7711 28.0605 41.8961 27.8066H43.0797V27.9297C42.9078 28.1836 42.652 28.4961 42.3121 28.8672C41.9723 29.2383 41.6773 29.5254 41.4273 29.7285H40.777V29.582ZM54.5438 36.1387H54.491C54.0418 36.791 53.3699 37.1172 52.4754 37.1172C51.6355 37.1172 50.9813 36.8301 50.5125 36.2559C50.0477 35.6816 49.8152 34.8652 49.8152 33.8066C49.8152 32.748 50.0496 31.9258 50.5184 31.3398C50.9871 30.7539 51.6395 30.4609 52.4754 30.4609C53.3465 30.4609 54.0145 30.7773 54.4793 31.4102H54.5555C54.5125 31.0859 54.491 30.7812 54.491 30.4961V29.7168H51.866V28.9609H54.491V27.8828H55.4637V28.9609H56.3777V29.7168H55.4637V37H54.6727L54.5438 36.1387ZM52.5984 36.3027C53.2625 36.3027 53.743 36.123 54.0398 35.7637C54.3406 35.4004 54.491 34.8164 54.491 34.0117V33.8066C54.491 32.8965 54.3387 32.248 54.034 31.8613C53.7332 31.4707 53.2508 31.2754 52.5867 31.2754C52.0164 31.2754 51.5789 31.498 51.2742 31.9434C50.9734 32.3848 50.823 33.0098 50.823 33.8184C50.823 34.6387 50.9734 35.2578 51.2742 35.6758C51.575 36.0938 52.0164 36.3027 52.5984 36.3027ZM63.475 33.7832C63.475 34.8301 63.2113 35.6484 62.684 36.2383C62.1566 36.8242 61.4281 37.1172 60.4984 37.1172C59.9242 37.1172 59.4145 36.9824 58.9691 36.7129C58.5238 36.4434 58.1801 36.0566 57.9379 35.5527C57.6957 35.0488 57.5746 34.459 57.5746 33.7832C57.5746 32.7363 57.8363 31.9219 58.3598 31.3398C58.8832 30.7539 59.6098 30.4609 60.5395 30.4609C61.4379 30.4609 62.1508 30.7598 62.6781 31.3574C63.2094 31.9551 63.475 32.7637 63.475 33.7832ZM58.5824 33.7832C58.5824 34.6035 58.7465 35.2285 59.0746 35.6582C59.4027 36.0879 59.8852 36.3027 60.5219 36.3027C61.1586 36.3027 61.641 36.0898 61.9691 35.6641C62.3012 35.2344 62.4672 34.6074 62.4672 33.7832C62.4672 32.9668 62.3012 32.3477 61.9691 31.9258C61.641 31.5 61.1547 31.2871 60.5102 31.2871C59.8734 31.2871 59.393 31.4961 59.0687 31.9141C58.7445 32.332 58.5824 32.9551 58.5824 33.7832ZM59.9477 38.418C59.9477 38.1953 60.0043 38.0312 60.1176 37.9258C60.2348 37.8203 60.3754 37.7676 60.5395 37.7676C60.6957 37.7676 60.8305 37.8203 60.9437 37.9258C61.057 38.0312 61.1137 38.1953 61.1137 38.418C61.1137 38.6328 61.057 38.793 60.9437 38.8984C60.8305 39.0078 60.6957 39.0625 60.5395 39.0625C60.3754 39.0625 60.2348 39.0078 60.1176 38.8984C60.0043 38.793 59.9477 38.6328 59.9477 38.418ZM58.5531 29.5938C59.0492 29.0625 59.3969 28.6719 59.5961 28.4219C59.7953 28.1719 59.9398 27.9668 60.0297 27.8066H61.0023C61.0883 27.9707 61.2367 28.1836 61.4477 28.4453C61.6625 28.7031 62.0141 29.0859 62.5023 29.5938V29.7285H61.8051C61.4613 29.5137 61.0297 29.1504 60.5102 28.6387C59.9789 29.1621 59.5512 29.5254 59.227 29.7285H58.5531V29.5938ZM73.4742 36.1387H73.4215C72.9723 36.791 72.3004 37.1172 71.4059 37.1172C70.566 37.1172 69.9117 36.8301 69.443 36.2559C68.9781 35.6816 68.7457 34.8652 68.7457 33.8066C68.7457 32.748 68.9801 31.9258 69.4488 31.3398C69.9176 30.7539 70.5699 30.4609 71.4059 30.4609C72.277 30.4609 72.9449 30.7773 73.4098 31.4102H73.4859L73.4449 30.9473L73.4215 30.4961V27.8828H74.3941V37H73.6031L73.4742 36.1387ZM71.5289 36.3027C72.193 36.3027 72.6734 36.123 72.9703 35.7637C73.2711 35.4004 73.4215 34.8164 73.4215 34.0117V33.8066C73.4215 32.8965 73.2691 32.248 72.9645 31.8613C72.6637 31.4707 72.1813 31.2754 71.5172 31.2754C70.9469 31.2754 70.5094 31.498 70.2047 31.9434C69.9039 32.3848 69.7535 33.0098 69.7535 33.8184C69.7535 34.6387 69.9039 35.2578 70.2047 35.6758C70.5055 36.0938 70.9469 36.3027 71.5289 36.3027ZM80.8117 37L80.6184 36.0859H80.5715C80.2512 36.4883 79.9309 36.7617 79.6105 36.9062C79.2941 37.0469 78.8977 37.1172 78.4211 37.1172C77.7844 37.1172 77.2844 36.9531 76.9211 36.625C76.5617 36.2969 76.382 35.8301 76.382 35.2246C76.382 33.9277 77.4191 33.248 79.4934 33.1855L80.5832 33.1504V32.752C80.5832 32.248 80.4738 31.877 80.2551 31.6387C80.0402 31.3965 79.6945 31.2754 79.218 31.2754C78.6828 31.2754 78.0773 31.4395 77.4016 31.7676L77.1027 31.0234C77.4191 30.8516 77.7648 30.7168 78.1398 30.6191C78.5187 30.5215 78.8977 30.4727 79.2766 30.4727C80.0422 30.4727 80.6086 30.6426 80.9758 30.9824C81.3469 31.3223 81.5324 31.8672 81.5324 32.6172V37H80.8117ZM78.6145 36.3145C79.2199 36.3145 79.6945 36.1484 80.0383 35.8164C80.3859 35.4844 80.5598 35.0195 80.5598 34.4219V33.8418L79.5871 33.8828C78.8137 33.9102 78.2551 34.0312 77.9113 34.2461C77.5715 34.457 77.4016 34.7871 77.4016 35.2363C77.4016 35.5879 77.507 35.8555 77.718 36.0391C77.9328 36.2227 78.2316 36.3145 78.6145 36.3145ZM79.7687 29.7285H79.1242C78.8703 29.5254 78.5695 29.2363 78.2219 28.8613C77.8742 28.4863 77.6223 28.1758 77.466 27.9297V27.8066H78.6555C78.7805 28.0762 78.9543 28.3887 79.177 28.7441C79.3996 29.0957 79.5969 29.375 79.7687 29.582V29.7285ZM84.9148 37H83.9422V30.5781H84.9148V37ZM83.8602 28.8379C83.8602 28.6152 83.9148 28.4531 84.0242 28.3516C84.1336 28.2461 84.2703 28.1934 84.4344 28.1934C84.5906 28.1934 84.7254 28.2461 84.8387 28.3516C84.952 28.457 85.0086 28.6191 85.0086 28.8379C85.0086 29.0566 84.952 29.2207 84.8387 29.3301C84.7254 29.4355 84.5906 29.4883 84.4344 29.4883C84.2703 29.4883 84.1336 29.4355 84.0242 29.3301C83.9148 29.2207 83.8602 29.0566 83.8602 28.8379ZM91.8672 37H90.8945V30.5781H91.8672V37ZM90.8535 29.582C91.041 29.3398 91.2422 29.0469 91.457 28.7031C91.6758 28.3594 91.8477 28.0605 91.9727 27.8066H93.1562V27.9297C92.9844 28.1836 92.7285 28.4961 92.3887 28.8672C92.0488 29.2383 91.7539 29.5254 91.5039 29.7285H90.8535V29.582ZM96.4039 36.3145C96.5758 36.3145 96.7418 36.3027 96.902 36.2793C97.0621 36.252 97.1891 36.2246 97.2828 36.1973V36.9414C97.1773 36.9922 97.0211 37.0332 96.8141 37.0645C96.6109 37.0996 96.4273 37.1172 96.2633 37.1172C95.0211 37.1172 94.4 36.4629 94.4 35.1543V31.334H93.4801V30.8652L94.4 30.4609L94.8102 29.0898H95.3727V30.5781H97.2359V31.334H95.3727V35.1133C95.3727 35.5 95.4645 35.7969 95.648 36.0039C95.8316 36.2109 96.0836 36.3145 96.4039 36.3145ZM106.884 37V32.8457C106.884 32.3223 106.764 31.9316 106.526 31.6738C106.288 31.416 105.915 31.2871 105.407 31.2871C104.735 31.2871 104.243 31.4688 103.93 31.832C103.618 32.1953 103.462 32.7949 103.462 33.6309V37H102.489V30.5781H103.28L103.438 31.457H103.485C103.684 31.1406 103.964 30.8965 104.323 30.7246C104.682 30.5488 105.083 30.4609 105.524 30.4609C106.298 30.4609 106.88 30.6484 107.27 31.0234C107.661 31.3945 107.856 31.9902 107.856 32.8105V37H106.884ZM114.655 37V32.8457C114.655 32.3223 114.536 31.9316 114.297 31.6738C114.059 31.416 113.686 31.2871 113.178 31.2871C112.502 31.2871 112.008 31.4707 111.696 31.8379C111.387 32.2051 111.233 32.8066 111.233 33.6426V37H110.26V27.8828H111.233V30.6426C111.233 30.9746 111.217 31.25 111.186 31.4688H111.245C111.436 31.1602 111.707 30.918 112.059 30.7422C112.414 30.5625 112.819 30.4727 113.272 30.4727C114.057 30.4727 114.645 30.6602 115.036 31.0352C115.43 31.4062 115.627 31.998 115.627 32.8105V37H114.655ZM121.98 37L121.787 36.0859H121.74C121.42 36.4883 121.1 36.7617 120.779 36.9062C120.463 37.0469 120.066 37.1172 119.59 37.1172C118.953 37.1172 118.453 36.9531 118.09 36.625C117.73 36.2969 117.551 35.8301 117.551 35.2246C117.551 33.9277 118.588 33.248 120.662 33.1855L121.752 33.1504V32.752C121.752 32.248 121.643 31.877 121.424 31.6387C121.209 31.3965 120.863 31.2754 120.387 31.2754C119.852 31.2754 119.246 31.4395 118.57 31.7676L118.271 31.0234C118.588 30.8516 118.934 30.7168 119.309 30.6191C119.688 30.5215 120.066 30.4727 120.445 30.4727C121.211 30.4727 121.777 30.6426 122.145 30.9824C122.516 31.3223 122.701 31.8672 122.701 32.6172V37H121.98ZM119.783 36.3145C120.389 36.3145 120.863 36.1484 121.207 35.8164C121.555 35.4844 121.729 35.0195 121.729 34.4219V33.8418L120.756 33.8828C119.982 33.9102 119.424 34.0312 119.08 34.2461C118.74 34.457 118.57 34.7871 118.57 35.2363C118.57 35.5879 118.676 35.8555 118.887 36.0391C119.102 36.2227 119.4 36.3145 119.783 36.3145ZM122.098 29.7285H121.547C121.109 29.4355 120.697 29.1113 120.311 28.7559C119.865 29.1504 119.453 29.4746 119.074 29.7285H118.523V29.582L118.834 29.2305C119.271 28.75 119.592 28.3594 119.795 28.0586H120.826C121.084 28.4258 121.508 28.9336 122.098 29.582V29.7285ZM121.629 28.4453C121.914 28.0898 122.162 27.6934 122.373 27.2559H123.381V27.3789C123.057 27.8086 122.66 28.2109 122.191 28.5859H121.629V28.4453ZM127.185 36.3145C127.357 36.3145 127.523 36.3027 127.683 36.2793C127.843 36.252 127.97 36.2246 128.064 36.1973V36.9414C127.959 36.9922 127.802 37.0332 127.595 37.0645C127.392 37.0996 127.209 37.1172 127.045 37.1172C125.802 37.1172 125.181 36.4629 125.181 35.1543V31.334H124.261V30.8652L125.181 30.4609L125.591 29.0898H126.154V30.5781H128.017V31.334H126.154V35.1133C126.154 35.5 126.246 35.7969 126.429 36.0039C126.613 36.2109 126.865 36.3145 127.185 36.3145ZM132.925 33.3379C132.925 31.6543 133.251 30.3965 133.903 29.5645C134.559 28.7285 135.528 28.3105 136.809 28.3105C137.251 28.3105 137.598 28.3477 137.852 28.4219V29.2598C137.552 29.1621 137.208 29.1133 136.821 29.1133C135.903 29.1133 135.202 29.4004 134.718 29.9746C134.233 30.5449 133.968 31.4434 133.921 32.6699H133.991C134.421 31.998 135.1 31.6621 136.03 31.6621C136.8 31.6621 137.405 31.8945 137.846 32.3594C138.292 32.8242 138.514 33.4551 138.514 34.252C138.514 35.1426 138.27 35.8438 137.782 36.3555C137.298 36.8633 136.641 37.1172 135.813 37.1172C134.927 37.1172 134.223 36.7852 133.704 36.1211C133.184 35.4531 132.925 34.5254 132.925 33.3379ZM135.802 36.291C136.356 36.291 136.786 36.1172 137.091 35.7695C137.399 35.418 137.554 34.9121 137.554 34.252C137.554 33.6855 137.411 33.2402 137.126 32.916C136.841 32.5918 136.415 32.4297 135.848 32.4297C135.497 32.4297 135.175 32.502 134.882 32.6465C134.589 32.791 134.354 32.9902 134.179 33.2441C134.007 33.498 133.921 33.7617 133.921 34.0352C133.921 34.4375 133.999 34.8125 134.155 35.1602C134.311 35.5078 134.532 35.7832 134.817 35.9863C135.106 36.1895 135.434 36.291 135.802 36.291ZM139.998 34.2285V33.3379H142.875V34.2285H139.998ZM147.963 37H147.014V30.8945C147.014 30.3867 147.029 29.9062 147.061 29.4531C146.979 29.5352 146.887 29.6211 146.785 29.7109C146.684 29.8008 146.219 30.1816 145.391 30.8535L144.875 30.1855L147.143 28.4336H147.963V37ZM157.304 32.7051C157.304 34.1855 157.07 35.291 156.601 36.0215C156.136 36.752 155.423 37.1172 154.462 37.1172C153.541 37.1172 152.839 36.7441 152.359 35.998C151.879 35.248 151.638 34.1504 151.638 32.7051C151.638 31.2129 151.871 30.1055 152.336 29.3828C152.8 28.6602 153.509 28.2988 154.462 28.2988C155.392 28.2988 156.097 28.6758 156.578 29.4297C157.062 30.1836 157.304 31.2754 157.304 32.7051ZM152.623 32.7051C152.623 33.9512 152.769 34.8594 153.062 35.4297C153.355 35.9961 153.822 36.2793 154.462 36.2793C155.111 36.2793 155.58 35.9922 155.869 35.418C156.162 34.8398 156.308 33.9355 156.308 32.7051C156.308 31.4746 156.162 30.5742 155.869 30.0039C155.58 29.4297 155.111 29.1426 154.462 29.1426C153.822 29.1426 153.355 29.4258 153.062 29.9922C152.769 30.5547 152.623 31.459 152.623 32.7051ZM163.817 33.7129C163.985 33.4746 164.241 33.1621 164.585 32.7754L166.659 30.5781H167.813L165.212 33.3145L167.995 37H166.817L164.55 33.9648L163.817 34.5977V37H162.856V27.8828H163.817V32.7168C163.817 32.9316 163.802 33.2637 163.77 33.7129H163.817ZM168.541 30.5781H169.584L170.991 34.2402C171.299 35.0762 171.491 35.6797 171.565 36.0508H171.612C171.663 35.8516 171.768 35.5117 171.928 35.0312C172.092 34.5469 172.623 33.0625 173.522 30.5781H174.565L171.805 37.8906C171.532 38.6133 171.211 39.125 170.844 39.4258C170.481 39.7305 170.034 39.8828 169.502 39.8828C169.205 39.8828 168.913 39.8496 168.623 39.7832V39.0039C168.838 39.0508 169.079 39.0742 169.344 39.0742C170.012 39.0742 170.489 38.6992 170.774 37.9492L171.131 37.0352L168.541 30.5781ZM170.938 29.582C171.125 29.3398 171.327 29.0469 171.541 28.7031C171.76 28.3594 171.932 28.0605 172.057 27.8066H173.241V27.9297C173.069 28.1836 172.813 28.4961 172.473 28.8672C172.133 29.2383 171.838 29.5254 171.588 29.7285H170.938V29.582ZM181.599 36.3145C181.771 36.3145 181.937 36.3027 182.097 36.2793C182.257 36.252 182.384 36.2246 182.478 36.1973V36.9414C182.373 36.9922 182.216 37.0332 182.009 37.0645C181.806 37.0996 181.623 37.1172 181.459 37.1172C180.216 37.1172 179.595 36.4629 179.595 35.1543V31.334H178.675V30.8652L179.595 30.4609L180.005 29.0898H180.568V30.5781H182.431V31.334H180.568V35.1133C180.568 35.5 180.66 35.7969 180.843 36.0039C181.027 36.2109 181.279 36.3145 181.599 36.3145ZM185.081 30.5898V34.7441C185.081 35.2676 185.2 35.6582 185.439 35.916C185.677 36.1738 186.05 36.3027 186.558 36.3027C187.23 36.3027 187.72 36.1191 188.029 35.752C188.341 35.3848 188.497 34.7852 188.497 33.9531V30.5898H189.47V31.2988C189.79 31.2559 190.023 31.1094 190.167 30.8594C190.312 30.6094 190.384 30.1836 190.384 29.582H191.427L191.515 29.7168C191.39 30.4434 191.155 30.9941 190.812 31.3691C190.468 31.7402 190.021 31.9531 189.47 32.0078V37H188.667L188.527 36.1387H188.474C188.271 36.459 187.991 36.7031 187.636 36.8711C187.284 37.0352 186.892 37.1172 186.458 37.1172C185.665 37.1172 185.073 36.9316 184.683 36.5605C184.292 36.1895 184.097 35.5957 184.097 34.7793V30.5898H185.081ZM186.025 38.418C186.025 38.1953 186.081 38.0312 186.195 37.9258C186.312 37.8203 186.452 37.7676 186.616 37.7676C186.773 37.7676 186.907 37.8203 187.021 37.9258C187.134 38.0312 187.191 38.1953 187.191 38.418C187.191 38.6328 187.134 38.793 187.021 38.8984C186.907 39.0078 186.773 39.0625 186.616 39.0625C186.452 39.0625 186.312 39.0078 186.195 38.8984C186.081 38.793 186.025 38.6328 186.025 38.418ZM19.7051 48.6172C19.7051 48.1445 19.8145 47.7852 20.0332 47.5391C20.2559 47.293 20.5781 47.1699 21 47.1699C21.4102 47.1699 21.7285 47.291 21.9551 47.5332C22.1816 47.7754 22.2949 48.1367 22.2949 48.6172C22.2949 49.082 22.1816 49.4414 21.9551 49.6953C21.7324 49.9453 21.4141 50.0703 21 50.0703C20.582 50.0703 20.2617 49.9434 20.0391 49.6895C19.8164 49.4316 19.7051 49.0742 19.7051 48.6172ZM36.6094 46.9297C36.6094 47.7969 36.3125 48.4648 35.7188 48.9336C35.1289 49.3984 34.2832 49.6309 33.1816 49.6309H32.1738V53H31.1777V44.4336H33.3984C35.5391 44.4336 36.6094 45.2656 36.6094 46.9297ZM32.1738 48.7754H33.0703C33.9531 48.7754 34.5918 48.6328 34.9863 48.3477C35.3809 48.0625 35.5781 47.6055 35.5781 46.9766C35.5781 46.4102 35.3926 45.9883 35.0215 45.7109C34.6504 45.4336 34.0723 45.2949 33.2871 45.2949H32.1738V48.7754ZM43.0562 53V48.8457C43.0562 48.3223 42.9371 47.9316 42.6988 47.6738C42.4605 47.416 42.0875 47.2871 41.5797 47.2871C40.9039 47.2871 40.4098 47.4707 40.0973 47.8379C39.7887 48.2051 39.6344 48.8066 39.6344 49.6426V53H38.6617V43.8828H39.6344V46.6426C39.6344 46.9746 39.6187 47.25 39.5875 47.4688H39.6461C39.8375 47.1602 40.109 46.918 40.4605 46.7422C40.816 46.5625 41.2203 46.4727 41.6734 46.4727C42.4586 46.4727 43.0465 46.6602 43.4371 47.0352C43.8316 47.4062 44.0289 47.998 44.0289 48.8105V53H43.0562ZM50.382 53L50.1887 52.0859H50.1418C49.8215 52.4883 49.5012 52.7617 49.1809 52.9062C48.8645 53.0469 48.468 53.1172 47.9914 53.1172C47.3547 53.1172 46.8547 52.9531 46.4914 52.625C46.132 52.2969 45.9523 51.8301 45.9523 51.2246C45.9523 49.9277 46.9895 49.248 49.0637 49.1855L50.1535 49.1504V48.752C50.1535 48.248 50.0441 47.877 49.8254 47.6387C49.6105 47.3965 49.2648 47.2754 48.7883 47.2754C48.2531 47.2754 47.6477 47.4395 46.9719 47.7676L46.673 47.0234C46.9895 46.8516 47.3352 46.7168 47.7102 46.6191C48.0891 46.5215 48.468 46.4727 48.8469 46.4727C49.6125 46.4727 50.1789 46.6426 50.5461 46.9824C50.9172 47.3223 51.1027 47.8672 51.1027 48.6172V53H50.382ZM48.1848 52.3145C48.7902 52.3145 49.2648 52.1484 49.6086 51.8164C49.9562 51.4844 50.1301 51.0195 50.1301 50.4219V49.8418L49.1574 49.8828C48.384 49.9102 47.8254 50.0312 47.4816 50.2461C47.1418 50.457 46.9719 50.7871 46.9719 51.2363C46.9719 51.5879 47.0773 51.8555 47.2883 52.0391C47.5031 52.2227 47.802 52.3145 48.1848 52.3145ZM50.048 44.2402C50.048 44.7871 49.7238 45.127 49.0754 45.2598L49.0168 45.9219H48.4016L48.3312 44.8906C48.6672 44.8359 48.9113 44.7598 49.0637 44.6621C49.216 44.5645 49.2922 44.4316 49.2922 44.2637C49.2922 44.0957 49.2258 43.9727 49.093 43.8945C48.9641 43.8125 48.757 43.7715 48.4719 43.7715C48.2297 43.7715 48.0461 43.7832 47.9211 43.8066V43.2207C48.0695 43.1816 48.2785 43.1621 48.548 43.1621C49.548 43.1621 50.048 43.5215 50.048 44.2402ZM54.4852 53H53.5125V46.5781H54.4852V53ZM53.4305 44.8379C53.4305 44.6152 53.4852 44.4531 53.5945 44.3516C53.7039 44.2461 53.8406 44.1934 54.0047 44.1934C54.1609 44.1934 54.2957 44.2461 54.409 44.3516C54.5223 44.457 54.5789 44.6191 54.5789 44.8379C54.5789 45.0566 54.5223 45.2207 54.409 45.3301C54.2957 45.4355 54.1609 45.4883 54.0047 45.4883C53.8406 45.4883 53.7039 45.4355 53.5945 45.3301C53.4852 45.2207 53.4305 45.0566 53.4305 44.8379ZM63.4531 46.4727C64.2969 46.4727 64.9512 46.7617 65.416 47.3398C65.8848 47.9141 66.1191 48.7285 66.1191 49.7832C66.1191 50.8379 65.8828 51.6582 65.4102 52.2441C64.9414 52.8262 64.2891 53.1172 63.4531 53.1172C63.0352 53.1172 62.6523 53.041 62.3047 52.8887C61.9609 52.7324 61.6719 52.4941 61.4375 52.1738H61.3672L61.1621 53H60.4648V43.8828H61.4375V46.0977C61.4375 46.5938 61.4219 47.0391 61.3906 47.4336H61.4375C61.8906 46.793 62.5625 46.4727 63.4531 46.4727ZM63.3125 47.2871C62.6484 47.2871 62.1699 47.4785 61.877 47.8613C61.584 48.2402 61.4375 48.8809 61.4375 49.7832C61.4375 50.6855 61.5879 51.332 61.8887 51.7227C62.1895 52.1094 62.6719 52.3027 63.3359 52.3027C63.9336 52.3027 64.3789 52.0859 64.6719 51.6523C64.9648 51.2148 65.1113 50.5879 65.1113 49.7715C65.1113 48.9355 64.9648 48.3125 64.6719 47.9023C64.3789 47.4922 63.9258 47.2871 63.3125 47.2871ZM72.1734 53L71.9801 52.0859H71.9332C71.6129 52.4883 71.2926 52.7617 70.9723 52.9062C70.6559 53.0469 70.2594 53.1172 69.7828 53.1172C69.1461 53.1172 68.6461 52.9531 68.2828 52.625C67.9234 52.2969 67.7438 51.8301 67.7438 51.2246C67.7438 49.9277 68.7809 49.248 70.8551 49.1855L71.9449 49.1504V48.752C71.9449 48.248 71.8355 47.877 71.6168 47.6387C71.402 47.3965 71.0563 47.2754 70.5797 47.2754C70.0445 47.2754 69.4391 47.4395 68.7633 47.7676L68.4645 47.0234C68.7809 46.8516 69.1266 46.7168 69.5016 46.6191C69.8805 46.5215 70.2594 46.4727 70.6383 46.4727C71.4039 46.4727 71.9703 46.6426 72.3375 46.9824C72.7086 47.3223 72.8941 47.8672 72.8941 48.6172V53H72.1734ZM69.9762 52.3145C70.5816 52.3145 71.0563 52.1484 71.4 51.8164C71.7477 51.4844 71.9215 51.0195 71.9215 50.4219V49.8418L70.9488 49.8828C70.1754 49.9102 69.6168 50.0312 69.273 50.2461C68.9332 50.457 68.7633 50.7871 68.7633 51.2363C68.7633 51.5879 68.8688 51.8555 69.0797 52.0391C69.2945 52.2227 69.5934 52.3145 69.9762 52.3145ZM80.8469 49.7832C80.8469 50.8301 80.5832 51.6484 80.0559 52.2383C79.5285 52.8242 78.8 53.1172 77.8703 53.1172C77.2961 53.1172 76.7863 52.9824 76.341 52.7129C75.8957 52.4434 75.552 52.0566 75.3098 51.5527C75.0676 51.0488 74.9465 50.459 74.9465 49.7832C74.9465 48.7363 75.2082 47.9219 75.7316 47.3398C76.2551 46.7539 76.9816 46.4609 77.9113 46.4609C78.8098 46.4609 79.5227 46.7598 80.05 47.3574C80.5812 47.9551 80.8469 48.7637 80.8469 49.7832ZM75.9543 49.7832C75.9543 50.6035 76.1184 51.2285 76.4465 51.6582C76.7746 52.0879 77.257 52.3027 77.8937 52.3027C78.5305 52.3027 79.0129 52.0898 79.341 51.6641C79.673 51.2344 79.8391 50.6074 79.8391 49.7832C79.8391 48.9668 79.673 48.3477 79.341 47.9258C79.0129 47.5 78.5266 47.2871 77.882 47.2871C77.2453 47.2871 76.7648 47.4961 76.4406 47.9141C76.1164 48.332 75.9543 48.9551 75.9543 49.7832ZM91.7309 46.5781V47.1934L90.5414 47.334C90.6508 47.4707 90.7484 47.6504 90.8344 47.873C90.9203 48.0918 90.9633 48.3398 90.9633 48.6172C90.9633 49.2461 90.7484 49.748 90.3187 50.123C89.8891 50.498 89.2992 50.6855 88.5492 50.6855C88.3578 50.6855 88.1781 50.6699 88.0102 50.6387C87.5961 50.8574 87.3891 51.1328 87.3891 51.4648C87.3891 51.6406 87.4613 51.7715 87.6059 51.8574C87.7504 51.9395 87.9984 51.9805 88.35 51.9805H89.4867C90.182 51.9805 90.7152 52.127 91.0863 52.4199C91.4613 52.7129 91.6488 53.1387 91.6488 53.6973C91.6488 54.4082 91.3637 54.9492 90.7934 55.3203C90.223 55.6953 89.391 55.8828 88.2973 55.8828C87.4574 55.8828 86.809 55.7266 86.352 55.4141C85.8988 55.1016 85.6723 54.6602 85.6723 54.0898C85.6723 53.6992 85.7973 53.3613 86.0473 53.0762C86.2973 52.791 86.6488 52.5977 87.102 52.4961C86.9379 52.4219 86.7992 52.3066 86.6859 52.1504C86.5766 51.9941 86.5219 51.8125 86.5219 51.6055C86.5219 51.3711 86.5844 51.166 86.7094 50.9902C86.8344 50.8145 87.0316 50.6445 87.3012 50.4805C86.9691 50.3438 86.6977 50.1113 86.4867 49.7832C86.2797 49.4551 86.1762 49.0801 86.1762 48.6582C86.1762 47.9551 86.3871 47.4141 86.809 47.0352C87.2309 46.6523 87.8285 46.4609 88.602 46.4609C88.9379 46.4609 89.2406 46.5 89.5102 46.5781H91.7309ZM86.6098 54.0781C86.6098 54.4258 86.7562 54.6895 87.0492 54.8691C87.3422 55.0488 87.7621 55.1387 88.309 55.1387C89.1254 55.1387 89.7289 55.0156 90.1195 54.7695C90.5141 54.5273 90.7113 54.1973 90.7113 53.7793C90.7113 53.4316 90.6039 53.1895 90.3891 53.0527C90.1742 52.9199 89.7699 52.8535 89.1762 52.8535H88.0102C87.5687 52.8535 87.225 52.959 86.9789 53.1699C86.7328 53.3809 86.6098 53.6836 86.6098 54.0781ZM87.1371 48.6348C87.1371 49.084 87.2641 49.4238 87.518 49.6543C87.7719 49.8848 88.1254 50 88.5785 50C89.5277 50 90.0023 49.5391 90.0023 48.6172C90.0023 47.6523 89.5219 47.1699 88.5609 47.1699C88.1039 47.1699 87.7523 47.293 87.5062 47.5391C87.2602 47.7852 87.1371 48.1504 87.1371 48.6348ZM98.9922 49.7832C98.9922 50.8301 98.7285 51.6484 98.2012 52.2383C97.6738 52.8242 96.9453 53.1172 96.0156 53.1172C95.4414 53.1172 94.9316 52.9824 94.4863 52.7129C94.041 52.4434 93.6973 52.0566 93.4551 51.5527C93.2129 51.0488 93.0918 50.459 93.0918 49.7832C93.0918 48.7363 93.3535 47.9219 93.877 47.3398C94.4004 46.7539 95.127 46.4609 96.0566 46.4609C96.9551 46.4609 97.668 46.7598 98.1953 47.3574C98.7266 47.9551 98.9922 48.7637 98.9922 49.7832ZM94.0996 49.7832C94.0996 50.6035 94.2637 51.2285 94.5918 51.6582C94.9199 52.0879 95.4023 52.3027 96.0391 52.3027C96.6758 52.3027 97.1582 52.0898 97.4863 51.6641C97.8184 51.2344 97.9844 50.6074 97.9844 49.7832C97.9844 48.9668 97.8184 48.3477 97.4863 47.9258C97.1582 47.5 96.6719 47.2871 96.0273 47.2871C95.3906 47.2871 94.9102 47.4961 94.5859 47.9141C94.2617 48.332 94.0996 48.9551 94.0996 49.7832ZM97.8438 45.7285H97.293C96.9141 45.4746 96.502 45.1504 96.0566 44.7559C95.6426 45.1309 95.2305 45.4551 94.8203 45.7285H94.2695V45.5938L94.5801 45.2422C95.0176 44.7617 95.3379 44.3711 95.541 44.0703H96.5723C96.8301 44.4375 97.2539 44.9453 97.8438 45.5938V45.7285ZM94.7383 44.5859H94.1816C93.7129 44.2188 93.3145 43.8164 92.9863 43.3789V43.2559H93.9941C94.1973 43.6777 94.4453 44.0781 94.7383 44.457V44.5859ZM109.289 53V48.8223C109.289 48.3105 109.179 47.9277 108.961 47.6738C108.742 47.416 108.402 47.2871 107.941 47.2871C107.336 47.2871 106.888 47.4609 106.599 47.8086C106.31 48.1562 106.166 48.6914 106.166 49.4141V53H105.193V48.8223C105.193 48.3105 105.084 47.9277 104.865 47.6738C104.646 47.416 104.304 47.2871 103.839 47.2871C103.23 47.2871 102.783 47.4707 102.498 47.8379C102.216 48.2012 102.076 48.7988 102.076 49.6309V53H101.103V46.5781H101.894L102.052 47.457H102.099C102.283 47.1445 102.541 46.9004 102.873 46.7246C103.209 46.5488 103.584 46.4609 103.998 46.4609C105.002 46.4609 105.658 46.8242 105.966 47.5508H106.013C106.205 47.2148 106.482 46.9492 106.845 46.7539C107.209 46.5586 107.623 46.4609 108.088 46.4609C108.814 46.4609 109.357 46.6484 109.716 47.0234C110.08 47.3945 110.261 47.9902 110.261 48.8105V53H109.289ZM118.755 53.1172C117.825 53.1172 117.104 52.832 116.593 52.2617C116.085 51.6875 115.831 50.877 115.831 49.8301C115.831 48.7559 116.089 47.9258 116.604 47.3398C117.124 46.7539 117.862 46.4609 118.819 46.4609C119.128 46.4609 119.436 46.4941 119.745 46.5605C120.054 46.627 120.296 46.7051 120.471 46.7949L120.173 47.6211C119.958 47.5352 119.723 47.4648 119.47 47.4102C119.216 47.3516 118.991 47.3223 118.796 47.3223C117.491 47.3223 116.839 48.1543 116.839 49.8184C116.839 50.6074 116.997 51.2129 117.313 51.6348C117.634 52.0566 118.106 52.2676 118.731 52.2676C119.266 52.2676 119.815 52.1523 120.378 51.9219V52.7832C119.948 53.0059 119.407 53.1172 118.755 53.1172ZM126.702 53V48.8457C126.702 48.3223 126.582 47.9316 126.344 47.6738C126.106 47.416 125.733 47.2871 125.225 47.2871C124.549 47.2871 124.055 47.4707 123.743 47.8379C123.434 48.2051 123.28 48.8066 123.28 49.6426V53H122.307V43.8828H123.28V46.6426C123.28 46.9746 123.264 47.25 123.233 47.4688H123.291C123.483 47.1602 123.754 46.918 124.106 46.7422C124.461 46.5625 124.866 46.4727 125.319 46.4727C126.104 46.4727 126.692 46.6602 127.082 47.0352C127.477 47.4062 127.674 47.998 127.674 48.8105V53H126.702ZM130.992 46.5898V50.7441C130.992 51.2676 131.111 51.6582 131.35 51.916C131.588 52.1738 131.961 52.3027 132.469 52.3027C133.141 52.3027 133.631 52.1191 133.939 51.752C134.252 51.3848 134.408 50.7852 134.408 49.9531V46.5898H135.381V47.2988C135.701 47.2559 135.934 47.1094 136.078 46.8594C136.223 46.6094 136.295 46.1836 136.295 45.582H137.338L137.426 45.7168C137.301 46.4434 137.066 46.9941 136.723 47.3691C136.379 47.7402 135.932 47.9531 135.381 48.0078V53H134.578L134.438 52.1387H134.385C134.182 52.459 133.902 52.7031 133.547 52.8711C133.195 53.0352 132.803 53.1172 132.369 53.1172C131.576 53.1172 130.984 52.9316 130.594 52.5605C130.203 52.1895 130.008 51.5957 130.008 50.7793V46.5898H130.992ZM133.658 45.7168C133.49 45.7168 133.326 45.6816 133.166 45.6113C133.006 45.5371 132.848 45.457 132.691 45.3711C132.539 45.2812 132.391 45.2012 132.246 45.1309C132.105 45.0566 131.969 45.0195 131.836 45.0195C131.641 45.0195 131.492 45.0781 131.391 45.1953C131.293 45.3125 131.217 45.4902 131.162 45.7285H130.588C130.639 45.2559 130.775 44.8867 130.998 44.6211C131.225 44.3516 131.516 44.2168 131.871 44.2168C132.051 44.2168 132.225 44.2539 132.393 44.3281C132.561 44.3984 132.721 44.4785 132.873 44.5684C133.025 44.6543 133.172 44.7344 133.312 44.8086C133.453 44.8789 133.586 44.9141 133.711 44.9141C133.902 44.9141 134.045 44.8574 134.139 44.7441C134.232 44.627 134.309 44.4473 134.367 44.2051H134.947C134.896 44.6777 134.76 45.0488 134.537 45.3184C134.318 45.584 134.025 45.7168 133.658 45.7168ZM144.542 53.1172C143.613 53.1172 142.892 52.832 142.38 52.2617C141.872 51.6875 141.618 50.877 141.618 49.8301C141.618 48.7559 141.876 47.9258 142.392 47.3398C142.911 46.7539 143.65 46.4609 144.607 46.4609C144.915 46.4609 145.224 46.4941 145.532 46.5605C145.841 46.627 146.083 46.7051 146.259 46.7949L145.96 47.6211C145.745 47.5352 145.511 47.4648 145.257 47.4102C145.003 47.3516 144.779 47.3223 144.583 47.3223C143.279 47.3223 142.626 48.1543 142.626 49.8184C142.626 50.6074 142.784 51.2129 143.101 51.6348C143.421 52.0566 143.894 52.2676 144.519 52.2676C145.054 52.2676 145.603 52.1523 146.165 51.9219V52.7832C145.736 53.0059 145.195 53.1172 144.542 53.1172ZM152.044 53L151.85 52.0859H151.804C151.483 52.4883 151.163 52.7617 150.843 52.9062C150.526 53.0469 150.13 53.1172 149.653 53.1172C149.016 53.1172 148.516 52.9531 148.153 52.625C147.794 52.2969 147.614 51.8301 147.614 51.2246C147.614 49.9277 148.651 49.248 150.725 49.1855L151.815 49.1504V48.752C151.815 48.248 151.706 47.877 151.487 47.6387C151.272 47.3965 150.927 47.2754 150.45 47.2754C149.915 47.2754 149.309 47.4395 148.634 47.7676L148.335 47.0234C148.651 46.8516 148.997 46.7168 149.372 46.6191C149.751 46.5215 150.13 46.4727 150.509 46.4727C151.274 46.4727 151.841 46.6426 152.208 46.9824C152.579 47.3223 152.764 47.8672 152.764 48.6172V53H152.044ZM149.846 52.3145C150.452 52.3145 150.927 52.1484 151.27 51.8164C151.618 51.4844 151.792 51.0195 151.792 50.4219V49.8418L150.819 49.8828C150.046 49.9102 149.487 50.0312 149.143 50.2461C148.804 50.457 148.634 50.7871 148.634 51.2363C148.634 51.5879 148.739 51.8555 148.95 52.0391C149.165 52.2227 149.464 52.3145 149.846 52.3145ZM149.618 45.582C149.805 45.3398 150.007 45.0469 150.221 44.7031C150.44 44.3594 150.612 44.0605 150.737 43.8066H151.921V43.9297C151.749 44.1836 151.493 44.4961 151.153 44.8672C150.813 45.2383 150.518 45.5254 150.268 45.7285H149.618V45.582ZM156.147 53H155.174V46.5781H156.147V53ZM155.092 44.8379C155.092 44.6152 155.147 44.4531 155.256 44.3516C155.366 44.2461 155.502 44.1934 155.666 44.1934C155.823 44.1934 155.957 44.2461 156.071 44.3516C156.184 44.457 156.241 44.6191 156.241 44.8379C156.241 45.0566 156.184 45.2207 156.071 45.3301C155.957 45.4355 155.823 45.4883 155.666 45.4883C155.502 45.4883 155.366 45.4355 155.256 45.3301C155.147 45.2207 155.092 45.0566 155.092 44.8379ZM163.533 53L161.095 46.5781H162.138L163.521 50.3867C163.834 51.2773 164.017 51.8555 164.072 52.1211H164.119C164.162 51.9141 164.296 51.4863 164.523 50.8379C164.754 50.1855 165.267 48.7656 166.064 46.5781H167.107L164.67 53H163.533ZM172.488 53L172.294 52.0859H172.247C171.927 52.4883 171.607 52.7617 171.286 52.9062C170.97 53.0469 170.573 53.1172 170.097 53.1172C169.46 53.1172 168.96 52.9531 168.597 52.625C168.238 52.2969 168.058 51.8301 168.058 51.2246C168.058 49.9277 169.095 49.248 171.169 49.1855L172.259 49.1504V48.752C172.259 48.248 172.15 47.877 171.931 47.6387C171.716 47.3965 171.37 47.2754 170.894 47.2754C170.359 47.2754 169.753 47.4395 169.077 47.7676L168.779 47.0234C169.095 46.8516 169.441 46.7168 169.816 46.6191C170.195 46.5215 170.573 46.4727 170.952 46.4727C171.718 46.4727 172.284 46.6426 172.652 46.9824C173.023 47.3223 173.208 47.8672 173.208 48.6172V53H172.488ZM170.29 52.3145C170.896 52.3145 171.37 52.1484 171.714 51.8164C172.062 51.4844 172.236 51.0195 172.236 50.4219V49.8418L171.263 49.8828C170.489 49.9102 169.931 50.0312 169.587 50.2461C169.247 50.457 169.077 50.7871 169.077 51.2363C169.077 51.5879 169.183 51.8555 169.394 52.0391C169.609 52.2227 169.907 52.3145 170.29 52.3145ZM171.445 45.7285H170.8C170.546 45.5254 170.245 45.2363 169.898 44.8613C169.55 44.4863 169.298 44.1758 169.142 43.9297V43.8066H170.331C170.456 44.0762 170.63 44.3887 170.853 44.7441C171.075 45.0957 171.273 45.375 171.445 45.582V45.7285ZM183.278 51.248C183.278 51.8457 183.055 52.3066 182.61 52.6309C182.164 52.9551 181.539 53.1172 180.735 53.1172C179.883 53.1172 179.219 52.9824 178.743 52.7129V51.8105C179.051 51.9668 179.381 52.0898 179.733 52.1797C180.088 52.2695 180.43 52.3145 180.758 52.3145C181.266 52.3145 181.657 52.2344 181.93 52.0742C182.204 51.9102 182.34 51.6621 182.34 51.3301C182.34 51.0801 182.231 50.8672 182.012 50.6914C181.797 50.5117 181.375 50.3008 180.746 50.0586C180.149 49.8359 179.723 49.6426 179.469 49.4785C179.219 49.3105 179.032 49.1211 178.907 48.9102C178.786 48.6992 178.725 48.4473 178.725 48.1543C178.725 47.6309 178.938 47.2188 179.364 46.918C179.789 46.6133 180.373 46.4609 181.116 46.4609C181.807 46.4609 182.483 46.6016 183.143 46.8828L182.797 47.6738C182.153 47.4082 181.569 47.2754 181.045 47.2754C180.584 47.2754 180.237 47.3477 180.002 47.4922C179.768 47.6367 179.651 47.8359 179.651 48.0898C179.651 48.2617 179.694 48.4082 179.78 48.5293C179.87 48.6504 180.012 48.7656 180.207 48.875C180.403 48.9844 180.778 49.1426 181.332 49.3496C182.094 49.627 182.608 49.9062 182.873 50.1875C183.143 50.4688 183.278 50.8223 183.278 51.248ZM190.809 49.7832C190.809 50.8301 190.545 51.6484 190.018 52.2383C189.49 52.8242 188.762 53.1172 187.832 53.1172C187.258 53.1172 186.748 52.9824 186.303 52.7129C185.857 52.4434 185.514 52.0566 185.271 51.5527C185.029 51.0488 184.908 50.459 184.908 49.7832C184.908 48.7363 185.17 47.9219 185.693 47.3398C186.217 46.7539 186.943 46.4609 187.873 46.4609C188.771 46.4609 189.484 46.7598 190.012 47.3574C190.543 47.9551 190.809 48.7637 190.809 49.7832ZM185.916 49.7832C185.916 50.6035 186.08 51.2285 186.408 51.6582C186.736 52.0879 187.219 52.3027 187.855 52.3027C188.492 52.3027 188.975 52.0898 189.303 51.6641C189.635 51.2344 189.801 50.6074 189.801 49.7832C189.801 48.9668 189.635 48.3477 189.303 47.9258C188.975 47.5 188.488 47.2871 187.844 47.2871C187.207 47.2871 186.727 47.4961 186.402 47.9141C186.078 48.332 185.916 48.9551 185.916 49.7832ZM189.637 45.7285H189.086C188.648 45.4355 188.236 45.1113 187.85 44.7559C187.404 45.1504 186.992 45.4746 186.613 45.7285H186.062V45.582L186.373 45.2305C186.811 44.75 187.131 44.3594 187.334 44.0586H188.365C188.623 44.4258 189.047 44.9336 189.637 45.582V45.7285ZM189.168 44.4453C189.453 44.0898 189.701 43.6934 189.912 43.2559H190.92V43.3789C190.596 43.8086 190.199 44.2109 189.73 44.5859H189.168V44.4453Z" fill="#434657"/>
</svg>
