<svg width="343" height="48" viewBox="0 0 343 48" fill="none" xmlns="http://www.w3.org/2000/svg">
<path d="M1.17773 4.43359H3.59766C4.73438 4.43359 5.55664 4.60352 6.06445 4.94336C6.57227 5.2832 6.82617 5.82031 6.82617 6.55469C6.82617 7.0625 6.68359 7.48242 6.39844 7.81445C6.11719 8.14258 5.70508 8.35547 5.16211 8.45312V8.51172C6.46289 8.73438 7.11328 9.41797 7.11328 10.5625C7.11328 11.3281 6.85352 11.9258 6.33398 12.3555C5.81836 12.7852 5.0957 13 4.16602 13H1.17773V4.43359ZM2.17383 8.10156H3.81445C4.51758 8.10156 5.02344 7.99219 5.33203 7.77344C5.64062 7.55078 5.79492 7.17773 5.79492 6.6543C5.79492 6.17383 5.62305 5.82812 5.2793 5.61719C4.93555 5.40234 4.38867 5.29492 3.63867 5.29492H2.17383V8.10156ZM2.17383 8.94531V12.1504H3.96094C4.65234 12.1504 5.17188 12.0176 5.51953 11.752C5.87109 11.4824 6.04688 11.0625 6.04688 10.4922C6.04688 9.96094 5.86719 9.57031 5.50781 9.32031C5.15234 9.07031 4.60938 8.94531 3.87891 8.94531H2.17383ZM13.1617 13L12.9684 12.0859H12.9215C12.6012 12.4883 12.2809 12.7617 11.9605 12.9062C11.6441 13.0469 11.2477 13.1172 10.7711 13.1172C10.1344 13.1172 9.63437 12.9531 9.27109 12.625C8.91172 12.2969 8.73203 11.8301 8.73203 11.2246C8.73203 9.92773 9.76914 9.24805 11.8434 9.18555L12.9332 9.15039V8.75195C12.9332 8.24805 12.8238 7.87695 12.6051 7.63867C12.3902 7.39648 12.0445 7.27539 11.568 7.27539C11.0328 7.27539 10.4273 7.43945 9.75156 7.76758L9.45273 7.02344C9.76914 6.85156 10.1148 6.7168 10.4898 6.61914C10.8687 6.52148 11.2477 6.47266 11.6266 6.47266C12.3922 6.47266 12.9586 6.64258 13.3258 6.98242C13.6969 7.32227 13.8824 7.86719 13.8824 8.61719V13H13.1617ZM10.9645 12.3145C11.5699 12.3145 12.0445 12.1484 12.3883 11.8164C12.7359 11.4844 12.9098 11.0195 12.9098 10.4219V9.8418L11.9371 9.88281C11.1637 9.91016 10.6051 10.0312 10.2613 10.2461C9.92148 10.457 9.75156 10.7871 9.75156 11.2363C9.75156 11.5879 9.85703 11.8555 10.068 12.0391C10.2828 12.2227 10.5816 12.3145 10.9645 12.3145ZM11.7965 4.20508H11.2457C10.7809 3.8418 10.3805 3.4375 10.0445 2.99219V2.86914H11.0523C11.2555 3.29102 11.5035 3.69141 11.7965 4.07031V4.20508ZM11.4859 5.72852C10.4078 5.72852 9.83945 5.2207 9.78086 4.20508H10.3785C10.4137 4.48633 10.5055 4.68359 10.6539 4.79688C10.8023 4.90625 11.0836 4.96094 11.4977 4.96094C11.8805 4.96094 12.1559 4.89844 12.3238 4.77344C12.4918 4.64453 12.5914 4.45508 12.6227 4.20508H13.2379C13.1949 4.67383 13.027 5.04492 12.734 5.31836C12.4449 5.5918 12.0289 5.72852 11.4859 5.72852ZM20.6867 13V8.8457C20.6867 8.32227 20.5676 7.93164 20.3293 7.67383C20.091 7.41602 19.718 7.28711 19.2102 7.28711C18.5383 7.28711 18.0461 7.46875 17.7336 7.83203C17.4211 8.19531 17.2648 8.79492 17.2648 9.63086V13H16.2922V6.57812H17.0832L17.2414 7.45703H17.2883C17.4875 7.14062 17.7668 6.89648 18.1262 6.72461C18.4855 6.54883 18.8859 6.46094 19.3273 6.46094C20.1008 6.46094 20.6828 6.64844 21.0734 7.02344C21.4641 7.39453 21.6594 7.99023 21.6594 8.81055V13H20.6867ZM29.3191 6.57812V7.19336L28.1297 7.33398C28.2391 7.4707 28.3367 7.65039 28.4227 7.87305C28.5086 8.0918 28.5516 8.33984 28.5516 8.61719C28.5516 9.24609 28.3367 9.74805 27.907 10.123C27.4773 10.498 26.8875 10.6855 26.1375 10.6855C25.9461 10.6855 25.7664 10.6699 25.5984 10.6387C25.1844 10.8574 24.9773 11.1328 24.9773 11.4648C24.9773 11.6406 25.0496 11.7715 25.1941 11.8574C25.3387 11.9395 25.5867 11.9805 25.9383 11.9805H27.075C27.7703 11.9805 28.3035 12.127 28.6746 12.4199C29.0496 12.7129 29.2371 13.1387 29.2371 13.6973C29.2371 14.4082 28.952 14.9492 28.3816 15.3203C27.8113 15.6953 26.9793 15.8828 25.8855 15.8828C25.0457 15.8828 24.3973 15.7266 23.9402 15.4141C23.4871 15.1016 23.2605 14.6602 23.2605 14.0898C23.2605 13.6992 23.3855 13.3613 23.6355 13.0762C23.8855 12.791 24.2371 12.5977 24.6902 12.4961C24.5262 12.4219 24.3875 12.3066 24.2742 12.1504C24.1648 11.9941 24.1102 11.8125 24.1102 11.6055C24.1102 11.3711 24.1727 11.166 24.2977 10.9902C24.4227 10.8145 24.6199 10.6445 24.8895 10.4805C24.5574 10.3438 24.2859 10.1113 24.075 9.7832C23.868 9.45508 23.7645 9.08008 23.7645 8.6582C23.7645 7.95508 23.9754 7.41406 24.3973 7.03516C24.8191 6.65234 25.4168 6.46094 26.1902 6.46094C26.5262 6.46094 26.8289 6.5 27.0984 6.57812H29.3191ZM24.198 14.0781C24.198 14.4258 24.3445 14.6895 24.6375 14.8691C24.9305 15.0488 25.3504 15.1387 25.8973 15.1387C26.7137 15.1387 27.3172 15.0156 27.7078 14.7695C28.1023 14.5273 28.2996 14.1973 28.2996 13.7793C28.2996 13.4316 28.1922 13.1895 27.9773 13.0527C27.7625 12.9199 27.3582 12.8535 26.7645 12.8535H25.5984C25.157 12.8535 24.8133 12.959 24.5672 13.1699C24.3211 13.3809 24.198 13.6836 24.198 14.0781ZM24.7254 8.63477C24.7254 9.08398 24.8523 9.42383 25.1063 9.6543C25.3602 9.88477 25.7137 10 26.1668 10C27.116 10 27.5906 9.53906 27.5906 8.61719C27.5906 7.65234 27.1102 7.16992 26.1492 7.16992C25.6922 7.16992 25.3406 7.29297 25.0945 7.53906C24.8484 7.78516 24.7254 8.15039 24.7254 8.63477ZM37.1211 13.1172C36.1914 13.1172 35.4707 12.832 34.959 12.2617C34.4512 11.6875 34.1973 10.877 34.1973 9.83008C34.1973 8.75586 34.4551 7.92578 34.9707 7.33984C35.4902 6.75391 36.2285 6.46094 37.1855 6.46094C37.4941 6.46094 37.8027 6.49414 38.1113 6.56055C38.4199 6.62695 38.6621 6.70508 38.8379 6.79492L38.5391 7.62109C38.3242 7.53516 38.0898 7.46484 37.8359 7.41016C37.582 7.35156 37.3574 7.32227 37.1621 7.32227C35.8574 7.32227 35.2051 8.1543 35.2051 9.81836C35.2051 10.6074 35.3633 11.2129 35.6797 11.6348C36 12.0566 36.4727 12.2676 37.0977 12.2676C37.6328 12.2676 38.1816 12.1523 38.7441 11.9219V12.7832C38.3145 13.0059 37.7734 13.1172 37.1211 13.1172ZM44.6227 13L44.4293 12.0859H44.3824C44.0621 12.4883 43.7418 12.7617 43.4215 12.9062C43.1051 13.0469 42.7086 13.1172 42.232 13.1172C41.5953 13.1172 41.0953 12.9531 40.732 12.625C40.3727 12.2969 40.193 11.8301 40.193 11.2246C40.193 9.92773 41.2301 9.24805 43.3043 9.18555L44.3941 9.15039V8.75195C44.3941 8.24805 44.2848 7.87695 44.066 7.63867C43.8512 7.39648 43.5055 7.27539 43.0289 7.27539C42.4938 7.27539 41.8883 7.43945 41.2125 7.76758L40.9137 7.02344C41.2301 6.85156 41.5758 6.7168 41.9508 6.61914C42.3297 6.52148 42.7086 6.47266 43.0875 6.47266C43.8531 6.47266 44.4195 6.64258 44.7867 6.98242C45.1578 7.32227 45.3434 7.86719 45.3434 8.61719V13H44.6227ZM42.4254 12.3145C43.0309 12.3145 43.5055 12.1484 43.8492 11.8164C44.1969 11.4844 44.3707 11.0195 44.3707 10.4219V9.8418L43.398 9.88281C42.6246 9.91016 42.066 10.0312 41.7223 10.2461C41.3824 10.457 41.2125 10.7871 41.2125 11.2363C41.2125 11.5879 41.318 11.8555 41.5289 12.0391C41.7438 12.2227 42.0426 12.3145 42.4254 12.3145ZM42.1969 5.58203C42.3844 5.33984 42.5855 5.04688 42.8004 4.70312C43.0191 4.35938 43.191 4.06055 43.316 3.80664H44.4996V3.92969C44.3277 4.18359 44.0719 4.49609 43.732 4.86719C43.3922 5.23828 43.0973 5.52539 42.8473 5.72852H42.1969V5.58203ZM50.3195 13.1172C49.3898 13.1172 48.6691 12.832 48.1574 12.2617C47.6496 11.6875 47.3957 10.877 47.3957 9.83008C47.3957 8.75586 47.6535 7.92578 48.1691 7.33984C48.6887 6.75391 49.427 6.46094 50.384 6.46094C50.6926 6.46094 51.0012 6.49414 51.3098 6.56055C51.6184 6.62695 51.8605 6.70508 52.0363 6.79492L51.7375 7.62109C51.5227 7.53516 51.2883 7.46484 51.0344 7.41016C50.7805 7.35156 50.5559 7.32227 50.3605 7.32227C49.0559 7.32227 48.4035 8.1543 48.4035 9.81836C48.4035 10.6074 48.5617 11.2129 48.8781 11.6348C49.1984 12.0566 49.6711 12.2676 50.2961 12.2676C50.8312 12.2676 51.3801 12.1523 51.9426 11.9219V12.7832C51.5129 13.0059 50.9719 13.1172 50.3195 13.1172ZM58.2664 13V8.8457C58.2664 8.32227 58.1473 7.93164 57.909 7.67383C57.6707 7.41602 57.2977 7.28711 56.7898 7.28711C56.1141 7.28711 55.6199 7.4707 55.3074 7.83789C54.9988 8.20508 54.8445 8.80664 54.8445 9.64258V13H53.8719V3.88281H54.8445V6.64258C54.8445 6.97461 54.8289 7.25 54.7977 7.46875H54.8563C55.0477 7.16016 55.3191 6.91797 55.6707 6.74219C56.0262 6.5625 56.4305 6.47266 56.8836 6.47266C57.6688 6.47266 58.2566 6.66016 58.6473 7.03516C59.0418 7.40625 59.2391 7.99805 59.2391 8.81055V13H58.2664ZM69.5547 13V8.8457C69.5547 8.32227 69.4355 7.93164 69.1973 7.67383C68.959 7.41602 68.5859 7.28711 68.0781 7.28711C67.4062 7.28711 66.9141 7.46875 66.6016 7.83203C66.2891 8.19531 66.1328 8.79492 66.1328 9.63086V13H65.1602V6.57812H65.9512L66.1094 7.45703H66.1562C66.3555 7.14062 66.6348 6.89648 66.9941 6.72461C67.3535 6.54883 67.7539 6.46094 68.1953 6.46094C68.9688 6.46094 69.5508 6.64844 69.9414 7.02344C70.332 7.39453 70.5273 7.99023 70.5273 8.81055V13H69.5547ZM76.8805 13L76.6871 12.0859H76.6402C76.3199 12.4883 75.9996 12.7617 75.6793 12.9062C75.3629 13.0469 74.9664 13.1172 74.4898 13.1172C73.8531 13.1172 73.3531 12.9531 72.9898 12.625C72.6305 12.2969 72.4508 11.8301 72.4508 11.2246C72.4508 9.92773 73.4879 9.24805 75.5621 9.18555L76.652 9.15039V8.75195C76.652 8.24805 76.5426 7.87695 76.3238 7.63867C76.109 7.39648 75.7633 7.27539 75.2867 7.27539C74.7516 7.27539 74.1461 7.43945 73.4703 7.76758L73.1715 7.02344C73.4879 6.85156 73.8336 6.7168 74.2086 6.61914C74.5875 6.52148 74.9664 6.47266 75.3453 6.47266C76.1109 6.47266 76.6773 6.64258 77.0445 6.98242C77.4156 7.32227 77.6012 7.86719 77.6012 8.61719V13H76.8805ZM74.6832 12.3145C75.2887 12.3145 75.7633 12.1484 76.107 11.8164C76.4547 11.4844 76.6285 11.0195 76.6285 10.4219V9.8418L75.6559 9.88281C74.8824 9.91016 74.3238 10.0312 73.9801 10.2461C73.6402 10.457 73.4703 10.7871 73.4703 11.2363C73.4703 11.5879 73.5758 11.8555 73.7867 12.0391C74.0016 12.2227 74.3004 12.3145 74.6832 12.3145ZM75.8375 5.72852H75.193C74.9391 5.52539 74.6383 5.23633 74.2906 4.86133C73.943 4.48633 73.691 4.17578 73.5348 3.92969V3.80664H74.7242C74.8492 4.07617 75.023 4.38867 75.2457 4.74414C75.4684 5.0957 75.6656 5.375 75.8375 5.58203V5.72852ZM85.5539 9.7832C85.5539 10.8301 85.2902 11.6484 84.7629 12.2383C84.2355 12.8242 83.507 13.1172 82.5773 13.1172C82.0031 13.1172 81.4934 12.9824 81.048 12.7129C80.6027 12.4434 80.259 12.0566 80.0168 11.5527C79.7746 11.0488 79.6535 10.459 79.6535 9.7832C79.6535 8.73633 79.9152 7.92188 80.4387 7.33984C80.9621 6.75391 81.6887 6.46094 82.6184 6.46094C83.5168 6.46094 84.2297 6.75977 84.757 7.35742C85.2883 7.95508 85.5539 8.76367 85.5539 9.7832ZM80.6613 9.7832C80.6613 10.6035 80.8254 11.2285 81.1535 11.6582C81.4816 12.0879 81.9641 12.3027 82.6008 12.3027C83.2375 12.3027 83.7199 12.0898 84.048 11.6641C84.3801 11.2344 84.5461 10.6074 84.5461 9.7832C84.5461 8.9668 84.3801 8.34766 84.048 7.92578C83.7199 7.5 83.2336 7.28711 82.5891 7.28711C81.9523 7.28711 81.4719 7.49609 81.1477 7.91406C80.8234 8.33203 80.6613 8.95508 80.6613 9.7832ZM94.1703 6.47266C95.0141 6.47266 95.6684 6.76172 96.1332 7.33984C96.602 7.91406 96.8363 8.72852 96.8363 9.7832C96.8363 10.8379 96.6 11.6582 96.1273 12.2441C95.6586 12.8262 95.0062 13.1172 94.1703 13.1172C93.7523 13.1172 93.3695 13.041 93.0219 12.8887C92.6781 12.7324 92.3891 12.4941 92.1547 12.1738H92.0844L91.8793 13H91.182V3.88281H92.1547V6.09766C92.1547 6.59375 92.1391 7.03906 92.1078 7.43359H92.1547C92.6078 6.79297 93.2797 6.47266 94.1703 6.47266ZM94.0297 7.28711C93.3656 7.28711 92.8871 7.47852 92.5941 7.86133C92.3012 8.24023 92.1547 8.88086 92.1547 9.7832C92.1547 10.6855 92.3051 11.332 92.6059 11.7227C92.9066 12.1094 93.3891 12.3027 94.0531 12.3027C94.6508 12.3027 95.0961 12.0859 95.3891 11.6523C95.682 11.2148 95.8285 10.5879 95.8285 9.77148C95.8285 8.93555 95.682 8.3125 95.3891 7.90234C95.0961 7.49219 94.643 7.28711 94.0297 7.28711ZM102.891 13L102.697 12.0859H102.65C102.33 12.4883 102.01 12.7617 101.689 12.9062C101.373 13.0469 100.977 13.1172 100.5 13.1172C99.8633 13.1172 99.3633 12.9531 99 12.625C98.6406 12.2969 98.4609 11.8301 98.4609 11.2246C98.4609 9.92773 99.498 9.24805 101.572 9.18555L102.662 9.15039V8.75195C102.662 8.24805 102.553 7.87695 102.334 7.63867C102.119 7.39648 101.773 7.27539 101.297 7.27539C100.762 7.27539 100.156 7.43945 99.4805 7.76758L99.1816 7.02344C99.498 6.85156 99.8438 6.7168 100.219 6.61914C100.598 6.52148 100.977 6.47266 101.355 6.47266C102.121 6.47266 102.688 6.64258 103.055 6.98242C103.426 7.32227 103.611 7.86719 103.611 8.61719V13H102.891ZM100.693 12.3145C101.299 12.3145 101.773 12.1484 102.117 11.8164C102.465 11.4844 102.639 11.0195 102.639 10.4219V9.8418L101.666 9.88281C100.893 9.91016 100.334 10.0312 99.9902 10.2461C99.6504 10.457 99.4805 10.7871 99.4805 11.2363C99.4805 11.5879 99.5859 11.8555 99.7969 12.0391C100.012 12.2227 100.311 12.3145 100.693 12.3145ZM100.465 14.418C100.465 14.1953 100.521 14.0312 100.635 13.9258C100.752 13.8203 100.893 13.7676 101.057 13.7676C101.213 13.7676 101.348 13.8203 101.461 13.9258C101.574 14.0312 101.631 14.1953 101.631 14.418C101.631 14.6328 101.574 14.793 101.461 14.8984C101.348 15.0078 101.213 15.0625 101.057 15.0625C100.893 15.0625 100.752 15.0078 100.635 14.8984C100.521 14.793 100.465 14.6328 100.465 14.418ZM110.416 13V8.8457C110.416 8.32227 110.296 7.93164 110.058 7.67383C109.82 7.41602 109.447 7.28711 108.939 7.28711C108.267 7.28711 107.775 7.46875 107.463 7.83203C107.15 8.19531 106.994 8.79492 106.994 9.63086V13H106.021V6.57812H106.812L106.97 7.45703H107.017C107.216 7.14062 107.496 6.89648 107.855 6.72461C108.214 6.54883 108.615 6.46094 109.056 6.46094C109.83 6.46094 110.412 6.64844 110.802 7.02344C111.193 7.39453 111.388 7.99023 111.388 8.81055V13H110.416ZM119.876 13.1172C118.946 13.1172 118.225 12.832 117.714 12.2617C117.206 11.6875 116.952 10.877 116.952 9.83008C116.952 8.75586 117.21 7.92578 117.725 7.33984C118.245 6.75391 118.983 6.46094 119.94 6.46094C120.249 6.46094 120.557 6.49414 120.866 6.56055C121.175 6.62695 121.417 6.70508 121.593 6.79492L121.294 7.62109C121.079 7.53516 120.845 7.46484 120.591 7.41016C120.337 7.35156 120.112 7.32227 119.917 7.32227C118.612 7.32227 117.96 8.1543 117.96 9.81836C117.96 10.6074 118.118 11.2129 118.434 11.6348C118.755 12.0566 119.227 12.2676 119.852 12.2676C120.387 12.2676 120.936 12.1523 121.499 11.9219V12.7832C121.069 13.0059 120.528 13.1172 119.876 13.1172ZM128.971 9.7832C128.971 10.8301 128.707 11.6484 128.18 12.2383C127.653 12.8242 126.924 13.1172 125.995 13.1172C125.42 13.1172 124.911 12.9824 124.465 12.7129C124.02 12.4434 123.676 12.0566 123.434 11.5527C123.192 11.0488 123.071 10.459 123.071 9.7832C123.071 8.73633 123.332 7.92188 123.856 7.33984C124.379 6.75391 125.106 6.46094 126.036 6.46094C126.934 6.46094 127.647 6.75977 128.174 7.35742C128.705 7.95508 128.971 8.76367 128.971 9.7832ZM124.079 9.7832C124.079 10.6035 124.243 11.2285 124.571 11.6582C124.899 12.0879 125.381 12.3027 126.018 12.3027C126.655 12.3027 127.137 12.0898 127.465 11.6641C127.797 11.2344 127.963 10.6074 127.963 9.7832C127.963 8.9668 127.797 8.34766 127.465 7.92578C127.137 7.5 126.651 7.28711 126.006 7.28711C125.37 7.28711 124.889 7.49609 124.565 7.91406C124.241 8.33203 124.079 8.95508 124.079 9.7832ZM125.204 5.58203C125.391 5.33984 125.592 5.04688 125.807 4.70312C126.026 4.35938 126.198 4.06055 126.323 3.80664H127.506V3.92969C127.334 4.18359 127.079 4.49609 126.739 4.86719C126.399 5.23828 126.104 5.52539 125.854 5.72852H125.204V5.58203ZM136.673 12.3145C136.845 12.3145 137.011 12.3027 137.171 12.2793C137.332 12.252 137.459 12.2246 137.552 12.1973V12.9414C137.447 12.9922 137.291 13.0332 137.084 13.0645C136.88 13.0996 136.697 13.1172 136.533 13.1172C135.291 13.1172 134.67 12.4629 134.67 11.1543V7.33398H133.75V6.86523L134.67 6.46094L135.08 5.08984H135.642V6.57812H137.505V7.33398H135.642V11.1133C135.642 11.5 135.734 11.7969 135.918 12.0039C136.101 12.2109 136.353 12.3145 136.673 12.3145ZM143.636 13V8.8457C143.636 8.32227 143.517 7.93164 143.279 7.67383C143.04 7.41602 142.667 7.28711 142.159 7.28711C141.484 7.28711 140.989 7.4707 140.677 7.83789C140.368 8.20508 140.214 8.80664 140.214 9.64258V13H139.241V3.88281H140.214V6.64258C140.214 6.97461 140.198 7.25 140.167 7.46875H140.226C140.417 7.16016 140.689 6.91797 141.04 6.74219C141.396 6.5625 141.8 6.47266 142.253 6.47266C143.038 6.47266 143.626 6.66016 144.017 7.03516C144.411 7.40625 144.609 7.99805 144.609 8.81055V13H143.636ZM149.725 13.1172C148.776 13.1172 148.026 12.8281 147.475 12.25C146.929 11.6719 146.655 10.8691 146.655 9.8418C146.655 8.80664 146.909 7.98438 147.417 7.375C147.929 6.76562 148.614 6.46094 149.473 6.46094C150.278 6.46094 150.915 6.72656 151.384 7.25781C151.852 7.78516 152.087 8.48242 152.087 9.34961V9.96484H147.663C147.682 10.7188 147.872 11.291 148.231 11.6816C148.595 12.0723 149.104 12.2676 149.761 12.2676C150.452 12.2676 151.136 12.123 151.811 11.834V12.7012C151.468 12.8496 151.141 12.9551 150.833 13.0176C150.528 13.084 150.159 13.1172 149.725 13.1172ZM149.462 7.27539C148.946 7.27539 148.534 7.44336 148.225 7.7793C147.921 8.11523 147.741 8.58008 147.686 9.17383H151.044C151.044 8.56055 150.907 8.0918 150.634 7.76758C150.36 7.43945 149.97 7.27539 149.462 7.27539ZM151.167 5.72852H150.616C150.179 5.43555 149.766 5.11133 149.38 4.75586C148.934 5.15039 148.522 5.47461 148.143 5.72852H147.593V5.58203L147.903 5.23047C148.341 4.75 148.661 4.35938 148.864 4.05859H149.895C150.153 4.42578 150.577 4.93359 151.167 5.58203V5.72852ZM152.151 3.36133C152.151 3.76367 151.903 4.02148 151.407 4.13477L151.372 4.60938H150.903L150.845 3.8418C151.067 3.80664 151.239 3.75781 151.36 3.69531C151.485 3.63281 151.548 3.52734 151.548 3.37891C151.548 3.23437 151.491 3.13867 151.378 3.0918C151.268 3.04102 151.13 3.01562 150.962 3.01562C150.782 3.01562 150.641 3.02734 150.54 3.05078V2.58203C150.637 2.55859 150.794 2.54688 151.009 2.54688C151.77 2.54688 152.151 2.81836 152.151 3.36133ZM159.742 12.3145C159.914 12.3145 160.08 12.3027 160.24 12.2793C160.4 12.252 160.527 12.2246 160.621 12.1973V12.9414C160.516 12.9922 160.359 13.0332 160.152 13.0645C159.949 13.0996 159.766 13.1172 159.602 13.1172C158.359 13.1172 157.738 12.4629 157.738 11.1543V7.33398H156.818V6.86523L157.738 6.46094L158.148 5.08984H158.711V6.57812H160.574V7.33398H158.711V11.1133C158.711 11.5 158.803 11.7969 158.986 12.0039C159.17 12.2109 159.422 12.3145 159.742 12.3145ZM165.24 6.46094C165.525 6.46094 165.781 6.48438 166.007 6.53125L165.873 7.43359C165.607 7.375 165.373 7.3457 165.17 7.3457C164.65 7.3457 164.205 7.55664 163.834 7.97852C163.466 8.40039 163.283 8.92578 163.283 9.55469V13H162.31V6.57812H163.113L163.224 7.76758H163.271C163.509 7.34961 163.796 7.02734 164.132 6.80078C164.468 6.57422 164.837 6.46094 165.24 6.46094ZM173.152 9.7832C173.152 10.8301 172.888 11.6484 172.361 12.2383C171.833 12.8242 171.105 13.1172 170.175 13.1172C169.601 13.1172 169.091 12.9824 168.646 12.7129C168.2 12.4434 167.857 12.0566 167.614 11.5527C167.372 11.0488 167.251 10.459 167.251 9.7832C167.251 8.73633 167.513 7.92188 168.036 7.33984C168.56 6.75391 169.286 6.46094 170.216 6.46094C171.064 6.46094 171.755 6.73633 172.29 7.28711C172.489 7.22852 172.646 7.13672 172.759 7.01172C172.872 6.88281 172.954 6.72266 173.005 6.53125C173.056 6.33594 173.081 6.02344 173.081 5.59375H174.136L174.224 5.72852C174.103 6.33789 173.923 6.81445 173.685 7.1582C173.45 7.49805 173.134 7.74219 172.736 7.89062C173.013 8.42969 173.152 9.06055 173.152 9.7832ZM168.259 9.7832C168.259 10.6074 168.413 11.2344 168.722 11.6641C169.03 12.0898 169.523 12.3027 170.198 12.3027C170.882 12.3027 171.376 12.0898 171.681 11.6641C171.989 11.2344 172.144 10.6074 172.144 9.7832C172.144 8.96289 171.988 8.3418 171.675 7.91992C171.366 7.49805 170.87 7.28711 170.187 7.28711C169.511 7.28711 169.021 7.49805 168.716 7.91992C168.411 8.3418 168.259 8.96289 168.259 9.7832ZM171.523 4.24023C171.523 4.78711 171.198 5.12695 170.55 5.25977L170.491 5.92188H169.876L169.806 4.89062C170.142 4.83594 170.386 4.75977 170.538 4.66211C170.691 4.56445 170.767 4.43164 170.767 4.26367C170.767 4.0957 170.7 3.97266 170.568 3.89453C170.439 3.8125 170.232 3.77148 169.946 3.77148C169.704 3.77148 169.521 3.7832 169.396 3.80664V3.2207C169.544 3.18164 169.753 3.16211 170.023 3.16211C171.023 3.16211 171.523 3.52148 171.523 4.24023ZM183.233 13V8.8457C183.233 8.32227 183.114 7.93164 182.875 7.67383C182.637 7.41602 182.264 7.28711 181.756 7.28711C181.084 7.28711 180.592 7.46875 180.28 7.83203C179.967 8.19531 179.811 8.79492 179.811 9.63086V13H178.838V6.57812H179.629L179.788 7.45703H179.834C180.034 7.14062 180.313 6.89648 180.672 6.72461C181.032 6.54883 181.432 6.46094 181.873 6.46094C182.647 6.46094 183.229 6.64844 183.62 7.02344C184.01 7.39453 184.205 7.99023 184.205 8.81055V13H183.233ZM189.322 13.1172C188.373 13.1172 187.623 12.8281 187.072 12.25C186.525 11.6719 186.252 10.8691 186.252 9.8418C186.252 8.80664 186.506 7.98438 187.014 7.375C187.525 6.76562 188.211 6.46094 189.07 6.46094C189.875 6.46094 190.512 6.72656 190.98 7.25781C191.449 7.78516 191.684 8.48242 191.684 9.34961V9.96484H187.26C187.279 10.7188 187.469 11.291 187.828 11.6816C188.191 12.0723 188.701 12.2676 189.357 12.2676C190.049 12.2676 190.732 12.123 191.408 11.834V12.7012C191.064 12.8496 190.738 12.9551 190.43 13.0176C190.125 13.084 189.756 13.1172 189.322 13.1172ZM189.059 7.27539C188.543 7.27539 188.131 7.44336 187.822 7.7793C187.518 8.11523 187.338 8.58008 187.283 9.17383H190.641C190.641 8.56055 190.504 8.0918 190.23 7.76758C189.957 7.43945 189.566 7.27539 189.059 7.27539ZM187.096 5.59375C187.592 5.0625 187.939 4.67188 188.139 4.42188C188.338 4.17188 188.482 3.9668 188.572 3.80664H189.545C189.631 3.9707 189.779 4.18359 189.99 4.44531C190.205 4.70312 190.557 5.08594 191.045 5.59375V5.72852H190.348C190.004 5.51367 189.572 5.15039 189.053 4.63867C188.521 5.16211 188.094 5.52539 187.77 5.72852H187.096V5.59375ZM198.142 13V8.8457C198.142 8.32227 198.023 7.93164 197.785 7.67383C197.546 7.41602 197.173 7.28711 196.666 7.28711C195.994 7.28711 195.502 7.46875 195.189 7.83203C194.877 8.19531 194.72 8.79492 194.72 9.63086V13H193.748V6.57812H194.539L194.697 7.45703H194.744C194.943 7.14062 195.222 6.89648 195.582 6.72461C195.941 6.54883 196.341 6.46094 196.783 6.46094C197.556 6.46094 198.138 6.64844 198.529 7.02344C198.92 7.39453 199.115 7.99023 199.115 8.81055V13H198.142ZM205.997 9.71289C206.165 9.47461 206.421 9.16211 206.764 8.77539L208.839 6.57812H209.993L207.391 9.31445L210.175 13H208.997L206.729 9.96484L205.997 10.5977V13H205.036V3.88281H205.997V8.7168C205.997 8.93164 205.981 9.26367 205.95 9.71289H205.997ZM216.135 13V8.8457C216.135 8.32227 216.016 7.93164 215.778 7.67383C215.539 7.41602 215.166 7.28711 214.659 7.28711C213.983 7.28711 213.489 7.4707 213.176 7.83789C212.868 8.20508 212.713 8.80664 212.713 9.64258V13H211.741V3.88281H212.713V6.64258C212.713 6.97461 212.698 7.25 212.666 7.46875H212.725C212.916 7.16016 213.188 6.91797 213.539 6.74219C213.895 6.5625 214.299 6.47266 214.752 6.47266C215.538 6.47266 216.125 6.66016 216.516 7.03516C216.911 7.40625 217.108 7.99805 217.108 8.81055V13H216.135ZM223.461 13L223.268 12.0859H223.221C222.9 12.4883 222.58 12.7617 222.26 12.9062C221.943 13.0469 221.547 13.1172 221.07 13.1172C220.434 13.1172 219.934 12.9531 219.57 12.625C219.211 12.2969 219.031 11.8301 219.031 11.2246C219.031 9.92773 220.068 9.24805 222.143 9.18555L223.232 9.15039V8.75195C223.232 8.24805 223.123 7.87695 222.904 7.63867C222.689 7.39648 222.344 7.27539 221.867 7.27539C221.332 7.27539 220.727 7.43945 220.051 7.76758L219.752 7.02344C220.068 6.85156 220.414 6.7168 220.789 6.61914C221.168 6.52148 221.547 6.47266 221.926 6.47266C222.691 6.47266 223.258 6.64258 223.625 6.98242C223.996 7.32227 224.182 7.86719 224.182 8.61719V13H223.461ZM221.264 12.3145C221.869 12.3145 222.344 12.1484 222.688 11.8164C223.035 11.4844 223.209 11.0195 223.209 10.4219V9.8418L222.236 9.88281C221.463 9.91016 220.904 10.0312 220.561 10.2461C220.221 10.457 220.051 10.7871 220.051 11.2363C220.051 11.5879 220.156 11.8555 220.367 12.0391C220.582 12.2227 220.881 12.3145 221.264 12.3145ZM221.035 5.58203C221.223 5.33984 221.424 5.04688 221.639 4.70312C221.857 4.35938 222.029 4.06055 222.154 3.80664H223.338V3.92969C223.166 4.18359 222.91 4.49609 222.57 4.86719C222.23 5.23828 221.936 5.52539 221.686 5.72852H221.035V5.58203ZM229.158 13.1172C228.228 13.1172 227.507 12.832 226.996 12.2617C226.488 11.6875 226.234 10.877 226.234 9.83008C226.234 8.75586 226.492 7.92578 227.007 7.33984C227.527 6.75391 228.265 6.46094 229.222 6.46094C229.531 6.46094 229.839 6.49414 230.148 6.56055C230.457 6.62695 230.699 6.70508 230.875 6.79492L230.576 7.62109C230.361 7.53516 230.127 7.46484 229.873 7.41016C229.619 7.35156 229.394 7.32227 229.199 7.32227C227.894 7.32227 227.242 8.1543 227.242 9.81836C227.242 10.6074 227.4 11.2129 227.716 11.6348C228.037 12.0566 228.509 12.2676 229.134 12.2676C229.67 12.2676 230.218 12.1523 230.781 11.9219V12.7832C230.351 13.0059 229.81 13.1172 229.158 13.1172ZM239.216 6.47266C240.059 6.47266 240.714 6.76172 241.179 7.33984C241.647 7.91406 241.882 8.72852 241.882 9.7832C241.882 10.8379 241.645 11.6582 241.173 12.2441C240.704 12.8262 240.052 13.1172 239.216 13.1172C238.798 13.1172 238.415 13.041 238.067 12.8887C237.723 12.7324 237.434 12.4941 237.2 12.1738H237.13L236.925 13H236.227V3.88281H237.2V6.09766C237.2 6.59375 237.184 7.03906 237.153 7.43359H237.2C237.653 6.79297 238.325 6.47266 239.216 6.47266ZM239.075 7.28711C238.411 7.28711 237.932 7.47852 237.639 7.86133C237.346 8.24023 237.2 8.88086 237.2 9.7832C237.2 10.6855 237.35 11.332 237.651 11.7227C237.952 12.1094 238.434 12.3027 239.098 12.3027C239.696 12.3027 240.141 12.0859 240.434 11.6523C240.727 11.2148 240.874 10.5879 240.874 9.77148C240.874 8.93555 240.727 8.3125 240.434 7.90234C240.141 7.49219 239.688 7.28711 239.075 7.28711ZM244.959 13H243.987V6.57812H244.959V13ZM243.905 4.83789C243.905 4.61523 243.959 4.45312 244.069 4.35156C244.178 4.24609 244.315 4.19336 244.479 4.19336C244.635 4.19336 244.77 4.24609 244.883 4.35156C244.996 4.45703 245.053 4.61914 245.053 4.83789C245.053 5.05664 244.996 5.2207 244.883 5.33008C244.77 5.43555 244.635 5.48828 244.479 5.48828C244.315 5.48828 244.178 5.43555 244.069 5.33008C243.959 5.2207 243.905 5.05664 243.905 4.83789ZM250.135 13.1172C249.186 13.1172 248.436 12.8281 247.885 12.25C247.338 11.6719 247.064 10.8691 247.064 9.8418C247.064 8.80664 247.318 7.98438 247.826 7.375C248.338 6.76562 249.023 6.46094 249.883 6.46094C250.688 6.46094 251.324 6.72656 251.793 7.25781C252.262 7.78516 252.496 8.48242 252.496 9.34961V9.96484H248.072C248.092 10.7188 248.281 11.291 248.641 11.6816C249.004 12.0723 249.514 12.2676 250.17 12.2676C250.861 12.2676 251.545 12.123 252.221 11.834V12.7012C251.877 12.8496 251.551 12.9551 251.242 13.0176C250.938 13.084 250.568 13.1172 250.135 13.1172ZM249.871 7.27539C249.355 7.27539 248.943 7.44336 248.635 7.7793C248.33 8.11523 248.15 8.58008 248.096 9.17383H251.453C251.453 8.56055 251.316 8.0918 251.043 7.76758C250.77 7.43945 250.379 7.27539 249.871 7.27539ZM249.268 14.418C249.268 14.1953 249.324 14.0312 249.438 13.9258C249.555 13.8203 249.695 13.7676 249.859 13.7676C250.016 13.7676 250.15 13.8203 250.264 13.9258C250.377 14.0312 250.434 14.1953 250.434 14.418C250.434 14.6328 250.377 14.793 250.264 14.8984C250.15 15.0078 250.016 15.0625 249.859 15.0625C249.695 15.0625 249.555 15.0078 249.438 14.8984C249.324 14.793 249.268 14.6328 249.268 14.418ZM247.873 5.59375C248.369 5.0625 248.717 4.67188 248.916 4.42188C249.115 4.17188 249.26 3.9668 249.35 3.80664H250.322C250.408 3.9707 250.557 4.18359 250.768 4.44531C250.982 4.70312 251.334 5.08594 251.822 5.59375V5.72852H251.125C250.781 5.51367 250.35 5.15039 249.83 4.63867C249.299 5.16211 248.871 5.52539 248.547 5.72852H247.873V5.59375ZM256.634 12.3145C256.806 12.3145 256.972 12.3027 257.132 12.2793C257.293 12.252 257.42 12.2246 257.513 12.1973V12.9414C257.408 12.9922 257.252 13.0332 257.045 13.0645C256.841 13.0996 256.658 13.1172 256.494 13.1172C255.252 13.1172 254.63 12.4629 254.63 11.1543V7.33398H253.711V6.86523L254.63 6.46094L255.041 5.08984H255.603V6.57812H257.466V7.33398H255.603V11.1133C255.603 11.5 255.695 11.7969 255.879 12.0039C256.062 12.2109 256.314 12.3145 256.634 12.3145ZM266.862 11.248C266.862 11.8457 266.639 12.3066 266.194 12.6309C265.749 12.9551 265.124 13.1172 264.319 13.1172C263.468 13.1172 262.804 12.9824 262.327 12.7129V11.8105C262.636 11.9668 262.966 12.0898 263.317 12.1797C263.673 12.2695 264.014 12.3145 264.343 12.3145C264.85 12.3145 265.241 12.2344 265.514 12.0742C265.788 11.9102 265.925 11.6621 265.925 11.3301C265.925 11.0801 265.815 10.8672 265.596 10.6914C265.382 10.5117 264.96 10.3008 264.331 10.0586C263.733 9.83594 263.307 9.64258 263.054 9.47852C262.804 9.31055 262.616 9.12109 262.491 8.91016C262.37 8.69922 262.309 8.44727 262.309 8.1543C262.309 7.63086 262.522 7.21875 262.948 6.91797C263.374 6.61328 263.958 6.46094 264.7 6.46094C265.391 6.46094 266.067 6.60156 266.727 6.88281L266.382 7.67383C265.737 7.4082 265.153 7.27539 264.63 7.27539C264.169 7.27539 263.821 7.34766 263.587 7.49219C263.352 7.63672 263.235 7.83594 263.235 8.08984C263.235 8.26172 263.278 8.4082 263.364 8.5293C263.454 8.65039 263.596 8.76562 263.792 8.875C263.987 8.98438 264.362 9.14258 264.917 9.34961C265.679 9.62695 266.192 9.90625 266.458 10.1875C266.727 10.4688 266.862 10.8223 266.862 11.248ZM274.393 9.7832C274.393 10.8301 274.129 11.6484 273.602 12.2383C273.075 12.8242 272.346 13.1172 271.416 13.1172C270.842 13.1172 270.332 12.9824 269.887 12.7129C269.442 12.4434 269.098 12.0566 268.856 11.5527C268.614 11.0488 268.493 10.459 268.493 9.7832C268.493 8.73633 268.754 7.92188 269.278 7.33984C269.801 6.75391 270.528 6.46094 271.457 6.46094C272.356 6.46094 273.069 6.75977 273.596 7.35742C274.127 7.95508 274.393 8.76367 274.393 9.7832ZM269.5 9.7832C269.5 10.6035 269.664 11.2285 269.993 11.6582C270.321 12.0879 270.803 12.3027 271.44 12.3027C272.077 12.3027 272.559 12.0898 272.887 11.6641C273.219 11.2344 273.385 10.6074 273.385 9.7832C273.385 8.9668 273.219 8.34766 272.887 7.92578C272.559 7.5 272.073 7.28711 271.428 7.28711C270.791 7.28711 270.311 7.49609 269.987 7.91406C269.663 8.33203 269.5 8.95508 269.5 9.7832ZM281.427 13L278.99 6.57812H280.033L281.416 10.3867C281.728 11.2773 281.912 11.8555 281.966 12.1211H282.013C282.056 11.9141 282.191 11.4863 282.418 10.8379C282.648 10.1855 283.162 8.76562 283.959 6.57812H285.002L282.564 13H281.427ZM291.976 9.7832C291.976 10.8301 291.712 11.6484 291.185 12.2383C290.657 12.8242 289.929 13.1172 288.999 13.1172C288.425 13.1172 287.915 12.9824 287.47 12.7129C287.025 12.4434 286.681 12.0566 286.439 11.5527C286.196 11.0488 286.075 10.459 286.075 9.7832C286.075 8.73633 286.337 7.92188 286.861 7.33984C287.384 6.75391 288.111 6.46094 289.04 6.46094C289.888 6.46094 290.579 6.73633 291.114 7.28711C291.314 7.22852 291.47 7.13672 291.583 7.01172C291.696 6.88281 291.779 6.72266 291.829 6.53125C291.88 6.33594 291.905 6.02344 291.905 5.59375H292.96L293.048 5.72852C292.927 6.33789 292.747 6.81445 292.509 7.1582C292.275 7.49805 291.958 7.74219 291.56 7.89062C291.837 8.42969 291.976 9.06055 291.976 9.7832ZM287.083 9.7832C287.083 10.6074 287.237 11.2344 287.546 11.6641C287.855 12.0898 288.347 12.3027 289.023 12.3027C289.706 12.3027 290.2 12.0898 290.505 11.6641C290.814 11.2344 290.968 10.6074 290.968 9.7832C290.968 8.96289 290.812 8.3418 290.499 7.91992C290.191 7.49805 289.695 7.28711 289.011 7.28711C288.335 7.28711 287.845 7.49805 287.54 7.91992C287.236 8.3418 287.083 8.96289 287.083 9.7832ZM288.343 5.58203C288.53 5.33984 288.732 5.04688 288.946 4.70312C289.165 4.35938 289.337 4.06055 289.462 3.80664H290.646V3.92969C290.474 4.18359 290.218 4.49609 289.878 4.86719C289.538 5.23828 289.243 5.52539 288.993 5.72852H288.343V5.58203ZM295.118 13H294.145V6.57812H295.118V13ZM294.063 4.83789C294.063 4.61523 294.118 4.45312 294.227 4.35156C294.337 4.24609 294.473 4.19336 294.638 4.19336C294.794 4.19336 294.929 4.24609 295.042 4.35156C295.155 4.45703 295.212 4.61914 295.212 4.83789C295.212 5.05664 295.155 5.2207 295.042 5.33008C294.929 5.43555 294.794 5.48828 294.638 5.48828C294.473 5.48828 294.337 5.43555 294.227 5.33008C294.118 5.2207 294.063 5.05664 294.063 4.83789ZM303.664 13.1172C302.734 13.1172 302.014 12.832 301.502 12.2617C300.994 11.6875 300.74 10.877 300.74 9.83008C300.74 8.75586 300.998 7.92578 301.514 7.33984C302.033 6.75391 302.771 6.46094 303.729 6.46094C304.037 6.46094 304.346 6.49414 304.654 6.56055C304.963 6.62695 305.205 6.70508 305.381 6.79492L305.082 7.62109C304.867 7.53516 304.633 7.46484 304.379 7.41016C304.125 7.35156 303.9 7.32227 303.705 7.32227C302.4 7.32227 301.748 8.1543 301.748 9.81836C301.748 10.6074 301.906 11.2129 302.223 11.6348C302.543 12.0566 303.016 12.2676 303.641 12.2676C304.176 12.2676 304.725 12.1523 305.287 11.9219V12.7832C304.857 13.0059 304.316 13.1172 303.664 13.1172ZM311.166 13L310.972 12.0859H310.925C310.605 12.4883 310.285 12.7617 309.964 12.9062C309.648 13.0469 309.252 13.1172 308.775 13.1172C308.138 13.1172 307.638 12.9531 307.275 12.625C306.916 12.2969 306.736 11.8301 306.736 11.2246C306.736 9.92773 307.773 9.24805 309.847 9.18555L310.937 9.15039V8.75195C310.937 8.24805 310.828 7.87695 310.609 7.63867C310.394 7.39648 310.048 7.27539 309.572 7.27539C309.037 7.27539 308.431 7.43945 307.755 7.76758L307.457 7.02344C307.773 6.85156 308.119 6.7168 308.494 6.61914C308.873 6.52148 309.252 6.47266 309.63 6.47266C310.396 6.47266 310.962 6.64258 311.33 6.98242C311.701 7.32227 311.886 7.86719 311.886 8.61719V13H311.166ZM308.968 12.3145C309.574 12.3145 310.048 12.1484 310.392 11.8164C310.74 11.4844 310.914 11.0195 310.914 10.4219V9.8418L309.941 9.88281C309.168 9.91016 308.609 10.0312 308.265 10.2461C307.925 10.457 307.755 10.7871 307.755 11.2363C307.755 11.5879 307.861 11.8555 308.072 12.0391C308.287 12.2227 308.586 12.3145 308.968 12.3145ZM308.74 5.58203C308.927 5.33984 309.129 5.04688 309.343 4.70312C309.562 4.35938 309.734 4.06055 309.859 3.80664H311.043V3.92969C310.871 4.18359 310.615 4.49609 310.275 4.86719C309.935 5.23828 309.64 5.52539 309.39 5.72852H308.74V5.58203ZM316.862 13.1172C315.933 13.1172 315.212 12.832 314.7 12.2617C314.193 11.6875 313.939 10.877 313.939 9.83008C313.939 8.75586 314.196 7.92578 314.712 7.33984C315.232 6.75391 315.97 6.46094 316.927 6.46094C317.236 6.46094 317.544 6.49414 317.853 6.56055C318.161 6.62695 318.404 6.70508 318.579 6.79492L318.28 7.62109C318.066 7.53516 317.831 7.46484 317.577 7.41016C317.323 7.35156 317.099 7.32227 316.904 7.32227C315.599 7.32227 314.946 8.1543 314.946 9.81836C314.946 10.6074 315.105 11.2129 315.421 11.6348C315.741 12.0566 316.214 12.2676 316.839 12.2676C317.374 12.2676 317.923 12.1523 318.486 11.9219V12.7832C318.056 13.0059 317.515 13.1172 316.862 13.1172ZM328.303 12.1387H328.25C327.801 12.791 327.129 13.1172 326.235 13.1172C325.395 13.1172 324.741 12.8301 324.272 12.2559C323.807 11.6816 323.575 10.8652 323.575 9.80664C323.575 8.74805 323.809 7.92578 324.278 7.33984C324.746 6.75391 325.399 6.46094 326.235 6.46094C327.106 6.46094 327.774 6.77734 328.239 7.41016H328.315C328.272 7.08594 328.25 6.78125 328.25 6.49609V5.7168H325.625V4.96094H328.25V3.88281H329.223V4.96094H330.137V5.7168H329.223V13H328.432L328.303 12.1387ZM326.358 12.3027C327.022 12.3027 327.502 12.123 327.799 11.7637C328.1 11.4004 328.25 10.8164 328.25 10.0117V9.80664C328.25 8.89648 328.098 8.24805 327.793 7.86133C327.493 7.4707 327.01 7.27539 326.346 7.27539C325.776 7.27539 325.338 7.49805 325.034 7.94336C324.733 8.38477 324.582 9.00977 324.582 9.81836C324.582 10.6387 324.733 11.2578 325.034 11.6758C325.334 12.0938 325.776 12.3027 326.358 12.3027ZM337.234 9.7832C337.234 10.8301 336.971 11.6484 336.443 12.2383C335.916 12.8242 335.188 13.1172 334.258 13.1172C333.684 13.1172 333.174 12.9824 332.729 12.7129C332.283 12.4434 331.939 12.0566 331.697 11.5527C331.455 11.0488 331.334 10.459 331.334 9.7832C331.334 8.73633 331.596 7.92188 332.119 7.33984C332.643 6.75391 333.369 6.46094 334.299 6.46094C335.197 6.46094 335.91 6.75977 336.438 7.35742C336.969 7.95508 337.234 8.76367 337.234 9.7832ZM332.342 9.7832C332.342 10.6035 332.506 11.2285 332.834 11.6582C333.162 12.0879 333.645 12.3027 334.281 12.3027C334.918 12.3027 335.4 12.0898 335.729 11.6641C336.061 11.2344 336.227 10.6074 336.227 9.7832C336.227 8.9668 336.061 8.34766 335.729 7.92578C335.4 7.5 334.914 7.28711 334.27 7.28711C333.633 7.28711 333.152 7.49609 332.828 7.91406C332.504 8.33203 332.342 8.95508 332.342 9.7832ZM336.062 5.72852H335.512C335.074 5.43555 334.662 5.11133 334.275 4.75586C333.83 5.15039 333.418 5.47461 333.039 5.72852H332.488V5.58203L332.799 5.23047C333.236 4.75 333.557 4.35938 333.76 4.05859H334.791C335.049 4.42578 335.473 4.93359 336.062 5.58203V5.72852ZM335.594 4.44531C335.879 4.08984 336.127 3.69336 336.338 3.25586H337.346V3.37891C337.021 3.80859 336.625 4.21094 336.156 4.58594H335.594V4.44531ZM340.318 13H339.345V6.57812H340.318V13ZM339.263 4.83789C339.263 4.61523 339.318 4.45312 339.427 4.35156C339.537 4.24609 339.673 4.19336 339.837 4.19336C339.994 4.19336 340.129 4.24609 340.242 4.35156C340.355 4.45703 340.412 4.61914 340.412 4.83789C340.412 5.05664 340.355 5.2207 340.242 5.33008C340.129 5.43555 339.994 5.48828 339.837 5.48828C339.673 5.48828 339.537 5.43555 339.427 5.33008C339.318 5.2207 339.263 5.05664 339.263 4.83789ZM3.10547 28.3145C3.27734 28.3145 3.44336 28.3027 3.60352 28.2793C3.76367 28.252 3.89062 28.2246 3.98438 28.1973V28.9414C3.87891 28.9922 3.72266 29.0332 3.51562 29.0645C3.3125 29.0996 3.12891 29.1172 2.96484 29.1172C1.72266 29.1172 1.10156 28.4629 1.10156 27.1543V23.334H0.181641V22.8652L1.10156 22.4609L1.51172 21.0898H2.07422V22.5781H3.9375V23.334H2.07422V27.1133C2.07422 27.5 2.16602 27.7969 2.34961 28.0039C2.5332 28.2109 2.78516 28.3145 3.10547 28.3145ZM10.068 29V24.8457C10.068 24.3223 9.94883 23.9316 9.71055 23.6738C9.47227 23.416 9.09922 23.2871 8.59141 23.2871C7.91563 23.2871 7.42148 23.4707 7.10898 23.8379C6.80039 24.2051 6.64609 24.8066 6.64609 25.6426V29H5.67344V19.8828H6.64609V22.6426C6.64609 22.9746 6.63047 23.25 6.59922 23.4688H6.65781C6.84922 23.1602 7.1207 22.918 7.47227 22.7422C7.82773 22.5625 8.23203 22.4727 8.68516 22.4727C9.47031 22.4727 10.0582 22.6602 10.4488 23.0352C10.8434 23.4062 11.0406 23.998 11.0406 24.8105V29H10.068ZM14.3586 22.5781V26.7441C14.3586 27.2676 14.4777 27.6582 14.716 27.916C14.9543 28.1738 15.3273 28.3027 15.8352 28.3027C16.507 28.3027 16.9973 28.1191 17.3059 27.752C17.6184 27.3848 17.7746 26.7852 17.7746 25.9531V22.5781H18.7473V29H17.9445L17.8039 28.1387H17.7512C17.552 28.4551 17.2746 28.6973 16.9191 28.8652C16.5676 29.0332 16.1652 29.1172 15.7121 29.1172C14.9309 29.1172 14.3449 28.9316 13.9543 28.5605C13.5676 28.1895 13.3742 27.5957 13.3742 26.7793V22.5781H14.3586ZM17.3352 20.2402C17.3352 20.7871 17.0109 21.127 16.3625 21.2598L16.3039 21.9219H15.6887L15.6184 20.8906C15.9543 20.8359 16.1984 20.7598 16.3508 20.6621C16.5031 20.5645 16.5793 20.4316 16.5793 20.2637C16.5793 20.0957 16.5129 19.9727 16.3801 19.8945C16.2512 19.8125 16.0441 19.7715 15.759 19.7715C15.5168 19.7715 15.3332 19.7832 15.2082 19.8066V19.2207C15.3566 19.1816 15.5656 19.1621 15.8352 19.1621C16.8352 19.1621 17.3352 19.5215 17.3352 20.2402ZM27.2992 29.1172C26.3695 29.1172 25.6488 28.832 25.1371 28.2617C24.6293 27.6875 24.3754 26.877 24.3754 25.8301C24.3754 24.7559 24.6332 23.9258 25.1488 23.3398C25.6684 22.7539 26.4066 22.4609 27.3637 22.4609C27.6723 22.4609 27.9809 22.4941 28.2895 22.5605C28.598 22.627 28.8402 22.7051 29.016 22.7949L28.7172 23.6211C28.5023 23.5352 28.268 23.4648 28.0141 23.4102C27.7602 23.3516 27.5355 23.3223 27.3402 23.3223C26.0355 23.3223 25.3832 24.1543 25.3832 25.8184C25.3832 26.6074 25.5414 27.2129 25.8578 27.6348C26.1781 28.0566 26.6508 28.2676 27.2758 28.2676C27.8109 28.2676 28.3598 28.1523 28.9223 27.9219V28.7832C28.4926 29.0059 27.9516 29.1172 27.2992 29.1172ZM34.8008 29L34.6074 28.0859H34.5605C34.2402 28.4883 33.9199 28.7617 33.5996 28.9062C33.2832 29.0469 32.8867 29.1172 32.4102 29.1172C31.7734 29.1172 31.2734 28.9531 30.9102 28.625C30.5508 28.2969 30.3711 27.8301 30.3711 27.2246C30.3711 25.9277 31.4082 25.248 33.4824 25.1855L34.5723 25.1504V24.752C34.5723 24.248 34.4629 23.877 34.2441 23.6387C34.0293 23.3965 33.6836 23.2754 33.207 23.2754C32.6719 23.2754 32.0664 23.4395 31.3906 23.7676L31.0918 23.0234C31.4082 22.8516 31.7539 22.7168 32.1289 22.6191C32.5078 22.5215 32.8867 22.4727 33.2656 22.4727C34.0312 22.4727 34.5977 22.6426 34.9648 22.9824C35.3359 23.3223 35.5215 23.8672 35.5215 24.6172V29H34.8008ZM32.6035 28.3145C33.209 28.3145 33.6836 28.1484 34.0273 27.8164C34.375 27.4844 34.5488 27.0195 34.5488 26.4219V25.8418L33.5762 25.8828C32.8027 25.9102 32.2441 26.0312 31.9004 26.2461C31.5605 26.457 31.3906 26.7871 31.3906 27.2363C31.3906 27.5879 31.4961 27.8555 31.707 28.0391C31.9219 28.2227 32.2207 28.3145 32.6035 28.3145ZM32.375 30.418C32.375 30.1953 32.4316 30.0312 32.5449 29.9258C32.6621 29.8203 32.8027 29.7676 32.9668 29.7676C33.123 29.7676 33.2578 29.8203 33.3711 29.9258C33.4844 30.0312 33.541 30.1953 33.541 30.418C33.541 30.6328 33.4844 30.793 33.3711 30.8984C33.2578 31.0078 33.123 31.0625 32.9668 31.0625C32.8027 31.0625 32.6621 31.0078 32.5449 30.8984C32.4316 30.793 32.375 30.6328 32.375 30.418ZM42.3258 29V24.8457C42.3258 24.3223 42.2066 23.9316 41.9684 23.6738C41.7301 23.416 41.357 23.2871 40.8492 23.2871C40.1773 23.2871 39.6852 23.4688 39.3727 23.832C39.0602 24.1953 38.9039 24.7949 38.9039 25.6309V29H37.9313V22.5781H38.7223L38.8805 23.457H38.9273C39.1266 23.1406 39.4059 22.8965 39.7652 22.7246C40.1246 22.5488 40.525 22.4609 40.9664 22.4609C41.7398 22.4609 42.3219 22.6484 42.7125 23.0234C43.1031 23.3945 43.2984 23.9902 43.2984 24.8105V29H42.3258ZM50.0969 29V24.8457C50.0969 24.3223 49.9777 23.9316 49.7395 23.6738C49.5012 23.416 49.1281 23.2871 48.6203 23.2871C47.9445 23.2871 47.4504 23.4707 47.1379 23.8379C46.8293 24.2051 46.675 24.8066 46.675 25.6426V29H45.7023V19.8828H46.675V22.6426C46.675 22.9746 46.6594 23.25 46.6281 23.4688H46.6867C46.8781 23.1602 47.1496 22.918 47.5012 22.7422C47.8566 22.5625 48.2609 22.4727 48.7141 22.4727C49.4992 22.4727 50.0871 22.6602 50.4777 23.0352C50.8723 23.4062 51.0695 23.998 51.0695 24.8105V29H50.0969ZM59.0648 28.3145C59.2367 28.3145 59.4027 28.3027 59.5629 28.2793C59.723 28.252 59.85 28.2246 59.9437 28.1973V28.9414C59.8383 28.9922 59.682 29.0332 59.475 29.0645C59.2719 29.0996 59.0883 29.1172 58.9242 29.1172C57.682 29.1172 57.0609 28.4629 57.0609 27.1543V23.334H56.141V22.8652L57.0609 22.4609L57.4711 21.0898H58.0336V22.5781H59.8969V23.334H58.0336V27.1133C58.0336 27.5 58.1254 27.7969 58.309 28.0039C58.4926 28.2109 58.7445 28.3145 59.0648 28.3145ZM64.5625 22.4609C64.8477 22.4609 65.1035 22.4844 65.3301 22.5312L65.1953 23.4336C64.9297 23.375 64.6953 23.3457 64.4922 23.3457C63.9727 23.3457 63.5273 23.5566 63.1562 23.9785C62.7891 24.4004 62.6055 24.9258 62.6055 25.5547V29H61.6328V22.5781H62.4355L62.5469 23.7676H62.5938C62.832 23.3496 63.1191 23.0273 63.4551 22.8008C63.791 22.5742 64.1602 22.4609 64.5625 22.4609ZM70.8805 29L70.6871 28.0859H70.6402C70.3199 28.4883 69.9996 28.7617 69.6793 28.9062C69.3629 29.0469 68.9664 29.1172 68.4898 29.1172C67.8531 29.1172 67.3531 28.9531 66.9898 28.625C66.6305 28.2969 66.4508 27.8301 66.4508 27.2246C66.4508 25.9277 67.4879 25.248 69.5621 25.1855L70.652 25.1504V24.752C70.652 24.248 70.5426 23.877 70.3238 23.6387C70.109 23.3965 69.7633 23.2754 69.2867 23.2754C68.7516 23.2754 68.1461 23.4395 67.4703 23.7676L67.1715 23.0234C67.4879 22.8516 67.8336 22.7168 68.2086 22.6191C68.5875 22.5215 68.9664 22.4727 69.3453 22.4727C70.1109 22.4727 70.6773 22.6426 71.0445 22.9824C71.4156 23.3223 71.6012 23.8672 71.6012 24.6172V29H70.8805ZM68.6832 28.3145C69.2887 28.3145 69.7633 28.1484 70.107 27.8164C70.4547 27.4844 70.6285 27.0195 70.6285 26.4219V25.8418L69.6559 25.8828C68.8824 25.9102 68.3238 26.0312 67.9801 26.2461C67.6402 26.457 67.4703 26.7871 67.4703 27.2363C67.4703 27.5879 67.5758 27.8555 67.7867 28.0391C68.0016 28.2227 68.3004 28.3145 68.6832 28.3145ZM78.4055 29V24.8457C78.4055 24.3223 78.2863 23.9316 78.048 23.6738C77.8098 23.416 77.4367 23.2871 76.9289 23.2871C76.257 23.2871 75.7648 23.4688 75.4523 23.832C75.1398 24.1953 74.9836 24.7949 74.9836 25.6309V29H74.0109V22.5781H74.802L74.9602 23.457H75.007C75.2063 23.1406 75.4855 22.8965 75.8449 22.7246C76.2043 22.5488 76.6047 22.4609 77.0461 22.4609C77.8195 22.4609 78.4016 22.6484 78.7922 23.0234C79.1828 23.3945 79.3781 23.9902 79.3781 24.8105V29H78.4055ZM86.1766 29V24.8457C86.1766 24.3223 86.0574 23.9316 85.8191 23.6738C85.5809 23.416 85.2078 23.2871 84.7 23.2871C84.0242 23.2871 83.5301 23.4707 83.2176 23.8379C82.909 24.2051 82.7547 24.8066 82.7547 25.6426V29H81.782V19.8828H82.7547V22.6426C82.7547 22.9746 82.7391 23.25 82.7078 23.4688H82.7664C82.9578 23.1602 83.2293 22.918 83.5809 22.7422C83.9363 22.5625 84.3406 22.4727 84.7937 22.4727C85.5789 22.4727 86.1668 22.6602 86.5574 23.0352C86.952 23.4062 87.1492 23.998 87.1492 24.8105V29H86.1766ZM89.4125 28.3789C89.4125 28.1172 89.4711 27.9199 89.5883 27.7871C89.7094 27.6504 89.8812 27.582 90.1039 27.582C90.3305 27.582 90.5062 27.6504 90.6312 27.7871C90.7602 27.9199 90.8246 28.1172 90.8246 28.3789C90.8246 28.6328 90.7602 28.8281 90.6312 28.9648C90.5023 29.1016 90.3266 29.1699 90.1039 29.1699C89.9047 29.1699 89.7387 29.1094 89.6059 28.9883C89.477 28.8633 89.4125 28.6602 89.4125 28.3789ZM89.4125 23.2051C89.4125 22.6777 89.643 22.4141 90.1039 22.4141C90.5844 22.4141 90.8246 22.6777 90.8246 23.2051C90.8246 23.459 90.7602 23.6543 90.6312 23.791C90.5023 23.9277 90.3266 23.9961 90.1039 23.9961C89.9047 23.9961 89.7387 23.9355 89.6059 23.8145C89.477 23.6895 89.4125 23.4863 89.4125 23.2051ZM101.064 29V24.8457C101.064 24.3223 100.945 23.9316 100.707 23.6738C100.468 23.416 100.095 23.2871 99.5875 23.2871C98.9156 23.2871 98.4234 23.4688 98.1109 23.832C97.7984 24.1953 97.6422 24.7949 97.6422 25.6309V29H96.6695V22.5781H97.4605L97.6188 23.457H97.6656C97.8648 23.1406 98.1441 22.8965 98.5035 22.7246C98.8629 22.5488 99.2633 22.4609 99.7047 22.4609C100.478 22.4609 101.06 22.6484 101.451 23.0234C101.841 23.3945 102.037 23.9902 102.037 24.8105V29H101.064ZM107.154 29.1172C106.204 29.1172 105.454 28.8281 104.904 28.25C104.357 27.6719 104.083 26.8691 104.083 25.8418C104.083 24.8066 104.337 23.9844 104.845 23.375C105.357 22.7656 106.042 22.4609 106.902 22.4609C107.706 22.4609 108.343 22.7266 108.812 23.2578C109.28 23.7852 109.515 24.4824 109.515 25.3496V25.9648H105.091C105.111 26.7188 105.3 27.291 105.659 27.6816C106.023 28.0723 106.532 28.2676 107.189 28.2676C107.88 28.2676 108.564 28.123 109.239 27.834V28.7012C108.896 28.8496 108.57 28.9551 108.261 29.0176C107.956 29.084 107.587 29.1172 107.154 29.1172ZM106.89 23.2754C106.374 23.2754 105.962 23.4434 105.654 23.7793C105.349 24.1152 105.169 24.5801 105.114 25.1738H108.472C108.472 24.5605 108.335 24.0918 108.062 23.7676C107.788 23.4395 107.398 23.2754 106.89 23.2754ZM104.927 21.5938C105.423 21.0625 105.771 20.6719 105.97 20.4219C106.169 20.1719 106.314 19.9668 106.404 19.8066H107.376C107.462 19.9707 107.611 20.1836 107.821 20.4453C108.036 20.7031 108.388 21.0859 108.876 21.5938V21.7285H108.179C107.835 21.5137 107.404 21.1504 106.884 20.6387C106.353 21.1621 105.925 21.5254 105.601 21.7285H104.927V21.5938ZM115.973 29V24.8457C115.973 24.3223 115.854 23.9316 115.616 23.6738C115.378 23.416 115.005 23.2871 114.497 23.2871C113.825 23.2871 113.333 23.4688 113.02 23.832C112.708 24.1953 112.552 24.7949 112.552 25.6309V29H111.579V22.5781H112.37L112.528 23.457H112.575C112.774 23.1406 113.054 22.8965 113.413 22.7246C113.772 22.5488 114.173 22.4609 114.614 22.4609C115.387 22.4609 115.97 22.6484 116.36 23.0234C116.751 23.3945 116.946 23.9902 116.946 24.8105V29H115.973ZM123.84 29H122.867V19.8828H123.84V29ZM130.252 29L130.058 28.0859H130.011C129.691 28.4883 129.371 28.7617 129.05 28.9062C128.734 29.0469 128.338 29.1172 127.861 29.1172C127.224 29.1172 126.724 28.9531 126.361 28.625C126.002 28.2969 125.822 27.8301 125.822 27.2246C125.822 25.9277 126.859 25.248 128.933 25.1855L130.023 25.1504V24.752C130.023 24.248 129.914 23.877 129.695 23.6387C129.48 23.3965 129.134 23.2754 128.658 23.2754C128.123 23.2754 127.517 23.4395 126.841 23.7676L126.543 23.0234C126.859 22.8516 127.205 22.7168 127.58 22.6191C127.959 22.5215 128.338 22.4727 128.716 22.4727C129.482 22.4727 130.048 22.6426 130.416 22.9824C130.787 23.3223 130.972 23.8672 130.972 24.6172V29H130.252ZM128.054 28.3145C128.66 28.3145 129.134 28.1484 129.478 27.8164C129.826 27.4844 130 27.0195 130 26.4219V25.8418L129.027 25.8828C128.254 25.9102 127.695 26.0312 127.351 26.2461C127.011 26.457 126.841 26.7871 126.841 27.2363C126.841 27.5879 126.947 27.8555 127.158 28.0391C127.373 28.2227 127.671 28.3145 128.054 28.3145ZM129.209 21.7285H128.564C128.31 21.5254 128.009 21.2363 127.662 20.8613C127.314 20.4863 127.062 20.1758 126.906 19.9297V19.8066H128.095C128.22 20.0762 128.394 20.3887 128.617 20.7441C128.839 21.0957 129.037 21.375 129.209 21.582V21.7285ZM145.085 29V24.8223C145.085 24.3105 144.975 23.9277 144.757 23.6738C144.538 23.416 144.198 23.2871 143.737 23.2871C143.132 23.2871 142.684 23.4609 142.395 23.8086C142.106 24.1562 141.962 24.6914 141.962 25.4141V29H140.989V24.8223C140.989 24.3105 140.88 23.9277 140.661 23.6738C140.442 23.416 140.1 23.2871 139.636 23.2871C139.026 23.2871 138.579 23.4707 138.294 23.8379C138.012 24.2012 137.872 24.7988 137.872 25.6309V29H136.899V22.5781H137.69L137.848 23.457H137.895C138.079 23.1445 138.337 22.9004 138.669 22.7246C139.005 22.5488 139.38 22.4609 139.794 22.4609C140.798 22.4609 141.454 22.8242 141.762 23.5508H141.809C142.001 23.2148 142.278 22.9492 142.641 22.7539C143.005 22.5586 143.419 22.4609 143.884 22.4609C144.61 22.4609 145.153 22.6484 145.512 23.0234C145.876 23.3945 146.057 23.9902 146.057 24.8105V29H145.085ZM154.01 25.7832C154.01 26.8301 153.746 27.6484 153.219 28.2383C152.692 28.8242 151.963 29.1172 151.034 29.1172C150.459 29.1172 149.95 28.9824 149.504 28.7129C149.059 28.4434 148.715 28.0566 148.473 27.5527C148.231 27.0488 148.11 26.459 148.11 25.7832C148.11 24.7363 148.371 23.9219 148.895 23.3398C149.418 22.7539 150.145 22.4609 151.075 22.4609C151.973 22.4609 152.686 22.7598 153.213 23.3574C153.745 23.9551 154.01 24.7637 154.01 25.7832ZM149.118 25.7832C149.118 26.6035 149.282 27.2285 149.61 27.6582C149.938 28.0879 150.42 28.3027 151.057 28.3027C151.694 28.3027 152.176 28.0898 152.504 27.6641C152.836 27.2344 153.002 26.6074 153.002 25.7832C153.002 24.9668 152.836 24.3477 152.504 23.9258C152.176 23.5 151.69 23.2871 151.045 23.2871C150.409 23.2871 149.928 23.4961 149.604 23.9141C149.28 24.332 149.118 24.9551 149.118 25.7832ZM150.483 30.418C150.483 30.1953 150.539 30.0312 150.653 29.9258C150.77 29.8203 150.911 29.7676 151.075 29.7676C151.231 29.7676 151.366 29.8203 151.479 29.9258C151.592 30.0312 151.649 30.1953 151.649 30.418C151.649 30.6328 151.592 30.793 151.479 30.8984C151.366 31.0078 151.231 31.0625 151.075 31.0625C150.911 31.0625 150.77 31.0078 150.653 30.8984C150.539 30.793 150.483 30.6328 150.483 30.418ZM149.088 21.5938C149.584 21.0625 149.932 20.6719 150.131 20.4219C150.33 20.1719 150.475 19.9668 150.565 19.8066H151.538C151.623 19.9707 151.772 20.1836 151.983 20.4453C152.198 20.7031 152.549 21.0859 153.038 21.5938V21.7285H152.34C151.996 21.5137 151.565 21.1504 151.045 20.6387C150.514 21.1621 150.086 21.5254 149.762 21.7285H149.088V21.5938ZM158.195 28.3145C158.367 28.3145 158.533 28.3027 158.693 28.2793C158.854 28.252 158.98 28.2246 159.074 28.1973V28.9414C158.969 28.9922 158.812 29.0332 158.605 29.0645C158.402 29.0996 158.219 29.1172 158.055 29.1172C156.812 29.1172 156.191 28.4629 156.191 27.1543V23.334H155.271V22.8652L156.191 22.4609L156.602 21.0898H157.164V22.5781H159.027V23.334H157.164V27.1133C157.164 27.5 157.256 27.7969 157.439 28.0039C157.623 28.2109 157.875 28.3145 158.195 28.3145ZM169.536 22.5781V23.1934L168.347 23.334C168.456 23.4707 168.554 23.6504 168.64 23.873C168.726 24.0918 168.769 24.3398 168.769 24.6172C168.769 25.2461 168.554 25.748 168.124 26.123C167.695 26.498 167.105 26.6855 166.355 26.6855C166.163 26.6855 165.984 26.6699 165.816 26.6387C165.402 26.8574 165.195 27.1328 165.195 27.4648C165.195 27.6406 165.267 27.7715 165.411 27.8574C165.556 27.9395 165.804 27.9805 166.155 27.9805H167.292C167.988 27.9805 168.521 28.127 168.892 28.4199C169.267 28.7129 169.454 29.1387 169.454 29.6973C169.454 30.4082 169.169 30.9492 168.599 31.3203C168.029 31.6953 167.196 31.8828 166.103 31.8828C165.263 31.8828 164.614 31.7266 164.157 31.4141C163.704 31.1016 163.478 30.6602 163.478 30.0898C163.478 29.6992 163.603 29.3613 163.853 29.0762C164.103 28.791 164.454 28.5977 164.907 28.4961C164.743 28.4219 164.605 28.3066 164.491 28.1504C164.382 27.9941 164.327 27.8125 164.327 27.6055C164.327 27.3711 164.39 27.166 164.515 26.9902C164.64 26.8145 164.837 26.6445 165.107 26.4805C164.775 26.3438 164.503 26.1113 164.292 25.7832C164.085 25.4551 163.982 25.0801 163.982 24.6582C163.982 23.9551 164.193 23.4141 164.614 23.0352C165.036 22.6523 165.634 22.4609 166.407 22.4609C166.743 22.4609 167.046 22.5 167.316 22.5781H169.536ZM164.415 30.0781C164.415 30.4258 164.562 30.6895 164.855 30.8691C165.148 31.0488 165.568 31.1387 166.114 31.1387C166.931 31.1387 167.534 31.0156 167.925 30.7695C168.32 30.5273 168.517 30.1973 168.517 29.7793C168.517 29.4316 168.409 29.1895 168.195 29.0527C167.98 28.9199 167.575 28.8535 166.982 28.8535H165.816C165.374 28.8535 165.03 28.959 164.784 29.1699C164.538 29.3809 164.415 29.6836 164.415 30.0781ZM164.943 24.6348C164.943 25.084 165.07 25.4238 165.323 25.6543C165.577 25.8848 165.931 26 166.384 26C167.333 26 167.808 25.5391 167.808 24.6172C167.808 23.6523 167.327 23.1699 166.366 23.1699C165.909 23.1699 165.558 23.293 165.312 23.5391C165.066 23.7852 164.943 24.1504 164.943 24.6348ZM172.227 29H171.255V22.5781H172.227V29ZM171.173 20.8379C171.173 20.6152 171.227 20.4531 171.337 20.3516C171.446 20.2461 171.583 20.1934 171.747 20.1934C171.903 20.1934 172.038 20.2461 172.151 20.3516C172.264 20.457 172.321 20.6191 172.321 20.8379C172.321 21.0566 172.264 21.2207 172.151 21.3301C172.038 21.4355 171.903 21.4883 171.747 21.4883C171.583 21.4883 171.446 21.4355 171.337 21.3301C171.227 21.2207 171.173 21.0566 171.173 20.8379ZM178.639 29L178.446 28.0859H178.399C178.079 28.4883 177.758 28.7617 177.438 28.9062C177.121 29.0469 176.725 29.1172 176.248 29.1172C175.612 29.1172 175.112 28.9531 174.748 28.625C174.389 28.2969 174.209 27.8301 174.209 27.2246C174.209 25.9277 175.246 25.248 177.321 25.1855L178.411 25.1504V24.752C178.411 24.248 178.301 23.877 178.082 23.6387C177.868 23.3965 177.522 23.2754 177.045 23.2754C176.51 23.2754 175.905 23.4395 175.229 23.7676L174.93 23.0234C175.246 22.8516 175.592 22.7168 175.967 22.6191C176.346 22.5215 176.725 22.4727 177.104 22.4727C177.87 22.4727 178.436 22.6426 178.803 22.9824C179.174 23.3223 179.36 23.8672 179.36 24.6172V29H178.639ZM176.442 28.3145C177.047 28.3145 177.522 28.1484 177.866 27.8164C178.213 27.4844 178.387 27.0195 178.387 26.4219V25.8418L177.414 25.8828C176.641 25.9102 176.082 26.0312 175.739 26.2461C175.399 26.457 175.229 26.7871 175.229 27.2363C175.229 27.5879 175.334 27.8555 175.545 28.0391C175.76 28.2227 176.059 28.3145 176.442 28.3145ZM178.305 20.2402C178.305 20.7871 177.981 21.127 177.332 21.2598L177.274 21.9219H176.659L176.588 20.8906C176.924 20.8359 177.168 20.7598 177.321 20.6621C177.473 20.5645 177.549 20.4316 177.549 20.2637C177.549 20.0957 177.483 19.9727 177.35 19.8945C177.221 19.8125 177.014 19.7715 176.729 19.7715C176.487 19.7715 176.303 19.7832 176.178 19.8066V19.2207C176.327 19.1816 176.536 19.1621 176.805 19.1621C177.805 19.1621 178.305 19.5215 178.305 20.2402ZM182.742 29H181.77V22.5781H182.742V29ZM181.688 20.8379C181.688 20.6152 181.742 20.4531 181.852 20.3516C181.961 20.2461 182.098 20.1934 182.262 20.1934C182.418 20.1934 182.553 20.2461 182.666 20.3516C182.779 20.457 182.836 20.6191 182.836 20.8379C182.836 21.0566 182.779 21.2207 182.666 21.3301C182.553 21.4355 182.418 21.4883 182.262 21.4883C182.098 21.4883 181.961 21.4355 181.852 21.3301C181.742 21.2207 181.688 21.0566 181.688 20.8379ZM191.71 29.1172C191.292 29.1172 190.909 29.041 190.562 28.8887C190.218 28.7324 189.929 28.4941 189.695 28.1738H189.624C189.671 28.5488 189.695 28.9043 189.695 29.2402V31.8828H188.722V22.5781H189.513L189.648 23.457H189.695C189.945 23.1055 190.236 22.8516 190.568 22.6953C190.9 22.5391 191.28 22.4609 191.71 22.4609C192.562 22.4609 193.218 22.752 193.679 23.334C194.144 23.916 194.376 24.7324 194.376 25.7832C194.376 26.8379 194.14 27.6582 193.667 28.2441C193.198 28.8262 192.546 29.1172 191.71 29.1172ZM191.57 23.2871C190.913 23.2871 190.439 23.4688 190.146 23.832C189.853 24.1953 189.702 24.7734 189.695 25.5664V25.7832C189.695 26.6855 189.845 27.332 190.146 27.7227C190.446 28.1094 190.929 28.3027 191.593 28.3027C192.148 28.3027 192.581 28.0781 192.894 27.6289C193.21 27.1797 193.368 26.5605 193.368 25.7715C193.368 24.9707 193.21 24.3574 192.894 23.9316C192.581 23.502 192.14 23.2871 191.57 23.2871ZM200.876 29V24.8457C200.876 24.3223 200.757 23.9316 200.518 23.6738C200.28 23.416 199.907 23.2871 199.399 23.2871C198.723 23.2871 198.229 23.4707 197.917 23.8379C197.608 24.2051 197.454 24.8066 197.454 25.6426V29H196.481V19.8828H197.454V22.6426C197.454 22.9746 197.438 23.25 197.407 23.4688H197.466C197.657 23.1602 197.929 22.918 198.28 22.7422C198.636 22.5625 199.04 22.4727 199.493 22.4727C200.278 22.4727 200.866 22.6602 201.257 23.0352C201.651 23.4062 201.848 23.998 201.848 24.8105V29H200.876ZM208.202 29L208.008 28.0859H207.961C207.641 28.4883 207.321 28.7617 207 28.9062C206.684 29.0469 206.288 29.1172 205.811 29.1172C205.174 29.1172 204.674 28.9531 204.311 28.625C203.952 28.2969 203.772 27.8301 203.772 27.2246C203.772 25.9277 204.809 25.248 206.883 25.1855L207.973 25.1504V24.752C207.973 24.248 207.864 23.877 207.645 23.6387C207.43 23.3965 207.084 23.2754 206.608 23.2754C206.073 23.2754 205.467 23.4395 204.791 23.7676L204.493 23.0234C204.809 22.8516 205.155 22.7168 205.53 22.6191C205.909 22.5215 206.288 22.4727 206.666 22.4727C207.432 22.4727 207.998 22.6426 208.366 22.9824C208.737 23.3223 208.922 23.8672 208.922 24.6172V29H208.202ZM206.004 28.3145C206.61 28.3145 207.084 28.1484 207.428 27.8164C207.776 27.4844 207.95 27.0195 207.95 26.4219V25.8418L206.977 25.8828C206.204 25.9102 205.645 26.0312 205.301 26.2461C204.961 26.457 204.791 26.7871 204.791 27.2363C204.791 27.5879 204.897 27.8555 205.108 28.0391C205.323 28.2227 205.621 28.3145 206.004 28.3145ZM205.776 21.582C205.963 21.3398 206.164 21.0469 206.379 20.7031C206.598 20.3594 206.77 20.0605 206.895 19.8066H208.079V19.9297C207.907 20.1836 207.651 20.4961 207.311 20.8672C206.971 21.2383 206.676 21.5254 206.426 21.7285H205.776V21.582ZM214.32 29.1172C213.902 29.1172 213.52 29.041 213.172 28.8887C212.828 28.7324 212.539 28.4941 212.305 28.1738H212.234C212.281 28.5488 212.305 28.9043 212.305 29.2402V31.8828H211.332V22.5781H212.123L212.258 23.457H212.305C212.555 23.1055 212.846 22.8516 213.178 22.6953C213.51 22.5391 213.891 22.4609 214.32 22.4609C215.172 22.4609 215.828 22.752 216.289 23.334C216.754 23.916 216.986 24.7324 216.986 25.7832C216.986 26.8379 216.75 27.6582 216.277 28.2441C215.809 28.8262 215.156 29.1172 214.32 29.1172ZM214.18 23.2871C213.523 23.2871 213.049 23.4688 212.756 23.832C212.463 24.1953 212.312 24.7734 212.305 25.5664V25.7832C212.305 26.6855 212.455 27.332 212.756 27.7227C213.057 28.1094 213.539 28.3027 214.203 28.3027C214.758 28.3027 215.191 28.0781 215.504 27.6289C215.82 27.1797 215.979 26.5605 215.979 25.7715C215.979 24.9707 215.82 24.3574 215.504 23.9316C215.191 23.502 214.75 23.2871 214.18 23.2871ZM225.597 22.4727C226.441 22.4727 227.095 22.7617 227.56 23.3398C228.029 23.9141 228.263 24.7285 228.263 25.7832C228.263 26.8379 228.027 27.6582 227.554 28.2441C227.085 28.8262 226.433 29.1172 225.597 29.1172C225.179 29.1172 224.796 29.041 224.448 28.8887C224.105 28.7324 223.816 28.4941 223.581 28.1738H223.511L223.306 29H222.609V19.8828H223.581V22.0977C223.581 22.5938 223.566 23.0391 223.534 23.4336H223.581C224.034 22.793 224.706 22.4727 225.597 22.4727ZM225.456 23.2871C224.792 23.2871 224.314 23.4785 224.021 23.8613C223.728 24.2402 223.581 24.8809 223.581 25.7832C223.581 26.6855 223.732 27.332 224.032 27.7227C224.333 28.1094 224.816 28.3027 225.48 28.3027C226.077 28.3027 226.523 28.0859 226.816 27.6523C227.109 27.2148 227.255 26.5879 227.255 25.7715C227.255 24.9355 227.109 24.3125 226.816 23.9023C226.523 23.4922 226.07 23.2871 225.456 23.2871ZM233.081 29.1172C232.132 29.1172 231.382 28.8281 230.831 28.25C230.284 27.6719 230.011 26.8691 230.011 25.8418C230.011 24.8066 230.264 23.9844 230.772 23.375C231.284 22.7656 231.97 22.4609 232.829 22.4609C233.634 22.4609 234.27 22.7266 234.739 23.2578C235.208 23.7852 235.442 24.4824 235.442 25.3496V25.9648H231.018C231.038 26.7188 231.227 27.291 231.587 27.6816C231.95 28.0723 232.46 28.2676 233.116 28.2676C233.807 28.2676 234.491 28.123 235.167 27.834V28.7012C234.823 28.8496 234.497 28.9551 234.188 29.0176C233.884 29.084 233.514 29.1172 233.081 29.1172ZM232.817 23.2754C232.302 23.2754 231.889 23.4434 231.581 23.7793C231.276 24.1152 231.096 24.5801 231.042 25.1738H234.399C234.399 24.5605 234.262 24.0918 233.989 23.7676C233.716 23.4395 233.325 23.2754 232.817 23.2754ZM234.628 21.7285H234.077C233.698 21.4746 233.286 21.1504 232.841 20.7559C232.427 21.1309 232.014 21.4551 231.604 21.7285H231.054V21.5938L231.364 21.2422C231.802 20.7617 232.122 20.3711 232.325 20.0703H233.356C233.614 20.4375 234.038 20.9453 234.628 21.5938V21.7285ZM231.522 20.5859H230.966C230.497 20.2188 230.098 19.8164 229.77 19.3789V19.2559H230.778C230.981 19.6777 231.229 20.0781 231.522 20.457V20.5859ZM241.901 29V24.8457C241.901 24.3223 241.782 23.9316 241.543 23.6738C241.305 23.416 240.932 23.2871 240.424 23.2871C239.752 23.2871 239.26 23.4688 238.948 23.832C238.635 24.1953 238.479 24.7949 238.479 25.6309V29H237.506V22.5781H238.297L238.455 23.457H238.502C238.702 23.1406 238.981 22.8965 239.34 22.7246C239.7 22.5488 240.1 22.4609 240.541 22.4609C241.315 22.4609 241.897 22.6484 242.288 23.0234C242.678 23.3945 242.873 23.9902 242.873 24.8105V29H241.901ZM250.201 29L247.763 22.5781H248.806L250.189 26.3867C250.502 27.2773 250.685 27.8555 250.74 28.1211H250.787C250.83 27.9141 250.964 27.4863 251.191 26.8379C251.421 26.1855 251.935 24.7656 252.732 22.5781H253.775L251.337 29H250.201ZM256.12 22.5898V26.7441C256.12 27.2676 256.239 27.6582 256.478 27.916C256.716 28.1738 257.089 28.3027 257.597 28.3027C258.269 28.3027 258.759 28.1191 259.068 27.752C259.38 27.3848 259.536 26.7852 259.536 25.9531V22.5898H260.509V23.2988C260.829 23.2559 261.062 23.1094 261.206 22.8594C261.351 22.6094 261.423 22.1836 261.423 21.582H262.466L262.554 21.7168C262.429 22.4434 262.195 22.9941 261.851 23.3691C261.507 23.7402 261.06 23.9531 260.509 24.0078V29H259.706L259.566 28.1387H259.513C259.31 28.459 259.03 28.7031 258.675 28.8711C258.323 29.0352 257.931 29.1172 257.497 29.1172C256.704 29.1172 256.113 28.9316 255.722 28.5605C255.331 28.1895 255.136 27.5957 255.136 26.7793V22.5898H256.12ZM258.786 21.7168C258.618 21.7168 258.454 21.6816 258.294 21.6113C258.134 21.5371 257.976 21.457 257.82 21.3711C257.667 21.2812 257.519 21.2012 257.374 21.1309C257.234 21.0566 257.097 21.0195 256.964 21.0195C256.769 21.0195 256.62 21.0781 256.519 21.1953C256.421 21.3125 256.345 21.4902 256.29 21.7285H255.716C255.767 21.2559 255.904 20.8867 256.126 20.6211C256.353 20.3516 256.644 20.2168 256.999 20.2168C257.179 20.2168 257.353 20.2539 257.521 20.3281C257.689 20.3984 257.849 20.4785 258.001 20.5684C258.154 20.6543 258.3 20.7344 258.441 20.8086C258.581 20.8789 258.714 20.9141 258.839 20.9141C259.03 20.9141 259.173 20.8574 259.267 20.7441C259.361 20.627 259.437 20.4473 259.495 20.2051H260.075C260.025 20.6777 259.888 21.0488 259.665 21.3184C259.446 21.584 259.154 21.7168 258.786 21.7168ZM267.981 29V24.8457C267.981 24.3223 267.862 23.9316 267.624 23.6738C267.386 23.416 267.013 23.2871 266.505 23.2871C265.833 23.2871 265.341 23.4688 265.028 23.832C264.716 24.1953 264.559 24.7949 264.559 25.6309V29H263.587V22.5781H264.378L264.536 23.457H264.583C264.782 23.1406 265.061 22.8965 265.421 22.7246C265.78 22.5488 266.18 22.4609 266.622 22.4609C267.395 22.4609 267.977 22.6484 268.368 23.0234C268.759 23.3945 268.954 23.9902 268.954 24.8105V29H267.981ZM276.614 22.5781V23.1934L275.424 23.334C275.534 23.4707 275.631 23.6504 275.717 23.873C275.803 24.0918 275.846 24.3398 275.846 24.6172C275.846 25.2461 275.631 25.748 275.202 26.123C274.772 26.498 274.182 26.6855 273.432 26.6855C273.241 26.6855 273.061 26.6699 272.893 26.6387C272.479 26.8574 272.272 27.1328 272.272 27.4648C272.272 27.6406 272.344 27.7715 272.489 27.8574C272.633 27.9395 272.881 27.9805 273.233 27.9805H274.37C275.065 27.9805 275.598 28.127 275.969 28.4199C276.344 28.7129 276.532 29.1387 276.532 29.6973C276.532 30.4082 276.246 30.9492 275.676 31.3203C275.106 31.6953 274.274 31.8828 273.18 31.8828C272.34 31.8828 271.692 31.7266 271.235 31.4141C270.782 31.1016 270.555 30.6602 270.555 30.0898C270.555 29.6992 270.68 29.3613 270.93 29.0762C271.18 28.791 271.532 28.5977 271.985 28.4961C271.821 28.4219 271.682 28.3066 271.569 28.1504C271.459 27.9941 271.405 27.8125 271.405 27.6055C271.405 27.3711 271.467 27.166 271.592 26.9902C271.717 26.8145 271.914 26.6445 272.184 26.4805C271.852 26.3438 271.58 26.1113 271.37 25.7832C271.163 25.4551 271.059 25.0801 271.059 24.6582C271.059 23.9551 271.27 23.4141 271.692 23.0352C272.114 22.6523 272.711 22.4609 273.485 22.4609C273.821 22.4609 274.123 22.5 274.393 22.5781H276.614ZM271.493 30.0781C271.493 30.4258 271.639 30.6895 271.932 30.8691C272.225 31.0488 272.645 31.1387 273.192 31.1387C274.008 31.1387 274.612 31.0156 275.002 30.7695C275.397 30.5273 275.594 30.1973 275.594 29.7793C275.594 29.4316 275.487 29.1895 275.272 29.0527C275.057 28.9199 274.653 28.8535 274.059 28.8535H272.893C272.452 28.8535 272.108 28.959 271.862 29.1699C271.616 29.3809 271.493 29.6836 271.493 30.0781ZM272.02 24.6348C272.02 25.084 272.147 25.4238 272.401 25.6543C272.655 25.8848 273.008 26 273.461 26C274.411 26 274.885 25.5391 274.885 24.6172C274.885 23.6523 274.405 23.1699 273.444 23.1699C272.987 23.1699 272.635 23.293 272.389 23.5391C272.143 23.7852 272.02 24.1504 272.02 24.6348ZM290.035 29V24.8223C290.035 24.3105 289.925 23.9277 289.707 23.6738C289.488 23.416 289.148 23.2871 288.687 23.2871C288.082 23.2871 287.634 23.4609 287.345 23.8086C287.056 24.1562 286.912 24.6914 286.912 25.4141V29H285.939V24.8223C285.939 24.3105 285.83 23.9277 285.611 23.6738C285.392 23.416 285.05 23.2871 284.586 23.2871C283.976 23.2871 283.529 23.4707 283.244 23.8379C282.962 24.2012 282.822 24.7988 282.822 25.6309V29H281.849V22.5781H282.64L282.798 23.457H282.845C283.029 23.1445 283.287 22.9004 283.619 22.7246C283.955 22.5488 284.33 22.4609 284.744 22.4609C285.748 22.4609 286.404 22.8242 286.712 23.5508H286.759C286.951 23.2148 287.228 22.9492 287.591 22.7539C287.955 22.5586 288.369 22.4609 288.834 22.4609C289.56 22.4609 290.103 22.6484 290.462 23.0234C290.826 23.3945 291.007 23.9902 291.007 24.8105V29H290.035ZM297.366 29L297.173 28.0859H297.126C296.806 28.4883 296.486 28.7617 296.165 28.9062C295.849 29.0469 295.452 29.1172 294.976 29.1172C294.339 29.1172 293.839 28.9531 293.476 28.625C293.116 28.2969 292.937 27.8301 292.937 27.2246C292.937 25.9277 293.974 25.248 296.048 25.1855L297.138 25.1504V24.752C297.138 24.248 297.029 23.877 296.81 23.6387C296.595 23.3965 296.249 23.2754 295.773 23.2754C295.237 23.2754 294.632 23.4395 293.956 23.7676L293.657 23.0234C293.974 22.8516 294.32 22.7168 294.695 22.6191C295.073 22.5215 295.452 22.4727 295.831 22.4727C296.597 22.4727 297.163 22.6426 297.53 22.9824C297.902 23.3223 298.087 23.8672 298.087 24.6172V29H297.366ZM295.169 28.3145C295.775 28.3145 296.249 28.1484 296.593 27.8164C296.941 27.4844 297.114 27.0195 297.114 26.4219V25.8418L296.142 25.8828C295.368 25.9102 294.81 26.0312 294.466 26.2461C294.126 26.457 293.956 26.7871 293.956 27.2363C293.956 27.5879 294.062 27.8555 294.273 28.0391C294.487 28.2227 294.786 28.3145 295.169 28.3145ZM296.323 21.7285H295.679C295.425 21.5254 295.124 21.2363 294.777 20.8613C294.429 20.4863 294.177 20.1758 294.021 19.9297V19.8066H295.21C295.335 20.0762 295.509 20.3887 295.732 20.7441C295.954 21.0957 296.152 21.375 296.323 21.582V21.7285ZM308.409 29V24.8457C308.409 24.3223 308.289 23.9316 308.051 23.6738C307.813 23.416 307.44 23.2871 306.932 23.2871C306.26 23.2871 305.768 23.4688 305.455 23.832C305.143 24.1953 304.987 24.7949 304.987 25.6309V29H304.014V22.5781H304.805L304.963 23.457H305.01C305.209 23.1406 305.489 22.8965 305.848 22.7246C306.207 22.5488 306.608 22.4609 307.049 22.4609C307.823 22.4609 308.405 22.6484 308.795 23.0234C309.186 23.3945 309.381 23.9902 309.381 24.8105V29H308.409ZM317.041 22.5781V23.1934L315.852 23.334C315.961 23.4707 316.059 23.6504 316.145 23.873C316.23 24.0918 316.273 24.3398 316.273 24.6172C316.273 25.2461 316.059 25.748 315.629 26.123C315.199 26.498 314.609 26.6855 313.859 26.6855C313.668 26.6855 313.488 26.6699 313.32 26.6387C312.906 26.8574 312.699 27.1328 312.699 27.4648C312.699 27.6406 312.771 27.7715 312.916 27.8574C313.061 27.9395 313.309 27.9805 313.66 27.9805H314.797C315.492 27.9805 316.025 28.127 316.396 28.4199C316.771 28.7129 316.959 29.1387 316.959 29.6973C316.959 30.4082 316.674 30.9492 316.104 31.3203C315.533 31.6953 314.701 31.8828 313.607 31.8828C312.768 31.8828 312.119 31.7266 311.662 31.4141C311.209 31.1016 310.982 30.6602 310.982 30.0898C310.982 29.6992 311.107 29.3613 311.357 29.0762C311.607 28.791 311.959 28.5977 312.412 28.4961C312.248 28.4219 312.109 28.3066 311.996 28.1504C311.887 27.9941 311.832 27.8125 311.832 27.6055C311.832 27.3711 311.895 27.166 312.02 26.9902C312.145 26.8145 312.342 26.6445 312.611 26.4805C312.279 26.3438 312.008 26.1113 311.797 25.7832C311.59 25.4551 311.486 25.0801 311.486 24.6582C311.486 23.9551 311.697 23.4141 312.119 23.0352C312.541 22.6523 313.139 22.4609 313.912 22.4609C314.248 22.4609 314.551 22.5 314.82 22.5781H317.041ZM311.92 30.0781C311.92 30.4258 312.066 30.6895 312.359 30.8691C312.652 31.0488 313.072 31.1387 313.619 31.1387C314.436 31.1387 315.039 31.0156 315.43 30.7695C315.824 30.5273 316.021 30.1973 316.021 29.7793C316.021 29.4316 315.914 29.1895 315.699 29.0527C315.484 28.9199 315.08 28.8535 314.486 28.8535H313.32C312.879 28.8535 312.535 28.959 312.289 29.1699C312.043 29.3809 311.92 29.6836 311.92 30.0781ZM312.447 24.6348C312.447 25.084 312.574 25.4238 312.828 25.6543C313.082 25.8848 313.436 26 313.889 26C314.838 26 315.312 25.5391 315.312 24.6172C315.312 23.6523 314.832 23.1699 313.871 23.1699C313.414 23.1699 313.062 23.293 312.816 23.5391C312.57 23.7852 312.447 24.1504 312.447 24.6348ZM319.673 22.5898V26.7441C319.673 27.2676 319.793 27.6582 320.031 27.916C320.269 28.1738 320.642 28.3027 321.15 28.3027C321.822 28.3027 322.312 28.1191 322.621 27.752C322.933 27.3848 323.089 26.7852 323.089 25.9531V22.5898H324.062V23.2988C324.382 23.2559 324.615 23.1094 324.759 22.8594C324.904 22.6094 324.976 22.1836 324.976 21.582H326.019L326.107 21.7168C325.982 22.4434 325.748 22.9941 325.404 23.3691C325.06 23.7402 324.613 23.9531 324.062 24.0078V29H323.259L323.119 28.1387H323.066C322.863 28.459 322.584 28.7031 322.228 28.8711C321.877 29.0352 321.484 29.1172 321.05 29.1172C320.257 29.1172 319.666 28.9316 319.275 28.5605C318.884 28.1895 318.689 27.5957 318.689 26.7793V22.5898H319.673ZM332.683 25.7832C332.683 26.8301 332.419 27.6484 331.892 28.2383C331.364 28.8242 330.636 29.1172 329.706 29.1172C329.132 29.1172 328.622 28.9824 328.177 28.7129C327.732 28.4434 327.388 28.0566 327.146 27.5527C326.904 27.0488 326.782 26.459 326.782 25.7832C326.782 24.7363 327.044 23.9219 327.568 23.3398C328.091 22.7539 328.818 22.4609 329.747 22.4609C330.595 22.4609 331.286 22.7363 331.821 23.2871C332.021 23.2285 332.177 23.1367 332.29 23.0117C332.404 22.8828 332.486 22.7227 332.536 22.5312C332.587 22.3359 332.612 22.0234 332.612 21.5938H333.667L333.755 21.7285C333.634 22.3379 333.454 22.8145 333.216 23.1582C332.982 23.498 332.665 23.7422 332.267 23.8906C332.544 24.4297 332.683 25.0605 332.683 25.7832ZM327.79 25.7832C327.79 26.6074 327.945 27.2344 328.253 27.6641C328.562 28.0898 329.054 28.3027 329.73 28.3027C330.413 28.3027 330.907 28.0898 331.212 27.6641C331.521 27.2344 331.675 26.6074 331.675 25.7832C331.675 24.9629 331.519 24.3418 331.206 23.9199C330.898 23.498 330.402 23.2871 329.718 23.2871C329.042 23.2871 328.552 23.498 328.247 23.9199C327.943 24.3418 327.79 24.9629 327.79 25.7832ZM330.456 21.7285H329.812C329.558 21.5254 329.257 21.2363 328.909 20.8613C328.562 20.4863 328.31 20.1758 328.154 19.9297V19.8066H329.343C329.468 20.0762 329.642 20.3887 329.864 20.7441C330.087 21.0957 330.284 21.375 330.456 21.582V21.7285ZM335.825 29H334.852V22.5781H335.825V29ZM334.77 20.8379C334.77 20.6152 334.825 20.4531 334.934 20.3516C335.044 20.2461 335.18 20.1934 335.345 20.1934C335.501 20.1934 335.636 20.2461 335.749 20.3516C335.862 20.457 335.919 20.6191 335.919 20.8379C335.919 21.0566 335.862 21.2207 335.749 21.3301C335.636 21.4355 335.501 21.4883 335.345 21.4883C335.18 21.4883 335.044 21.4355 334.934 21.3301C334.825 21.2207 334.77 21.0566 334.77 20.8379ZM1.99219 41.7129C2.16016 41.4746 2.41602 41.1621 2.75977 40.7754L4.83398 38.5781H5.98828L3.38672 41.3145L6.16992 45H4.99219L2.72461 41.9648L1.99219 42.5977V45H1.03125V35.8828H1.99219V40.7168C1.99219 40.9316 1.97656 41.2637 1.94531 41.7129H1.99219ZM12.1305 45V40.8457C12.1305 40.3223 12.0113 39.9316 11.773 39.6738C11.5348 39.416 11.1617 39.2871 10.6539 39.2871C9.97813 39.2871 9.48398 39.4707 9.17148 39.8379C8.86289 40.2051 8.70859 40.8066 8.70859 41.6426V45H7.73594V35.8828H8.70859V38.6426C8.70859 38.9746 8.69297 39.25 8.66172 39.4688H8.72031C8.91172 39.1602 9.1832 38.918 9.53477 38.7422C9.89023 38.5625 10.2945 38.4727 10.7477 38.4727C11.5328 38.4727 12.1207 38.6602 12.5113 39.0352C12.9059 39.4062 13.1031 39.998 13.1031 40.8105V45H12.1305ZM19.4563 45L19.2629 44.0859H19.216C18.8957 44.4883 18.5754 44.7617 18.2551 44.9062C17.9387 45.0469 17.5422 45.1172 17.0656 45.1172C16.4289 45.1172 15.9289 44.9531 15.5656 44.625C15.2063 44.2969 15.0266 43.8301 15.0266 43.2246C15.0266 41.9277 16.0637 41.248 18.1379 41.1855L19.2277 41.1504V40.752C19.2277 40.248 19.1184 39.877 18.8996 39.6387C18.6848 39.3965 18.3391 39.2754 17.8625 39.2754C17.3273 39.2754 16.7219 39.4395 16.0461 39.7676L15.7473 39.0234C16.0637 38.8516 16.4094 38.7168 16.7844 38.6191C17.1633 38.5215 17.5422 38.4727 17.9211 38.4727C18.6867 38.4727 19.2531 38.6426 19.6203 38.9824C19.9914 39.3223 20.177 39.8672 20.177 40.6172V45H19.4563ZM17.259 44.3145C17.8645 44.3145 18.3391 44.1484 18.6828 43.8164C19.0305 43.4844 19.2043 43.0195 19.2043 42.4219V41.8418L18.2316 41.8828C17.4582 41.9102 16.8996 42.0312 16.5559 42.2461C16.216 42.457 16.0461 42.7871 16.0461 43.2363C16.0461 43.5879 16.1516 43.8555 16.3625 44.0391C16.5773 44.2227 16.8762 44.3145 17.259 44.3145ZM17.0305 37.582C17.218 37.3398 17.4191 37.0469 17.634 36.7031C17.8527 36.3594 18.0246 36.0605 18.1496 35.8066H19.3332V35.9297C19.1613 36.1836 18.9055 36.4961 18.5656 36.8672C18.2258 37.2383 17.9309 37.5254 17.6809 37.7285H17.0305V37.582ZM25.1531 45.1172C24.2234 45.1172 23.5027 44.832 22.991 44.2617C22.4832 43.6875 22.2293 42.877 22.2293 41.8301C22.2293 40.7559 22.4871 39.9258 23.0027 39.3398C23.5223 38.7539 24.2605 38.4609 25.2176 38.4609C25.5262 38.4609 25.8348 38.4941 26.1434 38.5605C26.452 38.627 26.6941 38.7051 26.8699 38.7949L26.5711 39.6211C26.3563 39.5352 26.1219 39.4648 25.868 39.4102C25.6141 39.3516 25.3895 39.3223 25.1941 39.3223C23.8895 39.3223 23.2371 40.1543 23.2371 41.8184C23.2371 42.6074 23.3953 43.2129 23.7117 43.6348C24.032 44.0566 24.5047 44.2676 25.1297 44.2676C25.6648 44.2676 26.2137 44.1523 26.7762 43.9219V44.7832C26.3465 45.0059 25.8055 45.1172 25.1531 45.1172ZM33.1836 41.7129C33.3516 41.4746 33.6074 41.1621 33.9512 40.7754L36.0254 38.5781H37.1797L34.5781 41.3145L37.3613 45H36.1836L33.916 41.9648L33.1836 42.5977V45H32.2227V35.8828H33.1836V40.7168C33.1836 40.9316 33.168 41.2637 33.1367 41.7129H33.1836ZM43.3219 45V40.8457C43.3219 40.3223 43.2027 39.9316 42.9645 39.6738C42.7262 39.416 42.3531 39.2871 41.8453 39.2871C41.1695 39.2871 40.6754 39.4707 40.3629 39.8379C40.0543 40.2051 39.9 40.8066 39.9 41.6426V45H38.9273V35.8828H39.9V38.6426C39.9 38.9746 39.8844 39.25 39.8531 39.4688H39.9117C40.1031 39.1602 40.3746 38.918 40.7262 38.7422C41.0816 38.5625 41.4859 38.4727 41.9391 38.4727C42.7242 38.4727 43.3121 38.6602 43.7027 39.0352C44.0973 39.4062 44.2945 39.998 44.2945 40.8105V45H43.3219ZM52.2414 41.7832C52.2414 42.8301 51.9777 43.6484 51.4504 44.2383C50.923 44.8242 50.1945 45.1172 49.2648 45.1172C48.6906 45.1172 48.1809 44.9824 47.7355 44.7129C47.2902 44.4434 46.9465 44.0566 46.7043 43.5527C46.4621 43.0488 46.341 42.459 46.341 41.7832C46.341 40.7363 46.6027 39.9219 47.1262 39.3398C47.6496 38.7539 48.3762 38.4609 49.3059 38.4609C50.2043 38.4609 50.9172 38.7598 51.4445 39.3574C51.9758 39.9551 52.2414 40.7637 52.2414 41.7832ZM47.3488 41.7832C47.3488 42.6035 47.5129 43.2285 47.841 43.6582C48.1691 44.0879 48.6516 44.3027 49.2883 44.3027C49.925 44.3027 50.4074 44.0898 50.7355 43.6641C51.0676 43.2344 51.2336 42.6074 51.2336 41.7832C51.2336 40.9668 51.0676 40.3477 50.7355 39.9258C50.4074 39.5 49.9211 39.2871 49.2766 39.2871C48.6398 39.2871 48.1594 39.4961 47.8352 39.9141C47.5109 40.332 47.3488 40.9551 47.3488 41.7832ZM48.4738 37.582C48.6613 37.3398 48.8625 37.0469 49.0773 36.7031C49.2961 36.3594 49.468 36.0605 49.593 35.8066H50.7766V35.9297C50.6047 36.1836 50.3488 36.4961 50.009 36.8672C49.6691 37.2383 49.3742 37.5254 49.1242 37.7285H48.4738V37.582ZM60.4359 45.1172C59.5062 45.1172 58.7855 44.832 58.2738 44.2617C57.766 43.6875 57.5121 42.877 57.5121 41.8301C57.5121 40.7559 57.7699 39.9258 58.2855 39.3398C58.8051 38.7539 59.5434 38.4609 60.5004 38.4609C60.809 38.4609 61.1176 38.4941 61.4262 38.5605C61.7348 38.627 61.977 38.7051 62.1527 38.7949L61.8539 39.6211C61.6391 39.5352 61.4047 39.4648 61.1508 39.4102C60.8969 39.3516 60.6723 39.3223 60.477 39.3223C59.1723 39.3223 58.5199 40.1543 58.5199 41.8184C58.5199 42.6074 58.6781 43.2129 58.9945 43.6348C59.3148 44.0566 59.7875 44.2676 60.4125 44.2676C60.9477 44.2676 61.4965 44.1523 62.059 43.9219V44.7832C61.6293 45.0059 61.0883 45.1172 60.4359 45.1172ZM69.5312 41.7832C69.5312 42.8301 69.2676 43.6484 68.7402 44.2383C68.2129 44.8242 67.4844 45.1172 66.5547 45.1172C65.9805 45.1172 65.4707 44.9824 65.0254 44.7129C64.5801 44.4434 64.2363 44.0566 63.9941 43.5527C63.752 43.0488 63.6309 42.459 63.6309 41.7832C63.6309 40.7363 63.8926 39.9219 64.416 39.3398C64.9395 38.7539 65.666 38.4609 66.5957 38.4609C67.4941 38.4609 68.207 38.7598 68.7344 39.3574C69.2656 39.9551 69.5312 40.7637 69.5312 41.7832ZM64.6387 41.7832C64.6387 42.6035 64.8027 43.2285 65.1309 43.6582C65.459 44.0879 65.9414 44.3027 66.5781 44.3027C67.2148 44.3027 67.6973 44.0898 68.0254 43.6641C68.3574 43.2344 68.5234 42.6074 68.5234 41.7832C68.5234 40.9668 68.3574 40.3477 68.0254 39.9258C67.6973 39.5 67.2109 39.2871 66.5664 39.2871C65.9297 39.2871 65.4492 39.4961 65.125 39.9141C64.8008 40.332 64.6387 40.9551 64.6387 41.7832ZM65.7637 37.582C65.9512 37.3398 66.1523 37.0469 66.3672 36.7031C66.5859 36.3594 66.7578 36.0605 66.8828 35.8066H68.0664V35.9297C67.8945 36.1836 67.6387 36.4961 67.2988 36.8672C66.959 37.2383 66.6641 37.5254 66.4141 37.7285H65.7637V37.582ZM77.2336 44.3145C77.4055 44.3145 77.5715 44.3027 77.7316 44.2793C77.8918 44.252 78.0188 44.2246 78.1125 44.1973V44.9414C78.007 44.9922 77.8508 45.0332 77.6438 45.0645C77.4406 45.0996 77.257 45.1172 77.093 45.1172C75.8508 45.1172 75.2297 44.4629 75.2297 43.1543V39.334H74.3098V38.8652L75.2297 38.4609L75.6398 37.0898H76.2023V38.5781H78.0656V39.334H76.2023V43.1133C76.2023 43.5 76.2941 43.7969 76.4777 44.0039C76.6613 44.2109 76.9133 44.3145 77.2336 44.3145ZM84.1961 45V40.8457C84.1961 40.3223 84.077 39.9316 83.8387 39.6738C83.6004 39.416 83.2273 39.2871 82.7195 39.2871C82.0437 39.2871 81.5496 39.4707 81.2371 39.8379C80.9285 40.2051 80.7742 40.8066 80.7742 41.6426V45H79.8016V35.8828H80.7742V38.6426C80.7742 38.9746 80.7586 39.25 80.7273 39.4688H80.7859C80.9773 39.1602 81.2488 38.918 81.6004 38.7422C81.9559 38.5625 82.3602 38.4727 82.8133 38.4727C83.5984 38.4727 84.1863 38.6602 84.577 39.0352C84.9715 39.4062 85.1687 39.998 85.1687 40.8105V45H84.1961ZM90.2855 45.1172C89.3363 45.1172 88.5863 44.8281 88.0355 44.25C87.4887 43.6719 87.2152 42.8691 87.2152 41.8418C87.2152 40.8066 87.4691 39.9844 87.977 39.375C88.4887 38.7656 89.1742 38.4609 90.0336 38.4609C90.8383 38.4609 91.475 38.7266 91.9437 39.2578C92.4125 39.7852 92.6469 40.4824 92.6469 41.3496V41.9648H88.223C88.2426 42.7188 88.432 43.291 88.7914 43.6816C89.1547 44.0723 89.6645 44.2676 90.3207 44.2676C91.0121 44.2676 91.6957 44.123 92.3715 43.834V44.7012C92.0277 44.8496 91.7016 44.9551 91.393 45.0176C91.0883 45.084 90.7191 45.1172 90.2855 45.1172ZM90.0219 39.2754C89.5062 39.2754 89.0941 39.4434 88.7855 39.7793C88.4809 40.1152 88.3012 40.5801 88.2465 41.1738H91.6039C91.6039 40.5605 91.4672 40.0918 91.1937 39.7676C90.9203 39.4395 90.5297 39.2754 90.0219 39.2754ZM91.727 37.7285H91.1762C90.7387 37.4355 90.3266 37.1113 89.9398 36.7559C89.4945 37.1504 89.0824 37.4746 88.7035 37.7285H88.1527V37.582L88.4633 37.2305C88.9008 36.75 89.2211 36.3594 89.4242 36.0586H90.4555C90.7133 36.4258 91.1371 36.9336 91.727 37.582V37.7285ZM92.7113 35.3613C92.7113 35.7637 92.4633 36.0215 91.9672 36.1348L91.932 36.6094H91.4633L91.4047 35.8418C91.6273 35.8066 91.7992 35.7578 91.9203 35.6953C92.0453 35.6328 92.1078 35.5273 92.1078 35.3789C92.1078 35.2344 92.0512 35.1387 91.9379 35.0918C91.8285 35.041 91.6898 35.0156 91.5219 35.0156C91.3422 35.0156 91.2016 35.0273 91.1 35.0508V34.582C91.1977 34.5586 91.3539 34.5469 91.5687 34.5469C92.3305 34.5469 92.7113 34.8184 92.7113 35.3613ZM102.623 45V40.8457C102.623 40.3223 102.504 39.9316 102.265 39.6738C102.027 39.416 101.654 39.2871 101.146 39.2871C100.47 39.2871 99.9762 39.4707 99.6637 39.8379C99.3551 40.2051 99.2008 40.8066 99.2008 41.6426V45H98.2281V35.8828H99.2008V38.6426C99.2008 38.9746 99.1852 39.25 99.1539 39.4688H99.2125C99.4039 39.1602 99.6754 38.918 100.027 38.7422C100.382 38.5625 100.787 38.4727 101.24 38.4727C102.025 38.4727 102.613 38.6602 103.004 39.0352C103.398 39.4062 103.595 39.998 103.595 40.8105V45H102.623ZM111.542 41.7832C111.542 42.8301 111.279 43.6484 110.751 44.2383C110.224 44.8242 109.495 45.1172 108.566 45.1172C107.991 45.1172 107.482 44.9824 107.036 44.7129C106.591 44.4434 106.247 44.0566 106.005 43.5527C105.763 43.0488 105.642 42.459 105.642 41.7832C105.642 40.7363 105.904 39.9219 106.427 39.3398C106.95 38.7539 107.677 38.4609 108.607 38.4609C109.505 38.4609 110.218 38.7598 110.745 39.3574C111.277 39.9551 111.542 40.7637 111.542 41.7832ZM106.65 41.7832C106.65 42.6035 106.814 43.2285 107.142 43.6582C107.47 44.0879 107.952 44.3027 108.589 44.3027C109.226 44.3027 109.708 44.0898 110.036 43.6641C110.368 43.2344 110.534 42.6074 110.534 41.7832C110.534 40.9668 110.368 40.3477 110.036 39.9258C109.708 39.5 109.222 39.2871 108.577 39.2871C107.941 39.2871 107.46 39.4961 107.136 39.9141C106.812 40.332 106.65 40.9551 106.65 41.7832ZM107.991 46.418C107.991 46.1953 108.048 46.0312 108.161 45.9258C108.279 45.8203 108.419 45.7676 108.583 45.7676C108.739 45.7676 108.874 45.8203 108.988 45.9258C109.101 46.0312 109.157 46.1953 109.157 46.418C109.157 46.6328 109.101 46.793 108.988 46.8984C108.874 47.0078 108.739 47.0625 108.583 47.0625C108.419 47.0625 108.279 47.0078 108.161 46.8984C108.048 46.793 107.991 46.6328 107.991 46.418ZM116.22 45.1172C115.29 45.1172 114.569 44.832 114.057 44.2617C113.55 43.6875 113.296 42.877 113.296 41.8301C113.296 40.7559 113.554 39.9258 114.069 39.3398C114.589 38.7539 115.327 38.4609 116.284 38.4609C116.593 38.4609 116.901 38.4941 117.21 38.5605C117.518 38.627 117.761 38.7051 117.936 38.7949L117.637 39.6211C117.423 39.5352 117.188 39.4648 116.934 39.4102C116.68 39.3516 116.456 39.3223 116.261 39.3223C114.956 39.3223 114.304 40.1543 114.304 41.8184C114.304 42.6074 114.462 43.2129 114.778 43.6348C115.098 44.0566 115.571 44.2676 116.196 44.2676C116.731 44.2676 117.28 44.1523 117.843 43.9219V44.7832C117.413 45.0059 116.872 45.1172 116.22 45.1172ZM125.363 44.3145C125.535 44.3145 125.701 44.3027 125.861 44.2793C126.021 44.252 126.148 44.2246 126.242 44.1973V44.9414C126.137 44.9922 125.98 45.0332 125.773 45.0645C125.57 45.0996 125.387 45.1172 125.223 45.1172C123.98 45.1172 123.359 44.4629 123.359 43.1543V39.334H122.439V38.8652L123.359 38.4609L123.77 37.0898H124.332V38.5781H126.195V39.334H124.332V43.1133C124.332 43.5 124.424 43.7969 124.607 44.0039C124.791 44.2109 125.043 44.3145 125.363 44.3145ZM132.326 45V40.8457C132.326 40.3223 132.207 39.9316 131.968 39.6738C131.73 39.416 131.357 39.2871 130.849 39.2871C130.173 39.2871 129.679 39.4707 129.367 39.8379C129.058 40.2051 128.904 40.8066 128.904 41.6426V45H127.931V35.8828H128.904V38.6426C128.904 38.9746 128.888 39.25 128.857 39.4688H128.916C129.107 39.1602 129.379 38.918 129.73 38.7422C130.086 38.5625 130.49 38.4727 130.943 38.4727C131.728 38.4727 132.316 38.6602 132.707 39.0352C133.101 39.4062 133.298 39.998 133.298 40.8105V45H132.326ZM138.415 45.1172C137.466 45.1172 136.716 44.8281 136.165 44.25C135.618 43.6719 135.345 42.8691 135.345 41.8418C135.345 40.8066 135.599 39.9844 136.107 39.375C136.618 38.7656 137.304 38.4609 138.163 38.4609C138.968 38.4609 139.605 38.7266 140.073 39.2578C140.542 39.7852 140.777 40.4824 140.777 41.3496V41.9648H136.353C136.372 42.7188 136.562 43.291 136.921 43.6816C137.284 44.0723 137.794 44.2676 138.45 44.2676C139.142 44.2676 139.825 44.123 140.501 43.834V44.7012C140.157 44.8496 139.831 44.9551 139.523 45.0176C139.218 45.084 138.849 45.1172 138.415 45.1172ZM138.152 39.2754C137.636 39.2754 137.224 39.4434 136.915 39.7793C136.611 40.1152 136.431 40.5801 136.376 41.1738H139.734C139.734 40.5605 139.597 40.0918 139.323 39.7676C139.05 39.4395 138.659 39.2754 138.152 39.2754ZM148.384 41.7832C148.384 42.8301 148.12 43.6484 147.593 44.2383C147.065 44.8242 146.337 45.1172 145.407 45.1172C144.833 45.1172 144.323 44.9824 143.878 44.7129C143.432 44.4434 143.089 44.0566 142.846 43.5527C142.604 43.0488 142.483 42.459 142.483 41.7832C142.483 40.7363 142.745 39.9219 143.268 39.3398C143.792 38.7539 144.518 38.4609 145.448 38.4609C146.346 38.4609 147.059 38.7598 147.587 39.3574C148.118 39.9551 148.384 40.7637 148.384 41.7832ZM143.491 41.7832C143.491 42.6035 143.655 43.2285 143.983 43.6582C144.311 44.0879 144.794 44.3027 145.43 44.3027C146.067 44.3027 146.55 44.0898 146.878 43.6641C147.21 43.2344 147.376 42.6074 147.376 41.7832C147.376 40.9668 147.21 40.3477 146.878 39.9258C146.55 39.5 146.063 39.2871 145.419 39.2871C144.782 39.2871 144.302 39.4961 143.977 39.9141C143.653 40.332 143.491 40.9551 143.491 41.7832Z" fill="#82869E"/>
</svg>
