<svg width="18" height="18" viewBox="0 0 18 18" fill="none" xmlns="http://www.w3.org/2000/svg">
<path d="M8 12.25L11.8917 9.33334C12.1167 9.16667 12.1167 8.83334 11.8917 8.66667L8 5.75001C7.725 5.54167 7.33333 5.74167 7.33333 6.08334V11.9167C7.33333 12.2583 7.725 12.4583 8 12.25ZM9 0.666672C4.4 0.666672 0.666667 4.40001 0.666667 9.00001C0.666667 13.6 4.4 17.3333 9 17.3333C13.6 17.3333 17.3333 13.6 17.3333 9.00001C17.3333 4.40001 13.6 0.666672 9 0.666672ZM9 15.6667C5.325 15.6667 2.33333 12.675 2.33333 9.00001C2.33333 5.32501 5.325 2.33334 9 2.33334C12.675 2.33334 15.6667 5.32501 15.6667 9.00001C15.6667 12.675 12.675 15.6667 9 15.6667Z" fill="#2655A6"/>
</svg>
