<svg width="375" height="129" viewBox="0 0 375 129" fill="none" xmlns="http://www.w3.org/2000/svg">
<rect width="375" height="128" fill="url(#paint0_linear_644_3701)"/>
<g clip-path="url(#clip0_644_3701)">
<path d="M185.68 116.742C185.68 116.742 188.4 109.886 194.811 108.951C201.222 108.016 204.738 118.437 211.46 110.529C218.182 102.62 212.898 92.9971 224.438 91.166C235.978 89.335 242.525 101.977 253.734 91.166C264.944 80.355 263.934 84.1145 274.657 85.3223C291.734 87.2702 295.367 76.7708 304.984 64.1092C314.6 51.4477 334.28 52.4216 350.249 59.7069C366.219 66.9921 375.019 45 375.019 45V152H165.981L185.68 116.742Z" fill="url(#paint1_linear_644_3701)"/>
<g clip-path="url(#clip1_644_3701)">
<path d="M219.656 89.0565L219.098 97.5508L224.702 101.067L226.209 92.94L219.656 89.0565Z" fill="url(#paint2_linear_644_3701)"/>
<path d="M219.766 89C219.766 89 231.631 124.872 250.391 129" stroke="#347693" stroke-width="0.5" stroke-miterlimit="10"/>
<path d="M219.091 97.5507L226.209 92.94" stroke="#347693" stroke-width="0.5" stroke-miterlimit="10"/>
<path d="M246.812 101.618L246.414 107.605L250.371 110.084L251.432 104.357L246.812 101.618Z" fill="#D9392E"/>
<path d="M246.812 101.618C246.812 101.618 255.012 126.098 267.979 128.915" stroke="#347693" stroke-width="0.25" stroke-miterlimit="10"/>
<path d="M246.414 107.605L251.432 104.357" stroke="#347693" stroke-width="0.25" stroke-miterlimit="10"/>
</g>
</g>
<path d="M25.6426 18.1504C26.9668 18.1504 28.1123 18.3906 29.0791 18.8711C30.0518 19.3457 30.8018 20.0518 31.3291 20.9893C31.8564 21.9209 32.1201 23.0752 32.1201 24.4521C32.1201 25.8994 31.8506 27.1094 31.3115 28.082C30.7725 29.0488 29.9902 29.7783 28.9648 30.2705C27.9395 30.7568 26.7002 31 25.2471 31H21.749V25.5244H20.4658V23.7578H21.749V18.1504H25.6426ZM25.5898 19.8994H23.8496V23.7578H26.5303V25.5244H23.8496V29.2334H25.2822C26.8291 29.2334 27.9893 28.8379 28.7627 28.0469C29.5361 27.2559 29.9229 26.0781 29.9229 24.5137C29.9229 23.459 29.7529 22.5918 29.4131 21.9121C29.0791 21.2324 28.5898 20.7285 27.9453 20.4004C27.3008 20.0664 26.5156 19.8994 25.5898 19.8994ZM46.6869 19.7852L46.81 19.9785C46.7279 20.4355 46.6137 20.8691 46.4672 21.2793C46.3207 21.6836 46.1156 22.0498 45.852 22.3779C45.5883 22.7061 45.2455 22.9814 44.8236 23.2041C44.4076 23.4209 43.8861 23.5703 43.2592 23.6523V31H41.6332L41.352 29.6904H41.2289C41.0238 30.0244 40.7631 30.3027 40.4467 30.5254C40.1361 30.7422 39.7875 30.9033 39.4008 31.0088C39.0199 31.1201 38.6186 31.1758 38.1967 31.1758C37.4584 31.1758 36.8285 31.0527 36.307 30.8066C35.7855 30.5547 35.3871 30.168 35.1117 29.6465C34.8363 29.125 34.6986 28.4512 34.6986 27.625V21.2793H36.7729V27.2383C36.7729 27.9941 36.9252 28.5596 37.2299 28.9346C37.5404 29.3096 38.0209 29.4971 38.6713 29.4971C39.6146 29.4971 40.268 29.207 40.6313 28.627C41.0004 28.0469 41.185 27.209 41.185 26.1133V21.2793H43.2592V22.3252C43.599 22.2432 43.8656 22.0879 44.059 21.8594C44.2523 21.625 44.39 21.332 44.4721 20.9805C44.5541 20.623 44.5951 20.2246 44.5951 19.7852H46.6869ZM38.5131 17.21C38.6713 17.4795 38.8646 17.7783 39.0932 18.1064C39.3217 18.4346 39.559 18.7539 39.8051 19.0645C40.0512 19.375 40.268 19.6416 40.4555 19.8643V20.0928H39.0756C38.8529 19.9287 38.6039 19.7295 38.3285 19.4951C38.0531 19.2549 37.7719 19.0059 37.4848 18.748C37.2035 18.4844 36.9428 18.2354 36.7025 18.001C36.4682 17.7607 36.2807 17.5557 36.14 17.3857V17.21H38.5131ZM52.7635 21.0859C53.8592 21.0859 54.7117 21.3701 55.3211 21.9385C55.9363 22.501 56.2439 23.4062 56.2439 24.6543V31H54.1785V25.041C54.1785 24.2852 54.0232 23.7197 53.7127 23.3447C53.4021 22.9639 52.9217 22.7734 52.2713 22.7734C51.3279 22.7734 50.6717 23.0635 50.3025 23.6436C49.9393 24.2236 49.7576 25.0645 49.7576 26.166V31H47.6922V21.2705H49.3006L49.5906 22.5889H49.7049C49.9158 22.249 50.1766 21.9707 50.4871 21.7539C50.8035 21.5312 51.1551 21.3643 51.5418 21.2529C51.9344 21.1416 52.3416 21.0859 52.7635 21.0859ZM62.0129 35.3242C60.6945 35.3242 59.6838 35.0869 58.9807 34.6123C58.2775 34.1377 57.926 33.4727 57.926 32.6172C57.926 32.0195 58.1135 31.5127 58.4885 31.0967C58.8635 30.6865 59.3996 30.4023 60.0969 30.2441C59.8332 30.127 59.6047 29.9453 59.4113 29.6992C59.2238 29.4473 59.1301 29.1689 59.1301 28.8643C59.1301 28.501 59.2326 28.1904 59.4377 27.9326C59.6428 27.6748 59.9504 27.4258 60.3605 27.1855C59.8508 26.9688 59.4406 26.6172 59.1301 26.1309C58.8254 25.6387 58.673 25.0615 58.673 24.3994C58.673 23.6963 58.8225 23.0986 59.1213 22.6064C59.4201 22.1084 59.8566 21.7305 60.4309 21.4727C61.0051 21.209 61.6994 21.0771 62.5139 21.0771C62.6896 21.0771 62.8801 21.0889 63.0852 21.1123C63.2961 21.1299 63.4895 21.1533 63.6652 21.1826C63.8469 21.2061 63.9846 21.2324 64.0783 21.2617H67.4445V22.4131L65.7922 22.7207C65.9504 22.9434 66.0764 23.1982 66.1701 23.4854C66.2639 23.7666 66.3107 24.0742 66.3107 24.4082C66.3107 25.416 65.9621 26.21 65.2648 26.79C64.5734 27.3643 63.6184 27.6514 62.3996 27.6514C62.1066 27.6396 61.8225 27.6162 61.5471 27.5811C61.3361 27.71 61.175 27.8535 61.0637 28.0117C60.9523 28.1641 60.8967 28.3369 60.8967 28.5303C60.8967 28.6885 60.9523 28.8174 61.0637 28.917C61.175 29.0107 61.3391 29.0811 61.5559 29.1279C61.7785 29.1748 62.048 29.1982 62.3645 29.1982H64.0432C65.1096 29.1982 65.924 29.4238 66.4865 29.875C67.049 30.3262 67.3303 30.9883 67.3303 31.8613C67.3303 32.9688 66.8732 33.8213 65.9592 34.4189C65.0451 35.0225 63.7297 35.3242 62.0129 35.3242ZM62.092 33.874C62.8127 33.874 63.4191 33.8037 63.9113 33.6631C64.4035 33.5225 64.7756 33.3203 65.0275 33.0566C65.2795 32.7988 65.4055 32.4912 65.4055 32.1338C65.4055 31.8174 65.3264 31.5742 65.1682 31.4043C65.01 31.2344 64.7727 31.1172 64.4562 31.0527C64.1398 30.9883 63.7473 30.9561 63.2785 30.9561H61.7492C61.3684 30.9561 61.0314 31.0146 60.7385 31.1318C60.4455 31.2549 60.217 31.4307 60.0529 31.6592C59.8947 31.8877 59.8156 32.1631 59.8156 32.4854C59.8156 32.9307 60.0119 33.2734 60.4045 33.5137C60.8029 33.7539 61.3654 33.874 62.092 33.874ZM62.4963 26.2979C63.0998 26.2979 63.548 26.1338 63.841 25.8057C64.134 25.4717 64.2805 25.0029 64.2805 24.3994C64.2805 23.7432 64.1281 23.251 63.8234 22.9229C63.5246 22.5947 63.0793 22.4307 62.4875 22.4307C61.9074 22.4307 61.465 22.5977 61.1604 22.9316C60.8615 23.2656 60.7121 23.7607 60.7121 24.417C60.7121 25.0088 60.8615 25.4717 61.1604 25.8057C61.465 26.1338 61.9104 26.2979 62.4963 26.2979ZM76.1611 17.3242V20.6201C76.1611 21.001 76.1494 21.376 76.126 21.7451C76.1084 22.1084 76.0908 22.3926 76.0732 22.5977H76.1611C76.4248 22.1758 76.791 21.8213 77.2598 21.5342C77.7344 21.2412 78.3408 21.0947 79.0791 21.0947C80.2334 21.0947 81.1621 21.5195 81.8652 22.3691C82.5684 23.2129 82.9199 24.4639 82.9199 26.1221C82.9199 27.2236 82.7588 28.1494 82.4365 28.8994C82.1143 29.6494 81.6602 30.2178 81.0742 30.6045C80.4941 30.9854 79.8115 31.1758 79.0264 31.1758C78.2881 31.1758 77.6904 31.041 77.2334 30.7715C76.7822 30.4961 76.4277 30.1768 76.1699 29.8135H76.0205L75.6426 31H74.0957V17.3242H76.1611ZM78.5342 22.7734C77.9482 22.7734 77.4824 22.8906 77.1367 23.125C76.7969 23.3594 76.5508 23.7109 76.3984 24.1797C76.2461 24.6426 76.167 25.2314 76.1611 25.9463V26.1309C76.1611 27.2148 76.3311 28.0439 76.6709 28.6182C77.0166 29.1924 77.6436 29.4795 78.5518 29.4795C79.2725 29.4795 79.8262 29.1895 80.2129 28.6094C80.5996 28.0234 80.793 27.1855 80.793 26.0957C80.793 24.9941 80.5996 24.165 80.2129 23.6084C79.832 23.0518 79.2725 22.7734 78.5342 22.7734ZM94.0238 26.1133C94.0238 26.9219 93.9184 27.6396 93.7074 28.2666C93.4965 28.8936 93.1889 29.4238 92.7846 29.8574C92.3803 30.2852 91.8939 30.6133 91.3256 30.8418C90.7572 31.0645 90.1156 31.1758 89.4008 31.1758C88.7328 31.1758 88.1205 31.0645 87.5639 30.8418C87.0072 30.6133 86.5238 30.2852 86.1137 29.8574C85.7094 29.4238 85.3959 28.8936 85.1732 28.2666C84.9506 27.6396 84.8393 26.9219 84.8393 26.1133C84.8393 25.041 85.0238 24.1328 85.393 23.3887C85.768 22.6387 86.3012 22.0674 86.9926 21.6748C87.684 21.2822 88.5072 21.0859 89.4623 21.0859C90.3588 21.0859 91.1498 21.2822 91.8354 21.6748C92.5209 22.0674 93.057 22.6387 93.4437 23.3887C93.8305 24.1387 94.0238 25.0469 94.0238 26.1133ZM86.9662 26.1133C86.9662 26.8223 87.0512 27.4287 87.2211 27.9326C87.3969 28.4365 87.6664 28.8232 88.0297 29.0928C88.393 29.3564 88.8617 29.4883 89.4359 29.4883C90.0102 29.4883 90.4789 29.3564 90.8422 29.0928C91.2055 28.8232 91.4721 28.4365 91.642 27.9326C91.8119 27.4287 91.8969 26.8223 91.8969 26.1133C91.8969 25.4043 91.8119 24.8037 91.642 24.3115C91.4721 23.8135 91.2055 23.4355 90.8422 23.1777C90.4789 22.9141 90.0072 22.7822 89.4271 22.7822C88.5717 22.7822 87.9477 23.0693 87.5551 23.6436C87.1625 24.2178 86.9662 25.041 86.9662 26.1133ZM91.5365 17.8779C91.5365 18.3291 91.4076 18.6924 91.1498 18.9678C90.892 19.2373 90.5375 19.4248 90.0863 19.5303L90.0072 20.3301H88.7855L88.6273 18.9238C89.0727 18.8535 89.3979 18.7451 89.6029 18.5986C89.808 18.4521 89.9105 18.2529 89.9105 18.001C89.9105 17.7607 89.8227 17.5908 89.6469 17.4912C89.477 17.3857 89.2543 17.333 88.9789 17.333C88.7797 17.333 88.5893 17.3477 88.4076 17.377C88.2318 17.4004 88.0707 17.4326 87.9242 17.4736V16.2959C88.0707 16.249 88.2553 16.2109 88.4779 16.1816C88.7064 16.1523 88.9496 16.1377 89.2074 16.1377C89.9691 16.1377 90.5463 16.2871 90.9389 16.5859C91.3373 16.8848 91.5365 17.3154 91.5365 17.8779ZM103.347 31H101.273V17.3242H103.347V31ZM115.013 26.1133C115.013 27.1855 114.826 28.0996 114.451 28.8555C114.082 29.6113 113.551 30.1885 112.86 30.5869C112.169 30.9795 111.345 31.1758 110.39 31.1758C109.505 31.1758 108.717 30.9795 108.026 30.5869C107.34 30.1885 106.801 29.6113 106.409 28.8555C106.022 28.0996 105.829 27.1855 105.829 26.1133C105.829 24.5078 106.242 23.2686 107.068 22.3955C107.894 21.5225 109.022 21.0859 110.452 21.0859C111.096 21.0859 111.697 21.1914 112.254 21.4023C112.816 21.6133 113.296 21.918 113.695 22.3164C114.023 22.2109 114.278 22.041 114.46 21.8066C114.647 21.5723 114.776 21.2822 114.846 20.9365C114.922 20.5908 114.961 20.21 114.961 19.7939H117.052L117.184 19.9785C117.079 20.5469 116.926 21.0625 116.727 21.5254C116.528 21.9824 116.25 22.3779 115.892 22.7119C115.535 23.04 115.063 23.2949 114.477 23.4766C114.647 23.8398 114.779 24.2441 114.873 24.6895C114.966 25.1289 115.013 25.6035 115.013 26.1133ZM107.956 26.1133C107.956 26.8457 108.041 27.4639 108.211 27.9678C108.38 28.4717 108.647 28.8525 109.01 29.1104C109.379 29.3623 109.851 29.4883 110.425 29.4883C111.005 29.4883 111.474 29.3594 111.832 29.1016C112.195 28.8438 112.462 28.4658 112.631 27.9678C112.801 27.4639 112.886 26.8457 112.886 26.1133C112.886 25.3867 112.801 24.7773 112.631 24.2852C112.462 23.7871 112.195 23.4121 111.832 23.1602C111.468 22.9082 110.997 22.7822 110.417 22.7822C109.555 22.7822 108.928 23.0635 108.536 23.626C108.149 24.1885 107.956 25.0176 107.956 26.1133ZM106.945 20.084C106.98 19.6738 107.056 19.3164 107.173 19.0117C107.291 18.7012 107.443 18.4434 107.63 18.2383C107.824 18.0273 108.044 17.8691 108.29 17.7637C108.542 17.6582 108.814 17.6055 109.107 17.6055C109.365 17.6055 109.611 17.6553 109.845 17.7549C110.086 17.8545 110.317 17.9717 110.54 18.1064C110.768 18.2354 110.988 18.3496 111.199 18.4492C111.416 18.5488 111.624 18.5986 111.823 18.5986C112.051 18.5986 112.245 18.5166 112.403 18.3525C112.567 18.1885 112.69 17.9336 112.772 17.5879H113.853C113.783 18.3965 113.551 19.0146 113.159 19.4424C112.766 19.8643 112.277 20.0752 111.691 20.0752C111.445 20.0752 111.202 20.0254 110.962 19.9258C110.727 19.8203 110.499 19.7031 110.276 19.5742C110.053 19.4453 109.834 19.3311 109.617 19.2314C109.4 19.1318 109.189 19.082 108.984 19.082C108.75 19.082 108.55 19.1641 108.386 19.3281C108.228 19.4922 108.111 19.7441 108.035 20.084H106.945ZM23.542 41.3242V44.6201C23.542 45.001 23.5303 45.376 23.5068 45.7451C23.4893 46.1084 23.4717 46.3926 23.4541 46.5977H23.542C23.8057 46.1758 24.1719 45.8213 24.6406 45.5342C25.1152 45.2412 25.7217 45.0947 26.46 45.0947C27.6143 45.0947 28.543 45.5195 29.2461 46.3691C29.9492 47.2129 30.3008 48.4639 30.3008 50.1221C30.3008 51.2236 30.1396 52.1494 29.8174 52.8994C29.4951 53.6494 29.041 54.2178 28.4551 54.6045C27.875 54.9854 27.1924 55.1758 26.4072 55.1758C25.6689 55.1758 25.0713 55.041 24.6143 54.7715C24.1631 54.4961 23.8086 54.1768 23.5508 53.8135H23.4014L23.0234 55H21.4766V41.3242H23.542ZM25.915 46.7734C25.3291 46.7734 24.8633 46.8906 24.5176 47.125C24.1777 47.3594 23.9316 47.7109 23.7793 48.1797C23.627 48.6426 23.5479 49.2314 23.542 49.9463V50.1309C23.542 51.2148 23.7119 52.0439 24.0518 52.6182C24.3975 53.1924 25.0244 53.4795 25.9326 53.4795C26.6533 53.4795 27.207 53.1895 27.5938 52.6094C27.9805 52.0234 28.1738 51.1855 28.1738 50.0957C28.1738 48.9941 27.9805 48.165 27.5938 47.6084C27.2129 47.0518 26.6533 46.7734 25.915 46.7734ZM36.6059 45.0859C37.8363 45.0859 38.765 45.3584 39.392 45.9033C40.0248 46.4482 40.3412 47.2979 40.3412 48.4521V55H38.8734L38.4779 53.6201H38.4076C38.1322 53.9717 37.848 54.2617 37.5551 54.4902C37.2621 54.7188 36.9223 54.8887 36.5355 55C36.1547 55.1172 35.6889 55.1758 35.1381 55.1758C34.558 55.1758 34.0395 55.0703 33.5824 54.8594C33.1254 54.6426 32.765 54.3145 32.5014 53.875C32.2377 53.4355 32.1059 52.8789 32.1059 52.2051C32.1059 51.2031 32.4779 50.4502 33.2221 49.9463C33.9721 49.4424 35.1029 49.1641 36.6146 49.1113L38.3021 49.0498V48.54C38.3021 47.8662 38.1439 47.3857 37.8275 47.0986C37.517 46.8115 37.0775 46.668 36.5092 46.668C36.0229 46.668 35.5512 46.7383 35.0941 46.8789C34.6371 47.0195 34.1918 47.1924 33.7582 47.3975L33.0902 45.9385C33.5648 45.6865 34.1039 45.4814 34.7074 45.3232C35.3168 45.165 35.9496 45.0859 36.6059 45.0859ZM38.2934 50.3506L37.0365 50.3945C36.0053 50.4297 35.2816 50.6055 34.8656 50.9219C34.4496 51.2383 34.2416 51.6719 34.2416 52.2227C34.2416 52.7031 34.3852 53.0547 34.6723 53.2773C34.9594 53.4941 35.3373 53.6025 35.8061 53.6025C36.5209 53.6025 37.1127 53.4004 37.5814 52.9961C38.0561 52.5859 38.2934 51.9854 38.2934 51.1943V50.3506ZM36.017 41.21C36.1752 41.4795 36.3686 41.7783 36.5971 42.1064C36.8256 42.4346 37.0629 42.7539 37.309 43.0645C37.5551 43.375 37.7719 43.6416 37.9594 43.8643V44.0928H36.5795C36.3568 43.9287 36.1078 43.7295 35.8324 43.4951C35.557 43.2549 35.2758 43.0059 34.9887 42.748C34.7074 42.4844 34.4467 42.2354 34.2064 42.001C33.9721 41.7607 33.7846 41.5557 33.6439 41.3857V41.21H36.017ZM45.3982 45.2705V55H43.3328V45.2705H45.3982ZM44.3787 41.5439C44.6951 41.5439 44.9676 41.6289 45.1961 41.7988C45.4305 41.9688 45.5477 42.2617 45.5477 42.6777C45.5477 43.0879 45.4305 43.3809 45.1961 43.5566C44.9676 43.7266 44.6951 43.8115 44.3787 43.8115C44.0506 43.8115 43.7723 43.7266 43.5438 43.5566C43.3211 43.3809 43.2098 43.0879 43.2098 42.6777C43.2098 42.2617 43.3211 41.9688 43.5438 41.7988C43.7723 41.6289 44.0506 41.5439 44.3787 41.5439ZM55.3014 41.3242V44.7607C55.3014 45.1182 55.2896 45.4668 55.2662 45.8066C55.2486 46.1465 55.2281 46.4102 55.2047 46.5977H55.3189C55.524 46.2578 55.776 45.9795 56.0748 45.7627C56.3736 45.54 56.7076 45.373 57.0768 45.2617C57.4518 45.1504 57.8502 45.0947 58.2721 45.0947C59.0162 45.0947 59.649 45.2207 60.1705 45.4727C60.692 45.7188 61.0904 46.1025 61.3658 46.624C61.6471 47.1455 61.7877 47.8223 61.7877 48.6543V55H59.7223V49.041C59.7223 48.2852 59.567 47.7197 59.2564 47.3447C58.9459 46.9639 58.4654 46.7734 57.815 46.7734C57.1881 46.7734 56.69 46.9053 56.3209 47.1689C55.9576 47.4268 55.6969 47.8105 55.5387 48.3203C55.3805 48.8242 55.3014 49.4395 55.3014 50.166V55H53.2359V41.3242H55.3014ZM73.3926 50.1133C73.3926 50.9219 73.2871 51.6396 73.0762 52.2666C72.8652 52.8936 72.5576 53.4238 72.1533 53.8574C71.749 54.2852 71.2627 54.6133 70.6943 54.8418C70.126 55.0645 69.4844 55.1758 68.7695 55.1758C68.1016 55.1758 67.4893 55.0645 66.9326 54.8418C66.376 54.6133 65.8926 54.2852 65.4824 53.8574C65.0781 53.4238 64.7646 52.8936 64.542 52.2666C64.3193 51.6396 64.208 50.9219 64.208 50.1133C64.208 49.041 64.3926 48.1328 64.7617 47.3887C65.1367 46.6387 65.6699 46.0674 66.3613 45.6748C67.0527 45.2822 67.876 45.0859 68.8311 45.0859C69.7275 45.0859 70.5186 45.2822 71.2041 45.6748C71.8896 46.0674 72.4258 46.6387 72.8125 47.3887C73.1992 48.1387 73.3926 49.0469 73.3926 50.1133ZM66.335 50.1133C66.335 50.8223 66.4199 51.4287 66.5898 51.9326C66.7656 52.4365 67.0352 52.8232 67.3984 53.0928C67.7617 53.3564 68.2305 53.4883 68.8047 53.4883C69.3789 53.4883 69.8477 53.3564 70.2109 53.0928C70.5742 52.8232 70.8408 52.4365 71.0107 51.9326C71.1807 51.4287 71.2656 50.8223 71.2656 50.1133C71.2656 49.4043 71.1807 48.8037 71.0107 48.3115C70.8408 47.8135 70.5742 47.4355 70.2109 47.1777C69.8477 46.9141 69.376 46.7822 68.7959 46.7822C67.9404 46.7822 67.3164 47.0693 66.9238 47.6436C66.5312 48.2178 66.335 49.041 66.335 50.1133ZM68.7783 58.4277C68.4502 58.4277 68.1719 58.3398 67.9434 58.1641C67.7207 57.9941 67.6094 57.7041 67.6094 57.2939C67.6094 56.8779 67.7207 56.585 67.9434 56.415C68.1719 56.2451 68.4502 56.1602 68.7783 56.1602C69.1006 56.1602 69.376 56.2451 69.6045 56.415C69.833 56.585 69.9473 56.8779 69.9473 57.2939C69.9473 57.7041 69.833 57.9941 69.6045 58.1641C69.376 58.3398 69.1006 58.4277 68.7783 58.4277ZM79.7855 55.1758C78.8656 55.1758 78.0687 54.9971 77.3949 54.6396C76.7211 54.2822 76.2025 53.7344 75.8393 52.9961C75.476 52.2578 75.2943 51.3203 75.2943 50.1836C75.2943 49 75.4936 48.0332 75.892 47.2832C76.2904 46.5332 76.8412 45.9795 77.5443 45.6221C78.2533 45.2646 79.0648 45.0859 79.9789 45.0859C80.559 45.0859 81.0834 45.1445 81.5521 45.2617C82.0268 45.373 82.4281 45.5107 82.7562 45.6748L82.141 47.3271C81.7836 47.1807 81.4174 47.0576 81.0424 46.958C80.6674 46.8584 80.307 46.8086 79.9613 46.8086C79.393 46.8086 78.9184 46.9346 78.5375 47.1865C78.1625 47.4385 77.8812 47.8135 77.6937 48.3115C77.5121 48.8096 77.4213 49.4277 77.4213 50.166C77.4213 50.8809 77.515 51.4844 77.7025 51.9766C77.89 52.4629 78.1684 52.832 78.5375 53.084C78.9066 53.3301 79.3607 53.4531 79.8998 53.4531C80.433 53.4531 80.9105 53.3887 81.3324 53.2598C81.7543 53.1309 82.1527 52.9639 82.5277 52.7588V54.5518C82.1586 54.7627 81.7631 54.918 81.3412 55.0176C80.9193 55.123 80.4008 55.1758 79.7855 55.1758ZM93.6086 55.1758C92.6887 55.1758 91.8918 54.9971 91.218 54.6396C90.5441 54.2822 90.0256 53.7344 89.6623 52.9961C89.299 52.2578 89.1174 51.3203 89.1174 50.1836C89.1174 49 89.3166 48.0332 89.715 47.2832C90.1135 46.5332 90.6643 45.9795 91.3674 45.6221C92.0764 45.2646 92.8879 45.0859 93.802 45.0859C94.382 45.0859 94.9064 45.1445 95.3752 45.2617C95.8498 45.373 96.2512 45.5107 96.5793 45.6748L95.9641 47.3271C95.6066 47.1807 95.2404 47.0576 94.8654 46.958C94.4904 46.8584 94.1301 46.8086 93.7844 46.8086C93.216 46.8086 92.7414 46.9346 92.3605 47.1865C91.9855 47.4385 91.7043 47.8135 91.5168 48.3115C91.3352 48.8096 91.2443 49.4277 91.2443 50.166C91.2443 50.8809 91.3381 51.4844 91.5256 51.9766C91.7131 52.4629 91.9914 52.832 92.3605 53.084C92.7297 53.3301 93.1838 53.4531 93.7229 53.4531C94.2561 53.4531 94.7336 53.3887 95.1555 53.2598C95.5773 53.1309 95.9758 52.9639 96.3508 52.7588V54.5518C95.9816 54.7627 95.5861 54.918 95.1643 55.0176C94.7424 55.123 94.2238 55.1758 93.6086 55.1758ZM107.217 45.2705V55H105.591L105.31 53.6904H105.196C104.991 54.0244 104.73 54.3027 104.414 54.5254C104.097 54.7422 103.746 54.9033 103.359 55.0088C102.972 55.1201 102.565 55.1758 102.137 55.1758C101.405 55.1758 100.778 55.0527 100.256 54.8066C99.7408 54.5547 99.3453 54.168 99.0699 53.6465C98.7945 53.125 98.6568 52.4512 98.6568 51.625V45.2705H100.731V51.2383C100.731 51.9941 100.883 52.5596 101.188 52.9346C101.499 53.3096 101.979 53.4971 102.629 53.4971C103.256 53.4971 103.754 53.3682 104.124 53.1104C104.493 52.8525 104.754 52.4717 104.906 51.9678C105.064 51.4639 105.143 50.8457 105.143 50.1133V45.2705H107.217ZM104.994 41.8779C104.994 42.3291 104.865 42.6924 104.607 42.9678C104.349 43.2373 103.995 43.4248 103.544 43.5303L103.464 44.3301H102.243L102.085 42.9238C102.53 42.8535 102.855 42.7451 103.06 42.5986C103.265 42.4521 103.368 42.2529 103.368 42.001C103.368 41.7607 103.28 41.5908 103.104 41.4912C102.934 41.3857 102.712 41.333 102.436 41.333C102.237 41.333 102.046 41.3477 101.865 41.377C101.689 41.4004 101.528 41.4326 101.381 41.4736V40.2959C101.528 40.249 101.713 40.2109 101.935 40.1816C102.164 40.1523 102.407 40.1377 102.665 40.1377C103.426 40.1377 104.004 40.2871 104.396 40.5859C104.795 40.8848 104.994 41.3154 104.994 41.8779ZM114.094 45.0859C115.324 45.0859 116.253 45.3584 116.88 45.9033C117.513 46.4482 117.829 47.2979 117.829 48.4521V55H116.361L115.966 53.6201H115.896C115.62 53.9717 115.336 54.2617 115.043 54.4902C114.75 54.7188 114.41 54.8887 114.023 55C113.643 55.1172 113.177 55.1758 112.626 55.1758C112.046 55.1758 111.527 55.0703 111.07 54.8594C110.613 54.6426 110.253 54.3145 109.989 53.875C109.726 53.4355 109.594 52.8789 109.594 52.2051C109.594 51.2031 109.966 50.4502 110.71 49.9463C111.46 49.4424 112.591 49.1641 114.103 49.1113L115.79 49.0498V48.54C115.79 47.8662 115.632 47.3857 115.315 47.0986C115.005 46.8115 114.565 46.668 113.997 46.668C113.511 46.668 113.039 46.7383 112.582 46.8789C112.125 47.0195 111.68 47.1924 111.246 47.3975L110.578 45.9385C111.053 45.6865 111.592 45.4814 112.195 45.3232C112.805 45.165 113.438 45.0859 114.094 45.0859ZM115.781 50.3506L114.524 50.3945C113.493 50.4297 112.77 50.6055 112.354 50.9219C111.938 51.2383 111.729 51.6719 111.729 52.2227C111.729 52.7031 111.873 53.0547 112.16 53.2773C112.447 53.4941 112.825 53.6025 113.294 53.6025C114.009 53.6025 114.601 53.4004 115.069 52.9961C115.544 52.5859 115.781 51.9854 115.781 51.1943V50.3506ZM127.662 41.3242V44.6201C127.662 45.001 127.65 45.376 127.627 45.7451C127.609 46.1084 127.592 46.3926 127.574 46.5977H127.662C127.926 46.1758 128.292 45.8213 128.761 45.5342C129.235 45.2412 129.842 45.0947 130.58 45.0947C131.734 45.0947 132.663 45.5195 133.366 46.3691C134.069 47.2129 134.421 48.4639 134.421 50.1221C134.421 51.2236 134.26 52.1494 133.937 52.8994C133.615 53.6494 133.161 54.2178 132.575 54.6045C131.995 54.9854 131.312 55.1758 130.527 55.1758C129.789 55.1758 129.191 55.041 128.734 54.7715C128.283 54.4961 127.929 54.1768 127.671 53.8135H127.521L127.143 55H125.596V41.3242H127.662ZM130.035 46.7734C129.449 46.7734 128.983 46.8906 128.637 47.125C128.298 47.3594 128.052 47.7109 127.899 48.1797C127.747 48.6426 127.668 49.2314 127.662 49.9463V50.1309C127.662 51.2148 127.832 52.0439 128.172 52.6182C128.517 53.1924 129.144 53.4795 130.053 53.4795C130.773 53.4795 131.327 53.1895 131.714 52.6094C132.1 52.0234 132.294 51.1855 132.294 50.0957C132.294 48.9941 132.1 48.165 131.714 47.6084C131.333 47.0518 130.773 46.7734 130.035 46.7734ZM140.726 45.0859C141.956 45.0859 142.885 45.3584 143.512 45.9033C144.145 46.4482 144.461 47.2979 144.461 48.4521V55H142.993L142.598 53.6201H142.528C142.252 53.9717 141.968 54.2617 141.675 54.4902C141.382 54.7188 141.042 54.8887 140.655 55C140.275 55.1172 139.809 55.1758 139.258 55.1758C138.678 55.1758 138.159 55.0703 137.702 54.8594C137.245 54.6426 136.885 54.3145 136.621 53.875C136.358 53.4355 136.226 52.8789 136.226 52.2051C136.226 51.2031 136.598 50.4502 137.342 49.9463C138.092 49.4424 139.223 49.1641 140.735 49.1113L142.422 49.0498V48.54C142.422 47.8662 142.264 47.3857 141.947 47.0986C141.637 46.8115 141.197 46.668 140.629 46.668C140.143 46.668 139.671 46.7383 139.214 46.8789C138.757 47.0195 138.312 47.1924 137.878 47.3975L137.21 45.9385C137.685 45.6865 138.224 45.4814 138.827 45.3232C139.437 45.165 140.07 45.0859 140.726 45.0859ZM142.413 50.3506L141.156 50.3945C140.125 50.4297 139.402 50.6055 138.986 50.9219C138.57 51.2383 138.362 51.6719 138.362 52.2227C138.362 52.7031 138.505 53.0547 138.792 53.2773C139.079 53.4941 139.457 53.6025 139.926 53.6025C140.641 53.6025 141.233 53.4004 141.701 52.9961C142.176 52.5859 142.413 51.9854 142.413 51.1943V50.3506ZM140.647 58.4277C140.319 58.4277 140.04 58.3398 139.812 58.1641C139.589 57.9941 139.478 57.7041 139.478 57.2939C139.478 56.8779 139.589 56.585 139.812 56.415C140.04 56.2451 140.319 56.1602 140.647 56.1602C140.969 56.1602 141.244 56.2451 141.473 56.415C141.701 56.585 141.816 56.8779 141.816 57.2939C141.816 57.7041 141.701 57.9941 141.473 58.1641C141.244 58.3398 140.969 58.4277 140.647 58.4277ZM152.524 45.0859C153.62 45.0859 154.472 45.3701 155.082 45.9385C155.697 46.501 156.004 47.4062 156.004 48.6543V55H153.939V49.041C153.939 48.2852 153.784 47.7197 153.473 47.3447C153.163 46.9639 152.682 46.7734 152.032 46.7734C151.088 46.7734 150.432 47.0635 150.063 47.6436C149.7 48.2236 149.518 49.0645 149.518 50.166V55H147.453V45.2705H149.061L149.351 46.5889H149.465C149.676 46.249 149.937 45.9707 150.248 45.7539C150.564 45.5312 150.916 45.3643 151.302 45.2529C151.695 45.1416 152.102 45.0859 152.524 45.0859ZM160.78 51.0801H159.225L158.803 42.1504H161.202L160.78 51.0801ZM158.697 53.9102C158.697 53.4297 158.82 53.0928 159.066 52.8994C159.318 52.7002 159.626 52.6006 159.989 52.6006C160.347 52.6006 160.651 52.7002 160.903 52.8994C161.155 53.0928 161.281 53.4297 161.281 53.9102C161.281 54.3789 161.155 54.7188 160.903 54.9297C160.651 55.1348 160.347 55.2373 159.989 55.2373C159.626 55.2373 159.318 55.1348 159.066 54.9297C158.82 54.7188 158.697 54.3789 158.697 53.9102Z" fill="#031A6E"/>
<rect x="16" y="68" width="150" height="44" rx="8" fill="#031A6E"/>
<path d="M69.076 94H67.2088V88.8438H61.9432V94H60.0682V82.5781H61.9432V87.25H67.2088V82.5781H69.076V94ZM79.7182 89.6562C79.7182 90.375 79.6244 91.013 79.4369 91.5703C79.2494 92.1276 78.976 92.599 78.6166 92.9844C78.2572 93.3646 77.8249 93.6562 77.3197 93.8594C76.8145 94.0573 76.2442 94.1562 75.6088 94.1562C75.015 94.1562 74.4708 94.0573 73.976 93.8594C73.4812 93.6562 73.0515 93.3646 72.6869 92.9844C72.3275 92.599 72.0489 92.1276 71.851 91.5703C71.653 91.013 71.5541 90.375 71.5541 89.6562C71.5541 88.7031 71.7182 87.8958 72.0463 87.2344C72.3796 86.5677 72.8536 86.0599 73.4682 85.7109C74.0827 85.362 74.8145 85.1875 75.6635 85.1875C76.4603 85.1875 77.1635 85.362 77.7728 85.7109C78.3822 86.0599 78.8588 86.5677 79.2025 87.2344C79.5463 87.901 79.7182 88.7083 79.7182 89.6562ZM73.4447 89.6562C73.4447 90.2865 73.5202 90.8255 73.6713 91.2734C73.8275 91.7214 74.0671 92.0651 74.39 92.3047C74.7129 92.5391 75.1296 92.6562 75.64 92.6562C76.1504 92.6562 76.5671 92.5391 76.89 92.3047C77.2129 92.0651 77.4499 91.7214 77.601 91.2734C77.752 90.8255 77.8275 90.2865 77.8275 89.6562C77.8275 89.026 77.752 88.4922 77.601 88.0547C77.4499 87.612 77.2129 87.276 76.89 87.0469C76.5671 86.8125 76.1478 86.6953 75.6322 86.6953C74.8718 86.6953 74.3171 86.9505 73.9682 87.4609C73.6192 87.9714 73.4447 88.7031 73.4447 89.6562ZM75.6166 97.0469C75.3249 97.0469 75.0775 96.9688 74.8744 96.8125C74.6765 96.6615 74.5775 96.4036 74.5775 96.0391C74.5775 95.6693 74.6765 95.4089 74.8744 95.2578C75.0775 95.1068 75.3249 95.0312 75.6166 95.0312C75.903 95.0312 76.1478 95.1068 76.351 95.2578C76.5541 95.4089 76.6557 95.6693 76.6557 96.0391C76.6557 96.4036 76.5541 96.6615 76.351 96.8125C76.1478 96.9688 75.903 97.0469 75.6166 97.0469ZM85.4619 94.1562C84.6442 94.1562 83.9359 93.9974 83.3369 93.6797C82.7379 93.362 82.277 92.875 81.9541 92.2188C81.6312 91.5625 81.4697 90.7292 81.4697 89.7188C81.4697 88.6667 81.6468 87.8073 82.001 87.1406C82.3551 86.474 82.8447 85.9818 83.4697 85.6641C84.0999 85.3464 84.8213 85.1875 85.6338 85.1875C86.1494 85.1875 86.6155 85.2396 87.0322 85.3438C87.4541 85.4427 87.8109 85.5651 88.1025 85.7109L87.5557 87.1797C87.2379 87.0495 86.9124 86.9401 86.5791 86.8516C86.2458 86.763 85.9254 86.7188 85.6182 86.7188C85.1129 86.7188 84.6911 86.8307 84.3525 87.0547C84.0192 87.2786 83.7692 87.612 83.6025 88.0547C83.4411 88.4974 83.3603 89.0469 83.3603 89.7031C83.3603 90.3385 83.4437 90.875 83.6103 91.3125C83.777 91.7448 84.0244 92.0729 84.3525 92.2969C84.6807 92.5156 85.0843 92.625 85.5635 92.625C86.0374 92.625 86.4619 92.5677 86.8369 92.4531C87.2119 92.3385 87.5661 92.1901 87.8994 92.0078V93.6016C87.5713 93.7891 87.2197 93.9271 86.8447 94.0156C86.4697 94.1094 86.0088 94.1562 85.4619 94.1562ZM97.6057 92.6719C97.8452 92.6719 98.0822 92.651 98.3166 92.6094C98.551 92.5625 98.7645 92.5078 98.9572 92.4453V93.8359C98.7541 93.9245 98.4911 94 98.1682 94.0625C97.8452 94.125 97.5093 94.1562 97.1603 94.1562C96.6708 94.1562 96.2307 94.0755 95.84 93.9141C95.4494 93.7474 95.1395 93.4635 94.9103 93.0625C94.6812 92.6615 94.5666 92.1068 94.5666 91.3984V86.75H93.3869V85.9297L94.6525 85.2812L95.2541 83.4297H96.4103V85.3516H98.8869V86.75H96.4103V91.375C96.4103 91.8125 96.5197 92.138 96.7385 92.3516C96.9572 92.5651 97.2463 92.6719 97.6057 92.6719ZM102.701 85.3516V94H100.865V85.3516H102.701ZM101.795 82.0391C102.076 82.0391 102.318 82.1146 102.521 82.2656C102.73 82.4167 102.834 82.6771 102.834 83.0469C102.834 83.4115 102.73 83.6719 102.521 83.8281C102.318 83.9792 102.076 84.0547 101.795 84.0547C101.503 84.0547 101.256 83.9792 101.053 83.8281C100.855 83.6719 100.756 83.4115 100.756 83.0469C100.756 82.6771 100.855 82.4167 101.053 82.2656C101.256 82.1146 101.503 82.0391 101.795 82.0391ZM108.929 85.1875C109.7 85.1875 110.361 85.3464 110.913 85.6641C111.466 85.9818 111.89 86.4323 112.187 87.0156C112.484 87.599 112.632 88.2969 112.632 89.1094V90.0938H106.859C106.88 90.9323 107.104 91.5781 107.531 92.0312C107.963 92.4844 108.567 92.7109 109.343 92.7109C109.895 92.7109 110.39 92.6589 110.828 92.5547C111.27 92.4453 111.726 92.2865 112.195 92.0781V93.5703C111.762 93.7734 111.322 93.9219 110.874 94.0156C110.426 94.1094 109.89 94.1562 109.265 94.1562C108.416 94.1562 107.669 93.9922 107.023 93.6641C106.382 93.3307 105.88 92.8359 105.515 92.1797C105.156 91.5234 104.976 90.7083 104.976 89.7344C104.976 88.7656 105.14 87.9427 105.468 87.2656C105.796 86.5885 106.257 86.0729 106.851 85.7188C107.445 85.3646 108.137 85.1875 108.929 85.1875ZM108.929 86.5703C108.351 86.5703 107.882 86.7578 107.523 87.1328C107.169 87.5078 106.96 88.0573 106.898 88.7812H110.835C110.83 88.349 110.757 87.9661 110.617 87.6328C110.481 87.2995 110.273 87.0391 109.992 86.8516C109.716 86.6641 109.361 86.5703 108.929 86.5703ZM111.546 84.3047H110.546C110.281 84.1224 110.007 83.9219 109.726 83.7031C109.445 83.4792 109.169 83.2422 108.898 82.9922C108.622 83.2422 108.343 83.4792 108.062 83.7031C107.786 83.9219 107.515 84.1224 107.249 84.3047H106.249V84.1016C106.426 83.9036 106.614 83.6875 106.812 83.4531C107.015 83.2135 107.213 82.9688 107.406 82.7188C107.604 82.4688 107.783 82.2266 107.945 81.9922H109.851C110.012 82.2266 110.19 82.4688 110.382 82.7188C110.58 82.9688 110.778 83.2135 110.976 83.4531C111.179 83.6875 111.369 83.9036 111.546 84.1016V84.3047ZM110.89 82.5859C111.104 82.3411 111.288 82.1016 111.445 81.8672C111.606 81.6328 111.77 81.3464 111.937 81.0078H113.531V81.1719C113.307 81.474 113.044 81.763 112.742 82.0391C112.445 82.3099 112.15 82.5573 111.859 82.7812H110.89V82.5859ZM119.29 85.1875C120.316 85.1875 121.139 85.5625 121.759 86.3125C122.384 87.0625 122.696 88.1771 122.696 89.6562C122.696 90.6354 122.55 91.4609 122.259 92.1328C121.972 92.7995 121.569 93.3047 121.048 93.6484C120.532 93.987 119.931 94.1562 119.243 94.1562C118.806 94.1562 118.425 94.099 118.103 93.9844C117.78 93.8698 117.504 93.7214 117.274 93.5391C117.045 93.3516 116.853 93.1484 116.696 92.9297H116.587C116.613 93.138 116.636 93.3698 116.657 93.625C116.683 93.875 116.696 94.1042 116.696 94.3125V97.8359H114.853V85.3516H116.353L116.61 86.5469H116.696C116.858 86.3021 117.053 86.0755 117.282 85.8672C117.517 85.6589 117.798 85.4948 118.126 85.375C118.459 85.25 118.847 85.1875 119.29 85.1875ZM118.798 86.6875C118.293 86.6875 117.886 86.7891 117.579 86.9922C117.277 87.1901 117.056 87.4896 116.915 87.8906C116.78 88.2917 116.707 88.7943 116.696 89.3984V89.6562C116.696 90.2969 116.761 90.8411 116.892 91.2891C117.027 91.7318 117.248 92.0703 117.556 92.3047C117.868 92.5339 118.29 92.6484 118.821 92.6484C119.269 92.6484 119.639 92.526 119.931 92.2812C120.228 92.0365 120.449 91.6875 120.595 91.2344C120.741 90.7812 120.813 90.2474 120.813 89.6328C120.813 88.7005 120.647 87.9766 120.313 87.4609C119.985 86.9453 119.48 86.6875 118.798 86.6875Z" fill="white"/>
<g clip-path="url(#clip2_644_3701)">
<path d="M331.692 74.4437C331.692 74.4437 306.339 79.5381 290.042 103.228C290.042 103.228 286.8 108.002 282.178 103.874C282.178 103.874 253.707 92.7483 235.023 95.829L236.338 89.7237L265.352 44.2195C265.352 44.2195 289.258 39.4599 304.004 47.4182C304.004 47.4182 331.315 24.9309 347.192 20.6756L353.215 17.8085L331.692 74.4437Z" fill="url(#paint3_linear_644_3701)"/>
<path d="M232.941 91.3204L234.312 84.3246C234.312 84.3246 261.726 79.8453 283.145 92.4904C283.145 92.4904 299.08 68.1224 321.554 63.0299L342.514 13.2509L348.722 19.9007L328.686 70.8859C328.686 70.8859 307.839 76.1684 288.904 97.1343C288.904 97.1343 287.278 102.523 282.339 99.5998C282.335 99.5892 256.041 88.0308 232.941 91.3204Z" fill="#DFD9E8"/>
<path d="M234.311 84.3245L266.65 40.1324C266.65 40.1324 295.136 42.1734 304.016 47.3889C304.016 47.3889 321.14 26.84 342.506 13.2297L321.545 63.0087C321.545 63.0087 304.938 67.1305 283.137 92.4692C283.145 92.4903 251.559 81.6355 234.311 84.3245Z" fill="white"/>
<path d="M241.516 74.3227L239.017 77.7311C239.017 77.7311 268.733 82.4451 283.145 92.4903L284.758 76.509" fill="#DFD9E8"/>
<path d="M282.802 91.6281C282.802 91.6281 258.782 72.1187 235.105 74.6983L268.94 30.2548C268.94 30.2548 286.507 31.786 304.035 47.4058L282.802 91.6281Z" fill="white"/>
<path d="M335.127 18.4135L338.558 15.8558L320.626 60.0807C320.626 60.0807 301.865 70.788 293.346 80.7751" fill="#DFD9E8"/>
<path d="M283.145 92.4903L304.014 47.4141C304.014 47.4141 323.324 21.1907 338.838 12.7749L319.323 60.062C319.323 60.062 301.805 68.8242 283.145 92.4903Z" fill="white"/>
<path d="M283.145 92.4903L305.836 45.0242L304.025 47.4099L282.802 91.6281L283.145 92.4903Z" fill="#DFD9E8"/>
<path d="M304.909 48.6075C306.79 46.9851 308.512 45.188 310.052 43.2408C310.893 42.2674 311.7 41.3138 312.614 40.4154C313.527 39.5171 314.446 38.6472 315.387 37.7868C317.277 36.0568 319.016 34.1912 320.763 32.3289C322.51 30.4665 324.331 28.654 326.249 26.9494C328.425 25.0276 330.71 23.2325 333.094 21.5732C333.32 21.4177 333.034 21.0922 332.808 21.2477C328.571 24.205 324.649 27.5865 321.103 31.339C319.347 33.1929 317.645 35.1228 315.771 36.8466C314.848 37.706 313.897 38.54 312.995 39.4216C312.093 40.3032 311.254 41.2208 310.468 42.1483C308.627 44.2846 306.861 46.5192 304.654 48.3001C304.436 48.4766 304.722 48.8021 304.94 48.6256L304.909 48.6075Z" fill="#DFD9E8"/>
<path d="M303.354 52.6006C305.03 51.167 306.618 49.634 308.209 48.1063C309.799 46.5786 311.381 45.1392 313.005 43.6958C316.276 40.7934 319.41 37.744 322.695 34.8606C324.552 33.2344 326.436 31.6404 328.348 30.0783C328.566 29.9018 328.274 29.5783 328.061 29.7528C324.665 32.528 321.36 35.4053 318.145 38.3848C316.54 39.8756 314.947 41.3802 313.312 42.8404C311.677 44.3005 310.07 45.7251 308.506 47.2245C306.728 48.9289 304.962 50.665 303.063 52.2772C303.019 52.3159 302.993 52.37 302.99 52.4277C302.987 52.4853 303.007 52.5418 303.045 52.5847C303.084 52.6276 303.138 52.6534 303.196 52.6564C303.254 52.6594 303.311 52.6393 303.354 52.6006Z" fill="#DFD9E8"/>
<path d="M302.083 57.0844C303.729 55.7779 305.29 54.3468 306.824 52.9386C308.357 51.5305 309.955 50.1637 311.566 48.8286C314.796 46.1489 317.855 43.3295 321.084 40.6624C322.912 39.1693 324.775 37.7132 326.672 36.2941C326.895 36.1281 326.611 35.8079 326.388 35.9739C323.029 38.4793 319.78 41.1116 316.643 43.8707C315.072 45.2449 313.514 46.6382 311.918 47.9797C310.322 49.3213 308.688 50.6594 307.153 52.0623C305.404 53.6522 303.681 55.2802 301.818 56.7506C301.598 56.9219 301.884 57.2474 302.104 57.0761L302.083 57.0844Z" fill="#DFD9E8"/>
<path d="M299.268 63.9649C300.917 62.6636 302.478 61.2325 304.011 59.8244C305.544 58.4162 307.142 57.0495 308.753 55.7143C311.983 53.0346 315.042 50.2152 318.271 47.5481C320.096 46.048 321.959 44.5919 323.86 43.1799C324.082 43.0139 323.796 42.6883 323.573 42.8543C320.219 45.3822 316.97 48.0145 313.828 50.7511C312.259 52.1307 310.707 53.5218 309.111 54.8634C307.515 56.2049 305.881 57.5431 304.346 58.9459C302.591 60.5379 300.866 62.1606 299.008 63.629C298.79 63.8055 299.076 64.131 299.295 63.9545L299.268 63.9649Z" fill="#DFD9E8"/>
<path d="M295.032 72.7263C296.68 71.4251 298.241 69.9939 299.767 68.5826C301.293 67.1713 302.901 65.813 304.515 64.4705C307.747 61.7961 310.798 58.9734 314.033 56.3043C315.864 54.8098 317.726 53.3562 319.618 51.9434C319.843 51.77 319.554 51.4519 319.332 51.6178C315.972 54.1233 312.724 56.7555 309.586 59.5146C308.015 60.8889 306.463 62.2801 304.862 63.6237C303.26 64.9673 301.632 66.3034 300.102 67.7042C298.347 69.2962 296.625 70.9241 294.767 72.3925C294.546 72.5638 294.833 72.8893 295.053 72.718L295.032 72.7263Z" fill="#DFD9E8"/>
<path d="M291.54 79.5315C293.188 78.2302 294.749 76.7991 296.275 75.3878C297.801 73.9764 299.408 72.6182 301.022 71.2757C304.254 68.6013 307.306 65.7786 310.54 63.1094C312.372 61.615 314.234 60.1613 316.126 58.7485C316.353 58.5805 316.062 58.257 315.839 58.423C312.48 60.9284 309.232 63.5607 306.094 66.3198C304.523 67.6941 302.973 69.0905 301.37 70.4289C299.766 71.7672 298.14 73.1085 296.604 74.5114C294.857 76.1066 293.133 77.7293 291.275 79.1977C291.049 79.371 291.341 79.6944 291.561 79.5232L291.54 79.5315Z" fill="#DFD9E8"/>
<path d="M299.872 47.9653C297.848 47.3156 295.903 46.4463 294.072 45.3732C293.116 44.8662 292.159 44.3592 291.171 43.9256C290.182 43.4921 289.147 43.1435 288.126 42.7834C286.075 42.0547 284.101 41.1497 282.125 40.2395C280.151 39.3303 278.129 38.527 276.068 37.8331C273.722 37.0571 271.325 36.4419 268.893 35.9916C268.657 35.9504 268.795 35.5378 269.026 35.5812C273.353 36.3841 277.565 37.7071 281.569 39.5213C283.555 40.4094 285.508 41.3711 287.555 42.1197C288.562 42.4913 289.578 42.823 290.575 43.2166C291.556 43.6152 292.514 44.0635 293.448 44.5599C295.581 45.6697 297.681 46.8961 300.014 47.5328C300.246 47.594 300.108 48.0066 299.876 47.9454L299.872 47.9653Z" fill="#DFD9E8"/>
<path d="M298.24 51.4963C296.22 50.8614 294.279 50.0025 292.453 48.9358C291.496 48.4288 290.537 47.9291 289.548 47.4956C288.56 47.062 287.53 46.7114 286.507 46.346C284.452 45.6246 282.482 44.7124 280.511 43.8306C278.537 42.9122 276.512 42.1036 274.447 41.4084C272.104 40.6301 269.708 40.0141 267.278 39.5648C267.042 39.5235 267.18 39.111 267.411 39.1543C271.737 39.9576 275.948 41.2788 279.952 43.0892C281.934 43.9847 283.893 44.9442 285.934 45.6949C286.94 46.0613 287.963 46.3962 288.96 46.7898C289.958 47.1834 290.89 47.645 291.831 48.1278C293.966 49.2429 296.066 50.4693 298.397 51.1007C298.624 51.164 298.491 51.5745 298.259 51.5132L298.24 51.4963Z" fill="#DFD9E8"/>
<path d="M295.955 55.5748C293.936 54.9239 291.996 54.0525 290.171 52.9764C289.215 52.4694 288.253 51.9645 287.266 51.5362C286.28 51.108 285.241 50.7488 284.22 50.3887C282.168 49.66 280.2 48.753 278.219 47.8448C276.241 46.9336 274.213 46.1324 272.145 45.4447C269.8 44.6655 267.403 44.0502 264.971 43.6032C264.74 43.5598 264.878 43.1473 265.109 43.1906C269.435 43.9974 273.647 45.3203 277.652 47.1307C279.634 48.0263 281.593 48.9858 283.632 49.7313C284.64 50.1029 285.661 50.4325 286.658 50.8261C287.656 51.2197 288.588 51.6814 289.526 52.1714C291.664 53.2792 293.764 54.5056 296.092 55.1443C296.324 55.2056 296.186 55.6181 295.959 55.5548L295.955 55.5748Z" fill="#DFD9E8"/>
<path d="M293.958 59.7653C291.937 59.1249 289.993 58.2678 288.16 57.2089C287.203 56.7019 286.249 56.2002 285.26 55.7666C284.272 55.3331 283.235 54.9792 282.214 54.6191C280.164 53.8957 278.189 52.9855 276.213 52.0753C274.237 51.1605 272.213 50.3519 270.149 49.6531C267.807 48.878 265.414 48.2631 262.987 47.8127C262.751 47.7714 262.889 47.3589 263.125 47.4001C267.452 48.2066 271.663 49.5295 275.668 51.3402C277.656 52.2337 279.609 53.1953 281.654 53.9387C282.661 54.3103 283.677 54.642 284.675 55.0356C285.672 55.4292 286.605 55.8909 287.548 56.3788C289.681 57.4887 291.781 58.7151 294.114 59.3518C294.346 59.413 294.208 59.8256 293.976 59.7643L293.958 59.7653Z" fill="#DFD9E8"/>
<path d="M290.78 64.1259C288.756 63.4922 286.809 62.6355 284.977 61.5716C284.021 61.0646 283.061 60.565 282.073 60.1314C281.084 59.6979 280.076 59.3568 279.068 58.9673C277.014 58.2459 275.043 57.3336 273.072 56.4519C271.098 55.5335 269.074 54.7249 267.009 54.0297C264.666 53.2531 262.271 52.6389 259.841 52.1914C259.603 52.1448 259.743 51.7375 259.974 51.7809C264.301 52.582 268.512 53.9033 272.515 55.7157C274.498 56.6112 276.456 57.5708 278.498 58.3215C279.503 58.6878 280.524 59.0174 281.524 59.4163C282.499 59.8049 283.454 60.2426 284.384 60.728C286.517 61.8378 288.617 63.0642 290.95 63.7009C291.177 63.7642 291.044 64.1747 290.812 64.1135L290.78 64.1259Z" fill="#DFD9E8"/>
<path d="M287.572 68.9239C285.552 68.289 283.611 67.4301 281.785 66.3634C280.829 65.8564 279.869 65.3567 278.881 64.9232C277.892 64.4896 276.855 64.1357 275.834 63.7756C273.784 63.0522 271.814 62.1399 269.843 61.2581C267.869 60.3362 265.844 59.5257 263.778 58.8307C261.432 58.057 259.035 57.4435 256.605 56.9944C256.374 56.9511 256.512 56.5385 256.743 56.5819C261.069 57.3848 265.28 58.7059 269.284 60.5167C271.266 61.4122 273.225 62.3718 275.267 63.1225C276.272 63.4888 277.295 63.8237 278.293 64.2174C279.27 64.6149 280.227 65.0621 281.158 65.5574C283.297 66.6652 285.398 67.8969 287.724 68.5303C287.956 68.5916 287.818 69.0041 287.591 68.9408L287.572 68.9239Z" fill="#DFD9E8"/>
<path d="M286.502 74.5751C284.309 73.8836 282.194 72.9701 280.191 71.8486C279.15 71.3138 278.104 70.7811 277.026 70.3218C275.948 69.8625 274.825 69.4756 273.712 69.0845C271.482 68.3043 269.356 67.3249 267.152 66.3766C264.997 65.4023 262.793 64.5363 260.55 63.7821C258.002 62.9399 255.402 62.2584 252.766 61.7416C252.51 61.696 252.648 61.2834 252.899 61.3311C257.585 62.2547 262.152 63.6942 266.515 65.6232C268.686 66.5965 270.81 67.5885 273.035 68.4013C274.132 68.7986 275.24 69.1613 276.329 69.586C277.418 70.0106 278.432 70.4948 279.459 71.0106C281.789 72.1836 284.083 73.4552 286.618 74.1708C286.867 74.2437 286.729 74.6563 286.48 74.5834L286.502 74.5751Z" fill="#DFD9E8"/>
<path d="M282.48 80.9009C280.212 80.1825 278.021 79.2421 275.941 78.0933C274.859 77.5446 273.773 77.0032 272.658 76.5279C271.543 76.0527 270.374 75.6591 269.227 75.2573C266.912 74.4493 264.684 73.4557 262.442 72.443C260.2 71.4303 257.939 70.5585 255.6 69.7662C252.962 68.8968 250.273 68.1896 247.547 67.6485C247.289 67.5976 247.427 67.185 247.685 67.2359C252.532 68.2107 257.257 69.7032 261.779 71.6873C263.998 72.6725 266.236 73.7051 268.527 74.5161C269.661 74.9295 270.809 75.3008 271.934 75.7414C273.06 76.182 274.131 76.6686 275.182 77.1993C277.603 78.4033 279.982 79.7207 282.601 80.4462C282.857 80.5223 282.724 80.9328 282.465 80.864L282.48 80.9009Z" fill="#DFD9E8"/>
<path d="M324.695 67.7926C304.766 73.7975 287.707 93.5432 287.557 93.7359L287.126 93.3696C287.293 93.1707 304.444 73.3035 324.531 67.249L324.695 67.7926Z" fill="#FFBDD8"/>
<path d="M304.095 47.0117C304.095 47.0117 297.502 60.9976 290.136 76.3191C282.77 91.6406 284.644 97.5858 286.505 108.951L288.457 105.349L290.844 105.965C290.844 105.965 287.854 94.9502 289.846 88.6531C291.838 82.356 309.226 40.7563 309.226 40.7563L304.095 47.0117Z" fill="url(#paint4_linear_644_3701)"/>
</g>
<defs>
<linearGradient id="paint0_linear_644_3701" x1="180.5" y1="4.05213e-06" x2="180.5" y2="128" gradientUnits="userSpaceOnUse">
<stop stop-color="#E3F3FF"/>
<stop offset="1" stop-color="#FFF2CE"/>
</linearGradient>
<linearGradient id="paint1_linear_644_3701" x1="314" y1="60" x2="313.5" y2="108.5" gradientUnits="userSpaceOnUse">
<stop stop-color="white"/>
<stop offset="1" stop-color="white" stop-opacity="0"/>
</linearGradient>
<linearGradient id="paint2_linear_644_3701" x1="219.091" y1="95.0583" x2="226.202" y2="95.0583" gradientUnits="userSpaceOnUse">
<stop stop-color="#FDC600"/>
<stop offset="1" stop-color="#DDA800"/>
</linearGradient>
<linearGradient id="paint3_linear_644_3701" x1="233.337" y1="91.5969" x2="362.358" y2="41.1149" gradientUnits="userSpaceOnUse">
<stop stop-color="#012D64"/>
<stop offset="1" stop-color="#0D3F99"/>
</linearGradient>
<linearGradient id="paint4_linear_644_3701" x1="276.46" y1="83.2317" x2="319.294" y2="66.4721" gradientUnits="userSpaceOnUse">
<stop stop-color="#FDC600"/>
<stop offset="1" stop-color="#DDA800"/>
</linearGradient>
<clipPath id="clip0_644_3701">
<rect width="209" height="84" fill="white" transform="matrix(-1 0 0 1 375 45)"/>
</clipPath>
<clipPath id="clip1_644_3701">
<rect width="49" height="40" fill="white" transform="translate(219 89)"/>
</clipPath>
<clipPath id="clip2_644_3701">
<rect width="138.808" height="79.6858" fill="white" transform="translate(217 50.5774) rotate(-21.3689)"/>
</clipPath>
</defs>
</svg>
